<svg xmlns="http://www.w3.org/2000/svg" width="69" height="90" viewBox="0 0 69 90">
    <g fill="#000" fill-rule="nonzero">
        <path d="M60.552 9a7.789 7.789 0 0 0-5.546 2.299 7.768 7.768 0 0 0-2.178 4.33c-2.709-1.517-5.543-2.293-8.474-2.293-5.935 0-12.09 3.146-18.296 9.351-5.591 5.592-10.952 8.072-14.233 9.152l-.186-.186c-1.692-1.695-4.643-1.694-6.336-.001l-3.99 3.99A4.452 4.452 0 0 0 0 38.81a4.44 4.44 0 0 0 1.314 3.166l34.11 34.109a4.447 4.447 0 0 0 3.168 1.315 4.446 4.446 0 0 0 3.167-1.314l3.99-3.99a4.451 4.451 0 0 0 1.312-3.167 4.439 4.439 0 0 0-1.312-3.167l-.187-.187c1.079-3.281 3.559-8.641 9.151-14.234 9.232-9.23 11.608-18.535 7.03-26.768a7.765 7.765 0 0 0 4.358-2.182 7.79 7.79 0 0 0 2.299-5.545 7.79 7.79 0 0 0-2.299-5.547A7.796 7.796 0 0 0 60.551 9zM38.608 72.935c-.005.004-.008.007-.016.007L4.467 38.792l4.019-3.988 1.625 1.625 32.487 32.516-3.99 3.99zM51.56 48.189c-5.06 5.061-7.894 9.977-9.477 13.907l-26.78-26.78c3.932-1.582 8.846-4.416 13.907-9.477 9.432-9.433 17.998-10.574 25.529-3.214 7.444 7.617 6.405 15.98-3.179 25.564zm11.388-28.948c-1.278 1.278-3.508 1.281-4.79 0a3.362 3.362 0 0 1-.991-2.394c0-.905.35-1.756.99-2.395a3.37 3.37 0 0 1 2.395-.993c.904 0 1.756.353 2.395.993s.992 1.49.992 2.395a3.362 3.362 0 0 1-.99 2.394zM26.611 14.919a1.497 1.497 0 0 0 2.13-.133c.316-.358 7.862-8.754 18.841-5.64a1.507 1.507 0 0 0 1.861-1.055 1.526 1.526 0 0 0-1.044-1.88c-12.847-3.643-21.56 6.14-21.923 6.561-.55.628-.49 1.59.135 2.147z"/>
        <path d="M27.553 9c.402 0 .801-.181 1.09-.536.242-.299 6.06-7.301 14.51-4.703.776.237 1.576-.254 1.793-1.1.216-.845-.233-1.724-1.007-1.96C33.695-2.446 26.752 6 26.461 6.361c-.529.658-.47 1.66.13 2.24.276.266.62.398.962.398zM52.26 75.212c-.316.36-7.86 8.763-18.842 5.64a1.517 1.517 0 0 0-1.861 1.055 1.527 1.527 0 0 0 1.044 1.88c2.011.57 3.921.813 5.713.813 9.657 0 15.902-7.02 16.21-7.374.55-.63.49-1.592-.135-2.148a1.506 1.506 0 0 0-2.13.134z"/>
        <path d="M52.355 81.54c-.06.073-6.005 7.319-14.508 4.699-.762-.234-1.576.254-1.793 1.1-.216.844.233 1.723 1.006 1.96 1.604.494 3.126.701 4.555.701 7.697 0 12.678-6.058 12.923-6.363.53-.658.471-1.663-.132-2.243-.6-.577-1.52-.513-2.051.146z"/>
    </g>
</svg>
