<svg xmlns="http://www.w3.org/2000/svg" xmlns:xlink="http://www.w3.org/1999/xlink" width="177" height="175" viewBox="0 0 177 175">
    <defs>
        <path id="a" d="M.239.032H12.55v13.88H.239z"/>
        <path id="c" d="M.033.533h14.581v14.829H.034z"/>
        <path id="e" d="M.015.489h14.627v11.425H.015z"/>
    </defs>
    <g fill="none" fill-rule="evenodd">
        <ellipse cx="103" cy="72" fill="#FFD900" rx="73" ry="72"/>
        <path fill="#FFE551" d="M153.735 123.205L51.516 21.113c-28.46 28.424-28.648 74.32-.42 102.512 28.226 28.192 74.18 28.004 102.639-.42z"/>
        <path fill="#000" d="M98.895 55.284H84.5c-1.311 0-2.373 1.025-2.373 2.284 0 1.265 1.062 2.287 2.373 2.287h14.396c1.312 0 2.373-1.022 2.373-2.287 0-1.26-1.061-2.284-2.373-2.284M123.653 55.284h-14.366c-1.32 0-2.389 1.025-2.389 2.284 0 1.265 1.07 2.287 2.389 2.287h14.366c1.32 0 2.388-1.022 2.388-2.287 0-1.26-1.069-2.284-2.388-2.284M110.155 45H95.76c-1.311 0-2.373 1.024-2.373 2.284 0 1.265 1.062 2.287 2.373 2.287h14.396c1.312 0 2.374-1.022 2.374-2.287 0-1.26-1.062-2.284-2.374-2.284M86.761 45h-2.514c-1.172 0-2.121 1.024-2.121 2.284 0 1.265.949 2.287 2.121 2.287h2.514c1.172 0 2.121-1.022 2.121-2.287 0-1.26-.949-2.284-2.12-2.284M111.18 96.42h-2.933c-1.367 0-2.475 1.025-2.475 2.285 0 1.265 1.108 2.287 2.475 2.287h2.933c1.367 0 2.475-1.022 2.475-2.287 0-1.26-1.108-2.284-2.475-2.284"/>
        <path d="M82.126 95.278h19.142v5.714H82.126z"/>
        <path fill="#000" d="M99.147 95.278h-2.514c-1.172 0-2.12 1.28-2.12 2.855 0 1.581.948 2.859 2.12 2.859h2.514c1.172 0 2.121-1.278 2.121-2.859 0-1.574-.949-2.855-2.12-2.855M86.761 95.278h-2.514c-1.172 0-2.121 1.28-2.121 2.855 0 1.581.949 2.859 2.121 2.859h2.514c1.172 0 2.121-1.278 2.121-2.859 0-1.574-.949-2.855-2.12-2.855M103.274 86.137H83.498c-1.38 0-2.498 1.024-2.498 2.284 0 1.265 1.118 2.286 2.498 2.286h19.776c1.38 0 2.498-1.021 2.498-2.286 0-1.26-1.117-2.284-2.498-2.284M113.432 86.137h-2.933c-1.367 0-2.474 1.024-2.474 2.284 0 1.265 1.316 2.286 2.683 2.286h2.933c1.368 0 2.266-1.021 2.266-2.286 0-1.26-1.108-2.284-2.475-2.284M124.692 86.137h-2.933c-1.367 0-2.474 1.024-2.474 2.284 0 1.265 1.316 2.286 2.684 2.286h2.932c1.368 0 2.266-1.021 2.266-2.286 0-1.26-1.107-2.284-2.475-2.284M98.848 75.853H83.42c-1.337 0-2.42 1.024-2.42 2.284 0 1.264 1.083 2.286 2.42 2.286h15.428c1.337 0 2.42-1.022 2.42-2.286 0-1.26-1.083-2.284-2.42-2.284M115.619 75.853h-8.433c-1.403 0-2.54 1.024-2.54 2.284 0 1.264 1.137 2.286 2.54 2.286h8.433c1.403 0 2.54-1.022 2.54-2.286 0-1.26-1.137-2.284-2.54-2.284M129.196 75.853h-2.932c-1.368 0-2.475 1.024-2.475 2.284 0 1.264 1.107 2.286 2.475 2.286h2.932c1.368 0 2.475-1.022 2.475-2.286 0-1.26-1.107-2.284-2.475-2.284M117.912 65.568H98.137c-1.381 0-2.499 1.025-2.499 2.285 0 1.264 1.118 2.286 2.499 2.286h19.775c1.38 0 2.499-1.022 2.499-2.286 0-1.26-1.118-2.285-2.499-2.285M86.407 65.568h-2.932c-1.368 0-2.475 1.025-2.475 2.285 0 1.264 1.107 2.286 2.475 2.286h2.932c1.368 0 2.475-1.022 2.475-2.286 0-1.26-1.107-2.285-2.475-2.285M129.196 65.568h-2.932c-1.368 0-2.475 1.025-2.475 2.285 0 1.264 1.107 2.286 2.475 2.286h2.932c1.368 0 2.475-1.022 2.475-2.286 0-1.26-1.107-2.285-2.475-2.285"/>
        <g>
            <g transform="translate(95.596 7.602)">
                <mask id="b" fill="#fff">
                    <use xlink:href="#a"/>
                </mask>
                <path fill="#1F1812" d="M7.494 1.555c-3.506.073-5.694 2.484-5.63 5.539v.038c.065 3.055 2.354 5.413 5.86 5.34l3.248-.068-.23-10.917-3.248.068zm5.057 11.467a.79.79 0 0 1-.757.805l-4.04.083C3.395 14.001.322 11.09.24 7.206v-.04C.159 3.285 3.106.206 7.464.116l4.04-.084a.789.789 0 0 1 .79.772l.257 12.218z" mask="url(#b)"/>
            </g>
            <path fill="#1F1812" d="M89.543 10.102l3.473 11.94c.123.424-.118.872-.52.99l-8.292 2.462a.712.712 0 0 1-.888-.49.721.721 0 0 1 .485-.897l7.53-2.234-1.339-4.603-6.672 1.98a.724.724 0 0 1-.888-.489.72.72 0 0 1 .485-.897l6.672-1.98-1.373-4.718-7.625 2.263a.712.712 0 0 1-.888-.49.722.722 0 0 1 .484-.897l8.39-2.49c.4-.118.843.127.966.55M68.6 23.67l6.43 4.505-1.01-7.969-5.42 3.464zm6.2-8.896l1.674 13.874c.06.49-.057.879-.477 1.148l-.068.043c-.404.258-.808.203-1.189-.083L63.518 22.01c-.123-.09-.23-.19-.292-.295a.793.793 0 0 1 .245-1.07c.319-.205.673-.119.957.085l2.902 2.02 6.462-4.132-.465-3.625c-.059-.371.056-.686.359-.879a.695.695 0 0 1 .98.24.952.952 0 0 1 .133.42zM59.512 25.048l.03.028c.205.191.284.403.323.686l2.242 14.145 5.504-6.018a.707.707 0 0 1 1.002-.055c.293.274.312.73.04 1.026l-6.466 7.072c-.257.281-.723.314-.987.068l-.03-.027c-.205-.192-.284-.403-.324-.687l-2.24-14.145-5.722 6.256a.707.707 0 0 1-1.002.054.726.726 0 0 1-.04-1.026l6.67-7.293c.27-.297.735-.33 1-.084M50.707 43.974l8.896-1.21a.998.998 0 0 1 .562.099c.373.206.512.731.304 1.135-.16.312-.441.416-.784.463l-8.073.98 3.694 7.542c.154.32.236.602.076.914a.77.77 0 0 1-1.06.335c-.175-.098-.314-.316-.408-.486l-3.927-8.283-4.283-2.37a.85.85 0 0 1-.33-1.127.79.79 0 0 1 1.085-.343l4.248 2.35zM38.929 68.062a.732.732 0 0 1 .612-.294c.447.001.792.338.79.751a.68.68 0 0 1-.184.474c-1.143 1.298-1.697 2.598-1.703 4.353-.006 1.854 1.007 3.08 2.41 3.085h.042c1.322.004 2.077-.684 2.716-3.581.723-3.174 1.786-4.63 4.125-4.623h.042c2.237.007 3.879 1.926 3.87 4.549-.006 1.815-.478 3.134-1.418 4.393a.836.836 0 0 1-.652.334.76.76 0 0 1-.77-.752c0-.178.04-.315.142-.453.88-1.161 1.25-2.284 1.254-3.567.005-1.794-1.008-2.941-2.29-2.946h-.04c-1.343-.004-2.098.704-2.78 3.74-.7 3.074-1.865 4.49-4.041 4.484h-.042c-2.44-.007-4.02-1.985-4.012-4.726.006-2.012.664-3.686 1.929-5.22M51.566 85.034L50.7 80.87c-.087-.41.15-.832.534-.923.386-.09.786.18.871.59l2.075 9.969c.085.41-.169.836-.553.927-.386.091-.767-.184-.852-.595l-.868-4.164-11.4 2.693c-.424.1-.847-.187-.94-.638-.095-.452.175-.903.599-1.003l11.4-2.692zM51.119 103.415l5.055-6.07-7.959.297 2.904 5.773zm-8.19-7.052l13.85-.43c.488-.017.86.136 1.086.585l.036.07c.216.43.124.833-.194 1.19l-8.71 10.607c-.1.116-.209.215-.318.268a.777.777 0 0 1-1.033-.344c-.171-.34-.052-.689.175-.957l2.269-2.741-3.463-6.885-3.62.14c-.373.027-.672-.117-.835-.44a.714.714 0 0 1 .33-.965.935.935 0 0 1 .427-.098zM60.803 105.1a.774.774 0 0 1 1.081.024l.122.127c.23.243.266.537.205.814l-1.929 8.696 8.709-1.573a.828.828 0 0 1 .8.24l.122.128c.284.3.274.801-.023 1.088l-8.898 8.59a.78.78 0 0 1-1.096-.01.808.808 0 0 1 .024-1.116l7.385-7.128-7.693 1.302c-.305.049-.54.002-.73-.197-.19-.2-.24-.452-.179-.757l1.617-7.656-7.385 7.129a.75.75 0 0 1-1.08-.024.757.757 0 0 1 .036-1.073l8.912-8.604zM74.458 125.53c2.062 1.203 4.052.885 5.003-.757l.02-.036c1.034-1.785.238-3.492-1.77-4.664l-3.145-1.838-3.181 5.5 3.073 1.794zm-.955-8.703a.82.82 0 0 1 1.107-.31l3.962 2.315c2.808 1.64 3.788 4.218 2.362 6.682l-.02.035c-1.56 2.696-4.605 2.78-7.253 1.235l-3.02-1.764-2.191 3.784a.822.822 0 0 1-1.124.299c-.373-.218-.507-.726-.28-1.12l6.457-11.156z"/>
            <g transform="translate(95.596 124.094)">
                <mask id="d" fill="#fff">
                    <use xlink:href="#c"/>
                </mask>
                <path fill="#1F1812" d="M12.938 8.05l.001-.041c.036-3.257-2.304-5.946-5.572-5.98-3.266-.037-5.622 2.559-5.657 5.815l-.001.041c-.036 3.257 2.304 5.945 5.57 5.981 3.267.036 5.624-2.56 5.66-5.816M.033 7.908v-.04C.078 3.913 3.076.484 7.425.532c4.35.048 7.232 3.5 7.189 7.453v.041c-.044 3.953-3.042 7.382-7.392 7.334-4.35-.048-7.231-3.5-7.188-7.453" mask="url(#d)"/>
            </g>
            <path fill="#1F1812" d="M112.819 125.446c-.11-.427.133-.87.521-.98l7.997-2.267c.37-.105.745.122.844.51.1.388-.11.802-.48.907l-7.259 2.057 1.245 4.853 6.428-1.822c.37-.105.744.122.844.51.1.389-.116.782-.486.888l-6.426 1.822 1.344 5.24c.11.427-.133.87-.54.985-.387.11-.81-.144-.918-.571l-3.114-12.132zM147.7 114.73l-7.196-2.992 2.611 7.556 4.585-4.563zm-4.24 10.037l-4.463-13.175c-.16-.466-.124-.87.233-1.224l.056-.057c.343-.34.75-.375 1.177-.178L153 115.242c.14.06.264.135.346.223a.797.797 0 0 1-.02 1.1c-.27.269-.635.261-.953.125l-3.244-1.337-5.469 5.442 1.193 3.436c.133.35.085.68-.171.936a.691.691 0 0 1-1.005-.02.93.93 0 0 1-.217-.38zM154.408 103.729c1.233-2.047.94-4.043-.692-5.015l-.036-.021c-1.776-1.056-3.495-.282-4.694 1.713l-1.881 3.123 5.466 3.253 1.837-3.053zm-8.728.846a.819.819 0 0 1-.296-1.111l2.369-3.935c1.679-2.788 4.273-3.736 6.723-2.28l.035.021c2.682 1.596 2.726 4.643 1.144 7.272l-1.805 3 3.762 2.24c.39.232.519.74.285 1.127-.222.371-.733.5-1.123.267l-11.094-6.601zM160.487 90.089c.693-2.214-.077-4.021-1.896-4.553l-.04-.011c-1.978-.578-3.456.554-4.132 2.71l-1.059 3.377 6.093 1.778 1.034-3.301zm-8.253 2.84c-.434-.127-.682-.574-.557-.974l1.334-4.255c.944-3.015 3.229-4.515 5.958-3.719l.04.012c2.986.872 3.776 3.726 2.883 6.57l-1.016 3.243 4.193 1.223a.795.795 0 0 1 .552.994c-.125.4-.59.64-1.025.514l-12.362-3.608z"/>
            <g transform="translate(155.466 69.688)">
                <mask id="f" fill="#fff">
                    <use xlink:href="#e"/>
                </mask>
                <path fill="#1F1812" d="M7.432 5.805c.078-2.102-.96-3.643-2.783-3.709h-.04c-1.743-.063-2.844 1.22-2.927 3.482l-.158 4.324 5.75.206.158-4.303zM.797 11.458c-.447-.015-.798-.389-.782-.81l.193-5.244c.063-1.72.641-3.082 1.565-3.931.713-.656 1.72-1.02 2.834-.981l.039.002c2.33.083 3.63 1.693 3.975 3.89l4.664-3.32c.188-.153.375-.247.596-.239.426.016.775.429.76.83-.01.32-.201.554-.452.725L8.86 6.137l-.147 4.022 4.799.173c.444.017.798.39.78.83-.015.42-.394.768-.838.751L.797 11.458z" mask="url(#f)"/>
            </g>
            <path fill="#1F1812" d="M159.541 53.637l-.04.01c-3.106.812-5.066 3.788-4.264 6.977.8 3.188 3.874 4.807 6.981 3.994l.04-.01c3.106-.811 5.067-3.787 4.264-6.977-.8-3.188-3.874-4.806-6.98-3.994m3.164 12.596l-.038.01c-3.772.986-7.801-1.041-8.868-5.287-1.068-4.244 1.48-7.947 5.251-8.933l.04-.01c3.773-.987 7.801 1.041 8.868 5.285 1.068 4.245-1.48 7.948-5.253 8.935M160.32 40.693l-7.953 11.353a.746.746 0 0 1-.268.26c-.343.21-.847.086-1.067-.307-.2-.359-.118-.745.104-1.049l7.496-10.401-12.382 1.744c-.31.02-.688-.083-.867-.405-.222-.394-.083-.887.258-1.096a.798.798 0 0 1 .304-.113l13.414-1.703c.431-.048.793.066 1.024.477l.04.072c.23.412.157.816-.104 1.168M144.157 28.84l-2.897 7.24 7.512-2.704-4.615-4.535zm10.075 4.127l-13.098 4.622c-.464.165-.868.134-1.226-.218l-.057-.057c-.345-.337-.386-.743-.194-1.175l4.943-12.61c.058-.14.133-.265.22-.348a.793.793 0 0 1 1.096.007c.274.268.27.631.139.952l-1.295 3.264 5.504 5.41 3.416-1.236c.347-.137.679-.093.937.16a.693.693 0 0 1-.009 1.007.92.92 0 0 1-.376.222zM133.777 30.246c-.223.383-.71.51-1.065.293a.824.824 0 0 1-.275-1.11l5.961-10.301-6.157-3.751c-.34-.207-.439-.668-.238-1.016a.697.697 0 0 1 .973-.255l6.834 4.165c.357.217.48.716.26 1.098l-6.293 10.877z"/>
        </g>
    </g>
</svg>
