<svg xmlns="http://www.w3.org/2000/svg" width="71" height="71" viewBox="0 0 71 71">
    <g fill="none" fill-rule="evenodd">
        <path stroke="#000" stroke-linecap="round" stroke-width="2.7" d="M44.158 61.626c2.77 1.202 6.933-.923 7.582-3.868.31-2.9 3.118-5.709 6.018-6.02 2.946-.648 5.07-4.81 3.869-7.58-1.454-2.525-.84-6.432 1.33-8.409 1.989-2.291 1.279-6.818-1.33-8.406-2.678-1.242-4.433-4.683-3.87-7.583.253-3.04-2.977-6.27-6.017-6.017-2.9.562-6.342-1.193-7.582-3.87-1.588-2.608-6.115-3.32-8.408-1.33-1.977 2.17-5.883 2.783-8.408 1.33-2.77-1.203-6.933.922-7.582 3.87-.31 2.898-3.118 5.706-6.018 6.017-2.946.648-5.07 4.813-3.869 7.583 1.454 2.523.84 6.43-1.33 8.406-1.989 2.293-1.279 6.822 1.33 8.409 2.678 1.24 4.433 4.682 3.87 7.58-.253 3.043 2.977 6.27 6.017 6.02 2.9-.564 6.342 1.19 7.582 3.868 1.588 2.61 6.115 3.32 8.408 1.332 1.977-2.17 5.883-2.786 8.408-1.332z"/>
        <path fill="#000" d="M37.075 38.25c1.135 0 2.122-.365 2.122-1.679 0-1.35-.987-1.716-2.122-1.716h-2.38c-.877-1.57-1.866-2.883-1.866-4.745 0-1.898 1.537-3.14 3.368-3.14 1.39 0 2.524.621 3.257 1.825.732 1.205.585 3.103 2.781 3.103 1.354 0 2.343-1.023 2.343-2.373 0-.912-.33-1.97-.769-2.775-1.538-2.957-4.501-4.05-7.723-4.05-4.172 0-8.197 2.481-8.197 6.971 0 1.935.696 3.542 1.61 5.184-1.244 0-2.744.037-2.744 1.716 0 1.204.804 1.68 1.94 1.68h2.414c.659 1.167.842 1.532 1.025 2.92-.805-.33-1.537-.548-2.416-.548-2.378 0-4.318 1.569-4.318 4.051 0 2.593 2.233 4.052 4.648 4.052 1.537 0 3.001-.547 4.1-1.642 1.573.95 3.366 1.716 5.232 1.716 4.576 0 5.82-4.272 5.82-6.425 0-1.46-.88-2.592-2.416-2.592-.769 0-1.354.329-1.793.986-.403.62-.293 1.423-.585 2.08-.403.876-1.098 1.424-2.05 1.424-.988 0-1.683-.474-2.416-1.023.22-.802.403-1.605.403-2.445 0-.876-.146-1.715-.403-2.555h1.135zm-5.38 6.461c0 .803-.732 1.095-1.427 1.095-.66 0-1.39-.328-1.39-1.095 0-.73.585-1.095 1.28-1.095.658 0 1.537.292 1.537 1.095z"/>
        <path stroke="#000" stroke-linecap="round" stroke-width="2.7" d="M35.75 69.5c18.64 0 33.75-15.11 33.75-33.751C69.5 17.109 54.39 2 35.75 2S2 17.11 2 35.749C2 54.389 17.11 69.5 35.75 69.5z"/>
    </g>
</svg>
