<?xml version="1.0" encoding="utf-8"?>
<!-- Generator: Adobe Illustrator 21.0.0, SVG Export Plug-In . SVG Version: 6.00 Build 0)  -->
<svg version="1.1" id="Layer_1" xmlns="http://www.w3.org/2000/svg" xmlns:xlink="http://www.w3.org/1999/xlink" x="0px" y="0px"
	 viewBox="0 0 1374 1454" style="enable-background:new 0 0 1374 1454;" xml:space="preserve">
<style type="text/css">
	.st0{fill:#CFDBFF;}
	.st1{fill:#799AFF;}
	.st2{fill:#F5F7FF;}
</style>
<g>
	<path class="st0" d="M1368,519h-40c-3.9,0-7-3.1-7-7l0,0c0-3.9,3.1-7,7-7h40c3.9,0,7,3.1,7,7l0,0C1375,515.9,1371.9,519,1368,519z"
		/>
	<path class="st0" d="M1304,519h-20c-3.9,0-7-3.1-7-7v0c0-3.9,3.1-7,7-7h20c3.9,0,7,3.1,7,7v0C1311,515.9,1307.9,519,1304,519z"/>
	<path class="st1" d="M125,847h-25c-3.9,0-7-3.1-7-7l0,0c0-3.9,3.1-7,7-7h25c3.9,0,7,3.1,7,7l0,0C132,843.9,128.9,847,125,847z"/>
	<path class="st1" d="M1340,1454h-25c-3.9,0-7-3.1-7-7l0,0c0-3.9,3.1-7,7-7h25c3.9,0,7,3.1,7,7l0,0
		C1347,1450.9,1343.9,1454,1340,1454z"/>
	<path class="st2" d="M197,14h-25c-3.9,0-7-3.1-7-7v0c0-3.9,3.1-7,7-7l25,0c3.9,0,7,3.1,7,7v0C204,10.9,200.9,14,197,14z"/>
	<path class="st0" d="M85,284H9c-4.4,0-8-3.6-8-8v0c0-4.4,3.6-8,8-8h76c4.4,0,8,3.6,8,8v0C93,280.4,89.4,284,85,284z"/>
	<path class="st0" d="M1260,679L1260,679c-3.9,0-7-3.1-7-7l0,0c0-3.9,3.1-7,7-7l0,0c3.9,0,7,3.1,7,7l0,0
		C1267,675.9,1263.9,679,1260,679z"/>
</g>
</svg>
