<svg xmlns="http://www.w3.org/2000/svg" width="214" height="127" viewBox="0 0 214 127">
    <path fill="#FFD900" fill-rule="nonzero" d="M157.387 4.794l.285.246 49 43c9.114 7.997 9.208 22.12.285 30.245l-.285.255-49 43c-8.422 7.391-21.241 6.555-28.632-1.867-7.308-8.328-6.573-20.955 1.586-28.382l.281-.251 8.709-7.644-119.423-.567C8.988 82.776-.053 73.649 0 62.443c.053-11.09 8.993-20.06 20.04-20.191l.346-.002 118.81.564-8.289-7.274c-8.328-7.308-9.239-19.923-2.113-28.347l.246-.286c7.308-8.328 19.923-9.239 28.347-2.113z"/>
</svg>
