<svg xmlns="http://www.w3.org/2000/svg" width="50" height="50" viewBox="0 0 50 50">
    <g>
        <path d="M7.56 15.12c1.838 0 3.518-.682 4.83-1.784h18.9c3.203 0 5.775-2.625 5.775-5.775 0-3.203-2.625-5.775-5.775-5.775h-18.9C11.077.683 9.398 0 7.56 0 3.413-.052 0 3.36 0 7.508c0 4.148 3.413 7.613 7.56 7.613zm27.668-7.612c0 2.205-1.785 3.938-3.938 3.938H14.017c.736-1.155 1.155-2.52 1.155-3.938 0-1.47-.42-2.782-1.155-3.937H31.29c2.153 0 3.938 1.785 3.938 3.937zM7.56 1.786c3.15 0 5.723 2.572 5.723 5.722 0 3.15-2.573 5.723-5.723 5.723s-5.723-2.573-5.723-5.723S4.41 1.786 7.56 1.786zM44.1 18.953H12.39c-1.313-1.102-2.992-1.785-4.83-1.785-4.147 0-7.56 3.36-7.56 7.56 0 4.2 3.413 7.56 7.56 7.56 1.838 0 3.518-.682 4.83-1.785H44.1c3.203 0 5.775-2.625 5.775-5.775 0-3.202-2.572-5.775-5.775-5.775zM1.837 24.728c0-3.15 2.573-5.722 5.723-5.722s5.723 2.572 5.723 5.722c0 3.15-2.573 5.723-5.723 5.723s-5.723-2.573-5.723-5.723zM44.1 28.666H14.017c.736-1.155 1.155-2.52 1.155-3.938 0-1.47-.42-2.782-1.155-3.937H44.1c2.205 0 3.938 1.785 3.938 3.937 0 2.205-1.785 3.938-3.938 3.938z"/>
        <path d="M9.188 22.523l-2.31 2.625-1.103-1.102c-.368-.368-.945-.368-1.313 0-.367.367-.367.945 0 1.312L6.3 27.196c.157.157.42.262.63.262h.053c.262 0 .472-.105.682-.315l2.94-3.36c.315-.367.315-.945-.105-1.312-.42-.368-.998-.315-1.313.052zM35.858 36.12H12.39c-1.313-1.102-2.992-1.784-4.83-1.784-4.2 0-7.56 3.412-7.56 7.56 0 4.147 3.413 7.612 7.56 7.612 1.838 0 3.518-.682 4.83-1.785h23.468c3.202 0 5.775-2.625 5.775-5.775.052-3.202-2.573-5.827-5.776-5.827zm-34.02 5.828c0-3.15 2.572-5.722 5.722-5.722 3.15 0 5.723 2.572 5.723 5.722 0 3.15-2.573 5.723-5.723 5.723s-5.723-2.573-5.723-5.723zm34.02 3.938h-21.84c.734-1.155 1.154-2.52 1.154-3.938 0-1.47-.42-2.782-1.155-3.937H35.91c2.205 0 3.938 1.785 3.938 3.937 0 2.153-1.785 3.938-3.99 3.938z"/>
        <path d="M10.133 39.376c-.368-.368-.945-.368-1.313 0l-1.26 1.26-1.26-1.26c-.367-.368-.945-.368-1.313 0-.367.367-.367.945 0 1.312l1.26 1.26-1.26 1.26c-.367.368-.367.945 0 1.313.158.157.42.262.63.262.21 0 .473-.105.63-.262l1.26-1.26 1.26 1.26c.158.157.42.262.63.262.21 0 .473-.105.63-.262.368-.368.368-.945 0-1.313l-1.26-1.26 1.26-1.26c.473-.367.473-.945.106-1.312zM5.04 10.08c.157.158.42.263.63.263.21 0 .473-.105.63-.262l1.26-1.26 1.26 1.26c.157.157.42.262.63.262.21 0 .473-.105.63-.262.367-.368.367-.945 0-1.313l-1.26-1.26 1.26-1.26c.367-.367.367-.945 0-1.312-.367-.368-.945-.368-1.313 0l-1.26 1.26-1.26-1.26c-.367-.368-.944-.368-1.312 0-.367.367-.367.945 0 1.312l1.26 1.26-1.26 1.26c-.262.368-.262.945.105 1.313z"/>
    </g>
</svg>
