<svg xmlns="http://www.w3.org/2000/svg" width="309" height="524" viewBox="0 0 309 524">
    <g fill="none" fill-rule="evenodd">
        <path fill="#0165ff" d="M278.31 523.75h-73.585c-3.59 0-6.5-2.91-6.5-6.5v-.75c0-3.59 2.91-6.5 6.5-6.5h73.584c3.59 0 6.5 2.91 6.5 6.5v.75c0 3.59-2.91 6.5-6.5 6.5zM177.982 523.75H152.5c-3.59 0-6.5-2.91-6.5-6.5v-.75c0-3.59 2.91-6.5 6.5-6.5h25.482c3.59 0 6.5 2.91 6.5 6.5v.75c0 3.59-2.91 6.5-6.5 6.5z"/>
        <path fill="#e4f0fe" d="M88.33 13.75H62.848c-3.59 0-6.5-2.91-6.5-6.5V6.5c0-3.59 2.91-6.5 6.5-6.5H88.33c3.59 0 6.5 2.91 6.5 6.5v.75c0 3.59-2.91 6.5-6.5 6.5zM93.828 35.75H27.115c-3.59 0-6.5-2.91-6.5-6.5v-.75c0-3.59 2.91-6.5 6.5-6.5h66.713c3.59 0 6.5 2.91 6.5 6.5v.75c0 3.59-2.91 6.5-6.5 6.5z"/>
        <path fill="#0165ff" d="M301.673 523.75h-.743c-3.59 0-6.5-2.91-6.5-6.5v-.75c0-3.59 2.91-6.5 6.5-6.5h.743c3.59 0 6.5 2.91 6.5 6.5v.75c0 3.59-2.91 6.5-6.5 6.5z"/>
        <path fill="#e4f0fe" d="M7.244 35.75H6.5c-3.59 0-6.5-2.91-6.5-6.5v-.75C0 24.91 2.91 22 6.5 22h.743c3.59 0 6.5 2.91 6.5 6.5v.75c0 3.59-2.91 6.5-6.5 6.5z"/>
    </g>
</svg>
