<svg xmlns="http://www.w3.org/2000/svg" viewBox="0 0 101 37" width="101" height="37">
	<style>
		tspan { white-space:pre }
		.shp0 { fill: #0165ff } 
		.shp1 { fill: #e4f0fe } 
	</style>
	<g id="Layer">
		<path id="Layer" fill-rule="evenodd" class="shp0" d="M204.73 523.75C201.14 523.75 198.23 520.84 198.23 517.25L198.23 516.5C198.23 512.91 201.14 510 204.73 510L278.31 510C281.9 510 284.81 512.91 284.81 516.5L284.81 517.25C284.81 520.84 281.9 523.75 278.31 523.75L204.73 523.75ZM177.98 523.75L152.5 523.75C148.91 523.75 146 520.84 146 517.25L146 516.5C146 512.91 148.91 510 152.5 510L177.98 510C181.57 510 184.48 512.91 184.48 516.5L184.48 517.25C184.48 520.84 181.57 523.75 177.98 523.75Z" />
		<path id="Layer" fill-rule="evenodd" class="shp1" d="M94.83 7.25L94.83 6.5C94.83 2.91 91.92 0 88.33 0L62.85 0C59.26 0 56.35 2.91 56.35 6.5L56.35 7.25C56.35 10.84 59.26 13.75 62.85 13.75L88.33 13.75C91.92 13.75 94.83 10.84 94.83 7.25ZM93.83 35.75C97.42 35.75 100.33 32.84 100.33 29.25L100.33 28.5C100.33 24.91 97.42 22 93.83 22L27.11 22C23.52 22 20.61 24.91 20.61 28.5L20.61 29.25C20.61 32.84 23.52 35.75 27.11 35.75L93.83 35.75Z" />
		<path id="Layer" fill-rule="evenodd" class="shp0" d="M301.67 523.75L300.93 523.75C297.34 523.75 294.43 520.84 294.43 517.25L294.43 516.5C294.43 512.91 297.34 510 300.93 510L301.67 510C305.26 510 308.17 512.91 308.17 516.5L308.17 517.25C308.17 520.84 305.26 523.75 301.67 523.75Z" />
		<path id="Layer" fill-rule="evenodd" class="shp1" d="M7.24 35.75L6.5 35.75C2.91 35.75 0 32.84 0 29.25L0 28.5C0 24.91 2.91 22 6.5 22L7.24 22C10.83 22 13.74 24.91 13.74 28.5L13.74 29.25C13.74 32.84 10.83 35.75 7.24 35.75L7.24 35.75Z" />
	</g>
</svg>