<svg xmlns="http://www.w3.org/2000/svg" width="175" height="36" viewBox="0 0 175 36">
    <g fill="none" fill-rule="evenodd">
        <path fill="#7CCC33" d="M120.5 36h-74c-3.59 0-6.5-2.91-6.5-6.5v-1c0-3.59 2.91-6.5 6.5-6.5h74c3.59 0 6.5 2.91 6.5 6.5v1c0 3.59-2.91 6.5-6.5 6.5zM168.5 36h-21c-3.59 0-6.5-2.91-6.5-6.5v-1c0-3.59 2.91-6.5 6.5-6.5h21c3.59 0 6.5 2.91 6.5 6.5v1c0 3.59-2.91 6.5-6.5 6.5z"/>
        <path fill="#DDF1C9" d="M73.5 14h-67C2.91 14 0 11.09 0 7.5v-1C0 2.91 2.91 0 6.5 0h67C77.09 0 80 2.91 80 6.5v1c0 3.59-2.91 6.5-6.5 6.5z"/>
    </g>
</svg>
