<svg xmlns="http://www.w3.org/2000/svg" viewBox="0 0 138 52" width="138" height="52">
	<style>
		tspan { white-space:pre }
		.shp0 { fill: #bde699 } 
		.shp1 { fill: #7ccc33 } 
	</style>
	<g id="Layer_x0020_1">
		<g id="_3021950066416">
			<path id="Layer" class="shp0" d="M7.72 0L42.81 0C47.34 0 51 4.05 51 9.05L51 9.05C51 14.06 47.34 18.11 42.81 18.11L7.72 18.11C3.2 18.11 -0.46 14.06 -0.46 9.05L-0.46 9.05C-0.46 4.05 3.2 0 7.72 0Z" />
			<path id="Layer" class="shp1" d="M58.61 33.89L130.39 33.89C134.6 33.89 138 37.94 138 42.95L138 42.95C138 47.95 134.6 52 130.39 52L58.61 52C54.4 52 51 47.95 51 42.95L51 42.95C51 37.94 54.4 33.89 58.61 33.89Z" />
		</g>
	</g>
</svg>