<svg xmlns="http://www.w3.org/2000/svg" viewBox="0 0 129 44" width="129" height="44">
	<style>
		tspan { white-space:pre }
		.shp0 { fill: #47b5bd } 
		.shp1 { fill: #8bd0d6 } 
	</style>
	<g id="Layer_x0020_1">
		<g id="_3021950279680">
			<path id="Layer" class="shp0" d="M54.95 0L120.95 0C124.82 0 127.95 3.13 127.95 7L127.95 7C127.95 10.87 124.82 14 120.95 14L54.95 14C51.08 14 47.95 10.87 47.95 7L47.95 7C47.95 3.13 51.08 0 54.95 0Z" />
			<path id="Layer" class="shp1" d="M7.05 28L80.05 28C83.92 28 87.05 31.13 87.05 35L87.05 35C87.05 38.87 83.92 42 80.05 42L7.05 42C3.18 42 0.05 38.87 0.05 35L0.05 35C0.05 31.13 3.18 28 7.05 28Z" />
		</g>
	</g>
</svg>