<svg xmlns="http://www.w3.org/2000/svg" viewBox="0 0 109 41" width="109" height="41">
	<style>
		tspan { white-space:pre }
		.shp0 { fill: #bde699 } 
		.shp1 { fill: #7ccc33 } 
	</style>
	<g id="Layer_x0020_1">
		<g id="_3021950066416">
			<path id="Layer" class="shp0" d="M70.2 -0.6L100.2 -0.6C104.07 -0.6 107.2 2.53 107.2 6.4L107.2 6.4C107.2 10.27 104.07 13.4 100.2 13.4L70.2 13.4C66.33 13.4 63.2 10.27 63.2 6.4L63.2 6.4C63.2 2.53 66.33 -0.6 70.2 -0.6Z" />
			<path id="Layer" class="shp1" d="M7.8 26.6L73.8 26.6C77.67 26.6 80.8 29.73 80.8 33.6L80.8 33.6C80.8 37.47 77.67 40.6 73.8 40.6L7.8 40.6C3.93 40.6 0.8 37.47 0.8 33.6L0.8 33.6C0.8 29.73 3.93 26.6 7.8 26.6Z" />
		</g>
	</g>
</svg>