<svg xmlns="http://www.w3.org/2000/svg" viewBox="0 0 129 44" width="129" height="44">
	<style>
		tspan { white-space:pre }
		.shp0 { fill: #fde889 } 
		.shp1 { fill: #fbd738 } 
	</style>
	<g id="Layer_x0020_1">
		<g id="_3021999691024">
			<path id="Layer" class="shp0" d="M7.48 29L80.48 29C84.35 29 87.48 32.13 87.48 36L87.48 36C87.48 39.87 84.35 43 80.48 43L7.48 43C3.61 43 0.48 39.87 0.48 36L0.48 36C0.48 32.13 3.61 29 7.48 29Z" />
			<path id="Layer" class="shp1" d="M54.52 1L120.52 1C124.39 1 127.52 4.13 127.52 8L127.52 8C127.52 11.87 124.39 15 120.52 15L54.52 15C50.65 15 47.52 11.87 47.52 8L47.52 8C47.52 4.13 50.65 1 54.52 1Z" />
		</g>
	</g>
</svg>