<svg xmlns="http://www.w3.org/2000/svg" viewBox="0 0 137 14" width="135" height="14">
	<style>
		tspan { white-space:pre }
		.shp0 { fill: #fde889 } 
		.shp1 { fill: #fbd738 } 
	</style>
	<g id="Layer_x0020_1">
		<g id="_3021950040944">
			<path id="Layer" class="shp0" d="M7.48 0L80.48 0C84.35 0 87.48 3.13 87.48 7L87.48 7C87.48 10.87 84.35 14 80.48 14L7.48 14C3.6 14 0.48 10.87 0.48 7L0.48 7C0.48 3.13 3.6 0 7.48 0Z" />
			<path id="Layer" class="shp1" d="M108.53 0L128.53 0C132.4 0 135.53 3.13 135.53 7L135.53 7C135.53 10.87 132.4 14 128.53 14L108.53 14C104.65 14 101.53 10.87 101.53 7L101.53 7C101.53 3.13 104.65 0 108.53 0Z" />
		</g>
	</g>
</svg>