<svg xmlns="http://www.w3.org/2000/svg" viewBox="0 0 161 16" width="161" height="16">
	<style>
		tspan { white-space:pre }
		.shp0 { fill: #fde889 } 
	</style>
	<g id="Layer_x0020_1">
		<g id="_3021950040944">
			<path id="Layer" class="shp0" d="M66.79 1L152.58 1C157.13 1 160.8 4.13 160.8 8L160.8 8C160.8 11.87 157.13 15 152.58 15L66.79 15C62.23 15 58.56 11.87 58.56 8L58.56 8C58.56 4.13 62.23 1 66.79 1Z" />
			<path id="Layer" class="shp0" d="M6.54 1L30.05 1C34.59 1 38.27 4.13 38.27 8L38.27 8C38.27 11.87 34.59 15 30.05 15L6.54 15C1.98 15 -1.68 11.87 -1.68 8L-1.68 8C-1.68 4.13 1.98 1 6.54 1Z" />
		</g>
	</g>
</svg>