<svg xmlns="http://www.w3.org/2000/svg" viewBox="0 0 143 54" width="143" height="54">
	<style>
		tspan { white-space:pre }
		.shp0 { fill: #fbd738 } 
		.shp1 { fill: #fde886 } 
	</style>
	<g id="Layer_x0020_1">
		<g id="_3021950066416">
			<path id="Layer" class="shp0" d="M113.87 0L137.49 0C140.54 0 143 3.13 143 7L143 7C143 10.87 140.54 14 137.49 14L113.87 14C110.83 14 108.36 10.87 108.36 7L108.36 7C108.36 3.13 110.83 0 113.87 0Z" />
			<path id="Layer" class="shp1" d="M10.23 40L96.82 40C101.9 40 106 43.24 106 47.24L106 47.24C106 51.24 101.9 54.47 96.82 54.47L10.23 54.47C5.16 54.47 1.05 51.24 1.05 47.24L1.05 47.24C1.05 43.24 5.16 40 10.23 40Z" />
		</g>
	</g>
</svg>