<?xml version="1.0" encoding="utf-8"?>
<!-- Generator: Adobe Illustrator 21.0.0, SVG Export Plug-In . SVG Version: 6.00 Build 0)  -->
<svg version="1.1" id="Layer_1" xmlns="http://www.w3.org/2000/svg" xmlns:xlink="http://www.w3.org/1999/xlink" x="0px" y="0px"
	 viewBox="0 0 178 36" style="enable-background:new 0 0 178 36;" xml:space="preserve">
<style type="text/css">
	.st0{fill:#FFD900;}
	.st1{fill:#4F4F4F;}
	.st2{fill:none;}
	.st3{fill:#FF6666;}
	.st4{fill:#3366FF;}
	.st5{fill:#7CCC33;}
	.st6{fill:#47B5BD;}
	.st7{display:none;}
	.st8{display:inline;fill:#F7CDCD;}
	.st9{display:inline;}
	.st10{display:inline;fill:none;}
</style>
<g>
	<path class="st0" d="M134,27.6h-15.3l-4.9,5.6c-0.7,0.8-1.6,1.2-2.7,1.1c0.2,0.1,0.5,0.1,0.7,0.1H134c1.9-0.1,3.4-1.6,3.4-3.4
		C137.3,29.2,135.8,27.7,134,27.6z"/>
	<path class="st1" d="M113.8,33.3l4.9-5.6l9.9-11.4c0,0,0,0,0-0.1l7.4-8.5c0.6-0.6,1-1.4,1.2-2.2c0.1-0.4,0.2-0.8,0.2-1.2
		c0-0.4-0.1-0.7-0.2-1.1c-0.4-1.4-1.7-2.4-3.2-2.4h-21.7c-1,0-2,0.5-2.6,1.3c0,0-0.1,0.1-0.1,0.1l0,0c-0.8,1-0.9,2.4-0.3,3.6
		c0.6,1.2,1.8,1.9,3.1,1.9h14.7l-18.4,21.3c-1.2,1.4-1.1,3.5,0.3,4.7c0,0,0,0,0,0C110.5,34.8,112.6,34.7,113.8,33.3
		C113.8,33.3,113.8,33.3,113.8,33.3z"/>
	<path class="st2" d="M90,20.4l-3.5-8l-3.6,8L90,20.4z"/>
	<path class="st3" d="M75.3,23.8c0-1.9,1.5-3.4,3.5-3.4h4.1l3.6-8L83.2,5c-0.8-1.7,0-3.7,1.8-4.5c0.1,0,0.1-0.1,0.2-0.1
		c-0.9,0.3-1.6,0.9-2,1.7l-12.6,28c-0.8,1.7,0,3.7,1.8,4.5c1.8,0.8,3.9,0.2,4.7-1.5l2.7-5.9h-1c-0.9,0-1.8-0.4-2.4-1
		C75.6,25.6,75.3,24.7,75.3,23.8z"/>
	<path class="st1" d="M102.1,30.3L89.7,2c-0.7-1.6-2.7-2.3-4.4-1.6c-0.1,0-0.1,0.1-0.2,0.1c-1.8,0.8-2.6,2.9-1.8,4.5l3.2,7.3l3.5,8
		H78.7c-1.9,0-3.5,1.5-3.5,3.4c0,1.9,1.6,3.4,3.5,3.4H93l2.7,6c0.8,1.7,2.9,2.3,4.6,1.5C102.1,33.9,102.9,31.9,102.1,30.3
		L102.1,30.3z"/>
	<path class="st4" d="M173.4,0.8c-1.6-1.1-3.8-0.8-4.8,0.7l-9.4,13.2l2.4,3.1c0.8,1,1.2,2.2,1.2,3.4V22l11.6-16.4
		C175.5,4.1,175.1,2,173.4,0.8L173.4,0.8z"/>
	<path class="st1" d="M161.6,17.8l-2.4-3.1l-0.1-0.1l-8.7-12.1c-0.9-1.3-2-2.2-3.6-2.2c-2.1,0-3.7,1.6-3.7,3.5
		c0,0.9,0.3,1.9,0.9,2.6l11.4,15c0,0,0,0,0,0v10.1c0,1,0.4,1.9,1.1,2.6c0.7,0.7,1.7,1.1,2.7,1c2-0.1,3.6-1.9,3.6-3.9v-10
		C162.8,20,162.4,18.8,161.6,17.8L161.6,17.8z"/>
	<path class="st5" d="M0,30.9c0-1.6,1.3-3,2.9-3h4.6V15.2v-0.1v1.2c0,2.1-1.7,3.7-3.8,3.7C1.7,20,0,18.3,0,16.3v-1.6v16.4
		c0,0.1,0,0.1,0,0.2C0,31.2,0,31,0,30.9z"/>
	<path class="st1" d="M13.3,0.5H3.8c-1,0-2,0.4-2.7,1.1C0.4,2.3,0,3.2,0,4.2v12.1C0,18.3,1.7,20,3.8,20s3.8-1.7,3.8-3.7v-9h6.4
		c6.1,0,10.3,4.2,10.3,10.2v0.1c0,6.1-4.2,10.3-10.3,10.3H3c-1.6,0-3,1.4-3,3c0,2.1,1.7,3.7,3.8,3.8h9.6c10.7,0,18.1-7.4,18.1-17
		v-0.1C31.5,7.9,24.1,0.5,13.3,0.5L13.3,0.5z"/>
	<path class="st6" d="M57.8,21.2c2-0.1,3.6-1.7,3.6-3.6s-1.6-3.6-3.6-3.6H46.3v7.2L57.8,21.2L57.8,21.2z"/>
	<path class="st1" d="M61.7,27.9H46.3V7.4h15.2c0.9,0,1.7-0.3,2.4-0.9c0.6-0.6,1-1.5,1-2.3c0-1.8-1.5-3.3-3.3-3.3H43.2
		c-1,0-2,0.4-2.7,1.1c-0.7,0.7-1.1,1.6-1.1,2.6v26.3c0,1,0.4,1.9,1.1,2.6c0.7,0.7,1.7,1.1,2.7,1.1h18.5c0.9,0,1.7-0.3,2.4-0.9
		c0.6-0.6,1-1.5,1-2.3c0-0.9-0.4-1.7-1-2.4C63.4,28.3,62.6,27.9,61.7,27.9L61.7,27.9z"/>
</g>
<g class="st7">
	<path class="st8" d="M134,27.7h-15.3l-4.9,5.6c-0.7,0.8-1.6,1.2-2.7,1.1c0.2,0,0.5,0.1,0.7,0.1H134c1.9-0.1,3.4-1.6,3.4-3.4
		C137.3,29.2,135.8,27.7,134,27.7L134,27.7z"/>
	<path class="st9" d="M113.8,33.3l4.9-5.6l9.9-11.4c0,0,0,0,0-0.1l7.4-8.5c0.5-0.6,1-1.4,1.2-2.2c0.3-0.7,0.3-1.5,0.1-2.3
		c-0.4-1.4-1.7-2.4-3.2-2.4h-21.7c-1,0-2,0.5-2.6,1.3c0,0-0.1,0.1-0.1,0.1l0,0c-0.8,1-0.9,2.4-0.3,3.6c0.6,1.1,1.8,1.9,3.1,1.9h14.7
		L108.7,29c-1.2,1.4-1.1,3.5,0.4,4.7C110.5,34.8,112.6,34.7,113.8,33.3C113.8,33.3,113.8,33.3,113.8,33.3
		C113.8,33.3,113.8,33.3,113.8,33.3z"/>
	<path class="st10" d="M90,20.4l-3.5-8l-3.6,8H90z"/>
	<path class="st8" d="M75.3,23.8c0-1.9,1.5-3.4,3.5-3.4h4.1l3.6-8l-3.2-7.3c-0.8-1.7,0-3.7,1.8-4.5c0.1,0,0.1-0.1,0.2-0.1
		c-0.9,0.3-1.6,0.9-2,1.7l-12.6,28c-0.8,1.7,0,3.7,1.8,4.5c1.8,0.8,3.9,0.2,4.7-1.5l2.7-5.9h-1c-0.9,0-1.8-0.4-2.4-1
		C75.6,25.6,75.3,24.7,75.3,23.8L75.3,23.8z"/>
	<path class="st9" d="M102.1,30.3L89.7,2.1c-0.7-1.6-2.7-2.3-4.4-1.6c-0.1,0-0.1,0.1-0.2,0.1c-1.8,0.8-2.6,2.9-1.8,4.5l3.2,7.3
		l3.5,8H78.7c-1.9,0-3.5,1.5-3.5,3.4c0,1.9,1.6,3.4,3.5,3.4H93l2.7,6c0.8,1.7,2.9,2.3,4.7,1.5C102.1,34,102.9,32,102.1,30.3z"/>
	<path class="st8" d="M173.4,0.9c-1.6-1.1-3.8-0.8-4.8,0.7l-9.4,13.2l2.4,3.1c0.8,1,1.2,2.2,1.2,3.4V22l11.6-16.4
		C175.5,4.1,175.1,2,173.4,0.9z"/>
	<path class="st9" d="M161.6,17.8l-2.4-3.1l-0.1-0.1l-8.7-12.1c-0.9-1.3-2-2.2-3.6-2.2c-2.1,0-3.7,1.6-3.7,3.5
		c0,0.9,0.3,1.9,0.9,2.6l11.3,15c0,0,0,0,0,0v10.1c0,1,0.4,1.9,1.1,2.6c0.7,0.7,1.7,1.1,2.7,1c2-0.1,3.6-1.9,3.6-3.9v-10
		C162.8,20,162.4,18.8,161.6,17.8L161.6,17.8z"/>
	<path class="st8" d="M0,30.9c0-1.6,1.3-3,2.9-3h4.6V15.2v-0.1v1.2c0,2.1-1.7,3.7-3.8,3.7c0,0,0,0,0,0C1.7,20,0,18.3,0,16.3
		c0,0,0,0,0,0v-1.6v16.4c0,0.1,0,0.1,0,0.2C0,31.2,0,31.1,0,30.9L0,30.9z"/>
	<path class="st9" d="M13.3,0.5H3.8c-1,0-2,0.4-2.7,1.1C0.4,2.3,0,3.3,0,4.2v12.1c0,2,1.7,3.7,3.8,3.7c2.1,0,3.8-1.7,3.8-3.7v-9h6.4
		c6.1,0,10.3,4.2,10.3,10.2v0.1c0,6.1-4.2,10.3-10.3,10.3H3c-1.6,0-3,1.4-3,3c0,2.1,1.7,3.7,3.8,3.8h9.6c10.7,0,18.2-7.4,18.2-17
		v-0.1C31.5,8,24.1,0.5,13.3,0.5z"/>
	<path class="st8" d="M57.8,21.2c2-0.1,3.6-1.7,3.6-3.6c0-2-1.6-3.6-3.6-3.6H46.3v7.2H57.8z"/>
	<path class="st9" d="M61.7,27.9H46.3V7.5h15.2c0.9,0,1.7-0.3,2.4-0.9c0.6-0.6,1-1.5,1-2.3c0-1.8-1.5-3.3-3.3-3.3H43.2
		c-1,0-2,0.4-2.7,1.1c-0.7,0.7-1.1,1.7-1.1,2.6v26.3c0,1,0.4,1.9,1.1,2.6c0.7,0.7,1.7,1.1,2.7,1.1h18.6c0.9,0,1.7-0.3,2.4-0.9
		c0.6-0.6,1-1.5,1-2.3c0-0.9-0.3-1.7-1-2.4C63.4,28.3,62.6,27.9,61.7,27.9L61.7,27.9z"/>
</g>
</svg>
