<?xml version="1.0" encoding="utf-8"?>
<!-- Generator: Adobe Illustrator 21.0.0, SVG Export Plug-In . SVG Version: 6.00 Build 0)  -->
<svg version="1.1" id="Layer_1" xmlns="http://www.w3.org/2000/svg" xmlns:xlink="http://www.w3.org/1999/xlink" x="0px" y="0px"
	 viewBox="0 0 835 514" style="enable-background:new 0 0 835 514;" xml:space="preserve">
<style type="text/css">
	.st0{fill:#FDE889;}
	.st1{fill:#FBD738;}
</style>
<path class="st0" d="M176,14h-66c-3.9,0-7-3.1-7-7v0c0-3.9,3.1-7,7-7l66,0c3.9,0,7,3.1,7,7v0C183,10.9,179.9,14,176,14z"/>
<path class="st0" d="M83,14H53c-3.9,0-7-3.1-7-7v0c0-3.9,3.1-7,7-7l30,0c3.9,0,7,3.1,7,7v0C90,10.9,86.9,14,83,14z"/>
<path class="st0" d="M62,514H7c-3.9,0-7-3.1-7-7v0c0-3.9,3.1-7,7-7h55c3.9,0,7,3.1,7,7v0C69,510.9,65.9,514,62,514z"/>
<path class="st0" d="M102,492H78c-3.9,0-7-3.1-7-7l0,0c0-3.9,3.1-7,7-7h24c3.9,0,7,3.1,7,7v0C109,488.9,105.9,492,102,492z"/>
<path class="st0" d="M693,455h-66c-3.9,0-7-3.1-7-7v0c0-3.9,3.1-7,7-7h66c3.9,0,7,3.1,7,7v0C700,451.9,696.9,455,693,455z"/>
<path class="st1" d="M704,492h-24c-3.9,0-7-3.1-7-7l0,0c0-3.9,3.1-7,7-7h24c3.9,0,7,3.1,7,7v0C711,488.9,707.9,492,704,492z"/>
<path class="st1" d="M804,492h-73c-3.9,0-7-3.1-7-7v0c0-3.9,3.1-7,7-7h73c3.9,0,7,3.1,7,7v0C811,488.9,807.9,492,804,492z"/>
<path class="st1" d="M828,492L828,492c-3.9,0-7-3.1-7-7v0c0-3.9,3.1-7,7-7l0,0c3.9,0,7,3.1,7,7v0C835,488.9,831.9,492,828,492z"/>
</svg>
