<?xml version="1.0" encoding="utf-8"?>
<!-- Generator: Adobe Illustrator 21.0.0, SVG Export Plug-In . SVG Version: 6.00 Build 0)  -->
<svg version="1.1" id="Layer_1" xmlns="http://www.w3.org/2000/svg" xmlns:xlink="http://www.w3.org/1999/xlink" x="0px" y="0px"
	 viewBox="0 0 1383 670" style="enable-background:new 0 0 1383 670;" xml:space="preserve">
<style type="text/css">
	.st0{fill:#FFD900;}
</style>
<path class="st0" d="M148,14h-20c-3.9,0-7-3.1-7-7v0c0-3.9,3.1-7,7-7l20,0c3.9,0,7,3.1,7,7v0C155,10.9,151.9,14,148,14z"/>
<path class="st0" d="M100,14H27c-3.9,0-7-3.1-7-7v0c0-3.9,3.1-7,7-7l73,0c3.9,0,7,3.1,7,7v0C107,10.9,103.9,14,100,14z"/>
<path class="st0" d="M142,511h-24c-3.9,0-7-3.1-7-7l0,0c0-3.9,3.1-7,7-7h24c3.9,0,7,3.1,7,7l0,0C149,507.9,145.9,511,142,511z"/>
<path class="st0" d="M93,533H27c-3.9,0-7-3.1-7-7l0,0c0-3.9,3.1-7,7-7h66c3.9,0,7,3.1,7,7l0,0C100,529.9,96.9,533,93,533z"/>
<path class="st0" d="M7,533L7,533c-3.9,0-7-3.1-7-7l0,0c0-3.9,3.1-7,7-7h0c3.9,0,7,3.1,7,7l0,0C14,529.9,10.9,533,7,533z"/>
<path class="st0" d="M1227,670h-73c-3.9,0-7-3.1-7-7l0,0c0-3.9,3.1-7,7-7h73c3.9,0,7,3.1,7,7l0,0C1234,666.9,1230.9,670,1227,670z"
	/>
<path class="st0" d="M1127,670h-24c-3.9,0-7-3.1-7-7l0,0c0-3.9,3.1-7,7-7h24c3.9,0,7,3.1,7,7l0,0C1134,666.9,1130.9,670,1127,670z"
	/>
<path class="st0" d="M1336,433h-66c-3.9,0-7-3.1-7-7l0,0c0-3.9,3.1-7,7-7h66c3.9,0,7,3.1,7,7l0,0C1343,429.9,1339.9,433,1336,433z"
	/>
<path class="st0" d="M1376,403h-66c-3.9,0-7-3.1-7-7v0c0-3.9,3.1-7,7-7h66c3.9,0,7,3.1,7,7v0C1383,399.9,1379.9,403,1376,403z"/>
<path class="st0" d="M1251,670L1251,670c-3.9,0-7-3.1-7-7l0,0c0-3.9,3.1-7,7-7l0,0c3.9,0,7,3.1,7,7l0,0
	C1258,666.9,1254.9,670,1251,670z"/>
</svg>
