<?xml version="1.0" encoding="utf-8"?>
<!-- Generator: Adobe Illustrator 21.0.0, SVG Export Plug-In . SVG Version: 6.00 Build 0)  -->
<svg version="1.1" id="Layer_1" xmlns="http://www.w3.org/2000/svg" xmlns:xlink="http://www.w3.org/1999/xlink" x="0px" y="0px"
	 viewBox="0 0 807 346" style="enable-background:new 0 0 807 346;" xml:space="preserve">
<style type="text/css">
	.st0{fill:#9AD6DB;}
	.st1{fill:#BDE5E5;}
</style>
<path class="st0" d="M800,346h-66c-3.9,0-7-3.1-7-7l0,0c0-3.9,3.1-7,7-7h66c3.9,0,7,3.1,7,7l0,0C807,342.9,803.9,346,800,346z"/>
<path class="st1" d="M130,14H64c-3.9,0-7-3.1-7-7v0c0-3.9,3.1-7,7-7l66,0c3.9,0,7,3.1,7,7v0C137,10.9,133.9,14,130,14z"/>
<path class="st1" d="M37,14H7c-3.9,0-7-3.1-7-7v0c0-3.9,3.1-7,7-7l30,0c3.9,0,7,3.1,7,7v0C44,10.9,40.9,14,37,14z"/>
</svg>
