<?xml version="1.0" encoding="utf-8"?>
<!-- Generator: Adobe Illustrator 21.0.0, SVG Export Plug-In . SVG Version: 6.00 Build 0)  -->
<svg version="1.1" id="Layer_1" xmlns="http://www.w3.org/2000/svg" xmlns:xlink="http://www.w3.org/1999/xlink" x="0px" y="0px"
	 viewBox="0 0 1460 38" style="enable-background:new 0 0 1460 38;" xml:space="preserve">
<style type="text/css">
	.st0{fill:#47B5BD;}
</style>
<path class="st0" d="M1404,36h-66c-3.9,0-7-3.1-7-7v0c0-3.9,3.1-7,7-7h66c3.9,0,7,3.1,7,7v0C1411,32.9,1407.9,36,1404,36z"/>
<path class="st0" d="M1453,14h-24c-3.9,0-7-3.1-7-7v0c0-3.9,3.1-7,7-7l24,0c3.9,0,7,3.1,7,7v0C1460,10.9,1456.9,14,1453,14z"/>
<path class="st0" d="M73,38H7c-3.9,0-7-3.1-7-7v0c0-3.9,3.1-7,7-7h66c3.9,0,7,3.1,7,7v0C80,34.9,76.9,38,73,38z"/>
<path class="st0" d="M121,38h-20c-3.9,0-7-3.1-7-7v0c0-3.9,3.1-7,7-7h20c3.9,0,7,3.1,7,7v0C128,34.9,124.9,38,121,38z"/>
</svg>
