<?xml version="1.0" encoding="utf-8"?>
<!-- Generator: Adobe Illustrator 21.0.0, SVG Export Plug-In . SVG Version: 6.00 Build 0)  -->
<svg version="1.1" id="Layer_1" xmlns="http://www.w3.org/2000/svg" xmlns:xlink="http://www.w3.org/1999/xlink" x="0px" y="0px"
	 viewBox="0 0 857 577" style="enable-background:new 0 0 857 577;" xml:space="preserve">
<style type="text/css">
	.st0{fill:#FD8400;}
	.st1{fill:#FEBB72;}
</style>
<path class="st0" d="M73,577H7c-3.9,0-7-3.1-7-7l0,0c0-3.9,3.1-7,7-7h66c3.9,0,7,3.1,7,7l0,0C80,573.9,76.9,577,73,577z"/>
<path class="st1" d="M113.1,545.9H77.9c-4.4,0-7.9-3.6-7.9-7.9l0,0c0-4.4,3.6-7.9,7.9-7.9h35.1c4.4,0,7.9,3.6,7.9,7.9l0,0
	C121,542.3,117.4,545.9,113.1,545.9z"/>
<path class="st1" d="M156.1,15.9h-35.1c-4.4,0-7.9-3.6-7.9-7.9v0c0-4.4,3.6-7.9,7.9-7.9l35.1,0c4.4,0,7.9,3.6,7.9,7.9v0
	C164,12.3,160.4,15.9,156.1,15.9z"/>
<path class="st0" d="M95.9,15.9L95.9,15.9c-4.4,0-7.9-3.6-7.9-7.9v0C88,3.6,91.6,0,95.9,0h0c4.4,0,7.9,3.6,7.9,7.9v0
	C103.9,12.3,100.3,15.9,95.9,15.9z"/>
<path class="st1" d="M849.1,552.9h-35.1c-4.4,0-7.9-3.6-7.9-7.9l0,0c0-4.4,3.6-7.9,7.9-7.9h35.1c4.4,0,7.9,3.6,7.9,7.9l0,0
	C857,549.3,853.4,552.9,849.1,552.9z"/>
<path class="st0" d="M823.1,529.9H704.9c-4.4,0-7.9-3.6-7.9-7.9l0,0c0-4.4,3.6-7.9,7.9-7.9h118.1c4.4,0,7.9,3.6,7.9,7.9l0,0
	C831,526.3,827.4,529.9,823.1,529.9z"/>
<path class="st0" d="M670.9,528.9L670.9,528.9c-4.4,0-7.9-3.6-7.9-7.9l0,0c0-4.4,3.6-7.9,7.9-7.9l0,0c4.4,0,7.9,3.6,7.9,7.9l0,0
	C678.9,525.3,675.3,528.9,670.9,528.9z"/>
</svg>
