<svg xmlns="http://www.w3.org/2000/svg" width="130" height="130" viewBox="0 0 130 130">
    <g fill="none" fill-rule="evenodd">
        <circle cx="65" cy="65" r="65" fill="#FFF"/>
        <path fill="#FD8400" fill-rule="nonzero" d="M65 130c-35.9 0-65-29.1-65-65C0 29.104 29.102 0 65 0c35.898 0 65 29.103 65 65 0 35.9-29.1 65-65 65zm0-2.932c34.28 0 62.068-27.788 62.068-62.067 0-34.279-27.79-62.069-62.068-62.069-34.279 0-62.068 27.79-62.068 62.069 0 34.28 27.788 62.067 62.068 62.067z"/>
        <path stroke="#000" stroke-linejoin="round" stroke-width="3" d="M51.32 56.738c4.315-2.287 5.933-7.392 3.64-11.556-1.078-2.149-2.696-3.495-4.852-4.032-2.562-.805-1.35-2.285-.136-3.223l-.808-1.615c-5.26 3.092-7.281 5.914-8.765 7.794-1.751 2.283-2.022 5.914-.539 9.004 2.159 4.164 7.281 5.643 11.46 3.628zm44.452 31.344c-6.606.134-6.471-9.406-6.471-9.406V58.654c0-15.854-7.414-26.872-25.076-26.872 0 0-4.583-.27-9.706 1.48l.808 1.61c7.954-2.014 14.29 4.972 14.29 17.47v8.465c-23.862 5.777-34.918 7.792-34.918 21.766 0 12.63 13.617 13.705 16.178 13.705 7.282 0 11.903-3.358 15.138-7.66l-1.212-1.476c-.944.807-2.427.94-3.642.94-7.145 0-7.009-8.868-7.009-8.868 0-6.586 3.333-14.788 15.465-17.475v21.774c0 12.765 14.965 12.765 14.965 12.765 8.494 0 15.1-4.57 16.583-9.675l-1.617-.806c-.675 2.285-3.776 2.285-3.776 2.285z"/>
    </g>
</svg>
