<?xml version="1.0" encoding="utf-8"?>
<!-- Generator: Adobe Illustrator 21.0.0, SVG Export Plug-In . SVG Version: 6.00 Build 0)  -->
<svg version="1.1" id="Layer_1" xmlns="http://www.w3.org/2000/svg" xmlns:xlink="http://www.w3.org/1999/xlink" x="0px" y="0px"
	 viewBox="0 0 1276 351" style="enable-background:new 0 0 1276 351;" xml:space="preserve">
<style type="text/css">
	.st0{fill:#FD8400;}
	.st1{fill:#FEBB72;}
</style>
<path class="st0" d="M1269,14h-86c-3.9,0-7-3.1-7-7v0c0-3.9,3.1-7,7-7l86,0c3.9,0,7,3.1,7,7v0C1276,10.9,1272.9,14,1269,14z"/>
<path class="st1" d="M1202,47h-53c-3.9,0-7-3.1-7-7v0c0-3.9,3.1-7,7-7h53c3.9,0,7,3.1,7,7v0C1209,43.9,1205.9,47,1202,47z"/>
<path class="st0" d="M60,351H7c-3.9,0-7-3.1-7-7l0,0c0-3.9,3.1-7,7-7h53c3.9,0,7,3.1,7,7l0,0C67,347.9,63.9,351,60,351z"/>
</svg>
