<svg xmlns="http://www.w3.org/2000/svg" xmlns:xlink="http://www.w3.org/1999/xlink" width="78" height="78" viewBox="0 0 78 78">
    <defs>
        <path id="a" d="M0 .353h55.77V32.32H0z"/>
    </defs>
    <g fill="none" fill-rule="evenodd">
        <circle cx="39" cy="39" r="39" fill="#FFF"/>
        <path fill="#FFD900" fill-rule="nonzero" d="M39 0C17.461 0 0 17.462 0 39c0 21.54 17.46 39 39 39s39-17.46 39-39C78 17.463 60.539 0 39 0zm0 1.99c20.44 0 37.01 16.57 37.01 37.01 0 20.44-16.57 37.01-37.01 37.01C18.56 76.01 1.99 59.44 1.99 39 1.99 18.56 18.56 1.99 39 1.99z"/>
        <path fill="#000" d="M27.737 43.368a.928.928 0 0 1-.94-.94c0-.53.411-.94.94-.94.529 0 .94.41.94.94.06.529-.411.94-.94.94m4.349-1.94h-1.587a2.868 2.868 0 0 0-2.703-1.88c-1.234 0-2.292.823-2.703 1.88h-7.17a.928.928 0 0 0-.94.941c0 .529.412.94.94.94h7.111a2.867 2.867 0 0 0 2.703 1.881c1.234 0 2.292-.823 2.703-1.881h1.587c.529 0 .94-.411.94-.94.059-.47-.353-.94-.881-.94M22.213 37.14a.928.928 0 0 1-.94-.941c0-.529.412-.94.94-.94.53 0 .94.411.94.94.06.529-.41.94-.94.94m9.873-1.88h-7.17a2.867 2.867 0 0 0-2.703-1.88c-1.234 0-2.291.822-2.703 1.88h-1.586a.928.928 0 0 0-.94.94c0 .529.41.94.94.94h1.586a2.867 2.867 0 0 0 2.703 1.88c1.234 0 2.292-.822 2.704-1.88h7.11c.529 0 .94-.411.94-.94.059-.529-.353-.94-.881-.94"/>
        <g transform="translate(11.577 22.977)">
            <mask id="b" fill="#fff">
                <use xlink:href="#a"/>
            </mask>
            <path fill="#000" d="M53.886 17.805l-2.116.235c-1.234.118-2.292.94-2.762 2.116-.47 1.175-.293 2.468.47 3.408l1.352 1.645-2.115 2.116-1.646-1.352c-.94-.764-2.233-.94-3.467-.47-1.175.47-1.998 1.528-2.116 2.762l-.234 2.115h-2.938l-.236-2.115c-.118-1.234-.94-2.292-2.115-2.762-1.175-.47-2.468-.294-3.408.47l-1.646 1.352-2.115-2.116 1.351-1.645c.764-.94.94-2.233.47-3.468-.47-1.175-1.527-1.997-2.761-2.114l-2.116-.236v-2.938l2.116-.235c1.234-.117 2.291-.94 2.761-2.115.47-1.175.294-2.468-.47-3.408l-1.351-1.646 2.115-2.115 1.646 1.351c.94.764 2.233.94 3.467.47 1.175-.47 1.998-1.527 2.115-2.761l.235-2.116h2.938l.235 2.116c.118 1.234.94 2.233 2.116 2.761 1.175.47 2.468.294 3.408-.47l1.646-1.351 2.115 2.115-1.352 1.646c-.763.94-.94 2.233-.47 3.467.47 1.175 1.528 1.997 2.762 2.115l2.116.235v2.938zM1.939 8.168h25.092l.176.353 1.47 1.821c.293.412.41.94.175 1.528-.234.529-.646.882-1.175.94l-2.35.235c-.823.118-1.47.823-1.47 1.646v3.408c0 .881.647 1.587 1.47 1.645l2.35.235c.53.06.94.411 1.175.94.236.53.118 1.058-.176 1.47l-1.469 1.82c-.058.119-.176.236-.235.354H1.94V8.168zm52.417 4.819l-2.35-.235c-.53-.06-.94-.412-1.176-.94-.236-.53-.118-1.058.176-1.47l1.47-1.821c.528-.647.469-1.646-.119-2.233l-2.408-2.41c-.588-.587-1.587-.646-2.233-.117l-1.823 1.41c-.41.294-.94.412-1.527.176-.53-.235-.881-.646-.94-1.175l-.235-2.35c-.118-.823-.823-1.47-1.646-1.47h-3.408c-.881 0-1.586.647-1.646 1.47l-.234 2.35c-.06.53-.412.94-.941 1.175-.528.236-1.057.177-1.469-.176l-1.821-1.469c-.647-.529-1.645-.47-2.233.118l-2.41 2.409H.94a.928.928 0 0 0-.94.94v18.334c0 .529.411.94.94.94h26.444l2.409 2.35c.588.589 1.586.647 2.233.118l1.763-1.41c.411-.294.94-.411 1.527-.176.53.235.881.646.94 1.175l.235 2.35c.118.823.824 1.47 1.646 1.47h3.408c.882 0 1.587-.647 1.646-1.47l.235-2.35c.059-.529.41-.94.94-1.175.529-.235 1.058-.118 1.47.176l1.82 1.47c.647.527 1.646.47 2.234-.118l2.41-2.41c.587-.587.645-1.586.117-2.233l-1.47-1.821a1.544 1.544 0 0 1-.176-1.528c.235-.529.647-.882 1.176-.94l2.35-.235c.823-.118 1.47-.823 1.47-1.646v-3.408a1.525 1.525 0 0 0-1.411-1.645z" mask="url(#b)"/>
        </g>
        <path fill="#000" d="M51.418 43.603c-2.35 0-4.29-1.94-4.29-4.29s1.94-4.29 4.29-4.29c2.351 0 4.29 1.94 4.29 4.29s-1.939 4.29-4.29 4.29m0-10.46a6.17 6.17 0 0 0-6.17 6.17 6.17 6.17 0 0 0 6.17 6.17 6.17 6.17 0 0 0 6.17-6.17c.06-3.408-2.761-6.17-6.17-6.17"/>
    </g>
</svg>
