<?xml version="1.0" encoding="utf-8"?>
<!-- Generator: Adobe Illustrator 21.0.0, SVG Export Plug-In . SVG Version: 6.00 Build 0)  -->
<svg version="1.1" id="Layer_1" xmlns="http://www.w3.org/2000/svg" xmlns:xlink="http://www.w3.org/1999/xlink" x="0px" y="0px"
	 viewBox="0 0 1761.6 516.1" style="enable-background:new 0 0 1761.6 516.1;" xml:space="preserve">
<style type="text/css">
	.st0{fill:#FFEFEF;}
	.st1{opacity:0.302;fill:#FF6666;enable-background:new    ;}
	.st2{fill:#FF6666;}
</style>
<path class="st0" d="M1292.5,516.1L475.4,44.3C321.5-44.5,126.9,4.4,40.7,153.6c-68,117.8-48.1,262.9,39,362.5H1292.5z"/>
<path class="st1" d="M625.6,419.6h-33.5c-3.6,0-6.5,2.9-6.5,6.5v1c0,3.6,2.9,6.5,6.5,6.5h33.5c3.6,0,6.5-2.9,6.5-6.5v-1
	C632.1,422.5,629.1,419.6,625.6,419.6z"/>
<path class="st1" d="M565,419.6h-1.1c-3.6,0-6.5,2.9-6.5,6.5v1c0,3.6,2.9,6.5,6.5,6.5h1.1c3.6,0,6.5-2.9,6.5-6.5v-1
	C571.5,422.5,568.5,419.6,565,419.6z"/>
<path class="st1" d="M835.5,443.5H703.4c-3.6,0-6.5,2.9-6.5,6.5v1c0,3.6,2.9,6.5,6.5,6.5h132.1c3.6,0,6.5-2.9,6.5-6.5v-1
	C842,446.4,839.1,443.5,835.5,443.5z"/>
<path class="st1" d="M734.9,427.2v-1c0-3.6-2.9-6.5-6.5-6.5h-75.8c-3.6,0-6.5,2.9-6.5,6.5v1c0,3.6,2.9,6.5,6.5,6.5h75.8
	C732,433.7,734.9,430.8,734.9,427.2z"/>
<title>FED2BFA6-E684-48AC-AAE9-1DB1B5E5BCCF</title>
<desc>Created with sketchtool.</desc>
<g id="Mask">
</g>
<path class="st2" d="M1761.6,516.1c-111.8-166.3-341-217.7-523.6-113.2l-198,113.2H1761.6z"/>
</svg>
