<?xml version="1.0" encoding="utf-8"?>
<!-- Generator: Adobe Illustrator 21.0.0, SVG Export Plug-In . SVG Version: 6.00 Build 0)  -->
<svg version="1.1" id="Layer_1" xmlns="http://www.w3.org/2000/svg" xmlns:xlink="http://www.w3.org/1999/xlink" x="0px" y="0px"
	 viewBox="0 0 646 397.9" style="enable-background:new 0 0 646 397.9;" xml:space="preserve">
<style type="text/css">
	.st0{fill:#D5E8B3;}
	.st1{fill:#7CCC33;}
</style>
<path class="st0" d="M215.1,15.9h-35.1c-4.4,0-7.9-3.6-7.9-7.9v0c0-4.4,3.6-7.9,7.9-7.9l35.1,0c4.4,0,7.9,3.6,7.9,7.9v0
	C223,12.3,219.4,15.9,215.1,15.9z"/>
<path class="st0" d="M92.1,58.9H7.9c-4.4,0-7.9-3.6-7.9-7.9v0C0,46.6,3.6,43,7.9,43h84.1c4.4,0,7.9,3.6,7.9,7.9v0
	C100,55.3,96.4,58.9,92.1,58.9z"/>
<path class="st1" d="M138.9,57.9L138.9,57.9c-4.4,0-7.9-3.6-7.9-7.9v0c0-4.4,3.6-7.9,7.9-7.9h0c4.4,0,7.9,3.6,7.9,7.9v0
	C146.9,54.3,143.3,57.9,138.9,57.9z"/>
<path class="st0" d="M638.1,369.9H519.9c-4.4,0-7.9-3.6-7.9-7.9l0,0c0-4.4,3.6-7.9,7.9-7.9h118.1c4.4,0,7.9,3.6,7.9,7.9l0,0
	C646,366.3,642.4,369.9,638.1,369.9z"/>
<path class="st0" d="M537.1,397.9h-35.1c-4.4,0-7.9-3.6-7.9-7.9l0,0c0-4.4,3.6-7.9,7.9-7.9h35.1c4.4,0,7.9,3.6,7.9,7.9l0,0
	C545,394.3,541.4,397.9,537.1,397.9z"/>
<path class="st1" d="M485.9,368.9L485.9,368.9c-4.4,0-7.9-3.6-7.9-7.9v0c0-4.4,3.6-7.9,7.9-7.9h0c4.4,0,7.9,3.6,7.9,7.9v0
	C493.9,365.3,490.3,368.9,485.9,368.9z"/>
</svg>
