<?xml version="1.0" encoding="utf-8"?>
<!-- Generator: Adobe Illustrator 21.0.0, SVG Export Plug-In . SVG Version: 6.00 Build 0)  -->
<svg version="1.1" id="Layer_1" xmlns="http://www.w3.org/2000/svg" xmlns:xlink="http://www.w3.org/1999/xlink" x="0px" y="0px"
	 viewBox="0 0 1260 654" style="enable-background:new 0 0 1260 654;" xml:space="preserve">
<style type="text/css">
	.st0{fill:#7CCC33;}
	.st1{fill:#D5E8B3;}
</style>
<path class="st0" d="M1028.9,653.9L1028.9,653.9c-4.4,0-7.9-3.6-7.9-7.9l0,0c0-4.4,3.6-7.9,7.9-7.9l0,0c4.4,0,7.9,3.6,7.9,7.9l0,0
	C1036.9,650.3,1033.3,653.9,1028.9,653.9z"/>
<path class="st0" d="M93.5,13h-67c-3.6,0-6.5-2.9-6.5-6.5v0C20,2.9,22.9,0,26.5,0l67,0c3.6,0,6.5,2.9,6.5,6.5v0
	C100,10.1,97.1,13,93.5,13z"/>
<path class="st0" d="M7,14L7,14c-3.9,0-7-3.1-7-7v0c0-3.9,3.1-7,7-7h0c3.9,0,7,3.1,7,7v0C14,10.9,10.9,14,7,14z"/>
<path class="st1" d="M1181.5,654h-119c-4.1,0-7.5-3.4-7.5-7.5l0,0c0-4.1,3.4-7.5,7.5-7.5h119c4.1,0,7.5,3.4,7.5,7.5l0,0
	C1189,650.6,1185.6,654,1181.5,654z"/>
<path class="st1" d="M1252.5,653h-36c-4.1,0-7.5-3.4-7.5-7.5l0,0c0-4.1,3.4-7.5,7.5-7.5h36c4.1,0,7.5,3.4,7.5,7.5l0,0
	C1260,649.6,1256.6,653,1252.5,653z"/>
</svg>
