<?xml version="1.0" encoding="utf-8"?>
<!-- Generator: Adobe Illustrator 21.0.0, SVG Export Plug-In . SVG Version: 6.00 Build 0)  -->
<svg version="1.1" id="Layer_1" xmlns="http://www.w3.org/2000/svg" xmlns:xlink="http://www.w3.org/1999/xlink" x="0px" y="0px"
	 viewBox="0 0 319.8 276" style="enable-background:new 0 0 319.8 276;" xml:space="preserve">
<style type="text/css">
	.st0{fill:#FF6666;}
	.st1{fill:#FFFFFF;}
</style>
<g>
	<path d="M24.5,21.7L24.5,21.7c0.1,0,0.1,0,0.1,0h21.9c0,0,0.1,0,0.1,0c2-0.2,3.6-2,3.6-4.1c0-2.2-1.8-4.1-3.9-4.1
		c-0.9-2.1-3-3.5-5.2-3.5C40,6.4,36.7,4,33,4c-4.2,0-7.7,3.1-8.5,7.2c-2.8,0-5,2.3-5,5.2C19.5,19.3,21.8,21.7,24.5,21.7z M24.7,21.1
		L24.7,21.1L24.7,21.1z M24.7,20.5C24.7,20.5,24.7,20.5,24.7,20.5l-0.1,0c-2.2,0-4-1.8-4-4.1s1.8-4.1,4-4.1c0.1,0,0.3,0,0.4,0
		c0.3,0,0.5-0.2,0.6-0.5c0.5-3.9,3.7-6.8,7.5-6.8c3.4,0,6.4,2.3,7.3,5.5c0.1,0.2,0.3,0.4,0.5,0.4c0.1,0,0.2,0,0.3,0
		c2,0,3.8,1.3,4.4,3.2c0.1,0.2,0.3,0.4,0.5,0.4c0.1,0,0.2,0,0.2,0c1.6,0,3,1.3,3,3c0,1.6-1.2,2.9-2.8,3c0,0,0,0-0.1,0L24.7,20.5
		C24.7,20.5,24.7,20.5,24.7,20.5z"/>
	<path class="st0" d="M264.3,61l-2.4,4.4l-4.4,2.4l4.4,2.4l2.4,4.4l2.4-4.4l4.4-2.4l-4.4-2.4L264.3,61z"/>
	<path class="st0" d="M276.1,264l-2.1,3.9l-3.9,2.1l3.9,2.1l2.1,3.8l2.1-3.8l3.9-2.1l-3.9-2.1L276.1,264z"/>
	<path d="M285.4,14c-0.3,0-0.6-0.2-0.8-0.5l-2-3.7l-3.7-2c-0.3-0.2-0.5-0.4-0.5-0.8c0-0.3,0.2-0.6,0.5-0.8l3.7-2l2-3.7
		c0.2-0.3,0.5-0.5,0.8-0.5s0.6,0.2,0.8,0.5l2,3.7l3.7,2c0.3,0.2,0.5,0.4,0.5,0.8s-0.2,0.6-0.5,0.8l-3.7,2l-2,3.7
		C286,13.8,285.7,14,285.4,14C285.4,14,285.4,14,285.4,14z M281.1,7l2.6,1.4c0.1,0.1,0.3,0.2,0.4,0.4l1.4,2.5l1.3-2.5
		c0.1-0.1,0.2-0.3,0.4-0.4l2.6-1.4l-2.6-1.4c-0.1-0.1-0.3-0.2-0.4-0.4l-1.4-2.5L284,5.3c-0.1,0.1-0.2,0.3-0.4,0.4L281.1,7z"/>
	<path class="st0" d="M4.8,58.8c0.1,0,0.2,0,0.4,0c1-2.8,3.6-4.7,6.8-4.7c0.2,0,0.3,0,0.5,0c1.4-4.6,5.7-7.9,10.7-7.9
		c5.7,0,10.4,4.2,11.1,9.7c0.2,0,0.4,0,0.6,0c3.4,0,6.2,2.8,6.2,6.2c0,3.4-2.8,6.2-6.2,6.2c-0.1,0-0.1,0-0.2,0v0H4.5v0
		C2,68,0,66,0,63.5C0,60.9,2.1,58.8,4.8,58.8z"/>
	<path class="st1" d="M64.9,33.7c0.3,0,0.5,0,0.8,0c2.1-5.9,7.7-10.1,14.4-10.1c0.3,0,0.7,0,1,0c2.9-9.7,12-16.8,22.8-16.8
		c12.1,0,22.1,9,23.6,20.6c0.4,0,0.8-0.1,1.2-0.1c7.2,0,13.1,5.9,13.1,13.2s-5.9,13.2-13.1,13.2c-0.1,0-0.3,0-0.4,0v0h-64v0
		c-5.3-0.4-9.5-4.7-9.5-10C54.7,38.2,59.2,33.7,64.9,33.7z"/>
	<path class="st1" d="M312.9,147.2c-0.2,0-0.4,0-0.5,0c-1.4-4-5.3-6.9-9.8-6.9c-0.2,0-0.4,0-0.7,0c-2-6.6-8.1-11.5-15.4-11.5
		c-8.2,0-15,6.1-16,14c-0.3,0-0.6,0-0.8,0c-4.9,0-8.9,4-8.9,9s4,9,8.9,9c0.1,0,0.2,0,0.3,0v0h43.4v0c3.6-0.2,6.4-3.2,6.4-6.8
		C319.8,150.2,316.7,147.2,312.9,147.2z"/>
</g>
</svg>
