<?xml version="1.0" encoding="utf-8"?>
<!-- Generator: Adobe Illustrator 21.0.0, SVG Export Plug-In . SVG Version: 6.00 Build 0)  -->
<svg version="1.1" id="Layer_1" xmlns="http://www.w3.org/2000/svg" xmlns:xlink="http://www.w3.org/1999/xlink" x="0px" y="0px"
	 viewBox="0 0 1375 506.8" style="enable-background:new 0 0 1375 506.8;" xml:space="preserve">
<style type="text/css">
	.st0{fill:#FF6666;}
	.st1{fill:#FFFFFF;}
</style>
<path d="M106.3,320.6l0.1,0c0,0,0,0,0.1,0h33.4c0.1,0,0.1,0,0.2,0c3.1-0.3,5.5-3,5.5-6.3c0-3.4-2.7-6.2-6-6.3
	c-1.4-3.2-4.5-5.4-8-5.4c-1.8-5.3-6.9-9-12.4-9c-6.4,0-11.8,4.7-13,11c-4.2,0-7.6,3.6-7.6,8C98.7,317.1,102.1,320.6,106.3,320.6z
	 M106.5,319.8L106.5,319.8L106.5,319.8z M106.5,318.9C106.5,318.9,106.5,318.9,106.5,318.9l-0.2,0c-3.3,0-6.1-2.8-6.1-6.2
	s2.7-6.2,6.1-6.2c0.2,0,0.4,0,0.6,0c0.4,0,0.8-0.3,0.8-0.8c0.7-5.9,5.7-10.3,11.5-10.3c5.1,0,9.7,3.5,11.1,8.4
	c0.1,0.4,0.4,0.6,0.8,0.6c0.2,0,0.3,0,0.5,0c3.1,0,5.8,2,6.8,4.9c0.1,0.4,0.5,0.6,0.8,0.6c0.1,0,0.2,0,0.3,0c2.5,0,4.5,2,4.5,4.5
	c0,2.4-1.8,4.4-4.2,4.5c0,0-0.1,0-0.1,0L106.5,318.9C106.6,318.9,106.5,318.9,106.5,318.9z"/>
<path class="st0" d="M389.1,50.8l-3.4,6.5l-6.1,3.6l6.2,3.6l3.4,6.4l3.3-6.4l6.1-3.6l-6.1-3.6L389.1,50.8z"/>
<path class="st0" d="M927.9,81.6l-2.8,5.4l-5.1,2.9l5.1,2.9l2.8,5.3l2.8-5.3l5.1-2.9l-5.1-2.9L927.9,81.6z"/>
<path class="st1" d="M884.9,22.9l-2.8,5.4l-5.1,2.9l5.1,2.9l2.8,5.3l2.8-5.3l5.1-2.9l-5.1-2.9L884.9,22.9z"/>
<path class="st0" d="M1297.9,0l-2.8,5.4l-5.1,2.9l5.1,2.9l2.8,5.3l2.8-5.3l5.1-2.9l-5.1-2.9L1297.9,0z"/>
<path class="st0" d="M99.2,407.8l-3.4,6.5l-6.1,3.6l6.2,3.6l3.4,6.4l3.3-6.4l6.1-3.6l-6.1-3.6L99.2,407.8z"/>
<path d="M1295.8,264.5c-0.5,0-0.9-0.2-1.1-0.6l-2.8-5.1l-5.1-2.8c-0.4-0.2-0.6-0.6-0.6-1c0-0.4,0.2-0.8,0.6-1.1l5.1-2.8l2.8-5.1
	c0.2-0.4,0.6-0.6,1.1-0.6c0.5,0,0.9,0.2,1.1,0.6l2.8,5.1l5.1,2.8c0.4,0.2,0.6,0.6,0.6,1c0,0.4-0.2,0.8-0.6,1l-5.1,2.8l-2.8,5.1
	C1296.7,264.2,1296.3,264.5,1295.8,264.5L1295.8,264.5z M1289.9,254.9l3.5,1.9c0.2,0.1,0.4,0.3,0.5,0.5l1.9,3.4l1.8-3.4
	c0.1-0.2,0.3-0.4,0.5-0.5l3.5-1.9l-3.5-1.9c-0.2-0.1-0.4-0.3-0.5-0.5l-1.9-3.4l-1.9,3.4c-0.1,0.2-0.3,0.4-0.5,0.5L1289.9,254.9z"/>
<path d="M1194.8,26c-0.4,0-0.9-0.2-1.1-0.6l-2.7-5l-5-2.8c-0.4-0.2-0.6-0.6-0.6-1c0-0.4,0.2-0.8,0.6-1l5-2.8l2.7-5
	c0.2-0.4,0.6-0.6,1.1-0.6c0.4,0,0.9,0.2,1.1,0.6l2.7,5l5,2.8c0.4,0.2,0.6,0.6,0.6,1c0,0.4-0.2,0.8-0.6,1l-5,2.8l-2.7,5
	C1195.6,25.7,1195.2,26,1194.8,26L1194.8,26z M1189,16.6l3.5,1.9c0.2,0.1,0.4,0.3,0.5,0.5l1.8,3.3l1.8-3.3c0.1-0.2,0.3-0.4,0.5-0.5
	l3.4-1.9l-3.4-1.9c-0.2-0.1-0.4-0.3-0.5-0.5l-1.8-3.4l-1.8,3.4c-0.1,0.2-0.3,0.4-0.5,0.5L1189,16.6z"/>
<path class="st0" d="M116.9,258.9c0.2,0,0.4,0,0.6,0c1.5-4.2,5.6-7.3,10.4-7.3c0.2,0,0.5,0,0.7,0c2.1-7,8.7-12.1,16.5-12.1
	c8.8,0,16,6.5,17.1,14.9c0.3,0,0.6,0,0.9,0c5.2,0,9.5,4.3,9.5,9.5s-4.3,9.5-9.5,9.5c-0.1,0-0.2,0-0.3,0v0h-46.4v0
	c-3.8-0.3-6.8-3.4-6.8-7.2C109.5,262.2,112.8,258.9,116.9,258.9z"/>
<path class="st1" d="M1313.9,212.3c0.2,0,0.4,0,0.6,0c1.7-4.7,6.2-8.1,11.5-8.1c0.3,0,0.5,0,0.8,0c2.3-7.8,9.5-13.6,18.1-13.6
	c9.6,0,17.6,7.3,18.7,16.6c0.3,0,0.7,0,1,0c5.8,0,10.4,4.8,10.4,10.7c0,5.9-4.7,10.7-10.4,10.7c-0.1,0-0.2,0-0.3,0v0h-50.9v0
	c-4.2-0.3-7.5-3.8-7.5-8.1C1305.8,215.9,1309.4,212.3,1313.9,212.3z"/>
<path class="st1" d="M41.2,218.2c0.4,0,0.8,0,1.2,0c3.2-9.1,12-15.6,22.3-15.6c0.5,0,1,0,1.5,0.1c4.5-15.1,18.6-26,35.3-26
	c18.8,0,34.3,13.9,36.5,31.9c0.6-0.1,1.3-0.1,1.9-0.1c11.2,0,20.3,9.2,20.3,20.5c0,11.3-9.1,20.5-20.3,20.5c-0.2,0-0.4,0-0.6,0v0
	H40.1v0c-8.2-0.6-14.7-7.3-14.7-15.5C25.4,225.2,32.5,218.2,41.2,218.2z"/>
<path class="st1" d="M81.2,485.4c-0.3,0-0.5,0-0.8,0c-2.2-6.3-8.2-10.7-15.2-10.7c-0.3,0-0.7,0-1,0c-3.1-10.3-12.7-17.9-24.1-17.9
	c-12.8,0-23.4,9.6-24.9,21.9c-0.4,0-0.9-0.1-1.3-0.1C6.2,478.7,0,485,0,492.7c0,7.8,6.2,14.1,13.9,14.1c0.1,0,0.3,0,0.4,0v0H82v0
	c5.6-0.4,10-5,10-10.7C92,490.2,87.2,485.4,81.2,485.4z"/>
<path class="st1" d="M1065.1,373.2c-0.4,0-0.7,0-1,0c-2.8-8-10.5-13.7-19.5-13.7c-0.4,0-0.9,0-1.3,0c-3.9-13.2-16.2-22.9-30.8-22.9
	c-16.4,0-29.9,12.2-31.9,28.1c-0.5-0.1-1.1-0.1-1.7-0.1c-9.8,0-17.7,8.1-17.7,18c0,9.9,7.9,18,17.7,18c0.2,0,0.3,0,0.5,0v0h86.6v0
	c7.1-0.5,12.8-6.4,12.8-13.7C1078.9,379.3,1072.7,373.2,1065.1,373.2z"/>
</svg>
