<?xml version="1.0" encoding="utf-8"?>
<!-- Generator: Adobe Illustrator 21.0.0, SVG Export Plug-In . SVG Version: 6.00 Build 0)  -->
<svg version="1.1" id="Layer_1" xmlns="http://www.w3.org/2000/svg" xmlns:xlink="http://www.w3.org/1999/xlink" x="0px" y="0px"
	 viewBox="0 0 1250 531.5" style="enable-background:new 0 0 1250 531.5;" xml:space="preserve">
<style type="text/css">
	.st0{fill:#FFEFEF;}
	.st1{opacity:0.302;fill:#FF6666;enable-background:new    ;}
</style>
<path class="st0" d="M0,531.5h1134.1l-89-51.4l-755-435.8C197.3-9.3,89.7-12.7,0,25.7V531.5z"/>
<path class="st0" d="M444.9,443.8c-0.6-0.6-1.3-1.1-2.1-1.4c-0.8-0.3-1.6-0.5-2.5-0.5h-33.5c-0.9,0-1.7,0.2-2.5,0.5
	s-1.5,0.8-2.1,1.4s-1.1,1.3-1.4,2.1c-0.3,0.8-0.5,1.6-0.5,2.5v1.1c0,0.9,0.2,1.7,0.5,2.5s0.8,1.5,1.4,2.1s1.3,1.1,2.1,1.4
	c0.8,0.3,1.6,0.5,2.5,0.5h33.5c0.9,0,1.7-0.2,2.5-0.5s1.5-0.8,2.1-1.4s1.1-1.3,1.4-2.1c0.3-0.8,0.5-1.6,0.5-2.5v-1.1
	c0-0.9-0.2-1.7-0.5-2.5S445.5,444.4,444.9,443.8z"/>
<path class="st1" d="M444.9,419.3c-0.6-0.6-1.3-1.1-2.1-1.4c-0.8-0.3-1.6-0.5-2.5-0.5h-33.5c-0.9,0-1.7,0.2-2.5,0.5
	s-1.5,0.8-2.1,1.4s-1.1,1.3-1.4,2.1c-0.3,0.8-0.5,1.6-0.5,2.5v1.1c0,0.9,0.2,1.7,0.5,2.5s0.8,1.5,1.4,2.1s1.3,1.1,2.1,1.4
	c0.8,0.3,1.6,0.5,2.5,0.5h33.5c0.9,0,1.7-0.2,2.5-0.5s1.5-0.8,2.1-1.4s1.1-1.3,1.4-2.1c0.3-0.8,0.5-1.6,0.5-2.5v-1.1
	c0-0.9-0.2-1.7-0.5-2.5S445.5,419.9,444.9,419.3z"/>
<path class="st0" d="M384.3,443.8c-0.6-0.6-1.3-1.1-2.1-1.4c-0.8-0.3-1.6-0.5-2.5-0.5h-1.1c-0.9,0-1.7,0.2-2.5,0.5s-1.5,0.8-2.1,1.4
	s-1.1,1.3-1.4,2.1c-0.3,0.8-0.5,1.6-0.5,2.5v1.1c0,0.9,0.2,1.7,0.5,2.5s0.8,1.5,1.4,2.1s1.3,1.1,2.1,1.4c0.8,0.3,1.6,0.5,2.5,0.5
	h1.1c0.8,0,1.7-0.2,2.5-0.5s1.5-0.8,2.1-1.4s1.1-1.3,1.4-2.1c0.3-0.8,0.5-1.6,0.5-2.5v-1.1c0-0.9-0.2-1.7-0.5-2.5
	S384.9,444.4,384.3,443.8z"/>
<path class="st1" d="M384.3,419.3c-0.6-0.6-1.3-1.1-2.1-1.4c-0.8-0.3-1.6-0.5-2.5-0.5h-1.1c-0.9,0-1.7,0.2-2.5,0.5s-1.5,0.8-2.1,1.4
	s-1.1,1.3-1.4,2.1c-0.3,0.8-0.5,1.6-0.5,2.5v1.1c0,0.9,0.2,1.7,0.5,2.5s0.8,1.5,1.4,2.1s1.3,1.1,2.1,1.4c0.8,0.3,1.6,0.5,2.5,0.5
	h1.1c0.8,0,1.7-0.2,2.5-0.5s1.5-0.8,2.1-1.4s1.1-1.3,1.4-2.1c0.3-0.8,0.5-1.6,0.5-2.5v-1.1c0-0.9-0.2-1.7-0.5-2.5
	S384.9,419.9,384.3,419.3z"/>
<path class="st0" d="M515.7,466.2c-0.8,0.3-1.5,0.8-2.1,1.4s-1.1,1.3-1.4,2.1c-0.3,0.8-0.5,1.6-0.5,2.5v1.1c0,0.8,0.2,1.7,0.5,2.5
	s0.8,1.5,1.4,2.1c0.6,0.6,1.3,1.1,2.1,1.4s1.6,0.5,2.5,0.5h132.1c0.8,0,1.7-0.2,2.5-0.5s1.5-0.8,2.1-1.4s1.1-1.3,1.4-2.1
	c0.3-0.8,0.5-1.6,0.5-2.5v-1.1c0-0.9-0.2-1.7-0.5-2.5s-0.8-1.5-1.4-2.1c-0.6-0.6-1.3-1.1-2.1-1.4s-1.6-0.5-2.5-0.5H518.1
	C517.3,465.8,516.5,465.9,515.7,466.2z"/>
<path class="st1" d="M515.7,441.7c-0.8,0.3-1.5,0.8-2.1,1.4s-1.1,1.3-1.4,2.1c-0.3,0.8-0.5,1.6-0.5,2.5v1.1c0,0.8,0.2,1.7,0.5,2.5
	s0.8,1.5,1.4,2.1c0.6,0.6,1.3,1.1,2.1,1.4s1.6,0.5,2.5,0.5h132.1c0.8,0,1.7-0.2,2.5-0.5s1.5-0.8,2.1-1.4s1.1-1.3,1.4-2.1
	c0.3-0.8,0.5-1.6,0.5-2.5v-1.1c0-0.9-0.2-1.7-0.5-2.5s-0.8-1.5-1.4-2.1c-0.6-0.6-1.3-1.1-2.1-1.4s-1.6-0.5-2.5-0.5H518.1
	C517.3,441.3,516.5,441.4,515.7,441.7z"/>
<path class="st1" d="M545.7,430.9c0.8-0.3,1.5-0.8,2.1-1.4s1.1-1.3,1.4-2.1c0.3-0.8,0.5-1.6,0.5-2.5v-1.1c0-0.9-0.2-1.7-0.5-2.5
	s-0.8-1.5-1.4-2.1c-0.6-0.6-1.3-1.1-2.1-1.4s-1.6-0.5-2.5-0.5h-75.8c-0.9,0-1.7,0.2-2.5,0.5s-1.5,0.8-2.1,1.4s-1.1,1.3-1.4,2.1
	c-0.3,0.8-0.5,1.6-0.5,2.5v1.1c0,0.9,0.2,1.7,0.5,2.5s0.8,1.5,1.4,2.1s1.3,1.1,2.1,1.4c0.8,0.3,1.6,0.5,2.5,0.5h75.8
	C544,431.4,544.9,431.2,545.7,430.9z"/>
<path class="st0" d="M1083,502.3"/>
</svg>
