<svg xmlns="http://www.w3.org/2000/svg" xmlns:xlink="http://www.w3.org/1999/xlink" width="130" height="130" viewBox="0 0 130 130">
    <defs>
        <path id="prefix__a" d="M0 0.695L38.511 0.695 38.511 36.165 0 36.165z"/>
        <path id="prefix__c" d="M0.681 0.695L39.097 0.695 39.097 36.165 0.681 36.165z"/>
    </defs>
    <g fill="none" fill-rule="evenodd">
        <circle cx="65" cy="65" r="65" fill="#FFF"/>
        <path fill="#FFD900" fill-rule="nonzero" d="M65 130c-35.9 0-65-29.1-65-65C0 29.104 29.102 0 65 0c35.898 0 65 29.103 65 65 0 35.9-29.1 65-65 65zm0-2.932c34.28 0 62.068-27.788 62.068-62.067 0-34.279-27.79-62.069-62.068-62.069-34.279 0-62.068 27.79-62.068 62.069 0 34.28 27.788 62.067 62.068 62.067z"/>
        <g>
            <g transform="translate(16.128 17.105) translate(0 61.579)">
                <mask id="prefix__b" fill="#fff">
                    <use xlink:href="#prefix__a"/>
                </mask>
                <path fill="#000" d="M33.05 20.588a7.01 7.01 0 00-12.158-3.742 12.37 12.37 0 00-7.337-.764 8.1 8.1 0 00-3.567-2.932 9.038 9.038 0 00.649-3.383A9.118 9.118 0 001.527.695a1.528 1.528 0 000 3.054 6.063 6.063 0 016.056 6.056 6.006 6.006 0 01-1.1 3.452 1.528 1.528 0 001.054 2.39A4.973 4.973 0 0111.4 18.51c.306.66.502 1.364.58 2.085a1.527 1.527 0 003.055 0A6.478 6.478 0 0014.799 19a9.338 9.338 0 015.819 1.13c.726.41 1.648.162 2.069-.557a3.932 3.932 0 017.132.695 6.668 6.668 0 00-2.985.885 1.527 1.527 0 001.619 2.59 5.33 5.33 0 012.894-.413 4.94 4.94 0 013.867 5.82 4.942 4.942 0 01-4.707 3.962 1.527 1.527 0 000 3.055 7.996 7.996 0 002.543-15.578" mask="url(#prefix__b)"/>
            </g>
            <g transform="translate(16.128 17.105) translate(58.647 61.579)">
                <mask id="prefix__d" fill="#fff">
                    <use xlink:href="#prefix__c"/>
                </mask>
                <path fill="#000" d="M37.57.695a9.112 9.112 0 00-8.452 12.485 8.1 8.1 0 00-3.567 2.932 12.368 12.368 0 00-7.339.765 7.01 7.01 0 00-12.156 3.741A7.994 7.994 0 008.59 36.166a1.526 1.526 0 100-3.055 4.94 4.94 0 01-.802-9.813 1.528 1.528 0 001.275-1.58v-.184a3.948 3.948 0 016.53-2.993 10.463 10.463 0 00-2.055 2.596 1.528 1.528 0 002.672 1.482 7.433 7.433 0 012.292-2.52 9.329 9.329 0 017.33-.764 1.528 1.528 0 001.857-.824 4.968 4.968 0 013.863-2.864h.137a4.35 4.35 0 012.291.229 1.527 1.527 0 001.176-2.818 7.108 7.108 0 00-2.978-.52 5.987 5.987 0 01-.656-2.718 6.063 6.063 0 016.047-6.07 1.527 1.527 0 100-3.055" mask="url(#prefix__d)"/>
            </g>
            <path fill="#000" d="M65.504 58.143l-6.017-5.086a39.163 39.163 0 002.702-8.935c.075-.179.114-.371.116-.565.229-1.328.404-2.695.527-4.092 2.58 2.29 3.26 4.695 3.26 13.37a25.832 25.832 0 01-.58 5.308h-.008zm-11.287-2.161H50.4V44.39c4.092 0 7.024.175 8.568.329-.978 4.642-2.612 8.605-4.75 11.263zm-10.69 0c-2.13-2.658-3.765-6.628-4.742-11.263 1.527-.146 4.474-.299 8.568-.329v11.592h-3.826zm-11.294 2.16a25.8 25.8 0 01-.573-5.345c0-8.675.68-11.103 3.26-13.37.123 1.396.299 2.764.528 4.092.002.194.04.386.114.565a39.165 39.165 0 002.704 8.935l-6.033 5.124zm11.874-48.039a20.626 20.626 0 014.765-.382c1.578-.042 3.156.091 4.704.397 3.115 6.346 6.414 15.914 6.414 24.436 0 2.386-.165 4.77-.495 7.133a53.17 53.17 0 00-2.123-.153c-1.91-.114-4.346-.176-6.972-.198v-4.82a1.528 1.528 0 00-3.055 0v4.827c-2.627 0-5.063.091-6.972.199-.763.046-1.527.09-2.123.152a51.519 51.519 0 01-.497-7.132c0-8.599 3.246-18.12 6.34-24.42l.014-.039zm4.765-7.048c.664.335 1.718 1.665 2.917 3.68a35.356 35.356 0 00-2.902-.099c-1.13 0-2.145.038-2.97.107 1.2-2.009 2.268-3.345 2.955-3.688zM63.03 35.738v-1.184c0-8.338-3.146-18.754-6.758-25.963a1.298 1.298 0 00-.282-.55C53.53 3.246 50.873 0 48.872 0c-2.573 0-5.345 4.405-7.262 8.216-.039.062-.072.129-.1.198a67.43 67.43 0 00-1.664 3.62C36.57 19.77 34.7 27.98 34.7 34.562v1.184c-4.85 3.558-6.11 6.063-6.11 17.082a25.02 25.02 0 001.429 8.56 1.528 1.528 0 002.398.596l7.278-6.109c.567.954 1.22 1.856 1.947 2.695.289.33.706.519 1.145.52h4.559v1.763a1.527 1.527 0 103.055 0v-1.817h4.535c.44 0 .856-.19 1.145-.519a18.944 18.944 0 001.955-2.688l7.278 6.11a1.527 1.527 0 002.398-.597 24.997 24.997 0 001.428-8.56c0-10.989-1.26-13.485-6.109-17.044zM48.872 65.054c-.843 0-1.527.683-1.527 1.526v22.383a1.526 1.526 0 103.054 0V66.58c0-.843-.683-1.526-1.527-1.526" transform="translate(16.128 17.105)"/>
            <path fill="#000" d="M42.939 61.571c-.844 0-1.527.684-1.527 1.527v10.02a1.526 1.526 0 103.054 0v-10.02c0-.843-.684-1.527-1.527-1.527M54.806 61.571c-.844 0-1.527.684-1.527 1.527v10.02a1.526 1.526 0 103.053 0v-10.02c0-.843-.683-1.527-1.526-1.527M48.872 21a3.733 3.733 0 110 7.469 3.734 3.734 0 010-7.47m0 10.516a6.788 6.788 0 10-6.788-6.788 6.797 6.797 0 006.788 6.788" transform="translate(16.128 17.105)"/>
        </g>
    </g>
</svg>
