<svg xmlns="http://www.w3.org/2000/svg" width="254" height="418" viewBox="0 0 254 418">
    <g fill="none" fill-rule="evenodd">
        <path fill="#000" d="M187.17 51.5l22.539 4.95-12.776 39.6-19.066-4.308 3.308-4.735 9.51-9.037h-9.924l-3.722 4.088z"/>
        <path fill="#FFF3E5" d="M87.37 216.562s9.104 1.982 19.14.322c12.003-1.987 25.34-7.532 26.031-5.44 1.275 3.839 5.091 7.679 5.091 7.679l13.996-15.36 43.263 145.906-26.72 12.158-25.45-72.312-43.899 80.631-29.266-20.478s42.626-38.396 40.717-77.43c-.635-14.08-7.633-21.758-16.54-30.078-8.908-8.319-6.363-25.598-6.363-25.598M113.456 83.457l20.996.64 5.725 10.239 15.905-3.2s-1.272 7.04 3.182 10.239c4.453 3.2 6.361 5.76 6.361 5.76l-13.36 40.315-31.175-41.595-7.634-22.398z"/>
        <path fill="#FD8401" d="M145.903 93.056l12.723 99.83s-24.174 17.917-43.898 17.278c-19.723-.64-34.992-4.48-34.992-4.48s6.363-76.792 8.908-87.03c2.544-10.24 7.633-29.437 20.994-46.076l3.512-11.09 23.033 9.997.502 11.869 9.218 9.702z"/>
        <path stroke="#000" stroke-linecap="round" stroke-linejoin="round" stroke-width="2.574" d="M186.216 98.297c-2.367 7.133-10.73 5.64-16.205 10.607 0 0-6.261 18.783-12.657 32.786M86.898 215.036c-.163 5.366-3.776 16.302 12.355 34.857 18.024 20.734 7.204 49.222 2.114 56.901"/>
        <path stroke="#000" stroke-linecap="round" stroke-linejoin="round" stroke-width="2.574" d="M138.269 230.001c5.089 15.77 16.988 36.378 7.914 52.812l-3.523 6.383-17.133 31.032-27.341 51.2-23.461-14.005 3.818-8.96 18.37 10.165M72.737 367.587L53.73 408.394l16.328 1.381 5.745-2.516 11.433 2.644 25.025.185s6.248-4.46-.183-7.633c-2.922-1.442-5.917-2.883-15.85-4.024-22.124-2.539-4.287-22.856-4.287-22.856s-7.049 6.987-12.138 6.949M102.004 103.294s-14.608 50.234-9.201 58.302c5.405 8.067 44.83 57.526 44.83 57.526M140.795 191.236s-17.082-30.659-18.591-36.768c-2.888-11.687 7.355-22.53 11.611-32.615M145.903 210.803l-19.713 21.222M18.02 376.118h24.815M2.118 376.118h7.209M162.657 416.436h41.566M144.597 25.426c4.117-7.072 8.718-4.153 17.45-2.589 4.47.8 14.593-6.294 5.511-14.8-8.294-7.771-24.587-3.357-24.587-3.357s-20.27-10.016-31.465 8.75c-6.636 11.126 1.95 27.792 3.54 36.992M159.771 90.582s2.279-14.81 21.244-18.641M169.03 85.745s15.758-11.052 19.817-8.207c4.06 2.843-5.43 7.913-9.046 11.086-3.615 3.173-5.741 10.721-10.82 10.374"/>
        <path stroke="#000" stroke-linecap="round" stroke-linejoin="round" stroke-width="2.574" d="M181.532 71.938l7.215-19.992 21.315 4.203-12.43 38.181-13.772-2.862M149.47 48.208c1.75-1.162 4.979 2.091 7.368.76 6.857-3.822.241-13.82 2.69-19.559M135.564 27.337a5.975 5.975 0 0 0-8.48.252 6.057 6.057 0 0 0 .251 8.528 5.955 5.955 0 0 0 3.916 1.64M109.333 60.207l-3.637 10.27 30.99 12.876-.503-11.869z"/>
        <path fill="#000" d="M152.829 36.254a1.627 1.627 0 0 1-2.109.938 1.641 1.641 0 0 1-.933-2.12 1.627 1.627 0 0 1 2.109-.939 1.641 1.641 0 0 1 .933 2.121"/>
        <path fill="#FFF" d="M189.308 89.595a1.628 1.628 0 0 1-2.109.938 1.642 1.642 0 0 1-.932-2.122 1.626 1.626 0 0 1 2.108-.937 1.643 1.643 0 0 1 .933 2.121"/>
        <path stroke="#000" stroke-linecap="round" stroke-linejoin="round" stroke-width="2.574" d="M129.997 208.884c-30.912 20.329-56.098-1.46-56.098-1.46.943-7.632 5.131-72.11 11.037-96.505 5.903-24.397 20.76-40.441 20.76-40.441M151.628 301.674l37.71 89.941s5.117 10.1 7.764 8.732c2.307-1.193 13.049-5.448 14.22-8.268 1.173-2.82-2.07-3.08-.113-4.843 4.499-4.044 12.997-3.491 18.677-4.992 5.887-1.56 21.926-13.748 21.926-13.748s3.09-5.622-2.446-6.64c-5.537-1.02-23.012 5.796-26.192 7.31"/>
        <path stroke="#000" stroke-linecap="round" stroke-linejoin="round" stroke-width="2.574" d="M196.831 361.314c5.005 15.664 13.466 7.49 13.466 7.49s-4.013-14.023 1.988-13.95c6.002.074 2.5 16.448 2.5 16.448M142.577 83.324l4.221 1.111-2.168-8.017M187.389 357.564l14.392-5.207-27.025-82.58-25.036-50.655M149.12 66.127s-1.957 5.743-7.016 1.861L127.452 53.38v-7.678M139.229 96.048l2.285-.024"/>
    </g>
</svg>
