<svg xmlns="http://www.w3.org/2000/svg" viewBox="0 0 40 40" width="40" height="40">
	<style>
		tspan { white-space:pre }
		.shp0 { fill: #fd8400 } 
	</style>
	<g id="Layer">
		<path id="Layer" fill-rule="evenodd" class="shp0" d="M74 79.5C74 99.66 58.63 116 39.68 116L-281.68 116C-300.63 116 -316 99.66 -316 79.5C-316 59.34 -300.63 43 -281.68 43L39.68 43C58.63 43 74 59.34 74 79.5ZM2 39L32.7 2.33C33.1 1.86 33.63 1.52 34.22 1.36C34.82 1.2 35.45 1.23 36.02 1.44C36.6 1.65 37.1 2.03 37.46 2.54C37.81 3.04 38 3.64 38 4.26L38 38.99L2 39Z" />
	</g>
</svg>