<svg xmlns="http://www.w3.org/2000/svg" width="163" height="14" viewBox="0 0 163 14">
    <g fill="#47B5BD" fill-rule="evenodd">
        <path d="M131.5 14h-74c-3.59 0-6.5-2.91-6.5-6.5v-1C51 2.91 53.91 0 57.5 0h74c3.59 0 6.5 2.91 6.5 6.5v1c0 3.59-2.91 6.5-6.5 6.5zM31.5 14h-25C2.91 14 0 11.09 0 7.5v-1C0 2.91 2.91 0 6.5 0h25C35.09 0 38 2.91 38 6.5v1c0 3.59-2.91 6.5-6.5 6.5zM156.5 14h-1c-3.59 0-6.5-2.91-6.5-6.5v-1c0-3.59 2.91-6.5 6.5-6.5h1c3.59 0 6.5 2.91 6.5 6.5v1c0 3.59-2.91 6.5-6.5 6.5z"/>
    </g>
</svg>
