<svg xmlns="http://www.w3.org/2000/svg" width="130" height="130" viewBox="0 0 130 130">
    <g fill="none" fill-rule="evenodd">
        <circle cx="65" cy="65" r="65" fill="#FFF"/>
        <path fill="#47B5BD" fill-rule="nonzero" d="M65 0C29.102 0 0 29.103 0 65c0 35.9 29.1 65 65 65s65-29.1 65-65c0-35.897-29.102-65-65-65zm0 2.932c34.279 0 62.068 27.79 62.068 62.069 0 34.28-27.788 62.067-62.068 62.067S2.932 99.28 2.932 65C2.932 30.722 30.722 2.932 65 2.932z"/>
        <g fill="#000" fill-rule="nonzero" stroke="#000" stroke-width="1.5">
            <path d="M48.91 20.526c-.154 0-.308-.076-.463-.152L31.742 10.93a.836.836 0 01-.464-.762c0-.305.155-.61.464-.762L48.447.114c.31-.152.619-.152.85 0l16.705 9.292c.31.153.464.457.464.762s-.155.61-.464.762l-16.704 9.52c-.078.076-.232.076-.387.076zM33.986 10.168l14.849 8.454 14.925-8.454-14.848-8.302-14.926 8.302z" transform="translate(26.88 26.88)"/>
            <path d="M48.87 40.075c-.155 0-.31 0-.465-.157L31.278 29.912V9.742c0-.472.388-.945.93-.945a.95.95 0 01.93.945V28.81l16.275 9.533c.465.236.542.788.31 1.26-.31.316-.543.473-.853.473z" transform="translate(26.88 26.88)"/>
            <path d="M48.78 40.075a.851.851 0 01-.776-.473c-.233-.472-.077-1.024.31-1.26l16.29-9.533V9.742c0-.472.388-.945.931-.945a.95.95 0 01.931.945v20.091L49.168 39.918c-.155.078-.233.157-.388.157zM48.872 33.233c-.489 0-.977-.364-.977-.873V20.422c0-.436.407-.873.977-.873.489 0 .978.364.978.873v12.01c-.082.437-.49.801-.978.801zM44.42 57.67h-4.397c-.463 0-.926-.385-.926-.923 0-.539.386-.923.926-.923h4.396c4.089 0 7.945-1.23 11.34-3.46l1.31-.922c.772-.539 1.003-1.538.618-2.307-.077-.077-.309-.307-.54-.461-1.62-1.307-3.857-1.692-6.017-1-.848.231-1.697.462-2.545.539-3.009.384-6.248-.231-9.025-1.846-8.794-4.92-17.818-4.69-25.455.692-.386.308-.926.154-1.234-.23-.309-.385-.154-.923.231-1.23 8.177-5.767 17.896-6.074 27.306-.77 2.546 1.385 5.323 2 7.945 1.615.772-.077 1.543-.23 2.237-.461 2.7-.846 5.554-.384 7.637 1.307.462.384.771.692.771.692l.077.077.077.077c.926 1.614.463 3.69-1.157 4.766l-1.311.923c-3.625 2.537-7.868 3.844-12.265 3.844z" transform="translate(26.88 26.88)"/>
            <path d="M43.263 65.489c-.46 0-.996 0-1.455-.076-17.16-.984-27.195-1.968-27.348-2.044-.46-.075-.843-.454-.766-.984.077-.454.46-.832.996-.757.076 0 10.112 1.06 27.27 1.968 4.367.227 8.81-.68 12.717-2.8L74.441 49.82c.69-.378 1.149-1.135.996-1.968-.153-1.363-1.15-2.574-2.528-3.028-.613-.151-1.609-.151-2.834.076-1.15.227-2.299.53-3.448.984l-6.511 2.574c-.46.15-.996-.076-1.15-.455-.152-.454.078-.984.46-1.135l6.512-2.574c1.302-.53 2.604-.908 3.83-1.06 1.609-.302 2.834-.302 3.677 0 2.068.682 3.524 2.423 3.754 4.467a3.848 3.848 0 01-1.915 3.709L55.52 62.46c-3.83 1.968-8.044 3.028-12.257 3.028z" transform="translate(26.88 26.88)"/>
            <path d="M11.668 71.353H.92c-.46 0-.921-.377-.921-.906 0-.453.384-.906.921-.906h10.747c.69 0 1.228-.529 1.228-1.209v-27.19c0-.68-.537-1.209-1.228-1.209H.92c-.46 0-.921-.378-.921-.906 0-.454.384-.907.921-.907h10.747c1.689 0 2.994 1.36 2.994 2.946v27.266c0 1.662-1.382 3.021-2.994 3.021z" transform="translate(26.88 26.88)"/>
        </g>
    </g>
</svg>
