<?xml version="1.0" encoding="utf-8"?>
<!-- Generator: Adobe Illustrator 21.0.0, SVG Export Plug-In . SVG Version: 6.00 Build 0)  -->
<svg version="1.1" id="Layer_1" xmlns="http://www.w3.org/2000/svg" xmlns:xlink="http://www.w3.org/1999/xlink" x="0px" y="0px"
	 viewBox="0 0 1424.6 608.8" style="enable-background:new 0 0 1424.6 608.8;" xml:space="preserve">
<style type="text/css">
	.st0{fill:#7CCC33;}
	.st1{fill:#DDF1C9;}
</style>
<path class="st0" d="M310.7,608.8h-72c-3.9,0-7-3.1-7-7l0,0c0-3.9,3.1-7,7-7h72c3.9,0,7,3.1,7,7l0,0
	C317.7,605.6,314.5,608.8,310.7,608.8z"/>
<path class="st0" d="M210.7,608.8h-25c-3.9,0-7-3.1-7-7l0,0c0-3.9,3.1-7,7-7h25c3.9,0,7,3.1,7,7l0,0
	C217.7,605.6,214.5,608.8,210.7,608.8z"/>
<path class="st1" d="M79,546.8H7c-3.9,0-7-3.1-7-7l0,0c0-3.9,3.1-7,7-7h72c3.9,0,7,3.1,7,7l0,0C86,543.6,82.9,546.8,79,546.8z"/>
<path class="st1" d="M75,524.4H50c-3.9,0-7-3.1-7-7l0,0c0-3.9,3.1-7,7-7h25c3.9,0,7,3.1,7,7l0,0C82,521.3,78.9,524.4,75,524.4z"/>
<path class="st1" d="M193.7,46.7h-65.8c-3.9,0-7-3.1-7-7v0c0-3.9,3.1-7,7-7h65.8c3.9,0,7,3.1,7,7v0
	C200.7,43.6,197.5,46.7,193.7,46.7z"/>
<path class="st0" d="M782.7,14h-73.2c-3.9,0-7-3.1-7-7v0c0-3.9,3.1-7,7-7l73.2,0c3.9,0,7,3.1,7,7v0C789.7,10.9,786.6,14,782.7,14z"
	/>
<path class="st0" d="M830.8,14h-20c-3.9,0-7-3.1-7-7v0c0-3.9,3.1-7,7-7l20,0c3.9,0,7,3.1,7,7v0C837.8,10.9,834.7,14,830.8,14z"/>
<path class="st1" d="M972.5,40.2h65.6c3.9,0,7,3.1,7,7v0c0,3.9-3.1,7-7,7h-65.6c-3.9,0-7-3.1-7-7v0
	C965.5,43.3,968.6,40.2,972.5,40.2z"/>
<path class="st1" d="M1351.5,197.1h66.1c3.9,0,7,3.1,7,7v0c0,3.9-3.1,7-7,7h-66.1c-3.9,0-7-3.1-7-7v0
	C1344.5,200.2,1347.6,197.1,1351.5,197.1z"/>
<path class="st1" d="M915.6,40.2h30.2c3.9,0,7,3.1,7,7v0c0,3.9-3.1,7-7,7h-30.2c-3.9,0-7-3.1-7-7v0
	C908.6,43.3,911.7,40.2,915.6,40.2z"/>
<path class="st1" d="M797.5,365h66c3.9,0,7,3.1,7,7v0c0,3.9-3.1,7-7,7h-66c-3.9,0-7-3.1-7-7v0C790.5,368.1,793.6,365,797.5,365z"/>
<path class="st1" d="M99.7,46.7H70.9c-3.9,0-7-3.1-7-7v0c0-3.9,3.1-7,7-7h28.8c3.9,0,7,3.1,7,7v0C106.7,43.6,103.5,46.7,99.7,46.7z"
	/>
</svg>
