<?xml version="1.0" encoding="utf-8"?>
<!-- Generator: Adobe Illustrator 21.0.0, SVG Export Plug-In . SVG Version: 6.00 Build 0)  -->
<svg version="1.1" id="Layer_1" xmlns="http://www.w3.org/2000/svg" xmlns:xlink="http://www.w3.org/1999/xlink" x="0px" y="0px"
	 viewBox="0 0 691 407" style="enable-background:new 0 0 691 407;" xml:space="preserve">
<style type="text/css">
	.st0{fill:#FEBB72;}
	.st1{fill:#FFDCB7;}
	.st2{fill:#FD8400;}
	.st3{fill:#FFD9B0;}
	.st4{fill:#FFE6CC;}
	.st5{fill:#FEC17F;}
</style>
<path class="st0" d="M236,16h-35c-4.4,0-8-3.6-8-8v0c0-4.4,3.6-8,8-8h35c4.4,0,8,3.6,8,8v0C244,12.4,240.4,16,236,16z"/>
<path class="st1" d="M113,59H29c-4.4,0-8-3.6-8-8v0c0-4.4,3.6-8,8-8h84c4.4,0,8,3.6,8,8v0C121,55.4,117.4,59,113,59z"/>
<path class="st2" d="M160,59L160,59c4.4,0,8-3.6,8-8v0c0-4.4-3.6-8-8-8h0c-4.4,0-8,3.6-8,8v0C152,55.4,155.6,59,160,59z"/>
<path class="st3" d="M683,309h-76c-4.4,0-8-3.6-8-8l0,0c0-4.4,3.6-8,8-8h76c4.4,0,8,3.6,8,8l0,0C691,305.4,687.4,309,683,309z"/>
<path class="st1" d="M575,309L575,309c4.4,0,8-3.6,8-8l0,0c0-4.4-3.6-8-8-8l0,0c-4.4,0-8,3.6-8,8l0,0C567,305.4,570.6,309,575,309z"
	/>
<path class="st4" d="M160,378H42c-4.4,0-8-3.6-8-8l0,0c0-4.4,3.6-8,8-8h118c4.4,0,8,3.6,8,8l0,0C168,374.4,164.4,378,160,378z"/>
<path class="st5" d="M59,407H24c-4.4,0-8-3.6-8-8l0,0c0-4.4,3.6-8,8-8h35c4.4,0,8,3.6,8,8l0,0C67,403.4,63.4,407,59,407z"/>
<path class="st2" d="M8,378L8,378c4.4,0,8-3.6,8-8l0,0c0-4.4-3.6-8-8-8h0c-4.4,0-8,3.6-8,8l0,0C0,374.4,3.6,378,8,378z"/>
</svg>
