<svg xmlns="http://www.w3.org/2000/svg" width="184" height="86" viewBox="0 0 184 86">
    <path fill="#000" fill-rule="nonzero" d="M29.016 47.496c2.151-.34 3.869-3.42 4.73-8.534 1.098.394 2.084.505 3.192.33 2.217-.351 4.695-1.58 6.488-3.968a.532.532 0 0 0 .129-.455.728.728 0 0 0-.273-.458.728.728 0 0 0-.52-.118c-.163.026-.283.112-.393.263-1.601 2.124-3.747 3.132-5.637 3.432-.945.15-1.942-.027-2.797-.36.41-3.105.404-6.311-.01-8.918-.732-4.629-2.565-5.441-3.869-5.235-1.923.305-2.834 2.989-2.256 6.64.61 3.845 2.695 6.89 4.708 8.208-.609 4.172-1.938 7.59-3.698 7.87-.946.149-3.446-1.928-5.657-8.293.398-2.97.749-5.398.49-7.027-.206-1.304-.803-1.911-1.585-1.787-.718.113-1.966.88-1.362 4.693.201 1.27.602 2.744 1.067 4.207-.937 5.26-2.96 9.791-3.937 9.946-.196.03-.445-.063-.71-.255-.565-.412-1.753-1.794-3.14-6.118-1.106-3.4-2.052-7.895-2.857-12.98a.685.685 0 0 0-.728-.586c-.359.057-.616.332-.592.695.21 4.912-.835 8.018-1.765 9.736-1.14 2.085-2.306 3.372-3.121 3.5-.326.052-.836 0-.97-.848a.662.662 0 0 0-.755-.549.662.662 0 0 0-.549.756c.212 1.336 1.177 2.152 2.448 1.95 2.314-.366 4.733-3.656 5.67-8.916 2.047 9.966 4.587 15.244 7.275 14.919 1.63-.259 3.3-3.43 4.597-8.948 1.055 2.44 3.519 7.662 6.387 7.208zm3.694-10.642c-1.574-1.288-3.11-3.817-3.601-6.914-.387-2.444.013-4.98 1.154-5.16.75-.12 1.843.877 2.359 4.136.361 2.282.382 5.152.088 7.938zM22.27 34.866c-.105-.452-.204-.87-.271-1.294-.243-1.532-.244-2.801.171-3.134.048.092.107.25.153.543.12.75.113 2.188-.053 3.885zm24.912 8.984c3.129-.495 3.406-5.284 3.019-7.728 1.63-.258 3.816-1.006 5.034-2.602.11-.15.176-.362.15-.525-.056-.358-.467-.628-.76-.581-.62.098-1.572 1.886-4.277 2.315l-.457.072c-.524-1.621-1.748-3.231-3.606-2.937-1.206.19-2.18 1.214-1.994 2.387.45 2 3.017 1.961 4.585 1.947.295 1.858.185 6.018-1.901 6.348-2.151.341-3.086-2.184-3.349-3.846-.201-1.271-.147-2.616.263-3.617a.532.532 0 0 0 .05-.308c-.061-.392-.368-.644-.727-.587-1.01.16-1.203 3.164-.965 4.664.397 2.51 2.099 5.447 4.935 4.998zm1.352-8.968c-.873-.029-2.79.108-2.944-.87-.062-.391.315-.752.902-.844 1.075-.17 1.745.892 2.042 1.714zm15.922 6.232c2.575-.408 2.841-7.166 2.738-7.817.472.025.966-.02 1.487-.102 1.5-.238 2.993-1.143 4.051-2.48.11-.15.177-.362.151-.525-.026-.163-.112-.283-.263-.392-.15-.11-.362-.177-.525-.151-.163.026-.283.112-.392.263-.921 1.148-2.316 1.836-3.424 2.012a5.385 5.385 0 0 1-1.194.055c-.289-1.825-1.21-3.216-2.743-2.973-1.075.17-1.567 1.284-1.417 2.23.247 1.564 1.661 1.84 2.956 2.003.16 1.01-.425 6.382-1.664 6.579-1.043.165-2.418-5.565-2.882-7.863a.65.65 0 0 0-.718-.522c-.424.068-.638.402-.581.76.279 1.76.3 3.16.13 4.624-.103.819-.675 3.75-1.522 3.883-1.043.165-2.419-5.564-2.883-7.863a.65.65 0 0 0-.717-.52c-.457.071-.638.401-.582.76.563 2.917 1.78 9.34 4.42 8.922 1.565-.248 2.243-2.928 2.488-4.337.689 2.03 1.685 3.676 3.086 3.454zm1.279-9.224c-.645-.064-1.393-.146-1.512-.896-.051-.326.065-.645.358-.692.783-.123 1.044 1.105 1.154 1.588zm9.741 10.452c1.213-.359 1.567-1.918 1.402-2.961-.16-1.01-1.142-2.359-2.218-2.188-.358.056-.633.434-.58.76.046.293.288.556.591.574.407.036.772.446.888.962.093.587 0 1.27-.573 1.661a.695.695 0 0 0-.265.644c.062.39.429.6.755.548zm16.946-5.657c2.574-.408 2.84-7.166 2.737-7.818.472.026.966-.019 1.488-.102 1.499-.237 2.993-1.142 4.05-2.479.11-.15.177-.362.151-.525-.025-.163-.111-.283-.262-.393-.151-.11-.362-.176-.525-.15-.163.025-.283.111-.393.262-.92 1.148-2.315 1.837-3.423 2.013-.522.082-.858.069-1.194.055-.29-1.825-1.211-3.216-2.743-2.973-1.076.17-1.568 1.284-1.418 2.229.248 1.564 1.662 1.842 2.957 2.004.16 1.01-.426 6.382-1.665 6.578-1.043.165-2.418-5.564-2.882-7.863a.65.65 0 0 0-.717-.52c-.424.066-.638.4-.582.76.28 1.76.3 3.16.131 4.623-.104.818-.676 3.749-1.523 3.883-1.043.165-2.418-5.564-2.883-7.863a.65.65 0 0 0-.717-.521c-.456.072-.638.402-.581.76.562 2.918 1.78 9.34 4.42 8.923 1.565-.248 2.243-2.928 2.487-4.337.69 2.03 1.685 3.676 3.087 3.454zM93.7 27.46c-.645-.065-1.393-.147-1.511-.896-.052-.326.064-.645.358-.692.782-.124 1.043 1.104 1.153 1.588zm11.53 7.195c3.325-.527 5.383-6.733 6.406-9.768.205-.6.185-.731.17-.829-.058-.358-.37-.643-.729-.586a.695.695 0 0 0-.53.451c-1.13 3.62-3.143 9.051-5.523 9.428-.977.155-1.763-.589-2.378-1.728.764-2.56.943-4.593.726-5.962-.342-1.95-1.384-2.62-2.101-2.507-1.336.212-1.546 2.049-1.2 4.233.614 3.878 2.129 7.748 5.16 7.268zm-3.434-5.236c-.153-.544-.241-1.098-.324-1.62-.211-1.336-.375-2.58-.022-3.304.113.083.409.47.58 1.345.14.88.06 2.062-.234 3.579zm14.386 3.501c3.325-.526 5.382-6.732 6.405-9.768.206-.6.185-.73.17-.828-.057-.359-.37-.644-.728-.587a.695.695 0 0 0-.53.452c-1.13 3.62-3.144 9.05-5.523 9.428-.978.155-1.764-.59-2.379-1.728.764-2.56.943-4.594.727-5.962-.343-1.95-1.384-2.621-2.102-2.508-1.336.212-1.546 2.05-1.2 4.233.614 3.879 2.13 7.749 5.16 7.268zm-3.435-5.236c-.153-.543-.24-1.097-.323-1.619-.212-1.336-.376-2.58-.022-3.304.113.082.408.47.58 1.345.14.88.06 2.062-.235 3.578zM67.65 76.045c3.324-.527 5.382-6.733 6.405-9.768.205-.601.185-.731.17-.83-.058-.358-.37-.642-.729-.586a.695.695 0 0 0-.53.452c-1.13 3.62-3.143 9.051-5.523 9.428-1.858.294-3.365-5.214-3.762-7.724.69-1.546 1.445-5.641.898-9.096-.191-1.206-.886-4.537-2.483-4.284-1.602.253-1.094 5.013-.168 10.959l.187 1.18c.544 3.354 1.946 10.837 5.535 10.269zm-4.47-12.19c-.372-2.346-.826-5.849-.793-8.594.268.426.645 1.335.95 3.258.268 1.694.161 3.55-.157 5.337zM77.852 74.43c3.129-.496 3.406-5.284 3.019-7.729 1.63-.258 3.817-1.005 5.034-2.601.11-.151.176-.362.15-.525-.056-.359-.466-.628-.76-.581-.619.098-1.572 1.886-4.277 2.314l-.457.073c-.524-1.621-1.748-3.232-3.605-2.937-1.206.19-2.18 1.213-1.995 2.387.45 2 3.017 1.961 4.585 1.947.295 1.857.185 6.018-1.9 6.348-2.152.34-3.087-2.184-3.35-3.846-.201-1.271-.147-2.617.263-3.617a.532.532 0 0 0 .051-.309c-.062-.39-.37-.643-.728-.586-1.01.16-1.203 3.164-.965 4.663.397 2.51 2.099 5.448 4.935 4.999zm1.352-8.968c-.873-.029-2.79.108-2.944-.87-.062-.391.315-.752.902-.845 1.076-.17 1.745.893 2.042 1.715zm10.48 7.094c3.128-.496 3.406-5.284 3.018-7.728 1.63-.259 3.817-1.006 5.034-2.602.11-.151.177-.362.151-.525-.057-.359-.467-.628-.76-.581-.62.098-1.572 1.886-4.278 2.314l-.456.073c-.524-1.621-1.748-3.232-3.606-2.937-1.206.19-2.18 1.214-1.994 2.387.45 2 3.017 1.961 4.585 1.947.294 1.857.185 6.018-1.901 6.348-2.151.34-3.086-2.184-3.35-3.846-.2-1.271-.146-2.616.263-3.617a.532.532 0 0 0 .052-.309c-.062-.39-.37-.643-.728-.586-1.01.16-1.203 3.164-.966 4.663.398 2.51 2.1 5.448 4.935 4.999zm1.352-8.968c-.873-.029-2.79.108-2.944-.87-.062-.391.315-.752.902-.845 1.075-.17 1.745.893 2.042 1.715zm11.652 6.908c3.325-.526 5.382-6.733 6.405-9.768.205-.6.185-.73.17-.829-.057-.358-.37-.643-.728-.586a.695.695 0 0 0-.53.451c-1.13 3.62-3.144 9.052-5.523 9.428-1.141.181-1.919-.932-2.336-1.668 1.164-1.721 2.086-3.705 1.771-5.693-.232-1.467-1.398-2.92-3.093-2.65.443-2.476.326-4.696.099-6.13-.243-1.532-.941-5.097-2.473-4.854-1.365.216-1.105 3.089-.59 6.399l1.54 9.721c.32 2.021.698 4.2 1.219 6.222.084.321.419.535.777.479.359-.057.578-.36.554-.723l-.311-1.12c.817.94 1.876 1.507 3.05 1.321zm-4.952-12.914c-.386-2.645-.778-5.122-.949-7.468.368.844.59 1.611.816 3.045a18.48 18.48 0 0 1 .133 4.423zm1.776 8.472c-.26-.794-.464-1.664-.65-2.837-.18-1.14-.385-2.645.201-2.738.946-.15 1.442.874 1.555 1.591.15.945-.105 2.289-1.106 3.984zm25.438.916c3.324-.526 5.382-6.732 6.404-9.768.206-.6.185-.73.17-.829-.057-.358-.37-.643-.728-.586a.695.695 0 0 0-.53.452c-1.13 3.62-3.176 9.056-5.556 9.433-2.02.32-3.065-3.324-3.352-4.715-.085-.32-.354-.545-.745-.483-.359.057-.583.326-.56.69.065 1.46.062 5.236-1.73 5.52-1.533.242-2.448-1.317-2.758-3.272-.413-2.608.253-5.787 1.818-6.035.847-.134 1.6.615 2.1 1.872.117.316.409.47.735.419.456-.073.562-.457.516-.75-.258-1.63-1.765-3.129-3.427-2.865-2.673.423-3.598 4.078-3.092 7.272.429 2.705 1.87 5.05 4.314 4.662 1.662-.263 2.414-2.053 2.659-3.461.747 1.552 2.132 2.702 3.762 2.444zm10.951-1.734c3.325-.527 5.382-6.733 6.405-9.768.205-.601.185-.731.17-.83-.057-.358-.37-.642-.728-.585a.695.695 0 0 0-.53.451c-1.13 3.62-3.144 9.051-5.523 9.428-1.858.294-3.365-5.214-3.763-7.723.569-1.26 1.168-4.228 1.067-7.186l2.458-.723c.381-.127.498-.447.451-.74-.052-.326-.331-.616-.755-.549l-2.268.66c-.026-.163-.024-.363-.055-.559-.19-1.206-.886-4.537-2.483-4.284-1.108.175-1.208 2.496-.877 5.852l-2.398.68c-.38.128-.497.447-.45.74.05.326.33.616.852.533l2.142-.606c.154 1.145.344 2.377.547 3.661l.203 1.278c.544 3.355 1.946 10.838 5.535 10.27zm-4.47-12.19a66.093 66.093 0 0 1-.477-3.432l.767-.221c.023 1.199-.08 2.451-.29 3.654zm-.793-8.593c.268.425.646 1.334.95 3.257l.052.326-.832.232c-.09-1.1-.155-2.18-.168-3.207l-.002-.608zm28.763 17.06c3.325-.526 5.382-6.732 6.405-9.767.205-.601.185-.731.17-.83-.057-.358-.37-.642-.728-.586a.695.695 0 0 0-.53.452c-1.13 3.62-3.144 9.051-5.523 9.428-2.738.434-4-6.684-4.573-8.831a.651.651 0 0 0-.745-.484c-.326.052-.578.359-.526.685.332 6.53-.577 9.647-1.783 9.838-1.141.18-1.863-2.478-2.224-4.76-.196-1.238-.28-2.194-.295-3.127-.062-.391-.364-.61-.723-.554a.687.687 0 0 0-.586.728c.031.83.124 2.052.326 3.323.454 2.868 1.492 6.045 3.74 5.689 2.282-.362 2.708-4.004 2.842-5.897.727 2.057 2.146 5.107 4.753 4.694zm8.81-1.328c2.51-.397 5.337-2.382 4.908-5.087-.082-.522-.295-1.023-.693-1.427 1.051-.534 2.13-1.106 3.04-1.685 1.271-.836 2.07-1.697 2.533-2.573a.784.784 0 0 0 .036-.406c-.03-.196-.127-.381-.343-.48a.634.634 0 0 0-.887.307c-.734 1.486-3.174 2.741-5.528 3.916-1.496-.799-3.229-1.193-4.49-2.196.732-1.285 1.22-2.632 1.013-3.936-.144-.912-.793-1.845-1.77-1.69-1.957.31-1.73 3.214-1.524 4.518.372 2.346 3.45 3.43 5.317 4.036l-.339.175c-1.944 1.018-5.122 2.895-4.781 5.046.247 1.564 2.368 1.663 3.509 1.482zm-2.332-10.723c-.043-.06-.059-.158-.07-.223-.092-.587-.29-2.894.361-2.997.229-.036.306.453.321.55.093.587-.033 1.476-.612 2.67zm2.126 9.42c-.456.072-1.9.234-1.999-.386-.237-1.499 4.219-3.742 5.15-4.19.383.307.603.64.665 1.03.33 2.087-2.251 3.298-3.816 3.545zm14.203-5.257c.358-.057.605-.397.554-.723L180.29 35.82c-.057-.359-.402-.638-.76-.582a.662.662 0 0 0-.549.756l2.467 17.05c.056.358.401.638.76.58zm.585 4.117a.668.668 0 0 0 .57-.625c.01-.57-.011-.7-.295-1.223a.673.673 0 0 0-.909-.257.673.673 0 0 0-.257.91c.048.092.134.212.14.245.004.033-.008.168-.025.271-.008.369.277.691.646.7l.13-.021z"/>
</svg>
