<svg xmlns="http://www.w3.org/2000/svg" width="13" height="13" viewBox="0 0 13 13">
    <path fill="#000" fill-rule="nonzero" d="M3.712 3.78L.437 5.603l-.083.052A.815.815 0 0 0 .44 7.05l3.3 1.821 1.802 3.3.049.079c.364.526 1.213.497 1.525-.083l1.776-3.299 3.274-1.82.083-.052a.815.815 0 0 0-.083-1.394L8.891 3.781 7.089.456c-.33-.608-1.246-.608-1.575 0L3.712 3.78zm2.59-1.106l1.132 2.09.05.082a.867.867 0 0 0 .29.258l2.195 1.221-2.196 1.221-.084.053a.851.851 0 0 0-.256.29L6.322 9.95 5.195 7.884l-.052-.081a.868.868 0 0 0-.29-.258L2.639 6.322 4.83 5.104a.86.86 0 0 0 .34-.34l1.132-2.09z"/>
</svg>
