<svg xmlns="http://www.w3.org/2000/svg" width="414" height="478" viewBox="0 0 414 478">
    <g fill="none" fill-rule="evenodd">
        <path fill="#FDE889" d="M111.304 278.176c-1.276.565-3.035 2.064-4.868 3.917-1.115-6.89 1.509-13.603 2.729-18.906 14.851.01 47.745-5.363 62.596-5.354-22.265 9.067-38.47 10.625-60.457 20.343m-5.747 4.826c-.495.523-.99 1.06-1.477 1.61-.06-.38.326-.89 1.477-1.61m140.356-39.152a110.05 110.05 0 0 1-28.536-7.542c-4.519-1.879-8.793-4.406-13.1-6.84-4.333-2.449-8.702-4.8-13.388-6.296-6.682-2.135-16.258 2.095-23.188 3.17-16.394 2.539-32.9-2.445-49.413-4.023-16.14-1.545-35.762 1.495-45.978 15.661-12.097 16.768-13.353 44.927-12.977 64.75.427 22.536-.995 40.22.075 64.309.286 6.438 1.784 14.44 5.35 19.808 3.369 5.065 27.183 1.697 35.14.236a75.843 75.843 0 0 0 4.452 9.934c3.528 6.545 6.88 14.294 12.84 18.737 5.96 4.442 16.84 5.538 23.596 2.438 3.446-1.58 6.455-4.794 6.518-8.584.029-1.87-.645-3.67-1.308-5.417-5.344-14.05-10.685-28.1-16.027-42.148-4.828-12.7-4.871-32.603 1.132-44.79 5.041-10.234 23.565-12.349 34.775-14.453 11.21-2.102 19.24-1.366 30.495-3.212 21.768-3.57 42.311-13.418 63.668-22.483 17.655-7.494 28.89-27.302 29.961-43.896-3.13 8.256-37.548 11.457-44.087 10.641"/>
        <path fill="#FBD738" d="M394.275 107.793c-11.277-24.683-32.48-36.165-40.97-56.461-.717-1.717 2.988-5.703 1.13-5.711-4.465-.023-9.889 1.627-9.623 6.413.267 4.783-18.483 27.212-14.432 29.394 5.754 3.098-.88.545 4.81 3.74 5.599 3.145 11.205 6.481 16.037 10.69 2.115 1.839 5.305 5.398 7.484 6.947 1.51 1.073 8.018 3.822 8.018 5.88 0 .415-16.32 6.55-31.641 9.385-11.788 2.183-23.067 1.12-26.073 1.163-8.612.123-8.891 4.611-13.39 5.151-12.445 1.49-20.182 4.902-30.353 5.588-5.085.343-10.253.311-15.202-.824-3.648-.837-10.143-2.593-11.513-6.816-1.608-4.973 2.382-15.084 4.212-19.801 1.353-3.561.267-8.252-1.585-10.637-7.641-9.836-14.104-20.606-19.025-32.052-2.2-5.12-14.157-28.709-13.099-28.759 14.313-.683 25.483-.03 39.674 1.944.906.126 1.894.243 2.676-.23.71-.428 1.077-1.24 1.402-2 4.636-10.828 7.874-21.533 16.14-29.842-2.623 1.701-5.917 1.509-8.941 1.509-5.416.61-10.815 2.108-16.234 2.867a232.812 232.812 0 0 1-31.635 2.241c-6.055.014-12.205-.196-18.06 1.344-5.855 1.539-11.512 5.164-13.834 10.753-2.07 4.983-1.217 10.664.062 15.905 4.914 20.14 14.534 38.607 19.642 58.68 2.188 8.602 5.097 18.904 4.482 27.772-.73 10.537-7.167 19.503-11.704 28.69-8.178 16.565 23.766 38.167-2.695 64.022 1.377 2.79 3.156 11.208 5.223 13.497 14.565 6.069 30.26 8.368 46.505 8.7 12.19.249 42.236-1.764 53.87-8.535-.668-11.78-15.28-22.885-9.594-42.281 6.736-22.974 3.815-25.705 22.238-31.46 15.852-4.952 35.99-9.603 51.674-15.13 11.748-4.143 24.728-9.225 36.538-16.237 3.735-2.217-.41-11.552-2.214-15.499"/>
        <path stroke="#000" stroke-linecap="round" stroke-linejoin="round" stroke-width="3.25" d="M36 221.955c-14.003 5.185-30.334 7.923-33.057 20.487-2.65 12.228 1.087 83.618 1.448 96.41l11.765 3.727s3.217 34.376 8.043 34.376c4.825 0 4.825-23.983 4.825-23.983M276 96.287c12.65 1.834 20.243-4.121 23-10.332 0 0-10.352 21.379-9.61 31M298 64.955l11 1.656M183 214.955c-27.696 21.089-54.68.74-85.745 7.85-32.84 7.517-36.4 42.063-37.5 70.071-.746 19.017-.73 38.069-.516 57.097 0 0-1.248 28.547 1.957 34.16 3.206 5.612 10.418 7.215 14.424 7.215 0 0 8.414-1.202 12.421-2.405 4.007-1.203 7.5 17.437 7.5 17.437-3.096 4.646-10.976 6.26-16.315 6.575-.594.032-6.168-.47-5.998-.879l3.433-8.157-10.258-1.746M231.547 86.904c-.367-.367-23.527-39.402-27.45-55.655 16.484-.483 32.78 2.205 49.263 1.722-1.417-7.7 12.51-27.252 16.64-31.016-27.67 1.465-43.845 6.637-70.804 6.638-10.091-.47-17.593 2.905-19.117 14.283-1.569 11.729 20.774 72.371 25.122 93.211 2.948 14.126-6.222 21.84-12.25 32.684-6.496 11.684 6.435 25.545 8.291 37.691.858 5.61 1.194 11.384-.666 16.836-.913 2.68-2.301 5.159-3.903 7.482-1.804 2.617-5.137 5.225-6.209 8.228-4.517 12.661 31.417 17.279 38.16 16.929"/>
        <path stroke="#000" stroke-width="3.25" d="M274.852 56.839c-2.7 6.85-9.299 10.664-14.74 8.519-5.442-2.145-7.663-9.437-4.964-16.288 2.7-6.848 9.299-10.663 14.74-8.517 5.442 2.145 7.663 9.435 4.964 16.286zM297.95 68.013c-2.648 6.82-9.473 10.53-15.245 8.289-5.77-2.241-8.303-9.587-5.654-16.404 2.647-6.82 9.471-10.532 15.244-8.289 5.77 2.241 8.303 9.586 5.655 16.404z"/>
        <path stroke="#000" stroke-linecap="round" stroke-linejoin="round" stroke-width="3.25" d="M265.05 51.955s-.589 2.714 2.283 4.095c2.015.968 4.235-.325 5.747-1.606 1.492-1.27 2.702-2.6 4.867-1.655 1.16.509 2.174 1.333 2.717 2.476.464.982.544 2.084.573 3.152.088 3.25 2.096 5.174 5.102 6.254 3.432 1.234 5.661-1.953 5.661-1.953M88 177.778c-3.722-16.24-35.731-16.456-38-4.024v37.54c0 6.277 13.768 9.67 17.946 9.661M88 184.955c11.718 2.757 9.33 25.064.756 26M56 176.955s7.01 7.006 24 2.474M278.171 277.955L338 300.483l-68.375 36.472L213 309.6l21.101-8.855M90 177.792c11.024.723 14.053 15.214 13.602 24.163 6.875-1.902 0 0 0 0s34.38-11.122 52.557-14.173c4.543-16.773 12.117-32.022 18.175-47.272 1.515-3.049 6.06-7.623 10.685-6.33L198 138.795"/>
        <path stroke="#000" stroke-linecap="round" stroke-linejoin="round" stroke-width="3.25" d="M194.2 250.564c-23.85 5.222-48.684 18.859-72.38 24.649-12.98 3.173-23.507 10.206-26.223 23.872-2.599 13.084-1.379 26.634-.806 39.854.625 14.418 1.962 28.798 4.872 42.952 2.72 13.213 6.347 29.608 19.625 36.23 8.03 3.204 19.266-3.2 19.266-12.805 0-8.004-3.21-14.408-4.816-20.811-5.722-18.548-3.345-64.168 2.675-69.906 15.397-14.672 43.518-10.964 63.244-15.546 25.394-5.899 72.255-14.321 80.148-43.63 2.818-10.471 1.377-24.392 4.234-34.853 1.44-5.278 12.017-47.959 15.237-47.615 10.53 1.137 86.253 29.181 100.865 33.593.288.087.572.172.859.26M292 125.858c6.631-6.243 20.836-6.508 24.677-6.243 12.064.829 21.486-1.275 32.92-5.046 1.398-.46 19.18-5.124 18.643-5.483-11.787-7.346-18.17-17.937-37.323-25.466-.245-1.837 0-7.102 4.684-14.554 7.012-11.162 14.467-25.11 14.467-25.11 2.863 6.414 5.647 13.299 9.6 19.084 12.985 19.014 38.446 34.775 37.294 60.677 0 0-29.215 14.874-50.82 19.772 0 0-45.302 9.55-52.668 19.466"/>
        <path stroke="#000" stroke-linecap="round" stroke-linejoin="round" stroke-width="3.25" d="M106 281.955c.256-6.377.565-15.71 4.771-17.286 11.53-4.321 26.903-2.75 39.229-4.714"/>
        <path fill="#000" d="M320 21.346a24.224 24.224 0 0 1 18.99-13.233c13.305-1.508 25.326 7.942 26.85 21.11 1.524 13.168-8.024 25.064-21.328 26.574a24.348 24.348 0 0 1-15.612-3.491"/>
        <path stroke="#000" stroke-linecap="round" stroke-linejoin="round" stroke-width="3.25" d="M264 12.955c6.424.172 11.926.539 17 6M256 24.955c3.21 1.752 10 3.284 10 2.955"/>
        <path fill="#000" d="M335.993 36.113c-6.707-14.417-16.87-13.572-28.058-22.272-7.983-6.208-25.293-4.21-33.583.625-5.043 2.941-8.183 7.471-10.23 12.814-2.234 5.824-4.173 11.752-6.122 17.674.721-2.192 3.922-4.024 5.555-5.527 2.788-2.561 7.144-6.91 10.102-9.272 5.649 3.873 15.334 11.897 29.631 14.954l5.68-10.297-.494 11.92c2.549.33 5.18.472 7.903.337 3.15 6.68-8.608 14.325-10.124 28.442-.092.843-3.16 14.687-3.212 15.444.029-.435 7.523-3.301 8.368-3.753 8.816-4.73 16.438-12.126 21.194-21.042 4.507-8.456 7.63-20.938 3.39-30.047"/>
        <path stroke="#000" stroke-linecap="round" stroke-linejoin="round" stroke-width="3.25" d="M152 319.984c33.74-1.075 53.02 27.944 77.12 47.29 1.606 1.612 4.82 1.612 5.88 1.681M140.16 432.144c6.7-3.369 3.35-12.355 6.701-15.727 7.634-7.668 14.884 17.114 15.96 21.505 1.945 6.157-12.488 13.18-16.325 15.825-15.258 10.514-37.842 22.698-56.891 22.193 0 0-3.75.431-3.6-8.048.185-10.578 12.719-17.106 18.933-24.143 4.12-4.665 6.162-7.871 8-17.17 0 0 2.135 4.293 11.202 5.903M55.73 414.955c-4.975 15.254-12.287 16.908-16.03 19.14-4.542 2.709-12.462 6.844-11.64 13.042.266 2.012 1.331 5.75 3.194 6.818 1.731-.133 16.126-4.034 31.417-9.081C76.903 440.18 91.333 433.465 94 431.242"/>
        <path fill="#000" d="M412.978 210.66a2.044 2.044 0 1 1-3.904-1.213 2.044 2.044 0 0 1 3.904 1.213M297.91 294.548a2 2 0 1 1-3.82-1.186 2 2 0 0 1 3.82 1.186"/>
    </g>
</svg>
