<svg xmlns="http://www.w3.org/2000/svg" width="45" height="46" viewBox="0 0 45 46">
    <g fill="none" fill-rule="evenodd">
        <path fill="#000" d="M21.095 45.463c11.651 0 21.095-9.444 21.095-21.095 0-11.65-9.444-21.095-21.095-21.095C9.445 3.273 0 12.718 0 24.368 0 36.02 9.444 45.463 21.095 45.463"/>
        <path fill="#FFF" d="M23.39.924c-11.65 0-21.096 9.43-21.096 21.06 0 11.63 9.445 21.058 21.095 21.058 11.651 0 21.096-9.429 21.096-21.059S35.04.924 23.39.924zm4.622 21.06h-2.968v10.731h-4.447V21.983h-2.224v-3.7h2.224v-2.22c0-3.017 1.254-4.812 4.82-4.812h2.967v3.698H26.53c-1.389 0-1.48.518-1.48 1.483l-.006 1.85h3.362l-.394 3.701z"/>
        <path fill="#000" d="M23.24 1.118c-11.323 0-20.536 9.213-20.536 20.537s9.213 20.537 20.536 20.537c11.324 0 20.536-9.213 20.536-20.537S34.564 1.118 23.24 1.118m0 42.19c-11.94 0-21.654-9.712-21.654-21.653C1.586 9.715 11.3 0 23.24 0s21.654 9.714 21.654 21.654S35.18 43.309 23.24 43.309"/>
    </g>
</svg>
