<svg xmlns="http://www.w3.org/2000/svg" xmlns:xlink="http://www.w3.org/1999/xlink" width="76" height="67" viewBox="0 0 76 67">
    <defs>
        <path id="prefix__a" d="M0.056 0.603L17.775 0.603 17.775 30.554 0.056 30.554z"/>
        <path id="prefix__c" d="M0.158 0.386L22.863 0.386 22.863 66.742 0.158 66.742z"/>
    </defs>
    <g fill="none" fill-rule="evenodd">
        <g transform="translate(58 18)">
            <mask id="prefix__b" fill="#fff">
                <use xlink:href="#prefix__a"/>
            </mask>
            <path fill="#000" d="M4.838 1.45C3.712.32 1.93.32.9 1.45-.225 2.58-.225 4.37.9 5.407l10.125 10.172L.9 25.75c-1.125 1.13-1.125 2.92 0 3.956.562.565 1.312.848 1.968.848.657 0 1.407-.283 1.97-.848l12.094-12.15c1.125-1.13 1.125-2.92 0-3.955L4.838 1.45z" mask="url(#prefix__b)"/>
        </g>
        <g transform="translate(27)">
            <mask id="prefix__d" fill="#fff">
                <use xlink:href="#prefix__c"/>
            </mask>
            <path fill="#000" d="M20.87.507c-1.49-.47-3.075.47-3.447 1.974L.279 63.17c-.466 1.504.466 3.102 1.957 3.478.28.094.466.094.745.094 1.211 0 2.33-.846 2.702-2.068L22.734 3.983c.465-1.502-.373-3.1-1.864-3.476" mask="url(#prefix__d)"/>
        </g>
        <path fill="#000" d="M17.143 19.849c-1.143-1.132-2.952-1.132-4 0L.857 32.019c-1.143 1.132-1.143 2.924 0 3.961l12.286 12.17c.571.567 1.333.85 2 .85s1.428-.283 2-.85c1.143-1.132 1.143-2.924 0-3.962L6.857 34 17.143 23.81c1.143-1.038 1.143-2.83 0-3.962"/>
    </g>
</svg>
