<svg xmlns="http://www.w3.org/2000/svg" width="91" height="67" viewBox="0 0 91 67">
    <g fill-rule="evenodd">
        <path d="M16.044 15.052h52.91V2.948h-52.91v12.104zM14.522 18h55.956c.84 0 1.522-.66 1.522-1.475V1.474C72 .66 71.319 0 70.478 0H14.522C13.682 0 13 .66 13 1.474v15.051c0 .815.681 1.475 1.522 1.475zM29.023 40.05h58.954v-12.1H29.023v12.1zM89.49 25H27.512c-.835 0-1.512.66-1.512 1.476v15.048c0 .815.677 1.476 1.512 1.476H89.49c.835 0 1.511-.661 1.511-1.476V26.476C91 25.66 90.324 25 89.489 25zM16.03 63.052h61.94V50.948H16.03v12.104zM79.484 48h-64.97c-.836 0-1.514.66-1.514 1.474v15.052c0 .814.678 1.474 1.515 1.474h64.97C80.32 66 81 65.34 81 64.526V49.474C81 48.66 80.321 48 79.484 48z"/>
        <path d="M23 33.941H3.067V9.472h4.6l-2.76 3.67 2.452 1.836 4.6-6.118a.692.692 0 00.154-.214 1.527 1.527 0 00-.138-1.529L7.375 1 4.92 2.835l2.745 3.579H1.533A1.53 1.53 0 000 7.944V35.47C0 36.316.686 37 1.533 37H23v-3.059z"/>
    </g>
</svg>
