<svg xmlns="http://www.w3.org/2000/svg" xmlns:xlink="http://www.w3.org/1999/xlink" width="91" height="45" viewBox="0 0 91 45">
    <defs>
        <path id="prefix__a" d="M0 0.573L90.225 0.573 90.225 44.864 0 44.864z"/>
    </defs>
    <g fill="none" fill-rule="evenodd">
        <mask id="prefix__b" fill="#fff">
            <use xlink:href="#prefix__a"/>
        </mask>
        <path fill="#000" d="M89.37 15.94a2.861 2.861 0 01-4.088 0l-2.757-2.767v9.545c0 12.218-9.888 22.146-22.057 22.146-12.17 0-22.153-9.928-22.153-22.146 0-9.068-7.32-16.418-16.352-16.418S5.704 13.65 5.704 22.718v12.027a2.865 2.865 0 01-2.852 2.864C1.33 37.61 0 36.273 0 34.745V22.718C0 10.5 9.887.573 22.057.573c12.17 0 22.057 9.927 22.057 22.145 0 9.068 7.322 16.418 16.354 16.418s16.353-7.35 16.353-16.418v-9.545l-2.758 2.768a2.86 2.86 0 01-4.088 0 2.887 2.887 0 010-4.105l7.7-7.731c.572-.573 1.333-.86 1.998-.86.76 0 1.52.287 1.996.86l7.7 7.731c1.142 1.146 1.142 3.055 0 4.105" mask="url(#prefix__b)"/>
        <path fill="#000" d="M60.5 16a6.5 6.5 0 110 13 6.5 6.5 0 010-13M21.5 16a6.5 6.5 0 110 13 6.5 6.5 0 010-13"/>
    </g>
</svg>
