<svg xmlns="http://www.w3.org/2000/svg" xmlns:xlink="http://www.w3.org/1999/xlink" width="67" height="67" viewBox="0 0 67 67">
    <defs>
        <path id="prefix__a" d="M0 0.476L59.766 0.476 59.766 60.2 0 60.2z"/>
    </defs>
    <g fill="none" fill-rule="evenodd">
        <path fill="#000" d="M29.785 22.951c.726 0 1.452.104 2.178.207l3.32-3.323a16.515 16.515 0 00-5.498-.935c-6.95 0-13.174 4.155-15.87 10.595-2.698 6.44-1.142 13.814 3.734 18.696 4.874 4.882 12.24 6.336 18.67 3.74C42.752 49.228 46.9 42.996 46.9 36.037a16.6 16.6 0 00-.933-5.505l-3.32 3.324c.934 5.297-1.556 10.699-6.224 13.503-4.77 2.805-10.787 2.39-15.04-1.143-4.253-3.531-5.913-9.348-4.046-14.541 1.867-5.194 6.95-8.725 12.448-8.725"/>
        <path fill="#000" d="M31.284 32.103a4.223 4.223 0 00-4.807 1.987 4.438 4.438 0 00.627 5.23c1.358 1.463 3.553 1.672 5.225.626a4.228 4.228 0 001.985-4.81l-.104-.314 19.75-19.764.418-.21 5.225-.417L66.5 7.529l-4.18-.21a3.372 3.372 0 01-3.135-3.136L58.976 0 52.08 6.901l-.418 5.23-.209.313-19.75 19.764-.418-.105z"/>
        <g transform="translate(0 5.6)">
            <mask id="prefix__b" fill="#fff">
                <use xlink:href="#prefix__a"/>
            </mask>
            <path fill="#000" d="M52.708 18.13c5.995 11.267 2.894 25.118-7.236 32.87-10.336 7.753-24.808 6.822-33.904-2.377-9.096-9.2-10.13-23.567-2.274-33.904 7.649-10.13 21.603-13.23 32.87-7.235l2.894-2.894c-10.646-6.306-24.187-5.272-33.8 2.48C1.335 14.927-2.49 28.26 1.645 40.25A29.865 29.865 0 0029.864 60.2a29.912 29.912 0 0026.151-15.401c5.169-9.303 4.962-20.57-.413-29.666l-2.894 2.997z" mask="url(#prefix__b)"/>
        </g>
    </g>
</svg>
