<?xml version="1.0" encoding="utf-8"?>
<!-- Generator: Adobe Illustrator 21.0.0, SVG Export Plug-In . SVG Version: 6.00 Build 0)  -->
<svg version="1.1" id="Layer_1" xmlns="http://www.w3.org/2000/svg" xmlns:xlink="http://www.w3.org/1999/xlink" x="0px" y="0px"
	 viewBox="0 0 87.5 68" style="enable-background:new 0 0 87.5 68;" xml:space="preserve">
<g>
	<g>
		<path d="M29.9,37.6c-9.9,0-18-8.3-18-18.5c0-10.2,8-18.5,18-18.5s18,8.3,18,18.5C47.8,29.3,39.8,37.6,29.9,37.6L29.9,37.6z
			 M29.9,34.3c8.1,0,14.7-6.8,14.7-15.2c0-8.4-6.6-15.2-14.7-15.2s-14.7,6.8-14.7,15.2C15.2,27.5,21.7,34.3,29.9,34.3z M39.7,41.8
			l-0.7-0.5c-2.8,1.4-5.9,2.1-9.1,2.1c-3.2,0-6.3-0.8-9.1-2.1l-16.2,10C2,53,0.5,55.8,0.5,58.8v1.9c0,3.8,3,6.8,6.8,6.8c0,0,0,0,0,0
			h32.4v-3.3H7.2c-1.9,0-3.5-1.6-3.5-3.5v-1.9c0-1.9,1-3.6,2.6-4.6L21,45.1c2.8,1.1,5.8,1.7,8.8,1.7c3.1,0,6-0.6,8.8-1.7l1,0.6
			L39.7,41.8L39.7,41.8z M53.9,46.9c0.6-0.6,0.6-1.7,0-2.3c-0.6-0.6-1.6-0.6-2.3,0l-9.8,9.5c-0.6,0.6-0.7,1.7,0,2.3
			c0,0,0.1,0.1,0.1,0.1l9.8,7.9c0.7,0.6,1.7,0.5,2.3-0.2c0.6-0.7,0.5-1.7-0.2-2.3l-8.4-6.7L53.9,46.9L53.9,46.9z M74.5,46.9
			c-0.7-0.6-0.7-1.6-0.1-2.3c0.6-0.7,1.6-0.7,2.3-0.1c0,0,0,0,0.1,0.1l9.8,9.5c0.6,0.6,0.7,1.7,0,2.3c0,0-0.1,0.1-0.1,0.1l-9.8,7.9
			c-0.7,0.6-1.7,0.5-2.3-0.2c-0.6-0.7-0.5-1.7,0.2-2.3l0,0l8.4-6.7L74.5,46.9L74.5,46.9z M65.4,44.7l-5.5,18.5
			c-0.3,0.8,0.2,1.7,1.1,2c0.8,0.3,1.7-0.2,2-1.1c0,0,0,0,0,0l5.5-18.5c0.3-0.8-0.2-1.7-1.1-2C66.5,43.4,65.7,43.9,65.4,44.7
			C65.4,44.7,65.4,44.7,65.4,44.7z"/>
		<path d="M40.1,68H7.2c-4,0-7.2-3.3-7.2-7.2v-1.9c0-3.2,1.7-6.1,4.4-7.8l16.4-10.1L21,41c2.8,1.4,5.8,2.1,8.9,2.1c0,0,0,0,0,0
			c3.1,0,6.1-0.7,8.8-2.1l0.2-0.1l1.2,0.7v4.9l-1.5-0.9c-2.8,1.1-5.8,1.7-8.8,1.7c0,0,0,0,0,0c-3,0-6-0.6-8.8-1.7l-14.5,9
			c-1.5,0.9-2.4,2.5-2.4,4.3v1.9c0,1.7,1.4,3.1,3.1,3.1h32.9V68z M20.8,41.9l-16,9.9c-2.4,1.5-3.9,4.2-3.9,7v1.9
			c0,3.5,2.8,6.3,6.3,6.3h32v-2.4h-32c-2.2,0-4-1.8-4-4v-1.9c0-2.1,1-3.9,2.8-5L21,44.6l0.2,0.1c2.8,1.1,5.7,1.7,8.6,1.7
			c0,0,0,0,0,0c3,0,5.9-0.6,8.6-1.7l0.2-0.1l0.5,0.3v-2.8l-0.3-0.2c-2.8,1.4-5.9,2.1-9,2.1c0,0,0,0,0,0C26.7,44,23.7,43.3,20.8,41.9
			z M61.4,65.8c-0.2,0-0.4,0-0.6-0.1c-1.1-0.3-1.7-1.5-1.4-2.6L65,44.6c0.2-0.5,0.5-1,1-1.2c0.5-0.3,1-0.3,1.6-0.2
			c1.1,0.3,1.7,1.5,1.4,2.6l-5.5,18.5c-0.2,0.5-0.5,1-1,1.2C62.1,65.7,61.7,65.8,61.4,65.8z M65.4,44.7l0.4,0.1l-5.5,18.5
			c-0.2,0.6,0.2,1.3,0.8,1.5c0.3,0.1,0.6,0.1,0.9-0.1c0.3-0.1,0.5-0.4,0.6-0.7L68,45.5c0.2-0.6-0.2-1.3-0.8-1.5
			C67,44,66.7,44,66.4,44.1c-0.3,0.1-0.5,0.4-0.6,0.7L65.4,44.7z M75.6,65.2c-0.1,0-0.2,0-0.2,0c-0.6-0.1-1-0.3-1.4-0.8
			s-0.5-1-0.4-1.5c0.1-0.6,0.3-1.1,0.8-1.4l8-6.4l-8.1-7.9l0,0c-0.4-0.4-0.6-0.9-0.7-1.4c0-0.6,0.2-1.1,0.6-1.5
			c0.4-0.4,0.9-0.6,1.5-0.7c0.5,0,1.1,0.2,1.5,0.6l0.1,0.1l9.8,9.5c0.4,0.4,0.6,0.9,0.6,1.5c0,0.6-0.2,1.1-0.6,1.5
			c-0.1,0.1-0.1,0.1-0.2,0.2l-9.8,7.9C76.5,65.1,76.1,65.2,75.6,65.2z M75.6,44.5C75.6,44.5,75.5,44.5,75.6,44.5
			c-0.4,0-0.7,0.1-0.9,0.4c-0.2,0.2-0.3,0.5-0.3,0.8c0,0.3,0.1,0.6,0.4,0.8l0,0l8.8,8.6l-8.8,7c-0.2,0.2-0.4,0.5-0.4,0.8
			c0,0.3,0.1,0.6,0.3,0.9c0.2,0.2,0.5,0.4,0.8,0.4c0.3,0,0.6-0.1,0.9-0.3l9.8-7.9c0,0,0.1-0.1,0.1-0.1c0.2-0.2,0.3-0.5,0.3-0.8
			c0-0.3-0.1-0.6-0.4-0.8l-9.8-9.5C76.2,44.6,75.9,44.5,75.6,44.5z M52.7,65.2c-0.5,0-0.9-0.2-1.3-0.5l-9.8-7.9
			c-0.1-0.1-0.1-0.1-0.2-0.2c-0.4-0.4-0.6-0.9-0.6-1.5c0-0.6,0.2-1.1,0.6-1.5l9.8-9.5c0.8-0.8,2.1-0.8,2.9,0
			c0.4,0.4,0.6,0.9,0.6,1.5s-0.2,1.1-0.6,1.5l0,0l-8.1,7.9l8,6.4c0.4,0.3,0.7,0.8,0.8,1.4c0.1,0.6-0.1,1.1-0.4,1.5s-0.8,0.7-1.4,0.8
			C52.9,65.2,52.8,65.2,52.7,65.2z M52.7,44.6c-0.3,0-0.6,0.1-0.8,0.3l-9.8,9.5c-0.2,0.2-0.4,0.5-0.4,0.8c0,0.3,0.1,0.6,0.3,0.8
			c0,0,0.1,0.1,0.1,0.1l9.8,7.9c0.2,0.2,0.6,0.3,0.9,0.3c0.3,0,0.6-0.2,0.8-0.4c0.2-0.2,0.3-0.6,0.3-0.9c0-0.3-0.2-0.6-0.4-0.8
			l-8.8-7l8.8-8.6l0,0c0.2-0.2,0.3-0.5,0.3-0.8c0-0.3-0.1-0.6-0.4-0.8C53.3,44.7,53,44.6,52.7,44.6z M29.9,38L29.9,38
			c-10.2,0-18.4-8.5-18.4-19c0-5.1,1.9-9.8,5.4-13.4c3.5-3.6,8.1-5.6,13-5.6c10.2,0,18.4,8.5,18.4,19C48.3,29.5,40,38,29.9,38z
			 M29.9,1c-4.7,0-9.1,1.9-12.4,5.3c-3.3,3.4-5.1,7.9-5.1,12.8c0,10,7.9,18.1,17.5,18.1l0,0c0,0,0,0,0,0c4.7,0,9.1-1.9,12.4-5.3
			c3.3-3.4,5.1-7.9,5.1-12.8C47.4,9.1,39.5,1,29.9,1z M29.9,34.8c-8.4,0-15.2-7-15.2-15.7c0-8.7,6.8-15.7,15.2-15.7
			c8.4,0,15.2,7,15.2,15.7C45,27.7,38.2,34.8,29.9,34.8z M29.9,4.3c-7.9,0-14.3,6.6-14.3,14.8c0,8.2,6.4,14.8,14.3,14.8
			c7.9,0,14.3-6.6,14.3-14.8C44.1,10.9,37.7,4.3,29.9,4.3z"/>
	</g>
</g>
</svg>
