<?xml version="1.0" encoding="utf-8"?>
<!-- Generator: Adobe Illustrator 21.0.0, SVG Export Plug-In . SVG Version: 6.00 Build 0)  -->
<svg version="1.1" id="Layer_1" xmlns="http://www.w3.org/2000/svg" xmlns:xlink="http://www.w3.org/1999/xlink" x="0px" y="0px"
	 viewBox="0 0 275.2 186.8" style="enable-background:new 0 0 275.2 186.8;" xml:space="preserve">
<path d="M60.5,28.3c0.5,0.2,0.9,0.2,1.5,0.1c2.2-0.3,3.4-1.9,5.3-6.8c5.8-1.8,9.9-2.2,12.5-4.7c0.1-0.1,0.1-0.2,0.2-0.3
	c0.1-0.3,0-0.8-0.4-0.9c-0.2-0.1-0.5,0-0.7,0.1c-2.4,2.3-6.6,2.7-11.1,4.1c0.8-2.1,1.6-4.5,2.2-6.3c0.1-0.4,0.3-0.7,0.4-1
	s0-0.7-0.4-0.8c-0.3-0.1-0.7-0.1-0.8,0.3c-2.6,4.7-5.5,7.1-7.5,6.4c-1.9-0.7-2.8-3.9-1.9-7.1c4.3,0.7,10.5-0.8,12.1-5.1
	c1-2.8-0.1-5.4-2-6.1c-3-1.1-8.3,2.1-10.9,9.2c-0.1,0.2-0.1,0.3-0.1,0.5l-0.3-0.1c-0.9-0.3-1.3-0.6-1.1-1.3c0.1-0.3-0.1-0.7-0.4-0.8
	c-0.3-0.1-0.7,0.1-0.8,0.4c-0.6,1.6,0.4,2.5,2.3,3.2c-1,4,0.2,7.8,2.7,8.7c2.1,0.8,4.2-0.4,6.3-2.6l-1.3,3.1c-3.5,1-6.6,2.3-7.4,4.4
	C58.4,26.5,59.3,27.9,60.5,28.3z M60.2,10.2c0-0.1,0.1-0.3,0.1-0.4c1.5-4.1,3.9-6.3,5.1-7.3c1.5-1.1,3-1.5,4.1-1.1
	c1.2,0.4,1.9,2.4,1.2,4.5c-0.4,1.1-1.2,2.2-2.6,2.9C65.8,10,62.5,10.6,60.2,10.2L60.2,10.2z M61,27.1c-0.6-0.2-1.1-0.9-0.8-1.8
	c0.5-1.4,2.8-2.4,5.5-3.2c-0.7,1.8-1.4,3.3-2,3.9C62.7,27.1,61.7,27.3,61,27.1z M77.4,25.7c0.4,0.1,0.7,0,0.8-0.4
	c0.8-2,3.3-6.2,5.4-8.5c0.5,2.2,1.7,4.2,3.8,5c1.7,0.6,3.2,0.2,4.8-0.3c0.2,0,0.4-0.2,0.5-0.4c0.1-0.4-0.1-0.8-0.4-0.9
	c-0.6-0.2-2.8,0.8-4.4,0.2c-2.4-0.9-2.4-4.7-3.6-5.2c-1.4-0.5-3.4,2.9-4.3,4.2c0.2-0.9,0.4-2,0.6-2.9c0.1-0.4,0-0.7-0.4-0.9
	c-0.4-0.1-0.8,0-0.9,0.4c-0.7,3.9-2.2,8.6-2.2,8.7C76.9,25.3,77,25.6,77.4,25.7z M92.1,31.1c3.2,1.2,8-3.3,10.3-5.4
	c0.5-0.4,0.5-0.5,0.6-0.6c0.1-0.3,0-0.7-0.4-0.9c-0.2-0.1-0.5,0-0.7,0.1c-2.7,2.6-7.1,6.4-9.4,5.6c-0.9-0.3-1.3-1.4-1.2-2.7
	c1.9-1.9,3.1-3.6,3.5-4.9c0.6-1.9,0.1-3-0.6-3.2c-1.3-0.5-2.3,1-3.1,3.1C89.8,25.9,89.2,30.1,92.1,31.1L92.1,31.1z M91.6,24.9
	c0.1-0.5,0.3-1.1,0.5-1.6c0.5-1.3,0.9-2.4,1.6-2.9c0.1,0.1,0.1,0.6-0.1,1.5C93.3,22.7,92.6,23.7,91.6,24.9L91.6,24.9z M107.4,36.7
	c3.2,1.2,8-3.3,10.3-5.4c0.5-0.4,0.5-0.5,0.6-0.6c0.1-0.3,0-0.7-0.4-0.9c-0.2-0.1-0.5,0-0.7,0.1c-2.7,2.6-7.2,6.4-9.4,5.6
	c-1.9-0.7-1.1-4.4-0.6-5.7c0.1-0.3,0-0.6-0.4-0.8c-0.3-0.1-0.7,0-0.8,0.3c-0.7,1.3-2.5,4.6-4.2,4c-1.5-0.5-1.5-2.3-0.8-4.2
	c0.9-2.5,3-4.9,4.5-4.4c0.8,0.3,1.1,1.3,0.9,2.7c-0.1,0.3,0.1,0.6,0.4,0.7c0.4,0.2,0.7-0.1,0.8-0.4c0.6-1.5,0-3.6-1.6-4.2
	c-2.5-0.9-5.1,1.8-6.2,4.9c-0.9,2.6-0.8,5.3,1.5,6.2c1.6,0.6,3.1-0.6,4-1.7C105.2,34.4,105.8,36.1,107.4,36.7L107.4,36.7z
	 M117.8,40.5c3.2,1.2,8-3.3,10.3-5.4c0.5-0.4,0.5-0.5,0.6-0.6c0.1-0.3,0-0.7-0.4-0.9c-0.2-0.1-0.5,0-0.7,0.1
	c-2.7,2.6-7.1,6.4-9.4,5.6c-1.8-0.6-0.4-6.2,0.5-8.6c1.1-0.8,3.1-3.1,4.4-5.8l2.5,0.6c0.4,0.1,0.7-0.1,0.8-0.4
	c0.1-0.3,0-0.7-0.4-0.8l-2.3-0.5c0.1-0.2,0.2-0.3,0.2-0.5c0.4-1.1,1.4-4.4-0.1-5c-1.1-0.4-2.3,1.6-3.6,4.7l-2.4-0.6
	c-0.4-0.1-0.7,0.1-0.8,0.4c-0.1,0.3,0,0.7,0.5,0.9l2.2,0.5c-0.4,1.2-0.9,2.3-1.3,3.5l-0.4,1C116.9,31.7,114.3,39.2,117.8,40.5
	L117.8,40.5z M119.8,27.6c0.3-0.9,0.7-2,1.2-3.2l0.8,0.2C121.2,25.7,120.6,26.7,119.8,27.6L119.8,27.6z M123.3,19.7
	c0,0.5-0.1,1.5-0.7,3.3l-0.1,0.3l-0.8-0.2c0.4-1,0.9-1.9,1.4-2.9L123.3,19.7z M134.1,46.4c3.2,1.2,8-3.3,10.3-5.4
	c0.5-0.4,0.5-0.5,0.6-0.6c0.1-0.3,0-0.7-0.4-0.9c-0.2-0.1-0.5,0-0.7,0.1c-2.7,2.6-7.1,6.4-9.4,5.6c-1.8-0.7-1.3-4-0.4-6.6
	c0.5-1.3,0.9-2.4,1.6-2.9c0.1,0.1,0.1,0.6-0.1,1.4c-0.1,0.3,0.1,0.7,0.4,0.8c0.3,0.1,0.7-0.1,0.8-0.4c0.6-1.9,0.1-2.9-0.6-3.1
	c-1.3-0.5-2.3,1-3.1,3.1C131.8,41.2,131.3,45.4,134.1,46.4L134.1,46.4z M143.8,49.9c3,1.1,5.5-3,6.4-5.3c1.6,0.6,3.8,1,5.7,0.2
	c0.2-0.1,0.3-0.2,0.4-0.4c0.1-0.3-0.1-0.8-0.4-0.9c-0.6-0.2-2.3,0.9-4.9,0l-0.4-0.2c0.3-1.7,0-3.7-1.7-4.3c-1.1-0.4-2.5,0-2.9,1.1
	c-0.6,2,1.7,3.2,3.1,3.9c-0.6,1.8-2.8,5.4-4.7,4.6c-2-0.7-1.6-3.4-1.1-5c0.4-1.2,1.1-2.4,2-3c0.1-0.1,0.2-0.1,0.2-0.2
	c0.1-0.4,0-0.7-0.4-0.9c-1-0.3-2.6,2.2-3.1,3.6C141.1,45.6,141.1,49,143.8,49.9L143.8,49.9z M149.4,42.8c-0.8-0.4-2.5-1.3-2.2-2.2
	c0.1-0.4,0.6-0.5,1.2-0.3C149.4,40.6,149.5,41.9,149.4,42.8L149.4,42.8z M156.7,44.5c0.1-0.4,0-0.7-0.4-0.9c-0.4-0.1-0.8,0-0.9,0.4
	c-0.7,3.9-2.2,8.6-2.2,8.7c-0.1,0.4,0.1,0.7,0.4,0.8c0.4,0.1,0.7,0,0.8-0.4c1.1-2,3.9-7,5.5-8.5c0,2.5-1,7.6-1.8,9.8
	c-0.1,0.6,0.3,0.8,0.5,0.9c0.3,0.1,0.7,0,0.8-0.4c0.8-2,2.9-5.9,5-8.1c-0.6,3.4-2.1,9.9,0.9,11c3.2,1.2,8-3.3,10.3-5.4
	c0.5-0.4,0.5-0.5,0.6-0.6c0.1-0.3,0-0.7-0.4-0.9c-0.2-0.1-0.5,0-0.7,0.1c-2.7,2.6-7.1,6.4-9.4,5.6c-1.4-0.5-0.9-4.1-0.4-7.1
	c0.4-2.2,1-4,0-4.4c-1.4-0.5-3.8,3.4-4.7,4.7c0.3-1.4,1.6-5.9-0.2-6.5c-1.4-0.5-3.7,3.4-4.5,4.6l-0.1,0.1l0.1-0.3
	C156.2,46.8,156.5,45.3,156.7,44.5L156.7,44.5z M170.9,68.6c1,0.3,1.7-0.8,2.3-2.5c0.8-2.2,1.4-5.2,1.6-6c1.2,1.1,2.5,1.8,3.8,2.3
	c5.5,2,9.5-1.2,12.5-5.2c0.1,0,0.1-0.1,0.1-0.1c0.1-0.3,0.1-0.6-0.2-0.8c-0.1-0.1-0.1-0.1-0.2-0.1c-0.3-0.1-0.6,0-0.8,0.3
	c-3,4-6.6,6.4-11.2,4.7c2.5-0.8,4.3-2.9,5-5c0.8-2.1,0.3-4.6-1.9-5.4c-1.6-0.6-3.6,0.2-5.6,2.4c0.1-0.8,0.3-1.5,0.3-1.5
	c0.1-0.3-0.1-0.6-0.4-0.8c-0.4-0.1-0.7,0.1-0.8,0.4v0.1c-0.3,1.3-0.6,2.6-0.8,3.8c-1.5,2.1-2.9,4.7-3.8,7
	C170.3,63.6,169,67.9,170.9,68.6z M176.8,59.8c-0.6-0.2-1.4-0.7-1.6-1.3l0.6-2.8c1.2-1.5,3.7-4.5,5.8-3.8c1.5,0.8,1.6,2.3,1.1,3.7
	C181.9,57.9,179.2,60.7,176.8,59.8z M171.3,67.1c-0.2-0.7-0.1-2.1,0.7-4.3c0.5-1.2,1.2-2.7,1.8-3.8c-0.5,1.9-0.9,3.9-1.7,6.2
	C171.9,65.8,171.6,66.4,171.3,67.1L171.3,67.1z M195.6,68.8c3.2,1.2,8-3.3,10.3-5.4c0.5-0.4,0.5-0.6,0.6-0.6c0.1-0.3,0-0.7-0.4-0.9
	c-0.2-0.1-0.5,0-0.7,0.1c-2.7,2.6-7.2,6.4-9.4,5.6c-1.9-0.7-1.1-4.4-0.6-5.8c0.1-0.3,0-0.6-0.4-0.8c-0.3-0.1-0.7,0-0.8,0.3
	c-0.7,1.3-2.5,4.6-4.2,4c-1.5-0.5-1.5-2.3-0.8-4.2c0.9-2.5,3-4.9,4.5-4.4c0.8,0.3,1.1,1.3,0.9,2.7c-0.1,0.3,0.1,0.6,0.4,0.7
	c0.4,0.2,0.7-0.1,0.8-0.4c0.6-1.5,0-3.6-1.6-4.2c-2.5-0.9-5.1,1.8-6.2,4.9c-0.9,2.6-0.8,5.3,1.5,6.2c1.6,0.6,3.1-0.6,4-1.7
	C193.4,66.5,194,68.2,195.6,68.8L195.6,68.8z M210.5,74.2c3.2,1.2,8-3.3,10.3-5.4c0.5-0.4,0.5-0.6,0.6-0.6c0.1-0.3,0-0.7-0.4-0.9
	c-0.2-0.1-0.5,0-0.7,0.1c-2.7,2.6-7.1,6.4-9.4,5.6c-1.4-0.5-0.9-4.1-0.4-7.1c0.4-2.2,1-4,0-4.4c-1.4-0.5-3.4,2.9-4.3,4.2
	c0.2-0.9,0.5-2,0.6-2.9c0.1-0.4,0-0.7-0.4-0.9c-0.4-0.1-0.8,0-0.9,0.4c-0.7,3.9-2.2,8.6-2.2,8.7c-0.1,0.4,0.1,0.7,0.4,0.8
	c0.4,0.1,0.7,0,0.8-0.4c0.8-2,2.9-5.9,5-8.1C209.1,66.7,207.5,73.1,210.5,74.2L210.5,74.2z M222.9,63c0.6,0.2,0.9-0.3,1-0.7
	c0.2-0.5,0.2-1.2-0.4-1.4c-0.4-0.1-0.7,0.1-0.8,0.4s0,0.4,0,0.5s-0.1,0.1-0.2,0.3C222.4,62.5,222.4,62.9,222.9,63L222.9,63z
	 M220.9,78c3.2,1.2,8-3.3,10.3-5.4c0.5-0.4,0.5-0.6,0.6-0.6c0.1-0.3,0-0.7-0.4-0.9c-0.2-0.1-0.5,0-0.7,0.1c-2.7,2.6-7.1,6.4-9.4,5.6
	c-2.3-0.8-0.7-5.6-0.2-7c0.2-0.5,0.4-1.1,0.6-1.6c0.1-0.4,0-0.7-0.4-0.9c-0.3-0.1-0.7,0-0.9,0.4c-0.2,0.5-0.4,1.1-0.6,1.6
	C219,71.9,217.6,76.8,220.9,78L220.9,78z M231.3,81.8c3.2,1.2,8-3.3,10.3-5.4c0.5-0.4,0.5-0.6,0.6-0.6c0.1-0.3,0-0.7-0.4-0.9
	c-0.2-0.1-0.5,0-0.7,0.1c-2.7,2.6-7.1,6.4-9.4,5.6c-0.9-0.3-1.3-1.4-1.2-2.7c1.9-1.9,3.1-3.6,3.5-4.9c0.6-1.9,0.1-3-0.6-3.2
	c-1.3-0.5-2.3,1-3.1,3.1C229,76.6,228.5,80.7,231.3,81.8L231.3,81.8z M230.9,75.5c0.1-0.6,0.3-1.1,0.5-1.6c0.5-1.3,0.9-2.4,1.6-2.9
	c0.1,0.1,0.1,0.6-0.1,1.5C232.5,73.4,231.9,74.4,230.9,75.5L230.9,75.5z M239.7,84.9c2.4,0.9,5.8,0.5,6.8-2.1c0.2-0.5,0.2-1,0.1-1.6
	c1.2,0,2.4,0.1,3.5,0c1.5-0.1,2.6-0.5,3.5-1c0.1-0.1,0.2-0.2,0.2-0.3c0.1-0.2,0.1-0.4-0.1-0.6c-0.2-0.3-0.6-0.4-0.9-0.2
	c0,0,0,0-0.1,0c-1.4,0.9-4.1,0.9-6.7,0.7c-0.9-1.4-2.2-2.6-2.9-4.1c1.3-0.8,2.3-1.7,2.8-3c0.3-0.9,0.2-2-0.7-2.3
	c-1.9-0.7-3.1,2-3.5,3.2c-0.8,2.2,1.4,4.7,2.7,6.1c-2.1-0.1-6.2-0.1-7,2.1C236.8,83.4,238.6,84.5,239.7,84.9L239.7,84.9z
	 M242.9,74.4c0-0.1,0-0.2,0-0.2c0.2-0.6,1.1-2.7,1.8-2.4c0.2,0.1,0,0.5,0,0.6C244.5,72.9,243.9,73.6,242.9,74.4L242.9,74.4z
	 M240.2,83.7c-0.4-0.2-1.8-0.7-1.6-1.3c0.5-1.4,5.5-1.2,6.5-1.2c0.2,0.5,0.2,0.9,0.1,1.2C244.5,84.4,241.6,84.2,240.2,83.7
	L240.2,83.7z M250.1,91.8c1.2,0.3,2.3-0.9,2.7-1.9s0.1-2.6-0.9-3c-0.3-0.1-0.8,0.1-0.9,0.4c-0.1,0.3,0,0.6,0.2,0.8
	c0.3,0.2,0.5,0.8,0.3,1.3c-0.2,0.6-0.6,1.1-1.3,1.2c-0.2,0-0.5,0.2-0.5,0.4C249.6,91.3,249.8,91.6,250.1,91.8L250.1,91.8z
	 M142.5,95.6c1.5,0.5,3.2-0.4,4.6-1.9c0.9-1,1.6-2.2,2.2-3.4c5.8-1.8,10.5-3.6,13.2-6.1c0.1-0.1,0.1-0.2,0.2-0.3
	c0.1-0.3,0-0.8-0.4-0.9c-0.2-0.1-0.5,0-0.7,0.1c-2.4,2.3-7,4-11.5,5.5c1-2.3,1.9-4.6,2.7-6.9c0.3-0.7,0.5-1.5,0.8-2.4
	c0.1-0.3-0.1-0.7-0.4-0.8c-0.4-0.1-0.7,0-0.8,0.3c-2.9,5.9-5.2,8.2-6.3,7.7c-1.1-0.4-0.4-3.1,0.4-5.2c0.4-1.2,0.8-2.1,1.3-2.9
	c0.1-0.4,0-0.7-0.4-0.8c-0.3-0.1-0.7,0-0.9,0.4c-0.5,1-0.9,2-1.3,3.1c-1,2.7-1.6,6,0.5,6.8c1.6,0.6,3-0.8,4.2-2.2
	c-0.5,1.3-1.1,2.6-1.6,3.6c-2.6,0.9-5.9,1.6-6.9,4.3C141.3,94.4,141.6,95.3,142.5,95.6L142.5,95.6z M142.9,94.3
	c-0.3-0.1-0.2-0.4-0.2-0.5c0.6-1.5,3.5-2.4,4.7-2.9C146.7,92.5,144.4,94.9,142.9,94.3L142.9,94.3z M161.4,93.6c3,1.1,5.5-3,6.4-5.3
	c1.6,0.6,3.8,1,5.7,0.2c0.2-0.1,0.3-0.2,0.4-0.4c0.1-0.3-0.1-0.8-0.4-0.9c-0.6-0.2-2.3,0.9-4.9-0.1l-0.4-0.2c0.3-1.7,0-3.7-1.7-4.3
	c-1.1-0.4-2.5,0-2.9,1.1c-0.6,2,1.7,3.2,3.1,3.9c-0.6,1.8-2.8,5.4-4.7,4.6c-2-0.7-1.6-3.4-1.1-5c0.4-1.2,1.1-2.4,2-3
	c0.1-0.1,0.2-0.1,0.2-0.2c0.1-0.4,0-0.7-0.4-0.9c-1-0.3-2.6,2.2-3.1,3.6C158.7,89.2,158.7,92.6,161.4,93.6L161.4,93.6z M167,86.4
	c-0.8-0.4-2.5-1.3-2.2-2.2c0.1-0.4,0.6-0.5,1.2-0.3C167,84.3,167.1,85.5,167,86.4z M179.4,100.1c3.2,1.2,8-3.3,10.3-5.4
	c0.5-0.4,0.5-0.6,0.6-0.6c0.1-0.3,0-0.7-0.4-0.9c-0.2-0.1-0.5,0-0.7,0.1c-2.7,2.6-7.1,6.4-9.4,5.6c-2.6-0.9-0.3-7.8,0.3-9.9
	c0.1-0.3-0.1-0.7-0.4-0.8c-0.3-0.1-0.7,0-0.8,0.3c-2.9,5.9-5.2,8.2-6.3,7.7c-1.1-0.4-0.4-3.1,0.4-5.2c0.4-1.2,0.8-2.1,1.3-2.9
	c0.1-0.4,0-0.7-0.4-0.8c-0.3-0.1-0.7,0-0.9,0.4c-0.5,1-0.9,2-1.3,3.1c-1,2.7-1.6,6,0.5,6.8c2.2,0.8,4.3-2.2,5.3-3.8
	C177.2,95.9,176.9,99.2,179.4,100.1L179.4,100.1z M193.7,105.4c2.4,0.9,5.8,0.5,6.8-2.1c0.2-0.5,0.2-1,0.1-1.6c1.2,0,2.4,0.1,3.5,0
	c1.5-0.1,2.6-0.5,3.5-1c0.1-0.1,0.2-0.2,0.2-0.3c0.1-0.2,0.1-0.4-0.1-0.6c-0.2-0.3-0.6-0.4-0.9-0.2l0,0c-1.4,0.9-4.1,0.9-6.7,0.7
	c-0.9-1.4-2.2-2.6-2.9-4.1c1.3-0.8,2.3-1.7,2.8-2.9c0.3-0.9,0.2-2-0.7-2.3c-1.9-0.7-3.1,2-3.5,3.2c-0.8,2.2,1.4,4.7,2.7,6.1h-0.4
	c-2.2-0.1-5.9,0-6.6,2.1C190.8,103.9,192.6,105,193.7,105.4L193.7,105.4z M196.9,94.9c0-0.1,0-0.2,0-0.2c0.2-0.6,1.1-2.7,1.8-2.4
	c0.2,0.1,0,0.5,0,0.6C198.5,93.4,197.9,94.1,196.9,94.9z M194.2,104.2c-0.4-0.2-1.8-0.7-1.6-1.3c0.5-1.4,5.5-1.2,6.5-1.2
	c0.2,0.5,0.2,0.9,0.1,1.2C198.5,104.9,195.6,104.7,194.2,104.2L194.2,104.2z M211.3,111.7c3.2,1.2,8-3.3,10.3-5.4
	c0.5-0.4,0.5-0.6,0.6-0.6c0.1-0.3,0-0.7-0.4-0.9c-0.2-0.1-0.5,0-0.7,0.1c-2.7,2.6-7.1,6.4-9.4,5.6c-1.4-0.5-0.9-4.1-0.4-7.1
	c0.4-2.2,1-4,0-4.4c-1.2-0.4-2.7,1.8-3.8,3.4l0.7-2c2.6-2.5,4-5.3,4.7-7.1c0.5-1.5,1.6-4.9,0.2-5.4c-1.3-0.5-2.5,2.2-3.6,5.3
	l-3.4,9.3c-0.7,1.9-1.4,4-1.9,6c-0.1,0.3,0.1,0.7,0.4,0.8s0.7,0,0.8-0.4c0.8-2,2.9-5.9,5-8.1C209.8,104.2,208.3,110.6,211.3,111.7
	L211.3,111.7z M209.6,96.7c0.9-2.5,1.8-4.9,2.8-7c-0.1,0.9-0.3,1.7-0.8,3.1S210.4,95.5,209.6,96.7z M221,115.3c3,1.1,5.5-3,6.4-5.3
	c1.6,0.6,3.8,1,5.7,0.2c0.2-0.1,0.3-0.2,0.4-0.4c0.1-0.3-0.1-0.8-0.4-0.9c-0.6-0.2-2.3,0.9-4.9-0.1l-0.4-0.2c0.3-1.7,0-3.7-1.7-4.3
	c-1.1-0.4-2.5,0-2.9,1.1c-0.6,2,1.7,3.2,3.1,3.9c-0.6,1.8-2.8,5.4-4.7,4.6c-2-0.7-1.6-3.4-1.1-5c0.4-1.2,1.1-2.4,2-3
	c0.1-0.1,0.2-0.1,0.2-0.2c0.1-0.4,0-0.7-0.4-0.9c-1-0.3-2.6,2.2-3.1,3.6C218.2,110.9,218.3,114.3,221,115.3L221,115.3z M226.5,108.1
	c-0.8-0.4-2.5-1.3-2.2-2.2c0.1-0.4,0.6-0.5,1.2-0.3C226.6,106,226.7,107.2,226.5,108.1L226.5,108.1z M239,121.8
	c3.2,1.2,8-3.3,10.3-5.4c0.5-0.4,0.5-0.6,0.6-0.6c0.1-0.3,0-0.7-0.4-0.9c-0.2-0.1-0.5,0-0.7,0.1c-2.7,2.6-7.1,6.4-9.4,5.6
	c-2.6-0.9-0.3-7.8,0.3-9.9c0.1-0.3-0.1-0.7-0.4-0.8c-0.3-0.1-0.7,0-0.8,0.3c-2.9,5.9-5.2,8.2-6.3,7.7c-1.1-0.4-0.4-3.1,0.4-5.2
	c0.4-1.2,0.8-2.1,1.3-2.9c0.1-0.4,0-0.7-0.4-0.8c-0.3-0.1-0.7,0-0.9,0.4c-0.5,1-0.9,2-1.3,3.1c-1,2.7-1.6,6,0.5,6.8
	c2.2,0.8,4.3-2.2,5.3-3.8C236.7,117.6,236.5,120.9,239,121.8L239,121.8z M249.4,125.6c3.2,1.2,8-3.3,10.3-5.4
	c0.5-0.4,0.5-0.6,0.5-0.6c0.1-0.3,0-0.7-0.4-0.9c-0.2-0.1-0.5,0-0.7,0.1c-2.7,2.6-7.1,6.4-9.4,5.6c-1.8-0.6-0.4-6.2,0.5-8.6
	c1.4-1,4-4.2,5.2-7.5c0.4-1.1,1.4-4.4-0.1-5s-3.4,3.9-5.5,9.5l-0.4,1.1C248.4,117.1,246,124.4,249.4,125.6L249.4,125.6z
	 M251.4,112.8c0.8-2.2,2.1-5.5,3.5-7.9c0,0.5-0.1,1.5-0.7,3.3C253.5,109.8,252.5,111.4,251.4,112.8L251.4,112.8z M258.5,129
	c1.5,0.6,3.3-0.8,4.1-1.8c-0.1,1.9,0.4,3.4,1.8,3.9c3.2,1.2,8-3.3,10.3-5.4c0.5-0.4,0.5-0.6,0.5-0.6c0.1-0.3,0-0.7-0.4-0.9
	c-0.2-0.1-0.5,0-0.7,0.1c-2.7,2.6-7.1,6.4-9.4,5.6c-1.8-0.6-0.4-6.2,0.5-8.6c1.4-1,4-4.2,5.2-7.5c0.4-1.1,1.4-4.4-0.1-5
	s-3.4,3.9-5.5,9.5l-0.3,0.8c-0.3-0.5-0.8-0.9-1.4-1.2c-2.5-0.9-5.1,1.8-6.2,4.9C256,125.4,256.2,128.1,258.5,129L258.5,129z
	 M266.3,118.2c0.8-2.2,2.1-5.5,3.5-7.9c0,0.5-0.1,1.5-0.7,3.3C268.5,115.2,267.5,116.8,266.3,118.2z M258.9,127.7
	c-1.5-0.5-1.5-2.3-0.8-4.2c0.9-2.5,3-4.9,4.5-4.4c1.8,0.7,0.9,3.6,0.5,4.7C262.6,125.2,260.7,128.3,258.9,127.7L258.9,127.7z
	 M49.1,90c3.2,1.2,8-3.3,10.3-5.4c0.5-0.4,0.5-0.5,0.5-0.6c0.1-0.3,0-0.7-0.4-0.9c-0.2-0.1-0.5,0-0.7,0.1c-2.7,2.6-7.1,6.4-9.4,5.6
	c-1.8-0.7-1.3-4-0.4-6.6c0.5-1.3,0.9-2.4,1.6-2.9c0.1,0.1,0.1,0.6-0.1,1.4c-0.1,0.3,0.1,0.7,0.4,0.8c0.3,0.1,0.7-0.1,0.8-0.4
	c0.6-1.9,0.1-2.9-0.6-3.1c-1.3-0.5-2.3,1-3.1,3.1C46.8,84.8,46.2,88.9,49.1,90z M63.5,95.2c3.2,1.2,8-3.3,10.3-5.4
	c0.5-0.4,0.5-0.6,0.6-0.6c0.1-0.3,0-0.7-0.4-0.9c-0.2-0.1-0.5,0-0.7,0.1c-2.7,2.6-7.1,6.4-9.4,5.6c-1.4-0.5-0.9-4.1-0.4-7.1
	c0.4-2.2,1-4,0-4.4c-1.2-0.4-2.7,1.8-3.8,3.4l0.7-2c2.6-2.5,4-5.3,4.7-7.1c0.5-1.5,1.6-4.9,0.2-5.4c-1.3-0.5-2.5,2.2-3.6,5.3
	L58.3,86c-0.7,1.9-1.4,4-2,6c-0.1,0.3,0.1,0.7,0.4,0.8c0.3,0.1,0.7,0,0.8-0.4c0.8-2,2.9-5.9,5-8.1C62.1,87.7,60.5,94.1,63.5,95.2z
	 M61.9,80.2c0.9-2.5,1.8-4.9,2.8-7c-0.1,0.9-0.3,1.7-0.8,3.1C63.4,77.7,62.7,79,61.9,80.2z M73.9,99c3.2,1.2,8-3.3,10.3-5.4
	c0.5-0.4,0.5-0.6,0.6-0.6c0.1-0.3,0-0.7-0.4-0.9c-0.2-0.1-0.5,0-0.7,0.1c-2.7,2.6-7.1,6.4-9.4,5.6c-0.9-0.3-1.3-1.4-1.2-2.7
	c1.9-1.9,3.1-3.6,3.5-4.9c0.6-1.9,0.1-3-0.6-3.2c-1.3-0.5-2.3,1-3.1,3.1C71.6,93.8,71,97.9,73.9,99z M73.4,92.7
	c0.1-0.6,0.3-1.1,0.5-1.6c0.5-1.3,0.9-2.4,1.6-2.9c0.1,0.1,0.1,0.6-0.1,1.5C75.1,90.6,74.4,91.6,73.4,92.7L73.4,92.7z M84.3,102.8
	c3.2,1.2,8-3.3,10.3-5.4c0.5-0.4,0.5-0.6,0.6-0.6c0.1-0.3,0-0.7-0.4-0.9c-0.2-0.1-0.5,0-0.7,0.1c-2.7,2.6-7.1,6.4-9.4,5.6
	c-1.8-0.7-1.3-4-0.4-6.6c0.5-1.3,0.9-2.4,1.6-2.9c0.1,0.1,0.1,0.6-0.1,1.4c-0.1,0.3,0.1,0.7,0.4,0.8c0.3,0.1,0.7-0.1,0.8-0.4
	c0.6-1.9,0.1-2.9-0.6-3.1c-1.3-0.5-2.3,1-3.1,3.1C82,97.6,81.4,101.7,84.3,102.8z M95.2,106.7c3.2,1.2,8-3.3,10.3-5.4
	c0.5-0.4,0.5-0.6,0.6-0.6c0.1-0.3,0-0.7-0.4-0.9c-0.2-0.1-0.5,0-0.7,0.1c-2.7,2.6-7.1,6.4-9.4,5.6c-1.1-0.4-1.2-1.7-1.2-2.6
	c1.9-0.9,3.6-2.2,4.3-4.1c0.5-1.4,0.2-3.2-1.4-3.8c1.6-1.9,2.6-3.9,3.1-5.3c0.5-1.5,1.6-4.9,0.2-5.4c-1.3-0.5-2.5,2.2-3.6,5.3
	l-3.4,9.2c-0.7,1.9-1.4,4-1.9,6c-0.1,0.3,0.1,0.7,0.4,0.8c0.3,0.1,0.7,0,0.8-0.4l0.3-1.1C93.4,105.3,94,106.3,95.2,106.7z M97.1,93
	c0.9-2.5,1.8-4.9,2.8-7c-0.1,0.9-0.3,1.7-0.8,3.1S97.9,91.8,97.1,93z M94.5,101.3c0.2-0.8,0.4-1.7,0.8-2.8c0.4-1.1,0.9-2.5,1.5-2.3
	c0.9,0.3,0.8,1.5,0.6,2.1C97.1,99.2,96.2,100.3,94.5,101.3z M111.5,112.7c3.2,1.2,8-3.3,10.3-5.4c0.5-0.4,0.5-0.6,0.6-0.6
	c0.1-0.3,0-0.7-0.4-0.9c-0.2-0.1-0.5,0-0.7,0.1c-2.7,2.6-7.1,6.4-9.4,5.6c-1.8-0.6-0.4-6.2,0.5-8.6c1.1-0.8,3.1-3.1,4.4-5.8l2.5,0.6
	c0.4,0.1,0.7-0.2,0.8-0.4c0.1-0.3,0-0.7-0.4-0.8l-2.3-0.5c0.1-0.2,0.2-0.3,0.2-0.5c0.4-1.1,1.4-4.4-0.1-5c-1.1-0.4-2.3,1.6-3.6,4.7
	l-2.4-0.6c-0.4-0.1-0.7,0.1-0.8,0.4c-0.1,0.3,0,0.7,0.5,0.9l2.2,0.5c-0.4,1.2-0.9,2.3-1.3,3.5l-0.4,1.1
	C110.6,103.9,108,111.4,111.5,112.7z M113.5,99.8c0.3-0.9,0.7-2,1.2-3.2l0.8,0.2C114.9,97.9,114.3,98.9,113.5,99.8L113.5,99.8z
	 M117,91.9c0,0.5-0.1,1.5-0.7,3.3l-0.1,0.3l-0.8-0.2c0.4-1,0.9-1.9,1.4-2.9L117,91.9z M125.9,117.9c3.2,1.2,8-3.3,10.3-5.4
	c0.5-0.4,0.5-0.6,0.6-0.6c0.1-0.3,0-0.7-0.4-0.9c-0.2-0.1-0.5,0-0.7,0.1c-2.7,2.6-7.1,6.4-9.4,5.6c-1.4-0.5-0.9-4.1-0.4-7.1
	c0.4-2.2,1-4,0-4.4c-1.2-0.4-2.7,1.8-3.8,3.4l0.7-2c2.6-2.5,4-5.3,4.7-7.1c0.5-1.5,1.6-4.9,0.2-5.4c-1.3-0.5-2.5,2.2-3.6,5.3
	l-3.4,9.3c-0.7,1.9-1.4,4-1.9,6c-0.1,0.3,0.1,0.7,0.4,0.8s0.7,0,0.8-0.4c0.8-2,2.9-5.9,5-8.1C124.5,110.4,122.9,116.8,125.9,117.9
	L125.9,117.9z M124.2,102.9c0.9-2.5,1.8-4.9,2.8-7c-0.1,0.9-0.3,1.7-0.8,3.1C125.8,100.4,125.1,101.7,124.2,102.9z M136.3,121.7
	c3.2,1.2,8-3.3,10.3-5.4c0.5-0.4,0.5-0.6,0.6-0.6c0.1-0.3,0-0.7-0.4-0.9c-0.2-0.1-0.5,0-0.7,0.1c-2.7,2.6-7.1,6.4-9.4,5.6
	c-0.9-0.3-1.3-1.4-1.2-2.7c1.9-1.9,3.1-3.6,3.5-4.9c0.6-1.9,0.1-3-0.6-3.2c-1.3-0.5-2.3,1-3.1,3.1
	C134,116.5,133.4,120.6,136.3,121.7L136.3,121.7z M135.8,115.4c0.1-0.6,0.3-1.1,0.5-1.6c0.5-1.3,0.9-2.4,1.6-2.9
	c0.1,0.1,0.1,0.6-0.1,1.5C137.5,113.3,136.8,114.3,135.8,115.4L135.8,115.4z M147.6,115.7c0.1-0.4,0-0.7-0.4-0.9
	c-0.4-0.1-0.8,0-0.9,0.4c-0.7,3.9-2.2,8.6-2.2,8.7c-0.1,0.4,0.1,0.7,0.4,0.8c0.4,0.1,0.7,0,0.8-0.4c1.1-2,3.9-7,5.5-8.5
	c0,2.5-1,7.6-1.8,9.8c-0.1,0.6,0.3,0.8,0.5,0.9c0.3,0.1,0.7,0,0.8-0.4c0.8-2,2.9-5.9,5-8.1c-0.6,3.4-2.1,9.9,0.9,11
	c3.2,1.2,8-3.3,10.3-5.4c0.5-0.4,0.5-0.6,0.6-0.6c0.1-0.3,0-0.7-0.4-0.9c-0.2-0.1-0.5,0-0.7,0.1c-2.7,2.6-7.1,6.4-9.4,5.6
	c-1.4-0.5-0.9-4.1-0.4-7.1c0.4-2.2,1-4,0-4.4c-1.4-0.5-3.8,3.4-4.7,4.7c0.3-1.4,1.6-5.9-0.2-6.5c-1.4-0.5-3.7,3.4-4.5,4.6l-0.1,0.1
	l0.1-0.3C147.1,117.9,147.4,116.5,147.6,115.7L147.6,115.7z M171.9,134.7c3,1.1,5.5-3,6.4-5.3c1.6,0.6,3.8,1,5.7,0.2
	c0.2-0.1,0.3-0.2,0.4-0.4c0.1-0.3-0.1-0.8-0.4-0.9c-0.6-0.2-2.3,0.9-4.9-0.1l-0.4-0.2c0.3-1.7,0-3.7-1.7-4.3c-1.1-0.4-2.5,0-2.9,1.1
	c-0.6,2,1.7,3.2,3.1,3.9c-0.6,1.8-2.8,5.4-4.7,4.6c-2-0.7-1.6-3.4-1.1-5c0.4-1.2,1.1-2.4,2-3c0.1-0.1,0.2-0.1,0.2-0.2
	c0.1-0.4,0-0.7-0.4-0.9c-1-0.4-2.6,2.2-3.1,3.6C169.2,130.3,169.2,133.7,171.9,134.7L171.9,134.7z M177.5,127.5
	c-0.8-0.4-2.5-1.3-2.2-2.2c0.1-0.4,0.6-0.5,1.2-0.3C177.5,125.4,177.6,126.6,177.5,127.5L177.5,127.5z M189.9,141.2
	c3.2,1.2,8-3.3,10.3-5.4c0.5-0.4,0.5-0.6,0.6-0.6c0.1-0.3,0-0.7-0.4-0.9c-0.2-0.1-0.5,0-0.7,0.1c-2.7,2.6-7.1,6.4-9.4,5.6
	c-2.6-0.9-0.3-7.8,0.3-9.9c0.1-0.3-0.1-0.7-0.4-0.8c-0.3-0.1-0.7,0-0.8,0.3c-2.9,5.9-5.2,8.2-6.3,7.7c-1.1-0.4-0.4-3.1,0.4-5.2
	c0.4-1.2,0.8-2.1,1.3-2.9c0.1-0.4,0-0.7-0.4-0.8c-0.3-0.1-0.7,0-0.9,0.4c-0.5,1-0.9,2-1.3,3.1c-1,2.7-1.6,6,0.5,6.8
	c2.2,0.8,4.3-2.2,5.3-3.8C187.7,136.9,187.4,140.3,189.9,141.2L189.9,141.2z M200.3,145c3.2,1.2,8-3.3,10.3-5.4
	c0.5-0.4,0.5-0.6,0.6-0.6c0.1-0.3,0-0.7-0.4-0.9c-0.2-0.1-0.5,0-0.7,0.1c-2.7,2.6-7.1,6.4-9.4,5.6c-1.8-0.6-0.4-6.2,0.5-8.6
	c1.1-0.8,3.1-3.1,4.4-5.8l2.5,0.6c0.4,0.1,0.7-0.1,0.8-0.4c0.1-0.3,0-0.7-0.4-0.8l-2.3-0.5c0.1-0.2,0.2-0.3,0.2-0.5
	c0.4-1.1,1.4-4.4-0.1-4.9c-1.1-0.4-2.3,1.6-3.6,4.7l-2.4-0.6c-0.4-0.1-0.7,0.1-0.8,0.4c-0.1,0.3,0,0.7,0.5,0.9l2.2,0.5
	c-0.4,1.2-0.9,2.3-1.3,3.5l-0.4,1C199.4,136.3,196.9,143.7,200.3,145L200.3,145z M202.3,132.2c0.3-0.9,0.7-2,1.2-3.2l0.8,0.2
	C203.8,130.2,203.1,131.2,202.3,132.2z M205.8,124.3c0,0.5-0.1,1.5-0.7,3.3l-0.1,0.3l-0.8-0.2c0.4-1,0.9-1.9,1.4-2.9L205.8,124.3z
	 M212.6,145c0.3,0.1,0.7-0.1,0.8-0.4l6.1-16.1c0.1-0.3,0-0.8-0.4-0.9c-0.3-0.1-0.7,0.1-0.8,0.4l-6.1,16.1
	C212.1,144.4,212.3,144.8,212.6,145L212.6,145z M211.1,148.9c0.3,0.1,0.6,0,0.8-0.3c0.3-0.5,0.3-0.6,0.3-1.2c0-0.4-0.3-0.7-0.7-0.7
	s-0.7,0.3-0.7,0.7c0,0.1,0,0.3,0,0.3c0,0.1-0.1,0.2-0.2,0.2c-0.2,0.3-0.1,0.7,0.2,0.9L211.1,148.9L211.1,148.9z M93,133
	c-38,10.6-66.7,26.2-86.2,46.8l-0.5,0.6l-4,4.6l6.9-2.5l0.3,0.9l-8.6,3L0,186.8l0.2-0.9l1.9-9l1,0.2l-1.5,7.1l4-4.6
	c19.4-20.9,48.1-36.6,86.1-47.5l1.2-0.3L93,133L93,133z"/>
</svg>
