<svg xmlns="http://www.w3.org/2000/svg" width="627" height="532" viewBox="0 0 627 532">
    <g fill="none" fill-rule="evenodd">
        <path fill="#FFF" d="M98 209.64c0-6.273-5.133-11.36-11.463-11.36-.293 0-.583.014-.87.036-2.353-6.632-8.723-11.387-16.22-11.387-.37 0-.738.015-1.102.038C65.07 176.002 54.835 168 42.707 168c-13.659 0-24.918 10.15-26.535 23.253-.458-.042-.92-.067-1.391-.067C6.619 191.186 0 197.86 0 206.093 0 214.325 6.619 221 14.781 221c.146 0 .289-.009.432-.013V221h72.134v-.033C93.3 220.556 98 215.644 98 209.639"/>
        <path fill="#000" d="M576.932 523.944a1.499 1.499 0 1 1-2.864-.888 1.499 1.499 0 1 1 2.864.888"/>
        <path fill="#7CCC33" d="M542.882 249.63l-4.958 11.504-58.468 63.889-2.683-26.912v-23.83l8.264-16.434L498.06 242s-25.42 2.7-28.726 10.095c-3.306 7.395-12.396 22.186-11.57 41.908.828 19.721.828 39.443-5.794 42.735-9.907 4.932-18.151 13.398-25.971 21.017 13.927-2.525 13.701 15.18 12.207 23.615.608-3.433 16.521-10.489 19.559-12.59v24.652l10.853 2.465c10.966 2.369 9.966 9.495 2.877 17.103 6.57-1.017 12.886-.64 19.477-1.128 8.966-.662 17.936-1.253 26.91-1.8 30.368-1.85 37.497-10.477 44.935-20.955 8.674-12.217 12.944-31.23 14.423-45.42 1.497-14.376 5.091-28.612 4.734-43.134-.347-14.066-4.843-29.404-16.924-37.881-9.282-6.514-15.92-8.276-24.236-16.542-6.818-6.781 2.067 2.668 2.067 2.668"/>
        <path fill="#D5E8B3" d="M400.416 320.158s-23.865-29.315-22.658-58.812c0 0-16.162 7.048-24.26 1.244-3.706-2.658-6.577-6.312-9.046-10.137-7.564-11.716-10.932-23.522-15.263-36.57-1.616-4.868-5.189-20.313-5.189-20.313l17.925-13.529s-1.857-1.843 6.176 19.06c8.032 20.9 19.775 33.81 19.775 33.81s12.356-15.369 18.535-24.59c6.18-9.222 19.154 11.68 19.154 11.68l-.618 19.058c8.652-9.836 17.3-33.197 27.187-41.804 3.13-2.726 21.464 5.729 24.559 7.628 12.51 7.68 11.268 19.66 11.277 32.332 0 0-13.181 14.55-14.83 32.582-1.647 18.033-.824 39.344-.824 39.344s-42.838 18.853-51.9 9.017"/>
        <path stroke="#000" stroke-linecap="round" stroke-linejoin="round" stroke-width="3.026" d="M405 222.955s-12.885-20.878-19.021-11.667c-6.137 9.211-18.408 24.562-18.408 24.562s-11.66-12.895-19.637-33.772c-7.978-20.878-6.134-19.037-6.134-19.037L324 196.554s3.548 15.428 5.152 20.29c4.301 13.033 7.646 24.826 15.158 36.527 2.451 3.822 5.302 7.472 8.983 10.127 8.042 5.797 24.093-1.243 24.093-1.243-1.199 29.463 22.5 58.745 22.5 58.745M405 241c8.645-9.757 17.286-32.93 27.164-41.468 3.127-2.704 21.445 5.683 24.538 7.567 12.5 7.618 11.259 19.502 11.268 32.07"/>
        <path fill="#D5E8B3" d="M134.267 279s10.853 4.894 13.357 14.684c2.504 9.79.835 47.316.835 47.316l9.184 2.447L171 359.763 145.12 372l-18.368-31L122 306.117l4.752-13.249L134.267 279z"/>
        <path fill="#7CCC33" d="M113.753 326.65l8.279 30.4-4.14 4.108 11.59 28.757 25.255 3.84s5.93 22.886-7.907 22.231c-13.836-.653-85.652-3.269-96.853-9.153-11.2-5.885-3.952-64.732.001-92.196 1.896-13.168 8.071-23.661 19.523-30.567 12.136-7.318 25.397-9.892 34.2 3.078-.06.058-.746-.749-.734-.759 3.712 13.385 7.198 26.84 10.786 40.26"/>
        <path stroke="#000" stroke-linecap="round" stroke-linejoin="round" stroke-width="3.026" d="M605 419.12l-145.89.823 37.55 6.774L434.098 446l-81.161-21.428L352 352l81.161 16.838.711 62.806M263.807 325s-3.823 5.619-9.084 8.312c-9.52 4.875-23.742 8.538-28.505 11.303-8.369 4.855-19.26 16.067-24.034 28.808-15.611 41.683-15.406 70.492-12.94 77.847 2.465 7.355 77.028 26.97 79.493 24.52 2.466-2.452 8.215-11.034-.001-13.487-8.217-2.451-41.082-6.537-49.3-22.066-8.216-15.528 17.874-50.876 17.874-50.876M246.933 482.165C220.18 498.507 193.1 514.913 170 529.591c5.33 0 3.953-2.475 0 0 112.394.409 223.549.409 335.94.409 23.467-30.787 44.462-62.804 68.75-94 0 9.044-.538.74 0 0 .413 27.501.413 53.362 0 80.455M290.541 374c-5.677 9.96-.598 18.358 3.176 27.728 3.905 9.695-2.201 16.843-3.799 26.272M296 357s9.6 11.643 10.798 27.576c1.027 13.661-3.598 38.605 10.202 37.38M79 381s9.724-66.764 6.25-72M104 288l18.107 71.163s-2.715 2.424-5.28 2.753C114.26 362.246 129 390 129 390M149.39 343.836l6.08-.836L171 358.84 136 379"/>
        <path stroke="#000" stroke-linecap="round" stroke-linejoin="round" stroke-width="3.026" d="M548 293l-15.69 80.854-56.308 19.676-6.462 2.766c-1.847-.922-20.924-3.995-24.924 5.227-2.462 5.676-4.616 16.908-4.616 16.908s1.847 3.075 3.077.615c1.23-2.459 4.923-12.605 5.846-13.834 0 0-.307 6.149 1.847 6.149"/>
        <path stroke="#000" stroke-linecap="round" stroke-linejoin="round" stroke-width="3.026" d="M539.578 227s-4.887 11.722 1.833 18.51c8.197 8.275 14.738 10.039 23.885 16.559 11.906 8.485 16.338 23.84 16.68 37.92.352 14.536-3.19 28.788-4.667 43.176-1.456 14.205-5.665 33.237-14.213 45.467-7.33 10.489-14.356 19.124-44.287 20.976C488.88 411.458 473 413 473 413"/>
        <path stroke="#000" stroke-linecap="round" stroke-linejoin="round" stroke-width="3.026" d="M483.332 387L479 324.47 539 246l-.003 34.33-13.607-1.226 9.897 15.94-50.718 31.265M317 320s-5.15 7.532-2.394 13.391c2.755 5.86-1.593 8.03-5.258 6.758-3.666-1.27-6.48 6.335-9.27 8.555-2.791 2.22-10.816 5.813-16.578.628-5.762-5.183-17.645-9.793-21.788-3.384C257.569 352.358 256 355 256 355M233 133c6.39 9 4.178 17.13 8.83 26.792.891 2.998-1.791 6.584-6.346 5.135-.09.958-.27 2.874.396 4.073M179.849 270s-5.976-22.28-6.575-26.618c-1.209-8.756-2.856-17.712-2.069-26.592.918-10.368 11.599-15.284 17.398-23.102C192.2 188.839 193 179 193 179M160 345s.556-14.245 2.778-21.083c2.222-6.837 3.889-18.803 5.555-13.674 1.667 5.128.555 9.685.555 14.244 0 4.559 1.112 9.687 1.112 9.687M175 351s12.75-11.919 13.86-13.623c1.107-1.702 3.882-9.647 5.544-13.62 1.663-3.973 3.88-10.216 1.663-12.487L193.85 309"/>
        <path stroke="#000" stroke-linecap="round" stroke-linejoin="round" stroke-width="3.026" d="M170.394 320.764l10.25 8.236L204 290.176 180.076 279 159 313.117M256.533 267c8.046-2.25 27.424-2.472 34.905-8.653 0-27.193 2.562-78.037 2.562-78.037s-14.335-1.238-20.568 1.235c0 10.952-.885 21.872-1.578 32.798-.391 6.17-6.074 28.718-5.35 30.407-1.9-.134-19.676-7.313-29.582-10.97-11.256-4.157-22.589-8.114-33.922-12.063M206 264c11.105.334 22.874-.17 34 .587M289 172l5-18.333s-1.666-14.057-3.333-14.667M276.77 177s-10.223-20.892-7.217-22.12c3.007-1.228 5.412 2.457 6.014 5.53h10.824L290 127.844 275.567 126l-3.607 25.807M496.236 192c-10.937 6.822-1.81 19.526-7.042 28.853-1.034 1.843 2.257 2.566 5.324 1.604 3.069-.96 3.258 5.29 4.184 7.456.925 2.164 4.71 8.845 7.298 9.087M117.279 241.981c0 4.888 2.912 7.974 8.072 8.019 2.318.02 4.42-.75 5.906-2.505.537-.634 2.567-7.13 2.378-7.14l4.132.222c.365 3.43-.188 8.194 4.237 9.082 9.123 1.829 9.33-6.744 9.996-12.839-4.692.432-11.174-.861-14.233 3.534h-4.132c-.443 0-1.209-1.792-1.61-2.087-3.267-2.4-10.314-1.537-14.344-1.889h-.173L103 225M141.055 217c4.562 6.482 2.463 15 2.463 15s-1.926-4.712-6.518-2.746M138.343 247c1.333 4.404 1.269 15.22-6.343 11.07M130.779 268.843c-3.893 10.646-17.311 4.87-23.626.057-4.23-3.224-8.523-10.377-13.86-11.709-9.38-2.342-7.55 17.544-14.325 21.593-6.589 3.938-25.036 7.877-28.99 35.449-3.954 27.572-11.201 86.654 0 92.562 11.201 5.908 83.015 8.535 96.852 9.191 13.837.656 7.907-22.32 7.907-22.32L70.4 378.567M451.989 177.72c.024-.706.009-1.404-.047-2.09-1.072-13.242-9.578-27.994-17.294-38.404-5.65-7.619-13.6-12.288-23.082-12.992-8.206-.609-18.417-.213-25.872 3.412-21.62 10.512-29.826 77.488 4.926 79.337 2.765.148 5.444-.679 7.794-2.11 2.115-1.288 3.726-4.152 5.836-4.962-6.02 2.314-10.956-2.997-12.89-8.85-.268-.81-1.681-1.48-.818-2.26 1.194-1.078 3.466-4.47 4.181-5.063.47-.39.478-.845-.32-.63-2.068.557-5.23 2.04-6.446 1.148-1.483-1.084-.124-5.41-.555-8.09-.228-1.413-.794-2.125-2.18-2.402-1.52-.304-3.956.345-4.664-1.533-.713-1.894 1.305-4 1.71-5.768.819-3.582.776-7.793 2.795-10.96 1.902-2.981.17-5.581 1.322-8.82.842-2.367 3.168-6.38 5.381-7.703-.397.237 6.348 6.068 6.839 6.46 2.211 1.763 4.708 3.164 7.406 4.023 4.508 1.433 12.708-.387 14.281 5.747 1.682 6.56-3.125 11.38.453 17.86 4.096 7.422 1.219 10.735 7.156 17.117 1.232 1.324 5.135 2.517 6.85 3.102 10.18 3.469 16.93-6.515 17.238-15.57z"/>
        <path fill="#000" d="M221.935 129.628c4.422-2.496 15.403-2.082 16.038-8.918.787-8.462-16.027-10.836-21.702-10.705-19.082.447-30.802 14.016-40.827 29.525-5.323 8.234-9.065 31.72.227 38.864 1.812 1.394 4.06 2.065 6.253 2.706 3.33.975 6.723 1.96 10.192 1.897 5.936-.105 19.578-11.338 12.72-17.76-3.096-2.899-4.453-11.51-.904-14.647 2.633-2.326 4.816.506 6.706-.528 6.545-3.584 4.485-11.905 7.805-17.564.593-1.01 1.865-1.952 3.492-2.87M509.476 188.875c-6.758-2.975-9.824 2.908-15.77-3.962-3.81-4.401-9.92-14.14-4.665-19.648 10.548-11.047 23.946 2.552 34.004 5.16 6.154 1.597 14.41-.809 19.815 3.293 3.969 3.012 4.7 6.69 6.321 11.459 1.623 4.77 2.757 7.09 3.815 15.804 1.058 8.714 2.154 14.23-1.65 18.84-3.8 4.61-10.962 9.272-10.762 3.488.198-5.782 2.057-9.991.435-14.762-1.621-4.77-2.84-10.9-6.725-10.101-3.87.795-8.504 1.116-8.216 6.098.772 13.346-7.974 4.006-9.388-3.117-2.068-10.402-4.25-11.243-7.214-12.552M122.907 219.788c1.705.895 13.625 4.156 19.91-2.667 17.2-18.674-40.3-29.987-53.353-15.607-6.191 6.821-9.313 17.942-8.264 32.15.882 11.914 8.9 16.657 11.356 16.32 2.456-.34.702-10.23.232-15.165-.914-9.6 1.781-12.005 6.243-11.502 7.718.868 1.666 12.963 8.16 13.971 4.482.696 10.32-20.328 15.716-17.5M390.102 161.041a1.5 1.5 0 1 0 2.796-1.082 1.5 1.5 0 0 0-2.796 1.082"/>
        <path fill="#FFF" d="M160 74.355c0-3.669 2.985-6.644 6.667-6.644.17 0 .34.008.507.02a9.998 9.998 0 0 1 10.074-6.637A15.55 15.55 0 0 1 192.16 50c7.945 0 14.493 5.937 15.434 13.6.266-.024.535-.039.809-.039 4.747 0 8.597 3.904 8.597 8.72 0 4.815-3.85 8.719-8.597 8.719-.085 0-.168-.005-.252-.007V81h-41.955v-.02c-3.462-.24-6.196-3.113-6.196-6.625"/>
        <path fill="#7CCC33" d="M393 28.283c0-4.26 3.404-7.715 7.603-7.715.195 0 .387.01.577.024 1.56-4.505 5.786-7.735 10.758-7.735.246 0 .49.01.731.026C414.841 5.435 421.63 0 429.674 0c9.06 0 16.527 6.895 17.6 15.794.303-.028.61-.045.922-.045 5.414 0 9.804 4.533 9.804 10.125S453.61 36 448.196 36c-.097 0-.191-.006-.286-.009V36h-47.844v-.022c-3.948-.28-7.066-3.616-7.066-7.695"/>
        <path fill="#000" d="M452.102 425.04a1.5 1.5 0 1 0 2.797-1.08 1.5 1.5 0 0 0-2.797 1.08M225.102 150.04a1.5 1.5 0 1 0 2.796-1.08 1.5 1.5 0 0 0-2.796 1.08M304.102 325.04a1.5 1.5 0 1 0 2.797-1.082 1.5 1.5 0 0 0-2.797 1.083M312.14 461.133a1.499 1.499 0 1 0 2.72-1.266 1.5 1.5 0 1 0-2.72 1.266"/>
        <path stroke="#000" stroke-linecap="round" stroke-linejoin="round" stroke-width="3.026" d="M402 201c4.388-2.443 5.644-.876 13-11M130.464 305.221s-18.21-17.16-16.327-18.48c1.884-1.319 11.931-4.62 14.443-1.319 2.512 3.3-5.651 18.479-5.651 20.46 0 1.98 4.395 34.977 4.395 34.977L138 360M47.805 405L12 435.855c18.564 2.134 149.393.63 149.393.63S175.795 419.988 183 406.89"/>
        <path stroke="#000" stroke-linecap="round" stroke-linejoin="round" stroke-width="3.026" d="M12 442.36V451l151.952-.619L190 415M421 361c.065.016 15.563-10.941 18.006-12.931 7.081-5.765 14.117-13.495 16.969-22.577 2.302-7.334.31-15.507.579-23.014.37-10.224 1.187-20.541 3.515-30.53C465.91 239.804 498 242.033 498 242.033s-20.5 22.606-21.121 35.536c-.621 12.93.622 36.123.622 36.123M155 410s7.566-.599 13.872-1.197c6.306-.599 14.503 0 16.394-2.991 1.891-2.992 3.153-17.947-1.26-18.546-4.415-.599-8.828 0-8.828 0M161 392s6.5-7.377 8.272-7.944c1.772-.568 4.728 3.405 4.728 3.405M269 226c-1.858-3.693-13.628-28.926-17.345-30.156-3.717-1.232-14.247 2.461-17.964.616-3.716-1.846-6.813-6.153-6.815-10.46.003 6.517-23.63 8.521-27.256 4.92 0 0-.601 9.557-.62 9.84-.091 1.473 8.455 1.787 9.293 1.854M213 335c-.887-1.086-13.509-6.62-18-17M115 353l-3 .486"/>
        <path fill="#000" d="M320.61 311.36c7.513-6.394 4.188-16.969-1.082-23.796-9.522-12.335-36.143-31.329-50.217-15.608-6.805 7.603-15.26 16.598-16.221 27.628-.486 5.58 1.027 11.945 3.851 16.767 1.95 3.328 5.306 10.23 7.159 9.61 1.698-.569 7.596-5.998 8.103-7.741 1.699-5.818 9.315-14.637 15.748-9.607 2.147 1.697-.623 20.07 5.324 14.37 1.177-1.13 6.063-8.744 8.045-8.16 5.984 1.764 14.156.902 19.29-3.463M244.655 267.23s6.395-4.912 11.921-2.621c5.527 2.292 10.795 6.137.767 17.11-10.027 10.974-20.847 10.915-26.1 22.766-2.232 5.038-3.405 10.998-6.458 15.515-1.76-4.172-2.046-9.89-1.596-14.432.963-9.749 17.765-35.812 21.466-38.337"/>
        <path stroke="#000" stroke-linecap="round" stroke-linejoin="round" stroke-width="3.026" d="M324 160.632c3.782-1.696 7 .222 7 3.368M337.442 179c1.212-6.241 3.594-12.533 2.058-18.86-1.737-7.15-7.95-9.707-14.202-7.205-14.817 5.934-16.053 8.9-15.025 14.41"/>
        <path stroke="#000" stroke-linecap="round" stroke-linejoin="round" stroke-width="3.026" d="M325.481 161c-2.506.614-25.481 12.894-25.481 12.894L308.981 196s17.296-10.404 24.019-14.123"/>
        <path stroke="#000" stroke-linecap="round" stroke-linejoin="round" stroke-width="3.026" d="M338 179c-.394-.783-7.088-15.654-11.812-11.154-1.11 1.058 2.953 7.24 5.709 9.002M450 319s-35.486 16.408-52.225 7.5c-14.091-7.5-11.606 22.5-11.606 22.5M305 269.621s24.793-4.928 30.579-3.286c0 0 11.157 2.875 12.809 33.27C350.042 330 350.042 328.358 355 330M458 426l5 1M442 428l13 4M455 412c.286 2.042.286 3.793 2 2.625M458 413.87c1.458.374 3.792 0 7-1.87M468 362s-26.782 20.558-34 23M525 263.4s-15.975 6.495-23.707-6.69c-4.904-8.364 5.722-11.71 5.722-11.71M276.378 464.276c8.503-5.063 21.082-1.13 29.756 1.75 4.34 1.443 13.536 17.704 7.174 15.76-.503-1.52-5.122-4.995-7.611-7.216-2.491-2.222-9.02-3.825-7.16-3.778 16.002.407 2.461 6.922 2.461 6.922s-.41 4.479-4.104 3.257c-3.692-1.221-6.564-2.443-12.309-2.85-5.745-.407-10.26.407-10.26.407s-9.909 3.907 4.484 6.636L357.995 494 381 452.151 310.046 444l-11.784 14.948 7.492 1.339M501 209c.748 2.632 2.662 3.761 5.151 3.985 2.84.255 3.849-2.832 3.849-2.832M234 170.054s-5.26.695-7.013 0c-1.754-.695-1.17 5.556 1.753 6.946M121 232.102c1.594-1.223 3.116-2.26 5.288-2.082 1.862.15 3.96 1.323 4.712 2.98M484.049 83l3.495-6.745 6.456-3.73-6.456-3.73L484 62l-3.544 6.796-6.456 3.73 6.505 3.729zM615.049 392l3.495-6.745 6.456-3.73-6.456-3.73L615 371l-3.544 6.796-6.456 3.73 6.506 3.729z"/>
        <path fill="#7CCC33" d="M517.47 33.353l-3.518 6.638-6.408 3.643 6.457 3.644 3.515 6.587 3.47-6.587 6.407-3.644-6.407-3.643zM138 157l-3.543 6.796-6.457 3.73 6.506 3.73 3.542 6.744 3.496-6.744 6.456-3.73-6.456-3.73z"/>
        <path fill="#FFF" d="M82 81l-3.543 6.796L72 91.526l6.506 3.73L82.048 102l3.496-6.744L92 91.526l-6.456-3.73z"/>
        <path stroke="#000" stroke-linecap="round" stroke-linejoin="round" stroke-width="3" d="M117 141.927c0-3.906-3.143-7.074-7.018-7.074-.18 0-.357.01-.533.024-1.44-4.13-5.34-7.09-9.93-7.09-.228 0-.452.008-.675.023-2.005-6.828-8.272-11.81-15.696-11.81-8.363 0-15.257 6.32-16.247 14.479a8.776 8.776 0 0 0-.85-.043c-4.998 0-9.051 4.156-9.051 9.282 0 5.127 4.053 9.282 9.05 9.282.089 0 .176-.005.264-.008V149h44.164v-.02c3.644-.256 6.522-3.314 6.522-7.053zM493 114.999c0-4.972 4.45-9.002 9.943-9.002.254 0 .504.01.754.029 2.04-5.256 7.566-9.025 14.068-9.025.32 0 .64.012.956.03C521.56 88.341 530.439 82 540.958 82c11.846 0 21.612 8.044 23.014 18.428.397-.035.799-.054 1.206-.054 7.082 0 12.822 5.29 12.822 11.813 0 6.525-5.74 11.813-12.822 11.813-.125 0-.249-.006-.375-.009V124H502.24v-.024c-5.164-.326-9.241-4.22-9.241-8.977z"/>
    </g>
</svg>
