<?xml version="1.0" encoding="utf-8"?>
<!-- Generator: Adobe Illustrator 21.0.0, SVG Export Plug-In . SVG Version: 6.00 Build 0)  -->
<svg version="1.1" id="Layer_1" xmlns="http://www.w3.org/2000/svg" xmlns:xlink="http://www.w3.org/1999/xlink" x="0px" y="0px"
	 viewBox="0 0 75.2 70.3" style="enable-background:new 0 0 75.2 70.3;" xml:space="preserve">
<style type="text/css">
	.st0{fill-opacity:0;}
</style>
<g>
	<path class="st0" d="M36.4,46.1H19l2.5-7.3h12.1l-6.1-16.5l8.2-20.5h6.6L42.7,3l20,51c2.6,6.5,5.5,9.4,9.2,10.1l1.5,0.3v4.1H35.1
		v-4.3l1.7-0.1c3.3-0.3,4.5-1.2,4.5-3.5c0-1.5-0.6-3.7-1.8-6.6L39,53L36.4,46.1z M3.7,66.6h1.7v-0.8H3.6L3.7,66.6z M18.2,51.5
		l-0.7,1.4l0.8,0.4l0.8-1.6C19.1,51.7,18.2,51.5,18.2,51.5z M26.8,66.6l0.1-0.8h-1.8v0.8H26.8z M28.7,68.4H1.8v-4.1l1.5-0.2
		c3.2-0.5,5.5-1.8,7.8-4.3c2.5-2.7,3.5-4.5,5.5-9.2l0.7-1.8l3.8,1.8l-0.3,1.4l-0.1,0.5c-0.3,1.6-0.6,3.5-0.6,4.9
		c0,3.9,2.1,6.1,6.8,6.5l1.6,0.2C28.7,64.2,28.7,68.4,28.7,68.4z"/>
	<path d="M73.4,70.2H35.1c-1,0-1.8-0.8-1.8-1.8v-4.3c0-0.9,0.7-1.7,1.7-1.8l1.7-0.1c2.8-0.2,2.8-0.8,2.8-1.8c0-1.2-0.6-3.2-1.7-6
		l-0.3-0.8l-2.2-5.8H19.4l2.5,1.2c0.7,0.4,1.1,1.2,1,2L22.5,53c-0.3,1.6-0.5,3.3-0.5,4.5c0,2.5,0.9,4.3,5.2,4.8l1.6,0.2
		c0.9,0.1,1.6,0.9,1.6,1.8v4.2c0,1-0.8,1.8-1.8,1.8H1.8c-1,0-1.8-0.8-1.8-1.8v-4.1c0-0.9,0.6-1.6,1.5-1.8L3,62.3
		c2.8-0.5,4.7-1.5,6.8-3.7c2.3-2.5,3.2-4,5.1-8.6l0.7-1.8c0.2-0.5,0.6-0.8,1-1c0.2-0.1,0.5-0.1,0.7-0.1c-0.3-0.5-0.4-1.1-0.2-1.6
		l2.5-7.3c0.3-0.7,0.9-1.2,1.7-1.2H31l-5.2-14.1c-0.2-0.4-0.2-0.9,0-1.3L34,1.2C34.3,0.5,34.9,0,35.7,0h6.6c0.7,0,1.4,0.5,1.7,1.1
		l20.5,52.2c2.9,7.3,5.9,8.6,7.8,9l1.5,0.3c0.9,0.1,1.5,0.9,1.5,1.8v4.1C75.2,69.4,74.4,70.2,73.4,70.2z M36.9,66.6h34.7l0-0.8
		c-4.5-0.8-7.8-4.3-10.6-11.2l-20-51h-4.1l-7.5,18.7l5.9,15.9c0.2,0.6,0.1,1.2-0.2,1.7s-0.9,0.8-1.5,0.8H22.8l-1.3,3.7h14.9
		c0.7,0,1.4,0.5,1.7,1.2l2.9,7.7c1.3,3.3,1.9,5.6,1.9,7.3c0,4.3-3.3,5.1-6.1,5.3h0V66.6z M7.2,66.6h16.1v-0.8c0-0.3,0.1-0.5,0.2-0.8
		c-3.3-1.2-5-3.8-5-7.6c0-0.7,0.1-1.5,0.1-2.4c-0.3,0-0.7,0-1-0.2l-0.7-0.3c-1.2,2.6-2.4,4.2-4.4,6.4C10.7,62.9,9,64.1,7,64.9
		c0.2,0.3,0.2,0.6,0.2,0.9V66.6z"/>
</g>
</svg>
