<svg xmlns="http://www.w3.org/2000/svg" xmlns:xlink="http://www.w3.org/1999/xlink" width="63" height="63" viewBox="0 0 63 63">
    <defs>
        <filter id="prefix__a" width="171.4%" height="171.4%" x="-35.7%" y="-35.7%" filterUnits="objectBoundingBox">
            <feOffset in="SourceAlpha" result="shadowOffsetOuter1"/>
            <feGaussianBlur in="shadowOffsetOuter1" result="shadowBlurOuter1" stdDeviation="5"/>
            <feColorMatrix in="shadowBlurOuter1" values="0 0 0 0 0.2 0 0 0 0 0.4 0 0 0 0 1 0 0 0 0.497869318 0"/>
        </filter>
        <rect id="prefix__b" width="42" height="42" x="0" y="0" rx="21"/>
        <path id="prefix__c" d="M0 0L25.2 0 25.2 25.2 0 25.2z"/>
    </defs>
    <g fill="none" fill-rule="evenodd">
        <g transform="translate(10 10) translate(.6 .6)">
            <use fill="#000" filter="url(#prefix__a)" xlink:href="#prefix__b"/>
            <use fill="#FFF" xlink:href="#prefix__b"/>
            <circle cx="21" cy="21" r="21" fill="#FFF"/>
        </g>
        <g transform="translate(10 10) translate(9 9)">
            <mask id="prefix__d" fill="#fff">
                <use xlink:href="#prefix__c"/>
            </mask>
            <path fill="#7ccc33" d="M12.6 0c-.916 0-1.658.742-1.658 1.658v9.284H1.658C.742 10.942 0 11.684 0 12.6c0 .916.742 1.658 1.658 1.658h9.284v9.284c0 .916.742 1.658 1.658 1.658.916 0 1.658-.742 1.658-1.658v-9.284h9.284c.916 0 1.658-.742 1.658-1.658 0-.916-.742-1.658-1.658-1.658h-9.284V1.658C14.258.742 13.516 0 12.6 0" mask="url(#prefix__d)"/>
        </g>
    </g>
</svg>
