<svg xmlns="http://www.w3.org/2000/svg" width="181" height="86" viewBox="0 0 181 86">
    <path fill="#000" fill-rule="nonzero" d="M10.16 51.144a1.03 1.03 0 0 0 .276-.102c.231-.213.291-.575.107-.81-2.397-3.085-4.03-5.234-5.173-7.079-1.257-2.003-1.874-3.49-2.068-4.899-.381-2.963 1.324-5.73 4.793-10.154.226-.242.167-.614-.07-.811a.595.595 0 0 0-.835.103c-3.695 4.666-5.483 7.65-5.038 11.015.22 1.58.894 3.235 2.226 5.344 1.182 1.897 2.819 4.075 5.249 7.184.117.187.332.241.532.21zm9.271-5.784c2.922-.463 4.73-5.917 5.629-8.584.18-.528.162-.643.149-.729-.05-.315-.325-.565-.64-.515a.611.611 0 0 0-.465.397c-.994 3.181-2.763 7.954-4.854 8.285-1.29.204-2.462-2.752-3.366-5.31-.677-1.86-.935-3.493-1.88-3.343-1.318.209-1.384 3.684-1.515 5.085-.213-.789-.51-1.74-.776-2.49-.111-.335-.324-.566-.64-.516-.343.055-.56.353-.514.64 1.132 3.256 1.993 7.582 1.998 7.61.078.311.344.504.659.454.31-.078.508-.315.486-.635-.208-1.875-.268-5.77.402-8.402 1.011 2.864 2.549 8.493 5.327 8.053zm8.966-1.42c2.75-.436 2.993-4.644 2.653-6.792 1.432-.227 3.354-.883 4.424-2.286.096-.133.155-.318.132-.461-.05-.316-.41-.552-.668-.511-.544.086-1.382 1.657-3.76 2.034l-.4.063c-.46-1.424-1.536-2.84-3.169-2.58-1.06.167-1.916 1.066-1.752 2.097.396 1.758 2.65 1.724 4.029 1.711.259 1.633.162 5.289-1.67 5.58-1.891.298-2.713-1.92-2.944-3.381-.177-1.117-.13-2.3.23-3.178a.468.468 0 0 0 .046-.272c-.055-.343-.325-.565-.64-.515-.888.14-1.057 2.78-.848 4.098.35 2.206 1.845 4.787 4.337 4.393zm1.188-7.881c-.767-.025-2.451.094-2.587-.765-.055-.344.277-.66.793-.742.945-.15 1.533.785 1.794 1.507zm11.183 13.32c2.12-.335 2.097-5.294 1.957-6.74 3.697-3.903 6.57-7.265 7.53-10.294.015-.09.03-.181.016-.267-.05-.315-.353-.56-.64-.516a.611.611 0 0 0-.465.397c-.852 2.778-3.706 6.078-6.572 9.116-.174-1.47-.437-3.132-.714-4.879l3.552-1.12c.277-.103.413-.36.354-.732-.046-.286-.335-.446-.622-.4L41.7 35.05l-.304-1.919c1.046-2.661 1.469-5.37 1.056-7.977-.163-1.031-.766-3.725-2.17-3.503-1.146.182-1.03 2.395-.998 3.153.131 2.68.494 5.53 1.347 10.915.386 2.434.74 4.669.915 6.52-1.342 1.534-2.617 3.497-2.29 5.56.127.802.625 1.721 1.513 1.58zm.243-18.859c-.264-2.219-.863-6-.492-7.556.442.752.688 1.565.824 2.424.272 1.719.038 3.576-.332 5.132zm-.4 17.68a1.335 1.335 0 0 1-.206-.554c-.218-1.375.518-2.666 1.24-3.661.016 1.025-.157 3.636-1.035 4.216zm11.473-8.012c.31-.079.508-.315.487-.635-.209-1.875-.127-6.175.543-8.806 1.343 1.431 3.102 2.533 5.022 2.229 1.604-.254 2.536-1.224 3.546-2.265a.557.557 0 0 0 .185-.5c-.054-.343-.434-.518-.692-.477-.516.082-1.822 1.845-3.311 2.08-2.235.355-3.875-2.586-4.992-2.409-1.317.209-1.384 3.684-1.514 5.084a36.837 36.837 0 0 0-.776-2.49c-.112-.334-.325-.565-.64-.515-.343.054-.56.353-.515.64 1.132 3.255 1.994 7.582 1.998 7.61.079.311.344.504.66.454zm13.634-2.16c2.922-.462 4.73-5.916 5.629-8.584.18-.527.162-.642.149-.728-.05-.315-.325-.565-.64-.515a.611.611 0 0 0-.465.397c-.994 3.181-2.763 7.954-4.854 8.285-.86.136-1.55-.518-2.09-1.519.67-2.25.828-4.036.638-5.24-.301-1.713-1.216-2.302-1.847-2.202-1.174.186-1.359 1.8-1.055 3.72.54 3.408 1.872 6.808 4.535 6.387zm-3.019-4.6c-.1-.36-.169-.723-.228-1.075l-.056-.349c-.186-1.174-.33-2.267-.02-2.904.1.073.36.413.51 1.182.123.774.053 1.812-.206 3.145zm12.643 3.076c2.922-.462 4.73-5.916 5.629-8.584.18-.528.162-.642.149-.728-.05-.315-.325-.565-.64-.515a.611.611 0 0 0-.465.396c-.994 3.182-2.763 7.954-4.854 8.286-.86.136-1.55-.518-2.09-1.52.67-2.249.828-4.035.638-5.238-.301-1.715-1.216-2.304-1.847-2.204-1.174.186-1.359 1.801-1.055 3.72.54 3.409 1.872 6.81 4.535 6.387zm-3.019-4.601c-.1-.358-.169-.722-.228-1.075l-.056-.348c-.186-1.175-.33-2.267-.02-2.904.1.072.36.413.511 1.182.122.773.052 1.812-.207 3.145zm12.643 3.077c2.922-.463 4.73-5.917 5.629-8.584.18-.528.162-.643.149-.728-.05-.316-.325-.566-.64-.516a.611.611 0 0 0-.465.397c-.994 3.182-2.763 7.954-4.854 8.285-1.633.259-2.957-4.582-3.307-6.787.607-1.359 1.27-4.958.79-7.994-.168-1.06-.779-3.987-2.182-3.765-1.403.222-.965 4.374-.157 9.571l.179 1.13c.482 2.965 1.717 9.489 4.858 8.991zm-3.928-10.711c-.326-2.063-.726-5.141-.697-7.553.236.373.568 1.172.835 2.862.236 1.49.142 3.12-.138 4.69zm18.02 8.479c2.922-.463 4.73-5.917 5.63-8.584.18-.528.162-.643.148-.728-.05-.316-.324-.566-.64-.516a.611.611 0 0 0-.465.397c-.994 3.182-2.791 7.959-4.882 8.29-1.776.281-2.694-2.92-2.947-4.143a.553.553 0 0 0-.654-.425c-.315.05-.513.287-.491.606.056 1.283.053 4.601-1.522 4.851-1.347.213-2.15-1.157-2.423-2.875-.363-2.292.222-5.086 1.597-5.304.745-.118 1.407.541 1.846 1.646a.565.565 0 0 0 .646.367c.4-.063.494-.4.453-.659-.227-1.432-1.551-2.749-3.012-2.517-2.349.372-3.161 3.583-2.717 6.39.377 2.378 1.643 4.438 3.791 4.098 1.46-.232 2.122-1.804 2.337-3.042.656 1.364 1.874 2.375 3.306 2.148zm13.835-2.191c2.922-.463 4.73-5.917 5.629-8.584.18-.528.162-.643.149-.729-.05-.315-.325-.565-.64-.515a.611.611 0 0 0-.466.397c-.993 3.181-2.762 7.954-4.853 8.285-1.29.204-2.462-2.752-3.366-5.31-.677-1.86-.935-3.492-1.88-3.343-1.318.209-1.384 3.684-1.515 5.085-.213-.789-.51-1.74-.776-2.49-.111-.335-.324-.566-.64-.516-.343.055-.56.353-.515.64 1.133 3.256 1.994 7.582 1.999 7.61.078.311.344.504.659.454.31-.078.508-.315.486-.635-.209-1.875-.268-5.77.402-8.402 1.011 2.864 2.549 8.493 5.327 8.053zm9.624-1.524c2.922-.463 4.73-5.917 5.629-8.585.18-.527.162-.642.149-.728-.05-.315-.325-.565-.64-.515a.611.611 0 0 0-.465.397c-.994 3.181-2.763 7.954-4.854 8.285-1.661.263-2.75-2.53-3.122-4.879-.186-1.174-.33-2.267-.02-2.904.1.073.355.385.506 1.153.05.316.349.532.664.483a.582.582 0 0 0 .482-.664c-.3-1.714-1.178-2.25-1.809-2.15-1.174.185-1.359 1.8-1.055 3.72.54 3.408 1.872 6.808 4.535 6.387zm9.624-1.525c2.922-.463 4.73-5.917 5.629-8.584.18-.528.162-.642.149-.728-.05-.315-.325-.565-.64-.516a.611.611 0 0 0-.465.397c-.994 3.182-2.763 7.954-4.854 8.285-.86.137-1.55-.517-2.09-1.518.67-2.25.828-4.037.638-5.24-.301-1.714-1.216-2.303-1.847-2.203-1.174.186-1.359 1.8-1.055 3.72.54 3.409 1.872 6.81 4.535 6.387zm-3.019-4.601c-.1-.359-.169-.722-.228-1.075l-.056-.348c-.186-1.175-.33-2.268-.02-2.904.1.072.36.413.51 1.182.123.773.053 1.812-.206 3.145zm10.61 3.399c.31-.079.508-.315.486-.635-.209-1.875-.126-6.175.543-8.806 1.343 1.431 3.103 2.533 5.022 2.229 1.604-.254 2.537-1.224 3.546-2.265a.557.557 0 0 0 .186-.5c-.055-.343-.435-.518-.693-.477-.515.082-1.822 1.845-3.31 2.08-2.235.355-3.875-2.586-4.992-2.409-1.318.209-1.384 3.684-1.515 5.084a36.837 36.837 0 0 0-.776-2.49c-.111-.334-.324-.565-.64-.515-.343.054-.56.353-.515.64 1.133 3.255 1.994 7.582 1.999 7.61.078.311.344.504.659.454zm11.752-1.803c2.206-.349 4.69-2.093 4.313-4.47a2.257 2.257 0 0 0-.61-1.254c.924-.47 1.873-.972 2.673-1.48 1.117-.735 1.819-1.493 2.226-2.262a.689.689 0 0 0 .031-.357.528.528 0 0 0-.302-.422.557.557 0 0 0-.779.27c-.645 1.306-2.79 2.41-4.858 3.441-1.315-.702-2.837-1.048-3.946-1.929.643-1.13 1.072-2.313.891-3.459-.127-.802-.697-1.622-1.557-1.486-1.718.272-1.52 2.825-1.338 3.97.327 2.063 3.032 3.014 4.672 3.547-1.656.85-4.817 2.584-4.5 4.589.218 1.375 2.082 1.461 3.084 1.302zm-2.05-9.423a.494.494 0 0 1-.06-.196c-.082-.516-.256-2.543.317-2.634.2-.032.268.398.282.484.081.515-.03 1.296-.539 2.346zm1.869 8.278c-.401.063-1.67.205-1.757-.339-.208-1.317 3.708-3.288 4.526-3.682.336.27.53.562.584.906.29 1.833-1.978 2.897-3.353 3.115zm21.446-10.12c.172-.028.306-.108.37-.265.043-.095.106-.252.112-.4-.107-.305-.406-.522-.74-.41-1.582.397-5.634.95-5.63.979-.328-.036-.587.181-.685.49-.008.324.243.608.538.62.038.052 4.205-.52 6.035-1.015zm.446 2.63c.172-.027.306-.107.37-.264.043-.095.106-.252.112-.4-.107-.306-.406-.523-.74-.411-1.582.397-5.634.95-5.63.98-.328-.036-.587.18-.685.49-.008.324.243.607.538.62.038.052 4.205-.52 6.035-1.015zm-146.952 59.8c2.921-.463 4.73-5.917 5.628-8.585.18-.528.163-.642.15-.728-.05-.315-.325-.565-.64-.515a.611.611 0 0 0-.466.396c-.993 3.182-2.763 7.954-4.854 8.286-1.374.217-2.367-.859-3.514-2.908 1.892-3.442 2.544-9.153 1.977-12.733-.286-1.805-1.084-3.323-2.517-3.096-.859.136-1.971.9-2.4 3.757-.296 1.838-.2 4.29.18 6.695.313 1.976.813 3.835 1.46 5.318-1.089 1.846-2.772 3.082-4.319 3.327-2.664.422-4.645-1.525-5.253-5.363a.582.582 0 0 0-.664-.483.582.582 0 0 0-.482.664c.721 4.554 3.287 6.85 6.61 6.323 1.747-.277 3.358-1.413 4.708-3.27.004.028.037.052.042.08 1.528 2.607 3.208 3.016 4.354 2.834zm-4.27-5.46c-.458-1.22-.8-2.634-1.04-4.152-.812-5.127-.004-8.926 1.256-9.125.544-.086.967.728 1.184 2.102.436 2.75.013 7.867-1.4 11.174zm11.664 4.318c.903-.232-.041-1.932.893-9.567.679-5.54 2.088-8.875 3.979-9.174 1.775-.282 2.93.71 3.217 2.514.358 2.263-.919 5.695-4.299 6.23a.582.582 0 0 0-.482.664c.05.315.349.532.664.482 1.833-.29 2.57 1.208 3.407 3.718.847 2.567 1.668 3.67 3.702 3.348 2.921-.463 4.73-5.917 5.628-8.584.18-.528.162-.642.149-.728-.05-.315-.325-.565-.64-.516a.611.611 0 0 0-.465.397c-.994 3.182-2.763 7.954-4.854 8.285-2.578.409-1.96-4.769-4.843-6.661 2.328-1.25 3.591-4.21 3.178-6.816-.38-2.406-2.11-3.865-4.544-3.479-1.432.227-2.62 1.443-3.476 3.634-.98 2.533-1.717 7.7-1.872 11.541a147.303 147.303 0 0 1-.647-3.714c1.297-5.344 1.103-8.425.885-9.8-.313-1.976-1.266-2.06-1.667-1.997-.2.032-.473.163-.705.552-.112.223-.48.869-.42 3.649.058 2.222.367 5.285.884 8.55.454 2.865 1.055 5.735 1.659 7.137.098.249.383.38.67.335zm-1.762-12.053c-.407-3.87-.19-6.576-.068-6.919.08.134.187.44.264.927.127.802.317 2.74-.196 5.992zm23.344 8.722a5.667 5.667 0 0 0 2.003-.699 4.539 4.539 0 0 0 1.684-1.793c.435-.774.642-1.687.631-2.684-.032-1.874-.68-3.18-1.966-3.887-1.03-.571-2.207-.59-3.06-.602-.058.01-.148-.006-.206.003 1.201-1.687 2.093-3.473 2.487-5.062.497-1.87.318-3.368-.485-4.357-.439-.547-1.306-1.202-2.917-1.182-1.288.028-2.889.487-4.75 1.34a.603.603 0 0 0-.288.78c.131.272.474.394.775.258 1.728-.773 3.161-1.176 4.272-1.205.94-.002 1.595.247 1.997.74.547.678.647 1.865.292 3.331-.427 1.565-1.319 3.35-2.586 4.99-.265.365-.33.698-.194 1 .211.407.66.453.811.488.21.025.477.042.768.025.739.03 1.74.047 2.542.478.897.475 1.342 1.432 1.369 2.896.002 1.497-.623 2.741-1.802 3.456-1.337.829-3.22.804-4.73-.014a.564.564 0 0 0-.783.241.589.589 0 0 0 .213.789c.93.498 2 .77 3.055.75.295.011.582-.034.868-.08zm9.51-1.506a7.383 7.383 0 0 0 2.07-.65 6.117 6.117 0 0 0 2.763-2.758c1.226-2.455.822-5.562-.941-7.426-.813-.87-1.896-1.403-3.096-1.565-1.32-.173-2.776.087-4.312.771-.155-.24-.44-1.105-.466-3.127-.043-1.754.13-3.074.266-3.33.895-1.023 3.429-1.336 5.095-1.57 1.035-.135 1.637-.23 1.991-.404a.544.544 0 0 0 .259-.775c-.131-.273-.474-.395-.775-.259-.187.118-.936.207-1.628.287-1.986.256-4.687.625-5.852 1.984-.15.17-.309.46-.412 1.475a19.5 19.5 0 0 0-.114 2.25c-.002 1.468.125 3.385.724 4.2.335.447.825.575 1.29.354 2.579-1.142 4.78-.962 6.189.517 1.442 1.504 1.76 4.067.732 6.11-1.07 2.136-3.405 3.152-6.401 2.775a.592.592 0 0 0-.653.514c-.04.3.186.617.515.653.986.108 1.896.11 2.755-.026zm12.066 5.37c2.12-.335 2.098-5.294 1.957-6.74 3.698-3.903 6.571-7.265 7.53-10.294.015-.09.03-.181.017-.267-.05-.315-.353-.56-.64-.515a.611.611 0 0 0-.466.396c-.852 2.778-3.705 6.078-6.572 9.116-.174-1.47-.437-3.131-.713-4.879l3.551-1.12c.277-.103.413-.359.354-.731-.045-.287-.335-.446-.621-.401l-3.466 1.107-.304-1.92c1.047-2.66 1.469-5.37 1.056-7.977-.163-1.031-.766-3.725-2.17-3.503-1.145.182-1.03 2.395-.998 3.153.127 2.597.472 5.352 1.269 10.418l.078.497c.386 2.435.74 4.669.916 6.52-1.343 1.534-2.617 3.498-2.29 5.56.126.802.624 1.721 1.512 1.58zm.243-18.858c-.263-2.22-.862-6-.492-7.557.442.753.688 1.565.824 2.424.272 1.719.038 3.576-.332 5.133zm-.4 17.68a1.335 1.335 0 0 1-.205-.555c-.218-1.375.517-2.666 1.24-3.661.016 1.025-.158 3.636-1.035 4.216zm11.474-8.013c.31-.078.508-.315.486-.635-.209-1.875-.126-6.175.543-8.806 1.343 1.432 3.103 2.533 5.022 2.229 1.604-.254 2.537-1.224 3.546-2.265a.557.557 0 0 0 .185-.499c-.054-.344-.434-.518-.692-.478-.515.082-1.822 1.845-3.311 2.081-2.234.354-3.874-2.587-4.992-2.41-1.317.209-1.383 3.684-1.514 5.085a36.837 36.837 0 0 0-.776-2.49c-.112-.335-.324-.566-.64-.516-.343.055-.56.353-.515.64 1.133 3.256 1.994 7.582 1.999 7.61.078.311.344.504.659.454zm8.713-14.504c.515-.082.544-.644.485-1.017-.073-.458-.36-.97-.846-.893-.344.054-.523.405-.482.663.04.258.164.297.182.412.014.086-.034.152-.003.353.046.286.263.545.664.482zm4.892 12.35c2.922-.463 4.73-5.917 5.628-8.585.181-.528.163-.642.15-.728-.05-.315-.325-.565-.64-.515a.611.611 0 0 0-.466.396c-.993 3.182-2.762 7.954-4.853 8.286-2.12.335-2.929-4.029-3.124-5.26a25.163 25.163 0 0 1-.202-1.466c-.055-.344-.325-.565-.64-.515a.604.604 0 0 0-.515.64c.053.52.13 1.006.212 1.522.372 2.349 1.385 6.71 4.45 6.224zm9.624-1.525c2.922-.463 4.73-5.917 5.629-8.584.18-.528.162-.642.148-.728-.05-.315-.324-.566-.64-.516a.611.611 0 0 0-.465.397c-.993 3.182-2.762 7.954-4.853 8.285-.86.136-1.55-.518-2.09-1.518.67-2.25.828-4.037.638-5.24-.301-1.714-1.217-2.303-1.847-2.203-1.174.186-1.359 1.8-1.055 3.72.54 3.408 1.871 6.809 4.535 6.387zm-3.019-4.601c-.134-.478-.211-.965-.284-1.423-.186-1.175-.33-2.268-.02-2.904.1.072.36.413.51 1.182.123.773.053 1.812-.206 3.145zm16.854 2.41c2.921-.463 4.73-5.917 5.628-8.584.18-.528.163-.643.149-.729-.05-.315-.324-.565-.64-.515a.611.611 0 0 0-.465.397c-.994 3.181-2.763 7.954-4.854 8.285-1.289.204-2.462-2.752-3.366-5.31-.676-1.86-.935-3.492-1.88-3.343-1.318.209-1.384 3.684-1.514 5.085-.213-.789-.51-1.74-.776-2.49-.112-.335-.325-.566-.64-.516-.344.055-.56.353-.515.64 1.132 3.256 1.994 7.582 1.998 7.61.079.311.344.504.66.454.31-.078.507-.315.486-.635-.21-1.875-.268-5.77.401-8.402 1.012 2.864 2.55 8.493 5.328 8.053zm8.425-1.305c1.432-.227 2.238-1.999 2.357-3.104.732 1.47 1.706 2.43 3.024 2.222 2.921-.462 4.73-5.916 5.628-8.584.18-.528.162-.642.149-.728-.05-.315-.325-.565-.64-.515a.611.611 0 0 0-.465.396c-.994 3.182-2.763 7.954-4.854 8.286-1.633.258-2.957-4.582-3.306-6.788.607-1.358 1.27-4.957.789-7.994-.168-1.06-.779-3.987-2.182-3.765-1.432.227-.946 4.55-.106 9.898l.08.5c-.485-.275-1.004-.399-1.548-.312-2.348.372-3.161 3.583-2.716 6.39.376 2.378 1.642 4.438 3.79 4.098zm1.453-11.593c-.327-2.062-.727-5.14-.698-7.553.236.374.568 1.173.836 2.863.235 1.489.141 3.119-.138 4.69zm-1.634 10.447c-1.346.213-2.15-1.157-2.423-2.875-.363-2.292.222-5.086 1.597-5.303 1.69-.268 2.193 2.353 2.357 3.385.204 1.288.073 4.539-1.531 4.793zm15.186-1.26c2.921-.463 4.73-5.917 5.628-8.584.18-.528.163-.643.149-.728-.05-.316-.325-.566-.64-.516a.611.611 0 0 0-.465.397c-.994 3.182-2.763 7.954-4.854 8.285-1.633.259-2.957-4.582-3.306-6.787.607-1.359 1.27-4.958.789-7.994-.168-1.06-.779-3.987-2.182-3.765-1.432.227-.946 4.549-.106 9.898l.101.637c.462 2.878 1.684 9.664 4.886 9.157zm-3.928-10.711c-.327-2.063-.727-5.141-.698-7.553.236.373.568 1.172.836 2.862.235 1.49.141 3.12-.138 4.69zm13.296 16.656c1.375-.218 2.32-1.66 2.75-3.401.29-1.133.329-2.372.233-3.531 3.698-3.904 6.572-7.266 7.53-10.295.015-.09.03-.181.017-.267-.05-.315-.353-.56-.64-.515a.611.611 0 0 0-.465.396c-.852 2.778-3.678 6.073-6.544 9.111a131.94 131.94 0 0 0-.853-6.5c-.104-.66-.246-1.37-.373-2.173-.05-.315-.349-.532-.635-.486-.344.054-.566.324-.525.582.292 5.738-.507 8.478-1.567 8.645-1.002.16-1.636-2.177-1.954-4.182-.172-1.089-.247-1.929-.26-2.749-.054-.343-.319-.536-.634-.486a.604.604 0 0 0-.515.64c.027.729.11 1.802.286 2.92.4 2.52 1.311 5.312 3.288 4.999 1.432-.227 1.984-1.93 2.321-3.51.138 1.24.271 2.453.34 3.44-1.598 1.78-3.836 3.779-3.45 6.214.213.788.82 1.28 1.65 1.148zm-.182-1.146c-.257.04-.322-.184-.345-.327-.222-1.404 1.643-3.343 2.385-4.224.097 1.54-.665 4.333-2.04 4.55zm14.022-4.159c.201-.032.388-.15.442-.363 1.35-3.708 2.234-6.285 2.772-8.455.615-2.417.744-4.2.466-5.77-.617-3.338-3.24-5.623-8.196-8.92a.595.595 0 0 0-.826.16c-.164.261-.105.634.185.793 4.666 3.137 7.142 5.24 7.695 8.177.251 1.4.124 3.005-.452 5.298-.518 2.108-1.406 4.656-2.733 8.331-.102.28.067.606.352.737.09.015.21.026.295.012z"/>
</svg>
