<svg xmlns="http://www.w3.org/2000/svg" width="555" height="402" viewBox="0 0 555 402">
    <g fill="none" fill-rule="evenodd">
        <g>
            <path fill="#FFF" d="M81.65 132.76c0-5.221-4.276-9.455-9.55-9.455-.245 0-.486.011-.726.03-1.96-5.52-7.267-9.479-13.513-9.479-.309 0-.615.013-.918.032-2.729-9.126-11.257-15.787-21.361-15.787-11.38 0-20.76 8.449-22.108 19.355-.381-.035-.767-.057-1.159-.057C5.515 117.4 0 122.955 0 129.808c0 6.852 5.515 12.408 12.315 12.408.122 0 .24-.008.36-.011v.01h60.1v-.027c4.96-.342 8.875-4.43 8.875-9.428" transform="translate(31.318)"/>
            <path fill="#000" d="M480.885 396.133c-.22.712-.977 1.11-1.689.889-.711-.222-1.11-.977-.888-1.689.22-.712.976-1.11 1.688-.888.712.22 1.11.976.889 1.688" transform="translate(31.318)"/>
            <path fill="#F66" d="M452.755 166.981l-4.117 9.605-48.543 53.343-2.227-22.47v-19.896l6.86-13.721 10.814-13.231s-21.105 2.254-23.85 8.428c-2.744 6.174-10.291 18.524-9.605 34.99.686 16.466.686 32.932-4.811 35.681-8.225 4.119-15.07 11.187-21.563 17.548 11.563-2.108 11.376 12.674 10.135 19.717.505-2.867 13.717-8.757 16.239-10.512v20.583l9.011 2.058c9.104 1.978 8.274 7.928 2.389 14.28 5.454-.85 10.698-.535 16.17-.942 7.444-.553 14.892-1.046 22.341-1.503 25.214-1.544 31.133-8.747 37.309-17.496 7.2-10.2 10.746-26.075 11.974-37.923 1.243-12.002 4.227-23.888 3.93-36.013-.287-11.744-4.02-24.55-14.05-31.628-7.707-5.439-13.218-6.91-20.122-13.812-5.661-5.662 1.716 2.228 1.716 2.228" transform="translate(31.318)"/>
            <path fill="#F7CDCD" d="M334.06 226.67s-19.874-24.537-18.87-49.226c0 0-13.46 5.899-20.204 1.041-3.086-2.224-5.477-5.283-7.533-8.485-6.3-9.806-9.104-19.688-12.711-30.61-1.347-4.074-4.322-17.002-4.322-17.002l14.928-11.323s-1.546-1.544 5.144 15.952c6.69 17.495 16.468 28.3 16.468 28.3s10.291-12.863 15.437-20.582c5.146-7.719 15.952 9.777 15.952 9.777l-.515 15.951c7.206-8.233 14.408-27.786 22.642-34.99 2.606-2.282 17.876 4.795 20.453 6.385 10.419 6.427 9.384 16.455 9.391 27.062 0 0-10.977 12.178-12.35 27.271-1.371 15.094-.686 32.932-.686 32.932s-35.676 15.78-43.223 7.547" transform="translate(31.318)"/>
            <path stroke="#000" stroke-linecap="round" stroke-linejoin="round" stroke-width="2.451" d="M338.348 144.512s-10.805-17.496-15.951-9.777c-5.146 7.719-15.437 20.582-15.437 20.582s-9.779-10.805-16.468-28.3c-6.69-17.496-5.144-15.952-5.144-15.952l-14.927 11.323s2.975 12.928 4.32 17.002c3.607 10.922 6.412 20.804 12.712 30.61 2.056 3.202 4.447 6.26 7.533 8.485 6.745 4.858 20.205-1.041 20.205-1.041-1.005 24.689 18.87 49.226 18.87 49.226M337.834 160.463c7.206-8.233 14.408-27.786 22.642-34.99 2.606-2.282 17.875 4.795 20.453 6.385 10.419 6.427 9.384 16.455 9.391 27.06" transform="translate(31.318)"/>
            <path fill="#F7CDCD" d="M112.452 190.994s8.92 4.116 10.977 12.35c2.059 8.232.687 39.792.687 39.792l7.547 2.058 10.977 13.722-21.269 10.292-15.094-26.072-3.906-29.337 3.906-11.142 6.175-11.663z" transform="translate(31.318)"/>
            <path fill="#F66" d="M94.614 231.473l6.86 25.385-3.43 3.43 9.605 24.014 20.928 3.207s4.914 19.11-6.552 18.563c-11.466-.545-70.979-2.73-80.261-7.643-9.281-4.914-3.275-54.054.001-76.987 1.57-10.997 6.688-19.759 16.178-25.525 10.057-6.111 21.047-8.26 28.342 2.57-.05.048-.619-.625-.61-.634 3.077 11.177 5.966 22.413 8.939 33.62" transform="translate(31.318)"/>
            <path stroke="#000" stroke-linecap="round" stroke-linejoin="round" stroke-width="2.451" d="M505.584 308.486L383.631 309.172 415.019 314.832 362.723 330.941 294.878 313.039 294.094 252.412 361.939 266.479 362.534 318.948M219.483 229.415s-3.193 4.717-7.586 6.977c-7.95 4.093-19.825 7.168-23.803 9.489-6.988 4.076-16.082 13.487-20.068 24.184-13.036 34.99-12.864 59.175-10.805 65.349 2.058 6.174 64.32 22.64 66.378 20.583 2.06-2.058 6.86-9.262-.001-11.32-6.861-2.06-34.305-5.489-41.166-18.525-6.861-13.035 14.925-42.708 14.925-42.708M206.402 361.303c-22.293 13.657-44.857 27.367-64.106 39.633 4.441 0 3.294-2.068 0 0 93.654.342 186.276.342 279.928.342 19.554-25.728 37.049-52.485 57.287-78.555 0 7.558-.448.618 0 0 .344 22.982.344 44.594 0 67.236M242.122 270.58c-4.807 8.38-.507 15.445 2.69 23.328 3.305 8.156-1.865 14.17-3.218 22.102M247.27 256.687s8.232 9.777 9.26 23.155c.88 11.472-3.086 32.417 8.749 31.389M66.334 276.59s7.645-55.693 4.914-60.06M86.537 199.057l15.416 58.875s-2.312 2.005-4.496 2.277c-2.184.273 10.364 23.235 10.364 23.235M124.993 245.025L129.987 244.32 142.742 257.685 113.996 274.696" transform="translate(31.318)"/>
            <path stroke="#000" stroke-linecap="round" stroke-linejoin="round" stroke-width="2.451" d="M456.698 202.657l-13.12 67.665-47.082 16.466-5.404 2.316c-1.544-.772-17.495-3.344-20.84 4.373-2.059 4.751-3.86 14.15-3.86 14.15s1.545 2.574 2.573.516c1.029-2.058 4.117-10.55 4.889-11.578 0 0-.257 5.146 1.544 5.146" transform="translate(31.318)"/>
            <path stroke="#000" stroke-linecap="round" stroke-linejoin="round" stroke-width="2.451" d="M449.494 148.628s-4.116 9.777 1.545 15.439c6.905 6.902 12.415 8.373 20.121 13.811 10.03 7.078 13.763 19.885 14.052 31.628.296 12.126-2.688 24.013-3.931 36.014-1.227 11.848-4.773 27.723-11.974 37.923-6.175 8.749-12.094 15.952-37.309 17.496-25.213 1.543-38.59 2.83-38.59 2.83" transform="translate(31.318)"/>
            <path stroke="#000" stroke-linecap="round" stroke-linejoin="round" stroke-width="2.451" d="M403.699 282.414L400.095 229.93 450.01 164.065 450.008 192.88 438.688 191.852 446.921 205.23 404.729 231.473M263.732 226.598s-4.257 6.214-1.978 11.047c2.277 4.833-1.317 6.623-4.347 5.575-3.029-1.048-5.355 5.226-7.661 7.057-2.307 1.832-8.94 4.796-13.703.518-4.762-4.276-14.584-8.078-18.008-2.792-3.425 5.288-4.722 7.468-4.722 7.468M193.945 69.406c5.636 7.473 3.684 14.224 7.787 22.246.786 2.489-1.58 5.466-5.596 4.263-.08.796-.238 2.387.35 3.382M150.529 184.133s-5.145-18.52-5.66-22.126c-1.041-7.278-2.46-14.723-1.781-22.103.79-8.618 9.985-12.705 14.978-19.204 3.097-4.03 3.785-12.208 3.785-12.208M133.444 247.473s.48-11.973 2.396-17.719 3.353-15.803 4.79-11.493c1.438 4.31.48 8.14.48 11.972 0 3.831.958 8.141.958 8.141M144.943 251.304s11.02-10.056 11.98-11.494c.957-1.436 3.355-8.14 4.791-11.493 1.438-3.351 3.355-8.619 1.438-10.535l-1.916-1.915" transform="translate(31.318)"/>
            <path stroke="#000" stroke-linecap="round" stroke-linejoin="round" stroke-width="2.451" d="M141.591 226.881L150.213 233.586 169.858 201.979 149.734 192.88 132.007 220.656M214.337 181.045c6.643-1.873 22.641-2.058 28.817-7.203 0-22.64 2.115-64.972 2.115-64.972s-11.834-1.03-16.98 1.029c0 9.118-.731 18.21-1.303 27.306-.323 5.137-5.015 23.91-4.416 25.316-1.57-.112-16.245-6.088-24.423-9.134-9.292-3.46-18.648-6.754-28.004-10.042M172.141 178.988c9.076.292 18.695-.148 27.788.514M240.578 102.833l4.632-15.437s-1.544-11.836-3.087-12.35M231.317 106.434s-8.748-17.495-6.176-18.524c2.573-1.028 4.631 2.058 5.146 4.631h9.262l3.088-27.271-12.35-1.545-3.087 21.612M414.295 119.48c-8.88 5.65-1.47 16.17-5.718 23.896-.84 1.526 1.833 2.125 4.323 1.328 2.492-.795 2.645 4.382 3.397 6.175.751 1.793 3.824 7.326 5.926 7.526M98.388 160.463c0 4.147 2.38 6.765 6.594 6.804 1.893.016 3.61-.636 4.824-2.125.438-.538 2.097-6.05 1.943-6.06 0 .002 3.374.19 3.374.19.3 2.91-.153 6.952 3.462 7.705 7.452 1.552 7.622-5.722 8.165-10.893-3.833.367-9.128-.73-11.627 2.999h-3.374c-.363 0-.988-1.521-1.315-1.771-2.67-2.036-8.425-1.304-11.718-1.603h-.14l-11.851-9.654M117.882 139.483c3.408 5.654 1.84 13.083 1.84 13.083s-1.438-4.11-4.868-2.395M115.883 164.58c1.082 3.821 1.03 13.206-5.145 9.605M108.724 183.691c-3.227 8.855-14.346 4.051-19.579.048-3.506-2.682-7.063-8.63-11.485-9.739-7.773-1.948-6.257 14.592-11.872 17.96-5.46 3.275-20.747 6.551-24.024 29.483-3.276 22.932-9.282 72.072 0 76.986 9.283 4.913 68.794 7.099 80.26 7.644 11.467.546 6.553-18.564 6.553-18.564L58.688 274.95M376.623 106.701c.02-.589.007-1.171-.04-1.744-.898-11.056-8.024-23.371-14.49-32.062-4.733-6.36-11.394-10.258-19.338-10.846-6.876-.509-15.43-.178-21.677 2.848-18.113 8.776-24.99 64.692 4.127 66.235 2.317.124 4.561-.567 6.53-1.762 1.772-1.075 3.122-3.465 4.89-4.142-5.044 1.932-9.18-2.502-10.8-7.389-.224-.676-1.408-1.235-.685-1.886 1-.9 2.904-3.732 3.503-4.228.393-.325.4-.705-.269-.525-1.732.465-4.38 1.702-5.4.959-1.242-.906-.104-4.517-.465-6.754-.19-1.18-.665-1.774-1.826-2.006-1.274-.253-3.315.288-3.908-1.28-.597-1.581 1.093-3.339 1.432-4.815.687-2.99.65-6.506 2.342-9.15 1.594-2.49.142-4.66 1.108-7.364.706-1.975 2.654-5.326 4.509-6.43-.333.197 5.318 5.066 5.73 5.392 1.852 1.472 3.944 2.642 6.204 3.359 3.778 1.197 10.648-.323 11.966 4.798 1.409 5.477-2.619 9.5.38 14.91 3.431 6.197 1.02 8.963 5.995 14.29 1.032 1.106 4.302 2.102 5.739 2.59 8.529 2.896 14.185-5.439 14.443-12.998z" transform="translate(31.318)"/>
            <path fill="#000" d="M185.317 67.726c3.713-2.089 12.934-1.742 13.468-7.463.661-7.083-13.459-9.07-18.225-8.96-16.024.373-25.866 11.73-34.285 24.712-4.47 6.891-7.612 26.549.19 32.528 1.523 1.167 3.41 1.728 5.252 2.265 2.796.816 5.646 1.64 8.559 1.588 4.984-.088 16.44-9.49 10.681-14.865-2.6-2.426-3.739-9.634-.758-12.26 2.21-1.946 4.044.424 5.63-.441 5.497-3 3.768-9.964 6.556-14.701.497-.846 1.565-1.634 2.932-2.403M424.626 115.918c-5.657-2.448-8.223 2.392-13.2-3.26-3.19-3.622-8.303-11.636-3.905-16.168 8.829-9.09 20.043 2.1 28.462 4.245 5.152 1.315 12.062-.665 16.586 2.71 3.322 2.478 3.933 5.505 5.291 9.43 1.358 3.925 2.307 5.834 3.193 13.004.885 7.17 1.803 11.71-1.38 15.503-3.181 3.793-9.177 7.63-9.01 2.87.167-4.758 1.723-8.221.365-12.147-1.357-3.926-2.377-8.97-5.629-8.312-3.24.655-7.118.918-6.877 5.018.647 10.982-6.674 3.296-7.858-2.565-1.731-8.56-3.557-9.251-6.038-10.328M102.71 141.918c1.436.749 11.47 3.478 16.76-2.233 14.476-15.631-33.922-25.101-44.908-13.064-5.21 5.71-7.839 15.018-6.956 26.911.743 9.973 7.492 13.943 9.558 13.66 2.068-.283.591-8.562.196-12.692-.77-8.037 1.499-10.05 5.254-9.629 6.497.727 1.403 10.851 6.87 11.695 3.772.583 8.685-17.016 13.227-14.648M325.799 93.53c.263.68 1.028 1.017 1.708.755.681-.263 1.02-1.027.757-1.706-.263-.68-1.029-1.017-1.71-.754-.68.263-1.02 1.026-.755 1.706" transform="translate(31.318)"/>
            <path fill="#FFF" d="M133.835 21.086c0-3.035 2.485-5.496 5.55-5.496.143 0 .284.007.423.017 1.139-3.208 4.224-5.509 7.854-5.509.18 0 .358.007.534.019C149.782 4.812 154.74.94 160.612.94c6.615 0 12.068 4.911 12.85 11.25.222-.02.447-.032.674-.032 3.953 0 7.159 3.229 7.159 7.212 0 3.983-3.206 7.212-7.159 7.212-.07 0-.14-.004-.209-.006v.006h-34.933v-.016c-2.883-.199-5.16-2.575-5.16-5.48" transform="translate(31.318)"/>
            <path fill="#000" d="M376.995 313.764c.264.68 1.029 1.017 1.71.754.68-.263 1.019-1.027.755-1.705-.263-.68-1.029-1.017-1.709-.755-.68.263-1.02 1.027-.756 1.706M187.93 83.553c.263.679 1.028 1.017 1.708.754.68-.263 1.02-1.026.756-1.705-.263-.68-1.028-1.017-1.71-.754-.68.262-1.019 1.026-.755 1.705M253.279 230.204c.264.679 1.028 1.017 1.71.754.68-.263 1.018-1.026.756-1.705-.264-.68-1.03-1.017-1.71-.754-.681.262-1.02 1.026-.756 1.705M259.605 344.235c.309.66 1.095.947 1.756.638.662-.308.949-1.092.64-1.752-.308-.66-1.094-.945-1.756-.638-.66.307-.948 1.092-.64 1.752" transform="translate(31.318)"/>
            <path stroke="#000" stroke-linecap="round" stroke-linejoin="round" stroke-width="2.451" d="M335.004 126.245c3.692-2.153 4.748-.772 10.936-9.691M108.923 213.253s-15.834-14.196-14.196-15.288c1.638-1.09 10.374-3.822 12.558-1.09 2.184 2.729-4.914 15.286-4.914 16.925 0 1.637 3.822 28.936 3.822 28.936l9.282 15.835M40.413 296.822l-29.845 25.214c15.474 1.743 124.525.515 124.525.515s12.005-13.481 18.011-24.185" transform="translate(31.318)"/>
            <path stroke="#000" stroke-linecap="round" stroke-linejoin="round" stroke-width="2.451" d="M10.053 327.696L10.053 334.9 136.123 334.385 157.734 304.883M351.727 260.031c.054.014 12.898-9.143 14.923-10.806 5.869-4.818 11.7-11.278 14.063-18.868 1.908-6.129.256-12.959.48-19.233.306-8.544.984-17.166 2.913-25.514 4.842-26.862 31.436-25 31.436-25s-16.99 18.893-17.505 29.698c-.514 10.805.516 30.188.516 30.188M128.92 300.939s6.174-.515 11.32-1.03c5.145-.514 11.835 0 13.378-2.573 1.543-2.572 2.573-15.436-1.029-15.95-3.602-.516-7.204 0-7.204 0M134.064 285.502s5.661-6.69 7.204-7.204c1.544-.515 4.118 3.087 4.118 3.087M224.114 147.599c-1.544-3.088-11.32-24.185-14.408-25.213-3.088-1.03-11.834 2.058-14.922.514-3.087-1.543-5.66-5.143-5.66-8.745.001 5.449-19.63 7.125-22.642 4.114l-.514 8.227c-.077 1.231 7.022 1.494 7.718 1.55M177.802 237.648c-.71-.888-10.813-5.411-14.408-13.894M95.471 253.599L92.899 254.114" transform="translate(31.318)"/>
            <path fill="#000" d="M267.086 218.856c6.26-5.3 3.49-14.064-.902-19.722-7.934-10.224-30.117-25.967-41.844-12.937-5.671 6.301-12.717 13.756-13.517 22.899-.405 4.625.855 9.9 3.21 13.897 1.624 2.758 4.42 8.48 5.964 7.965 1.415-.472 6.33-4.971 6.753-6.416 1.415-4.822 7.76-12.132 13.122-7.963 1.789 1.407-.52 16.635 4.436 11.91.98-.936 5.053-7.247 6.704-6.763 4.986 1.462 11.796.748 16.074-2.87M204.286 181.463s5.308-4.13 9.894-2.204c4.587 1.926 8.96 5.16.637 14.384-8.323 9.225-17.303 9.175-21.663 19.139-1.853 4.235-2.826 9.245-5.36 13.042-1.46-3.507-1.698-8.314-1.325-12.132.8-8.196 14.745-30.106 17.817-32.23" transform="translate(31.318)"/>
            <path stroke="#000" stroke-linecap="round" stroke-linejoin="round" stroke-width="2.451" d="M271.316 92.605c3.225-1.437 5.97.187 5.97 2.851M282.089 107.977c1.01-5.051 2.996-10.144 1.715-15.265-1.447-5.787-6.626-7.857-11.835-5.832-12.35 4.803-13.379 7.204-12.522 11.664" transform="translate(31.318)"/>
            <path stroke="#000" stroke-linecap="round" stroke-linejoin="round" stroke-width="2.451" d="M271.283 92.712c-2.058.515-20.926 10.806-20.926 10.806l7.376 18.524s14.204-8.719 19.725-11.835" transform="translate(31.318)"/>
            <path stroke="#000" stroke-linecap="round" stroke-linejoin="round" stroke-width="2.451" d="M282.089 108.32c-.343-.686-6.176-13.72-10.292-9.776-.967.927 2.573 6.346 4.974 7.89M375.226 225.298s-29.37 13.509-43.224 6.175c-11.663-6.175-9.606 18.524-9.606 18.524M254.13 183.79s20.583-4.116 25.386-2.744c0 0 9.262 2.401 10.634 27.786 1.373 25.385 1.373 24.013 5.489 25.385M382.476 314.54L386.502 315.639M368.819 315.65L379.746 318.73M379 302.225c.257 1.801.257 3.345 1.8 2.316M382.087 304.026c1.286.258 3.345 0 6.176-1.286M390.063 260.804s-21.955 17.323-27.872 19.38M438.347 178.644s-13.407 5.327-19.897-5.489c-4.116-6.86 4.802-9.605 4.802-9.605M230.46 346.392c7.11-4.266 17.625-.953 24.876 1.473 3.628 1.216 11.317 14.916 5.998 13.278-.42-1.28-4.282-4.208-6.363-6.08-2.083-1.871-7.54-3.222-5.986-3.182 13.379.343 2.058 5.832 2.058 5.832s-.343 3.773-3.43 2.743c-3.087-1.028-5.489-2.058-10.292-2.4-4.802-.343-8.576.342-8.576.342s-8.285 3.292 3.747 5.591l66.201 7.444 19.232-35.257-59.318-6.867-9.852 12.594 6.264 1.128M417.92 133.343c.606 2.005 2.156 2.865 4.171 3.035 2.3.194 3.117-2.156 3.117-2.156M195.813 100.774s-4.632.514-6.175 0c-1.544-.515-1.03 4.116 1.543 5.145M100.622 151.851c1.307-.944 2.553-1.745 4.333-1.609 1.525.117 3.244 1.023 3.86 2.303M403.738 27.477L406.628 21.985 411.965 18.948 406.628 15.911 403.698 10.377 400.768 15.911 395.43 18.948 400.808 21.985zM512.973 285.191L515.862 279.699 521.2 276.662 515.862 273.625 512.932 268.091 510.002 273.625 504.665 276.662 510.044 279.699z" transform="translate(31.318)"/>
            <path fill="#F66" d="M8.722 0.294L5.792 5.828 0.453 8.865 5.832 11.903 8.761 17.394 11.652 11.903 16.989 8.865 11.652 5.828z" transform="translate(31.318) translate(505.404 1.08)"/>
            <path fill="#F66" d="M114.648 89.359L111.719 94.892 106.38 97.929 111.759 100.967 114.688 106.458 117.578 100.967 122.916 97.929 117.578 94.892z" transform="translate(31.318)"/>
            <path fill="#FFF" d="M68.041 26.582L65.111 32.116 59.772 35.152 65.151 38.19 68.08 43.682 70.971 38.19 76.308 35.152 70.971 32.116z" transform="translate(31.318)"/>
            <path stroke="#000" stroke-linecap="round" stroke-linejoin="round" stroke-width="2.43" d="M410.994 54.515c0-4.145 3.694-7.504 8.252-7.504.211 0 .419.009.626.024 1.693-4.382 6.28-7.524 11.675-7.524.266 0 .531.01.794.025 2.358-7.244 9.725-12.53 18.455-12.53 9.831 0 17.937 6.705 19.1 15.362.33-.029.663-.045 1.001-.045 5.878 0 10.641 4.41 10.641 9.848 0 5.44-4.763 9.848-10.641 9.848-.104 0-.207-.005-.311-.008v.008h-51.922v-.02c-4.286-.272-7.67-3.518-7.67-7.484z" transform="translate(31.318)"/>
        </g>
        <path stroke="#000" stroke-linecap="round" stroke-linejoin="round" stroke-width="3.026" d="M10.309 383.629L13.895 376.687 20.519 372.849 13.895 369.01 10.259 362.016 6.623 369.01 0 372.849 6.673 376.687z"/>
    </g>
</svg>
