<svg xmlns="http://www.w3.org/2000/svg" xmlns:xlink="http://www.w3.org/1999/xlink" width="92" height="92" viewBox="0 0 92 92">
    <defs>
        <path id="a" d="M0 0h92v92H0z"/>
    </defs>
    <g fill="none" fill-rule="evenodd">
        <mask id="b" fill="#fff">
            <use xlink:href="#a"/>
        </mask>
        <path fill="#000" d="M86.262 65.166h-7.667a1.918 1.918 0 0 1-1.899-1.935 1.92 1.92 0 0 1 .94-1.63c.59-.34.954-.967.959-1.647V51.75a1.917 1.917 0 0 0-1.918-1.916H65.175v-7.668h11.502c5.294 0 9.585 4.291 9.585 9.584v8.204c.005.68.369 1.307.959 1.647a1.917 1.917 0 0 1-.959 3.565zM3.834 55.7L3.72 36.416h34.293c.109.011.218.011.327 0h23.003V51.75l.115 3.834-57.623.115zm13.744-23.116h18.518v-7.667H17.578v7.667zm7.342-11.5h3.834V11.5H24.92v9.584zM13.418 5.75c0-1.059.859-1.917 1.918-1.917h23.003a1.917 1.917 0 0 1 0 3.833H15.336a1.917 1.917 0 0 1-1.918-1.916zm76.678 46c0-7.41-6.007-13.417-13.419-13.417H65.175V36.3a3.72 3.72 0 0 0-3.718-3.718H39.93v-7.667h.326a1.917 1.917 0 0 0 0-3.833h-7.668V11.5h5.751a5.75 5.75 0 1 0 0-11.5H15.336a5.75 5.75 0 1 0 0 11.5h5.75v9.583h-7.668a1.917 1.917 0 0 0 0 3.833h.326v7.667H3.719A3.72 3.72 0 0 0 0 36.3V55.7a3.72 3.72 0 0 0 3.72 3.717h57.737a3.719 3.719 0 0 0 3.718-3.717v-2.033h9.585v5.31A5.75 5.75 0 0 0 78.595 69h7.667a5.751 5.751 0 0 0 3.834-10.024V51.75zm-3.988 35.19c-.478 1.035-2.51 1.189-3.68 1.189-1.169 0-3.201-.154-3.68-1.189-.825-1.764 1.38-5.923 3.68-9.104 2.3 3.22 4.505 7.379 3.68 9.143v-.039zm-5.137-13.416c-1.38 1.61-8.07 9.947-5.75 15.083C76.331 90.85 78.727 92 82.427 92c3.7 0 6.096-1.15 7.15-3.393 2.377-5.136-4.312-13.416-5.75-15.083a1.917 1.917 0 0 0-2.857 0z" mask="url(#b)"/>
    </g>
</svg>
