<?xml version="1.0" standalone="no"?>
<!DOCTYPE svg PUBLIC "-//W3C//DTD SVG 1.1//EN" "http://www.w3.org/Graphics/SVG/1.1/DTD/svg11.dtd" >
<svg xmlns="http://www.w3.org/2000/svg" xmlns:xlink="http://www.w3.org/1999/xlink" version="1.1">
<metadata>
Created by FontForge 20190801 at Fri Feb 16 20:21:15 2018
 By www-data
Copyright (c) 2014 Monotype GmbH. All rights reserved.
</metadata>
<defs>
<font id="fontsAvenirbookitalic" horiz-adv-x="556" >
  <font-face 
    font-family="fontsAvenirbookitalic"
    font-weight="400"
    font-style="italic"
    font-stretch="normal"
    units-per-em="1000"
    panose-1="2 11 5 2 2 2 3 9 2 4"
    ascent="727"
    descent="-273"
    x-height="468"
    cap-height="708"
    bbox="-167 -288 1044 940"
    underline-thickness="50"
    underline-position="-100"
    slope="-8"
    unicode-range="U+000D-FB02"
  />
<missing-glyph horiz-adv-x="512" 
d="M0 718h512v-718h-512v718zM50 50h412v617h-412v-617zM222 117v67h56v-67h-56zM271 234h-46l-3 19q1 50 12.5 76t47.5 62q32 31 41 47.5t9 35.5q0 36 -22.5 60.5t-53.5 24.5q-34 0 -55.5 -24.5t-26.5 -70.5l-50 8q6 67 41 102t94 35q55 0 89.5 -36t34.5 -95
q0 -36 -14.5 -63t-50.5 -59q-35 -31 -40.5 -47.5t-6.5 -74.5z" />
    <glyph glyph-name="IJ" unicode="IJ" horiz-adv-x="695" 
d="M196 708h72l-100 -708h-72zM637 708h72l-71 -501q-15 -104 -73.5 -164.5t-157.5 -60.5q-74 0 -116.5 38t-45.5 110l75 15q8 -97 99 -97q124 0 149 175z" />
    <glyph glyph-name="ij" unicode="ij" horiz-adv-x="476" 
d="M218 696q17 0 29 -11.5t12 -29.5q0 -22 -17 -38.5t-38 -16.5q-17 0 -29 12.5t-12 28.5q0 22 16.5 38.5t38.5 16.5zM153 468h66l-66 -468h-66zM454 696q17 0 29 -11.5t12 -29.5q0 -22 -17 -38.5t-38 -16.5q-17 0 -29 12.5t-12 28.5q0 22 16.5 38.5t38.5 16.5zM389 468h66
l-82 -583q-8 -56 -47 -90.5t-103 -34.5q-27 0 -50 10l17 57q23 -7 38 -7q33 0 54.5 22t26.5 61z" />
    <glyph glyph-name="napostrophe" unicode="&#x22;n" 
d="M178 708h71l-115 -185h-57zM364 480q154 0 154 -140q0 -26 -4 -55l-41 -285h-66l35 256q5 33 5 58q0 57 -27.5 81.5t-85.5 24.5q-54 0 -103 -52.5t-59 -123.5l-34 -244h-66l50 355q5 34 11 112v1h68q-1 -26 -8 -75h2q28 37 75 62t94 25z" />
    <glyph glyph-name="fi" unicode="fi" horiz-adv-x="537" 
d="M377 768q22 0 57 -7l-20 -60q-28 7 -50 7q-45 0 -69 -26t-33 -93l-17 -121h111l-9 -60h-111l-57 -408h-66l57 408h-99l9 60h99l18 127q25 173 180 173zM515 696q17 0 29 -11.5t12 -29.5q0 -22 -17 -38.5t-38 -16.5q-17 0 -29 12.5t-12 28.5q0 22 16.5 38.5t38.5 16.5z
M450 468h66l-66 -468h-66z" />
    <glyph glyph-name="fl" unicode="fl" horiz-adv-x="537" 
d="M377 768q22 0 57 -7l-20 -60q-28 7 -50 7q-45 0 -69 -26t-33 -93l-17 -121h111l-9 -60h-111l-57 -408h-66l57 408h-99l9 60h99l18 127q25 173 180 173zM490 756h66l-106 -756h-66z" />
    <glyph glyph-name=".notdef" horiz-adv-x="512" 
d="M0 718h512v-718h-512v718zM50 50h412v617h-412v-617zM222 117v67h56v-67h-56zM271 234h-46l-3 19q1 50 12.5 76t47.5 62q32 31 41 47.5t9 35.5q0 36 -22.5 60.5t-53.5 24.5q-34 0 -55.5 -24.5t-26.5 -70.5l-50 8q6 67 41 102t94 35q55 0 89.5 -36t34.5 -95
q0 -36 -14.5 -63t-50.5 -59q-35 -31 -40.5 -47.5t-6.5 -74.5z" />
    <glyph glyph-name=".null" horiz-adv-x="0" 
 />
    <glyph glyph-name=".null" horiz-adv-x="0" 
 />
    <glyph glyph-name="nonmarkingreturn" horiz-adv-x="333" 
 />
    <glyph glyph-name="CR" unicode="&#xd;" horiz-adv-x="278" 
 />
    <glyph glyph-name="space" unicode=" " horiz-adv-x="278" 
 />
    <glyph glyph-name="exclam" unicode="!" horiz-adv-x="278" 
d="M203 708h72l-73 -516h-72zM153 102q21 0 34.5 -13.5t13.5 -33.5q0 -23 -19 -42t-44 -19q-21 0 -34 13.5t-13 32.5q0 25 18 43.5t44 18.5z" />
    <glyph glyph-name="quotedbl" unicode="&#x22;" horiz-adv-x="519" 
d="M223 473l34 235h60l-34 -235h-60zM368 473l34 235h60l-34 -235h-60z" />
    <glyph glyph-name="numbersign" unicode="#" 
d="M246 496l59 212h61l-59 -212h133l59 212h61l-59 -212h90l-9 -60h-99l-44 -162h95l-9 -60h-103l-60 -214h-61l60 214h-133l-60 -214h-61l60 214h-102l9 60h110l44 162h-108l9 60h117zM422 436h-133l-43 -162h132z" />
    <glyph glyph-name="dollar" unicode="$" 
d="M355 722l10 70h48l-9 -68q110 0 173 -85l-63 -48q-14 31 -45 49t-71 18h-4l-37 -267q95 -36 135 -77.5t40 -104.5q0 -89 -65.5 -153.5t-166.5 -71.5l-10 -68h-48l9 66q-65 4 -117.5 34t-77.5 76l66 43q25 -36 64 -61t71 -25h4l39 279q-167 52 -167 171q0 85 63.5 150
t158.5 73zM206 513q0 -34 24 -59.5t81 -48.5l35 252q-61 -6 -100.5 -48t-39.5 -96zM346 314l-37 -264q38 0 68 14.5t47.5 37.5t26.5 47.5t9 46.5q0 82 -114 118z" />
    <glyph glyph-name="percent" unicode="%" horiz-adv-x="833" 
d="M164 -4l556 743l47 -27l-554 -743zM315 720q65 0 109.5 -42.5t44.5 -107.5q0 -79 -60.5 -139.5t-142.5 -60.5q-67 0 -110 42.5t-43 105.5q0 82 61 142t141 60zM173 526q0 -40 28.5 -68t72.5 -28q54 0 94 40t40 92q0 42 -28.5 70t-72.5 28q-53 0 -93.5 -39.5t-40.5 -94.5z
M667 338q66 0 109.5 -42.5t43.5 -105.5q0 -81 -61 -141.5t-142 -60.5q-67 0 -110 42.5t-43 106.5q0 80 61 140.5t142 60.5zM525 146q0 -42 29 -70t72 -28q53 0 93 39.5t40 92.5q0 42 -28 70t-73 28q-52 0 -92.5 -39.5t-40.5 -92.5z" />
    <glyph glyph-name="ampersand" unicode="&#x26;" horiz-adv-x="704" 
d="M405 726q69 0 110 -36t41 -98q0 -124 -184 -209l139 -168l121 168h81l-161 -219l136 -164h-102l-85 104q-57 -64 -113 -93t-121 -29q-86 0 -140.5 48t-54.5 122q0 156 192 241q-61 76 -61 146q0 73 56 130t146 57zM275 545q0 -25 17.5 -59.5t39.5 -56.5q88 42 119.5 76.5
t31.5 76.5q0 35 -24 56.5t-63 21.5q-49 0 -85 -34.5t-36 -80.5zM150 163q0 -49 36 -82t92 -33q46 0 88.5 23t95.5 81l-159 196q-87 -44 -120 -87.5t-33 -97.5z" />
    <glyph glyph-name="quotesingle" unicode="'" horiz-adv-x="260" 
d="M166 473l34 235h60l-34 -235h-60z" />
    <glyph glyph-name="parenleft" unicode="(" horiz-adv-x="260" 
d="M301 735l50 -33q-199 -249 -199 -515q0 -82 17.5 -142.5t61.5 -164.5l-58 -40q-86 146 -86 342q0 147 57.5 294t156.5 259z" />
    <glyph glyph-name="parenright" unicode=")" horiz-adv-x="260" 
d="M110 695l58 41q86 -152 86 -339q0 -147 -58 -295.5t-157 -261.5l-49 34q198 247 198 518q0 82 -17.5 144t-60.5 159z" />
    <glyph glyph-name="asterisk" unicode="*" horiz-adv-x="444" 
d="M271 565l21 143h60l-21 -143l147 45l13 -56l-147 -45l73 -121l-54 -36l-74 124l-110 -124l-42 36l107 121l-135 45l29 56z" />
    <glyph glyph-name="plus" unicode="+" horiz-adv-x="666" 
d="M350 333l31 225h60l-31 -225h225l-9 -60h-225l-31 -225h-60l31 225h-225l9 60h225z" />
    <glyph glyph-name="comma" unicode="," horiz-adv-x="278" 
d="M145 95h81l-114 -235h-67z" />
    <glyph glyph-name="hyphen" unicode="-" horiz-adv-x="333" 
d="M76 273h257l-9 -66h-257z" />
    <glyph glyph-name="period" unicode="." horiz-adv-x="278" 
d="M153 102q21 0 34.5 -13.5t13.5 -33.5q0 -23 -19 -42t-44 -19q-21 0 -34 13.5t-13 32.5q0 25 18 43.5t44 18.5z" />
    <glyph glyph-name="slash" unicode="/" horiz-adv-x="370" 
d="M5 1l405 725l54 -20l-404 -724z" />
    <glyph glyph-name="zero" unicode="0" 
d="M379 720q197 0 197 -254q0 -56 -7.5 -115t-28.5 -126t-53 -118t-86.5 -85t-124.5 -34q-96 0 -146.5 62.5t-50.5 186.5q0 42 5 88.5t16.5 103.5t34.5 106.5t54.5 92t80.5 67.5t109 25zM151 241q0 -187 135 -187q53 0 94 31.5t63.5 77.5t37 106t19 107t4.5 90
q0 188 -135 188q-43 0 -78 -21t-57 -52.5t-38.5 -75.5t-25 -82.5t-13 -81t-5.5 -63.5t-1 -37z" />
    <glyph glyph-name="one" unicode="1" 
d="M384 708h64l-100 -708h-72l87 618l-143 -112l-37 54z" />
    <glyph glyph-name="two" unicode="2" 
d="M379 720q86 0 138 -42t52 -112q0 -122 -133 -238l-301 -262h372l-9 -66h-450l12 83l310 276q79 70 102.5 111.5t23.5 79.5q0 46 -32.5 75t-88.5 29q-53 0 -96 -30.5t-61 -80.5l-74 8q25 77 89 123t146 46z" />
    <glyph glyph-name="three" unicode="3" 
d="M364 720q81 0 131 -42t50 -112q0 -65 -40.5 -118.5t-103.5 -73.5l2 -2q51 -11 82 -52t31 -100q0 -98 -73.5 -165t-183.5 -67q-167 0 -203 143l80 23q19 -100 138 -100q69 0 119.5 47t50.5 118q0 56 -42 87.5t-122 31.5h-28l9 66h29q89 0 136 41t47 111q0 44 -29 71
t-87 27q-87 0 -146 -77l-59 31q78 112 212 112z" />
    <glyph glyph-name="four" unicode="4" 
d="M424 708h92l-67 -474h102l-9 -66h-102l-24 -168h-72l24 168h-306l11 82zM433 636h-2l-300 -402h246z" />
    <glyph glyph-name="five" unicode="5" 
d="M204 708h361l-10 -66h-290l-34 -213q44 17 98 17q90 0 142.5 -53t52.5 -141q0 -109 -81.5 -186.5t-192.5 -77.5q-69 0 -118 33t-68 93l75 31q15 -42 48 -66.5t79 -24.5q74 0 129 55t55 129q0 65 -42 103.5t-111 38.5q-72 0 -152 -39z" />
    <glyph glyph-name="six" unicode="6" 
d="M400 708h85l-236 -304l2 -2q38 24 101 24q83 0 135.5 -52t52.5 -134q0 -108 -78 -180t-186 -72q-91 0 -146 50.5t-55 133.5q0 105 87 221zM147 182q0 -57 38 -92.5t101 -35.5q77 0 129 52.5t52 125.5q0 58 -37 93t-102 35q-75 0 -128 -51.5t-53 -126.5z" />
    <glyph glyph-name="seven" unicode="7" 
d="M154 708h420l-10 -66l-375 -642h-81l381 642h-345z" />
    <glyph glyph-name="eight" unicode="8" 
d="M379 720q76 0 125 -44.5t49 -112.5q0 -63 -37 -115.5t-93 -70.5v-2q50 -14 79 -55t29 -98q0 -99 -75.5 -166.5t-179.5 -67.5q-85 0 -141 48t-56 122q0 76 45 137.5t115 79.5v2q-40 15 -63 51.5t-23 83.5q0 84 67.5 146t158.5 62zM225 509q0 -46 30.5 -75.5t79.5 -29.5
q60 0 102 43t42 102q0 46 -30 75.5t-80 29.5q-58 0 -101 -43t-43 -102zM152 176q0 -56 37 -89t97 -33q74 0 123.5 49t49.5 120q0 55 -36 88t-98 33q-73 0 -123 -49t-50 -119z" />
    <glyph glyph-name="nine" unicode="9" 
d="M379 720q89 0 145.5 -51t56.5 -133q0 -104 -89 -223l-236 -313h-85l236 304l-2 2q-38 -24 -101 -24q-86 0 -137 53.5t-51 137.5q0 102 77.5 174.5t185.5 72.5zM188 478q0 -59 38 -94.5t101 -35.5q77 0 129 51.5t52 126.5q0 58 -37.5 93t-101.5 35q-75 0 -128 -52
t-53 -124z" />
    <glyph glyph-name="colon" unicode=":" horiz-adv-x="278" 
d="M205 473q21 0 34 -13.5t13 -33.5q0 -24 -18.5 -42.5t-43.5 -18.5q-21 0 -33.5 13t-12.5 33q0 25 18 43.5t43 18.5zM153 102q21 0 34.5 -13.5t13.5 -33.5q0 -23 -19 -42t-44 -19q-21 0 -34 13.5t-13 32.5q0 25 18 43.5t44 18.5z" />
    <glyph glyph-name="semicolon" unicode=";" horiz-adv-x="278" 
d="M214 473q20 0 34 -13.5t14 -33.5q0 -23 -19 -42t-44 -19q-21 0 -34 13.5t-13 32.5q0 24 18.5 43t43.5 19zM145 95h81l-114 -235h-67z" />
    <glyph glyph-name="less" unicode="&#x3c;" horiz-adv-x="666" 
d="M124 326l543 238l-8 -60l-457 -201l400 -201l-8 -60l-477 238z" />
    <glyph glyph-name="equal" unicode="=" horiz-adv-x="666" 
d="M135 408h510l-8 -60h-510zM114 258h510l-8 -60h-510z" />
    <glyph glyph-name="greater" unicode="&#x3e;" horiz-adv-x="666" 
d="M157 564l477 -238l-7 -46l-543 -238l8 60l458 201l-401 201z" />
    <glyph glyph-name="question" unicode="?" horiz-adv-x="482" 
d="M349 720q78 0 123 -39.5t45 -108.5q0 -107 -107 -189q-75 -56 -92 -108q-8 -23 -15 -83h-72q2 13 4 28t5 33.5t5 30.5q7 49 99 121q99 78 99 153q0 44 -28 70t-74 26q-50 0 -88 -29.5t-54 -79.5l-74 9q21 76 82.5 121t141.5 45zM260 102q21 0 34.5 -13.5t13.5 -33.5
q0 -24 -19 -42.5t-44 -18.5q-21 0 -33.5 13t-12.5 33q0 25 18 43.5t43 18.5z" />
    <glyph glyph-name="at" unicode="@" horiz-adv-x="800" 
d="M519 726q130 0 215 -74.5t85 -190.5q0 -65 -27.5 -127t-68.5 -104t-88.5 -67.5t-88.5 -25.5q-61 0 -61 57v2h-2q-40 -34 -69.5 -46.5t-64.5 -12.5q-56 0 -89.5 33.5t-33.5 90.5q0 62 34.5 132.5t100 123t141.5 52.5q85 0 102 -82h2l31 63h56l-114 -261q-26 -61 -26 -74
q0 -18 22 -18q60 0 121.5 82.5t61.5 171.5q0 94 -73 157.5t-174 63.5q-86 0 -169 -48t-137.5 -133.5t-54.5 -181.5q0 -110 78.5 -191.5t185.5 -81.5q79 0 153.5 32t124.5 89h63q-59 -83 -152.5 -129t-195.5 -46q-134 0 -226 92t-92 226q0 110 58 208.5t158 158t214 59.5z
M294 277q0 -35 22.5 -57.5t59.5 -22.5q61 0 123 78t62 151q0 35 -19 59t-47 24q-52 0 -100.5 -42.5t-74.5 -96t-26 -93.5z" />
    <glyph glyph-name="A" unicode="A" horiz-adv-x="686" 
d="M408 708h70l208 -708h-84l-52 186h-362l-104 -186h-84zM431 624l-207 -372h307z" />
    <glyph glyph-name="B" unicode="B" horiz-adv-x="630" 
d="M196 708h216q92 0 145.5 -38t53.5 -108q0 -71 -40 -121.5t-108 -65.5l-1 -2q66 -5 102 -43t36 -103q0 -103 -84 -165t-199 -62h-221zM258 642l-34 -244h149q66 0 112 39.5t46 103.5q0 45 -35 73t-96 28h-142zM216 338l-39 -272h142q92 0 147.5 42.5t55.5 117.5
q0 112 -154 112h-152z" />
    <glyph glyph-name="C" unicode="C" horiz-adv-x="704" 
d="M748 614l-69 -47q-19 39 -69 66t-101 27q-139 0 -238 -105t-99 -263q0 -101 69 -172.5t170 -71.5q147 0 231 106l52 -42q-46 -59 -121.5 -94.5t-158.5 -35.5q-144 0 -232 87.5t-88 231.5q0 109 56 207t152.5 158t208.5 60q166 0 237 -112z" />
    <glyph glyph-name="D" unicode="D" horiz-adv-x="741" 
d="M186 708h236q142 0 233.5 -84.5t91.5 -213.5q0 -170 -124 -290t-307 -120h-230zM248 642l-81 -576h145q150 0 253 94.5t103 241.5q0 111 -78.5 175.5t-196.5 64.5h-145z" />
    <glyph glyph-name="E" unicode="E" horiz-adv-x="593" 
d="M196 708h439l-10 -66h-367l-34 -241h343l-9 -66h-343l-38 -269h379l-9 -66h-451z" />
    <glyph glyph-name="F" unicode="F" 
d="M196 708h427l-10 -66h-355l-34 -241h330l-9 -66h-330l-48 -335h-71z" />
    <glyph glyph-name="G" unicode="G" horiz-adv-x="778" 
d="M520 726q162 0 242 -95l-62 -53q-66 82 -190 82q-139 0 -238.5 -105t-99.5 -260q0 -104 69 -175.5t171 -71.5q123 0 215 51l33 236h-169l9 66h241l-48 -347q-133 -72 -279 -72q-144 0 -232 87t-88 234q0 111 57 208.5t155.5 156t213.5 58.5z" />
    <glyph glyph-name="H" unicode="H" horiz-adv-x="722" 
d="M196 708h72l-44 -307h386l44 307h72l-100 -708h-72l47 335h-386l-47 -335h-72z" />
    <glyph glyph-name="I" unicode="I" horiz-adv-x="264" 
d="M196 708h72l-100 -708h-72z" />
    <glyph glyph-name="J" unicode="J" horiz-adv-x="482" 
d="M424 708h72l-71 -501q-15 -104 -73.5 -164.5t-157.5 -60.5q-74 0 -116.5 38t-45.5 110l75 15q8 -97 99 -97q124 0 149 175z" />
    <glyph glyph-name="K" unicode="K" horiz-adv-x="630" 
d="M196 708h72l-44 -307h10l377 307h103l-403 -321l323 -387h-106l-297 365h-12l-51 -365h-72z" />
    <glyph glyph-name="L" unicode="L" horiz-adv-x="500" 
d="M196 708h72l-91 -642h330l-9 -66h-402z" />
    <glyph glyph-name="M" unicode="M" horiz-adv-x="890" 
d="M196 708h110l158 -576l320 576h110l-100 -708h-72l86 612h-2l-342 -612h-38l-170 612h-2l-86 -612h-72z" />
    <glyph glyph-name="N" unicode="N" horiz-adv-x="778" 
d="M196 708h90l337 -600h2l85 600h72l-100 -708h-90l-337 606h-2l-86 -606h-71z" />
    <glyph glyph-name="O" unicode="O" horiz-adv-x="834" 
d="M519 726q139 0 230 -84.5t91 -239.5q0 -74 -31 -149t-85 -135.5t-134.5 -98t-171.5 -37.5q-147 0 -235.5 86.5t-88.5 236.5q0 107 54.5 203.5t153.5 157t217 60.5zM172 304q0 -112 69 -184t173 -72q84 0 152.5 33t110 86t63.5 116.5t22 128.5q0 104 -69 176t-177 72
q-100 0 -180 -51t-122 -132t-42 -173z" />
    <glyph glyph-name="P" unicode="P" horiz-adv-x="574" 
d="M196 708h211q99 0 151.5 -40t52.5 -116q0 -99 -68.5 -161t-183.5 -62h-145l-46 -329h-72zM258 642l-34 -247h127q81 0 131 38.5t50 106.5q0 49 -39.5 75.5t-113.5 26.5h-121z" />
    <glyph glyph-name="Q" unicode="Q" horiz-adv-x="834" 
d="M508 726q137 0 223.5 -85t86.5 -219q0 -113 -53.5 -207t-157.5 -147l-1 -2h214l-9 -66h-410q-132 0 -219 85t-87 220q0 172 121 296.5t292 124.5zM174 315q0 -105 64 -177t170 -72q141 0 236 101t95 245q0 111 -66.5 179.5t-174.5 68.5q-130 0 -227 -99.5t-97 -245.5z
" />
    <glyph glyph-name="R" unicode="R" horiz-adv-x="593" 
d="M196 708h223q97 0 150.5 -40t53.5 -115q0 -83 -55.5 -146t-154.5 -71l157 -336h-88l-148 329h-120l-46 -329h-72zM258 642l-34 -247h133q89 0 137.5 39t48.5 104q0 52 -40 78t-112 26h-133z" />
    <glyph glyph-name="S" unicode="S" 
d="M396 726q124 0 188 -86l-70 -49q-37 69 -127 69q-72 0 -121 -40.5t-49 -106.5q0 -40 26.5 -66t94.5 -49q42 -14 61 -21t50.5 -23t46 -32t26.5 -42t12 -59q0 -106 -81.5 -172.5t-182.5 -66.5q-145 0 -208 105l72 47q38 -86 149 -86q69 0 120.5 43.5t51.5 106.5
q0 41 -28.5 68.5t-97.5 50.5q-100 33 -131 54q-61 41 -61 120q0 104 74.5 169.5t184.5 65.5z" />
    <glyph glyph-name="T" unicode="T" horiz-adv-x="574" 
d="M114 708h546l-10 -66h-237l-90 -642h-72l90 642h-237z" />
    <glyph glyph-name="U" unicode="U" horiz-adv-x="686" 
d="M184 708h72l-60 -423q-6 -38 -6 -66q0 -83 42 -127t118 -44q87 0 145 57t73 167l62 436h72l-64 -452q-7 -51 -27 -97t-54 -87.5t-90 -65.5t-127 -24q-110 0 -166.5 58.5t-56.5 162.5q0 35 4 59z" />
    <glyph glyph-name="V" unicode="V" horiz-adv-x="611" 
d="M97 708h80l140 -600h2l317 600h78l-376 -708h-72z" />
    <glyph glyph-name="W" unicode="W" horiz-adv-x="944" 
d="M100 708h80l84 -606h2l264 606h86l92 -606h2l254 606h80l-309 -708h-84l-93 606h-2l-263 -606h-84z" />
    <glyph glyph-name="X" unicode="X" horiz-adv-x="630" 
d="M126 708h97l153 -283l238 283h90l-288 -336l208 -372h-95l-171 321l-262 -321h-90l311 372z" />
    <glyph glyph-name="Y" unicode="Y" horiz-adv-x="574" 
d="M86 708h90l164 -334l258 334h90l-322 -403l-43 -305h-72l43 305z" />
    <glyph glyph-name="Z" unicode="Z" 
d="M129 708h498l-9 -60l-495 -582h419l-9 -66h-510l8 60l496 582h-408z" />
    <glyph glyph-name="bracketleft" unicode="[" horiz-adv-x="260" 
d="M168 732h162l-8 -54h-96l-109 -780h96l-8 -54h-162z" />
    <glyph glyph-name="backslash" unicode="\" horiz-adv-x="370" 
d="M104 706l60 20l201 -725l-61 -19z" />
    <glyph glyph-name="bracketright" unicode="]" horiz-adv-x="260" 
d="M136 732h162l-125 -888h-162l8 54h96l109 780h-96z" />
    <glyph glyph-name="asciicircum" unicode="^" horiz-adv-x="666" 
d="M119 275l290 433h48l168 -433h-62l-141 361l-241 -361h-62z" />
    <glyph glyph-name="underscore" unicode="_" horiz-adv-x="500" 
d="M-11 -75h500l-7 -50h-500z" />
    <glyph glyph-name="grave" unicode="`" horiz-adv-x="240" 
d="M90 708h91l79 -144h-59z" />
    <glyph glyph-name="a" unicode="a" horiz-adv-x="519" 
d="M333 480q71 0 111 -36t40 -99q0 -19 -3 -38l-28 -202q-7 -55 -7 -105h-64q0 51 5 76h-2q-66 -88 -178 -88q-64 0 -103.5 32t-39.5 83q0 37 14 67.5t46 58t93 43t147 15.5h48q4 20 4 40q0 93 -105 93q-81 0 -151 -55l-33 47q74 68 206 68zM138 120q0 -33 27 -52.5
t72 -19.5q71 0 114.5 46t53.5 139h-43q-106 0 -165 -28.5t-59 -84.5z" />
    <glyph glyph-name="b" unicode="b" horiz-adv-x="611" 
d="M178 756h66l-51 -366h2q35 42 87 66t108 24q99 0 158 -57.5t59 -152.5q0 -50 -20 -100t-56 -90.5t-91.5 -66t-119.5 -25.5q-54 0 -100 24t-69 66h-2l-11 -78h-66zM166 204q0 -73 47 -114.5t124 -41.5q82 0 140 66.5t58 152.5q0 71 -43.5 112t-115.5 41q-84 0 -147 -64.5
t-63 -151.5z" />
    <glyph glyph-name="c" unicode="c" horiz-adv-x="482" 
d="M359 480q107 0 164 -81l-60 -41q-31 62 -116 62q-83 0 -140 -66t-57 -153q0 -70 40 -111.5t108 -41.5q81 0 130 62l49 -41q-81 -81 -189 -81q-97 0 -153.5 55.5t-56.5 149.5q0 121 81 204t200 83z" />
    <glyph glyph-name="d" unicode="d" horiz-adv-x="611" 
d="M579 756h66l-106 -756h-66l11 78h-2q-35 -42 -88 -66t-107 -24q-98 0 -157.5 58.5t-59.5 153.5q0 112 84 196t195 84q127 0 177 -90h2zM143 200q0 -71 43 -111.5t115 -40.5q85 0 147.5 65.5t62.5 150.5q0 70 -45.5 113t-123.5 43q-82 0 -140.5 -64.5t-58.5 -155.5z" />
    <glyph glyph-name="e" unicode="e" 
d="M350 480q89 0 142.5 -53t53.5 -141q0 -27 -8 -70h-390v-13q0 -67 42.5 -111t106.5 -44q45 0 88 22t73 59l45 -42q-90 -99 -215 -99q-96 0 -153 58.5t-57 152.5q0 113 81.5 197t190.5 84zM158 270h316q2 26 2 27q0 57 -35.5 90t-98.5 33q-61 0 -117.5 -45t-66.5 -105z" />
    <glyph glyph-name="f" unicode="f" horiz-adv-x="296" 
d="M377 768q22 0 57 -7l-20 -60q-28 7 -50 7q-45 0 -69 -26t-33 -93l-17 -121h111l-9 -60h-111l-57 -408h-66l57 408h-99l9 60h99l18 127q25 173 180 173z" />
    <glyph glyph-name="g" unicode="g" horiz-adv-x="611" 
d="M353 480q115 0 169 -90h2l11 78h66l-64 -461q-17 -118 -90 -182.5t-197 -64.5q-137 0 -212 94l57 52q52 -86 167 -86q89 0 142 49t66 140l11 79h-2q-70 -88 -187 -88q-95 0 -154 58.5t-59 148.5q0 110 82.5 191.5t191.5 81.5zM152 213q0 -65 43 -109t107 -44
q83 0 144 59.5t61 151.5q0 68 -43 108.5t-116 40.5q-76 0 -136 -63.5t-60 -143.5z" />
    <glyph glyph-name="h" unicode="h" 
d="M178 756h66l-51 -363h2q28 37 75 62t94 25q154 0 154 -143q0 -17 -6 -63l-39 -274h-66l35 256q5 33 5 57q0 58 -25.5 82.5t-83.5 24.5q-57 0 -106 -48.5t-60 -127.5l-34 -244h-66z" />
    <glyph glyph-name="i" unicode="i" horiz-adv-x="240" 
d="M218 696q17 0 29 -11.5t12 -29.5q0 -22 -17 -38.5t-38 -16.5q-17 0 -29 12.5t-12 28.5q0 22 16.5 38.5t38.5 16.5zM153 468h66l-66 -468h-66z" />
    <glyph glyph-name="j" unicode="j" horiz-adv-x="240" 
d="M218 696q17 0 29 -11.5t12 -29.5q0 -22 -17 -38.5t-38 -16.5q-17 0 -29 12.5t-12 28.5q0 22 16.5 38.5t38.5 16.5zM153 468h66l-82 -583q-8 -56 -47 -90.5t-103 -34.5q-27 0 -50 10l17 57q23 -7 38 -7q33 0 54.5 22t26.5 61z" />
    <glyph glyph-name="k" unicode="k" horiz-adv-x="482" 
d="M178 756h66l-70 -499l251 211h99l-263 -214l222 -254h-102l-208 246l-35 -246h-66z" />
    <glyph glyph-name="l" unicode="l" horiz-adv-x="240" 
d="M193 756h66l-106 -756h-66z" />
    <glyph glyph-name="m" unicode="m" horiz-adv-x="852" 
d="M358 480q112 0 136 -97q27 44 73 70.5t95 26.5q153 0 153 -143q0 -19 -4 -51l-41 -286h-66l38 269q4 27 4 52q0 51 -24.5 75t-75.5 24q-63 0 -104.5 -45t-52.5 -123l-35 -252h-66l37 266q5 35 5 56q0 51 -24.5 74.5t-75.5 23.5q-56 0 -101 -47t-57 -132l-34 -241h-66
l48 342q4 29 6 43t2 18t1 20.5t4 44.5h71l-10 -71h2q27 37 71.5 60t90.5 23z" />
    <glyph glyph-name="n" unicode="n" 
d="M364 480q154 0 154 -143q0 -23 -5 -58l-40 -279h-66l35 253q5 33 5 60q0 57 -26 82t-81 25q-57 0 -106.5 -46.5t-61.5 -131.5l-34 -242h-66l50 355q5 33 11 113h68q-1 -26 -8 -75h2q28 37 75 62t94 25z" />
    <glyph glyph-name="o" unicode="o" horiz-adv-x="593" 
d="M363 480q99 0 158.5 -58.5t59.5 -155.5q0 -110 -84 -194t-195 -84q-102 0 -163 55.5t-61 152.5q0 117 84 200.5t201 83.5zM150 202q0 -70 41.5 -112t111.5 -42q87 0 146 64t59 156q0 68 -41.5 110t-117.5 42q-83 0 -141 -66t-58 -152z" />
    <glyph glyph-name="p" unicode="p" horiz-adv-x="611" 
d="M390 480q99 0 158 -58t59 -153q0 -113 -83.5 -197t-201.5 -84q-54 0 -101 24.5t-70 65.5h-2l-51 -366h-66l106 756h66l-11 -78h2q35 42 87 66t108 24zM166 204q0 -72 47 -114t124 -42q83 0 140.5 66.5t57.5 152.5q0 66 -42 109.5t-119 43.5q-83 0 -145.5 -64.5
t-62.5 -151.5z" />
    <glyph glyph-name="q" unicode="q" horiz-adv-x="611" 
d="M356 480q55 0 101 -24t69 -66h2l11 78h66l-106 -756h-66l51 366h-2q-35 -42 -88 -66t-107 -24q-99 0 -158 56.5t-59 150.5q0 119 84.5 202t201.5 83zM143 200q0 -71 43 -111.5t115 -40.5q85 0 147.5 65.5t62.5 150.5q0 70 -46.5 113t-124.5 43q-83 0 -140 -66t-57 -154z
" />
    <glyph glyph-name="r" unicode="r" horiz-adv-x="332" 
d="M359 480q27 0 49 -6l-23 -65q-10 5 -36 5q-63 0 -110.5 -44.5t-56.5 -108.5l-37 -261h-66l45 322l17 146h65l-12 -87h2q23 46 66.5 72.5t96.5 26.5z" />
    <glyph glyph-name="s" unicode="s" horiz-adv-x="426" 
d="M290 480q114 0 145 -84l-65 -39q-25 63 -92 63q-48 0 -78 -22.5t-30 -58.5q0 -16 8 -27.5t29 -20.5t39 -13.5t56 -13.5q113 -25 113 -115q0 -68 -57.5 -114.5t-146.5 -46.5q-119 0 -167 91l63 39q36 -70 113 -70q53 0 87.5 25t34.5 64q0 21 -18 36t-37.5 21.5t-51.5 13.5
q-72 16 -105 41t-33 71q0 71 55.5 115.5t137.5 44.5z" />
    <glyph glyph-name="t" unicode="t" horiz-adv-x="332" 
d="M197 600h66l-18 -132h135l-9 -60h-135l-37 -273q-3 -24 -3 -30q0 -32 14 -44.5t42 -12.5q38 0 72 18l-5 -61q-42 -17 -91 -17t-75.5 24.5t-26.5 69.5q0 18 3 35l41 291h-99l9 60h99z" />
    <glyph glyph-name="u" unicode="u" 
d="M138 468h66l-30 -211q-11 -93 -11 -100q0 -57 25.5 -83t80.5 -26q60 0 108.5 46.5t60.5 131.5l35 242h66l-52 -367l-9 -101h-68q1 33 8 75h-2q-28 -38 -75 -62.5t-95 -24.5q-153 0 -153 142q0 12 3 39z" />
    <glyph glyph-name="v" unicode="v" horiz-adv-x="482" 
d="M80 468h79l93 -394h2l205 394h75l-256 -468h-74z" />
    <glyph glyph-name="w" unicode="w" horiz-adv-x="722" 
d="M80 468h78l54 -380h2l179 380h68l71 -380h2l162 380h78l-214 -468h-74l-70 384h-2l-178 -384h-74z" />
    <glyph glyph-name="x" unicode="x" horiz-adv-x="482" 
d="M89 468h90l105 -175l149 175h82l-194 -218l161 -250h-90l-128 205l-180 -205h-84l228 250z" />
    <glyph glyph-name="y" unicode="y" horiz-adv-x="482" 
d="M82 468h83l92 -387l198 387h80l-310 -577q-17 -32 -27.5 -48t-31.5 -39t-48.5 -33.5t-63.5 -10.5q-38 0 -60 7l16 64q21 -11 49 -11q61 0 104 87l44 87z" />
    <glyph glyph-name="z" unicode="z" horiz-adv-x="426" 
d="M103 468h356l-7 -48l-325 -360h284l-8 -60h-380l7 48l324 360h-260z" />
    <glyph glyph-name="braceleft" unicode="{" horiz-adv-x="260" 
d="M309 732h67l-9 -60h-58q-23 0 -37.5 -15.5t-20.5 -61.5l-26 -183q-6 -48 -37.5 -82.5t-67.5 -40.5l-1 -2q31 -5 51.5 -32.5t20.5 -66.5q0 -9 -3 -33l-23 -168q-3 -27 -3 -37q0 -46 43 -46h55l-9 -60h-65q-43 0 -67 24t-24 69q0 25 5 59l21 145q2 20 2 30q0 40 -23 63.5
t-52 23.5l9 60q38 0 68 31.5t37 84.5l23 168q9 64 42 97t82 33z" />
    <glyph glyph-name="bar" unicode="|" horiz-adv-x="361" 
d="M202 -277v1110h58v-1110h-58z" />
    <glyph glyph-name="braceright" unicode="}" horiz-adv-x="260" 
d="M90 732h65q44 0 68 -24.5t24 -72.5q0 -9 -5 -42l-22 -153q-3 -18 -3 -35q0 -37 21.5 -62t54.5 -25l-9 -60q-37 0 -66.5 -31t-36.5 -76l-26 -181q-8 -60 -40.5 -93t-82.5 -33h-67l9 60h56q26 0 40 16.5t20 59.5l25 179q8 57 39 89.5t68 38.5v2q-31 5 -51.5 33t-20.5 67
q0 2 0.5 11t1.5 17l19 140q8 52 8 70q0 45 -42 45h-56z" />
    <glyph glyph-name="asciitilde" unicode="~" horiz-adv-x="666" 
d="M286 371q39 0 73 -19t63 -38t55 -19q49 0 110 73l36 -40q-47 -53 -81 -73t-76 -20q-40 0 -74 19t-63 38t-55 19q-49 0 -110 -73l-36 40q44 51 78 72t80 21z" />
    <glyph glyph-name="uni00A0" unicode="&#xa0;" horiz-adv-x="278" 
 />
    <glyph glyph-name="exclamdown" unicode="&#xa1;" horiz-adv-x="278" 
d="M207 486q21 0 34 -13.5t13 -33.5q0 -23 -19 -42t-43 -19q-21 0 -33.5 13t-12.5 33q0 25 17.5 43.5t43.5 18.5zM143 288h72l-72 -516h-72z" />
    <glyph glyph-name="cent" unicode="&#xa2;" 
d="M355 477l9 63h48l-9 -61q97 -6 150 -80l-60 -41q-12 25 -38 42t-60 19l-52 -370q72 5 115 61l49 -41q-75 -75 -173 -81l-8 -60h-48l9 63q-83 9 -131 63t-48 138q0 110 70 191.5t177 93.5zM181 201q0 -60 30 -100t84 -50l52 366q-77 -16 -121.5 -77t-44.5 -139z" />
    <glyph glyph-name="sterling" unicode="&#xa3;" 
d="M499 720q99 0 147 -60l-54 -51q-39 51 -104 51q-137 0 -163 -185l-11 -80h168l-9 -60h-168l-39 -275h253l-8 -60h-427l8 60h102l39 275h-96l9 60h96l11 84q32 241 246 241z" />
    <glyph glyph-name="currency" unicode="&#xa4;" 
d="M110 559l50 44l45 -53q75 53 158 53t142 -53l61 53l38 -44l-61 -53q35 -53 35 -115q0 -107 -78 -189l46 -53l-50 -44l-46 53q-75 -53 -157 -53q-84 0 -143 53l-60 -53l-38 44l60 53q-34 53 -34 114q0 107 77 190zM302 165q82 0 145.5 66.5t63.5 150.5q0 71 -45.5 116
t-116.5 45q-79 0 -141.5 -67t-62.5 -147q0 -73 45 -118.5t112 -45.5z" />
    <glyph glyph-name="yen" unicode="&#xa5;" 
d="M98 708h85l147 -340l243 340h85l-253 -342h123l-7 -54h-156l-9 -12l-11 -77h163l-7 -54h-163l-24 -169h-72l24 169h-163l7 54h163l11 77l-5 12h-156l7 54h124z" />
    <glyph glyph-name="brokenbar" unicode="&#xa6;" horiz-adv-x="360" 
d="M202 361v389h57v-389h-57zM202 -193v387h57v-387h-57z" />
    <glyph glyph-name="section" unicode="&#xa7;" 
d="M382 720q62 0 105 -25.5t54 -68.5l-63 -30q-25 64 -99 64q-53 0 -87.5 -31t-34.5 -72q0 -16 7.5 -30.5t23.5 -27t28.5 -20t35 -19.5t30.5 -16q3 -2 24.5 -13.5t29.5 -16.5t25.5 -18.5t24.5 -25t14 -29t7 -37.5q0 -102 -107 -155q53 -42 53 -97q0 -86 -60.5 -138.5
t-152.5 -52.5q-72 0 -119 30t-62 85l70 32q8 -41 40 -64t80 -23q58 0 94.5 33t36.5 81q0 17 -6.5 30.5t-24.5 27t-27.5 19t-39.5 20.5l-36 18q-37 19 -52.5 28.5t-36.5 26.5t-28.5 36.5t-7.5 45.5q0 103 124 155q-34 26 -47.5 46t-13.5 54q0 76 57 127t141 51zM194 302
q0 -42 54 -70l98 -51q35 13 61 42t26 61q0 56 -84 96l-50 24q-105 -36 -105 -102z" />
    <glyph glyph-name="dieresis" unicode="&#xa8;" horiz-adv-x="240" 
d="M122 698q19 0 32 -12.5t13 -31.5q0 -22 -18 -40t-41 -18q-19 0 -32 13t-13 31q0 23 18 40.5t41 17.5zM314 698q19 0 31.5 -12.5t12.5 -31.5q0 -22 -17.5 -40t-40.5 -18q-19 0 -32 13t-13 31q0 22 18 40t41 18z" />
    <glyph glyph-name="copyright" unicode="&#xa9;" horiz-adv-x="800" 
d="M502 726q136 0 231.5 -89t95.5 -222q0 -119 -60.5 -219.5t-159.5 -157t-212 -56.5q-142 0 -234.5 91t-92.5 226q0 108 57.5 206t158 159.5t216.5 61.5zM131 306q0 -120 78 -195t205 -75q91 0 173.5 51.5t131.5 135.5t49 174q0 116 -73 195.5t-202 79.5
q-147 0 -254.5 -111t-107.5 -255zM494 581q78 0 122.5 -40.5t44.5 -111.5h-56q-2 45 -36 71.5t-88 26.5q-77 0 -129 -60t-52 -138q0 -65 39 -107t101 -42q49 0 88.5 28t56.5 74h57q-27 -71 -83.5 -113.5t-125.5 -42.5q-89 0 -141.5 52.5t-52.5 141.5q0 101 69 181t186 80z
" />
    <glyph glyph-name="ordfeminine" unicode="&#xaa;" horiz-adv-x="337" 
d="M263 720q53 0 83.5 -22t30.5 -60q0 -9 -1 -16l-19 -130q-4 -27 -4 -62h-54l2 36h-1q-33 -42 -104 -42q-43 0 -69 19t-26 52q0 55 46.5 83.5t151.5 28.5h14q2 18 2 21q0 44 -57 44q-50 0 -93 -30l-27 37q50 41 125 41zM163 505q0 -15 14 -24t39 -9q79 0 91 87h-14
q-130 0 -130 -54z" />
    <glyph glyph-name="guillemotleft" unicode="&#xab;" horiz-adv-x="482" 
d="M86 240l169 209l42 -33l-139 -176l90 -176l-52 -33zM268 240l169 209l42 -33l-139 -176l90 -176l-52 -33z" />
    <glyph glyph-name="logicalnot" unicode="&#xac;" horiz-adv-x="666" 
d="M135 408h510l-39 -278h-60l31 218h-450z" />
    <glyph glyph-name="uni00AD" unicode="&#xad;" horiz-adv-x="333" 
d="M76 273h257l-9 -66h-257z" />
    <glyph glyph-name="registered" unicode="&#xae;" horiz-adv-x="800" 
d="M502 726q135 0 231 -89t96 -220q0 -117 -59.5 -218t-159 -159t-213.5 -58q-142 0 -234.5 91t-92.5 226q0 107 57.5 205.5t158 160t216.5 61.5zM130 306q0 -117 79 -193.5t205 -76.5q139 0 247 111.5t108 253.5q0 111 -74 191t-202 80q-147 0 -255 -111t-108 -255z
M341 567h163q69 0 100 -24.5t31 -73.5q0 -61 -34.5 -99t-97.5 -44l97 -190h-65l-92 185h-77l-26 -185h-60zM393 513l-19 -138h80q68 0 94.5 21.5t26.5 61.5q0 55 -85 55h-97z" />
    <glyph glyph-name="macron" unicode="&#xaf;" horiz-adv-x="240" 
d="M77 654h270l-8 -54h-270z" />
    <glyph glyph-name="degree" unicode="&#xb0;" horiz-adv-x="400" 
d="M301 720q57 0 93.5 -34.5t36.5 -91.5q0 -70 -50 -121t-122 -51q-57 0 -93.5 34.5t-36.5 90.5q0 72 51 122.5t121 50.5zM178 556q0 -37 25.5 -61.5t62.5 -24.5q46 0 81 35t35 81q0 38 -25 62t-64 24q-45 0 -80 -35t-35 -81z" />
    <glyph glyph-name="plusminus" unicode="&#xb1;" horiz-adv-x="666" 
d="M360 407l22 156h60l-22 -156h225l-8 -60h-225l-21 -151h-60l21 151h-225l8 60h225zM93 108h510l-8 -60h-510z" />
    <glyph glyph-name="twosuperior" unicode="&#xb2;" horiz-adv-x="361" 
d="M285 720q57 0 91 -26t34 -69q0 -71 -80 -136l-182 -146h227l-7 -54h-293l8 57l196 166q70 60 70 100q0 21 -20.5 37.5t-47.5 16.5q-31 0 -57.5 -15.5t-38.5 -40.5l-55 9q16 47 57.5 74t97.5 27z" />
    <glyph glyph-name="threesuperior" unicode="&#xb3;" horiz-adv-x="361" 
d="M282 720q54 0 86.5 -26t32.5 -68q0 -39 -27.5 -71.5t-69.5 -43.5v-2q38 -7 59.5 -30.5t21.5 -57.5q0 -59 -47 -98.5t-118 -39.5q-110 0 -134 86l56 30q7 -32 27.5 -47t60.5 -15q32 0 63.5 25t31.5 53q0 68 -99 68h-28l7 54h20q54 0 84 21t30 55q0 23 -17.5 38t-46.5 15
q-28 0 -48 -9.5t-44 -36.5l-42 33q56 67 141 67z" />
    <glyph glyph-name="acute" unicode="&#xb4;" horiz-adv-x="240" 
d="M259 708h91l-153 -144h-59z" />
    <glyph glyph-name="mu" unicode="&#xb5;" 
d="M138 468h66l-30 -211q-11 -66 -11 -105q0 -56 25.5 -80t82.5 -24q65 0 110.5 48.5t56.5 127.5l35 244h66l-52 -367l-9 -101h-71l11 76h-2q-28 -37 -76.5 -62.5t-93.5 -25.5q-67 0 -106 29l-34 -245h-66z" />
    <glyph glyph-name="paragraph" unicode="&#xb6;" horiz-adv-x="600" 
d="M372 708h241l-118 -834h-66l110 780h-124l-110 -780h-66l62 442q-84 0 -134 45t-50 116q0 96 70.5 163.5t184.5 67.5z" />
    <glyph glyph-name="periodcentered" unicode="&#xb7;" horiz-adv-x="278" 
d="M191 368q20 0 33 -13t13 -33q0 -25 -18 -43.5t-43 -18.5q-21 0 -34.5 13.5t-13.5 33.5q0 23 19.5 42t43.5 19z" />
    <glyph glyph-name="cedilla" unicode="&#xb8;" horiz-adv-x="240" 
d="M41 -84l74 84h41l-53 -60l1 -1q26 7 37 7q30 0 49 -18t19 -45q0 -44 -36.5 -72t-91.5 -28q-52 0 -94 24l21 36q32 -18 71 -18q30 0 49.5 14t19.5 34q0 37 -44 37q-22 0 -47 -11z" />
    <glyph glyph-name="onesuperior" unicode="&#xb9;" horiz-adv-x="361" 
d="M142 625l129 89h54l-59 -425h-60l51 365l-91 -67z" />
    <glyph glyph-name="ordmasculine" unicode="&#xba;" horiz-adv-x="385" 
d="M293 720q63 0 103 -35t40 -92q0 -71 -53.5 -120t-130.5 -49q-63 0 -103 35t-40 90q0 71 54 121t130 50zM170 557q0 -37 25 -61t63 -24q48 0 82.5 34t34.5 80q0 38 -25 62t-64 24q-46 0 -81 -34.5t-35 -80.5z" />
    <glyph glyph-name="guillemotright" unicode="&#xbb;" horiz-adv-x="482" 
d="M119 416l52 33l111 -209l-170 -209l-42 33l140 176zM301 416l52 33l111 -209l-170 -209l-42 33l140 176z" />
    <glyph glyph-name="onequarter" unicode="&#xbc;" horiz-adv-x="834" 
d="M153 0l555 740l47 -31l-554 -741zM152 625l129 89h54l-59 -425h-60l51 365l-91 -67zM697 425h73l-39 -277h60l-8 -54h-60l-13 -94h-60l13 94h-192l9 62zM699 365l-166 -217h138l30 217h-2z" />
    <glyph glyph-name="onehalf" unicode="&#xbd;" horiz-adv-x="834" 
d="M127 625l129 89h54l-59 -425h-60l51 365l-91 -67zM128 0l555 740l47 -31l-554 -741zM712 431q57 0 91 -26t34 -69q0 -71 -80 -136l-182 -146h227l-7 -54h-293l8 57l196 166q70 60 70 100q0 21 -20.5 37.5t-47.5 16.5q-31 0 -57.5 -15.5t-38.5 -40.5l-55 9q16 47 57.5 74
t97.5 27z" />
    <glyph glyph-name="threequarters" unicode="&#xbe;" horiz-adv-x="834" 
d="M193 0l555 740l47 -31l-554 -741zM291 720q53 0 86 -26t33 -69q0 -39 -27.5 -71t-69.5 -43v-2q39 -7 60 -30.5t21 -59.5q0 -56 -47.5 -96t-117.5 -40q-110 0 -133 86l55 30q9 -33 30 -47.5t59 -14.5q32 0 62.5 25t30.5 53q0 33 -24.5 50.5t-68.5 17.5h-33l7 54h19
q55 0 85.5 22.5t30.5 56.5q0 21 -18.5 35.5t-45.5 14.5q-52 0 -93 -45l-42 32q56 67 141 67zM717 425h73l-39 -277h60l-8 -54h-60l-13 -94h-60l13 94h-192l9 62zM719 365l-166 -217h138l30 217h-2z" />
    <glyph glyph-name="questiondown" unicode="&#xbf;" horiz-adv-x="482" 
d="M304 486q21 0 34.5 -13.5t13.5 -33.5q0 -23 -19 -42t-44 -19q-21 0 -33.5 12.5t-12.5 33.5q0 25 17.5 43.5t43.5 18.5zM246 288h72q-1 -11 -13 -91q-8 -52 -98 -121q-101 -77 -101 -155q0 -42 28.5 -68.5t74.5 -26.5q50 0 88.5 30t53.5 79l74 -9q-21 -76 -83 -121
t-142 -45q-76 0 -121.5 38.5t-45.5 106.5q0 113 107 191q75 54 90 103q9 27 16 89z" />
    <glyph glyph-name="Agrave" unicode="&#xc0;" horiz-adv-x="686" 
d="M408 708h70l208 -708h-84l-52 186h-362l-104 -186h-84zM431 624l-207 -372h307zM338 883h91l79 -144h-59z" />
    <glyph glyph-name="Aacute" unicode="&#xc1;" horiz-adv-x="686" 
d="M408 708h70l208 -708h-84l-52 186h-362l-104 -186h-84zM431 624l-207 -372h307zM507 883h91l-153 -144h-59z" />
    <glyph glyph-name="Acircumflex" unicode="&#xc2;" horiz-adv-x="686" 
d="M408 708h70l208 -708h-84l-52 186h-362l-104 -186h-84zM431 624l-207 -372h307zM428 883h80l88 -144h-66l-68 108l-98 -108h-66z" />
    <glyph glyph-name="Atilde" unicode="&#xc3;" horiz-adv-x="686" 
d="M408 708h70l208 -708h-84l-52 186h-362l-104 -186h-84zM431 624l-207 -372h307zM583 859h43q-32 -104 -106 -104q-21 0 -67.5 23t-66.5 23q-38 0 -56 -50h-43q32 104 107 104q19 0 67.5 -23t65.5 -23q38 0 56 50z" />
    <glyph glyph-name="Adieresis" unicode="&#xc4;" horiz-adv-x="686" 
d="M408 708h70l208 -708h-84l-52 186h-362l-104 -186h-84zM431 624l-207 -372h307zM370 873q19 0 32 -12.5t13 -31.5q0 -22 -18 -40t-41 -18q-19 0 -32 13t-13 31q0 23 18 40.5t41 17.5zM562 873q19 0 31.5 -12.5t12.5 -31.5q0 -22 -17.5 -40t-40.5 -18q-19 0 -32 13t-13 31
q0 22 18 40t41 18z" />
    <glyph glyph-name="Aring" unicode="&#xc5;" horiz-adv-x="686" 
d="M408 708h70l208 -708h-84l-52 186h-362l-104 -186h-84zM431 624l-207 -372h307zM473 920q36 0 59.5 -23t23.5 -57q0 -43 -33 -76.5t-77 -33.5q-36 0 -60 23t-24 58q0 44 34 76.5t77 32.5zM398 818q0 -23 15 -37.5t38 -14.5q28 0 48.5 20t20.5 49q0 21 -14.5 35t-37.5 14
q-27 0 -48.5 -20t-21.5 -46z" />
    <glyph glyph-name="AE" unicode="&#xc6;" horiz-adv-x="944" 
d="M561 708h416l-10 -66h-294l-34 -241h276l-9 -66h-276l-38 -269h306l-9 -66h-378l28 198h-298l-156 -198h-85zM601 642h-11l-298 -378h256z" />
    <glyph glyph-name="Ccedilla" unicode="&#xc7;" horiz-adv-x="704" 
d="M519 726q75 0 135 -29.5t94 -82.5l-69 -47q-20 38 -69.5 65.5t-101.5 27.5q-137 0 -236.5 -105.5t-99.5 -262.5q0 -101 69.5 -172.5t171.5 -71.5q145 0 229 106l52 -42q-45 -58 -122 -94t-157 -36q-14 0 -21 1l-39 -43l1 -1q26 7 37 7q30 0 49 -18t19 -45
q0 -44 -36.5 -72t-91.5 -28q-52 0 -94 24l21 36q32 -18 71 -18q30 0 49.5 14t19.5 34q0 17 -12 27t-32 10q-17 0 -47 -11l-16 17l62 71q-117 18 -189.5 102t-72.5 204q0 119 58 219t156 157t212 57z" />
    <glyph glyph-name="Egrave" unicode="&#xc8;" horiz-adv-x="593" 
d="M196 708h439l-10 -66h-367l-34 -241h343l-9 -66h-343l-38 -269h379l-9 -66h-451zM292 883h91l79 -144h-59z" />
    <glyph glyph-name="Eacute" unicode="&#xc9;" horiz-adv-x="593" 
d="M196 708h439l-10 -66h-367l-34 -241h343l-9 -66h-343l-38 -269h379l-9 -66h-451zM461 883h91l-153 -144h-59z" />
    <glyph glyph-name="Ecircumflex" unicode="&#xca;" horiz-adv-x="593" 
d="M196 708h439l-10 -66h-367l-34 -241h343l-9 -66h-343l-38 -269h379l-9 -66h-451zM382 883h80l88 -144h-66l-68 108l-98 -108h-66z" />
    <glyph glyph-name="Edieresis" unicode="&#xcb;" horiz-adv-x="593" 
d="M196 708h439l-10 -66h-367l-34 -241h343l-9 -66h-343l-38 -269h379l-9 -66h-451zM324 873q19 0 32 -12.5t13 -31.5q0 -22 -18 -40t-41 -18q-19 0 -32 13t-13 31q0 23 18 40.5t41 17.5zM516 873q19 0 31.5 -12.5t12.5 -31.5q0 -22 -17.5 -40t-40.5 -18q-19 0 -32 13
t-13 31q0 22 18 40t41 18z" />
    <glyph glyph-name="Igrave" unicode="&#xcc;" horiz-adv-x="264" 
d="M196 708h72l-100 -708h-72zM127 883h91l79 -144h-59z" />
    <glyph glyph-name="Iacute" unicode="&#xcd;" horiz-adv-x="264" 
d="M196 708h72l-100 -708h-72zM296 883h91l-153 -144h-59z" />
    <glyph glyph-name="Icircumflex" unicode="&#xce;" horiz-adv-x="264" 
d="M196 708h72l-100 -708h-72zM217 883h80l88 -144h-66l-68 108l-98 -108h-66z" />
    <glyph glyph-name="Idieresis" unicode="&#xcf;" horiz-adv-x="264" 
d="M196 708h72l-100 -708h-72zM159 873q19 0 32 -12.5t13 -31.5q0 -22 -18 -40t-41 -18q-19 0 -32 13t-13 31q0 23 18 40.5t41 17.5zM351 873q19 0 31.5 -12.5t12.5 -31.5q0 -22 -17.5 -40t-40.5 -18q-19 0 -32 13t-13 31q0 22 18 40t41 18z" />
    <glyph glyph-name="Eth" unicode="&#xd0;" horiz-adv-x="741" 
d="M186 708h237q143 0 233.5 -85t90.5 -213q0 -115 -58.5 -209.5t-156.5 -147.5t-213 -53h-233l49 347h-73l7 54h73zM248 642l-34 -241h258l-7 -54h-258l-40 -281h145q150 0 253 94.5t103 242.5q0 111 -79 175t-196 64h-145z" />
    <glyph glyph-name="Ntilde" unicode="&#xd1;" horiz-adv-x="778" 
d="M196 708h90l337 -600h2l85 600h72l-100 -708h-90l-337 606h-2l-86 -606h-71zM629 859h43q-32 -104 -106 -104q-21 0 -67.5 23t-66.5 23q-38 0 -56 -50h-43q32 104 107 104q19 0 67.5 -23t65.5 -23q38 0 56 50z" />
    <glyph glyph-name="Ograve" unicode="&#xd2;" horiz-adv-x="834" 
d="M519 726q139 0 230 -84.5t91 -239.5q0 -74 -31 -149t-85 -135.5t-134.5 -98t-171.5 -37.5q-147 0 -235.5 86.5t-88.5 236.5q0 107 54.5 203.5t153.5 157t217 60.5zM172 304q0 -112 69 -184t173 -72q84 0 152.5 33t110 86t63.5 116.5t22 128.5q0 104 -69 176t-177 72
q-100 0 -180 -51t-122 -132t-42 -173zM412 883h91l79 -144h-59z" />
    <glyph glyph-name="Oacute" unicode="&#xd3;" horiz-adv-x="834" 
d="M519 726q139 0 230 -84.5t91 -239.5q0 -74 -31 -149t-85 -135.5t-134.5 -98t-171.5 -37.5q-147 0 -235.5 86.5t-88.5 236.5q0 107 54.5 203.5t153.5 157t217 60.5zM172 304q0 -112 69 -184t173 -72q84 0 152.5 33t110 86t63.5 116.5t22 128.5q0 104 -69 176t-177 72
q-100 0 -180 -51t-122 -132t-42 -173zM581 883h91l-153 -144h-59z" />
    <glyph glyph-name="Ocircumflex" unicode="&#xd4;" horiz-adv-x="834" 
d="M519 726q139 0 230 -84.5t91 -239.5q0 -74 -31 -149t-85 -135.5t-134.5 -98t-171.5 -37.5q-147 0 -235.5 86.5t-88.5 236.5q0 107 54.5 203.5t153.5 157t217 60.5zM172 304q0 -112 69 -184t173 -72q84 0 152.5 33t110 86t63.5 116.5t22 128.5q0 104 -69 176t-177 72
q-100 0 -180 -51t-122 -132t-42 -173zM502 883h80l88 -144h-66l-68 108l-98 -108h-66z" />
    <glyph glyph-name="Otilde" unicode="&#xd5;" horiz-adv-x="834" 
d="M519 726q139 0 230 -84.5t91 -239.5q0 -74 -31 -149t-85 -135.5t-134.5 -98t-171.5 -37.5q-147 0 -235.5 86.5t-88.5 236.5q0 107 54.5 203.5t153.5 157t217 60.5zM172 304q0 -112 69 -184t173 -72q84 0 152.5 33t110 86t63.5 116.5t22 128.5q0 104 -69 176t-177 72
q-100 0 -180 -51t-122 -132t-42 -173zM657 859h43q-32 -104 -106 -104q-21 0 -67.5 23t-66.5 23q-38 0 -56 -50h-43q32 104 107 104q19 0 67.5 -23t65.5 -23q38 0 56 50z" />
    <glyph glyph-name="Odieresis" unicode="&#xd6;" horiz-adv-x="834" 
d="M519 726q139 0 230 -84.5t91 -239.5q0 -74 -31 -149t-85 -135.5t-134.5 -98t-171.5 -37.5q-147 0 -235.5 86.5t-88.5 236.5q0 107 54.5 203.5t153.5 157t217 60.5zM172 304q0 -112 69 -184t173 -72q84 0 152.5 33t110 86t63.5 116.5t22 128.5q0 104 -69 176t-177 72
q-100 0 -180 -51t-122 -132t-42 -173zM444 873q19 0 32 -12.5t13 -31.5q0 -22 -18 -40t-41 -18q-19 0 -32 13t-13 31q0 23 18 40.5t41 17.5zM636 873q19 0 31.5 -12.5t12.5 -31.5q0 -22 -17.5 -40t-40.5 -18q-19 0 -32 13t-13 31q0 22 18 40t41 18z" />
    <glyph glyph-name="multiply" unicode="&#xd7;" horiz-adv-x="666" 
d="M197 463l48 42l137 -159l180 159l37 -42l-181 -160l136 -159l-49 -43l-135 159l-182 -159l-36 43l182 159z" />
    <glyph glyph-name="Oslash" unicode="&#xd8;" horiz-adv-x="834" 
d="M519 726q138 0 225 -81l87 81l32 -34l-87 -82q64 -79 64 -205q0 -111 -58.5 -209.5t-154.5 -156t-203 -57.5q-144 0 -234 81l-88 -81l-32 34l88 82q-65 81 -65 194q0 116 56.5 216t155 159t214.5 59zM172 304q0 -87 43 -152l473 441q-67 67 -179 67q-137 0 -237 -104
t-100 -252zM718 556l-473 -441q67 -67 179 -67q137 0 237 102.5t100 251.5q0 88 -43 154z" />
    <glyph glyph-name="Ugrave" unicode="&#xd9;" horiz-adv-x="686" 
d="M184 708h72l-60 -423q-6 -38 -6 -66q0 -83 42 -127t118 -44q87 0 145 57t73 167l62 436h72l-64 -452q-7 -51 -27 -97t-54 -87.5t-90 -65.5t-127 -24q-110 0 -166.5 58.5t-56.5 162.5q0 35 4 59zM338 883h91l79 -144h-59z" />
    <glyph glyph-name="Uacute" unicode="&#xda;" horiz-adv-x="686" 
d="M184 708h72l-60 -423q-6 -38 -6 -66q0 -83 42 -127t118 -44q87 0 145 57t73 167l62 436h72l-64 -452q-7 -51 -27 -97t-54 -87.5t-90 -65.5t-127 -24q-110 0 -166.5 58.5t-56.5 162.5q0 35 4 59zM507 883h91l-153 -144h-59z" />
    <glyph glyph-name="Ucircumflex" unicode="&#xdb;" horiz-adv-x="686" 
d="M184 708h72l-60 -423q-6 -38 -6 -66q0 -83 42 -127t118 -44q87 0 145 57t73 167l62 436h72l-64 -452q-7 -51 -27 -97t-54 -87.5t-90 -65.5t-127 -24q-110 0 -166.5 58.5t-56.5 162.5q0 35 4 59zM428 883h80l88 -144h-66l-68 108l-98 -108h-66z" />
    <glyph glyph-name="Udieresis" unicode="&#xdc;" horiz-adv-x="686" 
d="M184 708h72l-60 -423q-6 -38 -6 -66q0 -83 42 -127t118 -44q87 0 145 57t73 167l62 436h72l-64 -452q-7 -51 -27 -97t-54 -87.5t-90 -65.5t-127 -24q-110 0 -166.5 58.5t-56.5 162.5q0 35 4 59zM370 873q19 0 32 -12.5t13 -31.5q0 -22 -18 -40t-41 -18q-19 0 -32 13
t-13 31q0 23 18 40.5t41 17.5zM562 873q19 0 31.5 -12.5t12.5 -31.5q0 -22 -17.5 -40t-40.5 -18q-19 0 -32 13t-13 31q0 22 18 40t41 18z" />
    <glyph glyph-name="Yacute" unicode="&#xdd;" horiz-adv-x="574" 
d="M86 708h90l164 -334l258 334h90l-322 -403l-43 -305h-72l43 305zM451 883h91l-153 -144h-59z" />
    <glyph glyph-name="Thorn" unicode="&#xde;" horiz-adv-x="574" 
d="M196 708h72l-22 -156h164q84 0 131.5 -41t47.5 -117q0 -100 -67.5 -160.5t-165.5 -60.5h-164l-24 -173h-72zM236 486l-34 -247h122q186 0 186 149q0 51 -37 74.5t-116 23.5h-121z" />
    <glyph glyph-name="germandbls" unicode="&#xdf;" horiz-adv-x="593" 
d="M403 768q76 0 122 -40t46 -107q0 -142 -140 -189l-1 -2q70 -6 107.5 -51t37.5 -120q0 -110 -77.5 -190.5t-186.5 -80.5q-42 0 -66 8l8 57q19 -5 57 -5q87 0 140 63t53 150q0 138 -179 138l9 60q79 0 122 39t43 106q0 47 -29 75.5t-78 28.5q-65 0 -109 -43.5t-54 -111.5
l-78 -553h-66l76 543q16 110 78 167.5t165 57.5z" />
    <glyph glyph-name="agrave" unicode="&#xe0;" horiz-adv-x="519" 
d="M333 480q71 0 111 -36t40 -99q0 -19 -3 -38l-28 -202q-7 -55 -7 -105h-64q0 51 5 76h-2q-66 -88 -178 -88q-64 0 -103.5 32t-39.5 83q0 37 14 67.5t46 58t93 43t147 15.5h48q4 20 4 40q0 93 -105 93q-81 0 -151 -55l-33 47q74 68 206 68zM138 120q0 -33 27 -52.5
t72 -19.5q71 0 114.5 46t53.5 139h-43q-106 0 -165 -28.5t-59 -84.5zM230 708h91l79 -144h-59z" />
    <glyph glyph-name="aacute" unicode="&#xe1;" horiz-adv-x="519" 
d="M333 480q71 0 111 -36t40 -99q0 -19 -3 -38l-28 -202q-7 -55 -7 -105h-64q0 51 5 76h-2q-66 -88 -178 -88q-64 0 -103.5 32t-39.5 83q0 37 14 67.5t46 58t93 43t147 15.5h48q4 20 4 40q0 93 -105 93q-81 0 -151 -55l-33 47q74 68 206 68zM138 120q0 -33 27 -52.5
t72 -19.5q71 0 114.5 46t53.5 139h-43q-106 0 -165 -28.5t-59 -84.5zM399 708h91l-153 -144h-59z" />
    <glyph glyph-name="acircumflex" unicode="&#xe2;" horiz-adv-x="519" 
d="M333 480q71 0 111 -36t40 -99q0 -19 -3 -38l-28 -202q-7 -55 -7 -105h-64q0 51 5 76h-2q-66 -88 -178 -88q-64 0 -103.5 32t-39.5 83q0 37 14 67.5t46 58t93 43t147 15.5h48q4 20 4 40q0 93 -105 93q-81 0 -151 -55l-33 47q74 68 206 68zM138 120q0 -33 27 -52.5
t72 -19.5q71 0 114.5 46t53.5 139h-43q-106 0 -165 -28.5t-59 -84.5zM320 708h80l88 -144h-66l-68 108l-98 -108h-66z" />
    <glyph glyph-name="atilde" unicode="&#xe3;" horiz-adv-x="519" 
d="M333 480q71 0 111 -36t40 -99q0 -19 -3 -38l-28 -202q-7 -55 -7 -105h-64q0 51 5 76h-2q-66 -88 -178 -88q-64 0 -103.5 32t-39.5 83q0 37 14 67.5t46 58t93 43t147 15.5h48q4 20 4 40q0 93 -105 93q-81 0 -151 -55l-33 47q74 68 206 68zM138 120q0 -33 27 -52.5
t72 -19.5q71 0 114.5 46t53.5 139h-43q-106 0 -165 -28.5t-59 -84.5zM475 684h43q-32 -104 -106 -104q-20 0 -67 23t-67 23q-38 0 -56 -50h-43q31 104 107 104q25 0 72 -23t61 -23q38 0 56 50z" />
    <glyph glyph-name="adieresis" unicode="&#xe4;" horiz-adv-x="519" 
d="M333 480q71 0 111 -36t40 -99q0 -19 -3 -38l-28 -202q-7 -55 -7 -105h-64q0 51 5 76h-2q-66 -88 -178 -88q-64 0 -103.5 32t-39.5 83q0 37 14 67.5t46 58t93 43t147 15.5h48q4 20 4 40q0 93 -105 93q-81 0 -151 -55l-33 47q74 68 206 68zM138 120q0 -33 27 -52.5
t72 -19.5q71 0 114.5 46t53.5 139h-43q-106 0 -165 -28.5t-59 -84.5zM262 698q19 0 32 -12.5t13 -31.5q0 -22 -18 -40t-41 -18q-19 0 -32 13t-13 31q0 23 18 40.5t41 17.5zM454 698q19 0 31.5 -12.5t12.5 -31.5q0 -22 -17.5 -40t-40.5 -18q-19 0 -32 13t-13 31q0 22 18 40
t41 18z" />
    <glyph glyph-name="aring" unicode="&#xe5;" horiz-adv-x="519" 
d="M333 480q71 0 111 -36t40 -99q0 -19 -3 -38l-28 -202q-7 -55 -7 -105h-64q0 51 5 76h-2q-66 -88 -178 -88q-64 0 -103.5 32t-39.5 83q0 37 14 67.5t46 58t93 43t147 15.5h48q4 20 4 40q0 93 -105 93q-81 0 -151 -55l-33 47q74 68 206 68zM138 120q0 -33 27 -52.5
t72 -19.5q71 0 114.5 46t53.5 139h-43q-106 0 -165 -28.5t-59 -84.5zM365 745q36 0 59.5 -23t23.5 -57q0 -43 -33 -76.5t-77 -33.5q-35 0 -59.5 23.5t-24.5 57.5q0 44 34 76.5t77 32.5zM290 643q0 -22 15 -37t38 -15q27 0 48 20.5t21 47.5q0 22 -14.5 36t-37.5 14
q-27 0 -48.5 -20t-21.5 -46z" />
    <glyph glyph-name="ae" unicode="&#xe6;" horiz-adv-x="852" 
d="M336 480q53 0 92 -24.5t52 -65.5q28 40 78.5 65t99.5 25q85 0 134.5 -50.5t49.5 -138.5q0 -22 -8 -75h-351q-3 -17 -3 -37q0 -59 32 -95t86 -36q90 0 155 76l47 -41q-88 -95 -210 -95q-58 0 -101 28.5t-58 80.5q-42 -57 -95 -83t-128 -26q-64 0 -104 32t-40 83
q0 80 62.5 123.5t186.5 43.5h112q5 33 5 49q0 46 -30.5 73.5t-73.5 27.5q-82 0 -150 -56l-34 48q81 68 194 68zM491 270h285q2 18 2 28q0 55 -33.5 88.5t-92.5 33.5q-58 0 -105 -44t-56 -106zM138 120q0 -33 27 -52.5t72 -19.5q72 0 122.5 47t57.5 121h-138
q-62 0 -101.5 -25.5t-39.5 -70.5z" />
    <glyph glyph-name="ccedilla" unicode="&#xe7;" horiz-adv-x="482" 
d="M354 480q111 0 169 -81l-60 -41q-31 62 -118 62q-82 0 -138.5 -66t-56.5 -153q0 -70 40 -111.5t108 -41.5q81 0 130 62l49 -41q-81 -81 -187 -81h-4l-42 -48l1 -1q23 7 37 7q30 0 49 -17t19 -46q0 -43 -37.5 -71.5t-90.5 -28.5q-54 0 -94 24l21 36q31 -18 71 -18
q30 0 49.5 14t19.5 34q0 37 -44 37q-22 0 -47 -11l-16 17l67 76q-81 11 -126 65.5t-45 138.5q0 115 81 199.5t195 84.5z" />
    <glyph glyph-name="egrave" unicode="&#xe8;" 
d="M350 480q89 0 142.5 -53t53.5 -141q0 -27 -8 -70h-390v-13q0 -67 42.5 -111t106.5 -44q45 0 88 22t73 59l45 -42q-90 -99 -215 -99q-96 0 -153 58.5t-57 152.5q0 113 81.5 197t190.5 84zM158 270h316q2 26 2 27q0 57 -35.5 90t-98.5 33q-61 0 -117.5 -45t-66.5 -105z
M248 708h91l79 -144h-59z" />
    <glyph glyph-name="eacute" unicode="&#xe9;" 
d="M350 480q89 0 142.5 -53t53.5 -141q0 -27 -8 -70h-390v-13q0 -67 42.5 -111t106.5 -44q45 0 88 22t73 59l45 -42q-90 -99 -215 -99q-96 0 -153 58.5t-57 152.5q0 113 81.5 197t190.5 84zM158 270h316q2 26 2 27q0 57 -35.5 90t-98.5 33q-61 0 -117.5 -45t-66.5 -105z
M417 708h91l-153 -144h-59z" />
    <glyph glyph-name="ecircumflex" unicode="&#xea;" 
d="M350 480q89 0 142.5 -53t53.5 -141q0 -27 -8 -70h-390v-13q0 -67 42.5 -111t106.5 -44q45 0 88 22t73 59l45 -42q-90 -99 -215 -99q-96 0 -153 58.5t-57 152.5q0 113 81.5 197t190.5 84zM158 270h316q2 26 2 27q0 57 -35.5 90t-98.5 33q-61 0 -117.5 -45t-66.5 -105z
M338 708h80l88 -144h-66l-68 108l-98 -108h-66z" />
    <glyph glyph-name="edieresis" unicode="&#xeb;" 
d="M350 480q89 0 142.5 -53t53.5 -141q0 -27 -8 -70h-390v-13q0 -67 42.5 -111t106.5 -44q45 0 88 22t73 59l45 -42q-90 -99 -215 -99q-96 0 -153 58.5t-57 152.5q0 113 81.5 197t190.5 84zM158 270h316q2 26 2 27q0 57 -35.5 90t-98.5 33q-61 0 -117.5 -45t-66.5 -105z
M280 698q19 0 32 -12.5t13 -31.5q0 -22 -18 -40t-41 -18q-19 0 -32 13t-13 31q0 23 18 40.5t41 17.5zM472 698q19 0 31.5 -12.5t12.5 -31.5q0 -22 -17.5 -40t-40.5 -18q-19 0 -32 13t-13 31q0 22 18 40t41 18z" />
    <glyph glyph-name="igrave" unicode="&#xec;" horiz-adv-x="240" 
d="M153 468h66l-66 -468h-66zM90 708h91l79 -144h-59z" />
    <glyph glyph-name="iacute" unicode="&#xed;" horiz-adv-x="240" 
d="M153 468h66l-66 -468h-66zM259 708h91l-153 -144h-59z" />
    <glyph glyph-name="icircumflex" unicode="&#xee;" horiz-adv-x="240" 
d="M153 468h66l-66 -468h-66zM180 708h80l88 -144h-66l-68 108l-98 -108h-66z" />
    <glyph glyph-name="idieresis" unicode="&#xef;" horiz-adv-x="240" 
d="M153 468h66l-66 -468h-66zM122 698q19 0 32 -12.5t13 -31.5q0 -22 -18 -40t-41 -18q-19 0 -32 13t-13 31q0 23 18 40.5t41 17.5zM314 698q19 0 31.5 -12.5t12.5 -31.5q0 -22 -17.5 -40t-40.5 -18q-19 0 -32 13t-13 31q0 22 18 40t41 18z" />
    <glyph glyph-name="eth" unicode="&#xf0;" horiz-adv-x="593" 
d="M260 742l65 37q55 -50 86 -83l109 53l35 -35l-110 -54q141 -164 141 -335q0 -147 -77.5 -242t-214.5 -95q-98 0 -157 58.5t-59 152.5q0 117 84.5 199t200.5 82q83 0 142 -58l3 2q-51 126 -131 204l-118 -57l-31 36l116 56q-42 48 -84 79zM150 202q0 -70 41.5 -112
t111.5 -42q88 0 146.5 64t58.5 156q0 72 -43.5 112t-117.5 40q-81 0 -139 -66t-58 -152z" />
    <glyph glyph-name="ntilde" unicode="&#xf1;" 
d="M364 480q154 0 154 -143q0 -23 -5 -58l-40 -279h-66l35 253q5 33 5 60q0 57 -26 82t-81 25q-57 0 -106.5 -46.5t-61.5 -131.5l-34 -242h-66l50 355q5 33 11 113h68q-1 -26 -8 -75h2q28 37 75 62t94 25zM493 684h43q-32 -104 -106 -104q-20 0 -67 23t-67 23q-38 0 -56 -50
h-43q31 104 107 104q25 0 72 -23t61 -23q38 0 56 50z" />
    <glyph glyph-name="ograve" unicode="&#xf2;" horiz-adv-x="593" 
d="M363 480q99 0 158.5 -58.5t59.5 -155.5q0 -110 -84 -194t-195 -84q-102 0 -163 55.5t-61 152.5q0 117 84 200.5t201 83.5zM150 202q0 -70 41.5 -112t111.5 -42q87 0 146 64t59 156q0 68 -41.5 110t-117.5 42q-83 0 -141 -66t-58 -152zM267 708h91l79 -144h-59z" />
    <glyph glyph-name="oacute" unicode="&#xf3;" horiz-adv-x="593" 
d="M363 480q99 0 158.5 -58.5t59.5 -155.5q0 -110 -84 -194t-195 -84q-102 0 -163 55.5t-61 152.5q0 117 84 200.5t201 83.5zM150 202q0 -70 41.5 -112t111.5 -42q87 0 146 64t59 156q0 68 -41.5 110t-117.5 42q-83 0 -141 -66t-58 -152zM436 708h91l-153 -144h-59z" />
    <glyph glyph-name="ocircumflex" unicode="&#xf4;" horiz-adv-x="593" 
d="M363 480q99 0 158.5 -58.5t59.5 -155.5q0 -110 -84 -194t-195 -84q-102 0 -163 55.5t-61 152.5q0 117 84 200.5t201 83.5zM150 202q0 -70 41.5 -112t111.5 -42q87 0 146 64t59 156q0 68 -41.5 110t-117.5 42q-83 0 -141 -66t-58 -152zM357 708h80l88 -144h-66l-68 108
l-98 -108h-66z" />
    <glyph glyph-name="otilde" unicode="&#xf5;" horiz-adv-x="593" 
d="M363 480q99 0 158.5 -58.5t59.5 -155.5q0 -110 -84 -194t-195 -84q-102 0 -163 55.5t-61 152.5q0 117 84 200.5t201 83.5zM150 202q0 -70 41.5 -112t111.5 -42q87 0 146 64t59 156q0 68 -41.5 110t-117.5 42q-83 0 -141 -66t-58 -152zM512 684h43q-32 -104 -106 -104
q-20 0 -67 23t-67 23q-38 0 -56 -50h-43q31 104 107 104q25 0 72 -23t61 -23q38 0 56 50z" />
    <glyph glyph-name="odieresis" unicode="&#xf6;" horiz-adv-x="593" 
d="M363 480q99 0 158.5 -58.5t59.5 -155.5q0 -110 -84 -194t-195 -84q-102 0 -163 55.5t-61 152.5q0 117 84 200.5t201 83.5zM150 202q0 -70 41.5 -112t111.5 -42q87 0 146 64t59 156q0 68 -41.5 110t-117.5 42q-83 0 -141 -66t-58 -152zM299 698q19 0 32 -12.5t13 -31.5
q0 -22 -18 -40t-41 -18q-19 0 -32 13t-13 31q0 23 18 40.5t41 17.5zM491 698q19 0 31.5 -12.5t12.5 -31.5q0 -22 -17.5 -40t-40.5 -18q-19 0 -32 13t-13 31q0 22 18 40t41 18z" />
    <glyph glyph-name="divide" unicode="&#xf7;" horiz-adv-x="666" 
d="M406 519q21 0 34 -13t13 -33q0 -25 -18 -43.5t-44 -18.5q-20 0 -33.5 13.5t-13.5 32.5q0 25 18 43.5t44 18.5zM125 333h510l-9 -60h-510zM360 195q21 0 34.5 -13.5t13.5 -33.5q0 -24 -18.5 -42.5t-44.5 -18.5q-21 0 -34 13t-13 33q0 25 18 43.5t44 18.5z" />
    <glyph glyph-name="oslash" unicode="&#xf8;" horiz-adv-x="593" 
d="M515 428l76 68l27 -31l-75 -68q38 -51 38 -129q0 -112 -83.5 -196t-195.5 -84q-102 0 -157 52l-77 -68l-28 31l76 68q-38 54 -38 128q0 117 85 199t200 82q93 0 152 -52zM151 202q0 -50 20 -82l292 261q-42 39 -114 39q-83 0 -140.5 -65t-57.5 -153zM488 348l-292 -262
q42 -38 115 -38q82 0 139.5 65.5t57.5 151.5q0 45 -20 83z" />
    <glyph glyph-name="ugrave" unicode="&#xf9;" 
d="M138 468h66l-30 -211q-11 -93 -11 -100q0 -57 25.5 -83t80.5 -26q60 0 108.5 46.5t60.5 131.5l35 242h66l-52 -367l-9 -101h-68q1 33 8 75h-2q-28 -38 -75 -62.5t-95 -24.5q-153 0 -153 142q0 12 3 39zM248 708h91l79 -144h-59z" />
    <glyph glyph-name="uacute" unicode="&#xfa;" 
d="M138 468h66l-30 -211q-11 -93 -11 -100q0 -57 25.5 -83t80.5 -26q60 0 108.5 46.5t60.5 131.5l35 242h66l-52 -367l-9 -101h-68q1 33 8 75h-2q-28 -38 -75 -62.5t-95 -24.5q-153 0 -153 142q0 12 3 39zM417 708h91l-153 -144h-59z" />
    <glyph glyph-name="ucircumflex" unicode="&#xfb;" 
d="M138 468h66l-30 -211q-11 -93 -11 -100q0 -57 25.5 -83t80.5 -26q60 0 108.5 46.5t60.5 131.5l35 242h66l-52 -367l-9 -101h-68q1 33 8 75h-2q-28 -38 -75 -62.5t-95 -24.5q-153 0 -153 142q0 12 3 39zM338 708h80l88 -144h-66l-68 108l-98 -108h-66z" />
    <glyph glyph-name="udieresis" unicode="&#xfc;" 
d="M138 468h66l-30 -211q-11 -93 -11 -100q0 -57 25.5 -83t80.5 -26q60 0 108.5 46.5t60.5 131.5l35 242h66l-52 -367l-9 -101h-68q1 33 8 75h-2q-28 -38 -75 -62.5t-95 -24.5q-153 0 -153 142q0 12 3 39zM280 698q19 0 32 -12.5t13 -31.5q0 -22 -18 -40t-41 -18
q-19 0 -32 13t-13 31q0 23 18 40.5t41 17.5zM472 698q19 0 31.5 -12.5t12.5 -31.5q0 -22 -17.5 -40t-40.5 -18q-19 0 -32 13t-13 31q0 22 18 40t41 18z" />
    <glyph glyph-name="yacute" unicode="&#xfd;" horiz-adv-x="482" 
d="M82 468h83l92 -387l198 387h80l-310 -577q-17 -32 -27.5 -48t-31.5 -39t-48.5 -33.5t-63.5 -10.5q-38 0 -60 7l16 64q21 -11 49 -11q61 0 104 87l44 87zM380 708h91l-153 -144h-59z" />
    <glyph glyph-name="thorn" unicode="&#xfe;" horiz-adv-x="611" 
d="M178 756h66l-52 -375h2q84 99 196 99q98 0 157.5 -59t59.5 -154q0 -111 -82.5 -195t-204.5 -84q-54 0 -100 24t-69 66h-2l-43 -306h-66zM166 203q0 -73 45.5 -114t125.5 -41q82 0 140 66.5t58 152.5q0 71 -43.5 112t-116.5 41q-84 0 -146.5 -64.5t-62.5 -152.5z" />
    <glyph glyph-name="ydieresis" unicode="&#xff;" horiz-adv-x="482" 
d="M82 468h83l92 -387l198 387h80l-310 -577q-17 -32 -27.5 -48t-31.5 -39t-48.5 -33.5t-63.5 -10.5q-38 0 -60 7l16 64q21 -11 49 -11q61 0 104 87l44 87zM243 698q19 0 32 -12.5t13 -31.5q0 -22 -18 -40t-41 -18q-19 0 -32 13t-13 31q0 23 18 40.5t41 17.5zM435 698
q19 0 31.5 -12.5t12.5 -31.5q0 -22 -17.5 -40t-40.5 -18q-19 0 -32 13t-13 31q0 22 18 40t41 18z" />
    <glyph glyph-name="Amacron" unicode="&#x100;" horiz-adv-x="686" 
d="M408 708h70l208 -708h-84l-52 186h-362l-104 -186h-84zM431 624l-207 -372h307zM325 845h270l-8 -54h-270z" />
    <glyph glyph-name="amacron" unicode="&#x101;" horiz-adv-x="519" 
d="M333 480q71 0 111 -36t40 -99q0 -19 -3 -38l-28 -202q-7 -55 -7 -105h-64q0 51 5 76h-2q-66 -88 -178 -88q-64 0 -103.5 32t-39.5 83q0 37 14 67.5t46 58t93 43t147 15.5h48q4 20 4 40q0 93 -105 93q-81 0 -151 -55l-33 47q74 68 206 68zM138 120q0 -33 27 -52.5
t72 -19.5q71 0 114.5 46t53.5 139h-43q-106 0 -165 -28.5t-59 -84.5zM217 654h270l-8 -54h-270z" />
    <glyph glyph-name="Abreve" unicode="&#x102;" horiz-adv-x="686" 
d="M408 708h70l208 -708h-84l-52 186h-362l-104 -186h-84zM431 624l-207 -372h307zM317 875v17h44q1 -36 25.5 -57t66.5 -21q41 0 71.5 20.5t42.5 57.5h44q-12 -61 -57 -96.5t-109 -35.5q-60 0 -94 31.5t-34 83.5z" />
    <glyph glyph-name="abreve" unicode="&#x103;" horiz-adv-x="519" 
d="M333 480q71 0 111 -36t40 -99q0 -19 -3 -38l-28 -202q-7 -55 -7 -105h-64q0 51 5 76h-2q-66 -88 -178 -88q-64 0 -103.5 32t-39.5 83q0 37 14 67.5t46 58t93 43t147 15.5h48q4 20 4 40q0 93 -105 93q-81 0 -151 -55l-33 47q74 68 206 68zM138 120q0 -33 27 -52.5
t72 -19.5q71 0 114.5 46t53.5 139h-43q-106 0 -165 -28.5t-59 -84.5zM195 691v17h44q1 -36 25.5 -57t66.5 -21q41 0 71.5 20.5t42.5 57.5h44q-12 -61 -57 -96.5t-109 -35.5q-60 0 -94 31.5t-34 83.5z" />
    <glyph glyph-name="Aogonek" unicode="&#x104;" horiz-adv-x="686" 
d="M408 708h70l208 -708h-30q-52 -47 -70 -73t-18 -50q0 -17 12 -28.5t32 -11.5q32 0 54 22l14 -40q-44 -36 -95 -36q-34 0 -57 21t-23 51q0 68 101 145h-4l-52 186h-362l-104 -186h-84zM431 624l-207 -372h307z" />
    <glyph glyph-name="aogonek" unicode="&#x105;" horiz-adv-x="519" 
d="M333 480q71 0 111 -36t40 -99q0 -18 -4 -43l-27 -197q-7 -55 -7 -105h-14q-55 -50 -71 -74t-16 -50q0 -16 12 -27.5t31 -11.5q32 0 54 22l14 -41q-44 -35 -95 -35q-34 0 -57 20.5t-23 51.5q0 66 101 145q0 51 5 76h-2q-66 -88 -177 -88q-64 0 -104 32t-40 84
q0 82 70.5 132.5t227.5 50.5h50q4 23 4 39q0 94 -105 94q-81 0 -151 -55l-33 47q74 68 206 68zM405 233h-53q-97 0 -155.5 -29.5t-58.5 -76.5q0 -79 99 -79q68 0 113 44.5t55 140.5z" />
    <glyph glyph-name="Cacute" unicode="&#x106;" horiz-adv-x="704" 
d="M748 614l-69 -47q-19 39 -69 66t-101 27q-139 0 -238 -105t-99 -263q0 -101 69 -172.5t170 -71.5q147 0 231 106l52 -42q-46 -59 -121.5 -94.5t-158.5 -35.5q-144 0 -232 87.5t-88 231.5q0 109 56 207t152.5 158t208.5 60q166 0 237 -112zM572 904h91l-153 -144h-59z" />
    <glyph glyph-name="cacute" unicode="&#x107;" horiz-adv-x="482" 
d="M359 480q107 0 164 -81l-60 -41q-31 62 -116 62q-83 0 -140 -66t-57 -153q0 -70 40 -111.5t108 -41.5q81 0 130 62l49 -41q-81 -81 -189 -81q-97 0 -153.5 55.5t-56.5 149.5q0 121 81 204t200 83zM420 708h91l-153 -144h-59z" />
    <glyph glyph-name="Ccircumflex" unicode="&#x108;" horiz-adv-x="704" 
d="M748 614l-69 -47q-19 39 -69 66t-101 27q-139 0 -238 -105t-99 -263q0 -101 69 -172.5t170 -71.5q147 0 231 106l52 -42q-46 -59 -121.5 -94.5t-158.5 -35.5q-144 0 -232 87.5t-88 231.5q0 109 56 207t152.5 158t208.5 60q166 0 237 -112zM501 904h80l88 -144h-66
l-68 108l-98 -108h-66z" />
    <glyph glyph-name="ccircumflex" unicode="&#x109;" horiz-adv-x="482" 
d="M359 480q107 0 164 -81l-60 -41q-31 62 -116 62q-83 0 -140 -66t-57 -153q0 -70 40 -111.5t108 -41.5q81 0 130 62l49 -41q-81 -81 -189 -81q-97 0 -153.5 55.5t-56.5 149.5q0 121 81 204t200 83zM338 708h80l88 -144h-66l-68 108l-98 -108h-66z" />
    <glyph glyph-name="Cdotaccent" unicode="&#x10a;" horiz-adv-x="704" 
d="M748 614l-69 -47q-19 39 -69 66t-101 27q-139 0 -238 -105t-99 -263q0 -101 69 -172.5t170 -71.5q147 0 231 106l52 -42q-46 -59 -121.5 -94.5t-158.5 -35.5q-144 0 -232 87.5t-88 231.5q0 109 56 207t152.5 158t208.5 60q166 0 237 -112zM539 873q20 0 32 -12t12 -31
q0 -24 -17 -41.5t-42 -17.5q-20 0 -32 12.5t-12 31.5q0 22 17.5 40t41.5 18z" />
    <glyph glyph-name="cdotaccent" unicode="&#x10b;" horiz-adv-x="482" 
d="M359 480q107 0 164 -81l-60 -41q-31 62 -116 62q-83 0 -140 -66t-57 -153q0 -70 40 -111.5t108 -41.5q81 0 130 62l49 -41q-81 -81 -189 -81q-97 0 -153.5 55.5t-56.5 149.5q0 121 81 204t200 83zM364 708q20 0 32 -12t12 -31q0 -23 -17.5 -41t-41.5 -18q-20 0 -32 12.5
t-12 32.5q0 22 17.5 39.5t41.5 17.5z" />
    <glyph glyph-name="Ccaron" unicode="&#x10c;" horiz-adv-x="704" 
d="M748 614l-69 -47q-19 39 -69 66t-101 27q-139 0 -238 -105t-99 -263q0 -101 69 -172.5t170 -71.5q147 0 231 106l52 -42q-46 -59 -121.5 -94.5t-158.5 -35.5q-144 0 -232 87.5t-88 231.5q0 109 56 207t152.5 158t208.5 60q166 0 237 -112zM382 904h66l67 -108l99 108h66
l-130 -144h-80z" />
    <glyph glyph-name="ccaron" unicode="&#x10d;" horiz-adv-x="482" 
d="M359 480q107 0 164 -81l-60 -41q-31 62 -116 62q-83 0 -140 -66t-57 -153q0 -70 40 -111.5t108 -41.5q81 0 130 62l49 -41q-81 -81 -189 -81q-97 0 -153.5 55.5t-56.5 149.5q0 121 81 204t200 83zM224 708h66l67 -108l99 108h66l-130 -144h-80z" />
    <glyph glyph-name="Dcaron" unicode="&#x10e;" horiz-adv-x="741" 
d="M186 708h236q142 0 233.5 -84.5t91.5 -213.5q0 -170 -124 -290t-307 -120h-230zM248 642l-81 -576h145q150 0 253 94.5t103 241.5q0 111 -78.5 175.5t-196.5 64.5h-145zM295 904h66l67 -108l99 108h66l-130 -144h-80z" />
    <glyph glyph-name="dcaron" unicode="&#x10f;" horiz-adv-x="611" 
d="M579 756h66l-106 -756h-66l11 78h-2q-35 -42 -88 -66t-107 -24q-98 0 -157.5 58.5t-59.5 153.5q0 112 84 196t195 84q127 0 177 -90h2zM143 200q0 -71 43 -111.5t115 -40.5q85 0 147.5 65.5t62.5 150.5q0 70 -45.5 113t-123.5 43q-82 0 -140.5 -64.5t-58.5 -155.5z
M765 708h71l-115 -185h-57z" />
    <glyph glyph-name="Dcroat" unicode="&#x110;" horiz-adv-x="741" 
d="M186 708h237q143 0 233.5 -85t90.5 -213q0 -115 -58.5 -209.5t-156.5 -147.5t-213 -53h-233l49 347h-73l7 54h73zM248 642l-34 -241h258l-7 -54h-258l-40 -281h145q150 0 253 94.5t103 242.5q0 111 -79 175t-196 64h-145z" />
    <glyph glyph-name="dcroat" unicode="&#x111;" horiz-adv-x="611" 
d="M579 756h66l-20 -144h65l-8 -52h-65l-78 -560h-66l11 78h-2q-37 -42 -88.5 -66t-106.5 -24q-99 0 -158 58t-59 154q0 114 84 197t200 83q56 0 102.5 -23.5t69.5 -66.5h2l23 170h-188l8 52h188zM142 200q0 -69 42.5 -110.5t111.5 -41.5q89 0 152 64.5t63 150.5
q0 72 -47 114.5t-124 42.5q-81 0 -139.5 -66.5t-58.5 -153.5z" />
    <glyph glyph-name="Emacron" unicode="&#x112;" horiz-adv-x="593" 
d="M196 708h439l-10 -66h-367l-34 -241h343l-9 -66h-343l-38 -269h379l-9 -66h-451zM307 845h270l-8 -54h-270z" />
    <glyph glyph-name="emacron" unicode="&#x113;" 
d="M350 480q89 0 142.5 -53t53.5 -141q0 -27 -8 -70h-390v-13q0 -67 42.5 -111t106.5 -44q45 0 88 22t73 59l45 -42q-90 -99 -215 -99q-96 0 -153 58.5t-57 152.5q0 113 81.5 197t190.5 84zM158 270h316q2 26 2 27q0 57 -35.5 90t-98.5 33q-61 0 -117.5 -45t-66.5 -105z
M238 654h270l-8 -54h-270z" />
    <glyph glyph-name="Ebreve" unicode="&#x114;" horiz-adv-x="593" 
d="M196 708h439l-10 -66h-367l-34 -241h343l-9 -66h-343l-38 -269h379l-9 -66h-451zM295 875v17h44q1 -36 25.5 -57t66.5 -21q41 0 71.5 20.5t42.5 57.5h44q-12 -61 -57 -96.5t-109 -35.5q-60 0 -94 31.5t-34 83.5z" />
    <glyph glyph-name="ebreve" unicode="&#x115;" 
d="M350 480q89 0 142.5 -53t53.5 -141q0 -27 -8 -70h-390v-13q0 -67 42.5 -111t106.5 -44q45 0 88 22t73 59l45 -42q-90 -99 -215 -99q-96 0 -153 58.5t-57 152.5q0 113 81.5 197t190.5 84zM158 270h316q2 26 2 27q0 57 -35.5 90t-98.5 33q-61 0 -117.5 -45t-66.5 -105z
M240 691v17h44q1 -36 25.5 -57t66.5 -21q41 0 71.5 20.5t42.5 57.5h44q-12 -61 -57 -96.5t-109 -35.5q-60 0 -94 31.5t-34 83.5z" />
    <glyph glyph-name="Edotaccent" unicode="&#x116;" horiz-adv-x="593" 
d="M196 708h439l-10 -66h-367l-34 -241h343l-9 -66h-343l-38 -269h379l-9 -66h-451zM440 873q20 0 32 -12t12 -31q0 -24 -17 -41.5t-42 -17.5q-20 0 -32 12.5t-12 31.5q0 22 17.5 40t41.5 18z" />
    <glyph glyph-name="edotaccent" unicode="&#x117;" 
d="M350 480q89 0 142.5 -53t53.5 -141q0 -27 -8 -70h-390v-13q0 -67 42.5 -111t106.5 -44q45 0 88 22t73 59l45 -42q-90 -99 -215 -99q-96 0 -153 58.5t-57 152.5q0 113 81.5 197t190.5 84zM158 270h316q2 26 2 27q0 57 -35.5 90t-98.5 33q-61 0 -117.5 -45t-66.5 -105z
M379 708q20 0 32 -12t12 -31q0 -23 -17.5 -41t-41.5 -18q-20 0 -32 12.5t-12 32.5q0 22 17.5 39.5t41.5 17.5z" />
    <glyph glyph-name="Eogonek" unicode="&#x118;" horiz-adv-x="593" 
d="M196 708h439l-10 -66h-367l-34 -241h343l-9 -66h-343l-38 -269h379l-9 -66h-20q-53 -47 -70.5 -73t-17.5 -50q0 -17 12 -28.5t32 -11.5q32 0 54 22l13 -40q-42 -36 -94 -36q-34 0 -57 21t-23 51q0 66 101 145h-381z" />
    <glyph glyph-name="eogonek" unicode="&#x119;" 
d="M350 480q89 0 142.5 -53t53.5 -141q0 -27 -8 -70h-391v-13q0 -68 43 -111.5t107 -43.5q45 0 88 22t73 59l45 -42q-73 -79 -165 -95q-78 -70 -78 -115q0 -17 12 -28.5t31 -11.5q32 0 54 22l14 -40q-43 -36 -95 -36q-34 0 -57 20.5t-23 51.5q0 65 86 133q-93 1 -148.5 61
t-55.5 154q0 111 84 194t188 83zM158 270h316q0 5 0.5 11.5t1 10t0.5 5.5q0 57 -35.5 90t-98.5 33q-61 0 -117.5 -45t-66.5 -105z" />
    <glyph glyph-name="Ecaron" unicode="&#x11a;" horiz-adv-x="593" 
d="M196 708h439l-10 -66h-367l-34 -241h343l-9 -66h-343l-38 -269h379l-9 -66h-451zM294 904h66l67 -108l99 108h66l-130 -144h-80z" />
    <glyph glyph-name="ecaron" unicode="&#x11b;" 
d="M350 480q89 0 142.5 -53t53.5 -141q0 -27 -8 -70h-390v-13q0 -67 42.5 -111t106.5 -44q45 0 88 22t73 59l45 -42q-90 -99 -215 -99q-96 0 -153 58.5t-57 152.5q0 113 81.5 197t190.5 84zM158 270h316q2 26 2 27q0 57 -35.5 90t-98.5 33q-61 0 -117.5 -45t-66.5 -105z
M232 708h66l67 -108l99 108h66l-130 -144h-80z" />
    <glyph glyph-name="Gcircumflex" unicode="&#x11c;" horiz-adv-x="778" 
d="M520 726q162 0 242 -95l-62 -53q-66 82 -190 82q-139 0 -238.5 -105t-99.5 -260q0 -104 69 -175.5t171 -71.5q123 0 215 51l33 236h-169l9 66h241l-48 -347q-133 -72 -279 -72q-144 0 -232 87t-88 234q0 111 57 208.5t155.5 156t213.5 58.5zM499 904h80l88 -144h-66
l-68 108l-98 -108h-66z" />
    <glyph glyph-name="gcircumflex" unicode="&#x11d;" horiz-adv-x="611" 
d="M353 480q115 0 169 -90h2l11 78h66l-64 -461q-17 -118 -90 -182.5t-197 -64.5q-137 0 -212 94l57 52q52 -86 167 -86q89 0 142 49t66 140l11 79h-2q-70 -88 -187 -88q-95 0 -154 58.5t-59 148.5q0 110 82.5 191.5t191.5 81.5zM152 213q0 -65 43 -109t107 -44
q83 0 144 59.5t61 151.5q0 68 -43 108.5t-116 40.5q-76 0 -136 -63.5t-60 -143.5zM362 708h80l88 -144h-66l-68 108l-98 -108h-66z" />
    <glyph glyph-name="Gbreve" unicode="&#x11e;" horiz-adv-x="778" 
d="M520 726q162 0 242 -95l-62 -53q-66 82 -190 82q-139 0 -238.5 -105t-99.5 -260q0 -104 69 -175.5t171 -71.5q123 0 215 51l33 236h-169l9 66h241l-48 -347q-133 -72 -279 -72q-144 0 -232 87t-88 234q0 111 57 208.5t155.5 156t213.5 58.5zM393 875v17h44
q1 -36 25.5 -57t66.5 -21q41 0 71.5 20.5t42.5 57.5h44q-12 -61 -57 -96.5t-109 -35.5q-60 0 -94 31.5t-34 83.5z" />
    <glyph glyph-name="gbreve" unicode="&#x11f;" horiz-adv-x="611" 
d="M353 480q115 0 169 -90h2l11 78h66l-64 -461q-17 -118 -90 -182.5t-197 -64.5q-137 0 -212 94l57 52q52 -86 167 -86q89 0 142 49t66 140l11 79h-2q-70 -88 -187 -88q-95 0 -154 58.5t-59 148.5q0 110 82.5 191.5t191.5 81.5zM152 213q0 -65 43 -109t107 -44
q83 0 144 59.5t61 151.5q0 68 -43 108.5t-116 40.5q-76 0 -136 -63.5t-60 -143.5zM259 691v17h44q1 -36 25.5 -57t66.5 -21q41 0 71.5 20.5t42.5 57.5h44q-12 -61 -57 -96.5t-109 -35.5q-60 0 -94 31.5t-34 83.5z" />
    <glyph glyph-name="Gdotaccent" unicode="&#x120;" horiz-adv-x="778" 
d="M520 726q162 0 242 -95l-62 -53q-66 82 -190 82q-139 0 -238.5 -105t-99.5 -260q0 -104 69 -175.5t171 -71.5q123 0 215 51l33 236h-169l9 66h241l-48 -347q-133 -72 -279 -72q-144 0 -232 87t-88 234q0 111 57 208.5t155.5 156t213.5 58.5zM533 873q20 0 32 -12t12 -31
q0 -24 -17 -41.5t-42 -17.5q-20 0 -32 12.5t-12 31.5q0 22 17.5 40t41.5 18z" />
    <glyph glyph-name="gdotaccent" unicode="&#x121;" horiz-adv-x="611" 
d="M353 480q115 0 169 -90h2l11 78h66l-64 -461q-17 -118 -90 -182.5t-197 -64.5q-137 0 -212 94l57 52q52 -86 167 -86q89 0 142 49t66 140l11 79h-2q-70 -88 -187 -88q-95 0 -154 58.5t-59 148.5q0 110 82.5 191.5t191.5 81.5zM152 213q0 -65 43 -109t107 -44
q83 0 144 59.5t61 151.5q0 68 -43 108.5t-116 40.5q-76 0 -136 -63.5t-60 -143.5zM407 708q20 0 32 -12t12 -31q0 -23 -17.5 -41t-41.5 -18q-20 0 -32 12.5t-12 32.5q0 22 17.5 39.5t41.5 17.5z" />
    <glyph glyph-name="Gcommaaccent" unicode="&#x122;" horiz-adv-x="778" 
d="M520 726q162 0 242 -95l-62 -53q-66 82 -190 82q-139 0 -238.5 -105t-99.5 -260q0 -104 69 -175.5t171 -71.5q123 0 215 51l33 236h-169l9 66h241l-48 -347q-133 -72 -279 -72q-144 0 -232 87t-88 234q0 111 57 208.5t155.5 156t213.5 58.5zM409 -45h71l-115 -185h-57z
" />
    <glyph glyph-name="gcommaaccent" unicode="&#x123;" horiz-adv-x="611" 
d="M353 480q115 0 169 -90h2l11 78h66l-64 -461q-17 -118 -90 -182.5t-197 -64.5q-137 0 -212 94l57 52q52 -86 167 -86q89 0 142 49t66 140l11 79h-2q-70 -88 -187 -88q-95 0 -154 58.5t-59 148.5q0 110 82.5 191.5t191.5 81.5zM152 213q0 -65 43 -109t107 -44
q83 0 144 59.5t61 151.5q0 68 -43 108.5t-116 40.5q-76 0 -136 -63.5t-60 -143.5zM309 564l115 185h57l-101 -185h-71z" />
    <glyph glyph-name="Hcircumflex" unicode="&#x124;" horiz-adv-x="722" 
d="M196 708h72l-44 -307h386l44 307h72l-100 -708h-72l47 335h-386l-47 -335h-72zM445 904h80l88 -144h-66l-68 108l-98 -108h-66z" />
    <glyph glyph-name="hcircumflex" unicode="&#x125;" 
d="M178 756h66l-51 -363h2q28 37 75 62t94 25q154 0 154 -143q0 -17 -6 -63l-39 -274h-66l35 256q5 33 5 57q0 58 -25.5 82.5t-83.5 24.5q-57 0 -106 -48.5t-60 -127.5l-34 -244h-66zM317 940h80l88 -144h-66l-68 108l-98 -108h-66z" />
    <glyph glyph-name="Hbar" unicode="&#x126;" horiz-adv-x="722" 
d="M196 708h72l-20 -135h386l20 135h72l-100 -708h-72l47 335h-386l-47 -335h-72zM240 513l-16 -112h386l16 112h-386z" />
    <glyph glyph-name="hbar" unicode="&#x127;" 
d="M178 756h66l-20 -144h188l-8 -52h-188l-23 -167h2q25 37 73.5 62t96.5 25q153 0 153 -143q0 -22 -3 -40l-42 -297h-66l35 251q6 46 6 63q0 56 -27 81t-79 25q-65 0 -111.5 -49.5t-57.5 -123.5l-35 -247h-66l78 560h-65l8 52h65z" />
    <glyph glyph-name="Itilde" unicode="&#x128;" horiz-adv-x="264" 
d="M196 708h72l-100 -708h-72zM368 873h43q-32 -104 -106 -104q-21 0 -67.5 23t-66.5 23q-38 0 -56 -50h-43q32 104 107 104q19 0 67.5 -23t65.5 -23q38 0 56 50z" />
    <glyph glyph-name="itilde" unicode="&#x129;" horiz-adv-x="240" 
d="M153 468h66l-66 -468h-66zM333 684h43q-32 -104 -106 -104q-20 0 -67 23t-67 23q-38 0 -56 -50h-43q31 104 107 104q25 0 72 -23t61 -23q38 0 56 50z" />
    <glyph glyph-name="Imacron" unicode="&#x12a;" horiz-adv-x="264" 
d="M196 708h72l-100 -708h-72zM108 845h270l-8 -54h-270z" />
    <glyph glyph-name="imacron" unicode="&#x12b;" horiz-adv-x="240" 
d="M153 468h66l-66 -468h-66zM75 654h270l-8 -54h-270z" />
    <glyph glyph-name="Iogonek" unicode="&#x12e;" horiz-adv-x="264" 
d="M196 708h72l-100 -708h-16q-53 -47 -70.5 -73t-17.5 -50q0 -17 12 -28.5t32 -11.5q32 0 54 22l14 -40q-43 -36 -95 -36q-34 0 -57 21t-23 51q0 66 101 145h-6z" />
    <glyph glyph-name="iogonek" unicode="&#x12f;" horiz-adv-x="240" 
d="M218 696q17 0 29 -11.5t12 -29.5q0 -22 -17 -38.5t-38 -16.5q-17 0 -29 12.5t-12 28.5q0 22 16.5 38.5t38.5 16.5zM153 468h66l-66 -468h-12q-55 -50 -71 -74t-16 -50q0 -16 12 -27.5t31 -11.5q32 0 54 22l14 -40q-43 -36 -95 -36q-34 0 -57 20.5t-23 51.5q0 66 101 145
h-4z" />
    <glyph glyph-name="Idotaccent" unicode="&#x130;" horiz-adv-x="264" 
d="M196 708h72l-100 -708h-72zM253 873q20 0 32 -12t12 -31q0 -24 -17 -41.5t-42 -17.5q-20 0 -32 12.5t-12 31.5q0 22 17.5 40t41.5 18z" />
    <glyph glyph-name="dotlessi" unicode="&#x131;" horiz-adv-x="240" 
d="M153 468h66l-66 -468h-66z" />
    <glyph glyph-name="Jcircumflex" unicode="&#x134;" horiz-adv-x="482" 
d="M424 708h72l-71 -501q-15 -104 -73.5 -164.5t-157.5 -60.5q-74 0 -116.5 38t-45.5 110l75 15q8 -97 99 -97q124 0 149 175zM448 904h80l88 -144h-66l-68 108l-98 -108h-66z" />
    <glyph glyph-name="jcircumflex" unicode="&#x135;" horiz-adv-x="240" 
d="M153 468h66l-81 -573q-19 -135 -151 -135q-29 0 -50 10l17 57q23 -7 38 -7q70 0 83 98zM180 708h80l88 -144h-66l-68 108l-98 -108h-66z" />
    <glyph glyph-name="Kcommaaccent" unicode="&#x136;" horiz-adv-x="630" 
d="M196 708h72l-44 -307h10l377 307h103l-403 -321l323 -387h-106l-297 365h-12l-51 -365h-72zM305 -45h71l-115 -185h-57z" />
    <glyph glyph-name="kcommaaccent" unicode="&#x137;" horiz-adv-x="482" 
d="M178 756h66l-70 -499l251 211h99l-263 -214l222 -254h-102l-208 246l-35 -246h-66zM227 -45h71l-115 -185h-57z" />
    <glyph glyph-name="Lacute" unicode="&#x139;" horiz-adv-x="500" 
d="M196 708h72l-91 -642h330l-9 -66h-402zM309 904h91l-153 -144h-59z" />
    <glyph glyph-name="lacute" unicode="&#x13a;" horiz-adv-x="240" 
d="M193 756h66l-106 -756h-66zM316 936h91l-153 -144h-59z" />
    <glyph glyph-name="Lcommaaccent" unicode="&#x13b;" horiz-adv-x="500" 
d="M196 708h72l-91 -642h330l-9 -66h-402zM284 -45h71l-115 -185h-57z" />
    <glyph glyph-name="lcommaaccent" unicode="&#x13c;" horiz-adv-x="240" 
d="M193 756h66l-106 -756h-66zM80 -45h71l-115 -185h-57z" />
    <glyph glyph-name="Lcaron" unicode="&#x13d;" horiz-adv-x="500" 
d="M196 708h72l-91 -642h330l-9 -66h-402zM391 708h71l-115 -185h-57z" />
    <glyph glyph-name="lcaron" unicode="&#x13e;" horiz-adv-x="240" 
d="M193 756h66l-106 -756h-66zM375 708h71l-115 -185h-57z" />
    <glyph glyph-name="Ldot" unicode="&#x13f;" horiz-adv-x="500" 
d="M196 708h72l-91 -642h330l-9 -66h-402zM443 457q20 0 32 -12t12 -31q0 -23 -17.5 -41t-41.5 -18q-20 0 -32 12.5t-12 32.5q0 22 17.5 39.5t41.5 17.5z" />
    <glyph glyph-name="ldot" unicode="&#x140;" horiz-adv-x="300" 
d="M193 756h66l-106 -756h-66zM336 460q20 0 32 -12t12 -31q0 -23 -17.5 -41t-41.5 -18q-20 0 -32 12.5t-12 32.5q0 22 17.5 39.5t41.5 17.5z" />
    <glyph glyph-name="Lslash" unicode="&#x141;" horiz-adv-x="500" 
d="M196 708h72l-49 -346l242 186l-10 -70l-242 -186l-32 -226h330l-9 -66h-402l32 230l-92 -70l10 70l92 70z" />
    <glyph glyph-name="lslash" unicode="&#x142;" horiz-adv-x="240" 
d="M193 756h66l-42 -298l93 84l-10 -73l-93 -83l-54 -386h-66l45 317l-93 -83l10 73l93 82z" />
    <glyph glyph-name="Nacute" unicode="&#x143;" horiz-adv-x="778" 
d="M196 708h90l337 -600h2l85 600h72l-100 -708h-90l-337 606h-2l-86 -606h-71zM541 904h91l-153 -144h-59z" />
    <glyph glyph-name="nacute" unicode="&#x144;" 
d="M364 480q154 0 154 -143q0 -23 -5 -58l-40 -279h-66l35 253q5 33 5 60q0 57 -26 82t-81 25q-57 0 -106.5 -46.5t-61.5 -131.5l-34 -242h-66l50 355q5 33 11 113h68q-1 -26 -8 -75h2q28 37 75 62t94 25zM418 708h91l-153 -144h-59z" />
    <glyph glyph-name="Ncommaaccent" unicode="&#x145;" horiz-adv-x="778" 
d="M196 708h90l337 -600h2l85 600h72l-100 -708h-90l-337 606h-2l-86 -606h-71zM364 -45h71l-115 -185h-57z" />
    <glyph glyph-name="ncommaaccent" unicode="&#x146;" 
d="M364 480q154 0 154 -143q0 -23 -5 -58l-40 -279h-66l35 253q5 33 5 60q0 57 -26 82t-81 25q-57 0 -106.5 -46.5t-61.5 -131.5l-34 -242h-66l50 355q5 33 11 113h68q-1 -26 -8 -75h2q28 37 75 62t94 25zM245 -45h71l-115 -185h-57z" />
    <glyph glyph-name="Ncaron" unicode="&#x147;" horiz-adv-x="778" 
d="M196 708h90l337 -600h2l85 600h72l-100 -708h-90l-337 606h-2l-86 -606h-71zM342 904h66l67 -108l99 108h66l-130 -144h-80z" />
    <glyph glyph-name="ncaron" unicode="&#x148;" 
d="M364 480q154 0 154 -143q0 -23 -5 -58l-40 -279h-66l35 253q5 33 5 60q0 57 -26 82t-81 25q-57 0 -106.5 -46.5t-61.5 -131.5l-34 -242h-66l50 355q5 33 11 113h68q-1 -26 -8 -75h2q28 37 75 62t94 25zM221 708h66l67 -108l99 108h66l-130 -144h-80z" />
    <glyph glyph-name="Omacron" unicode="&#x14c;" horiz-adv-x="834" 
d="M519 726q139 0 230 -84.5t91 -239.5q0 -74 -31 -149t-85 -135.5t-134.5 -98t-171.5 -37.5q-147 0 -235.5 86.5t-88.5 236.5q0 107 54.5 203.5t153.5 157t217 60.5zM172 304q0 -112 69 -184t173 -72q84 0 152.5 33t110 86t63.5 116.5t22 128.5q0 104 -69 176t-177 72
q-100 0 -180 -51t-122 -132t-42 -173zM395 845h270l-8 -54h-270z" />
    <glyph glyph-name="omacron" unicode="&#x14d;" horiz-adv-x="593" 
d="M363 480q99 0 158.5 -58.5t59.5 -155.5q0 -110 -84 -194t-195 -84q-102 0 -163 55.5t-61 152.5q0 117 84 200.5t201 83.5zM150 202q0 -70 41.5 -112t111.5 -42q87 0 146 64t59 156q0 68 -41.5 110t-117.5 42q-83 0 -141 -66t-58 -152zM258 654h270l-8 -54h-270z" />
    <glyph glyph-name="Obreve" unicode="&#x14e;" horiz-adv-x="834" 
d="M519 726q139 0 230 -84.5t91 -239.5q0 -74 -31 -149t-85 -135.5t-134.5 -98t-171.5 -37.5q-147 0 -235.5 86.5t-88.5 236.5q0 107 54.5 203.5t153.5 157t217 60.5zM172 304q0 -112 69 -184t173 -72q84 0 152.5 33t110 86t63.5 116.5t22 128.5q0 104 -69 176t-177 72
q-100 0 -180 -51t-122 -132t-42 -173zM379 875v17h44q1 -36 25.5 -57t66.5 -21q41 0 71.5 20.5t42.5 57.5h44q-12 -61 -57 -96.5t-109 -35.5q-60 0 -94 31.5t-34 83.5z" />
    <glyph glyph-name="obreve" unicode="&#x14f;" horiz-adv-x="593" 
d="M363 480q99 0 158.5 -58.5t59.5 -155.5q0 -110 -84 -194t-195 -84q-102 0 -163 55.5t-61 152.5q0 117 84 200.5t201 83.5zM150 202q0 -70 41.5 -112t111.5 -42q87 0 146 64t59 156q0 68 -41.5 110t-117.5 42q-83 0 -141 -66t-58 -152zM238 691v17h44q1 -36 25.5 -57
t66.5 -21q41 0 71.5 20.5t42.5 57.5h44q-12 -61 -57 -96.5t-109 -35.5q-60 0 -94 31.5t-34 83.5z" />
    <glyph glyph-name="Ohungarumlaut" unicode="&#x150;" horiz-adv-x="834" 
d="M519 726q139 0 230 -84.5t91 -239.5q0 -74 -31 -149t-85 -135.5t-134.5 -98t-171.5 -37.5q-147 0 -235.5 86.5t-88.5 236.5q0 107 54.5 203.5t153.5 157t217 60.5zM172 304q0 -112 69 -184t173 -72q84 0 152.5 33t110 86t63.5 116.5t22 128.5q0 104 -69 176t-177 72
q-100 0 -180 -51t-122 -132t-42 -173zM490 904h91l-154 -144h-59zM690 904h91l-153 -144h-59z" />
    <glyph glyph-name="ohungarumlaut" unicode="&#x151;" horiz-adv-x="593" 
d="M363 480q99 0 158.5 -58.5t59.5 -155.5q0 -110 -84 -194t-195 -84q-102 0 -163 55.5t-61 152.5q0 117 84 200.5t201 83.5zM150 202q0 -70 41.5 -112t111.5 -42q87 0 146 64t59 156q0 68 -41.5 110t-117.5 42q-83 0 -141 -66t-58 -152zM332 708h91l-154 -144h-59zM532 708
h91l-153 -144h-59z" />
    <glyph glyph-name="OE" unicode="&#x152;" horiz-adv-x="944" 
d="M544 708h442l-10 -66h-294l-34 -241h282l-9 -66h-282l-38 -269h306l-9 -66h-452q-154 0 -245.5 83.5t-91.5 223.5q0 161 125 281t310 120zM188 315q0 -120 73 -184.5t192 -64.5h76l81 576h-65q-90 0 -170.5 -37.5t-133.5 -113.5t-53 -176z" />
    <glyph glyph-name="oe" unicode="&#x153;" horiz-adv-x="922" 
d="M352 480q66 0 114 -27.5t70 -77.5q83 105 192 105q85 0 134.5 -50t49.5 -141q0 -32 -8 -73h-351q-3 -15 -3 -37q0 -59 32 -95t85 -36q94 0 156 76l47 -41q-88 -95 -210 -95q-128 0 -167 106q-39 -48 -97 -77t-113 -29q-95 0 -150 56.5t-55 152.5q0 116 83.5 199.5
t190.5 83.5zM150 201q0 -68 39.5 -110.5t102.5 -42.5q85 0 139.5 65.5t54.5 154.5q0 72 -39.5 112t-109.5 40q-75 0 -131 -68t-56 -151zM561 270h285q0 5 0.5 11.5t1 10t0.5 5.5q0 55 -34 89t-92 34q-60 0 -106.5 -44t-54.5 -106z" />
    <glyph glyph-name="Racute" unicode="&#x154;" horiz-adv-x="593" 
d="M196 708h223q97 0 150.5 -40t53.5 -115q0 -83 -55.5 -146t-154.5 -71l157 -336h-88l-148 329h-120l-46 -329h-72zM258 642l-34 -247h133q89 0 137.5 39t48.5 104q0 52 -40 78t-112 26h-133zM463 904h91l-153 -144h-59z" />
    <glyph glyph-name="racute" unicode="&#x155;" horiz-adv-x="332" 
d="M359 480q27 0 49 -6l-23 -65q-10 5 -36 5q-63 0 -110.5 -44.5t-56.5 -108.5l-37 -261h-66l45 322l17 146h65l-12 -87h2q23 46 66.5 72.5t96.5 26.5zM298 708h91l-153 -144h-59z" />
    <glyph glyph-name="Rcommaaccent" unicode="&#x156;" horiz-adv-x="593" 
d="M196 708h223q97 0 150.5 -40t53.5 -115q0 -83 -55.5 -146t-154.5 -71l157 -336h-88l-148 329h-120l-46 -329h-72zM258 642l-34 -247h133q89 0 137.5 39t48.5 104q0 52 -40 78t-112 26h-133zM273 -45h71l-115 -185h-57z" />
    <glyph glyph-name="rcommaaccent" unicode="&#x157;" horiz-adv-x="332" 
d="M359 480q27 0 49 -6l-23 -65q-10 5 -36 5q-63 0 -110.5 -44.5t-56.5 -108.5l-37 -261h-66l45 322l17 146h65l-12 -87h2q23 46 66.5 72.5t96.5 26.5zM89 -45h71l-115 -185h-57z" />
    <glyph glyph-name="Rcaron" unicode="&#x158;" horiz-adv-x="593" 
d="M196 708h223q97 0 150.5 -40t53.5 -115q0 -83 -55.5 -146t-154.5 -71l157 -336h-88l-148 329h-120l-46 -329h-72zM258 642l-34 -247h133q89 0 137.5 39t48.5 104q0 52 -40 78t-112 26h-133zM265 904h66l67 -108l99 108h66l-130 -144h-80z" />
    <glyph glyph-name="rcaron" unicode="&#x159;" horiz-adv-x="332" 
d="M359 480q27 0 49 -6l-23 -65q-10 5 -36 5q-63 0 -110.5 -44.5t-56.5 -108.5l-37 -261h-66l45 322l17 146h65l-12 -87h2q23 46 66.5 72.5t96.5 26.5zM116 708h66l67 -108l99 108h66l-130 -144h-80z" />
    <glyph glyph-name="Sacute" unicode="&#x15a;" 
d="M396 726q124 0 188 -86l-70 -49q-37 69 -127 69q-72 0 -121 -40.5t-49 -106.5q0 -40 26.5 -66t94.5 -49q42 -14 61 -21t50.5 -23t46 -32t26.5 -42t12 -59q0 -106 -81.5 -172.5t-182.5 -66.5q-145 0 -208 105l72 47q38 -86 149 -86q69 0 120.5 43.5t51.5 106.5
q0 41 -28.5 68.5t-97.5 50.5q-100 33 -131 54q-61 41 -61 120q0 104 74.5 169.5t184.5 65.5zM471 904h91l-153 -144h-59z" />
    <glyph glyph-name="sacute" unicode="&#x15b;" horiz-adv-x="426" 
d="M290 480q114 0 145 -84l-65 -39q-25 63 -92 63q-48 0 -78 -22.5t-30 -58.5q0 -16 8 -27.5t29 -20.5t39 -13.5t56 -13.5q113 -25 113 -115q0 -68 -57.5 -114.5t-146.5 -46.5q-119 0 -167 91l63 39q36 -70 113 -70q53 0 87.5 25t34.5 64q0 21 -18 36t-37.5 21.5t-51.5 13.5
q-72 16 -105 41t-33 71q0 71 55.5 115.5t137.5 44.5zM338 708h91l-153 -144h-59z" />
    <glyph glyph-name="Scircumflex" unicode="&#x15c;" 
d="M396 726q124 0 188 -86l-70 -49q-37 69 -127 69q-72 0 -121 -40.5t-49 -106.5q0 -40 26.5 -66t94.5 -49q42 -14 61 -21t50.5 -23t46 -32t26.5 -42t12 -59q0 -106 -81.5 -172.5t-182.5 -66.5q-145 0 -208 105l72 47q38 -86 149 -86q69 0 120.5 43.5t51.5 106.5
q0 41 -28.5 68.5t-97.5 50.5q-100 33 -131 54q-61 41 -61 120q0 104 74.5 169.5t184.5 65.5zM369 904h80l88 -144h-66l-68 108l-98 -108h-66z" />
    <glyph glyph-name="scircumflex" unicode="&#x15d;" horiz-adv-x="426" 
d="M290 480q114 0 145 -84l-65 -39q-25 63 -92 63q-48 0 -78 -22.5t-30 -58.5q0 -16 8 -27.5t29 -20.5t39 -13.5t56 -13.5q113 -25 113 -115q0 -68 -57.5 -114.5t-146.5 -46.5q-119 0 -167 91l63 39q36 -70 113 -70q53 0 87.5 25t34.5 64q0 21 -18 36t-37.5 21.5t-51.5 13.5
q-72 16 -105 41t-33 71q0 71 55.5 115.5t137.5 44.5zM266 708h80l88 -144h-66l-68 108l-98 -108h-66z" />
    <glyph glyph-name="Scedilla" unicode="&#x15e;" 
d="M396 726q124 0 188 -86l-70 -49q-37 69 -127 69q-71 0 -121 -41.5t-50 -104.5q0 -43 32.5 -71.5t124.5 -58.5q93 -31 127.5 -67.5t34.5 -95.5q0 -86 -58.5 -150t-162.5 -85l-40 -46l1 -1q26 7 37 7q30 0 49 -17.5t19 -44.5q0 -46 -37 -73.5t-91 -27.5q-52 0 -94 24l21 36
q31 -18 71 -18q30 0 49.5 14.5t19.5 31.5q0 39 -44 39q-25 0 -47 -11l-16 17l58 66q-146 0 -208 105l72 47q38 -86 149 -86q68 0 120 43.5t52 105.5q0 41 -29 69t-97 50q-109 36 -150.5 70t-41.5 104q0 105 75 170.5t184 65.5z" />
    <glyph glyph-name="scedilla" unicode="&#x15f;" horiz-adv-x="426" 
d="M290 480q114 0 145 -84l-65 -39q-25 63 -92 63q-48 0 -78 -23t-30 -59q0 -16 6.5 -26.5t29 -20t41.5 -14.5t68 -16q46 -11 73 -40t27 -70q0 -57 -41.5 -102.5t-118.5 -56.5l-45 -52l1 -1q26 7 37 7q30 0 49 -18t19 -45q0 -44 -37.5 -72t-90.5 -28q-52 0 -94 24l21 36
q31 -18 71 -18q31 0 50 14.5t19 33.5q0 16 -12 26.5t-32 10.5q-25 0 -47 -11l-16 17l63 72q-118 0 -167 91l63 39q34 -70 113 -70q52 0 86.5 24.5t34.5 62.5q0 32 -27.5 47t-94.5 29q-122 26 -122 109q0 71 55 115.5t138 44.5z" />
    <glyph glyph-name="Scaron" unicode="&#x160;" 
d="M396 726q124 0 188 -86l-70 -49q-37 69 -127 69q-72 0 -121 -40.5t-49 -106.5q0 -40 26.5 -66t94.5 -49q42 -14 61 -21t50.5 -23t46 -32t26.5 -42t12 -59q0 -106 -81.5 -172.5t-182.5 -66.5q-145 0 -208 105l72 47q38 -86 149 -86q69 0 120.5 43.5t51.5 106.5
q0 41 -28.5 68.5t-97.5 50.5q-100 33 -131 54q-61 41 -61 120q0 104 74.5 169.5t184.5 65.5zM253 883h66l67 -108l99 108h66l-130 -144h-80z" />
    <glyph glyph-name="scaron" unicode="&#x161;" horiz-adv-x="426" 
d="M290 480q114 0 145 -84l-65 -39q-25 63 -92 63q-48 0 -78 -22.5t-30 -58.5q0 -16 8 -27.5t29 -20.5t39 -13.5t56 -13.5q113 -25 113 -115q0 -68 -57.5 -114.5t-146.5 -46.5q-119 0 -167 91l63 39q36 -70 113 -70q53 0 87.5 25t34.5 64q0 21 -18 36t-37.5 21.5t-51.5 13.5
q-72 16 -105 41t-33 71q0 71 55.5 115.5t137.5 44.5zM164 708h66l67 -108l99 108h66l-130 -144h-80z" />
    <glyph glyph-name="Tcommaaccent" unicode="&#x162;" horiz-adv-x="574" 
d="M114 708h546l-10 -66h-237l-90 -642h-72l90 642h-237zM253 -45h71l-115 -185h-57z" />
    <glyph glyph-name="tcommaaccent" unicode="&#x163;" horiz-adv-x="332" 
d="M197 600h66l-18 -132h135l-9 -60h-135l-37 -273q-3 -24 -3 -30q0 -32 14 -44.5t42 -12.5q38 0 72 18l-5 -61q-42 -17 -91 -17t-75.5 24.5t-26.5 69.5q0 18 3 35l41 291h-99l9 60h99zM177 -45h71l-115 -185h-57z" />
    <glyph glyph-name="Tcaron" unicode="&#x164;" horiz-adv-x="574" 
d="M114 708h546l-10 -66h-237l-90 -642h-72l90 642h-237zM256 904h66l67 -108l99 108h66l-130 -144h-80z" />
    <glyph glyph-name="tcaron" unicode="&#x165;" horiz-adv-x="332" 
d="M197 600h66l-18 -132h135l-9 -60h-135l-37 -273q-3 -24 -3 -30q0 -32 14 -44.5t42 -12.5q38 0 72 18l-5 -61q-42 -17 -91 -17t-75.5 24.5t-26.5 69.5q0 18 3 35l41 291h-99l9 60h99zM399 708h71l-115 -185h-57z" />
    <glyph glyph-name="Tbar" unicode="&#x166;" horiz-adv-x="574" 
d="M114 708h546l-10 -66h-237l-25 -179h212l-9 -60h-212l-56 -403h-72l56 403h-196l9 60h196l25 179h-237z" />
    <glyph glyph-name="tbar" unicode="&#x167;" horiz-adv-x="332" 
d="M197 600h66l-18 -132h135l-9 -60h-135l-14 -102h120l-8 -53h-120l-15 -114q-3 -23 -3 -37q0 -54 58 -54q36 0 70 18l-5 -61q-43 -17 -91 -17t-74.5 24t-26.5 67q0 22 3 40l18 134h-73l8 53h73l14 102h-99l9 60h99z" />
    <glyph glyph-name="Utilde" unicode="&#x168;" horiz-adv-x="686" 
d="M184 708h72l-60 -423q-6 -38 -6 -66q0 -83 42 -127t118 -44q87 0 145 57t73 167l62 436h72l-64 -452q-7 -51 -27 -97t-54 -87.5t-90 -65.5t-127 -24q-110 0 -166.5 58.5t-56.5 162.5q0 35 4 59zM587 873h43q-32 -104 -106 -104q-21 0 -67.5 23t-66.5 23q-38 0 -56 -50
h-43q32 104 107 104q19 0 67.5 -23t65.5 -23q38 0 56 50z" />
    <glyph glyph-name="utilde" unicode="&#x169;" 
d="M138 468h66l-30 -211q-11 -93 -11 -100q0 -57 25.5 -83t80.5 -26q60 0 108.5 46.5t60.5 131.5l35 242h66l-52 -367l-9 -101h-68q1 33 8 75h-2q-28 -38 -75 -62.5t-95 -24.5q-153 0 -153 142q0 12 3 39zM480 684h43q-32 -104 -106 -104q-20 0 -67 23t-67 23q-38 0 -56 -50
h-43q31 104 107 104q25 0 72 -23t61 -23q38 0 56 50z" />
    <glyph glyph-name="Umacron" unicode="&#x16a;" horiz-adv-x="686" 
d="M184 708h72l-60 -423q-6 -38 -6 -66q0 -83 42 -127t118 -44q87 0 145 57t73 167l62 436h72l-64 -452q-7 -51 -27 -97t-54 -87.5t-90 -65.5t-127 -24q-110 0 -166.5 58.5t-56.5 162.5q0 35 4 59zM322 845h270l-8 -54h-270z" />
    <glyph glyph-name="umacron" unicode="&#x16b;" 
d="M138 468h66l-30 -211q-11 -93 -11 -100q0 -57 25.5 -83t80.5 -26q60 0 108.5 46.5t60.5 131.5l35 242h66l-52 -367l-9 -101h-68q1 33 8 75h-2q-28 -38 -75 -62.5t-95 -24.5q-153 0 -153 142q0 12 3 39zM217 654h270l-8 -54h-270z" />
    <glyph glyph-name="Ubreve" unicode="&#x16c;" horiz-adv-x="686" 
d="M184 708h72l-60 -423q-6 -38 -6 -66q0 -83 42 -127t118 -44q87 0 145 57t73 167l62 436h72l-64 -452q-7 -51 -27 -97t-54 -87.5t-90 -65.5t-127 -24q-110 0 -166.5 58.5t-56.5 162.5q0 35 4 59zM318 875v17h44q1 -36 25.5 -57t66.5 -21q41 0 71.5 20.5t42.5 57.5h44
q-12 -61 -57 -96.5t-109 -35.5q-60 0 -94 31.5t-34 83.5z" />
    <glyph glyph-name="ubreve" unicode="&#x16d;" 
d="M138 468h66l-30 -211q-11 -93 -11 -100q0 -57 25.5 -83t80.5 -26q60 0 108.5 46.5t60.5 131.5l35 242h66l-52 -367l-9 -101h-68q1 33 8 75h-2q-28 -38 -75 -62.5t-95 -24.5q-153 0 -153 142q0 12 3 39zM209 691v17h44q1 -36 25.5 -57t66.5 -21q41 0 71.5 20.5t42.5 57.5
h44q-12 -61 -57 -96.5t-109 -35.5q-60 0 -94 31.5t-34 83.5z" />
    <glyph glyph-name="Uring" unicode="&#x16e;" horiz-adv-x="686" 
d="M184 708h72l-60 -423q-6 -38 -6 -66q0 -83 42 -127t118 -44q87 0 145 57t73 167l62 436h72l-64 -452q-7 -51 -27 -97t-54 -87.5t-90 -65.5t-127 -24q-110 0 -166.5 58.5t-56.5 162.5q0 35 4 59zM469 930q36 0 59.5 -23t23.5 -57q0 -43 -33 -76.5t-77 -33.5q-36 0 -60 23
t-24 58q0 44 34 76.5t77 32.5zM394 828q0 -23 15 -37.5t38 -14.5q28 0 48.5 20t20.5 49q0 21 -14.5 35t-37.5 14q-27 0 -48.5 -20t-21.5 -46z" />
    <glyph glyph-name="uring" unicode="&#x16f;" 
d="M138 468h66l-30 -211q-11 -93 -11 -100q0 -57 25.5 -83t80.5 -26q60 0 108.5 46.5t60.5 131.5l35 242h66l-52 -367l-9 -101h-68q1 33 8 75h-2q-28 -38 -75 -62.5t-95 -24.5q-153 0 -153 142q0 12 3 39zM372 745q36 0 59.5 -23t23.5 -57q0 -43 -33.5 -76.5t-76.5 -33.5
q-35 0 -59.5 23.5t-24.5 57.5q0 44 34 76.5t77 32.5zM297 643q0 -22 15 -37t38 -15q27 0 48 20.5t21 47.5q0 22 -14.5 36t-37.5 14q-27 0 -48.5 -20t-21.5 -46z" />
    <glyph glyph-name="Uhungarumlaut" unicode="&#x170;" horiz-adv-x="686" 
d="M184 708h72l-60 -423q-6 -38 -6 -66q0 -83 42 -127t118 -44q87 0 145 57t73 167l62 436h72l-64 -452q-7 -51 -27 -97t-54 -87.5t-90 -65.5t-127 -24q-110 0 -166.5 58.5t-56.5 162.5q0 35 4 59zM404 904h91l-154 -144h-59zM604 904h91l-153 -144h-59z" />
    <glyph glyph-name="uhungarumlaut" unicode="&#x171;" 
d="M138 468h66l-30 -211q-11 -93 -11 -100q0 -57 25.5 -83t80.5 -26q60 0 108.5 46.5t60.5 131.5l35 242h66l-52 -367l-9 -101h-68q1 33 8 75h-2q-28 -38 -75 -62.5t-95 -24.5q-153 0 -153 142q0 12 3 39zM309 708h91l-154 -144h-59zM509 708h91l-153 -144h-59z" />
    <glyph glyph-name="Uogonek" unicode="&#x172;" horiz-adv-x="686" 
d="M184 708h72l-60 -423q-6 -42 -6 -66q0 -83 42 -127t118 -44q88 0 145 57.5t72 164.5l63 438h72l-63 -444q-17 -120 -87.5 -195.5t-176.5 -84.5q-44 -41 -56.5 -63.5t-12.5 -44.5q0 -16 12 -27.5t31 -11.5q32 0 54 22l14 -40q-43 -36 -95 -36q-34 0 -57 20.5t-23 51.5
q0 56 79 128q-100 4 -152 62.5t-52 156.5q0 34 8 90z" />
    <glyph glyph-name="uogonek" unicode="&#x173;" 
d="M138 468h66l-36 -253q-4 -28 -4 -58q0 -58 26 -83.5t81 -25.5q59 0 108 48t60 131l34 241h66l-52 -367l-9 -101h-15q-53 -47 -70.5 -73t-17.5 -50q0 -17 12 -28.5t32 -11.5q32 0 54 22l13 -40q-42 -36 -94 -36q-34 0 -57 21t-23 51q0 66 101 145h-3q1 33 8 75h-2
q-28 -38 -75 -62.5t-95 -24.5q-153 0 -153 140q0 16 3 43z" />
    <glyph glyph-name="Wcircumflex" unicode="&#x174;" horiz-adv-x="944" 
d="M100 708h80l84 -606h2l264 606h86l92 -606h2l254 606h80l-309 -708h-84l-93 606h-2l-263 -606h-84zM563 904h80l88 -144h-66l-68 108l-98 -108h-66z" />
    <glyph glyph-name="wcircumflex" unicode="&#x175;" horiz-adv-x="722" 
d="M80 468h78l54 -380h2l179 380h68l71 -380h2l162 380h78l-214 -468h-74l-70 384h-2l-178 -384h-74zM419 708h80l88 -144h-66l-68 108l-98 -108h-66z" />
    <glyph glyph-name="Ycircumflex" unicode="&#x176;" horiz-adv-x="574" 
d="M86 708h90l164 -334l258 334h90l-322 -403l-43 -305h-72l43 305zM377 904h80l88 -144h-66l-68 108l-98 -108h-66z" />
    <glyph glyph-name="ycircumflex" unicode="&#x177;" horiz-adv-x="482" 
d="M82 468h83l92 -387l198 387h80l-310 -577q-17 -32 -27.5 -48t-31.5 -39t-48.5 -33.5t-63.5 -10.5q-38 0 -60 7l16 64q21 -11 49 -11q61 0 104 87l44 87zM302 708h80l88 -144h-66l-68 108l-98 -108h-66z" />
    <glyph glyph-name="Ydieresis" unicode="&#x178;" horiz-adv-x="574" 
d="M86 708h90l164 -334l258 334h90l-322 -403l-43 -305h-72l43 305zM314 873q19 0 32 -12.5t13 -31.5q0 -22 -18 -40t-41 -18q-19 0 -32 13t-13 31q0 23 18 40.5t41 17.5zM506 873q19 0 31.5 -12.5t12.5 -31.5q0 -22 -17.5 -40t-40.5 -18q-19 0 -32 13t-13 31q0 22 18 40
t41 18z" />
    <glyph glyph-name="Zacute" unicode="&#x179;" 
d="M129 708h498l-9 -60l-495 -582h419l-9 -66h-510l8 60l496 582h-408zM425 904h91l-153 -144h-59z" />
    <glyph glyph-name="zacute" unicode="&#x17a;" horiz-adv-x="426" 
d="M103 468h356l-7 -48l-325 -360h284l-8 -60h-380l7 48l324 360h-260zM359 708h91l-153 -144h-59z" />
    <glyph glyph-name="Zdotaccent" unicode="&#x17b;" 
d="M129 708h498l-9 -60l-495 -582h419l-9 -66h-510l8 60l496 582h-408zM378 873q20 0 32 -12t12 -31q0 -24 -17 -41.5t-42 -17.5q-20 0 -32 12.5t-12 31.5q0 22 17.5 40t41.5 18z" />
    <glyph glyph-name="zdotaccent" unicode="&#x17c;" horiz-adv-x="426" 
d="M103 468h356l-7 -48l-325 -360h284l-8 -60h-380l7 48l324 360h-260zM305 708q20 0 32 -12t12 -31q0 -23 -17.5 -41t-41.5 -18q-20 0 -32 12.5t-12 32.5q0 22 17.5 39.5t41.5 17.5z" />
    <glyph glyph-name="Zcaron" unicode="&#x17d;" 
d="M129 708h498l-9 -60l-495 -582h419l-9 -66h-510l8 60l496 582h-408zM254 883h66l67 -108l99 108h66l-130 -144h-80z" />
    <glyph glyph-name="zcaron" unicode="&#x17e;" horiz-adv-x="426" 
d="M103 468h356l-7 -48l-325 -360h284l-8 -60h-380l7 48l324 360h-260zM164 708h66l67 -108l99 108h66l-130 -144h-80z" />
    <glyph glyph-name="florin" unicode="&#x192;" 
d="M524 720q55 0 91 -29l-41 -48q-24 17 -54 17q-72 0 -106 -112l-40 -129h108l-8 -54h-119l-118 -358q-48 -146 -175 -146q-48 0 -78 24l39 48q19 -12 50 -12q34 0 57.5 22.5t43.5 83.5l110 338h-108l8 54h119l46 142q53 159 175 159z" />
    <glyph glyph-name="Scommaaccent" unicode="&#x218;" 
d="M396 726q124 0 188 -86l-70 -49q-37 69 -127 69q-72 0 -121 -40.5t-49 -106.5q0 -40 26.5 -66t94.5 -49q42 -14 61 -21t50.5 -23t46 -32t26.5 -42t12 -59q0 -106 -81.5 -172.5t-182.5 -66.5q-145 0 -208 105l72 47q38 -86 149 -86q69 0 120.5 43.5t51.5 106.5
q0 41 -28.5 68.5t-97.5 50.5q-100 33 -131 54q-61 41 -61 120q0 104 74.5 169.5t184.5 65.5zM252 -45h71l-115 -185h-57z" />
    <glyph glyph-name="scommaaccent" unicode="&#x219;" horiz-adv-x="426" 
d="M290 480q114 0 145 -84l-65 -39q-25 63 -92 63q-48 0 -78 -22.5t-30 -58.5q0 -16 8 -27.5t29 -20.5t39 -13.5t56 -13.5q113 -25 113 -115q0 -68 -57.5 -114.5t-146.5 -46.5q-119 0 -167 91l63 39q36 -70 113 -70q53 0 87.5 25t34.5 64q0 21 -18 36t-37.5 21.5t-51.5 13.5
q-72 16 -105 41t-33 71q0 71 55.5 115.5t137.5 44.5zM189 -45h71l-115 -185h-57z" />
    <glyph glyph-name="uni021A" unicode="&#x21a;" horiz-adv-x="574" 
d="M114 708h546l-10 -66h-237l-90 -642h-72l90 642h-237zM253 -45h71l-115 -185h-57z" />
    <glyph glyph-name="uni021B" unicode="&#x21b;" horiz-adv-x="332" 
d="M197 600h66l-18 -132h135l-9 -60h-135l-37 -273q-3 -24 -3 -30q0 -32 14 -44.5t42 -12.5q38 0 72 18l-5 -61q-42 -17 -91 -17t-75.5 24.5t-26.5 69.5q0 18 3 35l41 291h-99l9 60h99zM177 -45h71l-115 -185h-57z" />
    <glyph glyph-name="dotlessj" unicode="&#x237;" horiz-adv-x="240" 
d="M153 468h66l-81 -573q-19 -135 -151 -135q-29 0 -50 10l17 57q23 -7 38 -7q70 0 83 98z" />
    <glyph glyph-name="circumflex" unicode="&#x2c6;" horiz-adv-x="240" 
d="M180 708h80l88 -144h-66l-68 108l-98 -108h-66z" />
    <glyph glyph-name="caron" unicode="&#x2c7;" horiz-adv-x="240" 
d="M71 708h66l67 -108l99 108h66l-130 -144h-80z" />
    <glyph glyph-name="uni02C9" unicode="&#x2c9;" horiz-adv-x="240" 
d="M77 654h270l-8 -54h-270z" />
    <glyph glyph-name="breve" unicode="&#x2d8;" horiz-adv-x="240" 
d="M73 691v17h44q1 -36 25.5 -57t66.5 -21q41 0 71.5 20.5t42.5 57.5h44q-12 -61 -57 -96.5t-109 -35.5q-60 0 -94 31.5t-34 83.5z" />
    <glyph glyph-name="dotaccent" unicode="&#x2d9;" horiz-adv-x="240" 
d="M220 708q20 0 32 -12t12 -31q0 -23 -17.5 -41t-41.5 -18q-20 0 -32 12.5t-12 32.5q0 22 17.5 39.5t41.5 17.5z" />
    <glyph glyph-name="ring" unicode="&#x2da;" horiz-adv-x="240" 
d="M225 745q36 0 59.5 -23t23.5 -57q0 -43 -33 -76.5t-77 -33.5q-35 0 -59.5 23.5t-24.5 57.5q0 44 34 76.5t77 32.5zM150 643q0 -22 15 -37t38 -15q27 0 48 20.5t21 47.5q0 22 -14.5 36t-37.5 14q-27 0 -48.5 -20t-21.5 -46z" />
    <glyph glyph-name="ogonek" unicode="&#x2db;" horiz-adv-x="240" 
d="M120 6h48q-57 -50 -75.5 -76t-18.5 -53q0 -17 12 -28.5t31 -11.5q32 0 54 22l14 -40q-43 -36 -95 -36q-34 0 -57 20.5t-23 51.5q0 36 30 76t80 75z" />
    <glyph glyph-name="tilde" unicode="&#x2dc;" horiz-adv-x="240" 
d="M335 684h43q-32 -104 -106 -104q-20 0 -67 23t-67 23q-38 0 -56 -50h-43q31 104 107 104q25 0 72 -23t61 -23q38 0 56 50z" />
    <glyph glyph-name="hungarumlaut" unicode="&#x2dd;" horiz-adv-x="240" 
d="M125 708h91l-154 -144h-59zM325 708h91l-153 -144h-59z" />
    <glyph glyph-name="uni0394" unicode="&#x394;" horiz-adv-x="670" 
d="M296 712h74l287 -712h-642zM332 645l-226 -583h455z" />
    <glyph glyph-name="uni03A9" unicode="&#x3a9;" horiz-adv-x="744" 
d="M367 721q129 0 223.5 -86t94.5 -208q0 -107 -51.5 -183.5t-145.5 -103.5v-82h197v-58h-251v181q87 15 135.5 77t48.5 157q0 105 -73.5 175t-178.5 70t-178.5 -70.5t-73.5 -174.5q0 -94 49 -157t135 -77v-181h-251v58h197v82q-92 26 -144.5 102.5t-52.5 180.5
q0 125 95 211.5t225 86.5z" />
    <glyph glyph-name="uni03BC" unicode="&#x3bc;" 
d="M138 468h66l-30 -211q-11 -66 -11 -105q0 -56 25.5 -80t82.5 -24q65 0 110.5 48.5t56.5 127.5l35 244h66l-52 -367l-9 -101h-71l11 76h-2q-28 -37 -76.5 -62.5t-93.5 -25.5q-67 0 -106 29l-34 -245h-66z" />
    <glyph glyph-name="pi" unicode="&#x3c0;" horiz-adv-x="563" 
d="M32 468h494v-59h-76v-308q0 -27 8.5 -39t29.5 -12q19 0 42 10v-49q-34 -17 -64 -17q-42 0 -61 23t-19 88v304h-220v-409h-64v409h-70v59z" />
    <glyph glyph-name="uni1E9E" unicode="&#x1e9e;" horiz-adv-x="654" 
d="M632 716l-9 -64q-89 0 -145 -33t-56 -103q0 -39 24.5 -67.5t78.5 -67.5q115 -85 115 -187q0 -95 -61 -153.5t-159 -58.5q-133 0 -190 93l68 45q38 -72 129 -72q58 0 96 37.5t38 101.5q0 39 -24 71.5t-76 68.5q-119 82 -119 178q0 16 2.5 31t6.5 26.5t11 22.5t12.5 18.5
t15.5 16t15.5 13t16.5 10.5t15 8t14.5 7t11.5 5h-19q-103 0 -153 -36t-63 -128l-70 -499h-72l70 499q17 122 85.5 174.5t203.5 52.5q93 0 187 -10z" />
    <glyph glyph-name="endash" unicode="&#x2013;" horiz-adv-x="500" 
d="M38 273h500l-9 -66h-500z" />
    <glyph glyph-name="emdash" unicode="&#x2014;" horiz-adv-x="1000" 
d="M38 273h1000l-9 -66h-1000z" />
    <glyph glyph-name="quoteleft" unicode="&#x2018;" horiz-adv-x="260" 
d="M237 708h67l-101 -235h-81z" />
    <glyph glyph-name="quoteright" unicode="&#x2019;" horiz-adv-x="260" 
d="M223 708h81l-115 -235h-67z" />
    <glyph glyph-name="quotesinglbase" unicode="&#x201a;" horiz-adv-x="260" 
d="M136 95h81l-114 -235h-67z" />
    <glyph glyph-name="quotedblleft" unicode="&#x201c;" horiz-adv-x="519" 
d="M276 708h67l-101 -235h-81zM457 708h67l-101 -235h-81z" />
    <glyph glyph-name="quotedblright" unicode="&#x201d;" horiz-adv-x="519" 
d="M262 708h81l-115 -235h-67zM443 708h81l-115 -235h-67z" />
    <glyph glyph-name="quotedblbase" unicode="&#x201e;" horiz-adv-x="519" 
d="M175 95h81l-114 -235h-67zM356 95h81l-114 -235h-67z" />
    <glyph glyph-name="dagger" unicode="&#x2020;" 
d="M345 708h66l-29 -204h204l-9 -60h-204l-80 -570h-66l80 570h-204l9 60h204z" />
    <glyph glyph-name="daggerdbl" unicode="&#x2021;" 
d="M345 708h66l-27 -192h195l-9 -60h-195l-46 -330h195l-9 -60h-195l-27 -192h-66l27 192h-195l9 60h195l46 330h-195l9 60h195z" />
    <glyph glyph-name="bullet" unicode="&#x2022;" horiz-adv-x="500" 
d="M325 531q68 0 111 -44.5t43 -112.5q0 -78 -63 -137.5t-141 -59.5q-68 0 -111 44.5t-43 112.5q0 77 64 137t140 60z" />
    <glyph glyph-name="ellipsis" unicode="&#x2026;" horiz-adv-x="1000" 
d="M181 102q21 0 34.5 -13.5t13.5 -33.5q0 -24 -19 -42.5t-44 -18.5q-21 0 -33.5 13t-12.5 33q0 25 18 43.5t43 18.5zM514 102q21 0 34.5 -13.5t13.5 -33.5q0 -24 -19 -42.5t-44 -18.5q-21 0 -33.5 13t-12.5 33q0 25 18 43.5t43 18.5zM847 102q21 0 34.5 -13.5t13.5 -33.5
q0 -24 -19 -42.5t-44 -18.5q-21 0 -33.5 13t-12.5 33q0 25 18 43.5t43 18.5z" />
    <glyph glyph-name="perthousand" unicode="&#x2030;" horiz-adv-x="1000" 
d="M72 -4l556 743l47 -27l-554 -743zM279 720q57 0 95.5 -38.5t38.5 -95.5q0 -66 -54 -120t-123 -54q-57 0 -94.5 37.5t-37.5 93.5q0 70 53.5 123.5t121.5 53.5zM158 551q0 -37 24.5 -61t60.5 -24q45 0 80 34.5t35 78.5q0 38 -24.5 62.5t-62.5 24.5q-44 0 -78.5 -34.5
t-34.5 -80.5zM514 296q57 0 94.5 -37.5t37.5 -94.5q0 -67 -53.5 -121.5t-122.5 -54.5q-58 0 -95.5 38t-37.5 94q0 69 54.5 122.5t122.5 53.5zM864 296q57 0 95 -38t38 -94q0 -69 -53 -122.5t-124 -53.5q-57 0 -94.5 38t-37.5 94q0 69 54.5 122.5t121.5 53.5zM392 127
q0 -36 24.5 -60.5t61.5 -24.5q45 0 79.5 35t34.5 80q0 36 -25 60.5t-62 24.5q-43 0 -78 -35t-35 -80zM742 127q0 -36 24.5 -60.5t61.5 -24.5q44 0 79 35t35 80q0 37 -25 61t-62 24q-43 0 -78 -35t-35 -80z" />
    <glyph glyph-name="guilsinglleft" unicode="&#x2039;" horiz-adv-x="315" 
d="M93 240l169 209l42 -33l-139 -176l90 -176l-52 -33z" />
    <glyph glyph-name="guilsinglright" unicode="&#x203a;" horiz-adv-x="315" 
d="M127 416l52 33l111 -209l-170 -209l-42 33l140 176z" />
    <glyph glyph-name="fraction" unicode="&#x2044;" horiz-adv-x="168" 
d="M-167 0l555 740l47 -31l-554 -741z" />
    <glyph glyph-name="Euro" unicode="&#x20ac;" 
d="M464 720q38 0 81 -11t69 -29l-30 -62q-46 39 -128 39q-150 0 -212 -182h283l-25 -56h-275q-15 -65 -20 -131h240l-25 -55h-216q6 -185 144 -185q38 0 75 18t59 46l42 -34q-32 -42 -84 -66t-110 -24q-98 0 -149.5 63t-51.5 182h-75l27 55h49q6 69 20 131h-69l28 56h57
q40 119 116.5 182t179.5 63z" />
    <glyph glyph-name="uni20B9" unicode="&#x20b9;" 
d="M195 708h422l-8 -54h-173q52 -34 52 -102h107l-8 -54h-104q-32 -161 -252 -161l188 -337h-81l-194 355l6 38h58q55 0 90.5 6.5t67.5 30.5t43 68h-245l8 54h244q1 52 -39.5 76t-112.5 24h-77z" />
    <glyph glyph-name="uni20BA" unicode="&#x20ba;" 
d="M293 708l-19 -134l200 84l-9 -62l-197 -83l-15 -102l198 84l-9 -62l-198 -84l-40 -289q18 -2 30 -2q111 0 177 86t78 228h72q-17 -178 -99.5 -279t-237.5 -101q-81 0 -102 8l44 319l-102 -40l9 62l102 40l14 102l-101 -40l9 62l101 40l23 163h72z" />
    <glyph glyph-name="uni20BC" unicode="&#x20bc;" 
d="M384 514l-58 -409h-72l58 409q-74 -14 -118.5 -121t-76.5 -354l-5 -39h-72l6 48q35 278 95 397.5t181 138.5l17 124h72l-17 -124q79 -18 114.5 -80.5t35.5 -184.5q0 -93 -22 -271l-6 -48h-72l5 39q24 186 24 276q0 94 -22 141.5t-67 57.5z" />
    <glyph glyph-name="uni20BD" unicode="&#x20bd;" 
d="M266 642l-35 -247h99q81 0 134.5 33.5t53.5 106.5q0 53 -41 80t-117 27h-94zM203 708h161q111 0 169 -42.5t58 -125.5q0 -102 -74 -156.5t-196 -54.5h-99l-10 -72h190l-10 -66h-190l-26 -191h-72l26 191h-65l10 66h65l10 72h-65l9 66h65z" />
    <glyph glyph-name="afii61289" unicode="&#x2113;" horiz-adv-x="500" 
d="M365 721q42 0 68 -28t26 -72q0 -78 -63.5 -167.5t-178.5 -178.5q-35 -150 -35 -180q0 -57 54 -57q43 0 100 42l20 -41q-72 -53 -137 -53q-51 0 -78.5 26t-27.5 71q0 20 27 145l-71 -61l-21 40l105 84l59 276q15 69 55.5 111.5t97.5 42.5zM279 569l-49 -230
q80 76 125.5 149.5t45.5 128.5q0 24 -12 40t-31 16q-56 0 -79 -104z" />
    <glyph glyph-name="trademark" unicode="&#x2122;" horiz-adv-x="1000" 
d="M172 708h329l-8 -54h-133l-50 -358h-60l50 358h-136zM587 708h93l84 -316l174 316h90l-58 -412h-60l48 346h-2l-187 -346h-39l-91 346h-2l-48 -346h-60z" />
    <glyph glyph-name="Omega" unicode="&#x2126;" horiz-adv-x="744" 
d="M367 721q129 0 223.5 -86t94.5 -208q0 -107 -51.5 -183.5t-145.5 -103.5v-82h197v-58h-251v181q87 15 135.5 77t48.5 157q0 105 -73.5 175t-178.5 70t-178.5 -70.5t-73.5 -174.5q0 -94 49 -157t135 -77v-181h-251v58h197v82q-92 26 -144.5 102.5t-52.5 180.5
q0 125 95 211.5t225 86.5z" />
    <glyph glyph-name="estimated" unicode="&#x212e;" horiz-adv-x="976" 
d="M900 341h-667q-6 0 -6 -6v-190q0 -21 8 -30q85 -108 251 -108q82 0 145.5 30.5t123.5 87.5h72q-63 -76 -138.5 -110t-199.5 -34q-190 0 -302 105t-112 257q0 73 29 141.5t80.5 121.5t130.5 85t172 32q92 0 164.5 -23t118 -60.5t76 -88.5t42.5 -102.5t12 -107.5zM749 368
v194q0 14 -12 28q-47 58 -116.5 82.5t-137.5 24.5q-144 0 -246 -105q-10 -12 -10 -29v-195q0 -6 6 -6h510q6 0 6 6z" />
    <glyph glyph-name="partialdiff" unicode="&#x2202;" horiz-adv-x="496" 
d="M210 721q116 0 180.5 -97.5t64.5 -261.5q0 -179 -58 -276.5t-167 -97.5q-87 0 -143 64.5t-56 159.5q0 94 54 153.5t140 59.5q98 0 166 -84q0 10 0.5 26t0.5 18q0 137 -50 209t-129 72q-54 0 -112 -46l-36 43q21 21 59.5 39.5t85.5 18.5zM94 210q0 -71 39 -120t98 -49
q67 0 107.5 63t47.5 174q-68 91 -156 91q-60 0 -98 -44t-38 -115z" />
    <glyph glyph-name="Delta" unicode="&#x2206;" horiz-adv-x="670" 
d="M296 712h74l287 -712h-642zM332 645l-226 -583h455z" />
    <glyph glyph-name="product" unicode="&#x220f;" horiz-adv-x="711" 
d="M71 786h570v-1000h-66v938h-438v-938h-66v1000z" />
    <glyph glyph-name="summation" unicode="&#x2211;" horiz-adv-x="604" 
d="M39 786h527v-62h-442l309 -435l-328 -442h473v-61h-553v55l329 448l-315 441v56z" />
    <glyph glyph-name="minus" unicode="&#x2212;" horiz-adv-x="666" 
d="M125 333h510l-9 -60h-510z" />
    <glyph glyph-name="uni2215" unicode="&#x2215;" horiz-adv-x="168" 
d="M-167 0l555 740l47 -31l-554 -741z" />
    <glyph glyph-name="uni2219" unicode="&#x2219;" horiz-adv-x="278" 
d="M191 368q20 0 33 -13t13 -33q0 -25 -18 -43.5t-43 -18.5q-21 0 -34.5 13.5t-13.5 33.5q0 23 19.5 42t43.5 19z" />
    <glyph glyph-name="radical" unicode="&#x221a;" horiz-adv-x="493" 
d="M439 786h63l-210 -1000h-66l-164 340l-46 -22l-24 50l100 48l158 -331z" />
    <glyph glyph-name="infinity" unicode="&#x221e;" horiz-adv-x="741" 
d="M559 398q63 0 102 -41t39 -105t-39.5 -106t-100.5 -42q-43 0 -86 23.5t-103 83.5q-73 -65 -111 -86t-79 -21q-61 0 -100.5 40.5t-39.5 104.5t39 106t99 42q39 0 81 -22t111 -90q65 65 104.5 89t83.5 24zM409 248q58 -51 90.5 -68.5t63.5 -17.5q37 0 58.5 24t21.5 63
q0 42 -23 67t-60 25q-51 0 -151 -93zM98 250q0 -40 23 -64t61 -24q57 0 151 87q-57 52 -91.5 71.5t-63.5 19.5q-34 0 -57 -25.5t-23 -64.5z" />
    <glyph glyph-name="integral" unicode="&#x222b;" horiz-adv-x="543" 
d="M336 786q31 0 50.5 -13.5t19.5 -36.5q0 -34 -37 -34q-16 0 -25 10t-14.5 20t-13.5 10q-35 0 -35 -136q0 -10 1 -27t1 -28v-540q0 -59 -8.5 -102t-20.5 -66t-30 -36.5t-32 -16.5t-31 -3q-27 0 -43.5 13t-16.5 34q0 14 9.5 23t23.5 9t23.5 -9.5t15 -19t11.5 -9.5
q33 0 33 193v494q0 8 -0.5 34t-0.5 34q0 110 30.5 156.5t89.5 46.5z" />
    <glyph glyph-name="approxequal" unicode="&#x2248;" horiz-adv-x="666" 
d="M553 402h43q-7 -64 -40 -100.5t-83 -36.5q-46 0 -143 36.5t-135 36.5q-30 0 -51.5 -22t-27.5 -58h-45q7 64 40.5 101.5t83.5 37.5q49 0 146 -36.5t133 -36.5q62 0 79 78zM552 232h44q-7 -64 -39.5 -101t-83.5 -37q-44 0 -143 36.5t-135 36.5q-30 0 -51.5 -22t-27.5 -58
h-45q23 140 123 140q50 0 145 -36.5t135 -36.5q60 0 78 78z" />
    <glyph glyph-name="notequal" unicode="&#x2260;" horiz-adv-x="666" 
d="M364 370l77 147l52 -28l-63 -119h154v-60h-186l-69 -130h255v-60h-287l-76 -144l-52 27l62 117h-149v60h181l68 130h-249v60h282z" />
    <glyph glyph-name="lessequal" unicode="&#x2264;" horiz-adv-x="666" 
d="M584 550v-65l-419 -157l419 -155v-65l-502 188v65zM82 65h502v-59h-502v59z" />
    <glyph glyph-name="greaterequal" unicode="&#x2265;" horiz-adv-x="666" 
d="M82 485v65l502 -189v-65l-502 -188v65l420 155zM82 65h502v-59h-502v59z" />
    <glyph glyph-name="lozenge" unicode="&#x25ca;" horiz-adv-x="593" 
d="M264 747h63l171 -391l-171 -391h-63l-169 390zM296 681l-136 -325l136 -325l137 325z" />
    <glyph glyph-name="uniF8FF" unicode="&#xf8ff;" horiz-adv-x="512" 
d="M0 718h512v-718h-512v718zM50 50h412v617h-412v-617zM271 234h-46q-2 10 -2 25q0 42 12 70t46 61q31 31 41 47t10 37q0 36 -22.5 60.5t-53.5 24.5q-34 0 -55.5 -24.5t-26.5 -70.5l-50 8q6 67 41 102t94 35q55 0 89.5 -36t34.5 -95q0 -35 -15 -62.5t-50 -59.5
q-40 -35 -44 -62q-3 -20 -3 -60zM222 117v67h56v-67h-56z" />
    <glyph glyph-name="grave.cap" horiz-adv-x="240" 
d="M90 904h91l79 -144h-59z" />
    <glyph glyph-name="acute.cap" horiz-adv-x="240" 
d="M259 904h91l-153 -144h-59z" />
    <glyph glyph-name="circumflex.cap" horiz-adv-x="240" 
d="M180 904h80l88 -144h-66l-68 108l-98 -108h-66z" />
    <glyph glyph-name="caron.cap" horiz-adv-x="240" 
d="M71 904h66l67 -108l99 108h66l-130 -144h-80z" />
    <glyph glyph-name="caron.alt" horiz-adv-x="240" 
d="M182 708h71l-115 -185h-57z" />
    <glyph glyph-name="tilde.cap" horiz-adv-x="240" 
d="M335 873h43q-32 -104 -106 -104q-21 0 -67.5 23t-66.5 23q-38 0 -56 -50h-43q32 104 107 104q19 0 67.5 -23t65.5 -23q38 0 56 50z" />
    <glyph glyph-name="dieresis.cap" horiz-adv-x="240" 
d="M122 873q20 0 32 -11.5t12 -31.5q0 -24 -17.5 -41.5t-40.5 -17.5q-20 0 -32.5 12.5t-12.5 30.5q0 24 17.5 41.5t41.5 17.5zM314 873q19 0 31 -11.5t12 -30.5q0 -25 -16.5 -42.5t-40.5 -17.5q-20 0 -32.5 12.5t-12.5 30.5q0 24 17.5 41.5t41.5 17.5z" />
    <glyph glyph-name="macron.cap" horiz-adv-x="240" 
d="M77 845h270l-8 -54h-270z" />
    <glyph glyph-name="breve.cap" horiz-adv-x="240" 
d="M73 875v17h44q1 -36 25.5 -57t66.5 -21q41 0 71.5 20.5t42.5 57.5h44q-12 -61 -57 -96.5t-109 -35.5q-60 0 -94 31.5t-34 83.5z" />
    <glyph glyph-name="ring.cap" horiz-adv-x="240" 
d="M225 930q36 0 59.5 -23t23.5 -57q0 -43 -33 -76.5t-77 -33.5q-36 0 -60 23t-24 58q0 44 34 76.5t77 32.5zM150 828q0 -23 15 -37.5t38 -14.5q28 0 48.5 20t20.5 49q0 21 -14.5 35t-37.5 14q-27 0 -48.5 -20t-21.5 -46z" />
    <glyph glyph-name="hungarumlaut.cap" horiz-adv-x="240" 
d="M125 904h91l-154 -144h-59zM325 904h91l-153 -144h-59z" />
    <glyph glyph-name="dotaccent.cap" horiz-adv-x="240" 
d="M220 873q20 0 32 -12t12 -31q0 -24 -17 -41.5t-42 -17.5q-20 0 -32 12.5t-12 31.5q0 22 17.5 40t41.5 18z" />
    <glyph glyph-name="commaaccent" horiz-adv-x="240" 
d="M122 -45h71l-115 -185h-57z" />
    <glyph glyph-name="commaaccent.alt" horiz-adv-x="240" 
d="M93 564l115 185h57l-101 -185h-71z" />
    </font>
</defs>
</svg>
