<?xml version="1.0" standalone="no"?>
<!DOCTYPE svg PUBLIC "-//W3C//DTD SVG 1.1//EN" "http://www.w3.org/Graphics/SVG/1.1/DTD/svg11.dtd" >
<svg xmlns="http://www.w3.org/2000/svg" xmlns:xlink="http://www.w3.org/1999/xlink" version="1.1">
<metadata>
Created by FontForge 20190801 at Fri Feb 16 20:21:35 2018
 By www-data
Copyright (c) 2014 Monotype GmbH. All rights reserved.
</metadata>
<defs>
<font id="fontsAveniritalic" horiz-adv-x="556" >
  <font-face 
    font-family="fontsAveniritalic"
    font-weight="400"
    font-style="italic"
    font-stretch="normal"
    units-per-em="1000"
    panose-1="2 11 5 3 2 2 3 9 2 4"
    ascent="762"
    descent="-238"
    x-height="468"
    cap-height="708"
    bbox="-166 -277 1057 959"
    underline-thickness="50"
    underline-position="-100"
    slope="-8"
    unicode-range="U+000D-FB02"
  />
<missing-glyph horiz-adv-x="512" 
d="M0 718h512v-718h-512v718zM50 50h412v617h-412v-617zM222 117v67h56v-67h-56zM261 609q54 0 88 -36t34 -95q0 -36 -14.5 -62.5t-50.5 -59.5q-33 -31 -40 -49t-7 -73h-46q-2 18 -2 25q1 49 12 71.5t47 60.5q33 34 41.5 48t8.5 35q0 36 -22.5 60.5t-53.5 24.5
q-34 0 -55.5 -24.5t-26.5 -70.5l-50 8q6 67 41 102t96 35z" />
    <glyph glyph-name="IJ" unicode="IJ" horiz-adv-x="731" 
d="M188 708h84l-100 -708h-84zM659 708h84l-71 -510q-15 -112 -79.5 -164t-154.5 -52q-78 0 -121 39.5t-46 112.5l86 17q2 -43 26 -67t67 -24q118 0 138 147z" />
    <glyph glyph-name="ij" unicode="ij" horiz-adv-x="451" 
d="M220 708q21 0 35 -14t14 -34q0 -28 -19 -47t-47 -19q-24 0 -37 14t-13 35q0 26 21 45.5t46 19.5zM147 468h78l-66 -468h-78zM431 708q21 0 35 -14t14 -34q0 -28 -19 -47t-47 -19q-24 0 -37 14t-13 35q0 26 21 45.5t46 19.5zM358 468h78l-80 -567q-10 -68 -51.5 -104.5
t-107.5 -36.5q-31 0 -52 10l18 68q19 -6 37 -6q34 0 54 21t28 78z" />
    <glyph glyph-name="napostrophe" unicode="&#x22;n" 
d="M372 480q75 0 114.5 -38t39.5 -111q0 -26 -5 -56l-39 -275h-78l39 280q2 13 2 33q0 47 -24 71t-67 24q-69 0 -113 -45t-59 -151l-30 -212h-78l50 353q2 15 5.5 56t6.5 59h74l-9 -77h2q24 40 70 64.5t99 24.5zM169 708h86l-97 -177h-66z" />
    <glyph glyph-name="fi" unicode="fi" horiz-adv-x="537" 
d="M388 768q38 0 58 -12l-21 -70q-24 10 -55 10q-27 0 -45.5 -10t-29 -32t-15.5 -42.5t-10 -55.5l-12 -88h114l-9 -66h-114l-57 -402h-78l57 402h-102l9 66h102l15 107q28 193 193 193zM517 708q21 0 35 -14t14 -34q0 -28 -19 -47t-47 -19q-24 0 -37 14t-13 35q0 26 21 45.5
t46 19.5zM444 468h78l-66 -468h-78z" />
    <glyph glyph-name="fl" unicode="fl" horiz-adv-x="537" 
d="M388 768q38 0 58 -12l-21 -70q-24 10 -55 10q-27 0 -45.5 -10t-29 -32t-15.5 -42.5t-10 -55.5l-12 -88h114l-9 -66h-114l-57 -402h-78l57 402h-102l9 66h102l15 107q28 193 193 193zM484 756h78l-106 -756h-78z" />
    <glyph glyph-name=".notdef" horiz-adv-x="512" 
d="M0 718h512v-718h-512v718zM50 50h412v617h-412v-617zM222 117v67h56v-67h-56zM261 609q54 0 88 -36t34 -95q0 -36 -14.5 -62.5t-50.5 -59.5q-33 -31 -40 -49t-7 -73h-46q-2 18 -2 25q1 49 12 71.5t47 60.5q33 34 41.5 48t8.5 35q0 36 -22.5 60.5t-53.5 24.5
q-34 0 -55.5 -24.5t-26.5 -70.5l-50 8q6 67 41 102t96 35z" />
    <glyph glyph-name=".null" horiz-adv-x="0" 
 />
    <glyph glyph-name=".null" horiz-adv-x="0" 
 />
    <glyph glyph-name="nonmarkingreturn" horiz-adv-x="333" 
 />
    <glyph glyph-name="CR" unicode="&#xd;" horiz-adv-x="278" 
 />
    <glyph glyph-name="space" unicode=" " horiz-adv-x="278" 
 />
    <glyph glyph-name="exclam" unicode="!" horiz-adv-x="278" 
d="M197 708h84l-72 -510h-84zM155 114q23 0 38 -15.5t15 -36.5q0 -26 -21.5 -47t-48.5 -21q-22 0 -37 15t-15 36q0 29 20.5 49t48.5 20z" />
    <glyph glyph-name="quotedbl" unicode="&#x22;" horiz-adv-x="519" 
d="M250 708h72l-34 -240h-72zM397 708h72l-34 -240h-72z" />
    <glyph glyph-name="numbersign" unicode="#" 
d="M298 708h67l-60 -211h126l60 211h67l-60 -211h98l-9 -66h-107l-43 -152h98l-9 -66h-108l-60 -213h-67l60 213h-126l-60 -213h-67l60 213h-98l9 66h108l42 152h-98l9 66h108zM287 431l-43 -152h126l43 152h-126z" />
    <glyph glyph-name="dollar" unicode="$" 
d="M357 720l9 66h48l-9 -66q57 0 105.5 -21.5t77.5 -59.5l-75 -60q-38 63 -119 63l-35 -249q106 -33 145 -73.5t39 -99.5q0 -91 -68 -157.5t-173 -74.5l-10 -71h-48l10 71q-144 0 -201 93l79 61q18 -34 54.5 -54.5t78.5 -21.5l36 254q-171 47 -171 173q0 89 65.5 153.5
t161.5 73.5zM220 503q0 -31 20 -53t73 -44l33 236q-57 -10 -91.5 -48.5t-34.5 -90.5zM347 307l-34 -241q58 7 98 46t40 91q0 36 -24 61t-80 43z" />
    <glyph glyph-name="percent" unicode="%" horiz-adv-x="833" 
d="M170 0l548 740l51 -32l-548 -740zM314 720q66 0 109.5 -42.5t43.5 -108.5q0 -78 -60.5 -138.5t-141.5 -60.5q-66 0 -109 42.5t-43 105.5q0 82 60 142t141 60zM186 531q0 -38 26 -63.5t63 -25.5q46 0 82.5 36t36.5 79q0 39 -26 65t-64 26q-45 0 -81.5 -35.5t-36.5 -81.5z
M668 338q66 0 109 -42t43 -106q0 -80 -60 -141t-142 -61q-66 0 -109 42.5t-43 106.5q0 80 60.5 140.5t141.5 60.5zM539 149q0 -38 26 -63.5t63 -25.5q46 0 82.5 36t36.5 81q0 37 -26 63t-64 26q-45 0 -81.5 -35.5t-36.5 -81.5z" />
    <glyph glyph-name="ampersand" unicode="&#x26;" horiz-adv-x="722" 
d="M416 721q71 0 114 -35.5t43 -94.5q0 -124 -177 -207l128 -159l117 159h95l-167 -218l139 -166h-115l-82 102q-56 -61 -109.5 -87.5t-118.5 -26.5q-88 0 -143 47.5t-55 122.5q0 156 188 237q-64 72 -64 139q0 82 59.5 134.5t147.5 52.5zM293 542q0 -22 10.5 -42t47.5 -65
q80 36 109 71.5t29 73.5q0 30 -22.5 49.5t-58.5 19.5q-46 0 -80.5 -31.5t-34.5 -75.5zM170 173q0 -48 34 -80.5t86 -32.5q43 0 83 21.5t95 76.5l-151 186q-84 -43 -115.5 -82t-31.5 -89z" />
    <glyph glyph-name="quotesingle" unicode="'" horiz-adv-x="278" 
d="M203 708h72l-34 -240h-72z" />
    <glyph glyph-name="parenleft" unicode="(" horiz-adv-x="278" 
d="M304 732l48 -40q-93 -107 -143 -239.5t-50 -268.5q0 -83 18 -148.5t61 -153.5l-59 -38q-91 154 -91 344q0 143 56.5 285t159.5 259z" />
    <glyph glyph-name="parenright" unicode=")" horiz-adv-x="278" 
d="M121 694l59 38q91 -156 91 -343q0 -143 -56 -284.5t-160 -260.5l-48 40q96 111 144 243t48 268q0 78 -17 144.5t-61 154.5z" />
    <glyph glyph-name="asterisk" unicode="*" horiz-adv-x="444" 
d="M271 559l21 149h60l-21 -149l148 48l11 -58l-148 -48l73 -119l-55 -38l-72 123l-105 -123l-44 38l103 119l-134 48l27 58z" />
    <glyph glyph-name="plus" unicode="+" horiz-adv-x="666" 
d="M379 564h66l-32 -228h228l-9 -66h-228l-32 -228h-66l32 228h-228l9 66h228z" />
    <glyph glyph-name="comma" unicode="," horiz-adv-x="278" 
d="M134 102h91l-115 -240h-77z" />
    <glyph glyph-name="hyphen" unicode="-" horiz-adv-x="333" 
d="M83 276h245l-10 -72h-245z" />
    <glyph glyph-name="period" unicode="." horiz-adv-x="278" 
d="M155 114q23 0 38 -15.5t15 -36.5q0 -26 -21.5 -47t-48.5 -21q-22 0 -37 15t-15 36q0 29 20.5 49t48.5 20z" />
    <glyph glyph-name="slash" unicode="/" horiz-adv-x="370" 
d="M0 -18l409 768l60 -24l-409 -769z" />
    <glyph glyph-name="zero" unicode="0" 
d="M379 720q96 0 146 -66t50 -194q0 -59 -9 -120t-31 -125.5t-55 -114t-86 -81t-118 -31.5q-96 0 -146 66.5t-50 193.5q0 57 9 117.5t31 125t54.5 114.5t85.5 82.5t119 32.5zM164 247q0 -187 122 -187q48 0 86 31t59.5 76.5t36 102.5t19.5 102.5t5 83.5q0 192 -124 192
q-54 0 -96 -40t-64 -103t-33 -128.5t-11 -129.5z" />
    <glyph glyph-name="one" unicode="1" 
d="M387 708h73l-100 -708h-84l84 600h-2l-142 -107l-41 61z" />
    <glyph glyph-name="two" unicode="2" 
d="M386 720q87 0 139 -43.5t52 -117.5q0 -128 -139 -244l-282 -235v-2h361l-11 -78h-456l13 96l335 288q45 38 70 75.5t25 87.5q0 45 -31.5 73t-82.5 28q-52 0 -91.5 -30t-58.5 -83l-90 8q26 83 92 130t155 47z" />
    <glyph glyph-name="three" unicode="3" 
d="M365 720q85 0 136 -42t51 -113q0 -66 -40.5 -119t-105.5 -73v-2q57 -10 89.5 -50t32.5 -98q0 -101 -75.5 -168t-189.5 -67q-87 0 -140 38.5t-67 110.5l89 28q11 -57 40 -81t87 -24q69 0 118 48t49 115q0 54 -43.5 83.5t-123.5 29.5h-21l10 72h27q89 0 134 39t45 104
q0 45 -28 71t-78 26q-92 0 -141 -79l-77 31q33 57 92 88.5t130 31.5z" />
    <glyph glyph-name="four" unicode="4" 
d="M416 708h103l-66 -468h102l-11 -78h-102l-23 -162h-84l23 162h-300l13 93zM419 610l-278 -370h228l52 370h-2z" />
    <glyph glyph-name="five" unicode="5" 
d="M203 708h371l-11 -78h-289l-30 -192q37 18 93 18q88 0 142 -53t54 -140q0 -115 -81 -195t-198 -80q-146 0 -191 129l89 32q13 -41 44 -65t75 -24q74 0 125.5 56t51.5 136q0 60 -41.5 96t-112.5 36q-72 0 -150 -44z" />
    <glyph glyph-name="six" unicode="6" 
d="M396 708h98l-232 -295l2 -2q42 21 98 21q84 0 135 -51t51 -134q0 -111 -78.5 -185t-193.5 -74q-94 0 -151 50.5t-57 134.5q0 110 97 236zM153 185q0 -56 37 -90.5t96 -34.5q74 0 125 50.5t51 122.5q0 57 -36.5 92t-97.5 35q-71 0 -123 -50.5t-52 -124.5z" />
    <glyph glyph-name="seven" unicode="7" 
d="M148 708h432l-11 -78l-372 -630h-95l377 630h-342z" />
    <glyph glyph-name="eight" unicode="8" 
d="M379 720q79 0 128.5 -43.5t49.5 -113.5q0 -64 -40 -116.5t-100 -67.5v-2q54 -12 85 -53t31 -98q0 -100 -74 -169t-183 -69q-90 0 -144.5 48t-54.5 126t47.5 138.5t120.5 76.5v2q-44 13 -70 49.5t-26 85.5q0 83 68 144.5t162 61.5zM233 511q0 -43 28.5 -70t74.5 -27
q57 0 97 40.5t40 94.5q0 45 -28.5 72t-76.5 27q-55 0 -95 -40t-40 -97zM163 179q0 -52 33.5 -85.5t89.5 -33.5q68 0 116 48t48 116q0 52 -34.5 85t-90.5 33q-65 0 -113.5 -48t-48.5 -115z" />
    <glyph glyph-name="nine" unicode="9" 
d="M379 720q94 0 151.5 -51t57.5 -134q0 -55 -21.5 -110t-79.5 -130l-227 -295h-98l231 295l-1 2q-39 -21 -98 -21q-83 0 -134.5 50.5t-51.5 132.5q0 113 78.5 187t192.5 74zM193 473q0 -56 37 -90.5t97 -34.5q74 0 125 51.5t51 123.5q0 57 -36.5 91t-98.5 34
q-73 0 -124 -51t-51 -124z" />
    <glyph glyph-name="colon" unicode=":" horiz-adv-x="278" 
d="M206 480q23 0 38 -15t15 -36q0 -27 -21.5 -48t-47.5 -21q-21 0 -36.5 15t-15.5 36q0 27 20.5 48t47.5 21zM155 114q23 0 38 -15.5t15 -36.5q0 -26 -21.5 -47t-48.5 -21q-22 0 -37 15t-15 36q0 29 20.5 49t48.5 20z" />
    <glyph glyph-name="semicolon" unicode=";" horiz-adv-x="278" 
d="M206 480q23 0 38 -15t15 -36q0 -27 -21.5 -48t-47.5 -21q-21 0 -36.5 15t-15.5 36q0 27 20.5 48t47.5 21zM134 102h91l-115 -240h-77z" />
    <glyph glyph-name="less" unicode="&#x3c;" horiz-adv-x="666" 
d="M673 564l-9 -66l-469 -195l414 -195l-9 -66l-489 232l8 58z" />
    <glyph glyph-name="equal" unicode="=" horiz-adv-x="666" 
d="M130 414h522l-9 -66h-522zM108 258h522l-9 -66h-522z" />
    <glyph glyph-name="greater" unicode="&#x3e;" horiz-adv-x="666" 
d="M142 498l9 66l490 -232l-8 -58l-555 -232l9 66l469 195z" />
    <glyph glyph-name="question" unicode="?" horiz-adv-x="482" 
d="M342 726q78 0 125 -40t47 -108q0 -58 -27 -103.5t-110 -114.5q-48 -40 -57 -60t-19 -102h-84q8 63 14.5 91t10.5 35.5t16 23.5q14 16 87 81q78 68 78 136q0 41 -24.5 65t-67.5 24q-49 0 -86 -29.5t-51 -79.5l-89 10q22 77 87.5 124t149.5 47zM247 114q23 0 37.5 -15
t14.5 -37q0 -26 -21.5 -47t-47.5 -21q-21 0 -36 15t-15 36q0 29 20.5 49t47.5 20z" />
    <glyph glyph-name="at" unicode="@" horiz-adv-x="800" 
d="M520 726q128 0 213 -74.5t85 -189.5q0 -126 -92 -228.5t-188 -102.5q-26 0 -39.5 14.5t-13.5 38.5v13h-1q-66 -66 -135 -66q-55 0 -88 35.5t-33 92.5q0 111 84 210.5t190 99.5q81 0 100 -82h2l27 63h65l-130 -300q-6 -15 -10 -33q0 -20 22 -20q51 0 112 80t61 176
q0 95 -68.5 157t-170.5 62q-88 0 -169 -46.5t-133.5 -133.5t-52.5 -193q0 -109 78 -186t188 -77q75 0 147.5 33t121.5 88h63q-60 -81 -152 -128t-195 -47q-139 0 -228.5 92.5t-89.5 225.5q0 80 34 157.5t91 137t137 95.5t168 36zM302 276q0 -35 21 -57t54 -22q61 0 123 78.5
t62 149.5q0 32 -20 55t-49 23q-66 0 -128.5 -77t-62.5 -150z" />
    <glyph glyph-name="A" unicode="A" horiz-adv-x="704" 
d="M418 708h79l201 -708h-98l-48 174h-354l-97 -174h-95zM438 600l-196 -348h289l-91 348h-2z" />
    <glyph glyph-name="B" unicode="B" horiz-adv-x="630" 
d="M188 708h216q99 0 155.5 -38t56.5 -107t-38.5 -118.5t-109.5 -70.5v-2q62 -6 99.5 -48.5t37.5 -103.5q0 -92 -78.5 -156t-221.5 -64h-217zM391 630h-130l-32 -222h121q86 0 130 35t44 99q0 88 -133 88zM366 330h-148l-35 -252h147q81 0 133 39.5t52 105.5q0 52 -40 79.5
t-109 27.5z" />
    <glyph glyph-name="C" unicode="C" horiz-adv-x="704" 
d="M509 726q164 0 234 -111l-80 -53q-52 86 -173 86q-118 0 -212 -104t-94 -231q0 -113 62.5 -183t168.5 -70q129 0 219 99l56 -53q-109 -124 -292 -124q-133 0 -219 89t-86 223q0 179 123.5 305.5t292.5 126.5z" />
    <glyph glyph-name="D" unicode="D" horiz-adv-x="741" 
d="M175 708h271q133 0 218 -82.5t85 -209.5q0 -179 -120.5 -297.5t-282.5 -118.5h-271zM248 630l-78 -552h165q150 0 236.5 92.5t86.5 240.5q0 106 -65 162.5t-180 56.5h-165z" />
    <glyph glyph-name="E" unicode="E" horiz-adv-x="593" 
d="M188 708h445l-11 -78h-361l-32 -222h337l-11 -78h-337l-35 -252h379l-11 -78h-463z" />
    <glyph glyph-name="F" unicode="F" 
d="M188 708h439l-11 -78h-355l-33 -234h330l-11 -78h-330l-45 -318h-84z" />
    <glyph glyph-name="G" unicode="G" horiz-adv-x="778" 
d="M530 726q160 0 237 -93l-72 -66q-66 81 -190 81q-130 0 -226 -102t-96 -240q0 -111 70.5 -178.5t184.5 -67.5q95 0 182 41l31 217h-163l11 78h247l-49 -348q-131 -66 -279 -66q-145 0 -235 86t-90 224q0 181 127 307.5t310 126.5z" />
    <glyph glyph-name="H" unicode="H" horiz-adv-x="722" 
d="M188 708h84l-43 -300h378l43 300h84l-100 -708h-84l46 330h-378l-46 -330h-84z" />
    <glyph glyph-name="I" unicode="I" horiz-adv-x="260" 
d="M188 708h84l-100 -708h-84z" />
    <glyph glyph-name="J" unicode="J" horiz-adv-x="482" 
d="M410 708h84l-71 -510q-15 -112 -79.5 -164t-154.5 -52q-78 0 -121 39.5t-46 112.5l86 17q2 -43 26 -67t67 -24q118 0 138 147z" />
    <glyph glyph-name="K" unicode="K" horiz-adv-x="630" 
d="M188 708h84l-43 -306h12l365 306h121l-396 -323l313 -385h-123l-286 360h-12l-51 -360h-84z" />
    <glyph glyph-name="L" unicode="L" horiz-adv-x="500" 
d="M188 708h84l-89 -630h324l-11 -78h-408z" />
    <glyph glyph-name="M" unicode="M" horiz-adv-x="907" 
d="M188 708h125l162 -555h2l320 555h122l-100 -708h-84l83 594h-2l-337 -594h-51l-171 594h-2l-83 -594h-84z" />
    <glyph glyph-name="N" unicode="N" horiz-adv-x="778" 
d="M188 708h106l327 -588h2l83 588h84l-100 -708h-106l-327 588h-2l-83 -588h-84z" />
    <glyph glyph-name="O" unicode="O" horiz-adv-x="834" 
d="M519 726q143 0 232.5 -87t89.5 -226q0 -180 -125.5 -305.5t-309.5 -125.5q-139 0 -226 88.5t-87 223.5q0 179 124 305.5t302 126.5zM184 306q0 -109 66.5 -177.5t174.5 -68.5q131 0 228 100t97 242q0 109 -67.5 177.5t-175.5 68.5q-128 0 -225.5 -99t-97.5 -243z" />
    <glyph glyph-name="P" unicode="P" horiz-adv-x="593" 
d="M188 708h210q107 0 165 -41t58 -118q0 -105 -72 -168t-185 -63h-147l-45 -318h-84zM261 630l-33 -234h146q70 0 112.5 37.5t42.5 100.5q0 46 -32.5 71t-89.5 25h-146z" />
    <glyph glyph-name="Q" unicode="Q" horiz-adv-x="834" 
d="M511 726q143 0 231 -88t88 -221q0 -110 -63 -208.5t-154 -134.5v-2h219l-10 -72h-415q-131 0 -222 85t-91 215q0 175 122.5 300.5t294.5 125.5zM185 322q0 -112 67 -178t177 -66q123 0 216.5 99t93.5 230q0 105 -66.5 173t-171.5 68q-123 0 -219.5 -95.5t-96.5 -230.5z
" />
    <glyph glyph-name="R" unicode="R" horiz-adv-x="611" 
d="M188 708h185q135 0 194 -38t59 -118q0 -91 -54 -151t-152 -75l155 -326h-103l-147 318h-108l-45 -318h-84zM261 630l-33 -234h108q199 0 199 138q0 96 -151 96h-123z" />
    <glyph glyph-name="S" unicode="S" 
d="M397 726q127 0 186 -83l-77 -60q-31 65 -120 65q-72 0 -121 -38t-49 -100q0 -40 31 -64.5t102 -46.5q111 -34 148.5 -76.5t37.5 -101.5q0 -103 -80.5 -171t-201.5 -68q-72 0 -126 26t-78 72l81 59q15 -37 53 -58t86 -21q69 0 121 41t52 103q0 43 -29.5 64.5t-137.5 59.5
q-78 28 -114 65.5t-36 96.5q0 103 78 169.5t194 66.5z" />
    <glyph glyph-name="T" unicode="T" horiz-adv-x="574" 
d="M111 708h552l-11 -78h-234l-89 -630h-84l89 630h-234z" />
    <glyph glyph-name="U" unicode="U" horiz-adv-x="704" 
d="M185 708h84l-59 -415q-5 -38 -5 -67q0 -166 155 -166q89 0 144.5 57t70.5 165l60 426h84l-61 -431q-20 -143 -101 -219t-208 -76q-112 0 -171.5 58.5t-59.5 163.5q0 23 6 71z" />
    <glyph glyph-name="V" unicode="V" horiz-adv-x="611" 
d="M91 708h95l136 -582h2l307 582h89l-377 -708h-81z" />
    <glyph glyph-name="W" unicode="W" horiz-adv-x="963" 
d="M106 708h93l78 -588h2l257 588h94l90 -588h2l247 588h88l-308 -708h-91l-91 600h-2l-260 -600h-92z" />
    <glyph glyph-name="X" unicode="X" horiz-adv-x="630" 
d="M117 708h108l152 -277l228 277h105l-286 -335l209 -373h-111l-166 314l-255 -314h-104l310 373z" />
    <glyph glyph-name="Y" unicode="Y" horiz-adv-x="594" 
d="M91 708h107l154 -320l250 320h101l-321 -403l-43 -305h-84l43 305z" />
    <glyph glyph-name="Z" unicode="Z" horiz-adv-x="574" 
d="M135 708h505l-11 -72l-487 -558h414l-11 -78h-516l11 75l487 555h-403z" />
    <glyph glyph-name="bracketleft" unicode="[" horiz-adv-x="259" 
d="M131 732h165l-9 -60h-93l-107 -768h93l-9 -60h-165z" />
    <glyph glyph-name="backslash" unicode="\" horiz-adv-x="370" 
d="M105 726l66 24l193 -768l-66 -25z" />
    <glyph glyph-name="bracketright" unicode="]" horiz-adv-x="259" 
d="M169 732h165l-125 -888h-165l9 60h93l107 768h-93z" />
    <glyph glyph-name="asciicircum" unicode="^" horiz-adv-x="666" 
d="M119 275l284 433h60l162 -433h-74l-130 349l-228 -349h-74z" />
    <glyph glyph-name="underscore" unicode="_" horiz-adv-x="500" 
d="M-11 -75h500l-7 -50h-500z" />
    <glyph glyph-name="grave" unicode="`" horiz-adv-x="240" 
d="M75 708h110l83 -144h-71z" />
    <glyph glyph-name="a" unicode="a" horiz-adv-x="519" 
d="M321 480q88 0 130.5 -36.5t42.5 -113.5q0 -22 -5 -57l-26 -177q-6 -42 -6 -77v-19h-75q-1 6 -1 17q0 13 6 53h-2q-65 -82 -166 -82q-71 0 -113 32t-42 85q0 186 302 186h47q3 13 3 34q0 83 -103 83q-83 0 -146 -51l-42 51q81 72 196 72zM149 121q0 -67 93 -67
q64 0 108.5 42.5t53.5 128.5h-86q-79 0 -124 -27t-45 -77z" />
    <glyph glyph-name="b" unicode="b" horiz-adv-x="611" 
d="M176 756h78l-50 -356h2q80 80 179 80q96 0 155.5 -56.5t59.5 -149.5q0 -115 -81 -200.5t-191 -85.5q-59 0 -103.5 26t-62.5 69h-2l-12 -83h-78zM179 203q0 -64 39 -103.5t104 -39.5q82 0 137.5 60.5t55.5 141.5q0 67 -38.5 106.5t-106.5 39.5q-80 0 -135.5 -59.5
t-55.5 -145.5z" />
    <glyph glyph-name="c" unicode="c" horiz-adv-x="482" 
d="M356 480q111 0 170 -74l-70 -55q-37 57 -110 57q-83 0 -133.5 -60.5t-50.5 -144.5q0 -63 37.5 -103t97.5 -40q76 0 128 58l50 -55q-75 -75 -188 -75q-95 0 -152.5 55t-57.5 149q0 121 80.5 204.5t198.5 83.5z" />
    <glyph glyph-name="d" unicode="d" horiz-adv-x="611" 
d="M569 756h78l-106 -756h-78l12 83h-2q-31 -43 -84 -69t-110 -26q-88 0 -145 58t-57 149q0 115 80 200t203 85q98 0 157 -80h2zM162 203q0 -64 39 -103.5t104 -39.5q82 0 137.5 60t55.5 142q0 66 -39.5 106t-105.5 40q-82 0 -136.5 -60.5t-54.5 -144.5z" />
    <glyph glyph-name="e" unicode="e" 
d="M354 480q89 0 140.5 -52t51.5 -141q0 -26 -7 -77h-378v-15q0 -58 36.5 -96.5t94.5 -38.5q94 0 159 71l53 -46q-88 -97 -221 -97q-95 0 -150.5 55.5t-55.5 148.5q0 120 81 204t196 84zM170 277v-1h294l1 19q0 52 -33 82.5t-92 30.5q-62 0 -108 -35.5t-62 -95.5z" />
    <glyph glyph-name="f" unicode="f" horiz-adv-x="315" 
d="M388 768q38 0 58 -12l-21 -70q-24 10 -55 10q-27 0 -45.5 -10t-29 -32t-15.5 -42.5t-10 -55.5l-12 -88h114l-9 -66h-114l-57 -402h-78l57 402h-102l9 66h102l15 107q28 193 193 193z" />
    <glyph glyph-name="g" unicode="g" horiz-adv-x="611" 
d="M362 480q54 0 96 -25t58 -67h2l11 80h78l-62 -441q-19 -132 -94 -199.5t-199 -67.5q-139 0 -217 89l65 64q36 -44 72.5 -62.5t95.5 -18.5q87 0 137 51t61 137l8 61h-2q-31 -41 -78 -64t-100 -23q-96 0 -156.5 55t-60.5 147q0 50 17.5 99t51 91t90 68t126.5 26zM162 208
q0 -61 40.5 -101.5t102.5 -40.5q82 0 137.5 58t55.5 141q0 66 -39.5 104.5t-106.5 38.5q-79 0 -134.5 -60t-55.5 -140z" />
    <glyph glyph-name="h" unicode="h" 
d="M180 756h78l-49 -353h2q24 34 68.5 55.5t92.5 21.5q75 0 114.5 -38t39.5 -111q0 -19 -4 -45l-40 -286h-78l38 276q3 24 3 37q0 95 -91 95q-144 0 -171 -187l-31 -221h-78z" />
    <glyph glyph-name="i" unicode="i" horiz-adv-x="240" 
d="M220 708q21 0 35 -14t14 -34q0 -28 -19 -47t-47 -19q-24 0 -37 14t-13 35q0 26 21 45.5t46 19.5zM147 468h78l-66 -468h-78z" />
    <glyph glyph-name="j" unicode="j" horiz-adv-x="240" 
d="M220 708q21 0 35 -14t14 -34q0 -28 -19 -47t-47 -19q-24 0 -37 14t-13 35q0 26 21 45.5t46 19.5zM147 468h78l-80 -567q-10 -68 -51.5 -104.5t-107.5 -36.5q-31 0 -52 10l18 68q19 -6 37 -6q34 0 54 21t28 78z" />
    <glyph glyph-name="k" unicode="k" horiz-adv-x="500" 
d="M180 756h78l-69 -494l242 206h111l-256 -213l213 -255h-115l-197 246l-35 -246h-78z" />
    <glyph glyph-name="l" unicode="l" horiz-adv-x="240" 
d="M187 756h78l-106 -756h-78z" />
    <glyph glyph-name="m" unicode="m" horiz-adv-x="852" 
d="M371 480q107 0 136 -89q67 89 160 89q155 0 155 -143q0 -19 -5 -59l-39 -278h-78l34 240q7 49 7 72q0 96 -97 96q-57 0 -95 -40.5t-46 -99.5l-38 -268h-78l37 263q5 32 5 58q0 45 -17.5 66t-57.5 21q-145 0 -172 -192l-30 -216h-78l50 353q2 15 5.5 56t6.5 59h74l-9 -77
h2q24 40 70 64.5t98 24.5z" />
    <glyph glyph-name="n" unicode="n" 
d="M372 480q74 0 114 -38t40 -111q0 -25 -4 -49l-40 -282h-78l37 267q4 26 4 46q0 95 -91 95q-145 0 -172 -193l-30 -215h-78l50 353q2 15 5.5 56t6.5 59h74l-9 -77h2q24 40 70 64.5t99 24.5z" />
    <glyph glyph-name="o" unicode="o" horiz-adv-x="594" 
d="M364 480q98 0 158.5 -57t60.5 -151q0 -115 -83 -199.5t-205 -84.5q-97 0 -157.5 56t-60.5 148q0 122 83 205t204 83zM162 203q0 -64 39 -103.5t104 -39.5q82 0 137.5 60.5t55.5 141.5q0 66 -39.5 106t-105.5 40q-82 0 -136.5 -60.5t-54.5 -144.5z" />
    <glyph glyph-name="p" unicode="p" horiz-adv-x="611" 
d="M385 480q96 0 155.5 -56.5t59.5 -149.5q0 -115 -80.5 -200.5t-191.5 -85.5q-59 0 -103.5 26t-62.5 69h-2l-44 -311h-78l98 696h78l-10 -68h2q80 80 179 80zM179 203q0 -64 39 -103.5t104 -39.5q83 0 138 60.5t55 141.5q0 67 -38.5 106.5t-106.5 39.5q-80 0 -135.5 -59.5
t-55.5 -145.5z" />
    <glyph glyph-name="q" unicode="q" horiz-adv-x="611" 
d="M348 480q60 0 105.5 -26.5t61.5 -68.5h2l12 83h78l-98 -696h-78l42 296h-2q-80 -80 -180 -80q-97 0 -155.5 56t-58.5 149q0 118 81 202.5t190 84.5zM162 203q0 -64 39 -103.5t104 -39.5q82 0 137.5 60.5t55.5 141.5q0 66 -39.5 106t-105.5 40q-82 0 -136.5 -60.5
t-54.5 -144.5z" />
    <glyph glyph-name="r" unicode="r" horiz-adv-x="352" 
d="M371 480q21 0 32 -5l-16 -79q-23 6 -41 6q-137 0 -162 -176l-32 -226h-78l50 353q2 15 5.5 56t6.5 59h74l-9 -77h2q25 40 71 64.5t97 24.5z" />
    <glyph glyph-name="s" unicode="s" horiz-adv-x="426" 
d="M284 480q55 0 94 -22t54 -63l-72 -43q-26 56 -91 56q-42 0 -72 -21t-30 -49q0 -42 119 -65q126 -25 126 -115q0 -76 -58.5 -123t-151.5 -47q-65 0 -104.5 21t-64.5 66l68 48q42 -63 111 -63q50 0 82.5 22.5t32.5 57.5q0 24 -20 39.5t-85 29.5q-70 15 -102 40.5t-32 69.5
q0 71 57 116t139 45z" />
    <glyph glyph-name="t" unicode="t" horiz-adv-x="352" 
d="M198 601h78l-18 -133h138l-9 -66h-138l-31 -220v-5l-2.5 -12.5t-2.5 -16.5t-1.5 -18t-0.5 -16q0 -29 14.5 -41.5t45.5 -12.5q36 0 71 16l-7 -71q-43 -17 -94 -17q-58 0 -85 23.5t-27 73.5q0 29 5 59l37 258h-102l9 66h102z" />
    <glyph glyph-name="u" unicode="u" 
d="M140 468h78l-37 -261q-5 -31 -5 -52q0 -95 92 -95q145 0 171 188l31 220h78l-50 -357l-12 -111h-74l9 77h-2q-23 -39 -70 -64t-99 -25q-75 0 -114.5 38t-39.5 111q0 9 3 42z" />
    <glyph glyph-name="v" unicode="v" horiz-adv-x="482" 
d="M76 468h91l94 -367h2l191 367h84l-251 -468h-86z" />
    <glyph glyph-name="w" unicode="w" horiz-adv-x="741" 
d="M80 468h86l56 -360h2l172 360h82l72 -360h2l157 360h84l-217 -468h-77l-82 360h-2l-169 -360h-80z" />
    <glyph glyph-name="x" unicode="x" horiz-adv-x="500" 
d="M93 468h102l100 -168l141 168h95l-192 -216l158 -252h-103l-120 202l-174 -202h-97l227 252z" />
    <glyph glyph-name="y" unicode="y" horiz-adv-x="482" 
d="M76 468h91l93 -367h2l191 367h85l-300 -563q-43 -81 -80.5 -113t-101.5 -32q-42 0 -68 12l20 68q24 -8 53 -8q58 0 89 60q32 58 54 105z" />
    <glyph glyph-name="z" unicode="z" horiz-adv-x="444" 
d="M108 468h365l-9 -60l-323 -342h282l-9 -66h-384l9 61l323 341h-263z" />
    <glyph glyph-name="braceleft" unicode="{" horiz-adv-x="333" 
d="M327 732h70l-9 -60h-49q-28 0 -43.5 -17t-22.5 -69l-22 -162q-14 -105 -105 -135v-2q32 -6 50.5 -33t18.5 -66q0 -7 -1 -17t-2.5 -21t-1.5 -14l-20 -147q-3 -19 -3 -37q0 -48 41 -48h53l-9 -60h-72q-36 0 -61.5 28.5t-25.5 70.5q0 13 3 32l22 162q0 4 1.5 14.5t1.5 14.5
q0 40 -20.5 66t-51.5 26l9 60q36 0 66 34t37 84l23 169q7 55 44 91t79 36z" />
    <glyph glyph-name="bar" unicode="|" horiz-adv-x="368" 
d="M202 832h65v-1109h-65v1109z" />
    <glyph glyph-name="braceright" unicode="}" horiz-adv-x="333" 
d="M142 732h70q37 0 63 -29t26 -71q0 -14 -3 -32l-20 -147q-5 -32 -5 -46q0 -36 21 -62.5t51 -26.5l-9 -60q-37 -1 -66 -33.5t-36 -80.5l-24 -174q-7 -55 -43.5 -90.5t-81.5 -35.5h-68l9 60h52q11 0 18.5 2.5t17 10t16.5 26.5t11 48l23 166q8 55 37 89.5t67 40.5l1 2
q-32 9 -51 37.5t-19 63.5q0 14 3 32l22 162q4 32 4 40q0 48 -40 48h-55z" />
    <glyph glyph-name="asciitilde" unicode="~" horiz-adv-x="666" 
d="M582 372l27 -48q-44 -51 -74.5 -69.5t-64.5 -18.5q-40 0 -106 34t-101 34q-52 0 -94 -70l-26 48q43 52 73 70t64 18q39 0 105.5 -34t101.5 -34q52 0 95 70z" />
    <glyph glyph-name="uni00A0" unicode="&#xa0;" horiz-adv-x="278" 
 />
    <glyph glyph-name="exclamdown" unicode="&#xa1;" horiz-adv-x="278" 
d="M208 492q21 0 36.5 -15t15.5 -38q0 -25 -21 -46t-48 -21q-22 0 -37 14.5t-15 35.5q0 29 21.5 49.5t47.5 20.5zM137 288h84l-71 -510h-84z" />
    <glyph glyph-name="cent" unicode="&#xa2;" 
d="M344 477l10 69h48l-10 -66q101 -6 154 -74l-70 -55q-37 51 -94 57l-49 -348q67 6 112 58l50 -55q-67 -66 -172 -76l-9 -65h-48l9 66q-83 11 -130.5 66t-47.5 138q0 109 70 192t177 93zM182 204q0 -56 27.5 -93.5t76.5 -49.5l48 345q-71 -14 -111.5 -72t-40.5 -130z" />
    <glyph glyph-name="sterling" unicode="&#xa3;" 
d="M479 720q100 0 153 -62l-63 -59q-44 49 -101 49q-127 0 -151 -168l-12 -84h162l-10 -66h-162l-35 -252h246l-11 -78h-438l11 78h108l35 252h-96l10 66h96l10 75q16 122 81.5 185.5t166.5 63.5z" />
    <glyph glyph-name="currency" unicode="&#xa4;" 
d="M107 560l50 44l46 -53q75 53 160 53q83 0 144 -53l62 53l38 -44l-62 -54q35 -51 35 -118q0 -102 -77 -185l46 -55l-50 -44l-47 55q-77 -55 -159 -55q-81 0 -145 55l-61 -55l-38 44l62 55q-35 52 -35 116q0 108 77 187zM154 331q0 -65 43.5 -110t105.5 -45q77 0 138 63.5
t61 139.5q0 64 -42.5 108.5t-107.5 44.5q-77 0 -137.5 -62.5t-60.5 -138.5z" />
    <glyph glyph-name="yen" unicode="&#xa5;" 
d="M100 708h100l132 -327l224 327h100l-237 -327h114l-9 -60h-150l-11 -16l-10 -71h159l-9 -60h-159l-24 -174h-84l24 174h-159l9 60h159l10 71l-7 16h-150l9 60h114z" />
    <glyph glyph-name="brokenbar" unicode="&#xa6;" horiz-adv-x="367" 
d="M202 749h64v-388h-64v388zM202 194h64v-387h-64v387z" />
    <glyph glyph-name="section" unicode="&#xa7;" 
d="M390 726q61 0 104 -24.5t58 -69.5l-81 -41q-7 29 -32 46t-62 17q-52 0 -85 -28t-33 -72q0 -39 39 -60l121 -66q97 -53 97 -127q0 -46 -28 -86t-79 -66q54 -41 54 -99q0 -82 -66 -138t-164 -56q-71 0 -118.5 32.5t-61.5 90.5l82 36q14 -87 114 -87q55 0 88.5 30t33.5 74
q0 42 -56 72l-144 80q-57 32 -57 101q0 108 122 161q-62 38 -62 99q0 76 63.5 128.5t152.5 52.5zM194 307q0 -45 65 -77l92 -47q32 12 55 40.5t23 58.5q0 51 -86 96l-51 27q-56 -20 -77 -43.5t-21 -54.5z" />
    <glyph glyph-name="dieresis" unicode="&#xa8;" horiz-adv-x="240" 
d="M117 684q20 0 34 -13.5t14 -33.5q0 -24 -19.5 -42.5t-43.5 -18.5q-21 0 -34 13t-13 32q0 26 19 44.5t43 18.5zM315 684q20 0 33.5 -13t13.5 -34q0 -23 -19 -42t-43 -19q-20 0 -33.5 13t-13.5 32q0 25 19 44t43 19z" />
    <glyph glyph-name="copyright" unicode="&#xa9;" horiz-adv-x="800" 
d="M502 726q139 0 231.5 -91t92.5 -227q0 -107 -57 -205t-156.5 -159.5t-215.5 -61.5q-137 0 -230 90t-93 226q0 110 57.5 209t157 159t213.5 60zM140 304q0 -115 75.5 -191.5t189.5 -76.5q139 0 246.5 109t107.5 257q0 117 -75 193.5t-191 76.5q-138 0 -245.5 -108.5
t-107.5 -259.5zM494 581q75 0 119.5 -41t45.5 -110h-61q-2 43 -32.5 70t-78.5 27q-80 0 -130 -60.5t-50 -141.5q0 -64 36.5 -104.5t96.5 -40.5q47 0 85.5 28.5t52.5 73.5h62q-26 -71 -82.5 -113.5t-124.5 -42.5q-87 0 -140 51.5t-53 135.5q0 113 71 190.5t183 77.5z" />
    <glyph glyph-name="ordfeminine" unicode="&#xaa;" horiz-adv-x="337" 
d="M269 720q64 0 90.5 -24t26.5 -67q0 -19 -4 -41q-18 -118 -18 -158h-61l4 45h-2q-29 -51 -107 -51q-44 0 -69 19.5t-25 54.5q0 109 188 109h33q0 3 0.5 7t1 6t0.5 5q0 17 -18.5 29t-47.5 12q-26 0 -53.5 -9.5t-40.5 -21.5l-25 42q53 43 127 43zM171 508q0 -13 14 -21.5
t38 -8.5q39 0 66.5 21.5t28.5 59.5h-53q-94 0 -94 -51z" />
    <glyph glyph-name="guillemotleft" unicode="&#xab;" horiz-adv-x="500" 
d="M92 240l173 214l50 -36l-142 -178l92 -178l-60 -36zM278 240l173 214l50 -36l-142 -178l92 -178l-60 -36z" />
    <glyph glyph-name="logicalnot" unicode="&#xac;" horiz-adv-x="666" 
d="M130 414h522l-39 -278h-66l30 212h-456z" />
    <glyph glyph-name="uni00AD" unicode="&#xad;" horiz-adv-x="333" 
d="M83 276h245l-10 -72h-245z" />
    <glyph glyph-name="registered" unicode="&#xae;" horiz-adv-x="800" 
d="M502 726q139 0 231.5 -91t92.5 -227q0 -107 -57 -205t-156.5 -159.5t-215.5 -61.5q-137 0 -230 90t-93 226q0 110 57.5 209t157 159t213.5 60zM140 304q0 -115 75.5 -191.5t189.5 -76.5q139 0 246.5 109t107.5 257q0 116 -75 193t-191 77q-138 0 -245.5 -108.5
t-107.5 -259.5zM338 572h169q132 0 132 -99q0 -61 -35 -99.5t-99 -44.5l98 -192h-71l-91 187h-71l-27 -187h-66zM397 518l-20 -140h74q68 0 94.5 21.5t26.5 65.5q0 53 -84 53h-91z" />
    <glyph glyph-name="macron" unicode="&#xaf;" horiz-adv-x="240" 
d="M75 660h276l-9 -60h-276z" />
    <glyph glyph-name="degree" unicode="&#xb0;" horiz-adv-x="400" 
d="M301 720q54 0 89 -34.5t35 -86.5q0 -65 -48.5 -115t-115.5 -50q-54 0 -89 35t-35 87q0 65 49 114.5t115 49.5zM191 566q0 -32 22.5 -55t55.5 -23q38 0 70 31.5t32 68.5q0 33 -22.5 55.5t-55.5 22.5q-39 0 -70.5 -32t-31.5 -68z" />
    <glyph glyph-name="plusminus" unicode="&#xb1;" horiz-adv-x="666" 
d="M379 564h66l-23 -168h228l-10 -66h-228l-23 -168h-66l23 168h-228l10 66h228zM87 108h522l-9 -66h-522z" />
    <glyph glyph-name="twosuperior" unicode="&#xb2;" horiz-adv-x="361" 
d="M286 720q57 0 91 -27.5t34 -75.5q0 -81 -78 -141l-169 -131v-2h213l-7 -54h-297l8 58l216 173q47 38 47 87q0 25 -18 42t-45 17q-32 0 -57 -18t-36 -49l-62 5q16 55 57.5 85.5t102.5 30.5z" />
    <glyph glyph-name="threesuperior" unicode="&#xb3;" horiz-adv-x="361" 
d="M279 720q55 0 89 -26t34 -69q0 -39 -26.5 -70.5t-67.5 -42.5v-2q37 -5 58.5 -29.5t21.5 -61.5q0 -57 -48 -96.5t-122 -39.5q-117 0 -134 92l57 23q6 -28 28.5 -44.5t55.5 -16.5q43 0 70 23t27 61q0 63 -105 63h-9l8 54h12q53 0 80 21.5t27 57.5q0 49 -63 49
q-62 0 -87 -42l-52 25q46 71 146 71z" />
    <glyph glyph-name="acute" unicode="&#xb4;" horiz-adv-x="240" 
d="M255 708h110l-163 -144h-72z" />
    <glyph glyph-name="mu" unicode="&#xb5;" 
d="M140 468h78l-40 -280q-2 -14 -2 -33q0 -95 92 -95q145 0 171 186l31 222h78l-50 -357l-12 -111h-74l9 77h-2q-23 -39 -70 -64t-99 -25q-58 0 -96 25l-34 -241h-78z" />
    <glyph glyph-name="paragraph" unicode="&#xb6;" horiz-adv-x="600" 
d="M404 708h250l-118 -834h-72l108 768h-118l-108 -768h-72l62 442q-81 0 -132.5 45.5t-51.5 113.5q0 102 72.5 167.5t179.5 65.5z" />
    <glyph glyph-name="periodcentered" unicode="&#xb7;" horiz-adv-x="278" 
d="M191 369q21 0 36.5 -15t15.5 -36q0 -27 -21 -48t-48 -21q-23 0 -37.5 15.5t-14.5 37.5q0 26 21 46.5t48 20.5z" />
    <glyph glyph-name="cedilla" unicode="&#xb8;" horiz-adv-x="240" 
d="M39 -85l74 85h45l-54 -64q27 4 37 4q29 0 49.5 -16.5t20.5 -42.5q0 -42 -36.5 -70t-93.5 -28q-58 0 -97 21l23 37q31 -16 69 -16q30 0 49 13t19 34q0 15 -13 23.5t-34 8.5q-15 0 -41 -8z" />
    <glyph glyph-name="onesuperior" unicode="&#xb9;" horiz-adv-x="361" 
d="M144 621l137 93h58l-59 -425h-66l49 352h-2l-90 -65z" />
    <glyph glyph-name="ordmasculine" unicode="&#xba;" horiz-adv-x="386" 
d="M294 720q65 0 104.5 -35t39.5 -90q0 -71 -53.5 -121t-131.5 -50q-64 0 -104 34.5t-40 90.5q0 73 54 122t131 49zM176 560q0 -37 23 -59.5t61 -22.5q46 0 79 33t33 73q0 36 -23.5 59t-62.5 23q-44 0 -77 -31.5t-33 -74.5z" />
    <glyph glyph-name="guillemotright" unicode="&#xbb;" horiz-adv-x="500" 
d="M117 418l60 36l113 -214l-173 -214l-50 36l142 178zM303 418l60 36l113 -214l-173 -214l-50 36l142 178z" />
    <glyph glyph-name="onequarter" unicode="&#xbc;" horiz-adv-x="834" 
d="M149 0l548 740l51 -32l-548 -740zM126 621l137 93h58l-59 -425h-66l49 353h-2l-90 -67zM721 425h78l-40 -281h56l-7 -54h-56l-13 -90h-66l13 90h-195l9 63zM722 347h-2l-162 -203h135z" />
    <glyph glyph-name="onehalf" unicode="&#xbd;" horiz-adv-x="834" 
d="M132 0l548 740l51 -32l-548 -740zM120 621l137 93h58l-59 -425h-66l49 353h-2l-90 -67zM718 431q59 0 91.5 -28t32.5 -73q0 -81 -81 -145l-165 -129v-2h213l-8 -54h-297l8 58l198 158q38 30 51.5 53t13.5 48q0 27 -17.5 43.5t-45.5 16.5q-32 0 -57 -18t-35 -49l-63 5
q16 55 58 85.5t103 30.5z" />
    <glyph glyph-name="threequarters" unicode="&#xbe;" horiz-adv-x="834" 
d="M188 0l548 740l51 -32l-548 -740zM274 720q56 0 89.5 -26t33.5 -69q0 -39 -27 -71t-67 -42v-2q37 -5 58.5 -29t21.5 -61q0 -58 -48 -97.5t-122 -39.5q-117 0 -135 92l58 23q6 -28 28.5 -44.5t55.5 -16.5q43 0 70 23t27 61q0 63 -105 63h-9l8 54h12q52 0 79.5 21.5
t27.5 59.5q0 47 -63 47q-61 0 -87 -42l-52 25q43 71 146 71zM735 425h78l-40 -281h56l-7 -54h-56l-13 -90h-66l13 90h-195l9 63zM736 347h-2l-162 -203h135z" />
    <glyph glyph-name="questiondown" unicode="&#xbf;" horiz-adv-x="482" 
d="M320 492q22 0 37.5 -15.5t15.5 -37.5q0 -25 -21.5 -46t-48.5 -21q-23 0 -37.5 15t-14.5 36q0 29 21 49t48 20zM249 288h84l-8 -68q-7 -60 -54 -104q-96 -86 -116 -112q-28 -37 -28 -83q0 -42 24.5 -65.5t67.5 -23.5q49 0 86 29t52 80l87 -10q-22 -78 -87.5 -124.5
t-148.5 -46.5q-80 0 -126 40.5t-46 112.5q0 35 12 67t38 62t46 48.5t57 48.5q8 7 14 13t11 10.5t9 12t6.5 11t5 13t4 13t3 15.5t2.5 17t2.5 21t2.5 23z" />
    <glyph glyph-name="Agrave" unicode="&#xc0;" horiz-adv-x="704" 
d="M418 708h79l201 -708h-98l-48 174h-354l-97 -174h-95zM438 600l-196 -348h289l-91 348h-2zM333 902h110l84 -144h-71z" />
    <glyph glyph-name="Aacute" unicode="&#xc1;" horiz-adv-x="704" 
d="M418 708h79l201 -708h-98l-48 174h-354l-97 -174h-95zM438 600l-196 -348h289l-91 348h-2zM513 902h110l-163 -144h-71z" />
    <glyph glyph-name="Acircumflex" unicode="&#xc2;" horiz-adv-x="704" 
d="M418 708h79l201 -708h-98l-48 174h-354l-97 -174h-95zM438 600l-196 -348h289l-91 348h-2zM432 902h91l92 -144h-81l-65 102l-92 -102h-76z" />
    <glyph glyph-name="Atilde" unicode="&#xc3;" horiz-adv-x="704" 
d="M418 708h79l201 -708h-98l-48 174h-354l-97 -174h-95zM438 600l-196 -348h289l-91 348h-2zM594 878h48q-15 -49 -43.5 -76.5t-64.5 -27.5q-29 0 -75.5 20t-64.5 20q-30 0 -53 -44h-48q14 48 44.5 76t69.5 28q29 0 73.5 -20t59.5 -20q34 0 54 44z" />
    <glyph glyph-name="Adieresis" unicode="&#xc4;" horiz-adv-x="704" 
d="M418 708h79l201 -708h-98l-48 174h-354l-97 -174h-95zM438 600l-196 -348h289l-91 348h-2zM376 878q20 0 33 -13t13 -33q0 -26 -17.5 -44t-43.5 -18q-23 0 -35 13.5t-12 32.5q0 26 18.5 44t43.5 18zM574 878q20 0 33.5 -13.5t13.5 -32.5q0 -25 -18.5 -43.5t-43.5 -18.5
q-22 0 -35 13.5t-13 32.5q0 25 19 43.5t44 18.5z" />
    <glyph glyph-name="Aring" unicode="&#xc5;" horiz-adv-x="704" 
d="M418 708h79l201 -708h-98l-48 174h-354l-97 -174h-95zM438 600l-196 -348h289l-91 348h-2zM482 928q38 0 62 -23.5t24 -60.5q0 -45 -34 -79.5t-80 -34.5q-38 0 -62 24t-24 62q0 44 34.5 78t79.5 34zM410 822q0 -21 14 -35.5t36 -14.5q26 0 46 19.5t20 45.5q0 20 -15 34.5
t-36 14.5q-24 0 -44.5 -20t-20.5 -44z" />
    <glyph glyph-name="AE" unicode="&#xc6;" horiz-adv-x="944" 
d="M550 708h435l-11 -78h-294l-32 -222h276l-11 -78h-276l-35 -252h306l-11 -78h-390l27 192h-293l-150 -192h-101zM596 630h-12l-282 -360h243z" />
    <glyph glyph-name="Ccedilla" unicode="&#xc7;" horiz-adv-x="704" 
d="M509 726q164 0 234 -111l-80 -53q-53 86 -165 86q-119 0 -217 -99t-98 -246q0 -106 64.5 -174.5t167.5 -68.5q129 0 219 99l56 -53q-108 -124 -286 -124l-38 -46q6 0 19 2t17 2q30 0 50.5 -16.5t20.5 -42.5q0 -42 -36.5 -70t-93.5 -28q-58 0 -97 21l23 37q33 -16 69 -16
q30 0 48.5 13t18.5 34q0 32 -46 32q-9 0 -41 -8l-17 19l60 70q-120 13 -194 99t-74 210q0 113 54.5 212t150.5 159.5t211 60.5z" />
    <glyph glyph-name="Egrave" unicode="&#xc8;" horiz-adv-x="593" 
d="M188 708h445l-11 -78h-361l-32 -222h337l-11 -78h-337l-35 -252h379l-11 -78h-463zM278 902h110l84 -144h-71z" />
    <glyph glyph-name="Eacute" unicode="&#xc9;" horiz-adv-x="593" 
d="M188 708h445l-11 -78h-361l-32 -222h337l-11 -78h-337l-35 -252h379l-11 -78h-463zM458 902h110l-163 -144h-71z" />
    <glyph glyph-name="Ecircumflex" unicode="&#xca;" horiz-adv-x="593" 
d="M188 708h445l-11 -78h-361l-32 -222h337l-11 -78h-337l-35 -252h379l-11 -78h-463zM377 902h91l92 -144h-81l-65 102l-92 -102h-76z" />
    <glyph glyph-name="Edieresis" unicode="&#xcb;" horiz-adv-x="593" 
d="M188 708h445l-11 -78h-361l-32 -222h337l-11 -78h-337l-35 -252h379l-11 -78h-463zM321 878q20 0 33 -13t13 -33q0 -26 -17.5 -44t-43.5 -18q-23 0 -35 13.5t-12 32.5q0 26 18.5 44t43.5 18zM519 878q20 0 33.5 -13.5t13.5 -32.5q0 -25 -18.5 -43.5t-43.5 -18.5
q-22 0 -35 13.5t-13 32.5q0 25 19 43.5t44 18.5z" />
    <glyph glyph-name="Igrave" unicode="&#xcc;" horiz-adv-x="260" 
d="M188 708h84l-100 -708h-84zM111 902h110l84 -144h-71z" />
    <glyph glyph-name="Iacute" unicode="&#xcd;" horiz-adv-x="260" 
d="M188 708h84l-100 -708h-84zM291 902h110l-163 -144h-71z" />
    <glyph glyph-name="Icircumflex" unicode="&#xce;" horiz-adv-x="260" 
d="M188 708h84l-100 -708h-84zM210 902h91l92 -144h-81l-65 102l-92 -102h-76z" />
    <glyph glyph-name="Idieresis" unicode="&#xcf;" horiz-adv-x="260" 
d="M188 708h84l-100 -708h-84zM154 878q20 0 33 -13t13 -33q0 -26 -17.5 -44t-43.5 -18q-23 0 -35 13.5t-12 32.5q0 26 18.5 44t43.5 18zM352 878q20 0 33.5 -13.5t13.5 -32.5q0 -25 -18.5 -43.5t-43.5 -18.5q-22 0 -35 13.5t-13 32.5q0 25 19 43.5t44 18.5z" />
    <glyph glyph-name="Eth" unicode="&#xd0;" horiz-adv-x="741" 
d="M175 708h269q129 0 217 -80t88 -212q0 -172 -116.5 -294t-291.5 -122h-266l47 336h-72l11 66h71zM248 630l-32 -228h252l-10 -66h-252l-36 -258h163q150 0 237.5 91.5t87.5 241.5q0 106 -65 162.5t-180 56.5h-165z" />
    <glyph glyph-name="Ntilde" unicode="&#xd1;" horiz-adv-x="778" 
d="M188 708h106l327 -588h2l83 588h84l-100 -708h-106l-327 588h-2l-83 -588h-84zM631 878h48q-15 -49 -43.5 -76.5t-64.5 -27.5q-29 0 -75.5 20t-64.5 20q-30 0 -53 -44h-48q14 48 44.5 76t69.5 28q29 0 73.5 -20t59.5 -20q34 0 54 44z" />
    <glyph glyph-name="Ograve" unicode="&#xd2;" horiz-adv-x="834" 
d="M519 726q143 0 232.5 -87t89.5 -226q0 -180 -125.5 -305.5t-309.5 -125.5q-139 0 -226 88.5t-87 223.5q0 179 124 305.5t302 126.5zM184 306q0 -109 66.5 -177.5t174.5 -68.5q131 0 228 100t97 242q0 109 -67.5 177.5t-175.5 68.5q-128 0 -225.5 -99t-97.5 -243zM398 902
h110l84 -144h-71z" />
    <glyph glyph-name="Oacute" unicode="&#xd3;" horiz-adv-x="834" 
d="M519 726q143 0 232.5 -87t89.5 -226q0 -180 -125.5 -305.5t-309.5 -125.5q-139 0 -226 88.5t-87 223.5q0 179 124 305.5t302 126.5zM184 306q0 -109 66.5 -177.5t174.5 -68.5q131 0 228 100t97 242q0 109 -67.5 177.5t-175.5 68.5q-128 0 -225.5 -99t-97.5 -243zM578 902
h110l-163 -144h-71z" />
    <glyph glyph-name="Ocircumflex" unicode="&#xd4;" horiz-adv-x="834" 
d="M519 726q143 0 232.5 -87t89.5 -226q0 -180 -125.5 -305.5t-309.5 -125.5q-139 0 -226 88.5t-87 223.5q0 179 124 305.5t302 126.5zM184 306q0 -109 66.5 -177.5t174.5 -68.5q131 0 228 100t97 242q0 109 -67.5 177.5t-175.5 68.5q-128 0 -225.5 -99t-97.5 -243zM497 902
h91l92 -144h-81l-65 102l-92 -102h-76z" />
    <glyph glyph-name="Otilde" unicode="&#xd5;" horiz-adv-x="834" 
d="M519 726q143 0 232.5 -87t89.5 -226q0 -180 -125.5 -305.5t-309.5 -125.5q-139 0 -226 88.5t-87 223.5q0 179 124 305.5t302 126.5zM184 306q0 -109 66.5 -177.5t174.5 -68.5q131 0 228 100t97 242q0 109 -67.5 177.5t-175.5 68.5q-128 0 -225.5 -99t-97.5 -243zM659 878
h48q-15 -49 -43.5 -76.5t-64.5 -27.5q-29 0 -75.5 20t-64.5 20q-30 0 -53 -44h-48q14 48 44.5 76t69.5 28q29 0 73.5 -20t59.5 -20q34 0 54 44z" />
    <glyph glyph-name="Odieresis" unicode="&#xd6;" horiz-adv-x="834" 
d="M519 726q143 0 232.5 -87t89.5 -226q0 -180 -125.5 -305.5t-309.5 -125.5q-139 0 -226 88.5t-87 223.5q0 179 124 305.5t302 126.5zM184 306q0 -109 66.5 -177.5t174.5 -68.5q131 0 228 100t97 242q0 109 -67.5 177.5t-175.5 68.5q-128 0 -225.5 -99t-97.5 -243zM441 878
q20 0 33 -13t13 -33q0 -26 -17.5 -44t-43.5 -18q-23 0 -35 13.5t-12 32.5q0 26 18.5 44t43.5 18zM639 878q20 0 33.5 -13.5t13.5 -32.5q0 -25 -18.5 -43.5t-43.5 -18.5q-22 0 -35 13.5t-13 32.5q0 25 19 43.5t44 18.5z" />
    <glyph glyph-name="multiply" unicode="&#xd7;" horiz-adv-x="666" 
d="M162 495l55 49l165 -193l220 193l42 -47l-221 -194l167 -192l-55 -49l-166 194l-220 -194l-42 47l221 194z" />
    <glyph glyph-name="Oslash" unicode="&#xd8;" horiz-adv-x="834" 
d="M738 651l92 87l36 -38l-91 -86q66 -85 66 -200q0 -177 -124.5 -304.5t-302.5 -127.5q-136 0 -224 79l-94 -88l-34 38l93 88q-62 81 -62 194q0 178 123.5 305.5t302.5 127.5q132 0 219 -75zM183 305q0 -82 40 -141l450 425q-65 59 -166 59q-130 0 -227 -100t-97 -243z
M707 550l-451 -426q64 -64 175 -64q89 0 163.5 50t115 127.5t40.5 162.5q0 88 -43 150z" />
    <glyph glyph-name="Ugrave" unicode="&#xd9;" horiz-adv-x="704" 
d="M185 708h84l-59 -415q-5 -38 -5 -67q0 -166 155 -166q89 0 144.5 57t70.5 165l60 426h84l-61 -431q-20 -143 -101 -219t-208 -76q-112 0 -171.5 58.5t-59.5 163.5q0 23 6 71zM333 902h110l84 -144h-71z" />
    <glyph glyph-name="Uacute" unicode="&#xda;" horiz-adv-x="704" 
d="M185 708h84l-59 -415q-5 -38 -5 -67q0 -166 155 -166q89 0 144.5 57t70.5 165l60 426h84l-61 -431q-20 -143 -101 -219t-208 -76q-112 0 -171.5 58.5t-59.5 163.5q0 23 6 71zM513 902h110l-163 -144h-71z" />
    <glyph glyph-name="Ucircumflex" unicode="&#xdb;" horiz-adv-x="704" 
d="M185 708h84l-59 -415q-5 -38 -5 -67q0 -166 155 -166q89 0 144.5 57t70.5 165l60 426h84l-61 -431q-20 -143 -101 -219t-208 -76q-112 0 -171.5 58.5t-59.5 163.5q0 23 6 71zM432 902h91l92 -144h-81l-65 102l-92 -102h-76z" />
    <glyph glyph-name="Udieresis" unicode="&#xdc;" horiz-adv-x="704" 
d="M185 708h84l-59 -415q-5 -38 -5 -67q0 -166 155 -166q89 0 144.5 57t70.5 165l60 426h84l-61 -431q-20 -143 -101 -219t-208 -76q-112 0 -171.5 58.5t-59.5 163.5q0 23 6 71zM376 878q20 0 33 -13t13 -33q0 -26 -17.5 -44t-43.5 -18q-23 0 -35 13.5t-12 32.5
q0 26 18.5 44t43.5 18zM574 878q20 0 33.5 -13.5t13.5 -32.5q0 -25 -18.5 -43.5t-43.5 -18.5q-22 0 -35 13.5t-13 32.5q0 25 19 43.5t44 18.5z" />
    <glyph glyph-name="Yacute" unicode="&#xdd;" horiz-adv-x="594" 
d="M91 708h107l154 -320l250 320h101l-321 -403l-43 -305h-84l43 305zM458 902h110l-163 -144h-71z" />
    <glyph glyph-name="Thorn" unicode="&#xde;" horiz-adv-x="593" 
d="M188 708h84l-18 -125h125q110 0 167.5 -41t57.5 -119q0 -105 -72 -167.5t-191 -62.5h-142l-27 -193h-84zM243 505l-33 -234h146q70 0 113.5 37.5t43.5 99.5q0 46 -33.5 71.5t-90.5 25.5h-146z" />
    <glyph glyph-name="germandbls" unicode="&#xdf;" horiz-adv-x="593" 
d="M401 768q79 0 126 -40t47 -109q0 -66 -35.5 -116t-98.5 -71v-2q66 -7 104.5 -53.5t38.5 -120.5q0 -120 -82.5 -194t-192.5 -74q-39 0 -60 9l10 71q24 -8 50 -8q84 0 138 57t54 139q0 63 -41 101t-112 38h-26l10 66h18q66 0 105.5 41t39.5 97q0 45 -28.5 71t-78.5 26
q-67 0 -107.5 -41t-51.5 -119l-76 -536h-78l74 529q17 120 82.5 179.5t170.5 59.5z" />
    <glyph glyph-name="agrave" unicode="&#xe0;" horiz-adv-x="519" 
d="M321 480q88 0 130.5 -36.5t42.5 -113.5q0 -22 -5 -57l-26 -177q-6 -42 -6 -77v-19h-75q-1 6 -1 17q0 13 6 53h-2q-65 -82 -166 -82q-71 0 -113 32t-42 85q0 186 302 186h47q3 13 3 34q0 83 -103 83q-83 0 -146 -51l-42 51q81 72 196 72zM149 121q0 -67 93 -67
q64 0 108.5 42.5t53.5 128.5h-86q-79 0 -124 -27t-45 -77zM215 724h110l83 -144h-71z" />
    <glyph glyph-name="aacute" unicode="&#xe1;" horiz-adv-x="519" 
d="M321 480q88 0 130.5 -36.5t42.5 -113.5q0 -22 -5 -57l-26 -177q-6 -42 -6 -77v-19h-75q-1 6 -1 17q0 13 6 53h-2q-65 -82 -166 -82q-71 0 -113 32t-42 85q0 186 302 186h47q3 13 3 34q0 83 -103 83q-83 0 -146 -51l-42 51q81 72 196 72zM149 121q0 -67 93 -67
q64 0 108.5 42.5t53.5 128.5h-86q-79 0 -124 -27t-45 -77zM395 724h110l-163 -144h-72z" />
    <glyph glyph-name="acircumflex" unicode="&#xe2;" horiz-adv-x="519" 
d="M321 480q88 0 130.5 -36.5t42.5 -113.5q0 -22 -5 -57l-26 -177q-6 -42 -6 -77v-19h-75q-1 6 -1 17q0 13 6 53h-2q-65 -82 -166 -82q-71 0 -113 32t-42 85q0 186 302 186h47q3 13 3 34q0 83 -103 83q-83 0 -146 -51l-42 51q81 72 196 72zM149 121q0 -67 93 -67
q64 0 108.5 42.5t53.5 128.5h-86q-79 0 -124 -27t-45 -77zM314 724h91l91 -144h-81l-64 102l-93 -102h-76z" />
    <glyph glyph-name="atilde" unicode="&#xe3;" horiz-adv-x="519" 
d="M321 480q88 0 130.5 -36.5t42.5 -113.5q0 -22 -5 -57l-26 -177q-6 -42 -6 -77v-19h-75q-1 6 -1 17q0 13 6 53h-2q-65 -82 -166 -82q-71 0 -113 32t-42 85q0 186 302 186h47q3 13 3 34q0 83 -103 83q-83 0 -146 -51l-42 51q81 72 196 72zM149 121q0 -67 93 -67
q64 0 108.5 42.5t53.5 128.5h-86q-79 0 -124 -27t-45 -77zM475 700h48q-14 -50 -42.5 -77t-64.5 -27q-30 0 -76 20t-66 20q-35 0 -52 -44h-48q13 46 44.5 75t70.5 29q27 0 72.5 -20t59.5 -20q36 0 54 44z" />
    <glyph glyph-name="adieresis" unicode="&#xe4;" horiz-adv-x="519" 
d="M321 480q88 0 130.5 -36.5t42.5 -113.5q0 -22 -5 -57l-26 -177q-6 -42 -6 -77v-19h-75q-1 6 -1 17q0 13 6 53h-2q-65 -82 -166 -82q-71 0 -113 32t-42 85q0 186 302 186h47q3 13 3 34q0 83 -103 83q-83 0 -146 -51l-42 51q81 72 196 72zM149 121q0 -67 93 -67
q64 0 108.5 42.5t53.5 128.5h-86q-79 0 -124 -27t-45 -77zM257 700q20 0 34 -13.5t14 -33.5q0 -24 -19.5 -42.5t-43.5 -18.5q-21 0 -34 13t-13 32q0 26 19 44.5t43 18.5zM455 700q20 0 33.5 -13t13.5 -34q0 -23 -19 -42t-43 -19q-20 0 -33.5 13t-13.5 32q0 25 19 44t43 19z
" />
    <glyph glyph-name="aring" unicode="&#xe5;" horiz-adv-x="519" 
d="M321 480q88 0 130.5 -36.5t42.5 -113.5q0 -22 -5 -57l-26 -177q-6 -42 -6 -77v-19h-75q-1 6 -1 17q0 13 6 53h-2q-65 -82 -166 -82q-71 0 -113 32t-42 85q0 186 302 186h47q3 13 3 34q0 83 -103 83q-83 0 -146 -51l-42 51q81 72 196 72zM149 121q0 -67 93 -67
q64 0 108.5 42.5t53.5 128.5h-86q-79 0 -124 -27t-45 -77zM364 760q38 0 62 -23.5t24 -60.5q0 -45 -34 -79.5t-80 -34.5q-38 0 -62 24t-24 62q0 44 34.5 78t79.5 34zM292 654q0 -21 14 -35.5t36 -14.5q26 0 46 19.5t20 45.5q0 20 -15 34.5t-36 14.5q-24 0 -44.5 -20
t-20.5 -44z" />
    <glyph glyph-name="ae" unicode="&#xe6;" horiz-adv-x="852" 
d="M327 480q114 0 151 -79q87 79 177 79t141 -52t51 -141q0 -26 -7 -77h-361q-2 -22 -2 -26q0 -54 32.5 -89t83.5 -35q94 0 159 71l53 -46q-90 -97 -222 -97q-57 0 -101.5 27.5t-61.5 73.5q-68 -101 -202 -101q-69 0 -112 33t-43 84q0 83 64 127t187 44h102q0 2 1.5 17.5
t1.5 22.5q0 35 -23.5 63.5t-79.5 28.5q-72 0 -142 -46l-43 52q84 66 196 66zM488 276h277q0 2 0.5 8t0.5 12q0 45 -30 78.5t-94 33.5q-54 0 -99.5 -39.5t-54.5 -92.5zM149 121q0 -29 27.5 -45t71.5 -16q62 0 106 39t53 111h-118q-63 0 -101.5 -24t-38.5 -65z" />
    <glyph glyph-name="ccedilla" unicode="&#xe7;" horiz-adv-x="482" 
d="M356 480q111 0 170 -74l-70 -55q-37 57 -110 57q-81 0 -132.5 -61t-51.5 -144q0 -63 37.5 -103t97.5 -40q76 0 128 58l50 -55q-73 -69 -169 -73l-46 -54q27 4 36 4q30 0 50.5 -16.5t20.5 -42.5q0 -42 -36.5 -70t-93.5 -28q-58 0 -97 21l23 37q33 -16 69 -16q30 0 48.5 13
t18.5 34q0 32 -46 32q-9 0 -41 -8l-17 19l66 76q-86 7 -135 61t-49 139q0 120 81.5 204.5t197.5 84.5z" />
    <glyph glyph-name="egrave" unicode="&#xe8;" 
d="M354 480q89 0 140.5 -52t51.5 -141q0 -26 -7 -77h-378v-15q0 -58 36.5 -96.5t94.5 -38.5q94 0 159 71l53 -46q-88 -97 -221 -97q-95 0 -150.5 55.5t-55.5 148.5q0 120 81 204t196 84zM170 277v-1h294l1 19q0 52 -33 82.5t-92 30.5q-62 0 -108 -35.5t-62 -95.5zM233 724
h110l83 -144h-71z" />
    <glyph glyph-name="eacute" unicode="&#xe9;" 
d="M354 480q89 0 140.5 -52t51.5 -141q0 -26 -7 -77h-378v-15q0 -58 36.5 -96.5t94.5 -38.5q94 0 159 71l53 -46q-88 -97 -221 -97q-95 0 -150.5 55.5t-55.5 148.5q0 120 81 204t196 84zM170 277v-1h294l1 19q0 52 -33 82.5t-92 30.5q-62 0 -108 -35.5t-62 -95.5zM413 724
h110l-163 -144h-72z" />
    <glyph glyph-name="ecircumflex" unicode="&#xea;" 
d="M354 480q89 0 140.5 -52t51.5 -141q0 -26 -7 -77h-378v-15q0 -58 36.5 -96.5t94.5 -38.5q94 0 159 71l53 -46q-88 -97 -221 -97q-95 0 -150.5 55.5t-55.5 148.5q0 120 81 204t196 84zM170 277v-1h294l1 19q0 52 -33 82.5t-92 30.5q-62 0 -108 -35.5t-62 -95.5zM332 724
h91l91 -144h-81l-64 102l-93 -102h-76z" />
    <glyph glyph-name="edieresis" unicode="&#xeb;" 
d="M354 480q89 0 140.5 -52t51.5 -141q0 -26 -7 -77h-378v-15q0 -58 36.5 -96.5t94.5 -38.5q94 0 159 71l53 -46q-88 -97 -221 -97q-95 0 -150.5 55.5t-55.5 148.5q0 120 81 204t196 84zM170 277v-1h294l1 19q0 52 -33 82.5t-92 30.5q-62 0 -108 -35.5t-62 -95.5zM275 700
q20 0 34 -13.5t14 -33.5q0 -24 -19.5 -42.5t-43.5 -18.5q-21 0 -34 13t-13 32q0 26 19 44.5t43 18.5zM473 700q20 0 33.5 -13t13.5 -34q0 -23 -19 -42t-43 -19q-20 0 -33.5 13t-13.5 32q0 25 19 44t43 19z" />
    <glyph glyph-name="igrave" unicode="&#xec;" horiz-adv-x="240" 
d="M147 468h78l-66 -468h-78zM75 724h110l83 -144h-71z" />
    <glyph glyph-name="iacute" unicode="&#xed;" horiz-adv-x="240" 
d="M147 468h78l-66 -468h-78zM255 724h110l-163 -144h-72z" />
    <glyph glyph-name="icircumflex" unicode="&#xee;" horiz-adv-x="240" 
d="M147 468h78l-66 -468h-78zM174 724h91l91 -144h-81l-64 102l-93 -102h-76z" />
    <glyph glyph-name="idieresis" unicode="&#xef;" horiz-adv-x="240" 
d="M147 468h78l-66 -468h-78zM117 700q20 0 34 -13.5t14 -33.5q0 -24 -19.5 -42.5t-43.5 -18.5q-21 0 -34 13t-13 32q0 26 19 44.5t43 18.5zM315 700q20 0 33.5 -13t13.5 -34q0 -23 -19 -42t-43 -19q-20 0 -33.5 13t-13.5 32q0 25 19 44t43 19z" />
    <glyph glyph-name="eth" unicode="&#xf0;" horiz-adv-x="594" 
d="M559 714l-119 -56q79 -85 114 -162.5t35 -163.5q0 -152 -79.5 -248t-214.5 -96q-97 0 -157.5 56t-60.5 148q0 128 86.5 208t200.5 80q81 0 124 -49l1 2q-29 76 -124 190l-115 -54l-36 41l113 53q-26 30 -77 76l74 40q44 -40 80 -80l115 54zM162 203q0 -64 39 -103.5
t104 -39.5q82 0 137.5 60.5t55.5 141.5q0 66 -39.5 106t-105.5 40q-80 0 -135.5 -59.5t-55.5 -145.5z" />
    <glyph glyph-name="ntilde" unicode="&#xf1;" 
d="M372 480q74 0 114 -38t40 -111q0 -25 -4 -49l-40 -282h-78l37 267q4 26 4 46q0 95 -91 95q-145 0 -172 -193l-30 -215h-78l50 353q2 15 5.5 56t6.5 59h74l-9 -77h2q24 40 70 64.5t99 24.5zM493 700h48q-14 -50 -42.5 -77t-64.5 -27q-30 0 -76 20t-66 20q-35 0 -52 -44
h-48q13 46 44.5 75t70.5 29q27 0 72.5 -20t59.5 -20q36 0 54 44z" />
    <glyph glyph-name="ograve" unicode="&#xf2;" horiz-adv-x="594" 
d="M364 480q98 0 158.5 -57t60.5 -151q0 -115 -83 -199.5t-205 -84.5q-97 0 -157.5 56t-60.5 148q0 122 83 205t204 83zM162 203q0 -64 39 -103.5t104 -39.5q82 0 137.5 60.5t55.5 141.5q0 66 -39.5 106t-105.5 40q-82 0 -136.5 -60.5t-54.5 -144.5zM252 724h110l83 -144
h-71z" />
    <glyph glyph-name="oacute" unicode="&#xf3;" horiz-adv-x="594" 
d="M364 480q98 0 158.5 -57t60.5 -151q0 -115 -83 -199.5t-205 -84.5q-97 0 -157.5 56t-60.5 148q0 122 83 205t204 83zM162 203q0 -64 39 -103.5t104 -39.5q82 0 137.5 60.5t55.5 141.5q0 66 -39.5 106t-105.5 40q-82 0 -136.5 -60.5t-54.5 -144.5zM432 724h110l-163 -144
h-72z" />
    <glyph glyph-name="ocircumflex" unicode="&#xf4;" horiz-adv-x="594" 
d="M364 480q98 0 158.5 -57t60.5 -151q0 -115 -83 -199.5t-205 -84.5q-97 0 -157.5 56t-60.5 148q0 122 83 205t204 83zM162 203q0 -64 39 -103.5t104 -39.5q82 0 137.5 60.5t55.5 141.5q0 66 -39.5 106t-105.5 40q-82 0 -136.5 -60.5t-54.5 -144.5zM351 724h91l91 -144h-81
l-64 102l-93 -102h-76z" />
    <glyph glyph-name="otilde" unicode="&#xf5;" horiz-adv-x="594" 
d="M364 480q98 0 158.5 -57t60.5 -151q0 -115 -83 -199.5t-205 -84.5q-97 0 -157.5 56t-60.5 148q0 122 83 205t204 83zM162 203q0 -64 39 -103.5t104 -39.5q82 0 137.5 60.5t55.5 141.5q0 66 -39.5 106t-105.5 40q-82 0 -136.5 -60.5t-54.5 -144.5zM512 700h48
q-14 -50 -42.5 -77t-64.5 -27q-30 0 -76 20t-66 20q-35 0 -52 -44h-48q13 46 44.5 75t70.5 29q27 0 72.5 -20t59.5 -20q36 0 54 44z" />
    <glyph glyph-name="odieresis" unicode="&#xf6;" horiz-adv-x="594" 
d="M364 480q98 0 158.5 -57t60.5 -151q0 -115 -83 -199.5t-205 -84.5q-97 0 -157.5 56t-60.5 148q0 122 83 205t204 83zM162 203q0 -64 39 -103.5t104 -39.5q82 0 137.5 60.5t55.5 141.5q0 66 -39.5 106t-105.5 40q-82 0 -136.5 -60.5t-54.5 -144.5zM294 700q20 0 34 -13.5
t14 -33.5q0 -24 -19.5 -42.5t-43.5 -18.5q-21 0 -34 13t-13 32q0 26 19 44.5t43 18.5zM492 700q20 0 33.5 -13t13.5 -34q0 -23 -18.5 -42t-43.5 -19q-21 0 -34 13t-13 32q0 25 19 44t43 19z" />
    <glyph glyph-name="divide" unicode="&#xf7;" horiz-adv-x="666" 
d="M407 525q21 0 35.5 -14t14.5 -36q0 -24 -20 -44t-46 -20q-21 0 -35.5 14.5t-14.5 33.5q0 26 20 46t46 20zM119 336h522l-9 -66h-522zM360 195q21 0 35.5 -14.5t14.5 -34.5q0 -26 -19.5 -45.5t-46.5 -19.5q-21 0 -35.5 14.5t-14.5 35.5q0 24 20 44t46 20z" />
    <glyph glyph-name="oslash" unicode="&#xf8;" horiz-adv-x="594" 
d="M516 429l77 69l29 -32l-76 -69q37 -51 37 -123q0 -118 -83 -202t-205 -84q-92 0 -150 52l-78 -70l-30 32l78 70q-38 50 -38 121q0 127 86 207t201 80q94 0 152 -51zM162 204q0 -42 18 -74l273 243q-35 35 -104 35q-77 0 -132 -60t-55 -144zM480 338l-274 -243
q38 -35 101 -35q84 0 137.5 62.5t53.5 141.5q0 44 -18 74z" />
    <glyph glyph-name="ugrave" unicode="&#xf9;" 
d="M140 468h78l-37 -261q-5 -31 -5 -52q0 -95 92 -95q145 0 171 188l31 220h78l-50 -357l-12 -111h-74l9 77h-2q-23 -39 -70 -64t-99 -25q-75 0 -114.5 38t-39.5 111q0 9 3 42zM233 724h110l83 -144h-71z" />
    <glyph glyph-name="uacute" unicode="&#xfa;" 
d="M140 468h78l-37 -261q-5 -31 -5 -52q0 -95 92 -95q145 0 171 188l31 220h78l-50 -357l-12 -111h-74l9 77h-2q-23 -39 -70 -64t-99 -25q-75 0 -114.5 38t-39.5 111q0 9 3 42zM413 724h110l-163 -144h-72z" />
    <glyph glyph-name="ucircumflex" unicode="&#xfb;" 
d="M140 468h78l-37 -261q-5 -31 -5 -52q0 -95 92 -95q145 0 171 188l31 220h78l-50 -357l-12 -111h-74l9 77h-2q-23 -39 -70 -64t-99 -25q-75 0 -114.5 38t-39.5 111q0 9 3 42zM332 724h91l91 -144h-81l-64 102l-93 -102h-76z" />
    <glyph glyph-name="udieresis" unicode="&#xfc;" 
d="M140 468h78l-37 -261q-5 -31 -5 -52q0 -95 92 -95q145 0 171 188l31 220h78l-50 -357l-12 -111h-74l9 77h-2q-23 -39 -70 -64t-99 -25q-75 0 -114.5 38t-39.5 111q0 9 3 42zM275 700q20 0 34 -13.5t14 -33.5q0 -24 -19.5 -42.5t-43.5 -18.5q-21 0 -34 13t-13 32
q0 26 19 44.5t43 18.5zM473 700q20 0 33.5 -13t13.5 -34q0 -23 -19 -42t-43 -19q-20 0 -33.5 13t-13.5 32q0 25 19 44t43 19z" />
    <glyph glyph-name="yacute" unicode="&#xfd;" horiz-adv-x="482" 
d="M76 468h91l93 -367h2l191 367h85l-300 -563q-43 -81 -80.5 -113t-101.5 -32q-42 0 -68 12l20 68q24 -8 53 -8q58 0 89 60q32 58 54 105zM376 724h110l-163 -144h-72z" />
    <glyph glyph-name="thorn" unicode="&#xfe;" horiz-adv-x="611" 
d="M176 756h78l-50 -356h2q80 80 179 80q96 0 155.5 -56.5t59.5 -149.5q0 -119 -82.5 -202.5t-189.5 -83.5q-59 0 -103.5 26t-62.5 69h-2l-44 -311h-78zM179 203q0 -64 39 -103.5t104 -39.5q83 0 138 60.5t55 141.5q0 67 -38.5 106.5t-106.5 39.5q-80 0 -135.5 -59.5
t-55.5 -145.5z" />
    <glyph glyph-name="ydieresis" unicode="&#xff;" horiz-adv-x="482" 
d="M76 468h91l93 -367h2l191 367h85l-300 -563q-43 -81 -80.5 -113t-101.5 -32q-42 0 -68 12l20 68q24 -8 53 -8q58 0 89 60q32 58 54 105zM238 700q20 0 34 -13.5t14 -33.5q0 -24 -19.5 -42.5t-43.5 -18.5q-21 0 -34 13t-13 32q0 26 19 44.5t43 18.5zM436 700
q20 0 33.5 -13t13.5 -34q0 -23 -18.5 -42t-43.5 -19q-21 0 -34 13t-13 32q0 25 19 44t43 19z" />
    <glyph glyph-name="Amacron" unicode="&#x100;" horiz-adv-x="704" 
d="M418 708h79l201 -708h-98l-48 174h-354l-97 -174h-95zM438 600l-196 -348h289l-91 348h-2zM337 854h276l-9 -60h-276z" />
    <glyph glyph-name="amacron" unicode="&#x101;" horiz-adv-x="519" 
d="M321 480q88 0 130.5 -36.5t42.5 -113.5q0 -22 -5 -57l-26 -177q-6 -42 -6 -77v-19h-75q-1 6 -1 17q0 13 6 53h-2q-65 -82 -166 -82q-71 0 -113 32t-42 85q0 186 302 186h47q3 13 3 34q0 83 -103 83q-83 0 -146 -51l-42 51q81 72 196 72zM149 121q0 -67 93 -67
q64 0 108.5 42.5t53.5 128.5h-86q-79 0 -124 -27t-45 -77zM216 660h276l-9 -60h-276z" />
    <glyph glyph-name="Abreve" unicode="&#x102;" horiz-adv-x="704" 
d="M418 708h79l201 -708h-98l-48 174h-354l-97 -174h-95zM438 600l-196 -348h289l-91 348h-2zM328 896h49q2 -37 26.5 -57.5t66.5 -20.5q45 0 72 18t44 60h48q-15 -63 -60 -97.5t-112 -34.5q-65 0 -100 32.5t-35 82.5z" />
    <glyph glyph-name="abreve" unicode="&#x103;" horiz-adv-x="519" 
d="M321 480q88 0 130.5 -36.5t42.5 -113.5q0 -22 -5 -57l-26 -177q-6 -42 -6 -77v-19h-75q-1 6 -1 17q0 13 6 53h-2q-65 -82 -166 -82q-71 0 -113 32t-42 85q0 186 302 186h47q3 13 3 34q0 83 -103 83q-83 0 -146 -51l-42 51q81 72 196 72zM149 121q0 -67 93 -67
q64 0 108.5 42.5t53.5 128.5h-86q-79 0 -124 -27t-45 -77zM195 702h49q2 -37 26.5 -57.5t66.5 -20.5q45 0 72 18t44 60h48q-15 -63 -60 -97.5t-112 -34.5q-65 0 -100 32.5t-35 82.5z" />
    <glyph glyph-name="Aogonek" unicode="&#x104;" horiz-adv-x="704" 
d="M417 708h79l202 -708h-47q-37 -23 -65 -58.5t-28 -64.5q0 -38 39 -38q30 0 56 20l15 -41q-42 -39 -98 -39q-36 0 -59 21.5t-23 52.5q0 36 31 76.5t81 70.5l-48 174h-354l-97 -174h-95zM438 600l-196 -348h289l-91 348h-2z" />
    <glyph glyph-name="aogonek" unicode="&#x105;" horiz-adv-x="519" 
d="M320 480q89 0 131 -35.5t42 -115.5q0 -25 -5 -55l-26 -183q-5 -35 -5 -72v-19h-23q-40 -24 -66.5 -59t-26.5 -64q0 -38 38 -38q31 0 57 20l15 -41q-45 -39 -98 -39q-36 0 -59 21.5t-23 52.5q0 36 30.5 76.5t80.5 70.5q-1 6 -1 17q0 25 6 53h-3q-63 -82 -166 -82
q-70 0 -112.5 32t-42.5 85q0 186 302 186h47q4 17 4 34q0 83 -103 83q-86 0 -146 -51l-42 51q81 72 195 72zM148 121q0 -67 93 -67q73 0 114.5 49t47.5 122h-86q-80 0 -124.5 -26.5t-44.5 -77.5z" />
    <glyph glyph-name="Cacute" unicode="&#x106;" horiz-adv-x="704" 
d="M509 726q164 0 234 -111l-80 -53q-52 86 -173 86q-118 0 -212 -104t-94 -231q0 -113 62.5 -183t168.5 -70q129 0 219 99l56 -53q-109 -124 -292 -124q-133 0 -219 89t-86 223q0 179 123.5 305.5t292.5 126.5zM550 902h110l-163 -144h-71z" />
    <glyph glyph-name="cacute" unicode="&#x107;" horiz-adv-x="482" 
d="M356 480q111 0 170 -74l-70 -55q-37 57 -110 57q-83 0 -133.5 -60.5t-50.5 -144.5q0 -63 37.5 -103t97.5 -40q76 0 128 58l50 -55q-75 -75 -188 -75q-95 0 -152.5 55t-57.5 149q0 121 80.5 204.5t198.5 83.5zM430 708h110l-163 -144h-72z" />
    <glyph glyph-name="Ccircumflex" unicode="&#x108;" horiz-adv-x="704" 
d="M509 726q164 0 234 -111l-80 -53q-52 86 -173 86q-118 0 -212 -104t-94 -231q0 -113 62.5 -183t168.5 -70q129 0 219 99l56 -53q-109 -124 -292 -124q-133 0 -219 89t-86 223q0 179 123.5 305.5t292.5 126.5zM497 902h91l92 -144h-81l-65 102l-92 -102h-76z" />
    <glyph glyph-name="ccircumflex" unicode="&#x109;" horiz-adv-x="482" 
d="M356 480q111 0 170 -74l-70 -55q-37 57 -110 57q-83 0 -133.5 -60.5t-50.5 -144.5q0 -63 37.5 -103t97.5 -40q76 0 128 58l50 -55q-75 -75 -188 -75q-95 0 -152.5 55t-57.5 149q0 121 80.5 204.5t198.5 83.5zM338 708h91l91 -144h-81l-64 102l-93 -102h-76z" />
    <glyph glyph-name="Cdotaccent" unicode="&#x10a;" horiz-adv-x="704" 
d="M509 726q164 0 234 -111l-80 -53q-52 86 -173 86q-118 0 -212 -104t-94 -231q0 -113 62.5 -183t168.5 -70q129 0 219 99l56 -53q-109 -124 -292 -124q-133 0 -219 89t-86 223q0 179 123.5 305.5t292.5 126.5zM520 878q20 0 33.5 -13t13.5 -33q0 -26 -18.5 -44t-43.5 -18
q-22 0 -34.5 13.5t-12.5 31.5q0 26 18.5 44.5t43.5 18.5z" />
    <glyph glyph-name="cdotaccent" unicode="&#x10b;" horiz-adv-x="482" 
d="M356 480q111 0 170 -74l-70 -55q-37 57 -110 57q-83 0 -133.5 -60.5t-50.5 -144.5q0 -63 37.5 -103t97.5 -40q76 0 128 58l50 -55q-75 -75 -188 -75q-95 0 -152.5 55t-57.5 149q0 121 80.5 204.5t198.5 83.5zM383 684q20 0 33.5 -13.5t13.5 -33.5q0 -25 -18.5 -43
t-44.5 -18q-22 0 -34.5 13.5t-12.5 32.5q0 25 19 43.5t44 18.5z" />
    <glyph glyph-name="Ccaron" unicode="&#x10c;" horiz-adv-x="704" 
d="M509 726q164 0 234 -111l-80 -53q-52 86 -173 86q-118 0 -212 -104t-94 -231q0 -113 62.5 -183t168.5 -70q129 0 219 99l56 -53q-109 -124 -292 -124q-133 0 -219 89t-86 223q0 179 123.5 305.5t292.5 126.5zM387 902h81l64 -102l91 102h76l-130 -144h-91z" />
    <glyph glyph-name="ccaron" unicode="&#x10d;" horiz-adv-x="482" 
d="M356 480q111 0 170 -74l-70 -55q-37 57 -110 57q-83 0 -133.5 -60.5t-50.5 -144.5q0 -63 37.5 -103t97.5 -40q76 0 128 58l50 -55q-75 -75 -188 -75q-95 0 -152.5 55t-57.5 149q0 121 80.5 204.5t198.5 83.5zM233 708h81l64 -102l91 102h76l-130 -144h-91z" />
    <glyph glyph-name="Dcaron" unicode="&#x10e;" horiz-adv-x="741" 
d="M175 708h271q133 0 218 -82.5t85 -209.5q0 -179 -120.5 -297.5t-282.5 -118.5h-271zM248 630l-78 -552h165q150 0 236.5 92.5t86.5 240.5q0 106 -65 162.5t-180 56.5h-165zM277 902h81l64 -102l91 102h76l-130 -144h-91z" />
    <glyph glyph-name="dcaron" unicode="&#x10f;" horiz-adv-x="611" 
d="M569 756h78l-106 -756h-78l12 83h-2q-31 -43 -84 -69t-110 -26q-88 0 -145 58t-57 149q0 115 80 200t203 85q98 0 157 -80h2zM162 203q0 -64 39 -103.5t104 -39.5q82 0 137.5 60t55.5 142q0 66 -39.5 106t-105.5 40q-82 0 -136.5 -60.5t-54.5 -144.5zM771 708h86
l-97 -177h-66z" />
    <glyph glyph-name="Dcroat" unicode="&#x110;" horiz-adv-x="741" 
d="M175 708h269q129 0 217 -80t88 -212q0 -172 -116.5 -294t-291.5 -122h-266l47 336h-72l11 66h71zM248 630l-32 -228h252l-10 -66h-252l-36 -258h163q150 0 237.5 91.5t87.5 241.5q0 106 -65 162.5t-180 56.5h-165z" />
    <glyph glyph-name="dcroat" unicode="&#x111;" horiz-adv-x="611" 
d="M569 756h78l-18 -126h72l-8 -60h-72l-80 -570h-78l11 83h-2q-30 -43 -82 -69t-111 -26q-91 0 -147 58.5t-56 152.5q0 110 81 195.5t196 85.5q108 0 164 -80h2l24 170h-126l8 60h126zM161 206q0 -66 39.5 -106t104.5 -40q82 0 137 59.5t55 142.5q0 66 -39 106t-105 40
q-78 0 -135 -58t-57 -144z" />
    <glyph glyph-name="Emacron" unicode="&#x112;" horiz-adv-x="593" 
d="M188 708h445l-11 -78h-361l-32 -222h337l-11 -78h-337l-35 -252h379l-11 -78h-463zM300 854h276l-9 -60h-276z" />
    <glyph glyph-name="emacron" unicode="&#x113;" 
d="M354 480q89 0 140.5 -52t51.5 -141q0 -26 -7 -77h-378v-15q0 -58 36.5 -96.5t94.5 -38.5q94 0 159 71l53 -46q-88 -97 -221 -97q-95 0 -150.5 55.5t-55.5 148.5q0 120 81 204t196 84zM170 277v-1h294l1 19q0 52 -33 82.5t-92 30.5q-62 0 -108 -35.5t-62 -95.5zM237 660
h276l-9 -60h-276z" />
    <glyph glyph-name="Ebreve" unicode="&#x114;" horiz-adv-x="593" 
d="M188 708h445l-11 -78h-361l-32 -222h337l-11 -78h-337l-35 -252h379l-11 -78h-463zM292 896h49q2 -37 26.5 -57.5t66.5 -20.5q45 0 72 18t44 60h48q-15 -63 -60 -97.5t-112 -34.5q-65 0 -100 32.5t-35 82.5z" />
    <glyph glyph-name="ebreve" unicode="&#x115;" 
d="M354 480q89 0 140.5 -52t51.5 -141q0 -26 -7 -77h-378v-15q0 -58 36.5 -96.5t94.5 -38.5q94 0 159 71l53 -46q-88 -97 -221 -97q-95 0 -150.5 55.5t-55.5 148.5q0 120 81 204t196 84zM170 277v-1h294l1 19q0 52 -33 82.5t-92 30.5q-62 0 -108 -35.5t-62 -95.5zM227 702
h49q2 -37 26.5 -57.5t66.5 -20.5q45 0 72 18t44 60h48q-15 -63 -60 -97.5t-112 -34.5q-65 0 -100 32.5t-35 82.5z" />
    <glyph glyph-name="Edotaccent" unicode="&#x116;" horiz-adv-x="593" 
d="M188 708h445l-11 -78h-361l-32 -222h337l-11 -78h-337l-35 -252h379l-11 -78h-463zM442 878q20 0 33.5 -13t13.5 -33q0 -26 -18.5 -44t-43.5 -18q-22 0 -34.5 13.5t-12.5 31.5q0 26 18.5 44.5t43.5 18.5z" />
    <glyph glyph-name="edotaccent" unicode="&#x117;" 
d="M354 480q89 0 140.5 -52t51.5 -141q0 -26 -7 -77h-378v-15q0 -58 36.5 -96.5t94.5 -38.5q94 0 159 71l53 -46q-88 -97 -221 -97q-95 0 -150.5 55.5t-55.5 148.5q0 120 81 204t196 84zM170 277v-1h294l1 19q0 52 -33 82.5t-92 30.5q-62 0 -108 -35.5t-62 -95.5zM378 684
q20 0 33.5 -13.5t13.5 -33.5q0 -25 -18.5 -43t-44.5 -18q-22 0 -34.5 13.5t-12.5 32.5q0 25 19 43.5t44 18.5z" />
    <glyph glyph-name="Eogonek" unicode="&#x118;" horiz-adv-x="593" 
d="M187 708h445l-11 -78h-361l-31 -222h337l-11 -78h-337l-36 -252h379l-10 -78h-52q-40 -23 -67 -58.5t-27 -64.5q0 -16 10 -27t30 -11q30 0 56 20l15 -41q-45 -39 -98 -39q-36 0 -59 21.5t-23 52.5q0 36 31.5 76.5t80.5 70.5h-360z" />
    <glyph glyph-name="eogonek" unicode="&#x119;" 
d="M354 480q90 0 140.5 -52t50.5 -143q0 -36 -7 -75h-378v-15q0 -56 37 -95.5t95 -39.5q92 0 159 71l52 -46q-71 -79 -166 -93q-81 -66 -81 -115q0 -16 10 -27t29 -11q31 0 57 20l15 -41q-45 -39 -98 -39q-36 0 -59 21.5t-23 52.5q0 32 25.5 69.5t67.5 65.5q-92 0 -148 55.5
t-56 147.5q0 126 82.5 207.5t195.5 81.5zM169 276h294q1 11 1 22q0 51 -32.5 80.5t-91.5 29.5q-61 0 -107 -34t-64 -98z" />
    <glyph glyph-name="Ecaron" unicode="&#x11a;" horiz-adv-x="593" 
d="M188 708h445l-11 -78h-361l-32 -222h337l-11 -78h-337l-35 -252h379l-11 -78h-463zM291 902h81l64 -102l91 102h76l-130 -144h-91z" />
    <glyph glyph-name="ecaron" unicode="&#x11b;" 
d="M354 480q89 0 140.5 -52t51.5 -141q0 -26 -7 -77h-378v-15q0 -58 36.5 -96.5t94.5 -38.5q94 0 159 71l53 -46q-88 -97 -221 -97q-95 0 -150.5 55.5t-55.5 148.5q0 120 81 204t196 84zM170 277v-1h294l1 19q0 52 -33 82.5t-92 30.5q-62 0 -108 -35.5t-62 -95.5zM225 708
h81l64 -102l91 102h76l-130 -144h-91z" />
    <glyph glyph-name="Gcircumflex" unicode="&#x11c;" horiz-adv-x="778" 
d="M530 726q160 0 237 -93l-72 -66q-66 81 -190 81q-130 0 -226 -102t-96 -240q0 -111 70.5 -178.5t184.5 -67.5q95 0 182 41l31 217h-163l11 78h247l-49 -348q-131 -66 -279 -66q-145 0 -235 86t-90 224q0 181 127 307.5t310 126.5zM495 902h91l92 -144h-81l-65 102
l-92 -102h-76z" />
    <glyph glyph-name="gcircumflex" unicode="&#x11d;" horiz-adv-x="611" 
d="M362 480q54 0 96 -25t58 -67h2l11 80h78l-62 -441q-19 -132 -94 -199.5t-199 -67.5q-139 0 -217 89l65 64q36 -44 72.5 -62.5t95.5 -18.5q87 0 137 51t61 137l8 61h-2q-31 -41 -78 -64t-100 -23q-96 0 -156.5 55t-60.5 147q0 50 17.5 99t51 91t90 68t126.5 26zM162 208
q0 -61 40.5 -101.5t102.5 -40.5q82 0 137.5 58t55.5 141q0 66 -39.5 104.5t-106.5 38.5q-79 0 -134.5 -60t-55.5 -140zM354 708h91l91 -144h-81l-64 102l-93 -102h-76z" />
    <glyph glyph-name="Gbreve" unicode="&#x11e;" horiz-adv-x="778" 
d="M530 726q160 0 237 -93l-72 -66q-66 81 -190 81q-130 0 -226 -102t-96 -240q0 -111 70.5 -178.5t184.5 -67.5q95 0 182 41l31 217h-163l11 78h247l-49 -348q-131 -66 -279 -66q-145 0 -235 86t-90 224q0 181 127 307.5t310 126.5zM387 896h49q2 -37 26.5 -57.5
t66.5 -20.5q45 0 72 18t44 60h48q-15 -63 -60 -97.5t-112 -34.5q-65 0 -100 32.5t-35 82.5z" />
    <glyph glyph-name="gbreve" unicode="&#x11f;" horiz-adv-x="611" 
d="M362 480q54 0 96 -25t58 -67h2l11 80h78l-62 -441q-19 -132 -94 -199.5t-199 -67.5q-139 0 -217 89l65 64q36 -44 72.5 -62.5t95.5 -18.5q87 0 137 51t61 137l8 61h-2q-31 -41 -78 -64t-100 -23q-96 0 -156.5 55t-60.5 147q0 50 17.5 99t51 91t90 68t126.5 26zM162 208
q0 -61 40.5 -101.5t102.5 -40.5q82 0 137.5 58t55.5 141q0 66 -39.5 104.5t-106.5 38.5q-79 0 -134.5 -60t-55.5 -140zM245 702h49q2 -37 26.5 -57.5t66.5 -20.5q45 0 72 18t44 60h48q-15 -63 -60 -97.5t-112 -34.5q-65 0 -100 32.5t-35 82.5z" />
    <glyph glyph-name="Gdotaccent" unicode="&#x120;" horiz-adv-x="778" 
d="M530 726q160 0 237 -93l-72 -66q-66 81 -190 81q-130 0 -226 -102t-96 -240q0 -111 70.5 -178.5t184.5 -67.5q95 0 182 41l31 217h-163l11 78h247l-49 -348q-131 -66 -279 -66q-145 0 -235 86t-90 224q0 181 127 307.5t310 126.5zM538 878q20 0 33.5 -13t13.5 -33
q0 -26 -18.5 -44t-43.5 -18q-22 0 -34.5 13.5t-12.5 31.5q0 26 18.5 44.5t43.5 18.5z" />
    <glyph glyph-name="gdotaccent" unicode="&#x121;" horiz-adv-x="611" 
d="M362 480q54 0 96 -25t58 -67h2l11 80h78l-62 -441q-19 -132 -94 -199.5t-199 -67.5q-139 0 -217 89l65 64q36 -44 72.5 -62.5t95.5 -18.5q87 0 137 51t61 137l8 61h-2q-31 -41 -78 -64t-100 -23q-96 0 -156.5 55t-60.5 147q0 50 17.5 99t51 91t90 68t126.5 26zM162 208
q0 -61 40.5 -101.5t102.5 -40.5q82 0 137.5 58t55.5 141q0 66 -39.5 104.5t-106.5 38.5q-79 0 -134.5 -60t-55.5 -140zM396 684q20 0 33.5 -13.5t13.5 -33.5q0 -25 -18.5 -43t-44.5 -18q-22 0 -34.5 13.5t-12.5 32.5q0 25 19 43.5t44 18.5z" />
    <glyph glyph-name="Gcommaaccent" unicode="&#x122;" horiz-adv-x="778" 
d="M530 726q160 0 237 -93l-72 -66q-66 81 -190 81q-130 0 -226 -102t-96 -240q0 -111 70.5 -178.5t184.5 -67.5q95 0 182 41l31 217h-163l11 78h247l-49 -348q-131 -66 -279 -66q-145 0 -235 86t-90 224q0 181 127 307.5t310 126.5zM374 -61h86l-96 -167h-66z" />
    <glyph glyph-name="gcommaaccent" unicode="&#x123;" horiz-adv-x="611" 
d="M362 480q54 0 96 -25t58 -67h2l11 80h78l-62 -441q-19 -132 -94 -199.5t-199 -67.5q-139 0 -217 89l65 64q36 -44 72.5 -62.5t95.5 -18.5q87 0 137 51t61 137l8 61h-2q-31 -41 -78 -64t-100 -23q-96 0 -156.5 55t-60.5 147q0 50 17.5 99t51 91t90 68t126.5 26zM162 208
q0 -61 40.5 -101.5t102.5 -40.5q82 0 137.5 58t55.5 141q0 66 -39.5 104.5t-106.5 38.5q-79 0 -134.5 -60t-55.5 -140zM438 751h66l-75 -167h-86z" />
    <glyph glyph-name="Hcircumflex" unicode="&#x124;" horiz-adv-x="722" 
d="M188 708h84l-43 -300h378l43 300h84l-100 -708h-84l46 330h-378l-46 -330h-84zM442 902h91l92 -144h-81l-65 102l-92 -102h-76z" />
    <glyph glyph-name="hcircumflex" unicode="&#x125;" 
d="M180 756h78l-49 -353h2q24 34 68.5 55.5t92.5 21.5q75 0 114.5 -38t39.5 -111q0 -19 -4 -45l-40 -286h-78l38 276q3 24 3 37q0 95 -91 95q-144 0 -171 -187l-31 -221h-78zM341 959h91l92 -144h-81l-65 102l-92 -102h-76z" />
    <glyph glyph-name="Hbar" unicode="&#x126;" horiz-adv-x="722" 
d="M187 708h84l-12 -88h378l12 88h84l-99 -708h-84l46 330h-378l-46 -330h-84zM250 560l-21 -152h378l21 152h-378z" />
    <glyph glyph-name="hbar" unicode="&#x127;" 
d="M180 756h78l-18 -126h126l-8 -60h-126l-24 -167h2q28 35 71 56t90 21q75 0 114.5 -38t39.5 -111q0 -23 -4 -49l-39 -282h-78l38 275q3 24 3 40q0 93 -91 93q-63 0 -109.5 -41.5t-60.5 -139.5l-32 -227h-78l80 570h-72l8 60h72z" />
    <glyph glyph-name="Itilde" unicode="&#x128;" horiz-adv-x="260" 
d="M188 708h84l-100 -708h-84zM373 878h48q-15 -49 -43.5 -76.5t-64.5 -27.5q-29 0 -75.5 20t-64.5 20q-30 0 -53 -44h-48q14 48 44.5 76t69.5 28q29 0 73.5 -20t59.5 -20q34 0 54 44z" />
    <glyph glyph-name="itilde" unicode="&#x129;" horiz-adv-x="240" 
d="M147 468h78l-66 -468h-78zM337 684h48q-14 -50 -42.5 -77t-64.5 -27q-30 0 -76 20t-66 20q-35 0 -52 -44h-48q13 46 44.5 75t70.5 29q27 0 72.5 -20t59.5 -20q36 0 54 44z" />
    <glyph glyph-name="Imacron" unicode="&#x12a;" horiz-adv-x="260" 
d="M188 708h84l-100 -708h-84zM111 854h276l-9 -60h-276z" />
    <glyph glyph-name="imacron" unicode="&#x12b;" horiz-adv-x="240" 
d="M147 468h78l-66 -468h-78zM76 660h276l-9 -60h-276z" />
    <glyph glyph-name="Iogonek" unicode="&#x12e;" horiz-adv-x="260" 
d="M187 708h84l-99 -708h-34q-41 -26 -67 -61t-26 -62q0 -16 10 -27t29 -11q31 0 57 20l15 -42q-49 -38 -98 -38q-36 0 -58.5 21t-22.5 53q0 36 30.5 76.5t80.5 70.5z" />
    <glyph glyph-name="iogonek" unicode="&#x12f;" horiz-adv-x="240" 
d="M219 708q21 0 35.5 -14t14.5 -35q0 -27 -19.5 -46t-46.5 -19q-23 0 -36.5 14t-13.5 33q0 27 20 47t46 20zM146 468h78l-65 -468h-15q-40 -24 -67 -59t-27 -64q0 -16 10 -27t29 -11q31 0 57 20l15 -41q-45 -39 -98 -39q-35 0 -58 21.5t-23 52.5q0 36 30.5 76.5t80.5 70.5
h-12z" />
    <glyph glyph-name="Idotaccent" unicode="&#x130;" horiz-adv-x="260" 
d="M188 708h84l-100 -708h-84zM255 878q20 0 33.5 -13t13.5 -33q0 -26 -18.5 -44t-43.5 -18q-22 0 -34.5 13.5t-12.5 31.5q0 26 18.5 44.5t43.5 18.5z" />
    <glyph glyph-name="dotlessi" unicode="&#x131;" horiz-adv-x="240" 
d="M147 468h78l-66 -468h-78z" />
    <glyph glyph-name="Jcircumflex" unicode="&#x134;" horiz-adv-x="482" 
d="M410 708h84l-71 -510q-15 -112 -79.5 -164t-154.5 -52q-78 0 -121 39.5t-46 112.5l86 17q2 -43 26 -67t67 -24q118 0 138 147zM429 902h91l92 -144h-81l-65 102l-92 -102h-76z" />
    <glyph glyph-name="jcircumflex" unicode="&#x135;" horiz-adv-x="240" 
d="M147 468h78l-80 -567q-10 -68 -51.5 -104.5t-107.5 -36.5q-31 0 -52 10l18 68q19 -6 37 -6q34 0 54 22t28 77zM175 708h91l91 -144h-81l-64 102l-93 -102h-76z" />
    <glyph glyph-name="Kcommaaccent" unicode="&#x136;" horiz-adv-x="630" 
d="M188 708h84l-43 -306h12l365 306h121l-396 -323l313 -385h-123l-286 360h-12l-51 -360h-84zM279 -61h86l-96 -167h-66z" />
    <glyph glyph-name="kcommaaccent" unicode="&#x137;" horiz-adv-x="500" 
d="M180 756h78l-69 -494l242 206h111l-256 -213l213 -255h-115l-197 246l-35 -246h-78zM209 -61h86l-96 -167h-66z" />
    <glyph glyph-name="Lacute" unicode="&#x139;" horiz-adv-x="500" 
d="M188 708h84l-89 -630h324l-11 -78h-408zM291 902h110l-163 -144h-71z" />
    <glyph glyph-name="lacute" unicode="&#x13a;" horiz-adv-x="240" 
d="M187 756h78l-106 -756h-78zM304 959h110l-163 -144h-71z" />
    <glyph glyph-name="Lcommaaccent" unicode="&#x13b;" horiz-adv-x="500" 
d="M188 708h84l-89 -630h324l-11 -78h-408zM237 -61h86l-96 -167h-66z" />
    <glyph glyph-name="lcommaaccent" unicode="&#x13c;" horiz-adv-x="240" 
d="M187 756h78l-106 -756h-78zM90 -61h86l-96 -167h-66z" />
    <glyph glyph-name="Lcaron" unicode="&#x13d;" horiz-adv-x="500" 
d="M188 708h84l-89 -630h324l-11 -78h-408zM373 708h86l-97 -177h-66z" />
    <glyph glyph-name="lcaron" unicode="&#x13e;" horiz-adv-x="240" 
d="M187 756h78l-106 -756h-78zM398 708h86l-97 -177h-66z" />
    <glyph glyph-name="Ldot" unicode="&#x13f;" horiz-adv-x="500" 
d="M188 708h84l-89 -630h324l-11 -78h-408zM444 435q20 0 33.5 -13.5t13.5 -33.5q0 -25 -18.5 -43t-44.5 -18q-22 0 -34.5 13.5t-12.5 32.5q0 25 19 43.5t44 18.5z" />
    <glyph glyph-name="ldot" unicode="&#x140;" horiz-adv-x="336" 
d="M187 756h78l-106 -756h-78zM353 436q20 0 33.5 -13.5t13.5 -33.5q0 -25 -18.5 -43t-44.5 -18q-22 0 -34.5 13.5t-12.5 32.5q0 25 19 43.5t44 18.5z" />
    <glyph glyph-name="Lslash" unicode="&#x141;" horiz-adv-x="500" 
d="M188 708h84l-48 -336l242 186l-11 -79l-242 -186l-30 -215h324l-11 -78h-408l31 221l-87 -67l11 79l87 67z" />
    <glyph glyph-name="lslash" unicode="&#x142;" horiz-adv-x="240" 
d="M187 756h78l-40 -289l92 82l-11 -81l-93 -81l-54 -387h-78l43 308l-92 -81l11 83l93 80z" />
    <glyph glyph-name="Nacute" unicode="&#x143;" horiz-adv-x="778" 
d="M188 708h106l327 -588h2l83 588h84l-100 -708h-106l-327 588h-2l-83 -588h-84zM548 902h110l-163 -144h-71z" />
    <glyph glyph-name="nacute" unicode="&#x144;" 
d="M372 480q74 0 114 -38t40 -111q0 -25 -4 -49l-40 -282h-78l37 267q4 26 4 46q0 95 -91 95q-145 0 -172 -193l-30 -215h-78l50 353q2 15 5.5 56t6.5 59h74l-9 -77h2q24 40 70 64.5t99 24.5zM401 708h110l-163 -144h-72z" />
    <glyph glyph-name="Ncommaaccent" unicode="&#x145;" horiz-adv-x="778" 
d="M188 708h106l327 -588h2l83 588h84l-100 -708h-106l-327 588h-2l-83 -588h-84zM333 -61h86l-96 -167h-66z" />
    <glyph glyph-name="ncommaaccent" unicode="&#x146;" 
d="M372 480q74 0 114 -38t40 -111q0 -25 -4 -49l-40 -282h-78l37 267q4 26 4 46q0 95 -91 95q-145 0 -172 -193l-30 -215h-78l50 353q2 15 5.5 56t6.5 59h74l-9 -77h2q24 40 70 64.5t99 24.5zM228 -61h86l-96 -167h-66z" />
    <glyph glyph-name="Ncaron" unicode="&#x147;" horiz-adv-x="778" 
d="M188 708h106l327 -588h2l83 588h84l-100 -708h-106l-327 588h-2l-83 -588h-84zM358 902h81l64 -102l91 102h76l-130 -144h-91z" />
    <glyph glyph-name="ncaron" unicode="&#x148;" 
d="M372 480q74 0 114 -38t40 -111q0 -25 -4 -49l-40 -282h-78l37 267q4 26 4 46q0 95 -91 95q-145 0 -172 -193l-30 -215h-78l50 353q2 15 5.5 56t6.5 59h74l-9 -77h2q24 40 70 64.5t99 24.5zM228 708h81l64 -102l91 102h76l-130 -144h-91z" />
    <glyph glyph-name="Omacron" unicode="&#x14c;" horiz-adv-x="834" 
d="M519 726q143 0 232.5 -87t89.5 -226q0 -180 -125.5 -305.5t-309.5 -125.5q-139 0 -226 88.5t-87 223.5q0 179 124 305.5t302 126.5zM184 306q0 -109 66.5 -177.5t174.5 -68.5q131 0 228 100t97 242q0 109 -67.5 177.5t-175.5 68.5q-128 0 -225.5 -99t-97.5 -243zM400 854
h276l-9 -60h-276z" />
    <glyph glyph-name="omacron" unicode="&#x14d;" horiz-adv-x="594" 
d="M364 480q98 0 158.5 -57t60.5 -151q0 -115 -83 -199.5t-205 -84.5q-97 0 -157.5 56t-60.5 148q0 122 83 205t204 83zM162 203q0 -64 39 -103.5t104 -39.5q82 0 137.5 60.5t55.5 141.5q0 66 -39.5 106t-105.5 40q-82 0 -136.5 -60.5t-54.5 -144.5zM252 660h276l-9 -60
h-276z" />
    <glyph glyph-name="Obreve" unicode="&#x14e;" horiz-adv-x="834" 
d="M519 726q143 0 232.5 -87t89.5 -226q0 -180 -125.5 -305.5t-309.5 -125.5q-139 0 -226 88.5t-87 223.5q0 179 124 305.5t302 126.5zM184 306q0 -109 66.5 -177.5t174.5 -68.5q131 0 228 100t97 242q0 109 -67.5 177.5t-175.5 68.5q-128 0 -225.5 -99t-97.5 -243zM388 896
h49q2 -37 26.5 -57.5t66.5 -20.5q45 0 72 18t44 60h48q-15 -63 -60 -97.5t-112 -34.5q-65 0 -100 32.5t-35 82.5z" />
    <glyph glyph-name="obreve" unicode="&#x14f;" horiz-adv-x="594" 
d="M364 480q98 0 158.5 -57t60.5 -151q0 -115 -83 -199.5t-205 -84.5q-97 0 -157.5 56t-60.5 148q0 122 83 205t204 83zM162 203q0 -64 39 -103.5t104 -39.5q82 0 137.5 60.5t55.5 141.5q0 66 -39.5 106t-105.5 40q-82 0 -136.5 -60.5t-54.5 -144.5zM242 702h49
q2 -37 26.5 -57.5t66.5 -20.5q45 0 72 18t44 60h48q-15 -63 -60 -97.5t-112 -34.5q-65 0 -100 32.5t-35 82.5z" />
    <glyph glyph-name="Ohungarumlaut" unicode="&#x150;" horiz-adv-x="834" 
d="M519 726q143 0 232.5 -87t89.5 -226q0 -180 -125.5 -305.5t-309.5 -125.5q-139 0 -226 88.5t-87 223.5q0 179 124 305.5t302 126.5zM184 306q0 -109 66.5 -177.5t174.5 -68.5q131 0 228 100t97 242q0 109 -67.5 177.5t-175.5 68.5q-128 0 -225.5 -99t-97.5 -243zM533 902
h96l-149 -144h-67zM698 902h102l-163 -144h-68z" />
    <glyph glyph-name="ohungarumlaut" unicode="&#x151;" horiz-adv-x="594" 
d="M364 480q98 0 158.5 -57t60.5 -151q0 -115 -83 -199.5t-205 -84.5q-97 0 -157.5 56t-60.5 148q0 122 83 205t204 83zM162 203q0 -64 39 -103.5t104 -39.5q82 0 137.5 60.5t55.5 141.5q0 66 -39.5 106t-105.5 40q-82 0 -136.5 -60.5t-54.5 -144.5zM384 708h96l-149 -144
h-67zM549 708h102l-163 -144h-68z" />
    <glyph glyph-name="OE" unicode="&#x152;" horiz-adv-x="963" 
d="M542 708h460l-11 -78h-300l-32 -222h282l-11 -78h-282l-35 -252h306l-11 -78h-462q-158 0 -251.5 82.5t-93.5 220.5q0 73 29.5 144t83.5 129.5t140 95t188 36.5zM192 314q0 -108 73 -172t193 -64h71l78 552h-73q-151 0 -246.5 -94.5t-95.5 -221.5z" />
    <glyph glyph-name="oe" unicode="&#x153;" horiz-adv-x="907" 
d="M344 480q124 0 182 -94q87 94 190 94q90 0 141 -52t51 -141q0 -9 -7 -77h-361q-2 -24 -2 -26q0 -53 33 -88.5t83 -35.5q94 0 159 71l53 -46q-91 -97 -221 -97q-117 0 -161 96q-89 -96 -206 -96q-98 0 -155 53.5t-57 147.5q0 124 81.5 207.5t196.5 83.5zM151 202
q0 -66 35.5 -104t97.5 -38q84 0 136.5 60.5t52.5 145.5q0 66 -36 104t-101 38q-80 0 -132.5 -59.5t-52.5 -146.5zM549 276h277q1 9 1 19q0 52 -32.5 82.5t-91.5 30.5q-54 0 -99.5 -39.5t-54.5 -92.5z" />
    <glyph glyph-name="Racute" unicode="&#x154;" horiz-adv-x="611" 
d="M188 708h185q135 0 194 -38t59 -118q0 -91 -54 -151t-152 -75l155 -326h-103l-147 318h-108l-45 -318h-84zM261 630l-33 -234h108q199 0 199 138q0 96 -151 96h-123zM447 902h110l-163 -144h-71z" />
    <glyph glyph-name="racute" unicode="&#x155;" horiz-adv-x="352" 
d="M371 480q21 0 32 -5l-16 -79q-23 6 -41 6q-137 0 -162 -176l-32 -226h-78l50 353q2 15 5.5 56t6.5 59h74l-9 -77h2q25 40 71 64.5t97 24.5zM337 708h110l-163 -144h-72z" />
    <glyph glyph-name="Rcommaaccent" unicode="&#x156;" horiz-adv-x="611" 
d="M188 708h185q135 0 194 -38t59 -118q0 -91 -54 -151t-152 -75l155 -326h-103l-147 318h-108l-45 -318h-84zM261 630l-33 -234h108q199 0 199 138q0 96 -151 96h-123zM244 -61h86l-96 -167h-66z" />
    <glyph glyph-name="rcommaaccent" unicode="&#x157;" horiz-adv-x="352" 
d="M371 480q21 0 32 -5l-16 -79q-23 6 -41 6q-137 0 -162 -176l-32 -226h-78l50 353q2 15 5.5 56t6.5 59h74l-9 -77h2q25 40 71 64.5t97 24.5zM123 -61h86l-96 -167h-66z" />
    <glyph glyph-name="Rcaron" unicode="&#x158;" horiz-adv-x="611" 
d="M188 708h185q135 0 194 -38t59 -118q0 -91 -54 -151t-152 -75l155 -326h-103l-147 318h-108l-45 -318h-84zM261 630l-33 -234h108q199 0 199 138q0 96 -151 96h-123zM268 902h81l64 -102l91 102h76l-130 -144h-91z" />
    <glyph glyph-name="rcaron" unicode="&#x159;" horiz-adv-x="352" 
d="M371 480q21 0 32 -5l-16 -79q-23 6 -41 6q-137 0 -162 -176l-32 -226h-78l50 353q2 15 5.5 56t6.5 59h74l-9 -77h2q25 40 71 64.5t97 24.5zM128 708h81l64 -102l91 102h76l-130 -144h-91z" />
    <glyph glyph-name="Sacute" unicode="&#x15a;" 
d="M397 726q127 0 186 -83l-77 -60q-31 65 -120 65q-72 0 -121 -38t-49 -100q0 -40 31 -64.5t102 -46.5q111 -34 148.5 -76.5t37.5 -101.5q0 -103 -80.5 -171t-201.5 -68q-72 0 -126 26t-78 72l81 59q15 -37 53 -58t86 -21q69 0 121 41t52 103q0 43 -29.5 64.5t-137.5 59.5
q-78 28 -114 65.5t-36 96.5q0 103 78 169.5t194 66.5zM452 902h110l-163 -144h-71z" />
    <glyph glyph-name="sacute" unicode="&#x15b;" horiz-adv-x="426" 
d="M284 480q55 0 94 -22t54 -63l-72 -43q-26 56 -91 56q-42 0 -72 -21t-30 -49q0 -42 119 -65q126 -25 126 -115q0 -76 -58.5 -123t-151.5 -47q-65 0 -104.5 21t-64.5 66l68 48q42 -63 111 -63q50 0 82.5 22.5t32.5 57.5q0 24 -20 39.5t-85 29.5q-70 15 -102 40.5t-32 69.5
q0 71 57 116t139 45zM355 708h110l-163 -144h-72z" />
    <glyph glyph-name="Scircumflex" unicode="&#x15c;" 
d="M397 726q127 0 186 -83l-77 -60q-31 65 -120 65q-72 0 -121 -38t-49 -100q0 -40 31 -64.5t102 -46.5q111 -34 148.5 -76.5t37.5 -101.5q0 -103 -80.5 -171t-201.5 -68q-72 0 -126 26t-78 72l81 59q15 -37 53 -58t86 -21q69 0 121 41t52 103q0 43 -29.5 64.5t-137.5 59.5
q-78 28 -114 65.5t-36 96.5q0 103 78 169.5t194 66.5zM373 902h91l92 -144h-81l-65 102l-92 -102h-76z" />
    <glyph glyph-name="scircumflex" unicode="&#x15d;" horiz-adv-x="426" 
d="M284 480q55 0 94 -22t54 -63l-72 -43q-26 56 -91 56q-42 0 -72 -21t-30 -49q0 -42 119 -65q126 -25 126 -115q0 -76 -58.5 -123t-151.5 -47q-65 0 -104.5 21t-64.5 66l68 48q42 -63 111 -63q50 0 82.5 22.5t32.5 57.5q0 24 -20 39.5t-85 29.5q-70 15 -102 40.5t-32 69.5
q0 71 57 116t139 45zM277 708h91l91 -144h-81l-64 102l-93 -102h-76z" />
    <glyph glyph-name="Scedilla" unicode="&#x15e;" 
d="M397 726q126 0 186 -83l-78 -60q-32 65 -119 65q-73 0 -121 -37.5t-48 -99.5q0 -41 31 -66t100 -46q113 -34 149 -76t36 -100q0 -94 -64.5 -160t-175.5 -79l-40 -48q6 0 19 2t17 2q28 0 49 -16.5t21 -41.5q0 -44 -36.5 -71.5t-93.5 -27.5t-96 21l22 37q29 -16 70 -16
q31 0 49 13t18 34q0 15 -13 23.5t-34 8.5q-14 0 -40 -8l-17 19l58 67q-70 2 -122.5 28t-74.5 70l80 59q17 -37 54.5 -58t85.5 -21q67 0 120 40t53 105q0 54 -68 86q-21 10 -97 35q-82 27 -117 66t-35 98q0 105 79 170.5t193 65.5z" />
    <glyph glyph-name="scedilla" unicode="&#x15f;" horiz-adv-x="426" 
d="M284 480q115 0 147 -85l-71 -43q-26 56 -91 56q-43 0 -72 -20.5t-29 -49.5q0 -44 113 -64q130 -22 130 -116q0 -68 -47.5 -114t-127.5 -54l-45 -54q20 4 36 4q28 0 49 -16t21 -41q0 -45 -36.5 -72.5t-93.5 -27.5t-96 21l22 37q29 -16 70 -16q31 0 49 13t18 34
q0 15 -13 23.5t-34 8.5q-14 0 -40 -8l-17 19l63 73q-62 3 -97.5 23.5t-59.5 63.5l69 48q41 -63 111 -63q49 0 81.5 23t32.5 60q0 23 -20.5 38t-71.5 25q-84 17 -114.5 44t-30.5 71q0 72 58 115.5t137 43.5z" />
    <glyph glyph-name="Scaron" unicode="&#x160;" 
d="M397 726q127 0 186 -83l-77 -60q-31 65 -120 65q-72 0 -121 -38t-49 -100q0 -40 31 -64.5t102 -46.5q111 -34 148.5 -76.5t37.5 -101.5q0 -103 -80.5 -171t-201.5 -68q-72 0 -126 26t-78 72l81 59q15 -37 53 -58t86 -21q69 0 121 41t52 103q0 43 -29.5 64.5t-137.5 59.5
q-78 28 -114 65.5t-36 96.5q0 103 78 169.5t194 66.5zM249 902h81l64 -102l91 102h76l-130 -144h-91z" />
    <glyph glyph-name="scaron" unicode="&#x161;" horiz-adv-x="426" 
d="M284 480q55 0 94 -22t54 -63l-72 -43q-26 56 -91 56q-42 0 -72 -21t-30 -49q0 -42 119 -65q126 -25 126 -115q0 -76 -58.5 -123t-151.5 -47q-65 0 -104.5 21t-64.5 66l68 48q42 -63 111 -63q50 0 82.5 22.5t32.5 57.5q0 24 -20 39.5t-85 29.5q-70 15 -102 40.5t-32 69.5
q0 71 57 116t139 45zM155 724h81l64 -102l91 102h76l-130 -144h-91z" />
    <glyph glyph-name="Tcommaaccent" unicode="&#x162;" horiz-adv-x="574" 
d="M111 708h552l-11 -78h-234l-89 -630h-84l89 630h-234zM235 -61h86l-96 -167h-66z" />
    <glyph glyph-name="tcommaaccent" unicode="&#x163;" horiz-adv-x="352" 
d="M198 601h78l-18 -133h138l-9 -66h-138l-31 -220v-5l-2.5 -12.5t-2.5 -16.5t-1.5 -18t-0.5 -16q0 -29 14.5 -41.5t45.5 -12.5q36 0 71 16l-7 -71q-43 -17 -94 -17q-58 0 -85 23.5t-27 73.5q0 29 5 59l37 258h-102l9 66h102zM148 -61h86l-96 -167h-66z" />
    <glyph glyph-name="Tcaron" unicode="&#x164;" horiz-adv-x="574" 
d="M111 708h552l-11 -78h-234l-89 -630h-84l89 630h-234zM257 902h81l64 -102l91 102h76l-130 -144h-91z" />
    <glyph glyph-name="tcaron" unicode="&#x165;" horiz-adv-x="352" 
d="M198 601h78l-18 -133h138l-9 -66h-138l-31 -220v-5l-2.5 -12.5t-2.5 -16.5t-1.5 -18t-0.5 -16q0 -29 14.5 -41.5t45.5 -12.5q36 0 71 16l-7 -71q-43 -17 -94 -17q-58 0 -85 23.5t-27 73.5q0 29 5 59l37 258h-102l9 66h102zM408 708h86l-97 -177h-66z" />
    <glyph glyph-name="Tbar" unicode="&#x166;" horiz-adv-x="574" 
d="M110 708h552l-11 -78h-234l-23 -161h149l-8 -60h-149l-57 -409h-84l57 409h-143l8 60h143l23 161h-234z" />
    <glyph glyph-name="tbar" unicode="&#x167;" horiz-adv-x="352" 
d="M198 601h78l-19 -133h138l-9 -66h-138l-9 -65h119l-9 -60h-119l-17 -126q-3 -26 -3 -34q0 -57 60 -57q38 0 71 16l-7 -71q-42 -17 -93 -17q-58 0 -85 23.5t-27 73.5q0 21 5 58l18 134h-79l9 60h79l9 65h-102l9 66h102z" />
    <glyph glyph-name="Utilde" unicode="&#x168;" horiz-adv-x="704" 
d="M185 708h84l-59 -415q-5 -38 -5 -67q0 -166 155 -166q89 0 144.5 57t70.5 165l60 426h84l-61 -431q-20 -143 -101 -219t-208 -76q-112 0 -171.5 58.5t-59.5 163.5q0 23 6 71zM595 878h48q-15 -49 -43.5 -76.5t-64.5 -27.5q-29 0 -75.5 20t-64.5 20q-30 0 -53 -44h-48
q14 48 44.5 76t69.5 28q29 0 73.5 -20t59.5 -20q34 0 54 44z" />
    <glyph glyph-name="utilde" unicode="&#x169;" 
d="M140 468h78l-37 -261q-5 -31 -5 -52q0 -95 92 -95q145 0 171 188l31 220h78l-50 -357l-12 -111h-74l9 77h-2q-23 -39 -70 -64t-99 -25q-75 0 -114.5 38t-39.5 111q0 9 3 42zM496 684h48q-14 -50 -42.5 -77t-64.5 -27q-30 0 -76 20t-66 20q-35 0 -52 -44h-48
q13 46 44.5 75t70.5 29q27 0 72.5 -20t59.5 -20q36 0 54 44z" />
    <glyph glyph-name="Umacron" unicode="&#x16a;" horiz-adv-x="704" 
d="M185 708h84l-59 -415q-5 -38 -5 -67q0 -166 155 -166q89 0 144.5 57t70.5 165l60 426h84l-61 -431q-20 -143 -101 -219t-208 -76q-112 0 -171.5 58.5t-59.5 163.5q0 23 6 71zM335 854h276l-9 -60h-276z" />
    <glyph glyph-name="umacron" unicode="&#x16b;" 
d="M140 468h78l-37 -261q-5 -31 -5 -52q0 -95 92 -95q145 0 171 188l31 220h78l-50 -357l-12 -111h-74l9 77h-2q-23 -39 -70 -64t-99 -25q-75 0 -114.5 38t-39.5 111q0 9 3 42zM236 660h276l-9 -60h-276z" />
    <glyph glyph-name="Ubreve" unicode="&#x16c;" horiz-adv-x="704" 
d="M185 708h84l-59 -415q-5 -38 -5 -67q0 -166 155 -166q89 0 144.5 57t70.5 165l60 426h84l-61 -431q-20 -143 -101 -219t-208 -76q-112 0 -171.5 58.5t-59.5 163.5q0 23 6 71zM325 896h49q2 -37 26.5 -57.5t66.5 -20.5q45 0 72 18t44 60h48q-15 -63 -60 -97.5t-112 -34.5
q-65 0 -100 32.5t-35 82.5z" />
    <glyph glyph-name="ubreve" unicode="&#x16d;" 
d="M140 468h78l-37 -261q-5 -31 -5 -52q0 -95 92 -95q145 0 171 188l31 220h78l-50 -357l-12 -111h-74l9 77h-2q-23 -39 -70 -64t-99 -25q-75 0 -114.5 38t-39.5 111q0 9 3 42zM226 702h49q2 -37 26.5 -57.5t66.5 -20.5q45 0 72 18t44 60h48q-15 -63 -60 -97.5t-112 -34.5
q-65 0 -100 32.5t-35 82.5z" />
    <glyph glyph-name="Uring" unicode="&#x16e;" horiz-adv-x="704" 
d="M185 708h84l-59 -415q-5 -38 -5 -67q0 -166 155 -166q89 0 144.5 57t70.5 165l60 426h84l-61 -431q-20 -143 -101 -219t-208 -76q-112 0 -171.5 58.5t-59.5 163.5q0 23 6 71zM483 928q38 0 62 -23.5t24 -60.5q0 -45 -34 -79.5t-80 -34.5q-38 0 -62 24t-24 62
q0 44 34.5 78t79.5 34zM411 822q0 -21 14 -35.5t36 -14.5q26 0 46 19.5t20 45.5q0 20 -15 34.5t-36 14.5q-24 0 -44.5 -20t-20.5 -44z" />
    <glyph glyph-name="uring" unicode="&#x16f;" 
d="M140 468h78l-37 -261q-5 -31 -5 -52q0 -95 92 -95q145 0 171 188l31 220h78l-50 -357l-12 -111h-74l9 77h-2q-23 -39 -70 -64t-99 -25q-75 0 -114.5 38t-39.5 111q0 9 3 42zM385 744q38 0 62 -23.5t24 -60.5q0 -45 -34 -79.5t-80 -34.5q-38 0 -62 24t-24 62q0 44 34.5 78
t79.5 34zM313 638q0 -21 14 -35.5t36 -14.5q26 0 46 19.5t20 45.5q0 20 -15 34.5t-36 14.5q-24 0 -44.5 -20t-20.5 -44z" />
    <glyph glyph-name="Uhungarumlaut" unicode="&#x170;" horiz-adv-x="704" 
d="M185 708h84l-59 -415q-5 -38 -5 -67q0 -166 155 -166q89 0 144.5 57t70.5 165l60 426h84l-61 -431q-20 -143 -101 -219t-208 -76q-112 0 -171.5 58.5t-59.5 163.5q0 23 6 71zM456 902h96l-149 -144h-67zM621 902h102l-163 -144h-68z" />
    <glyph glyph-name="uhungarumlaut" unicode="&#x171;" 
d="M140 468h78l-37 -261q-5 -31 -5 -52q0 -95 92 -95q145 0 171 188l31 220h78l-50 -357l-12 -111h-74l9 77h-2q-23 -39 -70 -64t-99 -25q-75 0 -114.5 38t-39.5 111q0 9 3 42zM359 708h96l-149 -144h-67zM524 708h102l-163 -144h-68z" />
    <glyph glyph-name="Uogonek" unicode="&#x172;" horiz-adv-x="704" 
d="M184 708h84l-60 -426q-4 -32 -4 -55q0 -83 40 -125t116 -42q184 0 216 233l58 415h84l-61 -431q-19 -131 -88 -205.5t-179 -87.5q-31 -23 -50.5 -53.5t-19.5 -53.5q0 -16 10 -27t29 -11q31 0 57 20l15 -41q-45 -39 -98 -39q-36 0 -59 21.5t-23 52.5t22 65.5t62 63.5
q-105 3 -161 61t-56 166q0 34 4 61z" />
    <glyph glyph-name="uogonek" unicode="&#x173;" 
d="M139 468h78l-39 -282q-2 -12 -2 -31q0 -95 91 -95q71 0 115 47t55 131l32 230h78l-49 -355q-6 -39 -7.5 -64.5t-4.5 -48.5h-23q-37 -23 -65 -58.5t-28 -64.5q0 -38 39 -38q30 0 56 20l15 -41q-42 -39 -98 -39q-36 0 -59 21.5t-23 52.5q0 36 31 76.5t81 70.5l8 77h-2
q-23 -40 -69 -64.5t-99 -24.5q-75 0 -114.5 38t-39.5 112q0 15 5 50z" />
    <glyph glyph-name="Wcircumflex" unicode="&#x174;" horiz-adv-x="963" 
d="M106 708h93l78 -588h2l257 588h94l90 -588h2l247 588h88l-308 -708h-91l-91 600h-2l-260 -600h-92zM562 902h91l92 -144h-81l-65 102l-92 -102h-76z" />
    <glyph glyph-name="wcircumflex" unicode="&#x175;" horiz-adv-x="741" 
d="M80 468h86l56 -360h2l172 360h82l72 -360h2l157 360h84l-217 -468h-77l-82 360h-2l-169 -360h-80zM423 708h91l91 -144h-81l-64 102l-93 -102h-76z" />
    <glyph glyph-name="Ycircumflex" unicode="&#x176;" horiz-adv-x="594" 
d="M91 708h107l154 -320l250 320h101l-321 -403l-43 -305h-84l43 305zM377 902h91l92 -144h-81l-65 102l-92 -102h-76z" />
    <glyph glyph-name="ycircumflex" unicode="&#x177;" horiz-adv-x="482" 
d="M76 468h91l93 -367h2l191 367h85l-300 -563q-43 -81 -80.5 -113t-101.5 -32q-42 0 -68 12l20 68q24 -8 53 -8q58 0 89 60q32 58 54 105zM303 708h91l91 -144h-81l-64 102l-93 -102h-76z" />
    <glyph glyph-name="Ydieresis" unicode="&#x178;" horiz-adv-x="594" 
d="M91 708h107l154 -320l250 320h101l-321 -403l-43 -305h-84l43 305zM321 878q20 0 33 -13t13 -33q0 -26 -17.5 -44t-43.5 -18q-23 0 -35 13.5t-12 32.5q0 26 18.5 44t43.5 18zM519 878q20 0 33.5 -13.5t13.5 -32.5q0 -25 -18.5 -43.5t-43.5 -18.5q-22 0 -35 13.5t-13 32.5
q0 25 19 43.5t44 18.5z" />
    <glyph glyph-name="Zacute" unicode="&#x179;" horiz-adv-x="574" 
d="M135 708h505l-11 -72l-487 -558h414l-11 -78h-516l11 75l487 555h-403zM463 902h110l-163 -144h-71z" />
    <glyph glyph-name="zacute" unicode="&#x17a;" horiz-adv-x="444" 
d="M108 468h365l-9 -60l-323 -342h282l-9 -66h-384l9 61l323 341h-263zM352 708h110l-163 -144h-72z" />
    <glyph glyph-name="Zdotaccent" unicode="&#x17b;" horiz-adv-x="574" 
d="M135 708h505l-11 -72l-487 -558h414l-11 -78h-516l11 75l487 555h-403zM421 878q20 0 33.5 -13t13.5 -33q0 -26 -18.5 -44t-43.5 -18q-22 0 -34.5 13.5t-12.5 31.5q0 26 18.5 44.5t43.5 18.5z" />
    <glyph glyph-name="zdotaccent" unicode="&#x17c;" horiz-adv-x="444" 
d="M108 468h365l-9 -60l-323 -342h282l-9 -66h-384l9 61l323 341h-263zM330 684q20 0 33.5 -13.5t13.5 -33.5q0 -25 -18.5 -43t-44.5 -18q-22 0 -34.5 13.5t-12.5 32.5q0 25 19 43.5t44 18.5z" />
    <glyph glyph-name="Zcaron" unicode="&#x17d;" horiz-adv-x="574" 
d="M135 708h505l-11 -72l-487 -558h414l-11 -78h-516l11 75l487 555h-403zM257 902h81l64 -102l91 102h76l-130 -144h-91z" />
    <glyph glyph-name="zcaron" unicode="&#x17e;" horiz-adv-x="444" 
d="M108 468h365l-9 -60l-323 -342h282l-9 -66h-384l9 61l323 341h-263zM165 724h81l64 -102l91 102h76l-130 -144h-91z" />
    <glyph glyph-name="florin" unicode="&#x192;" 
d="M521 720q55 0 96 -28l-45 -62q-28 18 -55 18q-67 0 -98 -95l-42 -128h114l-10 -66h-126l-111 -339q-29 -88 -74 -126t-114 -38q-46 0 -83 24l45 63q23 -15 52 -15q16 0 29 4t31.5 26t31.5 62l110 339h-108l10 66h121l39 118q31 96 76 136.5t111 40.5z" />
    <glyph glyph-name="Scommaaccent" unicode="&#x218;" 
d="M397 726q127 0 186 -83l-77 -60q-31 65 -120 65q-72 0 -121 -38t-49 -100q0 -40 31 -64.5t102 -46.5q111 -34 148.5 -76.5t37.5 -101.5q0 -103 -80.5 -171t-201.5 -68q-72 0 -126 26t-78 72l81 59q15 -37 53 -58t86 -21q69 0 121 41t52 103q0 43 -29.5 64.5t-137.5 59.5
q-78 28 -114 65.5t-36 96.5q0 103 78 169.5t194 66.5zM224 -61h86l-96 -167h-66z" />
    <glyph glyph-name="scommaaccent" unicode="&#x219;" horiz-adv-x="426" 
d="M284 480q55 0 94 -22t54 -63l-72 -43q-26 56 -91 56q-42 0 -72 -21t-30 -49q0 -42 119 -65q126 -25 126 -115q0 -76 -58.5 -123t-151.5 -47q-65 0 -104.5 21t-64.5 66l68 48q42 -63 111 -63q50 0 82.5 22.5t32.5 57.5q0 24 -20 39.5t-85 29.5q-70 15 -102 40.5t-32 69.5
q0 71 57 116t139 45zM169 -61h86l-96 -167h-66z" />
    <glyph glyph-name="uni021A" unicode="&#x21a;" horiz-adv-x="574" 
d="M111 708h552l-11 -78h-234l-89 -630h-84l89 630h-234zM235 -61h86l-96 -167h-66z" />
    <glyph glyph-name="uni021B" unicode="&#x21b;" horiz-adv-x="352" 
d="M198 601h78l-18 -133h138l-9 -66h-138l-31 -220v-5l-2.5 -12.5t-2.5 -16.5t-1.5 -18t-0.5 -16q0 -29 14.5 -41.5t45.5 -12.5q36 0 71 16l-7 -71q-43 -17 -94 -17q-58 0 -85 23.5t-27 73.5q0 29 5 59l37 258h-102l9 66h102zM148 -61h86l-96 -167h-66z" />
    <glyph glyph-name="dotlessj" unicode="&#x237;" horiz-adv-x="240" 
d="M147 468h78l-80 -567q-10 -68 -51.5 -104.5t-107.5 -36.5q-31 0 -52 10l18 68q19 -6 37 -6q34 0 54 22t28 77z" />
    <glyph glyph-name="circumflex" unicode="&#x2c6;" horiz-adv-x="240" 
d="M174 708h91l91 -144h-81l-64 102l-93 -102h-76z" />
    <glyph glyph-name="caron" unicode="&#x2c7;" horiz-adv-x="240" 
d="M63 708h81l64 -102l91 102h76l-130 -144h-91z" />
    <glyph glyph-name="uni02C9" unicode="&#x2c9;" horiz-adv-x="240" 
d="M74 660h276l-8 -60h-276z" />
    <glyph glyph-name="breve" unicode="&#x2d8;" horiz-adv-x="240" 
d="M65 702h49q2 -37 26.5 -57.5t66.5 -20.5q45 0 72 18t44 60h48q-15 -63 -60 -97.5t-112 -34.5q-65 0 -100 32.5t-35 82.5z" />
    <glyph glyph-name="dotaccent" unicode="&#x2d9;" horiz-adv-x="240" 
d="M216 684q20 0 33.5 -13.5t13.5 -33.5q0 -25 -18.5 -43t-44.5 -18q-22 0 -34.5 13.5t-12.5 32.5q0 25 19 43.5t44 18.5z" />
    <glyph glyph-name="ring" unicode="&#x2da;" horiz-adv-x="240" 
d="M224 744q38 0 62 -23.5t24 -60.5q0 -45 -34 -79.5t-80 -34.5q-38 0 -62 24t-24 62q0 44 34.5 78t79.5 34zM152 638q0 -21 14 -35.5t36 -14.5q26 0 46 19.5t20 45.5q0 20 -15 34.5t-36 14.5q-24 0 -44.5 -20t-20.5 -44z" />
    <glyph glyph-name="ogonek" unicode="&#x2db;" horiz-adv-x="240" 
d="M109 0h51q-44 -29 -69 -62.5t-25 -60.5q0 -38 39 -38q31 0 57 20l15 -41q-46 -39 -98 -39q-36 0 -58.5 21t-22.5 53q0 36 30.5 76.5t80.5 70.5z" />
    <glyph glyph-name="tilde" unicode="&#x2dc;" horiz-adv-x="240" 
d="M335 684h48q-14 -50 -42.5 -77t-64.5 -27q-30 0 -76 20t-66 20q-35 0 -52 -44h-48q13 46 44.5 75t70.5 29q27 0 72.5 -20t59.5 -20q36 0 54 44z" />
    <glyph glyph-name="hungarumlaut" unicode="&#x2dd;" horiz-adv-x="240" 
d="M177 708h96l-149 -144h-67zM342 708h102l-163 -144h-68z" />
    <glyph glyph-name="uni0394" unicode="&#x394;" horiz-adv-x="670" 
d="M396 712h74l187 -712h-642zM422 645l-308 -583h455z" />
    <glyph glyph-name="uni03A9" unicode="&#x3a9;" horiz-adv-x="744" 
d="M468 721q119 0 198.5 -73t79.5 -188q0 -107 -67 -201t-172 -119l-11 -82h197l-8 -58h-251l25 181q99 15 159 93t60 179q0 93 -62 150t-159 57q-118 0 -203 -83.5t-85 -203.5q0 -80 40.5 -130t113.5 -62l-25 -181h-251l8 58h197l11 82q-75 22 -118.5 84t-43.5 145
q0 148 110.5 250t256.5 102z" />
    <glyph glyph-name="uni03BC" unicode="&#x3bc;" 
d="M140 468h78l-40 -280q-2 -14 -2 -33q0 -95 92 -95q145 0 171 186l31 222h78l-50 -357l-12 -111h-74l9 77h-2q-23 -39 -70 -64t-99 -25q-58 0 -96 25l-34 -241h-78z" />
    <glyph glyph-name="pi" unicode="&#x3c0;" horiz-adv-x="563" 
d="M97 468h494l-8 -59h-76l-42 -298q-3 -19 -3 -31q0 -30 33 -30q23 0 43 10l-7 -49q-34 -17 -67 -17q-67 0 -67 63q0 29 4 55l42 297h-220l-57 -409h-64l57 409h-70z" />
    <glyph glyph-name="uni1E9E" unicode="&#x1e9e;" horiz-adv-x="674" 
d="M652 714l-11 -75q-87 0 -141.5 -32t-54.5 -97q0 -12 2.5 -22.5t10 -21.5t12.5 -18t18.5 -18.5t19.5 -16.5t23.5 -18t22.5 -17q55 -42 81 -83t26 -92q0 -100 -66.5 -160.5t-171.5 -60.5q-56 0 -106 22.5t-78 68.5l78 56q35 -69 120 -69q61 0 96 36t35 97q0 37 -21 64
t-67 60q-66 47 -96 84.5t-30 90.5q0 60 32 96.5t86 62.5q-20 1 -23 1q-95 0 -147 -33.5t-63 -117.5l-70 -501h-84l70 500q17 119 90.5 172.5t209.5 53.5q70 0 197 -12z" />
    <glyph glyph-name="endash" unicode="&#x2013;" horiz-adv-x="500" 
d="M39 276h500l-10 -72h-500z" />
    <glyph glyph-name="emdash" unicode="&#x2014;" horiz-adv-x="1000" 
d="M39 276h1000l-10 -72h-1000z" />
    <glyph glyph-name="quoteleft" unicode="&#x2018;" horiz-adv-x="278" 
d="M242 708h76l-101 -240h-91z" />
    <glyph glyph-name="quoteright" unicode="&#x2019;" horiz-adv-x="278" 
d="M227 708h91l-116 -240h-76z" />
    <glyph glyph-name="quotesinglbase" unicode="&#x201a;" horiz-adv-x="278" 
d="M141 102h91l-115 -240h-76z" />
    <glyph glyph-name="quotedblleft" unicode="&#x201c;" horiz-adv-x="519" 
d="M269 708h76l-101 -240h-91zM456 708h76l-101 -240h-91z" />
    <glyph glyph-name="quotedblright" unicode="&#x201d;" horiz-adv-x="519" 
d="M254 708h91l-116 -240h-76zM441 708h91l-116 -240h-76z" />
    <glyph glyph-name="quotedblbase" unicode="&#x201e;" horiz-adv-x="519" 
d="M168 102h91l-115 -240h-76zM355 102h91l-115 -240h-76z" />
    <glyph glyph-name="dagger" unicode="&#x2020;" 
d="M339 708h78l-29 -203h204l-9 -66h-204l-80 -565h-78l80 565h-204l9 66h204z" />
    <glyph glyph-name="daggerdbl" unicode="&#x2021;" 
d="M339 708h78l-27 -192h198l-10 -66h-198l-44 -318h198l-10 -66h-198l-27 -192h-78l27 192h-198l11 66h197l44 318h-198l10 66h198z" />
    <glyph glyph-name="bullet" unicode="&#x2022;" horiz-adv-x="500" 
d="M325 531q66 0 110 -43t44 -108q0 -79 -62 -141t-142 -62q-66 0 -110 43t-44 108q0 80 62.5 141.5t141.5 61.5z" />
    <glyph glyph-name="ellipsis" unicode="&#x2026;" horiz-adv-x="1000" 
d="M183 114q23 0 37.5 -15t14.5 -37q0 -26 -21.5 -47t-47.5 -21q-22 0 -37 15t-15 36q0 28 21 48.5t48 20.5zM516 114q23 0 37.5 -15t14.5 -37q0 -26 -21.5 -47t-47.5 -21q-22 0 -37 15t-15 36q0 28 21 48.5t48 20.5zM849 114q23 0 37.5 -15t14.5 -37q0 -26 -21.5 -47
t-47.5 -21q-22 0 -37 15t-15 36q0 28 20.5 48.5t48.5 20.5z" />
    <glyph glyph-name="perthousand" unicode="&#x2030;" horiz-adv-x="1018" 
d="M81 0l548 740l51 -32l-548 -740zM276 720q57 0 97 -39.5t40 -96.5q0 -71 -55 -124.5t-126 -53.5q-59 0 -98 38.5t-39 96.5q0 70 55.5 124.5t125.5 54.5zM162 550q0 -31 23 -54.5t56 -23.5q39 0 72 32t33 71q0 31 -23.5 55t-55.5 24q-39 0 -72 -32t-33 -72zM525 302
q58 0 97.5 -39.5t39.5 -96.5q0 -70 -54.5 -124t-126.5 -54q-58 0 -97.5 38t-39.5 97q0 70 55 124.5t126 54.5zM885 302q58 0 97 -39t39 -97q0 -70 -54 -124t-126 -54q-59 0 -97.5 38t-38.5 97q0 70 54.5 124.5t125.5 54.5zM411 134q0 -32 23.5 -56t56.5 -24q38 0 71 31.5
t33 71.5q0 32 -23 55.5t-56 23.5q-38 0 -71.5 -32t-33.5 -70zM771 132q0 -32 23.5 -55.5t55.5 -23.5q39 0 72 32t33 71q0 32 -23.5 55.5t-56.5 23.5q-37 0 -70.5 -32.5t-33.5 -70.5z" />
    <glyph glyph-name="guilsinglleft" unicode="&#x2039;" horiz-adv-x="314" 
d="M92 240l173 214l50 -36l-142 -178l92 -178l-60 -36z" />
    <glyph glyph-name="guilsinglright" unicode="&#x203a;" horiz-adv-x="314" 
d="M117 418l60 36l113 -214l-173 -214l-50 36l142 178z" />
    <glyph glyph-name="fraction" unicode="&#x2044;" horiz-adv-x="167" 
d="M-166 0l548 740l50 -32l-547 -740z" />
    <glyph glyph-name="Euro" unicode="&#x20ac;" horiz-adv-x="580" 
d="M489 726q85 0 144 -32l-34 -61q-48 30 -122 30q-85 0 -150 -50.5t-99 -143.5h300l-25 -55h-291q-6 -15 -12.5 -57.5t-6.5 -64.5h257l-26 -55h-231q4 -87 58 -139.5t139 -52.5q80 0 141 40l22 -56q-76 -47 -180 -47q-108 0 -177 68.5t-75 186.5h-76l28 55h49q0 30 6 68
t12 54h-69l27 55h57q46 121 135 189t199 68z" />
    <glyph glyph-name="uni20B9" unicode="&#x20b9;" 
d="M187 708h432l-8 -60h-169q21 -13 34 -39.5t11 -54.5h110l-8 -60h-110q-21 -88 -83.5 -126.5t-164.5 -39.5l189 -328h-97l-188 338l7 51h55q82 0 131 21t68 84h-239l8 60h239q5 49 -33 71.5t-113 22.5h-79z" />
    <glyph glyph-name="uni20BA" unicode="&#x20ba;" 
d="M305 708l-19 -138l197 86l-9 -65l-195 -83l-14 -98l195 81l-9 -65l-195 -81l-39 -279q14 -2 31 -2q110 0 170.5 85.5t78.5 220.5h83q-26 -180 -109 -279t-241 -99q-78 0 -108 8l43 310l-99 -40l10 65l98 40l14 98l-99 -39l10 65l98 39l24 170h84z" />
    <glyph glyph-name="uni20BC" unicode="&#x20bc;" 
d="M390 507l-57 -403h-84l57 403q-71 -14 -111 -113.5t-70 -337.5l-7 -56h-84l9 68q37 278 93 388t181 131l17 121h84l-17 -121q82 -17 117.5 -74.5t35.5 -173.5q0 -98 -23 -271l-9 -68h-84l7 56q24 189 24 279q0 84 -19 123.5t-60 48.5z" />
    <glyph glyph-name="uni20BD" unicode="&#x20bd;" 
d="M273 630l-33 -234h102q77 0 123.5 33.5t46.5 99.5q0 101 -137 101h-102zM200 708h181q103 0 159.5 -43.5t56.5 -126.5q0 -101 -71 -160.5t-195 -59.5h-102l-9 -68h210l-11 -78h-210l-24 -172h-84l24 172h-68l11 78h68l9 68h-68l11 78h68z" />
    <glyph glyph-name="afii61289" unicode="&#x2113;" horiz-adv-x="500" 
d="M388 721q44 0 69 -27.5t25 -73.5q0 -149 -218 -345l-18 -130q-5 -38 -5 -43q0 -30 17.5 -47t47.5 -17q46 0 94 39l20 -36q-64 -55 -137 -55q-53 0 -82 27t-29 73q0 12 2 30l16 112l-68 -63l-22 38l98 84l36 261q11 76 53.5 124.5t100.5 48.5zM304 558l-31 -223
q71 71 111 145.5t40 130.5q0 26 -11 44t-33 18q-25 0 -47 -31.5t-29 -83.5z" />
    <glyph glyph-name="trademark" unicode="&#x2122;" horiz-adv-x="990" 
d="M164 708h326l-10 -66h-130l-48 -346h-66l48 346h-130zM573 708h105l79 -313l167 313h102l-58 -412h-66l48 346h-2l-184 -346h-45l-88 346h-2l-48 -346h-66z" />
    <glyph glyph-name="Omega" unicode="&#x2126;" horiz-adv-x="744" 
d="M468 721q119 0 198.5 -73t79.5 -188q0 -107 -67 -201t-172 -119l-11 -82h197l-8 -58h-251l25 181q99 15 159 93t60 179q0 93 -62 150t-159 57q-118 0 -203 -83.5t-85 -203.5q0 -80 40.5 -130t113.5 -62l-25 -181h-251l8 58h197l11 82q-75 22 -118.5 84t-43.5 145
q0 148 110.5 250t256.5 102z" />
    <glyph glyph-name="estimated" unicode="&#x212e;" horiz-adv-x="976" 
d="M900 341h-667q-6 0 -6 -6v-190q0 -21 8 -30q85 -108 251 -108q82 0 145.5 30.5t123.5 87.5h72q-63 -76 -138.5 -110t-199.5 -34q-190 0 -302 105t-112 257q0 73 29 141.5t80.5 121.5t130.5 85t172 32q92 0 164.5 -23t118 -60.5t76 -88.5t42.5 -102.5t12 -107.5zM749 368
v194q0 14 -12 28q-47 58 -116.5 82.5t-137.5 24.5q-144 0 -246 -105q-10 -12 -10 -29v-195q0 -6 6 -6h510q6 0 6 6z" />
    <glyph glyph-name="partialdiff" unicode="&#x2202;" horiz-adv-x="496" 
d="M312 721q97 0 148.5 -69.5t51.5 -196.5q0 -57 -9 -118t-30.5 -124.5t-53.5 -112.5t-81.5 -80.5t-109.5 -31.5q-78 0 -124.5 51.5t-46.5 135.5q0 100 64 175t163 75q48 0 88.5 -22.5t65.5 -61.5q14 73 14 121q0 93 -37.5 148.5t-108.5 55.5q-51 0 -118 -46l-30 43
q73 58 154 58zM121 180q0 -63 31.5 -101t83.5 -38q66 0 116 63t73 174q-60 91 -144 91q-71 0 -115.5 -57.5t-44.5 -131.5z" />
    <glyph glyph-name="Delta" unicode="&#x2206;" horiz-adv-x="670" 
d="M396 712h74l187 -712h-642zM422 645l-308 -583h455z" />
    <glyph glyph-name="product" unicode="&#x220f;" horiz-adv-x="711" 
d="M71 786h570v-1000h-66v938h-438v-938h-66v1000z" />
    <glyph glyph-name="summation" unicode="&#x2211;" horiz-adv-x="604" 
d="M39 786h527v-62h-442l309 -435l-328 -442h473v-61h-553v55l329 448l-315 441v56z" />
    <glyph glyph-name="minus" unicode="&#x2212;" horiz-adv-x="666" 
d="M119 336h522l-10 -66h-522z" />
    <glyph glyph-name="uni2215" unicode="&#x2215;" horiz-adv-x="167" 
d="M-166 0l548 740l50 -32l-547 -740z" />
    <glyph glyph-name="uni2219" unicode="&#x2219;" horiz-adv-x="278" 
d="M191 369q21 0 36.5 -15t15.5 -36q0 -27 -21 -48t-48 -21q-23 0 -37.5 15.5t-14.5 37.5q0 26 21 46.5t48 20.5z" />
    <glyph glyph-name="radical" unicode="&#x221a;" horiz-adv-x="493" 
d="M439 786h63l-210 -1000h-66l-164 340l-46 -22l-24 50l100 48l158 -332z" />
    <glyph glyph-name="infinity" unicode="&#x221e;" horiz-adv-x="780" 
d="M208 448q44 0 87 -27t99 -93q56 66 97 93t91 27q64 0 105 -42.5t41 -113.5q0 -67 -44 -113t-109 -46q-44 0 -85.5 27t-98.5 92q-56 -63 -96 -91t-94 -28q-62 0 -106 46t-44 110q0 67 44.5 113t112.5 46zM101 289q0 -46 30 -77.5t77 -31.5q21 0 38.5 6t40 24.5t34 30.5
t43.5 46q-34 43 -53 63t-48 36t-61 16q-45 0 -73 -32t-28 -81zM419 292q42 -46 60.5 -64t45 -33t54.5 -15q42 0 70.5 31.5t28.5 77.5q0 52 -27 82.5t-75 30.5q-35 0 -67.5 -23t-89.5 -87z" />
    <glyph glyph-name="integral" unicode="&#x222b;" horiz-adv-x="543" 
d="M316 742q-35 0 -35 -134q0 -5 1 -31.5t1 -41.5v-511q0 -51 -4.5 -88.5t-16.5 -74t-37.5 -55.5t-63.5 -19q-27 0 -43.5 13t-16.5 34q0 14 9.5 23t23.5 9q20 0 31.5 -19t18.5 -19q32 0 32 130q0 12 0.5 38.5t0.5 34.5v455q0 14 -1 54.5t-1 53.5q0 192 120 192
q32 0 51.5 -13.5t19.5 -37.5q0 -15 -10 -24t-26 -9q-21 0 -33.5 20t-20.5 20z" />
    <glyph glyph-name="approxequal" unicode="&#x2248;" horiz-adv-x="666" 
d="M609 402h43q-19 -67 -55.5 -102t-86.5 -35q-42 0 -139.5 36.5t-128.5 36.5q-29 0 -53.5 -21.5t-36.5 -58.5h-45q14 63 53 101t90 38q42 0 138 -36.5t131 -36.5q65 0 90 78zM584 232h44q-19 -67 -56 -102.5t-87 -35.5q-43 0 -139 36.5t-128 36.5q-30 0 -55 -22t-35 -58
h-45q41 140 143 140q43 0 136.5 -36.5t132.5 -36.5q61 0 89 78z" />
    <glyph glyph-name="notequal" unicode="&#x2260;" horiz-adv-x="666" 
d="M416 370l97 147l48 -28l-79 -119h154l-9 -60h-186l-87 -130h255l-9 -60h-287l-96 -144l-48 27l78 117h-149l9 60h181l86 130h-249l9 60h282z" />
    <glyph glyph-name="lessequal" unicode="&#x2264;" horiz-adv-x="666" 
d="M661 550l-9 -65l-441 -157l397 -155l-9 -65l-476 188l9 65zM91 65h502l-9 -59h-502z" />
    <glyph glyph-name="greaterequal" unicode="&#x2265;" horiz-adv-x="666" 
d="M150 485l9 65l475 -189l-9 -65l-528 -188l9 65l442 155zM91 65h502l-9 -59h-502z" />
    <glyph glyph-name="lozenge" unicode="&#x25ca;" horiz-adv-x="593" 
d="M264 747h63l171 -391l-171 -391h-63l-169 390zM296 681l-136 -325l136 -325l137 325z" />
    <glyph glyph-name="uniF8FF" unicode="&#xf8ff;" horiz-adv-x="512" 
d="M0 718h512v-718h-512v718zM50 50h412v617h-412v-617zM261 609q54 0 88 -36t34 -95q0 -43 -23 -75t-50.5 -56t-32.5 -42q-6 -19 -6 -71h-46q-2 18 -2 25q2 51 13 73q14 27 39 51.5t41 44.5t16 46q0 36 -22.5 60.5t-53.5 24.5q-34 0 -55.5 -24.5t-26.5 -70.5l-50 8
q6 67 41 102t96 35zM222 117v67h56v-67h-56z" />
    <glyph glyph-name="grave.cap" horiz-adv-x="240" 
d="M101 902h110l84 -144h-71z" />
    <glyph glyph-name="acute.cap" horiz-adv-x="240" 
d="M281 902h110l-163 -144h-71z" />
    <glyph glyph-name="circumflex.cap" horiz-adv-x="240" 
d="M200 902h91l92 -144h-81l-65 102l-92 -102h-76z" />
    <glyph glyph-name="caron.cap" horiz-adv-x="240" 
d="M90 902h81l64 -102l91 102h76l-130 -144h-91z" />
    <glyph glyph-name="caron.alt" horiz-adv-x="240" 
d="M199 708h86l-97 -177h-66z" />
    <glyph glyph-name="tilde.cap" horiz-adv-x="240" 
d="M362 878h48q-15 -49 -43.5 -76.5t-64.5 -27.5q-29 0 -75.5 20t-64.5 20q-30 0 -53 -44h-48q14 48 44.5 76t69.5 28q29 0 73.5 -20t59.5 -20q34 0 54 44z" />
    <glyph glyph-name="dieresis.cap" horiz-adv-x="240" 
d="M144 878q20 0 33 -13t13 -33q0 -26 -17.5 -44t-43.5 -18q-23 0 -35 13.5t-12 32.5q0 26 18.5 44t43.5 18zM342 878q20 0 33.5 -13.5t13.5 -32.5q0 -25 -18.5 -43.5t-43.5 -18.5q-22 0 -35 13.5t-13 32.5q0 25 19 43.5t44 18.5z" />
    <glyph glyph-name="macron.cap" horiz-adv-x="240" 
d="M102 854h276l-9 -60h-276z" />
    <glyph glyph-name="breve.cap" horiz-adv-x="240" 
d="M92 896h49q2 -37 26.5 -57.5t66.5 -20.5q45 0 72 18t44 60h48q-15 -63 -60 -97.5t-112 -34.5q-65 0 -100 32.5t-35 82.5z" />
    <glyph glyph-name="ring.cap" horiz-adv-x="240" 
d="M250 928q38 0 62 -23.5t24 -60.5q0 -45 -34 -79.5t-80 -34.5q-38 0 -62 24t-24 62q0 44 34.5 78t79.5 34zM178 822q0 -21 14 -35.5t36 -14.5q26 0 46 19.5t20 45.5q0 20 -15 34.5t-36 14.5q-24 0 -44.5 -20t-20.5 -44z" />
    <glyph glyph-name="hungarumlaut.cap" horiz-adv-x="240" 
d="M204 902h96l-149 -144h-67zM369 902h102l-163 -144h-68z" />
    <glyph glyph-name="dotaccent.cap" horiz-adv-x="240" 
d="M243 878q20 0 33.5 -13t13.5 -33q0 -26 -18.5 -44t-43.5 -18q-22 0 -34.5 13.5t-12.5 31.5q0 26 18.5 44.5t43.5 18.5z" />
    <glyph glyph-name="commaaccent" horiz-adv-x="240" 
d="M81 -61h86l-96 -167h-66z" />
    <glyph glyph-name="commaaccent.alt" horiz-adv-x="240" 
d="M223 751h66l-75 -167h-86z" />
    </font>
</defs>
</svg>
