<?xml version="1.0" standalone="no"?>
<!DOCTYPE svg PUBLIC "-//W3C//DTD SVG 1.1//EN" "http://www.w3.org/Graphics/SVG/1.1/DTD/svg11.dtd" >
<svg xmlns="http://www.w3.org/2000/svg" xmlns:xlink="http://www.w3.org/1999/xlink" version="1.1">
<metadata>
Created by FontForge 20190801 at Thu Feb 16 18:02:35 2017
 By www-data
Copyright (c) 2017 by Misti's Fonts. All rights reserved.
</metadata>
<defs>
<font id="ILoveGlitterOTF" horiz-adv-x="533" >
  <font-face 
    font-family="ILoveGlitterOTF"
    font-weight="400"
    font-stretch="normal"
    units-per-em="1000"
    panose-1="0 0 0 0 0 0 0 0 0 0"
    ascent="800"
    descent="-200"
    x-height="343"
    cap-height="700"
    bbox="-196 -284 2955.04 854"
    underline-thickness="50"
    underline-position="-100"
    unicode-range="U+000D-E106"
  />
<missing-glyph horiz-adv-x="181" 
 />
    <glyph glyph-name="t_t" unicode="tt" horiz-adv-x="653" 
d="M443 40q83 0 210 256q6 11 18 11q8 0 13.5 -6.5t5.5 -14.5q0 -7 -9 -24q-21 -39 -33 -61.5t-40 -66t-50.5 -68.5t-54 -45.5t-60.5 -20.5q-94 0 -113 217q-117 -217 -214 -217q-117 0 -117 349q0 18 0.5 53t0.5 51h-2q-55 -11 -89 -11q-49 0 -74 19q-28 19 -28 59
q0 9 6 14.5t14 5.5t14 -5.5t6 -14.5q0 -18 11 -27q31 -22 132 -1q5 0 11 2q7 203 55 203q17 0 29 -16t16.5 -41t6.5 -44.5t2 -38.5q0 -11 -2 -35q70 20 105 31q15 5 57 17.5t64 18.5q13 108 49 108q40 0 50 -83h1q115 23 157 -7q26 -19 26 -56q0 -8 -6 -14t-14 -6t-14 6
t-6 14q0 16 -10 24q-26 20 -125 0q-2 -1 -5 -1v-17q0 -73 -23 -152t-47 -116q0 -46 6.5 -99.5t25 -101.5t44.5 -48zM116 40q83 0 210 256v53q0 142 4 198q-15 -4 -50.5 -15.5t-54.5 -16.5q-82 -26 -122 -37q-20 -123 -63 -189q0 -46 6.5 -99.5t25 -101.5t44.5 -48zM397 564
l-24 -5q-6 -74 -6 -173q30 87 30 159v19zM57 647q-9 -51 -15 -143q18 4 26 7q2 22 2 34q0 72 -13 102zM62 467q-14 -4 -21 -5q-1 -28 -1 -76q15 43 22 81zM384 647q-3 -17 -7 -46q10 2 17 4q-4 25 -10 42z" />
    <glyph glyph-name=".notdef" horiz-adv-x="181" 
 />
    <glyph glyph-name=".null" horiz-adv-x="0" 
 />
    <glyph glyph-name="nonmarkingreturn" horiz-adv-x="333" 
 />
    <glyph glyph-name="NULL" horiz-adv-x="0" 
 />
    <glyph glyph-name="NULL" horiz-adv-x="0" 
 />
    <glyph glyph-name="CR" unicode="&#xd;" horiz-adv-x="181" 
 />
    <glyph glyph-name="space" unicode=" " horiz-adv-x="181" 
 />
    <glyph glyph-name="exclam" unicode="!" horiz-adv-x="192" 
d="M129 128q-8 0 -14 6.5t-6 14.5l7 522q0 8 6 14t14 6t14 -6.5t6 -14.5l-7 -523q0 -8 -6 -13.5t-14 -5.5zM107 26q2 6 2 8l-1 2q0 1 -1 3t-1 3q-7 19 12 26t26 -12q6 -18 3 -38q-3 -16 -20 -16h-4q-8 1 -13 8.5t-3 15.5z" />
    <glyph glyph-name="quotedbl" unicode="&#x22;" horiz-adv-x="237" 
d="M58 329q-7 4 -7 14q-3 29 -3.5 72.5t1 72.5t2.5 30q2 8 9 12t15 3q18 -9 13 -26v-27q-1 -28 -1 -68.5t2 -65.5q3 -19 -18 -23q-6 1 -13 6zM157 329q-7 4 -7 14q-3 29 -3.5 72.5t1 72.5t2.5 30q2 8 9 12t15 3q18 -9 13 -26l-1 -27v-68.5t2 -65.5q3 -19 -18 -23q-6 1 -13 6
z" />
    <glyph glyph-name="numbersign" unicode="#" horiz-adv-x="432" 
d="M333 679q5 -5 4 -16q-5 -42 -22 -209l24 2q19 3 23 -18q-1 -6 -6 -13q-4 -7 -14 -7l-31 -3l-18 -167l24 2q19 3 23 -18q-1 -6 -6 -13q-4 -7 -14 -7l-31 -3l-22 -192q-9 -16 -27 -9q-15 12 -7 28v2.5t0.5 8t1 12.5t2 17t2 20.5t2 23.5t3 27t3.5 29.5t3 31.5q-77 -2 -150 0
q-20 -191 -21 -191q-9 -16 -27 -9q-15 12 -7 28v2.5t0.5 8t1 12.5t2 17t2 20.5t2 23.5t3 27t3.5 29.5t3 31.5l-32 2q-8 2 -12 9t-3 15q9 18 26 13h25l17 167l-31 2q-8 2 -12 9t-3 15q9 18 26 13h24q19 180 24 216q1 17 23 19q2 -1 6 -4.5t5 -4.5q5 -5 4 -16q-1 -10 -4 -39.5
t-8 -79t-10 -91.5h42h54h52q18 175 24 216q1 17 23 19q2 -1 6 -4.5t5 -4.5zM105 247h42h54.5h52.5l17 167q-77 -2 -149 0q-3 -26 -8.5 -82.5t-8.5 -84.5z" />
    <glyph glyph-name="dollar" unicode="$" horiz-adv-x="320" 
d="M271 478q-8 1 -13 7.5t-4 14.5q7 53 -12 81t-51 32q-2 1 -5 1q2 -110 2 -236q48 -29 73 -62q41 -57 26 -148q-8 -47 -32.5 -79.5t-60.5 -45.5q-5 -2 -15 -4q0 -4 -0.5 -11.5t-0.5 -10.5q-2 -18 -20 -18h-2q-8 1 -13.5 7t-4.5 14q0 3 0.5 8.5t0.5 8.5q-39 5 -69 30
q-67 59 -45 165q4 20 23 16q8 -1 13 -8.5t3 -15.5q-17 -84 32 -127q20 -17 46 -20q6 126 6 279q-27 16 -42.5 27.5t-34.5 32t-25.5 47.5t-1.5 62q8 63 56 102q23 17 45 22q-1 16 -1 26q0 8 5.5 14t14.5 6q8 1 14 -5t6 -14t1 -22q7 0 11 -1q48 -7 77.5 -48t19.5 -110
q-1 -8 -7.5 -13t-14.5 -4zM247 175q10 60 -5.5 94.5t-53.5 61.5q0 -135 -6 -250q53 20 65 94zM83 519q-6 -42 10.5 -67t54.5 -49q0 105 -2 205q-53 -23 -63 -89z" />
    <glyph glyph-name="percent" unicode="%" horiz-adv-x="339" 
d="M233 2q-7 0 -10 1q-37 8 -56.5 43.5t-14.5 84.5q5 42 27 76q27 38 67 38h7q38 -5 56 -38q13 -27 12 -66q-3 -52 -24 -90q-26 -49 -64 -49zM86 438q-36 0 -54 38q-13 27 -13 70q0 51 19 91q23 51 65 51h1q39 0 61 -32q15 -26 15 -65q0 -50 -25 -98q-29 -55 -69 -55z
M282 676q4 -7 1 -16q-8 -25 -60.5 -189.5t-100 -312.5t-48.5 -148q-11 -15 -28 -4q-12 16 -1 29l46 148q46 148 96.5 307t59.5 183q4 18 26 14q3 -2 9 -11zM249 205h-3q-21 0 -36 -23.5t-18 -54.5q-3 -30 6.5 -55t32.5 -30h2q13 0 28 28q18 35 20 72q3 60 -32 63zM104 648
h-1q-17 0 -30.5 -31t-13.5 -71q0 -29 7.5 -48.5t19.5 -19.5q16 0 34 33q20 40 20 80q0 57 -36 57z" />
    <glyph glyph-name="ampersand" unicode="&#x26;" horiz-adv-x="385" 
d="M375 -104q5 -19 -15 -23q-3 -1 -9 -1q-19 0 -36 14q-46 36 -108 183q-71 -70 -117 -73q-49 -3 -63 56q-8 36 3 96.5t26.5 107t45.5 128.5q-34 128 -34 180q-2 93 50 122q29 16 54 -1q38 -24 33 -92q-4 -55 -61 -210q19 -73 47 -157q20 -58 31 -84l7 8q78 88 109 139
q5 11 20 11q8 -1 13.5 -7.5t4.5 -14.5q-2 -9 -34 -52q-29 -40 -72 -90l-32 -36q17 -44 30 -70q43 -91 72 -113q8 -7 12 -5q8 2 15 -3t8 -13zM82 36q33 -4 109 73q-9 22 -22.5 61t-15.5 44q-3 9 -15 46.5t-18 57.5q-68 -195 -54 -258q6 -23 16 -24zM137 651q-30 -17 -29 -87
q0 -32 18 -112q37 101 39 144q4 44 -14 55q-2 2 -6 2q-5 0 -8 -2z" />
    <glyph glyph-name="quotesingle" unicode="'" horiz-adv-x="122" 
d="M51 329q-7 4 -7 14q-3 29 -3.5 72.5t1 72.5t2.5 30q2 8 9 12t15 3q18 -9 13 -26l-1 -27v-68.5t2 -65.5q3 -19 -18 -23q-6 1 -13 6z" />
    <glyph glyph-name="parenleft" unicode="(" horiz-adv-x="285" 
d="M211 -147q-13 0 -17 10q-103 187 -140 273q-48 113 -47 194q2 83 55.5 159.5t175.5 188.5q15 13 29 -1q5 -6 5 -14.5t-7 -13.5q-115 -107 -165.5 -177t-52.5 -143q-1 -71 44 -178q33 -78 138 -269q9 -16 -8 -27q-6 -2 -10 -2z" />
    <glyph glyph-name="parenright" unicode=")" horiz-adv-x="285" 
d="M74 -147q-4 0 -10 2q-17 11 -8 27q105 191 138 269q45 107 44 178q-2 73 -52.5 143t-165.5 177q-7 5 -7 13.5t5 14.5q14 14 29 1q122 -112 175.5 -188.5t55.5 -159.5q1 -81 -47 -194q-37 -86 -140 -273q-4 -10 -17 -10z" />
    <glyph glyph-name="asterisk" unicode="*" horiz-adv-x="471" 
d="M203 568q16 41 51.5 75.5t75.5 34.5q26 0 44 -15t18 -40q0 -33 -32 -71t-74.5 -77t-55.5 -60q-15 11 -56 32.5t-72.5 39t-58 46.5t-26.5 61q0 26 18.5 43t45.5 17q54 0 122 -86z" />
    <glyph glyph-name="plus" unicode="+" horiz-adv-x="263" 
d="M250 219q-4 -7 -14 -7q-31 -4 -86 -4q0 -50 3 -80q3 -19 -18 -23q-6 1 -13 6q-7 4 -7 14q-4 28 -4 82q-86 0 -86 3q-8 2 -12 9t-3 15q9 18 26 13h74q0 86 3 89q2 8 9 12t15 3q18 -9 13 -26v-78q52 0 83 3q19 3 23 -18q-1 -6 -6 -13z" />
    <glyph glyph-name="comma" unicode="," horiz-adv-x="120" 
d="M47 -89q-8 0 -14 5.5t-6 14.5q0 12 11 18q25 12 25 47q-2 28 -22 33q-15 3 -15 20q0 8 6.5 14t14.5 6q23 0 39.5 -25t16.5 -51q0 -28 -15 -53.5t-41 -28.5z" />
    <glyph glyph-name="hyphen" unicode="-" horiz-adv-x="334" 
d="M285 219q-4 -7 -14 -7q-30 -3 -82 -4t-90 0t-39 2q-8 2 -12 9t-3 15q9 18 26 13q8 1 39 0.5t82 0t76 2.5q19 3 23 -18q-1 -6 -6 -13z" />
    <glyph glyph-name="period" unicode="." horiz-adv-x="121" 
d="M38 26q2 6 2 8v2q-1 1 -2 3t-1 3q-7 19 12 26t26 -12q6 -18 3 -38q-3 -16 -20 -16h-4q-8 1 -13 8.5t-3 15.5z" />
    <glyph glyph-name="slash" unicode="/" horiz-adv-x="251" 
d="M246 676q4 -7 1 -16q-8 -25 -60.5 -189.5t-100 -312.5t-48.5 -148q-11 -15 -28 -4q-12 16 -1 29l46 148q46 148 96.5 307t59.5 183q4 18 26 14q3 -2 9 -11z" />
    <glyph glyph-name="zero" unicode="0" horiz-adv-x="429" 
d="M184 -2h-1q-49 0 -87 41q-45 49 -65 147q-17 80 -10 166q9 131 67 231q28 48 66 80q43 34 89 35q8 1 14 -4.5t7 -13.5q0 -16 -14 -21q49 -8 85 -45q41 -41 61 -113q19 -71 13 -152q-8 -118 -64 -222q-31 -59 -68 -90q-43 -39 -93 -39zM197 644q-55 -31 -92 -114.5
t-45 -180.5q-5 -82 10 -155q18 -87 55 -128q25 -28 59 -28q67 0 126 107q53 100 59 207q5 75 -11.5 137.5t-50.5 96.5q-38 38 -89 35q-8 -1 -14.5 5t-6.5 14v4z" />
    <glyph glyph-name="one" unicode="1" horiz-adv-x="197" 
d="M127 -5h-2q-8 1 -13.5 7.5t-4.5 14.5q25 268 29 422q2 98 -3 154q-6 49 -14 63q-11 -8 -25 -31q-20 -34 -52 -110q-7 -18 -26 -11q-18 7 -11 26q36 87 62 126q30 48 61 41q32 -8 43 -84q7 -50 5 -159q-3 -159 -29 -441q-2 -18 -20 -18z" />
    <glyph glyph-name="two" unicode="2" horiz-adv-x="419" 
d="M198 0q-26 0 -62 2q-97 7 -114 49q-16 38 35 98q35 43 137 131q89 75 123 171q33 91 2 147q-21 39 -68 50q-55 14 -142 -10q-8 -2 -15.5 2t-9.5 12t2 15t12 9q93 28 162 11q64 -15 94 -70q40 -72 1 -180q-39 -106 -135 -188q-98 -84 -132 -125q-35 -42 -29 -58
q5 -18 80 -24q82 -6 250 7q8 1 14.5 -4.5t7.5 -13.5t-5 -14.5t-14 -7.5q-120 -9 -194 -9z" />
    <glyph glyph-name="three" unicode="3" horiz-adv-x="345" 
d="M146 -4q-20 0 -30 2q-55 8 -100 42q-15 13 -3 28q5 7 13 8t15 -4q35 -27 79 -34.5t82 8.5q67 28 80 108q10 75 -31 106q-24 18 -84 30q-13 1 -26 5q-21 8 -25 21q-4 16 12 33q78 73 115 156q31 75 8 115q-17 29 -64 36q-57 8 -152 -18q-20 -5 -25 13q-5 19 14 25
q104 29 169 20q67 -10 93 -56q34 -59 -7 -151q-33 -79 -112 -159q1 0 3.5 -0.5t3.5 -0.5q69 -12 101 -37q60 -46 46 -143q-8 -52 -36 -88q-26 -35 -67 -52q-33 -13 -72 -13z" />
    <glyph glyph-name="four" unicode="4" horiz-adv-x="429" 
d="M291 0h-2q-18 0 -20 18q-10 88 -8 232h-44q-66 0 -93 4q-88 9 -107 55q-20 50 43 141q68 96 216 238q2 2 7 6h1q1 1 3 1q5 1 9 0h2q1 -1 3 -1q9 -6 11 -15v-8q-2 -79 -4 -116q-6 -162 -7 -264q16 0 49.5 0.5t50.5 0.5q9 0 14.5 -6t5.5 -14t-5.5 -14t-14.5 -6
q-17 0 -50 -0.5t-49 -0.5h-1q-2 -142 8 -229q1 -8 -4.5 -14.5t-13.5 -7.5zM93 427q-50 -72 -39 -102q11 -25 75 -32q42 -5 132 -3q1 102 7 266l3 71q-127 -125 -178 -200z" />
    <glyph glyph-name="five" unicode="5" horiz-adv-x="373" 
d="M123 -4q-43 0 -94 14q-8 2 -12 9.5t-2 15.5t9.5 12t15.5 2q75 -22 136 -6t97 66q34 48 36.5 108t-28.5 104q-62 90 -208 51q-28 -8 -42 19q-19 38 -2 147q6 38 16 76t22 48q48 41 210 36q50 -2 57 1q20 5 25 -13q3 -8 -1 -15.5t-12 -9.5q-15 -5 -70 -3q-148 3 -182 -26
q-15 -20 -27 -112q-12 -84 -1 -109q85 23 151 3q62 -19 97 -70q38 -55 35.5 -127.5t-43.5 -130.5q-41 -57 -109 -79q-36 -11 -74 -11z" />
    <glyph glyph-name="six" unicode="6" horiz-adv-x="367" 
d="M179 -4h-17q-72 6 -110 95q-34 76 -34 187q-2 153 52 273q28 63 69 102q48 43 104 49q8 1 14.5 -4.5t7.5 -13.5t-4.5 -14.5t-13.5 -7.5q-86 -8 -141 -128q-29 -66 -42 -155q135 66 223 -16q50 -48 62 -126t-17 -141q-21 -50 -63 -76q-39 -24 -90 -24zM60 342
q-3 -35 -2 -63q1 -61 12 -113.5t36 -89.5t59 -40q94 -7 131 76q24 54 13.5 119.5t-50.5 102.5q-68 65 -180 7q-9 -4 -19 1z" />
    <glyph glyph-name="seven" unicode="7" horiz-adv-x="372" 
d="M180 -4h-4q-20 4 -16 23q20 118 85 326q54 165 72 267q5 27 -6 38q-16 16 -67 11q-32 -2 -125 -20q-62 -12 -93 -17q-20 -2 -22 17q-4 19 16 23q33 4 91 16q67 13 98.5 18t71 2t58.5 -21q26 -26 18 -74q-19 -100 -74 -272q-63 -199 -84 -321q-2 -16 -19 -16z" />
    <glyph glyph-name="eight" unicode="8" horiz-adv-x="401" 
d="M332 311q53 -53 51 -124q0 -61 -51 -119q-58 -66 -144 -69h-5q-71 0 -116 47q-25 25 -41 65q-13 35 -11 67q2 71 43 117q28 34 74 48l-3 3t-4 3.5t-3 3.5q-27 27 -40.5 70.5t-11.5 83.5q1 70 34 112q29 40 87 49q-1 2 -1 5q-1 8 4.5 14.5t13.5 7.5q58 3 99 -36
q56 -53 53 -146q-2 -63 -40 -122q-22 -31 -43 -45q33 -14 55 -35zM343 188q2 55 -39 94q-37 35 -92 37h-10q-4 -6 -13 -6q-41 -2 -69.5 -18t-41.5 -39.5t-18 -42t-5 -37.5q-2 -59 41 -102q35 -37 91 -35q67 2 115 55q41 48 41 94zM109 505q-1 -32 9.5 -67.5t31.5 -56.5
q19 -19 42 -22q6 1 18 1q44 5 76 54q34 49 34 100q3 74 -41 117q-23 21 -52 24q0 -3 1 -4q0 -19 -19 -21q-18 -1 -32.5 -6t-30.5 -17.5t-25.5 -38t-11.5 -63.5z" />
    <glyph glyph-name="nine" unicode="9" horiz-adv-x="370" 
d="M115 -1q-22 0 -43 6q-19 5 -14 25q6 19 24 14q60 -17 104.5 20t71.5 91q24 49 38 106q-89 -28 -151 -10q-63 17 -96 73q-43 77 -25 182q17 104 77 157q32 28 69 29q41 2 79 -28q93 -73 102 -243q6 -157 -57 -284q-71 -138 -179 -138zM174 652q-25 0 -47 -19
q-48 -43 -64 -133q-16 -93 21 -155q55 -96 210 -42q3 1 10 1q10 62 7 115q-8 152 -87 213q-24 20 -50 20z" />
    <glyph glyph-name="colon" unicode=":" horiz-adv-x="168" 
d="M74 26q2 6 2 8v2q-1 1 -2 3t-1 3q-7 19 12 26t26 -12q6 -18 3 -38q-3 -16 -20 -16h-4q-8 1 -13 8.5t-3 15.5zM74 302q2 6 2 8v2q-1 1 -2 3t-1 3q-7 19 12 26t26 -12q6 -18 3 -38q-3 -16 -20 -16h-4q-8 1 -13 8.5t-3 15.5z" />
    <glyph glyph-name="semicolon" unicode=";" horiz-adv-x="125" 
d="M53 -89q-13 0 -18 11q-9 18 9 27q27 14 25 47q-2 28 -22 33q-8 2 -12 9.5t-2 15.5q7 19 25 14q46 -15 51 -69q1 -25 -9 -48q-13 -25 -38 -38q-6 -2 -9 -2zM39 302q2 6 2 8l-1 2q0 1 -1 3t-1 3q-7 19 12 26t26 -12q6 -18 3 -38q-3 -16 -20 -16h-4q-8 1 -13 8.5t-3 15.5z
" />
    <glyph glyph-name="less" unicode="&#x3c;" horiz-adv-x="391" 
d="M347 42q-2 0 -10 2q-30 17 -92 44q-98 44 -142 71q-79 45 -92 91q-9 30 2 55q11 24 38 41q33 23 138 61q109 42 150 60q18 9 26 -10q9 -18 -10 -26q-52 -23 -152 -61t-131.5 -58.5t-22.5 -50.5q7 -22 46 -49t75 -44.5t92 -42.5q74 -34 95 -46q17 -9 8 -27q-7 -10 -18 -10
z" />
    <glyph glyph-name="equal" unicode="=" horiz-adv-x="342" 
d="M288 182q-4 -7 -14 -7q-30 -3 -82 -4t-90 0t-39 2q-8 2 -12 9t-3 15q9 18 26 13q8 1 39 0.5t82 0t76 2.5q19 3 23 -18q-1 -6 -6 -13zM287 274q-4 -7 -14 -7q-30 -3 -82 -4t-90 0t-39 2q-8 2 -12 9t-3 15q9 18 26 13q8 1 39 0.5t82 0t76 2.5q19 3 23 -18q-1 -6 -6 -13z
" />
    <glyph glyph-name="greater" unicode="&#x3e;" horiz-adv-x="391" 
d="M44 42q-11 0 -18 10q-9 18 8 27q21 12 95 46q56 25 92 42.5t75 44.5t46 49q9 30 -22.5 50.5t-131.5 58.5t-152 61q-19 8 -10 26q8 19 26 10q41 -18 150 -60q105 -38 138 -61q27 -17 38 -41q11 -25 2 -55q-13 -46 -92 -91q-44 -27 -142 -71q-62 -27 -92 -44q-8 -2 -10 -2z
" />
    <glyph glyph-name="question" unicode="?" horiz-adv-x="359" 
d="M190 135q-6 0 -9 2q-8 4 -10 11.5t2 15.5q71 134 107 294q19 92 17 135.5t-17 54.5q-17 11 -61 -17q-58 -36 -151 -140q-14 -15 -28 -1q-15 13 -2 28q93 104 159 147q67 42 106 16q33 -24 34 -93q2 -56 -18 -139q-36 -160 -111 -304q-6 -10 -18 -10zM169 26q2 6 2 8l-1 2
q0 1 -1 3t-1 3q-7 19 12 26t26 -12q6 -18 3 -38q-3 -16 -20 -16h-4q-8 1 -13 8.5t-3 15.5z" />
    <glyph glyph-name="at" unicode="@" horiz-adv-x="547" 
d="M210 -1q-51 0 -90 27q-75 49 -103 174q-26 111 -4 237q17 96 58 162q45 74 113 91q55 14 105 -18q40 -24 77 -81q51 -81 70 -187q19 -108 -14 -149q-27 -33 -64 -24q-19 4 -47 26q-3 1 -13 9q-23 -30 -52 -51t-56 -21q-10 0 -22 5q-32 12 -41 60q-10 44 2 123q9 65 29 99
q22 38 55 35q43 -3 69 -70q26 -60 23 -138v-2h1q2 -1 3 -1q4 -2 25 -16q25 -18 36 -20t21 11q21 27 5 117q-18 101 -64 173q-64 99 -138 81q-51 -12 -89 -73q-38 -59 -53 -148q-20 -114 4 -221q25 -110 86 -150q79 -52 202 28q7 5 15.5 3t12.5 -9q11 -16 -6 -27
q-73 -48 -137 -54q-7 -1 -19 -1zM209 476q-5 0 -11.5 -7t-15.5 -31t-14 -62q-10 -68 -2 -109q5 -26 17 -31q13 -6 38 10.5t49 48.5q-5 7 -5 14q2 70 -20 122q-18 45 -36 45z" />
    <glyph glyph-name="A" unicode="A" horiz-adv-x="736" 
d="M526 40q83 0 210 256q6 11 18 11q8 0 13.5 -6.5t5.5 -14.5q0 -7 -9 -24q-21 -39 -33 -61.5t-40 -66t-50.5 -68.5t-54 -45.5t-60.5 -20.5q-43 0 -73.5 40.5t-42.5 107.5q-24 -67 -63.5 -106t-86.5 -39q-60 0 -108 61.5t-59 156.5q-42 0 -68.5 21t-26.5 46q0 8 6 14t14 6
t14 -6t6 -14q0 -4 5.5 -10t18 -11.5t28.5 -5.5q0 3 -0.5 8t-0.5 7q0 162 68 268t148 106q47 0 83.5 -44t36.5 -110q0 -67 -47 -126.5t-112.5 -95.5t-133.5 -49q10 -78 46.5 -130t80.5 -52q51 0 90 68.5t58 189.5q3 17 19 17q21 0 21 -22q0 -10 -2 -30t-2 -33q0 -81 23 -137
t60 -56zM305 610q-57 0 -105 -73q-71 -107 -71 -260q0 -2 0.5 -6t0.5 -6q52 9 111 43t100 78q44 47 44 109q0 49 -24.5 82t-55.5 33z" />
    <glyph glyph-name="B" unicode="B" horiz-adv-x="592" 
d="M222 -20q-53 0 -90 34t-37 86q0 8 6 14t14 6t14 -6t6 -14q0 -35 25 -57.5t62 -22.5q69 0 110 39t41 90q0 58 -50 94t-133 36q-8 0 -14 6t-6 14t6 14t14 6q70 0 119 71q44 65 44 142q0 79 -47 79q-50 0 -98 -75.5t-88 -215.5q-19 -69 -32.5 -130.5t-18.5 -93t-9 -55.5
t-8 -32.5t-13 -9.5q-18 0 -21 15q-18 69 -18 249q0 176 16 299q13 92 34 122q12 15 27 15q7 0 13.5 -2.5t14.5 -9.5t13 -24t5 -41q0 -131 -83 -329q0 -88 2 -127q28 138 63.5 242t88 173.5t112.5 69.5q40 0 63.5 -31.5t23.5 -87.5q0 -66 -31 -128.5t-80 -96.5
q62 -19 96.5 -61t34.5 -97q0 -46 -25 -85q67 37 119.5 98.5t84.5 134.5q5 12 18 12q8 0 14 -6t6 -14q0 -2 -2 -8q-54 -127 -167 -214t-239 -87zM79 655q-4 -7 -10.5 -35t-14 -84t-10.5 -117q39 120 39 203q0 23 -4 33z" />
    <glyph glyph-name="C" unicode="C" horiz-adv-x="551" 
d="M304 610q-44 0 -67.5 -73t-23.5 -175q0 -21 2 -61q66 45 101 115t35 125q0 69 -47 69zM339 0q-21 0 -41 10t-42.5 33.5t-42 73.5t-31.5 120q-48 -21 -90 -21q-94 0 -94 72q0 8 6 14t14 6t14 -6t6 -14q0 -20 11.5 -26t41.5 -6q14 0 48.5 8t37.5 15q-4 36 -4 83
q0 117 29 193q35 95 102 95q40 0 63.5 -30t23.5 -80q0 -74 -48.5 -156t-122.5 -128q13 -95 45 -155.5t74 -60.5q83 0 210 256q6 11 18 11q8 0 13.5 -6.5t5.5 -14.5q0 -7 -9 -24q-21 -39 -33 -61.5t-40 -66t-50.5 -68.5t-54 -45.5t-60.5 -20.5z" />
    <glyph glyph-name="D" unicode="D" horiz-adv-x="592" 
d="M220 -20q-53 0 -90 38t-37 92q0 8 6 14t14 6t14 -6t6 -14q0 -35 24.5 -62.5t62.5 -27.5q84 0 137 97t53 241q0 101 -27.5 177t-78.5 76q-50 0 -98 -75.5t-88 -215.5q-19 -69 -32.5 -130.5t-18.5 -93t-9 -55.5t-8 -32.5t-13 -9.5q-18 0 -21 15q-17 65 -17 232
q0 186 18 319q12 95 33 120q11 14 25 14q7 0 13.5 -3t14.5 -11.5t12.5 -27t4.5 -45.5q0 -53 -17 -118.5t-63 -198.5q-1 -18 -1 -54q0 -26 2 -72q39 209 108 345.5t155 136.5q65 0 105.5 -83t40.5 -210q0 -202 -91 -309q76 34 137 100.5t96 147.5q5 12 18 12q8 0 14 -6t6 -14
q0 -2 -2 -8q-54 -128 -168 -214.5t-240 -86.5zM76 650q-17 -38 -31 -213q35 109 35 175q0 22 -4 38z" />
    <glyph glyph-name="E" unicode="E" horiz-adv-x="583" 
d="M353 40q103 0 230 256q6 11 18 11q8 0 13.5 -6.5t5.5 -14.5q0 -7 -9 -24q-20 -39 -33 -62t-41.5 -66t-53.5 -68t-60 -45.5t-70 -20.5q-78 0 -124 37t-46 98q0 48 29 92t81 66q-23 11 -39 27q-118 -95 -181 -95q-49 0 -73 55q-2 6 -2 8q0 7 6 13.5t14 6.5q13 0 18 -12
q14 -31 37 -31q25 0 69 23t85 62q-37 51 -37 118q0 76 46.5 137t106.5 61q37 0 59.5 -23.5t22.5 -63.5q0 -108 -141 -233q41 -35 103 -35q8 0 14 -6t6 -14t-6 -14t-14 -6q-76 0 -120 -41t-44 -95q0 -43 37.5 -69t92.5 -26zM343 626q-40 0 -76.5 -47.5t-36.5 -110.5
q0 -52 27 -92q57 47 92.5 102.5t35.5 100.5q0 47 -42 47z" />
    <glyph glyph-name="F" unicode="F" horiz-adv-x="691" 
d="M419 67q33 26 104.5 73.5t109.5 81t58 74.5q6 11 18 11q7 0 13 -6.5t6 -14.5q0 -3 -2 -9q-17 -35 -50 -68t-65 -56t-92 -65t-101 -74q-6 -131 -36.5 -200.5t-69.5 -69.5q-22 0 -35.5 21.5t-13.5 54.5q0 52 28 105q29 55 87 108q2 64 2 102q-38 -38 -89.5 -60.5
t-101.5 -22.5q-88 0 -139.5 60.5t-51.5 175.5q0 8 6 14t14 6t14 -6t6 -14q0 -96 39 -146t112 -50q53 0 106 29.5t85 75.5q0 17 -0.5 55.5t-0.5 59.5q0 123 9 225q8 92 23 126t39 34q14 0 23 -12q17 -24 17 -121q0 -107 -20 -221t-50 -158q0 -81 -1 -118zM376 -26
q-35 -38 -53.5 -80t-18.5 -69q0 -37 9 -41q1 0 5.5 3.5t13 15.5t16.5 31t16 56t12 84zM446 643q-25 -51 -25 -337q29 133 29 265q0 42 -4 72z" />
    <glyph glyph-name="G" unicode="G" horiz-adv-x="727" 
d="M454 63q31 24 104.5 74t111 84t57.5 75q6 11 18 11q7 0 13 -6.5t6 -14.5q0 -3 -2 -9q-17 -35 -50 -68.5t-65 -56.5t-92 -65.5t-101 -73.5q-3 -120 -20 -173t-61 -77q-19 -11 -43 -11q-32 0 -56 22.5t-24 58.5q0 47 43 95.5t121 105.5v108q-60 -140 -152 -140
q-60 0 -108.5 63t-58.5 156q-97 0 -97 67q0 8 6 14t14 6t14 -6t6 -14q0 -13 7.5 -19t16.5 -7t30 -1q0 3 -0.5 8t-0.5 7q0 162 68 268t148 106q47 0 83.5 -44t36.5 -110q0 -98 -92.5 -175t-199.5 -96q7 -76 45.5 -129.5t83.5 -53.5q50 0 90.5 69.5t58.5 189.5q1 17 21 17
q8 0 13.5 -6t5.5 -14q0 -5 -0.5 -15.5t-0.5 -16.5q0 -28 1 -97.5t1 -105.5zM307 610q-57 0 -105 -73q-71 -107 -71 -260q0 -2 0.5 -6t0.5 -6q52 9 111 43t100 78q44 48 44 109q0 49 -24.5 82t-55.5 33zM413 -17q-123 -94 -123 -149q0 -19 12 -30.5t28 -11.5q41 0 66 59
q14 33 17 132z" />
    <glyph glyph-name="H" unicode="H" horiz-adv-x="607" 
d="M58 568q-10 -66 -14 -149q39 120 39 203q0 23 -4 33q-11 -20 -21 -87zM397 0q-20 0 -37 6t-38 24t-38.5 59t-28.5 103q-14 -4 -53 -13t-61 -14.5t-51 -14.5t-46 -18q5 -77 13 -108q0 -1 0.5 -2.5t0.5 -2.5q0 -8 -6.5 -14t-14.5 -6t-13.5 6t-9 21.5t-4.5 24.5t-3 32
q-1 7 -1 11q-5 -12 -18 -12q-8 0 -14 6t-6 14q0 32 34 53q-2 33 -2 105q0 179 16 302q13 92 34 122q12 15 27 15q7 0 13.5 -2.5t14.5 -9.5t13 -24t5 -41q0 -130 -83 -329q0 -81 2 -118q52 21 208 57q-6 48 -6 99q0 134 34 227q41 114 116 114q8 0 14 -6t6 -14t-6 -14t-14 -6
q-47 0 -78.5 -88.5t-31.5 -212.5q0 -40 5 -87q6 2 9 4q17 6 27 12t11 9l2 3q0 8 6 14t14 6t14 -6t6 -14q0 -19 -18 -34.5t-30.5 -20.5t-35.5 -13q12 -82 40 -123t63 -41q83 0 210 256q6 11 18 11q8 0 13.5 -6.5t5.5 -14.5q0 -7 -9 -24q-21 -39 -33 -61.5t-40 -66
t-50.5 -68.5t-54 -45.5t-60.5 -20.5z" />
    <glyph glyph-name="I" unicode="I" horiz-adv-x="711" 
d="M464 660q-35 0 -63.5 -87.5t-28.5 -216.5q0 -83 13 -147q47 75 77.5 185.5t30.5 187.5q0 78 -29 78zM501 0q-86 0 -133 120v1q-1 1 -1 2q-86 -86 -178 -86q-88 0 -139.5 66.5t-51.5 184.5q0 8 6 14t14 6t14 -6t6 -14q0 -100 40 -155.5t110 -55.5q41 0 85.5 24t79.5 66
q-21 81 -21 189q0 138 30 229q36 115 102 115q35 0 52 -33.5t17 -85.5q0 -98 -38 -222t-98 -201q22 -61 46 -89.5t58 -28.5q83 0 210 256q6 11 18 11q8 0 13.5 -6.5t5.5 -14.5q0 -7 -9 -24q-21 -39 -33 -61.5t-40 -66t-50.5 -68.5t-54 -45.5t-60.5 -20.5z" />
    <glyph glyph-name="J" unicode="J" horiz-adv-x="591" 
d="M320 67q33 25 104.5 73t109 81.5t57.5 74.5q6 11 18 11q7 0 13 -6.5t6 -14.5q0 -3 -2 -9q-22 -44 -60.5 -79.5t-122.5 -93t-126 -89.5q-8 -126 -26.5 -178t-60.5 -75q-22 -12 -39 -12q-36 0 -59.5 24t-23.5 58q0 47 45 96.5t125 108.5q6 100 6 175q0 148 -2 216
q-34 -106 -93 -160t-113 -54q-33 0 -55.5 20.5t-22.5 53.5q0 8 6 14t14 6t14 -6t6 -14q0 -19 12.5 -26.5t25.5 -7.5q24 0 57.5 24.5t63.5 66.5q74 102 74 285q0 8 6 14t14 6q17 0 19 -18q14 -112 14 -379q0 -90 -4 -186zM275 -16q-128 -95 -128 -153q0 -19 11.5 -29.5
t27.5 -10.5q43 0 68 58q13 29 21 135z" />
    <glyph glyph-name="K" unicode="K" horiz-adv-x="585" 
d="M58 568q-10 -66 -14 -149q39 120 39 203q0 23 -4 33q-11 -20 -21 -87zM375 0q-43 0 -78.5 15.5t-61.5 38.5t-51.5 46t-61.5 41.5t-80 22.5q5 -99 15 -140q0 -1 0.5 -2.5t0.5 -2.5q0 -8 -6.5 -14t-14.5 -6q-16 0 -19 15q-13 51 -16 163q-2 4 -2 8q0 5 1 7q-1 23 -1 72
q0 176 16 298q13 92 34 122q12 15 27 15q7 0 13.5 -2.5t14.5 -9.5t13 -24t5 -41q0 -130 -83 -329q0 -59 1 -87q139 8 238 116q43 47 68.5 103.5t25.5 105.5q0 80 -67 80q-8 0 -14 6t-6 14t6 14t14 6q51 0 79 -33t28 -87q0 -105 -82 -208.5t-201 -141.5q34 -16 67.5 -43
t54.5 -47t53.5 -35.5t69.5 -15.5q83 0 210 256q6 11 18 11q8 0 13.5 -6.5t5.5 -14.5q0 -7 -9 -24q-21 -39 -33 -61.5t-40 -66t-50.5 -68.5t-54 -45.5t-60.5 -20.5z" />
    <glyph glyph-name="L" unicode="L" horiz-adv-x="653" 
d="M194 76q-18 0 -30.5 -8.5t-12.5 -15.5q0 -13 42 -13q26 0 44 18q-29 19 -43 19zM363 657q-8 -14 -13 -62q-6 -60 -6 -152q24 75 24 179q0 25 -5 35zM681 262q-28 -53 -54.5 -94t-62.5 -82.5t-78.5 -64t-88.5 -22.5q-74 0 -125 36q-32 -36 -79 -36q-37 0 -59.5 14
t-22.5 39t24.5 44.5t58.5 19.5q24 0 66 -26q27 56 38 189q-95 -99 -177 -99q-54 0 -88.5 30.5t-34.5 77.5q0 8 6 14t14 6t14 -6t6 -14q0 -33 25.5 -50.5t57.5 -17.5q94 0 181 130q1 30 2 78t1.5 75t2.5 63t5.5 56t10 40t16 28.5t23.5 8.5q45 0 45 -77q0 -169 -67 -285
q-5 -186 -47 -268q53 -33 105 -33q40 0 76 20t67.5 59.5t56.5 81t54 99.5q6 11 18 11q8 0 13.5 -6.5t5.5 -14.5q0 -7 -9 -24z" />
    <glyph glyph-name="M" unicode="M" horiz-adv-x="950" 
d="M79 655q-4 -7 -10.5 -35t-14 -84t-10.5 -117q39 120 39 203q0 23 -4 33zM348 215q-31 -104 -31 -154q0 -15 1 -18q30 20 30 172zM740 0q-38 0 -66 34.5t-49 111.5q-18 62 -34 171t-28.5 191t-24.5 100q-23 -9 -70 -95q-53 -99 -87 -198q7 -59 7 -123q0 -190 -74 -190
q-37 0 -37 58q0 82 63 260q-7 65 -19 118.5t-24 85t-24.5 53t-21 29.5t-13.5 8q-18 -3 -51 -88q-32 -83 -64 -209q-17 -67 -33.5 -142.5t-24.5 -116.5t-8 -43q-3 -16 -21 -16q-15 0 -18 15q-18 69 -18 252q0 173 16 296q13 92 34 122q12 15 27 15q7 0 13.5 -2.5t14.5 -9.5
t13 -24t5 -41q0 -130 -83 -329q0 -81 3 -145q21 101 52.5 220t55.5 177q44 109 87 109q40 0 75.5 -67.5t55.5 -190.5l3 6q46 118 91 183t80 65q29 0 44 -68t33.5 -201.5t43.5 -223.5q32 -117 76 -117q83 0 210 256q6 11 18 11q8 0 13.5 -6.5t5.5 -14.5q0 -7 -9 -24
q-21 -39 -33 -61.5t-40 -66t-50.5 -68.5t-54 -45.5t-60.5 -20.5z" />
    <glyph glyph-name="N" unicode="N" horiz-adv-x="675" 
d="M79 655q-4 -7 -10.5 -35t-14 -84t-10.5 -117q39 120 39 203q0 23 -4 33zM465 0q-38 0 -66.5 34.5t-49.5 111.5q-21 75 -46.5 256t-40.5 207q-32 -26 -75 -148q-66 -191 -130 -448q-5 -14 -20 -14q-16 0 -19 15q-18 69 -18 252q0 173 16 296q13 92 34 122q12 15 27 15
q7 0 13.5 -2.5t14.5 -9.5t13 -24t5 -41q0 -130 -83 -329q0 -111 5 -172q73 274 123 401.5t99 127.5q29 0 44 -68t33.5 -201.5t43.5 -223.5q32 -117 77 -117q83 0 210 256q6 11 18 11q8 0 13.5 -6.5t5.5 -14.5q0 -7 -9 -24q-21 -39 -33 -61.5t-40 -66t-50.5 -68.5t-54 -45.5
t-60.5 -20.5z" />
    <glyph glyph-name="O" unicode="O" horiz-adv-x="925" 
d="M664 194l-2 -4q73 2 144 32t122 79q6 6 13 6q9 0 15 -6t6 -15q0 -8 -6 -13q-122 -119 -309 -122q-35 -80 -84.5 -123.5t-106.5 -43.5q-125 0 -182 116q-43 86 -45 220q-33 -26 -51.5 -39t-53 -28t-64.5 -15q-27 0 -43.5 12.5t-16.5 35.5q0 8 6 14t14 6q9 0 12.5 -4.5
t3.5 -9.5t5.5 -9.5t17.5 -4.5q32 0 84 30.5t88 66.5q4 78 21.5 122.5t41.5 44.5q18 0 29.5 -13t11.5 -34q0 -62 -65 -137q-1 -11 -1 -36q0 -103 29 -177q47 -121 158 -121q52 0 94 44.5t56 86.5q-109 14 -176 91.5t-67 195.5q0 94 45 174t109 80q84 0 133 -78t49 -210
q0 -109 -35 -214zM517 656q-41 0 -77.5 -66.5t-36.5 -150.5q0 -96 59 -167t160 -78q37 105 37 214q0 102 -35 175t-107 73zM296 496q-4 -5 -17 -54q17 22 17 54z" />
    <glyph glyph-name="P" unicode="P" horiz-adv-x="591" 
d="M108 278q18 -25 69.5 -42.5t77.5 -17.5q72 0 116 62.5t44 155.5q0 70 -28 122.5t-81 52.5q-55 0 -102.5 -83.5t-95.5 -249.5zM79 655q-4 -7 -10.5 -35t-14 -84t-10.5 -117q39 120 39 203q0 23 -4 33zM349 165q-165 0 -251 72q-12 -53 -22.5 -108t-14.5 -82.5t-4 -29.5
q-2 -18 -20 -18q-16 0 -19 15q-18 69 -18 249q0 176 16 299q13 92 34 122q12 15 27 15q7 0 13.5 -2.5t14.5 -9.5t13 -24t5 -41q0 -131 -83 -329q0 -88 2 -127q28 138 63.5 242t88 173.5t112.5 69.5q67 0 108 -60.5t41 -154.5q0 -76 -27.5 -137t-74.5 -93q143 0 241 95
q6 6 13 6q9 0 15 -6t6 -15q0 -8 -6 -13q-60 -58 -122 -83t-151 -25z" />
    <glyph glyph-name="Q" unicode="Q" horiz-adv-x="729" 
d="M455 18q222 171 274 278q6 11 18 11q7 0 13 -6.5t6 -14.5q0 -3 -2 -9q-36 -71 -98 -135.5t-176 -152.5q40 -47 40 -117q0 -46 -25 -83.5t-58 -37.5q-54 0 -54 96q0 10 2 41.5t3 52.5q-6 -2 -14 -2q-15 0 -24 9t-9 24q0 25 14.5 41.5t37.5 18.5l4 93q-25 -58 -63 -90.5
t-81 -32.5q-60 0 -108.5 63t-58.5 156q-98 0 -98 67q0 8 6 14t14 6t14 -6t6 -14q0 -17 11 -22t37 -5h7q0 3 -0.5 8t-0.5 7q0 162 68 268t148 106q47 0 83.5 -44t36.5 -110q0 -98 -92.5 -175t-199.5 -96q7 -76 45.5 -129.5t83.5 -53.5q50 0 90.5 69.5t58.5 189.5q2 17 21 17
q7 0 12.5 -6t5.5 -14q0 -97 -11 -273q8 -3 13 -7zM308 610q-57 0 -105 -73q-71 -107 -71 -260q0 -2 0.5 -6t0.5 -6q52 9 111 43t100 78q44 48 44 109q0 49 -24.5 82t-55.5 33zM439 -40q-6 -106 -6 -121q0 -48 15 -48q14 0 28 25.5t14 55.5q0 63 -36 97zM401 -9q-6 -2 -9 -10
q4 2 9 10z" />
    <glyph glyph-name="R" unicode="R" horiz-adv-x="635" 
d="M78 655q-4 -7 -10.5 -35t-14 -84t-10.5 -117q39 120 39 203q0 23 -4 33zM425 0q-51 0 -73.5 30.5t-34.5 103.5q-13 76 -32.5 110.5t-63.5 34.5q-8 0 -14 6t-6 14t6 14t14 6q82 0 131 60.5t49 128.5q0 48 -25 75.5t-71 27.5q-49 0 -97 -76t-88 -215q-20 -69 -33.5 -130
t-18 -93t-8.5 -56.5t-8.5 -32.5t-13.5 -9q-18 0 -21 15q-18 71 -18 252q0 174 16 296q13 92 34 122q12 15 27 15q7 0 13.5 -2.5t14.5 -9.5t13 -24t5 -41q0 -130 -83 -329q0 -52 2 -130q21 103 56.5 214t69.5 169q61 105 138 105q63 0 99.5 -39.5t36.5 -103.5
q0 -69 -40.5 -131t-104.5 -84q29 -26 44.5 -72.5t19.5 -84.5t19.5 -67t45.5 -29q83 0 210 256q6 11 18 11q8 0 13.5 -6.5t5.5 -14.5q0 -7 -9 -24q-21 -39 -33 -61.5t-40 -66t-50.5 -68.5t-54 -45.5t-60.5 -20.5z" />
    <glyph glyph-name="S" unicode="S" horiz-adv-x="576" 
d="M250 0q-62 0 -101 32.5t-39 82.5q0 27 16 47t46.5 32t55.5 18.5t62.5 13t48.5 9.5q-16 15 -53.5 44t-55.5 45q-39 -39 -84.5 -65.5t-81.5 -26.5q-29 0 -46.5 14.5t-17.5 39.5q0 8 6 14t14 6q11 0 14.5 -5.5t3.5 -11.5t6 -11.5t20 -5.5q48 0 129 72l9 8q-61 76 -61 161
q0 59 26 99t63 40q36 0 59 -38t23 -101q0 -88 -55 -159q6 -6 57 -45.5t71 -64.5q5 1 34 6t38.5 7t33 7.5t35.5 10t27.5 12t27.5 16.5q5 4 12 4t13.5 -6.5t6.5 -13.5q0 -10 -8 -16q-11 -8 -23 -14.5t-27 -12t-26 -9.5t-30.5 -8.5t-29 -6.5t-32 -6.5t-29.5 -5.5q12 -27 12 -53
q0 -65 -47 -110t-123 -45zM368 200q-130 -22 -171 -38q-47 -19 -47 -47q0 -61 79 -74q14 -2 21 -2q53 0 91.5 30t38.5 85q0 24 -12 46zM230 612q-20 0 -34.5 -29.5t-14.5 -69.5q0 -75 47 -130q44 59 44 130q0 51 -12.5 75t-29.5 24z" />
    <glyph glyph-name="T" unicode="T" horiz-adv-x="713" 
d="M431 588q-21 -102 -21 -211q0 -22 2 -62q39 117 45 279zM450 656q-4 -6 -9 -24l14 3q-2 13 -5 21zM503 0q-43 0 -73 44t-44 125q-86 -127 -210 -127q-84 0 -131 65.5t-47 180.5q0 8 6 14t14 6t14 -6t6 -14q0 -100 37 -153t101 -53q119 0 201 150q-5 55 -5 122
q0 120 16 224q-50 -11 -94 -11q-90 0 -90 67q0 8 5.5 14t14.5 6q12 0 16 -7.5t4 -16.5t12.5 -16.5t38.5 -7.5q29 0 102 15q0 1 1 3q11 76 48 76q40 0 48 -55q107 28 144 28q53 0 53 -39q0 -8 -6 -14t-14 -6q-9 0 -15.5 9.5t-16.5 9.5q-32 0 -142 -28q0 -211 -79 -380
q10 -87 32 -136t53 -49q83 0 210 256q6 11 18 11q8 0 13.5 -6.5t5.5 -14.5q0 -7 -9 -24q-21 -39 -33 -61.5t-40 -66t-50.5 -68.5t-54 -45.5t-60.5 -20.5z" />
    <glyph glyph-name="U" unicode="U" horiz-adv-x="956" 
d="M746 0q-118 0 -142 343q-32 -159 -85.5 -251t-108.5 -92q-149 0 -149 415q-41 -89 -95.5 -142.5t-103.5 -53.5q-29 0 -46.5 19t-17.5 50q0 8 6 14t14 6t14 -6t6 -14q0 -27 22 -29q48 0 116 90q75 98 98 270q4 31 22 31q9 0 14.5 -6t5.5 -14q0 -3 -1 -8.5t-1 -7.5
q-13 -105 -13 -215q0 -162 30.5 -260.5t78.5 -98.5q23 0 53.5 39t58.5 119q63 175 84 427q0 5 0.5 17.5t1 20.5t2.5 17t7 13.5t13 4.5q9 0 14.5 -5.5t5.5 -13.5q0 -36 -5 -105.5t-5 -104.5q0 -188 29.5 -308.5t76.5 -120.5q83 0 210 256q6 11 18 11q8 0 13.5 -6.5t5.5 -14.5
q0 -7 -9 -24q-21 -39 -33 -61.5t-40 -66t-50.5 -68.5t-54 -45.5t-60.5 -20.5z" />
    <glyph glyph-name="V" unicode="V" horiz-adv-x="870" 
d="M557 651q-25 0 -42 -45t-17 -104q0 -68 21 -127.5t54 -96.5q35 130 35 238q0 69 -15.5 102t-35.5 33zM594 210q-37 -110 -84.5 -171.5t-97.5 -61.5q-36 0 -64.5 32t-44.5 84t-24.5 96.5t-13.5 91.5q-7 73 -7 161q-47 -109 -102 -165.5t-106 -56.5q-24 2 -38 20.5
t-14 47.5q0 8 6 14t14 6t14 -6t6 -14q0 -28 16 -28q40 0 105 88q78 105 113 284q3 16 19 16q20 0 20 -22q-14 -93 -14 -200q0 -171 34 -290t81 -119q40 0 79.5 62.5t68.5 155.5q-45 40 -73.5 111.5t-28.5 156.5q0 83 27.5 135.5t71.5 52.5q37 0 64 -39.5t27 -135.5
q0 -125 -42 -267q41 -24 82 -24q106 0 185 76q6 6 13 6q9 0 15 -6t6 -15q0 -8 -6 -13q-91 -88 -213 -88q-48 0 -94 25z" />
    <glyph glyph-name="W" unicode="W" horiz-adv-x="1216" 
d="M1247 301q6 -6 6 -15q0 -8 -6 -13q-91 -88 -213 -88q-48 0 -94 25q-37 -112 -84.5 -172.5t-97.5 -60.5q-94 0 -157 246q-48 -118 -95 -182t-85 -64q-61 2 -98.5 125.5t-48.5 355.5q-39 -111 -98 -175.5t-114 -64.5q-29 0 -46.5 19.5t-17.5 50.5q0 8 6 14t14 6t14 -6
t6 -14q0 -30 25 -30q41 0 110 90q78 102 99 283q2 18 21 18q19 -2 19 -21q0 -251 24 -402q24 -157 65 -198q11 -11 20 -11q24 0 75.5 84.5t89.5 194.5q-12 79 -12 131q0 54 12 86t24.5 40t26.5 8q39 0 39 -61q0 -47 -48 -208q13 -71 31.5 -127t36.5 -86.5t34 -46t28 -15.5
q39 0 78.5 61t69.5 157q-43 39 -72.5 111.5t-29.5 156.5t27.5 136t71.5 52q37 0 64 -39.5t27 -135.5q0 -125 -42 -267q41 -24 82 -24q106 0 185 76q6 6 13 6q9 0 15 -6zM616 387q20 77 20 116q0 11 -2 17q-20 -11 -20 -93q0 -12 2 -40zM919 278q35 130 35 238
q0 69 -15.5 102t-35.5 33q-25 0 -42 -45t-17 -104q0 -68 21 -127.5t54 -96.5z" />
    <glyph glyph-name="X" unicode="X" horiz-adv-x="867" 
d="M657 0q-138 0 -255 238q-128 -151 -128 -212q0 -8 -6 -14t-14 -6t-14 6t-6 14q0 46 39 107t111 145q-46 99 -88 255q-30 -126 -91 -208q-80 -107 -144 -107q-28 0 -45.5 19.5t-17.5 50.5q0 8 6 14t14 6t14 -6t6 -14q0 -28 22 -30q44 0 113 91q78 102 99 283q2 16 19 18
q15 0 20.5 -21.5t28 -107t65.5 -190.5l8 -19q242 258 242 334q0 8 6 14t14 6t14 -6t6 -14q0 -53 -67 -145q-24 -32 -56 -69.5t-75.5 -86.5t-65.5 -74q108 -233 225 -233q83 0 211 258q6 11 18 11q8 0 13.5 -6.5t5.5 -14.5q0 -7 -9 -24q-21 -39 -33 -61.5t-40 -66
t-50.5 -68.5t-54 -45.5t-60.5 -20.5z" />
    <glyph glyph-name="Y" unicode="Y" horiz-adv-x="929" 
d="M656 67q34 26 105 73t109.5 81t58.5 75q6 11 18 11q7 0 13 -6.5t6 -14.5q0 -3 -2 -9q-22 -44 -61.5 -79.5t-122.5 -91.5t-127 -90q-8 -128 -26.5 -180t-60.5 -74q-22 -12 -43 -12q-33 0 -56 24t-23 58q0 47 45 96.5t125 108.5q6 102 6 175q0 123 -1 181
q-32 -182 -88.5 -287.5t-123.5 -105.5q-34 0 -60.5 22.5t-41.5 61.5t-25.5 80t-14.5 90t-5.5 78t-1.5 58v25q-45 -98 -98.5 -147.5t-101.5 -49.5q-27 1 -43.5 20.5t-16.5 49.5q0 8 6 14t14 6t14 -6t6 -14q0 -30 25 -30q42 0 110 91q75 101 98 270q3 31 24 31q18 -3 18 -22
q-2 -10 -2 -14q-13 -105 -13 -215q0 -161 30 -260t79 -99q67 0 125 169.5t75 421.5q2 19 20 19t20 -18q13 -112 13 -356q0 -98 -4 -209zM611 -16q-128 -95 -128 -153q0 -19 11.5 -29.5t27.5 -10.5q43 0 68 58q13 29 21 135z" />
    <glyph glyph-name="Z" unicode="Z" horiz-adv-x="908" 
d="M327 131q-30 0 -50.5 -14.5t-20.5 -37.5q0 -22 18.5 -34.5t48.5 -12.5q57 0 104 62q-65 37 -100 37zM688 0q-107 0 -226 73q-60 -81 -141 -81q-45 0 -75 24.5t-30 63.5q0 41 32 66t79 25t121 -44q26 45 59.5 138t73.5 180t91 147q-2 0 -6 -0.5t-6 -0.5q-53 0 -140.5 33
t-118.5 33q-40 0 -59 -25.5t-25 -70.5t-12 -95t-30 -109.5t-68 -103.5q-51 -51 -120 -51q-41 0 -65 24t-24 62q0 8 6 14t14 6t14 -6t6 -14q0 -46 49 -46q52 0 91 39q42 42 63.5 102.5t27 112.5t14 99t36.5 74.5t82 27.5q41 0 125 -32.5t129 -32.5q48 0 89 26q4 3 10 3
q8 0 14 -6t6 -14q0 -11 -8 -17q-57 -40 -102.5 -111.5t-70.5 -137t-56 -146.5t-54 -122q112 -67 205 -67q49 0 110.5 79.5t109.5 176.5q6 11 18 11q8 0 13.5 -6.5t5.5 -14.5q0 -7 -9 -24q-137 -262 -248 -262z" />
    <glyph glyph-name="bracketleft" unicode="[" horiz-adv-x="1869" 
d="M1232 89h-24q-114 1 -254 18t-222.5 31.5t-225.5 41.5q-201 41 -291 50q-120 12 -157 -15q-14 -10 -17 -30q-1 -8 -7.5 -13.5t-14.5 -4.5q-20 4 -17 22q3 37 33 59q25 18 66.5 24t114.5 -2.5t128 -18t170 -31.5q144 -28 233.5 -43.5t229.5 -31.5t256 -16q400 0 638 176
q17 11 28 -5q12 -16 -4 -28q-139 -101 -325 -146q-151 -37 -338 -37z" />
    <glyph glyph-name="bracketright" unicode="]" horiz-adv-x="1833" 
d="M695 90h-24q-187 0 -338 37q-186 45 -325 146q-16 12 -4 28q11 16 28 5q238 -176 638 -176q116 0 256 16t229.5 31.5t233.5 43.5q115 22 170 31.5t128 18t114.5 2.5t66.5 -24q30 -22 33 -59q3 -18 -17 -22q-8 -1 -14.5 4.5t-7.5 13.5q-3 20 -17 30q-37 27 -157 15
q-90 -9 -291 -50q-143 -27 -225.5 -41.5t-222.5 -31.5t-254 -18z" />
    <glyph glyph-name="underscore" unicode="_" horiz-adv-x="1462" 
d="M1033 11q-46 0 -99 8q-83 15 -158 49l-6 -3q-126 -52 -273 -49q-157 3 -282 65q-72 37 -120 82q-57 51 -93 117q-9 16 8 27q18 9 27 -8q62 -112 184.5 -176.5t276.5 -66.5q123 -3 233 37q-58 35 -96 80t-48 93q-7 39 2 69q11 32 40 41q40 12 86 -30q36 -33 66 -93
q31 50 71 84q48 40 89 42q32 0 48 -25q25 -47 -29 -135q-46 -76 -137 -128q61 -24 117 -32q39 -7 79.5 -9t102.5 7.5t117.5 33.5t116.5 77t106 130q10 17 27 8q18 -10 7 -28q-46 -79 -118 -142q-64 -55 -143 -87q-96 -38 -202 -38zM646 338q-4 0 -6 -1q-25 -7 -13 -63
q9 -44 49 -86.5t102 -75.5q101 50 148 128q41 68 28 94q-5 5 -12 5q-28 -2 -64 -33q-47 -40 -82 -106q-6 -12 -18 -10q-13 0 -18 12q-31 78 -72 114q-24 22 -42 22z" />
    <glyph glyph-name="grave" unicode="`" horiz-adv-x="107" 
d="M81 521q-15 0 -45 40t-30 59q0 8 5.5 13.5t13.5 5.5q15 0 19 -12l5 -9q5 -9 17.5 -27t29.5 -36q5 -5 5 -14q0 -8 -5.5 -14t-14.5 -6z" />
    <glyph glyph-name="a" unicode="a" horiz-adv-x="482" 
d="M271 40q84 0 211 256q6 11 18 11q8 0 13.5 -6.5t5.5 -14.5q0 -7 -9 -24q-21 -39 -33 -61.5t-40 -66t-50.5 -68.5t-54 -45.5t-60.5 -20.5q-36 0 -62.5 25.5t-38.5 65.5q-13 -37 -37 -64t-59 -27q-53 0 -80 46t-27 114q0 80 34.5 141.5t92.5 61.5q37 0 63 -31.5t26 -70.5
q0 -20 -19 -20q-17 0 -20 16q-15 66 -54 66q-34 0 -58.5 -54.5t-24.5 -117.5q0 -48 17 -79.5t50 -31.5q60 0 78 157q2 18 20 18t20 -18q1 -21 4.5 -43.5t11.5 -50.5t24 -45.5t38 -17.5z" />
    <glyph glyph-name="b" unicode="b" horiz-adv-x="283" 
d="M77 -2q-61 0 -73 174q-3 45 -3 100q0 152 21 356q6 69 42 69q29 0 39.5 -40t10.5 -82q0 -131 -72 -297q0 -59 2 -97q7 -124 32 -143q23 8 53 93t43 147q3 14 18 16l6 1q7 1 18.5 3t25 4t30.5 3.5t32 2.5q17 0 19 -21q0 -17 -19 -19q-18 -1 -94 -13q-30 -124 -60 -185
q-34 -72 -71 -72zM65 644q-16 -137 -21 -249q29 89 29 172q0 48 -8 77z" />
    <glyph glyph-name="c" unicode="c" horiz-adv-x="326" 
d="M116 40q83 0 210 256q6 11 18 11q8 0 13.5 -6.5t5.5 -14.5q0 -7 -9 -24q-21 -39 -33 -61.5t-40 -66t-50.5 -68.5t-54 -45.5t-60.5 -20.5q-44 0 -72 37t-38 88.5t-10 116.5q0 121 56 121q19 0 34 -21t16 -62q0 -8 -6 -14t-14 -6t-14 6t-6 14q-1 32 -11 42q-15 -21 -15 -99
q0 -71 20 -127t60 -56z" />
    <glyph glyph-name="d" unicode="d" horiz-adv-x="472" 
d="M262 40q83 0 210 256q6 11 18 11q8 0 13.5 -6.5t5.5 -14.5q0 -7 -9 -24q-21 -39 -33 -61.5t-40 -66t-50.5 -68.5t-54 -45.5t-60.5 -20.5q-62 0 -91 92q-9 -33 -36 -63t-61 -30q-53 0 -80 46t-27 114q0 80 34.5 141.5t92.5 61.5q27 0 51 -19v6q0 171 11 259.5t46 88.5
q17 0 29 -16t16.5 -41t6.5 -44.5t2 -38.5q0 -73 -23 -152t-47 -116q0 -46 6.5 -99.5t25 -101.5t44.5 -48zM74 39q37 0 57.5 54t20.5 101q0 128 -62 128q-34 0 -58.5 -54.5t-24.5 -117.5q0 -48 17 -79.5t50 -31.5zM203 647q-17 -100 -17 -261q30 87 30 159t-13 102z" />
    <glyph glyph-name="e" unicode="e" horiz-adv-x="326" 
d="M36 223q0 -33 2 -50q24 66 24 106q-1 33 -11 43q-15 -21 -15 -99zM116 0q-44 0 -72 37t-38 88.5t-10 116.5q0 121 56 121q19 0 34.5 -22t16.5 -63q0 -71 -50 -175q22 -63 63 -63q83 0 210 256q6 11 18 11q8 0 13.5 -6.5t5.5 -14.5q0 -7 -9 -24q-21 -39 -33 -61.5t-40 -66
t-50.5 -68.5t-54 -45.5t-60.5 -20.5z" />
    <glyph glyph-name="f" unicode="f" horiz-adv-x="311" 
d="M65 649q-6 -14 -10 -37.5t-6.5 -55.5t-3.5 -55t-2.5 -62t-1.5 -50q39 95 39 173q0 49 -15 87zM-68 -211q22 10 37 54.5t21 83.5q-62 -62 -62 -118q0 -12 4 -20zM34 -33q-1 -24 -7 -56t-17.5 -71t-32 -65.5t-46.5 -26.5q-21 0 -32 19t-11 43q0 87 108 177q4 64 4 227
q0 259 13 379q12 102 51 102q17 0 29 -14.5t17 -38t7 -42t2 -36.5q0 -132 -79 -266v-67l124 19q8 0 13.5 -5t5.5 -12q0 -20 -16 -23l-127 -19q0 -119 -2 -170q223 172 273 275q6 11 18 11q7 0 13 -6.5t6 -14.5q0 -3 -2 -9q-34 -68 -110 -140.5t-202 -169.5z" />
    <glyph glyph-name="g" unicode="g" horiz-adv-x="459" 
d="M149 49q-32 -49 -74 -49q-53 0 -80 46t-27 114q0 80 34.5 141.5t92.5 61.5q37 0 63 -31.5t26 -70.5q0 -20 -19 -20q-17 0 -20 16q-15 66 -54 66q-34 0 -58.5 -54.5t-24.5 -117.5q0 -48 17 -79.5t50 -31.5q60 0 78 157q2 18 20 18q20 0 20 -18q0 -98 -6 -176
q221 171 272 275q6 11 18 11q7 0 13 -6.5t6 -14.5q0 -3 -2 -9q-34 -68 -110 -140.5t-202 -169.5q-5 -68 -27 -119q-19 -45 -48.5 -73t-63.5 -28q-21 0 -34.5 13t-15.5 35q0 20 8 40.5t16 35t28.5 34.5t30 28t36 29t32.5 26q4 39 5 61zM43 -213q33 0 61.5 49t32.5 95
q-1 -1 -17.5 -15t-23.5 -20t-21.5 -21t-21.5 -25.5t-13.5 -24t-6.5 -25.5q0 -13 10 -13z" />
    <glyph glyph-name="h" unicode="h" horiz-adv-x="455" 
d="M49 638q-5 -58 -7 -228q17 67 17 133q0 56 -10 95zM245 0q-16 0 -29.5 6.5t-24.5 20t-20.5 28.5t-17 37.5t-13 41t-11 45.5t-8.5 44t-7.5 43t-6.5 37q-25 -58 -40.5 -141.5t-18.5 -142.5q-2 -19 -20 -19q-19 0 -21 18q-7 74 -7 192v290q0 95 9.5 146t38.5 51
q51 0 51 -157q0 -126 -59 -250v-63q7 29 12.5 46t14.5 41.5t21 36.5t25 12q10 0 16.5 -5.5t10.5 -19.5t6.5 -25.5t6 -35.5t6.5 -38q17 -90 36.5 -144.5t49.5 -54.5q83 0 210 256q6 11 18 11q8 0 13.5 -6.5t5.5 -14.5q0 -7 -9 -24q-21 -39 -33 -61.5t-40 -66t-50.5 -68.5
t-54 -45.5t-60.5 -20.5z" />
    <glyph glyph-name="i" unicode="i" horiz-adv-x="325" 
d="M115 40q83 0 210 256q6 11 18 11q8 0 13.5 -6.5t5.5 -14.5q0 -7 -9 -24q-21 -39 -33 -61.5t-40 -66t-50.5 -68.5t-54 -45.5t-60.5 -20.5q-118 0 -118 236q0 35 1 53q2 19 21 19t19 -21q-1 -17 -1 -51q0 -25 2 -50t9 -62.5t24 -60.5t43 -23zM-5 467q0 4 1 7.5t1 4.5
t-2 5.5t-2 9.5q0 7 5.5 13.5t14.5 6.5q24 0 24 -35q0 -32 -22 -32q-20 0 -20 20z" />
    <glyph glyph-name="j" unicode="j" horiz-adv-x="306" 
d="M324 307q7 0 13 -6.5t6 -14.5q0 -3 -2 -9q-34 -68 -110 -140.5t-202 -169.5q-5 -68 -27 -119q-19 -45 -48.5 -73t-63.5 -28q-21 0 -34.5 13t-15.5 35q0 20 8 40.5t16 35t28.5 34.5t30 28t36 29t32.5 26q9 108 9 219q0 54 -1 83q0 8 6 13t15 5q8 0 13.5 -6t5.5 -14
q0 -15 0.5 -40t0.5 -36q0 -81 -6 -191q221 171 272 275q6 11 18 11zM-110 -213q33 0 61.5 49t32.5 95q-1 -1 -17.5 -15t-23.5 -20t-21.5 -21t-21.5 -25.5t-13.5 -24t-6.5 -25.5q0 -13 10 -13zM-9 467q0 4 1 7.5t1 4.5t-2 5.5t-2 9.5q0 7 5.5 13.5t14.5 6.5q24 0 24 -35
q0 -32 -22 -32q-20 0 -20 20z" />
    <glyph glyph-name="k" unicode="k" horiz-adv-x="339" 
d="M55 148q52 63 52 114q0 20 -9.5 37.5t-29.5 17.5q-19 0 -19 -81q0 -50 6 -88zM49 638q-5 -58 -7 -228q17 67 17 133q0 56 -10 95zM129 0q-51 0 -85 54l4 -35q-2 -19 -20 -19q-19 0 -21 18q-7 74 -7 192v290q0 95 9.5 146t38.5 51q51 0 51 -157q0 -91 -32 -183
q37 0 58.5 -28.5t21.5 -65.5q0 -76 -80 -162q23 -61 62 -61q83 0 210 256q6 11 18 11q8 0 13.5 -6.5t5.5 -14.5q0 -7 -9 -24q-21 -39 -33 -61.5t-40 -66t-50.5 -68.5t-54 -45.5t-60.5 -20.5z" />
    <glyph glyph-name="l" unicode="l" horiz-adv-x="326" 
d="M116 40q83 0 210 256q6 11 18 11q8 0 13.5 -6.5t5.5 -14.5q0 -7 -9 -24q-21 -39 -33 -61.5t-40 -66t-50.5 -68.5t-54 -45.5t-60.5 -20.5q-117 0 -117 349q0 171 11 259.5t46 88.5q17 0 29 -16t16.5 -41t6.5 -44.5t2 -38.5q0 -73 -23 -152t-47 -116q0 -46 6.5 -99.5
t25 -101.5t44.5 -48zM57 647q-17 -100 -17 -261q30 87 30 159t-13 102z" />
    <glyph glyph-name="m" unicode="m" horiz-adv-x="635" 
d="M54 181q1 4 4.5 22t7 31.5t9 34t11.5 35.5t13.5 29.5t16.5 22t19 7.5q16 0 28 -13t20 -40.5t12 -45t9 -51.5l4 -34q0 1 9 36.5t14 51.5t15.5 43.5t22 40t24.5 12.5q10 0 16.5 -5.5t10.5 -19.5t6.5 -25.5t6 -35.5t6.5 -38q17 -90 36.5 -144.5t49.5 -54.5q83 0 210 256
q6 11 18 11q8 0 13.5 -6.5t5.5 -14.5q0 -7 -9 -24q-21 -39 -33 -61.5t-40 -66t-50.5 -68.5t-54 -45.5t-60.5 -20.5q-16 0 -29.5 6.5t-24.5 20t-20.5 28.5t-17 37.5t-13 41t-11 45.5t-8.5 44t-7.5 43t-6.5 37q-25 -58 -40.5 -141.5t-18.5 -142.5q-2 -19 -20 -19t-22 20
q0 57 -15.5 152.5t-34.5 145.5q-21 -39 -41 -133.5t-29 -165.5q-2 -17 -20 -19q-18 0 -20 19q0 7 -2 43.5t-9 105.5t-16 121q0 8 6 13.5t15 5.5q16 0 19 -21q9 -47 15 -106z" />
    <glyph glyph-name="n" unicode="n" horiz-adv-x="473" 
d="M-1 289q0 8 6 13.5t15 5.5q16 0 19 -21q8 -44 13 -89q1 6 5.5 23.5t7.5 30t8.5 31t11 31t12.5 24.5t16 18.5t18 6.5q10 0 16.5 -5.5t10.5 -19.5t6.5 -25.5t6 -35.5t6.5 -38q17 -90 36.5 -144.5t49.5 -54.5q83 0 210 256q6 11 18 11q8 0 13.5 -6.5t5.5 -14.5q0 -7 -9 -24
q-21 -39 -33 -61.5t-40 -66t-50.5 -68.5t-54 -45.5t-60.5 -20.5q-16 0 -29.5 6.5t-24.5 20t-20.5 28.5t-17 37.5t-13 41t-11 45.5t-8.5 44t-7.5 43t-6.5 37q-25 -58 -40.5 -141.5t-18.5 -142.5q-2 -17 -20 -19q-18 0 -20 19q0 7 -2 43.5t-9 105.5t-16 121z" />
    <glyph glyph-name="o" unicode="o" horiz-adv-x="353" 
d="M-31 173q0 41 15 88t36 47q19 0 19 -21q0 -5 -3 -9q-25 -41 -25 -107q0 -50 19 -90.5t63 -40.5q23 0 40.5 20t27 49.5t14.5 58.5t5 53q-20 3 -31.5 5t-32 8t-32 14t-21.5 21.5t-11 31.5q0 26 21.5 44t49.5 18q40 0 63.5 -31t30.5 -74h14q36 0 66.5 12t48.5 24.5t24 12.5
q7 0 13.5 -6.5t6.5 -14.5t-7 -15q-57 -54 -163 -54q0 -31 -6.5 -66t-20.5 -70t-40 -58t-60 -23q-60 0 -92 53.5t-32 119.5zM92 302q0 -9 5.5 -15t18 -10.5t19 -6.5t23.5 -5l18 -3q-12 61 -53 61q-13 0 -22 -6t-9 -15z" />
    <glyph glyph-name="p" unicode="p" horiz-adv-x="471" 
d="M495 307q13 -3 13 -21q0 -3 -1 -5q-82 -277 -301 -277q-67 0 -132 27q0 -1 7.5 -72.5t7.5 -114.5q0 -94 -40 -94q-22 0 -37 20.5t-21.5 53.5t-8.5 57t-2 47q0 121 35 240q-16 114 -16 118v4q0 19 19 19q17 0 20 -17q2 -21 6 -45q57 126 136 126q50 0 80 -40t30 -93
q0 -55 -23.5 -108.5t-67.5 -87.5q197 0 271 249q3 15 19 15q4 0 6 -1zM127 60q52 0 87.5 59t35.5 119q0 84 -69 95q-68 0 -125 -168l12 -86q19 -19 59 -19zM44 -203q3 32 3 64q0 38 -16 193q-11 -81 -11 -126q0 -100 24 -131z" />
    <glyph glyph-name="q" unicode="q" horiz-adv-x="454" 
d="M208 -132q0 47 -40 107q0 -6 -1 -9q-15 -94 -15 -139q0 -37 20 -37q13 0 24.5 24.5t11.5 53.5zM187 22q61 -83 61 -150q0 -43 -22.5 -84t-60.5 -41q-28 0 -40.5 25.5t-12.5 61.5q0 33 4 64.5t13 77t11 58.5q-27 -34 -65 -34q-53 0 -80 46t-27 114q0 80 34.5 141.5
t92.5 61.5q37 0 63 -31.5t26 -70.5q0 -20 -19 -20q-17 0 -20 16q-15 66 -54 66q-34 0 -58.5 -54.5t-24.5 -117.5q0 -48 17 -79.5t50 -31.5q60 0 78 157q2 18 20 18q20 0 20 -18q0 -66 -12 -135q30 23 104 74t111.5 85t57.5 75q6 11 18 11q7 0 13 -6.5t6 -14.5q0 -3 -2 -9
q-22 -44 -59.5 -78t-118 -88.5t-124.5 -88.5z" />
    <glyph glyph-name="r" unicode="r" horiz-adv-x="395" 
d="M65 19q-2 -17 -20 -19q-18 0 -20 19q0 7 -2 43.5t-9 105.5t-16 121q0 8 6 13.5t15 5.5q15 0 19 -21q9 -50 13 -89q1 6 5.5 23.5t7.5 30t8.5 31t11 31t12.5 24.5t16 18.5t18 6.5q13 0 30.5 -17t33.5 -37.5t41.5 -37.5t51.5 -17q30 0 74.5 26.5t49.5 26.5q7 0 14 -6t7 -14
q0 -10 -9 -16q-27 -20 -41.5 -29.5t-40 -19t-51.5 -9.5q-89 0 -159 103q-26 -60 -44.5 -151t-21.5 -146z" />
    <glyph glyph-name="s" unicode="s" horiz-adv-x="361" 
d="M389 302q8 -5 8 -16q0 -8 -3 -12q-29 -38 -88 -65q-36 -16 -99 -36q14 -20 14 -46q0 -58 -53.5 -93.5t-117.5 -35.5q-35 0 -66.5 14.5t-31.5 46.5q0 74 178 132q-27 14 -45.5 25t-43 30t-38 42.5t-13.5 48.5q0 19 2.5 37.5t8.5 41t20.5 36t35.5 13.5t33 -18t12 -41
q0 -52 -49 -113q19 -21 65.5 -49.5t58.5 -37.5q49 15 77.5 25.5t60.5 28.5t46 37q6 9 16 9q7 0 12 -4zM30 337q0 -5 1 -7q31 44 31 77q0 18 -7 18q-13 0 -19 -32t-6 -56zM50 38q45 0 88 22.5t43 65.5q0 18 -15 34q-29 -9 -61 -20.5t-72.5 -35.5t-40.5 -45t58 -21z" />
    <glyph glyph-name="t" unicode="t" horiz-adv-x="326" 
d="M-67 477q-23 0 -23 20q0 17 17 20l75 9q10 171 54 171q17 0 29 -16t16.5 -41t6.5 -44.5t2 -38.5q0 -3 -0.5 -9t-0.5 -8l71 9q20 0 20 -20q0 -17 -17 -20l-77 -10q-8 -63 -27.5 -122t-38.5 -88q0 -46 6.5 -99.5t25 -101.5t44.5 -48q83 0 210 256q6 11 18 11q8 0 13.5 -6.5
t5.5 -14.5q0 -7 -9 -24q-21 -39 -33 -61.5t-40 -66t-50.5 -68.5t-54 -45.5t-60.5 -20.5q-117 0 -117 349q0 94 1 136zM57 647q-8 -48 -13 -115l26 3v10q0 72 -13 102zM40 386q18 54 26 108l-24 -3q-2 -39 -2 -105z" />
    <glyph glyph-name="u" unicode="u" horiz-adv-x="520" 
d="M310 0q-90 0 -120 163q-38 -163 -113 -163q-85 0 -85 188q0 51 6 101q2 19 21 19t19 -20q-6 -42 -6 -95q0 -153 44 -153q30 0 57.5 73t42.5 213q0 7 5.5 12.5t13.5 5.5q18 0 20 -18q1 -9 3 -36.5t4.5 -50t6.5 -54t10.5 -55t16 -45t23.5 -33.5t31 -12q83 0 210 256
q6 11 18 11q8 0 13.5 -6.5t5.5 -14.5q0 -7 -9 -24q-21 -39 -33 -61.5t-40 -66t-50.5 -68.5t-54 -45.5t-60.5 -20.5z" />
    <glyph glyph-name="v" unicode="v" horiz-adv-x="356" 
d="M387 300q6 -6 6 -13q0 -8 -7 -15q-60 -55 -133 -55q-26 0 -45 4q0 -10 -8 -43t-21.5 -74.5t-38 -72.5t-51.5 -31q-19 0 -34.5 14t-24.5 42t-15 53t-9.5 65t-4.5 60t-2 54q0 20 21 20q8 0 13.5 -6t5.5 -13q3 -82 15.5 -165.5t33.5 -83.5q25 0 53 78t28 111
q-24 7 -38.5 13.5t-27.5 22.5t-13 38q0 23 14.5 41.5t38.5 18.5q34 0 51 -28.5t17 -73.5q20 -4 36 -4q64 0 112 44q6 6 13 6q8 0 15 -7zM130 304q0 -15 10.5 -22t30.5 -12q-4 53 -27 53q-14 0 -14 -19z" />
    <glyph glyph-name="w" unicode="w" horiz-adv-x="527" 
d="M558 300q6 -6 6 -13q0 -8 -7 -15q-60 -55 -133 -55q-26 0 -45 4q0 -10 -8 -43t-21.5 -74.5t-38 -72.5t-51.5 -31q-56 0 -76 118q-40 -118 -95 -118q-19 0 -34.5 14t-24.5 42t-15 53t-9.5 65t-4.5 60t-2 54q0 20 21 20q8 0 13.5 -6t5.5 -13q3 -82 15.5 -165.5t33.5 -83.5
q17 0 36 39t28 70q18 65 18 139q0 20 21 20q7 0 13 -6t6 -13q3 -82 15.5 -165.5t33.5 -83.5q25 0 53 78t28 111q-24 7 -38.5 13.5t-27.5 22.5t-13 38q0 23 14.5 41.5t38.5 18.5q34 0 51 -28.5t17 -73.5q20 -4 36 -4q64 0 112 44q6 6 13 6q8 0 15 -7zM301 304q0 -15 10.5 -22
t30.5 -12q-4 53 -27 53q-14 0 -14 -19z" />
    <glyph glyph-name="x" unicode="x" horiz-adv-x="401" 
d="M191 0q-59 0 -114 97q-55 -64 -65 -84q-4 -12 -18 -12q-8 0 -14 6.5t-6 14.5q0 7 6.5 19.5t18 27t21.5 26t22 25t15 16.5q-9 19 -34 81.5t-25 69.5q0 8 5.5 14.5t14.5 6.5q13 0 18 -12q37 -98 49 -125q76 92 109 161q7 12 19 12q8 0 13.5 -6t5.5 -14q0 -3 -2 -9
q-35 -75 -126 -185q47 -90 87 -90q83 0 210 256q6 11 18 11q8 0 13.5 -6.5t5.5 -14.5q0 -7 -9 -24q-21 -39 -33 -61.5t-40 -66t-50.5 -68.5t-54 -45.5t-60.5 -20.5z" />
    <glyph glyph-name="y" unicode="y" horiz-adv-x="483" 
d="M67 -213q33 0 61.5 49t32.5 95q-1 -1 -17.5 -15t-23.5 -20t-21.5 -21t-21.5 -25.5t-13.5 -24t-6.5 -25.5q0 -13 10 -13zM76 40q30 0 57.5 73t42.5 213q0 7 6 12t15 5q8 0 13.5 -6t5.5 -14q0 -15 0.5 -40t0.5 -36q0 -116 -6 -226q221 171 272 275q6 11 18 11q7 0 13 -6.5
t6 -14.5q0 -3 -2 -9q-34 -68 -110 -140.5t-202 -169.5q-5 -68 -27 -119q-19 -45 -48.5 -73t-63.5 -28q-21 0 -34.5 13t-15.5 35q0 20 8 40.5t16 35t28.5 34.5t30 28t36 29t32.5 26q3 35 7 119q-41 -107 -98 -107q-85 0 -85 188q0 51 6 101q2 19 21 19t19 -20q-6 -42 -6 -95
q0 -153 44 -153z" />
    <glyph glyph-name="z" unicode="z" horiz-adv-x="475" 
d="M265 39q83 1 210 257q6 11 18 11q8 0 13.5 -6.5t5.5 -14.5q0 -7 -9 -24q-21 -39 -33 -61.5t-40 -66t-50.5 -68.5t-54 -46t-60.5 -21q-48 0 -118 33q-30 -35 -70 -35q-30 0 -48 15.5t-18 37.5t18.5 37.5t41.5 15.5q21 0 63 -21q14 25 43 94.5t54 104.5q-2 -1 -7 -1
q-38 0 -90 28q-32 17 -50 17q-34 0 -45 -32q-3 -16 -19 -16q-8 0 -14 6t-6 14q0 28 26 48.5t57 20.5q24 0 69.5 -22.5t71.5 -22.5q14 0 37 8t34 8q8 0 14 -5.5t6 -13.5q0 -14 -12 -19q-33 -25 -55 -63.5t-43 -92t-35 -78.5q54 -26 95 -26zM78 37q16 0 31 13q-26 12 -39 12
q-20 -3 -20 -12q3 -13 28 -13z" />
    <glyph glyph-name="braceleft" unicode="{" horiz-adv-x="261" 
d="M124 -155q-10 0 -14 1q-54 4 -71 55q-3 9 -3 19t2.5 21.5t5 20t9 23t10.5 21.5t12 24q12 22 18 35t12.5 31t6 30t-7.5 21q-2 4 -36 32q-31 24 -36 30l-1 1q-22 30 -2 60q7 11 39 39q37 29 38 43q0 10 -16 24q-40 37 -46 121q-8 90 33 136q29 30 59 33q22 1 48 -9
q17 -6 21 -4q20 4 25 -15q2 -8 -2.5 -15.5t-12.5 -8.5q-14 -4 -44 5q-15 8 -31.5 6.5t-32.5 -19.5q-29 -34 -23 -105q5 -69 33 -95q29 -27 29 -55q-1 -32 -53 -73q-24 -20 -30 -29q-5 -8 0 -14q3 -4 29 -25q38 -29 44 -39q24 -31 9 -80q-6 -24 -34 -79q-40 -76 -33 -99
q7 -25 35.5 -27.5t82.5 9.5q13 3 39 7q19 4 23 -16q1 -8 -4 -14.5t-13 -8.5q-27 -5 -37 -7q-62 -11 -80 -11z" />
    <glyph glyph-name="bar" unicode="|" horiz-adv-x="1461" 
d="M1032 11q-46 0 -99 8q-83 15 -158 49l-6 -3q-126 -52 -273 -49q-157 3 -282 65q-72 37 -120 82q-57 51 -93 117q-9 16 8 27q18 9 27 -8q62 -112 184.5 -176.5t276.5 -66.5q123 -3 233 37q-58 35 -96 80t-48 93q-7 39 2 69q11 32 40 41q40 12 86 -30q36 -33 66 -93
q31 50 71 84q48 40 89 42q32 0 48 -25q25 -47 -29 -135q-46 -76 -137 -128q61 -24 117 -32q39 -7 79.5 -8.5t103 8t118 33.5t116.5 77t106 130q10 17 27 8q18 -10 7 -28q-46 -80 -119 -143q-64 -55 -143 -87q-96 -38 -202 -38z" />
    <glyph glyph-name="braceright" unicode="}" horiz-adv-x="260" 
d="M137 -155q-18 0 -80 11q-10 2 -37 7q-8 2 -13 8.5t-4 14.5q4 20 23 16q26 -4 39 -7q54 -12 82.5 -9.5t35.5 27.5q7 23 -33 99q-28 55 -34 79q-15 49 9 80q6 10 44 39q26 21 29 25q5 6 0 14q-6 9 -30 29q-52 41 -53 73q0 28 29 55q28 26 33 95q6 71 -23 105
q-16 18 -32.5 19.5t-31.5 -6.5q-30 -9 -44 -5q-8 1 -12.5 8.5t-2.5 15.5q5 19 25 15q4 -2 21 4q26 10 48 9q30 -3 59 -33q41 -46 33 -136q-6 -84 -46 -121q-16 -14 -16 -24q1 -14 38 -43q32 -28 39 -39q20 -30 -2 -60l-1 -1q-5 -6 -36 -30q-34 -28 -36 -32q-7 -9 -7.5 -21
t6 -30t12.5 -31t18 -35q8 -17 12 -24t10.5 -21.5t9 -23t5 -20t2.5 -21.5t-3 -19q-17 -51 -71 -55q-4 -1 -14 -1z" />
    <glyph glyph-name="exclamdown" unicode="&#xa1;" horiz-adv-x="181" 
d="M49 279q8 0 14 -5.5t6 -13.5l7 -523q0 -8 -6 -14.5t-14 -6.5t-14 6t-6 14l-7 522q0 8 6 14.5t14 6.5zM27 381q-2 8 3 15.5t13 8.5h4q17 0 20 -16q3 -20 -3 -38q-7 -19 -26 -12t-12 26q0 1 2 4q1 3 1 4q0 2 -2 8z" />
    <glyph glyph-name="sterling" unicode="&#xa3;" horiz-adv-x="361" 
d="M344 52q11 -17 -6 -28q-37 -23 -114 -26h-15q-62 0 -90 14q-19 11 -21 28q-4 111 -6 198q-38 2 -67 7q-8 1 -13 8t-4 15q4 19 23 16q29 -4 61 -6q2 175 24 268q14 68 42 109q29 40 64 40q38 2 73 -38q30 -36 46 -88q5 -18 -14 -25q-18 -5 -25 13q-13 42 -35.5 70
t-42.5 28h-1q-42 -2 -68 -118q-21 -90 -23 -259q14 0 28.5 1t26.5 1.5t23.5 1.5t20 2t15 2t10.5 2h3q8 2 15 -3t8 -13q4 -19 -16 -23q-39 -10 -134 -11q1 -85 6 -190q18 -11 77 -10q69 2 101 20q17 10 28 -6z" />
    <glyph glyph-name="dieresis" unicode="&#xa8;" horiz-adv-x="178" 
d="M29 587q2 6 2 8q0 1 -2 6t-2 9q0 8 6 14t14 6q13 0 18.5 -12t5.5 -23q0 -32 -22 -32h-4q-16 3 -16 24zM111 587q2 6 2 8q0 1 -2 6t-2 9q0 8 6 14t14 6q13 0 18.5 -12t5.5 -23q0 -32 -22 -32h-4q-16 3 -16 24z" />
    <glyph glyph-name="macron" unicode="&#xaf;" horiz-adv-x="203" 
d="M166 442q-6 -10 -56 -10q-59 0 -61 4q-15 3 -15 20q0 8 6.5 13t13.5 5q2 0 3 -0.5l2 -1t12.5 -1t33.5 -0.5q6 0 21.5 1t25.5 1q16 0 20 -18q-1 -6 -6 -13z" />
    <glyph glyph-name="acute" unicode="&#xb4;" horiz-adv-x="107" 
d="M26 522q-9 0 -15 6t-6 14t6 14q17 18 29.5 36t17.5 27l5 9q5 12 19 12q8 0 13.5 -6t5.5 -13q0 -2 -2 -8q0 -2 -5 -12t-19.5 -30.5t-34.5 -41.5q-6 -7 -14 -7z" />
    <glyph glyph-name="cedilla" unicode="&#xb8;" horiz-adv-x="137" 
d="M128 -115q2 -23 -21 -39q-19 -15 -51 -18h-3q-17 0 -19 17q-1 8 4 14.5t13 7.5q13 2 22 5.5t12 6.5t3 4q0 2 -3.5 4.5t-12.5 5.5t-21 3q-13 0 -21 10q-9 12 -8 39l3 37q2 8 9 12.5t15 2.5t12 -8.5t3 -14.5q-2 -14 -2 -39q31 -3 48 -17.5t18 -32.5z" />
    <glyph glyph-name="questiondown" unicode="&#xbf;" horiz-adv-x="330" 
d="M169 273q6 0 9 -2q8 -4 10 -11.5t-2 -15.5q-71 -134 -107 -294q-19 -92 -17 -135.5t17 -54.5q17 -11 61 17q58 36 151 140q14 15 28 1q15 -13 2 -28q-93 -104 -159 -147q-67 -42 -106 -16q-33 24 -34 93q-2 56 18 139q36 160 111 304q6 10 18 10zM190 382q-2 -6 -2 -8v-2
q1 -1 2 -3t1 -3q7 -19 -12 -26t-26 12q-6 18 -3 38q3 16 20 16h4q8 -1 13 -8.5t3 -15.5z" />
    <glyph glyph-name="Agrave" unicode="&#xc0;" horiz-adv-x="736" 
d="M526 40q83 0 210 256q6 11 18 11q8 0 13.5 -6.5t5.5 -14.5q0 -7 -9 -24q-21 -39 -33 -61.5t-40 -66t-50.5 -68.5t-54 -45.5t-60.5 -20.5q-43 0 -73.5 40.5t-42.5 107.5q-24 -67 -63.5 -106t-86.5 -39q-60 0 -108 61.5t-59 156.5q-42 0 -68.5 21t-26.5 46q0 8 6 14t14 6
t14 -6t6 -14q0 -4 5.5 -10t18 -11.5t28.5 -5.5q0 3 -0.5 8t-0.5 7q0 162 68 268t148 106q47 0 83.5 -44t36.5 -110q0 -67 -47 -126.5t-112.5 -95.5t-133.5 -49q10 -78 46.5 -130t80.5 -52q51 0 90 68.5t58 189.5q3 17 19 17q21 0 21 -22q0 -10 -2 -30t-2 -33q0 -81 23 -137
t60 -56zM305 610q-57 0 -105 -73q-71 -107 -71 -260q0 -2 0.5 -6t0.5 -6q52 9 111 43t100 78q44 47 44 109q0 49 -24.5 82t-55.5 33zM303 679q-15 0 -45 40t-30 59q0 8 5.5 13.5t13.5 5.5q15 0 19 -12l5 -9q5 -9 17.5 -27t29.5 -36q5 -5 5 -14q0 -8 -5.5 -14t-14.5 -6z" />
    <glyph glyph-name="Aacute" unicode="&#xc1;" horiz-adv-x="736" 
d="M526 40q83 0 210 256q6 11 18 11q8 0 13.5 -6.5t5.5 -14.5q0 -7 -9 -24q-21 -39 -33 -61.5t-40 -66t-50.5 -68.5t-54 -45.5t-60.5 -20.5q-43 0 -73.5 40.5t-42.5 107.5q-24 -67 -63.5 -106t-86.5 -39q-60 0 -108 61.5t-59 156.5q-42 0 -68.5 21t-26.5 46q0 8 6 14t14 6
t14 -6t6 -14q0 -4 5.5 -10t18 -11.5t28.5 -5.5q0 3 -0.5 8t-0.5 7q0 162 68 268t148 106q47 0 83.5 -44t36.5 -110q0 -67 -47 -126.5t-112.5 -95.5t-133.5 -49q10 -78 46.5 -130t80.5 -52q51 0 90 68.5t58 189.5q3 17 19 17q21 0 21 -22q0 -10 -2 -30t-2 -33q0 -81 23 -137
t60 -56zM305 610q-57 0 -105 -73q-71 -107 -71 -260q0 -2 0.5 -6t0.5 -6q52 9 111 43t100 78q44 47 44 109q0 49 -24.5 82t-55.5 33zM289 682q-9 0 -15 6t-6 14t6 14q17 18 29.5 36t17.5 27l5 9q4 12 19 12q7 0 13 -6t6 -13q0 -2 -2 -8q0 -2 -5 -12t-19.5 -30.5t-34.5 -41.5
q-6 -7 -14 -7z" />
    <glyph glyph-name="Acircumflex" unicode="&#xc2;" horiz-adv-x="736" 
d="M526 40q83 0 210 256q6 11 18 11q8 0 13.5 -6.5t5.5 -14.5q0 -7 -9 -24q-21 -39 -33 -61.5t-40 -66t-50.5 -68.5t-54 -45.5t-60.5 -20.5q-43 0 -73.5 40.5t-42.5 107.5q-24 -67 -63.5 -106t-86.5 -39q-60 0 -108 61.5t-59 156.5q-42 0 -68.5 21t-26.5 46q0 8 6 14t14 6
t14 -6t6 -14q0 -4 5.5 -10t18 -11.5t28.5 -5.5q0 3 -0.5 8t-0.5 7q0 162 68 268t148 106q47 0 83.5 -44t36.5 -110q0 -67 -47 -126.5t-112.5 -95.5t-133.5 -49q10 -78 46.5 -130t80.5 -52q51 0 90 68.5t58 189.5q3 17 19 17q21 0 21 -22q0 -10 -2 -30t-2 -33q0 -81 23 -137
t60 -56zM305 610q-57 0 -105 -73q-71 -107 -71 -260q0 -2 0.5 -6t0.5 -6q52 9 111 43t100 78q44 47 44 109q0 49 -24.5 82t-55.5 33zM354 682q-8 0 -14.5 8t-15.5 22t-20 22q-2 -2 -12 -16t-20 -25t-17 -11q-20 0 -20 24q0 7 23 35q29 35 44 35q14 0 32 -17.5t29 -34
t11 -18.5q0 -24 -20 -24z" />
    <glyph glyph-name="Atilde" unicode="&#xc3;" horiz-adv-x="736" 
d="M526 40q83 0 210 256q6 11 18 11q8 0 13.5 -6.5t5.5 -14.5q0 -7 -9 -24q-21 -39 -33 -61.5t-40 -66t-50.5 -68.5t-54 -45.5t-60.5 -20.5q-43 0 -73.5 40.5t-42.5 107.5q-24 -67 -63.5 -106t-86.5 -39q-60 0 -108 61.5t-59 156.5q-42 0 -68.5 21t-26.5 46q0 8 6 14t14 6
t14 -6t6 -14q0 -4 5.5 -10t18 -11.5t28.5 -5.5q0 3 -0.5 8t-0.5 7q0 162 68 268t148 106q47 0 83.5 -44t36.5 -110q0 -67 -47 -126.5t-112.5 -95.5t-133.5 -49q10 -78 46.5 -130t80.5 -52q51 0 90 68.5t58 189.5q3 17 19 17q21 0 21 -22q0 -10 -2 -30t-2 -33q0 -81 23 -137
t60 -56zM305 610q-57 0 -105 -73q-71 -107 -71 -260q0 -2 0.5 -6t0.5 -6q52 9 111 43t100 78q44 47 44 109q0 49 -24.5 82t-55.5 33zM333 682q-11 0 -21.5 6t-16.5 12l-22 22q-19 -39 -34 -39q-8 0 -14 6.5t-6 14.5q0 3 2 7q22 51 51 51q18 0 38.5 -20t22.5 -20q7 35 27 35
q9 0 14.5 -5.5t5.5 -13.5q0 -21 -10.5 -35t-20 -17.5t-16.5 -3.5z" />
    <glyph glyph-name="Adieresis" unicode="&#xc4;" horiz-adv-x="736" 
d="M526 40q83 0 210 256q6 11 18 11q8 0 13.5 -6.5t5.5 -14.5q0 -7 -9 -24q-21 -39 -33 -61.5t-40 -66t-50.5 -68.5t-54 -45.5t-60.5 -20.5q-43 0 -73.5 40.5t-42.5 107.5q-24 -67 -63.5 -106t-86.5 -39q-60 0 -108 61.5t-59 156.5q-42 0 -68.5 21t-26.5 46q0 8 6 14t14 6
t14 -6t6 -14q0 -4 5.5 -10t18 -11.5t28.5 -5.5q0 3 -0.5 8t-0.5 7q0 162 68 268t148 106q47 0 83.5 -44t36.5 -110q0 -67 -47 -126.5t-112.5 -95.5t-133.5 -49q10 -78 46.5 -130t80.5 -52q51 0 90 68.5t58 189.5q3 17 19 17q21 0 21 -22q0 -10 -2 -30t-2 -33q0 -81 23 -137
t60 -56zM305 610q-57 0 -105 -73q-71 -107 -71 -260q0 -2 0.5 -6t0.5 -6q52 9 111 43t100 78q44 47 44 109q0 49 -24.5 82t-55.5 33zM241 707q2 6 2 8q0 1 -2 6t-2 9q0 8 6 14t14 6q13 0 18.5 -12t5.5 -23q0 -32 -22 -32h-4q-16 3 -16 24zM323 707q2 6 2 8q0 1 -2 6t-2 9
q0 8 6 14t14 6q13 0 18.5 -12t5.5 -23q0 -32 -22 -32h-4q-16 3 -16 24z" />
    <glyph glyph-name="Aring" unicode="&#xc5;" horiz-adv-x="736" 
d="M526 40q83 0 210 256q6 11 18 11q8 0 13.5 -6.5t5.5 -14.5q0 -7 -9 -24q-21 -39 -33 -61.5t-40 -66t-50.5 -68.5t-54 -45.5t-60.5 -20.5q-43 0 -73.5 40.5t-42.5 107.5q-24 -67 -63.5 -106t-86.5 -39q-60 0 -108 61.5t-59 156.5q-42 0 -68.5 21t-26.5 46q0 8 6 14t14 6
t14 -6t6 -14q0 -4 5.5 -10t18 -11.5t28.5 -5.5q0 3 -0.5 8t-0.5 7q0 162 68 268t148 106q47 0 83.5 -44t36.5 -110q0 -67 -47 -126.5t-112.5 -95.5t-133.5 -49q10 -78 46.5 -130t80.5 -52q51 0 90 68.5t58 189.5q3 17 19 17q21 0 21 -22q0 -10 -2 -30t-2 -33q0 -81 23 -137
t60 -56zM305 610q-57 0 -105 -73q-71 -107 -71 -260q0 -2 0.5 -6t0.5 -6q52 9 111 43t100 78q44 47 44 109q0 49 -24.5 82t-55.5 33zM303 674q-25 0 -39.5 17.5t-14.5 45.5q0 32 16.5 56t41.5 24t38.5 -21t13.5 -49q0 -32 -15.5 -52.5t-40.5 -20.5zM307 777q-6 0 -12.5 -12
t-6.5 -26q0 -25 15 -25q16 0 16 34q0 10 -2.5 17.5t-5 9.5t-3.5 2h-1z" />
    <glyph glyph-name="AE" unicode="&#xc6;" horiz-adv-x="772" 
d="M541 40q103 0 230 256q6 11 18 11q8 0 13.5 -6.5t5.5 -14.5q0 -7 -9 -24q-20 -39 -33 -62t-41.5 -66t-53.5 -68t-60 -45.5t-70 -20.5q-60 0 -102 22.5t-59 61.5q-49 -81 -120 -81q-60 0 -108 61.5t-59 156.5q-42 0 -68.5 21t-26.5 46q0 8 6 14t14 6t14 -6t6 -14
q0 -4 5.5 -10t18 -11.5t28.5 -5.5q0 3 -0.5 8t-0.5 7q0 162 68 268t148 106q30 0 58 -19.5t44 -53.5q22 40 55 64.5t69 24.5q37 0 59.5 -23.5t22.5 -63.5q0 -108 -141 -233q41 -35 103 -35q8 0 14 -6t6 -14t-6 -14t-14 -6q-76 0 -120 -41t-44 -95q0 -43 37.5 -69t92.5 -26z
M130 265q180 0 286 84l-1 1q-37 51 -37 118q0 22 5 49q-6 41 -28.5 67t-49.5 26q-57 0 -105 -73q-71 -107 -71 -260q0 -2 0.5 -6t0.5 -6zM374 166q8 40 35.5 74t71.5 53q-23 11 -39 27h-1q-112 -95 -309 -95q10 -78 46.5 -130t80.5 -52q69 0 115 123zM531 626
q-40 0 -76.5 -47.5t-36.5 -110.5q0 -52 27 -92q57 47 92.5 102.5t35.5 100.5q0 47 -42 47z" />
    <glyph glyph-name="Ccedilla" unicode="&#xc7;" horiz-adv-x="551" 
d="M428 -79q2 -23 -21 -39q-19 -15 -51 -18h-3q-17 0 -19 17q-1 8 4 14.5t13 7.5q13 2 22 5.5t12 6.5t3 4q0 2 -3.5 4.5t-12.5 5.5t-21 3q-13 0 -21 10q-9 12 -8 39q0 6 2 20q-44 7 -83 61t-59 175q-48 -21 -90 -21q-94 0 -94 72q0 8 6 14t14 6t14 -6t6 -14q0 -20 11.5 -26
t41.5 -6q14 0 48.5 8t37.5 15q-4 36 -4 83q0 117 29 193q35 95 102 95q40 0 63.5 -30t23.5 -80q0 -74 -48.5 -156t-122.5 -128q13 -95 45 -155.5t74 -60.5q83 0 210 256q6 11 18 11q8 0 13.5 -6.5t5.5 -14.5q0 -7 -9 -24q-26 -48 -40.5 -73.5t-46 -73t-63.5 -75.5t-64 -37
q-1 -10 -1 -32q31 -3 48 -17.5t18 -32.5zM304 610q-44 0 -67.5 -73t-23.5 -175q0 -21 2 -61q66 45 101 115t35 125q0 69 -47 69z" />
    <glyph glyph-name="Egrave" unicode="&#xc8;" horiz-adv-x="583" 
d="M353 40q103 0 230 256q6 11 18 11q8 0 13.5 -6.5t5.5 -14.5q0 -7 -9 -24q-20 -39 -33 -62t-41.5 -66t-53.5 -68t-60 -45.5t-70 -20.5q-78 0 -124 37t-46 98q0 48 29 92t81 66q-23 11 -39 27q-118 -95 -181 -95q-49 0 -73 55q-2 6 -2 8q0 7 6 13.5t14 6.5q13 0 18 -12
q14 -31 37 -31q25 0 69 23t85 62q-37 51 -37 118q0 76 46.5 137t106.5 61q37 0 59.5 -23.5t22.5 -63.5q0 -108 -141 -233q41 -35 103 -35q8 0 14 -6t6 -14t-6 -14t-14 -6q-76 0 -120 -41t-44 -95q0 -43 37.5 -69t92.5 -26zM343 626q-40 0 -76.5 -47.5t-36.5 -110.5
q0 -52 27 -92q57 47 92.5 102.5t35.5 100.5q0 47 -42 47zM344 699q-15 0 -45 40t-30 59q0 8 5.5 13.5t13.5 5.5q14 0 19 -12l5 -9q5 -9 17.5 -27t29.5 -36q5 -5 5 -14q0 -8 -5.5 -14t-14.5 -6z" />
    <glyph glyph-name="Eacute" unicode="&#xc9;" horiz-adv-x="583" 
d="M353 40q103 0 230 256q6 11 18 11q8 0 13.5 -6.5t5.5 -14.5q0 -7 -9 -24q-20 -39 -33 -62t-41.5 -66t-53.5 -68t-60 -45.5t-70 -20.5q-78 0 -124 37t-46 98q0 48 29 92t81 66q-23 11 -39 27q-118 -95 -181 -95q-49 0 -73 55q-2 6 -2 8q0 7 6 13.5t14 6.5q13 0 18 -12
q14 -31 37 -31q25 0 69 23t85 62q-37 51 -37 118q0 76 46.5 137t106.5 61q37 0 59.5 -23.5t22.5 -63.5q0 -108 -141 -233q41 -35 103 -35q8 0 14 -6t6 -14t-6 -14t-14 -6q-76 0 -120 -41t-44 -95q0 -43 37.5 -69t92.5 -26zM343 626q-40 0 -76.5 -47.5t-36.5 -110.5
q0 -52 27 -92q57 47 92.5 102.5t35.5 100.5q0 47 -42 47zM330 702q-9 0 -15 6t-6 14t6 14q17 18 29.5 36t17.5 27l5 9q5 12 19 12q8 0 13.5 -6t5.5 -13q0 -2 -2 -8q0 -2 -5 -12t-19.5 -30.5t-34.5 -41.5q-6 -7 -14 -7z" />
    <glyph glyph-name="Ecircumflex" unicode="&#xca;" horiz-adv-x="583" 
d="M353 40q103 0 230 256q6 11 18 11q8 0 13.5 -6.5t5.5 -14.5q0 -7 -9 -24q-20 -39 -33 -62t-41.5 -66t-53.5 -68t-60 -45.5t-70 -20.5q-78 0 -124 37t-46 98q0 48 29 92t81 66q-23 11 -39 27q-118 -95 -181 -95q-49 0 -73 55q-2 6 -2 8q0 7 6 13.5t14 6.5q13 0 18 -12
q14 -31 37 -31q25 0 69 23t85 62q-37 51 -37 118q0 76 46.5 137t106.5 61q37 0 59.5 -23.5t22.5 -63.5q0 -108 -141 -233q41 -35 103 -35q8 0 14 -6t6 -14t-6 -14t-14 -6q-76 0 -120 -41t-44 -95q0 -43 37.5 -69t92.5 -26zM343 626q-40 0 -76.5 -47.5t-36.5 -110.5
q0 -52 27 -92q57 47 92.5 102.5t35.5 100.5q0 47 -42 47zM395 702q-8 0 -14.5 8t-15.5 22t-20 22q-2 -2 -12 -16t-20 -25t-17 -11q-20 0 -20 24q0 7 23 35q29 35 44 35q14 0 32 -17.5t29 -34t11 -18.5q0 -24 -20 -24z" />
    <glyph glyph-name="Edieresis" unicode="&#xcb;" horiz-adv-x="583" 
d="M353 40q103 0 230 256q6 11 18 11q8 0 13.5 -6.5t5.5 -14.5q0 -7 -9 -24q-20 -39 -33 -62t-41.5 -66t-53.5 -68t-60 -45.5t-70 -20.5q-78 0 -124 37t-46 98q0 48 29 92t81 66q-23 11 -39 27q-118 -95 -181 -95q-49 0 -73 55q-2 6 -2 8q0 7 6 13.5t14 6.5q13 0 18 -12
q14 -31 37 -31q25 0 69 23t85 62q-37 51 -37 118q0 76 46.5 137t106.5 61q37 0 59.5 -23.5t22.5 -63.5q0 -108 -141 -233q41 -35 103 -35q8 0 14 -6t6 -14t-6 -14t-14 -6q-76 0 -120 -41t-44 -95q0 -43 37.5 -69t92.5 -26zM343 626q-40 0 -76.5 -47.5t-36.5 -110.5
q0 -52 27 -92q57 47 92.5 102.5t35.5 100.5q0 47 -42 47zM282 727q2 6 2 8l-2 5q-2 6 -2 10q0 8 6 14t14 6q13 0 18.5 -12t5.5 -23q0 -32 -22 -32h-4q-16 3 -16 24zM364 727q2 6 2 8l-2 5q-2 6 -2 10q0 8 6 14t14 6q13 0 18.5 -12t5.5 -23q0 -32 -22 -32h-4q-16 3 -16 24z
" />
    <glyph glyph-name="Igrave" unicode="&#xcc;" horiz-adv-x="711" 
d="M464 660q-35 0 -63.5 -87.5t-28.5 -216.5q0 -83 13 -147q47 75 77.5 185.5t30.5 187.5q0 78 -29 78zM501 0q-86 0 -133 120v1q-1 1 -1 2q-86 -86 -178 -86q-88 0 -139.5 66.5t-51.5 184.5q0 8 6 14t14 6t14 -6t6 -14q0 -100 40 -155.5t110 -55.5q41 0 85.5 24t79.5 66
q-21 81 -21 189q0 138 30 229q36 115 102 115q35 0 52 -33.5t17 -85.5q0 -98 -38 -222t-98 -201q22 -61 46 -89.5t58 -28.5q83 0 210 256q6 11 18 11q8 0 13.5 -6.5t5.5 -14.5q0 -7 -9 -24q-21 -39 -33 -61.5t-40 -66t-50.5 -68.5t-54 -45.5t-60.5 -20.5zM465 733
q-15 0 -45 40t-30 59q0 8 5.5 13.5t13.5 5.5q15 0 19 -12l5 -9q5 -9 17.5 -27t29.5 -36q5 -5 5 -14q0 -8 -5.5 -14t-14.5 -6z" />
    <glyph glyph-name="Iacute" unicode="&#xcd;" horiz-adv-x="711" 
d="M464 660q-35 0 -63.5 -87.5t-28.5 -216.5q0 -83 13 -147q47 75 77.5 185.5t30.5 187.5q0 78 -29 78zM501 0q-86 0 -133 120v1q-1 1 -1 2q-86 -86 -178 -86q-88 0 -139.5 66.5t-51.5 184.5q0 8 6 14t14 6t14 -6t6 -14q0 -100 40 -155.5t110 -55.5q41 0 85.5 24t79.5 66
q-21 81 -21 189q0 138 30 229q36 115 102 115q35 0 52 -33.5t17 -85.5q0 -98 -38 -222t-98 -201q22 -61 46 -89.5t58 -28.5q83 0 210 256q6 11 18 11q8 0 13.5 -6.5t5.5 -14.5q0 -7 -9 -24q-21 -39 -33 -61.5t-40 -66t-50.5 -68.5t-54 -45.5t-60.5 -20.5zM451 736
q-9 0 -15 6t-6 14t6 14q17 18 29.5 36t17.5 27l5 9q4 12 19 12q7 0 13 -6t6 -13q0 -2 -2 -8q0 -2 -5 -12t-19.5 -30.5t-34.5 -41.5q-6 -7 -14 -7z" />
    <glyph glyph-name="Icircumflex" unicode="&#xce;" horiz-adv-x="711" 
d="M464 660q-35 0 -63.5 -87.5t-28.5 -216.5q0 -83 13 -147q47 75 77.5 185.5t30.5 187.5q0 78 -29 78zM501 0q-86 0 -133 120v1q-1 1 -1 2q-86 -86 -178 -86q-88 0 -139.5 66.5t-51.5 184.5q0 8 6 14t14 6t14 -6t6 -14q0 -100 40 -155.5t110 -55.5q41 0 85.5 24t79.5 66
q-21 81 -21 189q0 138 30 229q36 115 102 115q35 0 52 -33.5t17 -85.5q0 -98 -38 -222t-98 -201q22 -61 46 -89.5t58 -28.5q83 0 210 256q6 11 18 11q8 0 13.5 -6.5t5.5 -14.5q0 -7 -9 -24q-21 -39 -33 -61.5t-40 -66t-50.5 -68.5t-54 -45.5t-60.5 -20.5zM516 736
q-8 0 -14.5 8t-15.5 22t-20 22q-2 -2 -12 -16t-20 -25t-17 -11q-20 0 -20 24q0 7 23 35q29 35 44 35q14 0 32 -17.5t29 -34t11 -18.5q0 -24 -20 -24z" />
    <glyph glyph-name="Idieresis" unicode="&#xcf;" horiz-adv-x="711" 
d="M464 660q-35 0 -63.5 -87.5t-28.5 -216.5q0 -83 13 -147q47 75 77.5 185.5t30.5 187.5q0 78 -29 78zM501 0q-86 0 -133 120v1q-1 1 -1 2q-86 -86 -178 -86q-88 0 -139.5 66.5t-51.5 184.5q0 8 6 14t14 6t14 -6t6 -14q0 -100 40 -155.5t110 -55.5q41 0 85.5 24t79.5 66
q-21 81 -21 189q0 138 30 229q36 115 102 115q35 0 52 -33.5t17 -85.5q0 -98 -38 -222t-98 -201q22 -61 46 -89.5t58 -28.5q83 0 210 256q6 11 18 11q8 0 13.5 -6.5t5.5 -14.5q0 -7 -9 -24q-21 -39 -33 -61.5t-40 -66t-50.5 -68.5t-54 -45.5t-60.5 -20.5zM403 761q2 6 2 8
q0 1 -2 6t-2 9q0 8 6 14t14 6q13 0 18.5 -12t5.5 -23q0 -32 -22 -32h-4q-16 3 -16 24zM485 761q2 6 2 8q0 1 -2 6t-2 9q0 8 6 14t14 6q13 0 18.5 -12t5.5 -23q0 -32 -22 -32h-4q-16 3 -16 24z" />
    <glyph glyph-name="Eth" unicode="&#xd0;" horiz-adv-x="592" 
d="M220 -20q-53 0 -90 38t-37 92q0 8 6 14t14 6t14 -6t6 -14q0 -35 24.5 -62.5t62.5 -27.5q84 0 137 97t53 241q0 101 -27.5 177t-78.5 76q-50 0 -98 -75.5t-88 -215.5q-25 -92 -35 -137h17q16 0 20 -18q-1 -6 -6 -13q-4 -8 -39 -10q-5 -27 -9.5 -55.5t-6.5 -41.5t-5 -25
t-6.5 -16t-10.5 -5q-18 0 -21 15q-12 41 -15 129q-23 2 -24 3q-15 3 -15 20q0 8 6.5 13t13.5 5q2 0 6 -1t12 -2q-1 21 -1 65q0 186 18 319q12 95 33 120q11 14 25 14q7 0 13.5 -3t14.5 -11.5t12.5 -27t4.5 -45.5q0 -53 -17 -118.5t-63 -198.5q-1 -18 -1 -54q0 -41 1 -60h3
q25 132 62 235.5t89.5 169t109.5 65.5q65 0 105.5 -83t40.5 -210q0 -202 -91 -309q76 34 137 100.5t96 147.5q5 12 18 12q8 0 14 -6t6 -14q0 -2 -2 -8q-54 -128 -168 -214.5t-240 -86.5zM76 650q-17 -38 -31 -213q35 109 35 175q0 22 -4 38z" />
    <glyph glyph-name="Ntilde" unicode="&#xd1;" horiz-adv-x="675" 
d="M79 655q-4 -7 -10.5 -35t-14 -84t-10.5 -117q39 120 39 203q0 23 -4 33zM465 0q-38 0 -66.5 34.5t-49.5 111.5q-21 75 -46.5 256t-40.5 207q-32 -26 -75 -148q-66 -191 -130 -448q-5 -14 -20 -14q-16 0 -19 15q-18 69 -18 252q0 173 16 296q13 92 34 122q12 15 27 15
q7 0 13.5 -2.5t14.5 -9.5t13 -24t5 -41q0 -130 -83 -329q0 -111 5 -172q73 274 123 401.5t99 127.5q29 0 44 -68t33.5 -201.5t43.5 -223.5q32 -117 77 -117q83 0 210 256q6 11 18 11q8 0 13.5 -6.5t5.5 -14.5q0 -7 -9 -24q-21 -39 -33 -61.5t-40 -66t-50.5 -68.5t-54 -45.5
t-60.5 -20.5zM295 683q-11 0 -21.5 6t-16.5 12l-22 22q-19 -39 -34 -39q-8 0 -14 6.5t-6 14.5q0 3 2 7q22 51 51 51q18 0 38.5 -20t22.5 -20q7 35 27 35q9 0 14.5 -5.5t5.5 -13.5q0 -21 -10.5 -35t-20 -17.5t-16.5 -3.5z" />
    <glyph glyph-name="Ograve" unicode="&#xd2;" horiz-adv-x="925" 
d="M664 194l-2 -4q73 2 144 32t122 79q6 6 13 6q9 0 15 -6t6 -15q0 -8 -6 -13q-122 -119 -309 -122q-35 -80 -84.5 -123.5t-106.5 -43.5q-125 0 -182 116q-43 86 -45 220q-33 -26 -51.5 -39t-53 -28t-64.5 -15q-27 0 -43.5 12.5t-16.5 35.5q0 8 6 14t14 6q9 0 12.5 -4.5
t3.5 -9.5t5.5 -9.5t17.5 -4.5q32 0 84 30.5t88 66.5q4 78 21.5 122.5t41.5 44.5q18 0 29.5 -13t11.5 -34q0 -62 -65 -137q-1 -11 -1 -36q0 -103 29 -177q47 -121 158 -121q52 0 94 44.5t56 86.5q-109 14 -176 91.5t-67 195.5q0 94 45 174t109 80q84 0 133 -78t49 -210
q0 -109 -35 -214zM517 656q-41 0 -77.5 -66.5t-36.5 -150.5q0 -96 59 -167t160 -78q37 105 37 214q0 102 -35 175t-107 73zM296 496q-4 -5 -17 -54q17 22 17 54zM516 731q-15 0 -45 40t-30 59q0 8 5.5 13.5t13.5 5.5q14 0 19 -12l5 -9q5 -9 17.5 -27t29.5 -36q5 -5 5 -14
q0 -8 -5.5 -14t-14.5 -6z" />
    <glyph glyph-name="Oacute" unicode="&#xd3;" horiz-adv-x="925" 
d="M664 194l-2 -4q73 2 144 32t122 79q6 6 13 6q9 0 15 -6t6 -15q0 -8 -6 -13q-122 -119 -309 -122q-35 -80 -84.5 -123.5t-106.5 -43.5q-125 0 -182 116q-43 86 -45 220q-33 -26 -51.5 -39t-53 -28t-64.5 -15q-27 0 -43.5 12.5t-16.5 35.5q0 8 6 14t14 6q9 0 12.5 -4.5
t3.5 -9.5t5.5 -9.5t17.5 -4.5q32 0 84 30.5t88 66.5q4 78 21.5 122.5t41.5 44.5q18 0 29.5 -13t11.5 -34q0 -62 -65 -137q-1 -11 -1 -36q0 -103 29 -177q47 -121 158 -121q52 0 94 44.5t56 86.5q-109 14 -176 91.5t-67 195.5q0 94 45 174t109 80q84 0 133 -78t49 -210
q0 -109 -35 -214zM517 656q-41 0 -77.5 -66.5t-36.5 -150.5q0 -96 59 -167t160 -78q37 105 37 214q0 102 -35 175t-107 73zM296 496q-4 -5 -17 -54q17 22 17 54zM502 734q-9 0 -15 6t-6 14t6 14q17 18 29.5 36t17.5 27l5 9q5 12 19 12q8 0 13.5 -6t5.5 -13q0 -2 -2 -8
q0 -2 -5 -12t-19.5 -30.5t-34.5 -41.5q-6 -7 -14 -7z" />
    <glyph glyph-name="Ocircumflex" unicode="&#xd4;" horiz-adv-x="925" 
d="M664 194l-2 -4q73 2 144 32t122 79q6 6 13 6q9 0 15 -6t6 -15q0 -8 -6 -13q-122 -119 -309 -122q-35 -80 -84.5 -123.5t-106.5 -43.5q-125 0 -182 116q-43 86 -45 220q-33 -26 -51.5 -39t-53 -28t-64.5 -15q-27 0 -43.5 12.5t-16.5 35.5q0 8 6 14t14 6q9 0 12.5 -4.5
t3.5 -9.5t5.5 -9.5t17.5 -4.5q32 0 84 30.5t88 66.5q4 78 21.5 122.5t41.5 44.5q18 0 29.5 -13t11.5 -34q0 -62 -65 -137q-1 -11 -1 -36q0 -103 29 -177q47 -121 158 -121q52 0 94 44.5t56 86.5q-109 14 -176 91.5t-67 195.5q0 94 45 174t109 80q84 0 133 -78t49 -210
q0 -109 -35 -214zM517 656q-41 0 -77.5 -66.5t-36.5 -150.5q0 -96 59 -167t160 -78q37 105 37 214q0 102 -35 175t-107 73zM296 496q-4 -5 -17 -54q17 22 17 54zM567 734q-8 0 -14.5 8t-15.5 22t-20 22q-2 -2 -12 -16t-20 -25t-17 -11q-20 0 -20 24q0 7 23 35q29 35 44 35
q14 0 32 -17.5t29 -34t11 -18.5q0 -24 -20 -24z" />
    <glyph glyph-name="Otilde" unicode="&#xd5;" horiz-adv-x="925" 
d="M664 194l-2 -4q73 2 144 32t122 79q6 6 13 6q9 0 15 -6t6 -15q0 -8 -6 -13q-122 -119 -309 -122q-35 -80 -84.5 -123.5t-106.5 -43.5q-125 0 -182 116q-43 86 -45 220q-33 -26 -51.5 -39t-53 -28t-64.5 -15q-27 0 -43.5 12.5t-16.5 35.5q0 8 6 14t14 6q9 0 12.5 -4.5
t3.5 -9.5t5.5 -9.5t17.5 -4.5q32 0 84 30.5t88 66.5q4 78 21.5 122.5t41.5 44.5q18 0 29.5 -13t11.5 -34q0 -62 -65 -137q-1 -11 -1 -36q0 -103 29 -177q47 -121 158 -121q52 0 94 44.5t56 86.5q-109 14 -176 91.5t-67 195.5q0 94 45 174t109 80q84 0 133 -78t49 -210
q0 -109 -35 -214zM517 656q-41 0 -77.5 -66.5t-36.5 -150.5q0 -96 59 -167t160 -78q37 105 37 214q0 102 -35 175t-107 73zM296 496q-4 -5 -17 -54q17 22 17 54zM546 734q-11 0 -21.5 6t-16.5 12l-22 22q-20 -39 -34 -39q-8 0 -14 6.5t-6 14.5q0 3 2 7q22 51 51 51
q18 0 38.5 -20t22.5 -20q7 35 27 35q9 0 14.5 -5.5t5.5 -13.5q0 -21 -10.5 -35t-20 -17.5t-16.5 -3.5z" />
    <glyph glyph-name="Odieresis" unicode="&#xd6;" horiz-adv-x="925" 
d="M664 194l-2 -4q73 2 144 32t122 79q6 6 13 6q9 0 15 -6t6 -15q0 -8 -6 -13q-122 -119 -309 -122q-35 -80 -84.5 -123.5t-106.5 -43.5q-125 0 -182 116q-43 86 -45 220q-33 -26 -51.5 -39t-53 -28t-64.5 -15q-27 0 -43.5 12.5t-16.5 35.5q0 8 6 14t14 6q9 0 12.5 -4.5
t3.5 -9.5t5.5 -9.5t17.5 -4.5q32 0 84 30.5t88 66.5q4 78 21.5 122.5t41.5 44.5q18 0 29.5 -13t11.5 -34q0 -62 -65 -137q-1 -11 -1 -36q0 -103 29 -177q47 -121 158 -121q52 0 94 44.5t56 86.5q-109 14 -176 91.5t-67 195.5q0 94 45 174t109 80q84 0 133 -78t49 -210
q0 -109 -35 -214zM517 656q-41 0 -77.5 -66.5t-36.5 -150.5q0 -96 59 -167t160 -78q37 105 37 214q0 102 -35 175t-107 73zM296 496q-4 -5 -17 -54q17 22 17 54zM454 759q2 6 2 8q0 1 -2 6.5t-2 8.5q0 8 6 14t14 6q13 0 18.5 -12t5.5 -23q0 -32 -22 -32h-4q-16 3 -16 24z
M536 759q2 6 2 8q0 1 -2 6.5t-2 8.5q0 8 6 14t14 6q13 0 18.5 -12t5.5 -23q0 -32 -22 -32h-4q-16 3 -16 24z" />
    <glyph glyph-name="Oslash" unicode="&#xd8;" horiz-adv-x="925" 
d="M456 -16q-128 0 -182 116q-43 86 -45 220q-33 -26 -51.5 -39t-53 -28t-64.5 -15q-27 0 -43.5 12.5t-16.5 35.5q0 8 6 14t14 6q9 0 12.5 -4.5t3.5 -9.5t5.5 -9.5t17.5 -4.5q32 0 84 30.5t88 66.5q4 78 21.5 122.5t41.5 44.5q18 0 29.5 -13t11.5 -34q0 -62 -65 -137
q-1 -11 -1 -36q0 -103 29 -177q20 -52 54 -86q1 0 1 1q29 94 64 203q-54 76 -54 179q0 94 45 174t109 80q91 0 136.5 -77.5t45.5 -210.5q0 -109 -35 -214l-2 -4q73 2 144 32t122 79q6 6 13 6q9 0 15 -6t6 -15q0 -8 -6 -13q-122 -119 -309 -122q-35 -80 -84.5 -123.5
t-106.5 -43.5zM576 638q-9 -27 -27 -84t-44.5 -141t-44.5 -139q61 -73 162 -80q37 105 37 214q0 76 -20.5 139.5t-62.5 90.5zM446 229q-18 -56 -61 -190q31 -15 71 -15q52 0 94 44.5t56 86.5q-95 12 -160 74zM433 314q69 220 108 339q-11 3 -24 3q-41 0 -77.5 -66.5
t-36.5 -150.5q0 -69 30 -125zM296 496q-4 -5 -17 -54q17 22 17 54z" />
    <glyph glyph-name="Ugrave" unicode="&#xd9;" horiz-adv-x="956" 
d="M746 0q-118 0 -142 343q-32 -159 -85.5 -251t-108.5 -92q-149 0 -149 415q-41 -89 -95.5 -142.5t-103.5 -53.5q-29 0 -46.5 19t-17.5 50q0 8 6 14t14 6t14 -6t6 -14q0 -27 22 -29q48 0 116 90q75 98 98 270q4 31 22 31q9 0 14.5 -6t5.5 -14q0 -3 -1 -8.5t-1 -7.5
q-13 -105 -13 -215q0 -162 30.5 -260.5t78.5 -98.5q23 0 53.5 39t58.5 119q63 175 84 427q0 5 0.5 17.5t1 20.5t2.5 17t7 13.5t13 4.5q9 0 14.5 -5.5t5.5 -13.5q0 -36 -5 -105.5t-5 -104.5q0 -188 29.5 -308.5t76.5 -120.5q83 0 210 256q6 11 18 11q8 0 13.5 -6.5t5.5 -14.5
q0 -7 -9 -24q-21 -39 -33 -61.5t-40 -66t-50.5 -68.5t-54 -45.5t-60.5 -20.5zM445 716q-15 0 -45 40t-30 59q0 8 5.5 13.5t13.5 5.5q15 0 19 -12l5 -9q5 -9 17.5 -27t29.5 -36q5 -5 5 -14q0 -8 -5.5 -14t-14.5 -6z" />
    <glyph glyph-name="Uacute" unicode="&#xda;" horiz-adv-x="956" 
d="M746 0q-118 0 -142 343q-32 -159 -85.5 -251t-108.5 -92q-149 0 -149 415q-41 -89 -95.5 -142.5t-103.5 -53.5q-29 0 -46.5 19t-17.5 50q0 8 6 14t14 6t14 -6t6 -14q0 -27 22 -29q48 0 116 90q75 98 98 270q4 31 22 31q9 0 14.5 -6t5.5 -14q0 -3 -1 -8.5t-1 -7.5
q-13 -105 -13 -215q0 -162 30.5 -260.5t78.5 -98.5q23 0 53.5 39t58.5 119q63 175 84 427q0 5 0.5 17.5t1 20.5t2.5 17t7 13.5t13 4.5q9 0 14.5 -5.5t5.5 -13.5q0 -36 -5 -105.5t-5 -104.5q0 -188 29.5 -308.5t76.5 -120.5q83 0 210 256q6 11 18 11q8 0 13.5 -6.5t5.5 -14.5
q0 -7 -9 -24q-21 -39 -33 -61.5t-40 -66t-50.5 -68.5t-54 -45.5t-60.5 -20.5zM431 719q-9 0 -15 6t-6 14t6 14q17 18 29.5 36t17.5 27l5 9q4 12 19 12q7 0 13 -5.5t6 -13.5q0 -2 -2 -8q0 -2 -5 -12t-19.5 -30.5t-34.5 -41.5q-6 -7 -14 -7z" />
    <glyph glyph-name="Ucircumflex" unicode="&#xdb;" horiz-adv-x="956" 
d="M746 0q-118 0 -142 343q-32 -159 -85.5 -251t-108.5 -92q-149 0 -149 415q-41 -89 -95.5 -142.5t-103.5 -53.5q-29 0 -46.5 19t-17.5 50q0 8 6 14t14 6t14 -6t6 -14q0 -27 22 -29q48 0 116 90q75 98 98 270q4 31 22 31q9 0 14.5 -6t5.5 -14q0 -3 -1 -8.5t-1 -7.5
q-13 -105 -13 -215q0 -162 30.5 -260.5t78.5 -98.5q23 0 53.5 39t58.5 119q63 175 84 427q0 5 0.5 17.5t1 20.5t2.5 17t7 13.5t13 4.5q9 0 14.5 -5.5t5.5 -13.5q0 -36 -5 -105.5t-5 -104.5q0 -188 29.5 -308.5t76.5 -120.5q83 0 210 256q6 11 18 11q8 0 13.5 -6.5t5.5 -14.5
q0 -7 -9 -24q-21 -39 -33 -61.5t-40 -66t-50.5 -68.5t-54 -45.5t-60.5 -20.5zM496 719q-8 0 -14.5 8t-15.5 22t-20 22q-2 -2 -12 -16t-20 -25t-17 -11q-20 0 -20 24q0 7 23 35q29 35 44 35q14 0 32 -17.5t29 -34t11 -18.5q0 -24 -20 -24z" />
    <glyph glyph-name="Udieresis" unicode="&#xdc;" horiz-adv-x="956" 
d="M746 0q-118 0 -142 343q-32 -159 -85.5 -251t-108.5 -92q-149 0 -149 415q-41 -89 -95.5 -142.5t-103.5 -53.5q-29 0 -46.5 19t-17.5 50q0 8 6 14t14 6t14 -6t6 -14q0 -27 22 -29q48 0 116 90q75 98 98 270q4 31 22 31q9 0 14.5 -6t5.5 -14q0 -3 -1 -8.5t-1 -7.5
q-13 -105 -13 -215q0 -162 30.5 -260.5t78.5 -98.5q23 0 53.5 39t58.5 119q63 175 84 427q0 5 0.5 17.5t1 20.5t2.5 17t7 13.5t13 4.5q9 0 14.5 -5.5t5.5 -13.5q0 -36 -5 -105.5t-5 -104.5q0 -188 29.5 -308.5t76.5 -120.5q83 0 210 256q6 11 18 11q8 0 13.5 -6.5t5.5 -14.5
q0 -7 -9 -24q-21 -39 -33 -61.5t-40 -66t-50.5 -68.5t-54 -45.5t-60.5 -20.5zM383 744q2 6 2 8l-2 6q-2 6 -2 9q0 8 6 14t14 6q13 0 18.5 -12t5.5 -23q0 -32 -22 -32h-4q-16 3 -16 24zM465 744q2 6 2 8l-2 6q-2 6 -2 9q0 8 6 14t14 6q13 0 18.5 -12t5.5 -23q0 -32 -22 -32
h-4q-16 3 -16 24z" />
    <glyph glyph-name="Yacute" unicode="&#xdd;" horiz-adv-x="929" 
d="M656 67q34 26 105 73t109.5 81t58.5 75q6 11 18 11q7 0 13 -6.5t6 -14.5q0 -3 -2 -9q-22 -44 -61.5 -79.5t-122.5 -91.5t-127 -90q-8 -128 -26.5 -180t-60.5 -74q-22 -12 -43 -12q-33 0 -56 24t-23 58q0 47 45 96.5t125 108.5q6 102 6 175q0 123 -1 181
q-32 -182 -88.5 -287.5t-123.5 -105.5q-34 0 -60.5 22.5t-41.5 61.5t-25.5 80t-14.5 90t-5.5 78t-1.5 58v25q-45 -98 -98.5 -147.5t-101.5 -49.5q-27 1 -43.5 20.5t-16.5 49.5q0 8 6 14t14 6t14 -6t6 -14q0 -30 25 -30q42 0 110 91q75 101 98 270q3 31 24 31q18 -3 18 -22
q-2 -10 -2 -14q-13 -105 -13 -215q0 -161 30 -260t79 -99q67 0 125 169.5t75 421.5q2 19 20 19t20 -18q13 -112 13 -356q0 -98 -4 -209zM611 -16q-128 -95 -128 -153q0 -19 11.5 -29.5t27.5 -10.5q43 0 68 58q13 29 21 135zM448 672q-9 0 -15 6t-6 14t6 14q17 18 29.5 36
t17.5 27l5 9q5 12 19 12q8 0 13.5 -6t5.5 -13q0 -2 -2 -8q0 -2 -5 -12t-19.5 -30.5t-34.5 -41.5q-6 -7 -14 -7z" />
    <glyph glyph-name="Thorn" unicode="&#xde;" horiz-adv-x="553" 
d="M40 293q-3 -15 -3 -38v-24q92 307 221 307q67 0 108 -60.5t41 -154.5q0 -76 -27.5 -137t-74.5 -93q45 0 87.5 21.5t73.5 55.5t52.5 65.5t34.5 60.5q5 12 18 12q7 0 13 -6.5t6 -14.5q0 -2 -2 -8q-15 -35 -39.5 -71t-60 -73t-85 -60t-102.5 -23q-165 0 -251 72l-2 -7
q10 -80 10 -92q0 -26 -21 -26q-16 0 -19 15q-18 69 -18 249q0 176 16 299q13 92 34 122q12 15 27 15q7 0 13.5 -2.5t14.5 -9.5t13 -24t5 -41q0 -131 -83 -329zM60 165q18 -25 69.5 -42.5t77.5 -17.5q72 0 116 62.5t44 155.5q0 70 -28 122.5t-81 52.5q-55 0 -102.5 -83.5
t-95.5 -249.5zM79 655q-4 -7 -10.5 -35t-14 -84t-10.5 -117q39 120 39 203q0 23 -4 33z" />
    <glyph glyph-name="germandbls" unicode="&#xdf;" horiz-adv-x="504" 
d="M540 293q0 -1 0.5 -3t0.5 -3q0 -15 -14 -19q-37 -12 -178 -75v-14q0 -67 -51 -122.5t-126 -55.5q-30 0 -45.5 13.5t-15.5 32.5q0 36 50.5 80.5t143.5 88.5q-12 37 -44 61t-85 24q-8 0 -25.5 -3t-26.5 -3t-14.5 6t-5.5 15q0 10 8 15q70 56 110 121t40 124q0 37 -18 58
t-48 21q-67 0 -155 -96q-1 -164 -1 -540q0 -19 -20 -19q-8 0 -14 5.5t-6 14.5v545q0 8 5 15q104 115 193 115q46 0 75 -33.5t29 -86.5q0 -56 -31.5 -118t-87.5 -117q58 -2 100 -30t58 -77q128 58 173 73q1 0 3 0.5t3 0.5q15 0 20 -14zM196 44q51 12 81.5 49t32.5 81
q-62 -31 -100.5 -60t-48 -43t-9.5 -23q0 -7 19 -7q15 0 25 3z" />
    <glyph glyph-name="agrave" unicode="&#xe0;" horiz-adv-x="482" 
d="M271 40q84 0 211 256q6 11 18 11q8 0 13.5 -6.5t5.5 -14.5q0 -7 -9 -24q-21 -39 -33 -61.5t-40 -66t-50.5 -68.5t-54 -45.5t-60.5 -20.5q-36 0 -62.5 25.5t-38.5 65.5q-13 -37 -37 -64t-59 -27q-53 0 -80 46t-27 114q0 80 34.5 141.5t92.5 61.5q37 0 63 -31.5t26 -70.5
q0 -20 -19 -20q-17 0 -20 16q-15 66 -54 66q-34 0 -58.5 -54.5t-24.5 -117.5q0 -48 17 -79.5t50 -31.5q60 0 78 157q2 18 20 18t20 -18q1 -21 4.5 -43.5t11.5 -50.5t24 -45.5t38 -17.5zM95 392q-15 0 -45 40t-30 59q0 8 5.5 13.5t13.5 5.5q15 0 19 -12l5 -9q5 -9 17.5 -27
t29.5 -36q5 -5 5 -14q0 -8 -5.5 -14t-14.5 -6z" />
    <glyph glyph-name="aacute" unicode="&#xe1;" horiz-adv-x="482" 
d="M271 40q84 0 211 256q6 11 18 11q8 0 13.5 -6.5t5.5 -14.5q0 -7 -9 -24q-21 -39 -33 -61.5t-40 -66t-50.5 -68.5t-54 -45.5t-60.5 -20.5q-36 0 -62.5 25.5t-38.5 65.5q-13 -37 -37 -64t-59 -27q-53 0 -80 46t-27 114q0 80 34.5 141.5t92.5 61.5q37 0 63 -31.5t26 -70.5
q0 -20 -19 -20q-17 0 -20 16q-15 66 -54 66q-34 0 -58.5 -54.5t-24.5 -117.5q0 -48 17 -79.5t50 -31.5q60 0 78 157q2 18 20 18t20 -18q1 -21 4.5 -43.5t11.5 -50.5t24 -45.5t38 -17.5zM81 395q-9 0 -15 6t-6 14t6 14q17 18 29.5 36t17.5 27l5 9q4 12 19 12q7 0 13 -5.5
t6 -13.5q0 -2 -2 -8q0 -2 -5 -12t-19.5 -30.5t-34.5 -41.5q-6 -7 -14 -7z" />
    <glyph glyph-name="acircumflex" unicode="&#xe2;" horiz-adv-x="482" 
d="M271 40q84 0 211 256q6 11 18 11q8 0 13.5 -6.5t5.5 -14.5q0 -7 -9 -24q-21 -39 -33 -61.5t-40 -66t-50.5 -68.5t-54 -45.5t-60.5 -20.5q-36 0 -62.5 25.5t-38.5 65.5q-13 -37 -37 -64t-59 -27q-53 0 -80 46t-27 114q0 80 34.5 141.5t92.5 61.5q37 0 63 -31.5t26 -70.5
q0 -20 -19 -20q-17 0 -20 16q-15 66 -54 66q-34 0 -58.5 -54.5t-24.5 -117.5q0 -48 17 -79.5t50 -31.5q60 0 78 157q2 18 20 18t20 -18q1 -21 4.5 -43.5t11.5 -50.5t24 -45.5t38 -17.5zM146 395q-8 0 -14.5 8t-15.5 22t-20 22q-2 -2 -12 -16t-20 -25t-17 -11q-20 0 -20 24
q0 7 23 35q29 35 44 35q14 0 32 -17.5t29 -34t11 -18.5q0 -24 -20 -24z" />
    <glyph glyph-name="atilde" unicode="&#xe3;" horiz-adv-x="482" 
d="M271 40q84 0 211 256q6 11 18 11q8 0 13.5 -6.5t5.5 -14.5q0 -7 -9 -24q-21 -39 -33 -61.5t-40 -66t-50.5 -68.5t-54 -45.5t-60.5 -20.5q-36 0 -62.5 25.5t-38.5 65.5q-13 -37 -37 -64t-59 -27q-53 0 -80 46t-27 114q0 80 34.5 141.5t92.5 61.5q37 0 63 -31.5t26 -70.5
q0 -20 -19 -20q-17 0 -20 16q-15 66 -54 66q-34 0 -58.5 -54.5t-24.5 -117.5q0 -48 17 -79.5t50 -31.5q60 0 78 157q2 18 20 18t20 -18q1 -21 4.5 -43.5t11.5 -50.5t24 -45.5t38 -17.5zM125 395q-11 0 -21.5 6t-16.5 12l-22 22q-19 -39 -34 -39q-8 0 -14 6.5t-6 14.5
q0 3 2 7q22 51 51 51q18 0 38.5 -20t22.5 -20q7 35 27 35q9 0 14.5 -5.5t5.5 -13.5q0 -21 -10.5 -35t-20 -17.5t-16.5 -3.5z" />
    <glyph glyph-name="adieresis" unicode="&#xe4;" horiz-adv-x="482" 
d="M271 40q84 0 211 256q6 11 18 11q8 0 13.5 -6.5t5.5 -14.5q0 -7 -9 -24q-21 -39 -33 -61.5t-40 -66t-50.5 -68.5t-54 -45.5t-60.5 -20.5q-36 0 -62.5 25.5t-38.5 65.5q-13 -37 -37 -64t-59 -27q-53 0 -80 46t-27 114q0 80 34.5 141.5t92.5 61.5q37 0 63 -31.5t26 -70.5
q0 -20 -19 -20q-17 0 -20 16q-15 66 -54 66q-34 0 -58.5 -54.5t-24.5 -117.5q0 -48 17 -79.5t50 -31.5q60 0 78 157q2 18 20 18t20 -18q1 -21 4.5 -43.5t11.5 -50.5t24 -45.5t38 -17.5zM33 420q2 6 2 8l-2 6q-2 6 -2 9q0 8 6 14t14 6q13 0 18.5 -12t5.5 -23q0 -32 -22 -32
h-4q-16 3 -16 24zM115 420q2 6 2 8l-2 6q-2 6 -2 9q0 8 6 14t14 6q13 0 18.5 -12t5.5 -23q0 -32 -22 -32h-4q-16 3 -16 24z" />
    <glyph glyph-name="aring" unicode="&#xe5;" horiz-adv-x="482" 
d="M271 40q84 0 211 256q6 11 18 11q8 0 13.5 -6.5t5.5 -14.5q0 -7 -9 -24q-21 -39 -33 -61.5t-40 -66t-50.5 -68.5t-54 -45.5t-60.5 -20.5q-36 0 -62.5 25.5t-38.5 65.5q-13 -37 -37 -64t-59 -27q-53 0 -80 46t-27 114q0 80 34.5 141.5t92.5 61.5q37 0 63 -31.5t26 -70.5
q0 -20 -19 -20q-17 0 -20 16q-15 66 -54 66q-34 0 -58.5 -54.5t-24.5 -117.5q0 -48 17 -79.5t50 -31.5q60 0 78 157q2 18 20 18t20 -18q1 -21 4.5 -43.5t11.5 -50.5t24 -45.5t38 -17.5zM95 387q-25 0 -39.5 17.5t-14.5 45.5q0 32 16.5 56t41.5 24t38.5 -21t13.5 -49
q0 -32 -15.5 -52.5t-40.5 -20.5zM99 490q-6 0 -12.5 -12t-6.5 -26q0 -25 15 -25q16 0 16 34q0 10 -2.5 17.5t-5 9.5t-3.5 2h-1z" />
    <glyph glyph-name="ae" unicode="&#xe6;" horiz-adv-x="484" 
d="M274 0q-73 0 -102 96l-1 -5q-13 -37 -37 -64t-59 -27q-53 0 -80 46t-27 114q0 80 34.5 141.5t92.5 61.5q42 0 69 -41q15 41 46 41q19 0 34.5 -22t16.5 -63q0 -71 -50 -175q22 -63 63 -63q83 0 210 256q6 11 18 11q8 0 13.5 -6.5t5.5 -14.5q0 -7 -9 -24q-21 -39 -33 -61.5
t-40 -66t-50.5 -68.5t-54 -45.5t-60.5 -20.5zM153 197q0 3 2 7q-1 13 -1 38v1q-7 4 -9 14q-15 66 -54 66q-34 0 -58.5 -54.5t-24.5 -117.5q0 -48 17 -79.5t50 -31.5q60 0 78 157zM194 223q0 -33 2 -50q24 66 24 106q-1 33 -11 43q-15 -21 -15 -99z" />
    <glyph glyph-name="ccedilla" unicode="&#xe7;" horiz-adv-x="326" 
d="M216 -95q2 -23 -21 -39q-19 -15 -51 -18h-3q-17 0 -19 17q-1 8 4 14.5t13 7.5q13 2 22 5.5t12 6.5t3 4q0 2 -3.5 4.5t-12.5 5.5t-21 3q-13 0 -21 10q-9 12 -8 39q0 4 1 18t2 17q-43 1 -70.5 38.5t-37 88t-9.5 115.5q0 121 56 121q19 0 34 -21t16 -62q0 -8 -6 -14t-14 -6
t-14 6t-6 14q-1 32 -11 42q-15 -21 -15 -99q0 -71 20 -127t60 -56q83 0 210 256q6 11 18 11q8 0 13.5 -6.5t5.5 -14.5q0 -7 -9 -24q-23 -45 -38 -70.5t-44.5 -71t-60 -74t-61.5 -40.5q3 -5 2 -12q-2 -14 -2 -39q31 -3 48 -17.5t18 -32.5z" />
    <glyph glyph-name="egrave" unicode="&#xe8;" horiz-adv-x="326" 
d="M36 223q0 -33 2 -50q24 66 24 106q-1 33 -11 43q-15 -21 -15 -99zM116 0q-44 0 -72 37t-38 88.5t-10 116.5q0 121 56 121q19 0 34.5 -22t16.5 -63q0 -71 -50 -175q22 -63 63 -63q83 0 210 256q6 11 18 11q8 0 13.5 -6.5t5.5 -14.5q0 -7 -9 -24q-21 -39 -33 -61.5t-40 -66
t-50.5 -68.5t-54 -45.5t-60.5 -20.5zM51 392q-15 0 -45 40t-30 59q0 8 5.5 13.5t13.5 5.5q14 0 19 -12l5 -9q5 -9 17.5 -27t29.5 -36q5 -5 5 -14q0 -8 -5.5 -14t-14.5 -6z" />
    <glyph glyph-name="eacute" unicode="&#xe9;" horiz-adv-x="326" 
d="M36 223q0 -33 2 -50q24 66 24 106q-1 33 -11 43q-15 -21 -15 -99zM116 0q-44 0 -72 37t-38 88.5t-10 116.5q0 121 56 121q19 0 34.5 -22t16.5 -63q0 -71 -50 -175q22 -63 63 -63q83 0 210 256q6 11 18 11q8 0 13.5 -6.5t5.5 -14.5q0 -7 -9 -24q-21 -39 -33 -61.5t-40 -66
t-50.5 -68.5t-54 -45.5t-60.5 -20.5zM37 395q-9 0 -15 6t-6 14t6 14q17 18 29.5 36t17.5 27l5 9q4 12 19 12q7 0 13 -5.5t6 -13.5q0 -2 -2 -8q0 -2 -5 -12t-19.5 -30.5t-34.5 -41.5q-6 -7 -14 -7z" />
    <glyph glyph-name="ecircumflex" unicode="&#xea;" horiz-adv-x="326" 
d="M36 223q0 -33 2 -50q24 66 24 106q-1 33 -11 43q-15 -21 -15 -99zM116 0q-44 0 -72 37t-38 88.5t-10 116.5q0 121 56 121q19 0 34.5 -22t16.5 -63q0 -71 -50 -175q22 -63 63 -63q83 0 210 256q6 11 18 11q8 0 13.5 -6.5t5.5 -14.5q0 -7 -9 -24q-21 -39 -33 -61.5t-40 -66
t-50.5 -68.5t-54 -45.5t-60.5 -20.5zM102 395q-8 0 -14.5 8t-15.5 22t-20 22q-2 -2 -12 -16t-20 -25t-17 -11q-20 0 -20 24q0 7 23 35q29 35 44 35q14 0 32 -17.5t29 -34t11 -18.5q0 -24 -20 -24z" />
    <glyph glyph-name="edieresis" unicode="&#xeb;" horiz-adv-x="326" 
d="M36 223q0 -33 2 -50q24 66 24 106q-1 33 -11 43q-15 -21 -15 -99zM116 0q-44 0 -72 37t-38 88.5t-10 116.5q0 121 56 121q19 0 34.5 -22t16.5 -63q0 -71 -50 -175q22 -63 63 -63q83 0 210 256q6 11 18 11q8 0 13.5 -6.5t5.5 -14.5q0 -7 -9 -24q-21 -39 -33 -61.5t-40 -66
t-50.5 -68.5t-54 -45.5t-60.5 -20.5zM-11 420q2 6 2 8l-2 6q-2 6 -2 9q0 8 6 14t14 6q13 0 18.5 -12t5.5 -23q0 -32 -22 -32h-4q-16 3 -16 24zM71 420q2 6 2 8l-2 6q-2 6 -2 9q0 8 6 14t14 6q13 0 18.5 -12t5.5 -23q0 -32 -22 -32h-4q-16 3 -16 24z" />
    <glyph glyph-name="igrave" unicode="&#xec;" horiz-adv-x="325" 
d="M115 40q83 0 210 256q6 11 18 11q8 0 13.5 -6.5t5.5 -14.5q0 -7 -9 -24q-21 -39 -33 -61.5t-40 -66t-50.5 -68.5t-54 -45.5t-60.5 -20.5q-118 0 -118 236q0 35 1 53q2 19 21 19t19 -21q-1 -17 -1 -51q0 -25 2 -50t9 -62.5t24 -60.5t43 -23zM21 352q-15 0 -45 40t-30 59
q0 8 5.5 13.5t13.5 5.5q15 0 19 -12l5 -9q5 -9 17.5 -27t29.5 -36q5 -5 5 -14q0 -8 -5.5 -14t-14.5 -6z" />
    <glyph glyph-name="iacute" unicode="&#xed;" horiz-adv-x="325" 
d="M115 40q83 0 210 256q6 11 18 11q8 0 13.5 -6.5t5.5 -14.5q0 -7 -9 -24q-21 -39 -33 -61.5t-40 -66t-50.5 -68.5t-54 -45.5t-60.5 -20.5q-118 0 -118 236q0 35 1 53q2 19 21 19t19 -21q-1 -17 -1 -51q0 -25 2 -50t9 -62.5t24 -60.5t43 -23zM7 355q-9 0 -15 6t-6 14t6 14
q17 18 29.5 36t17.5 27l5 9q4 12 19 12q7 0 13 -5.5t6 -13.5q0 -2 -2 -8q0 -2 -5 -12t-19.5 -30.5t-34.5 -41.5q-6 -7 -14 -7z" />
    <glyph glyph-name="icircumflex" unicode="&#xee;" horiz-adv-x="325" 
d="M115 40q83 0 210 256q6 11 18 11q8 0 13.5 -6.5t5.5 -14.5q0 -7 -9 -24q-21 -39 -33 -61.5t-40 -66t-50.5 -68.5t-54 -45.5t-60.5 -20.5q-118 0 -118 236q0 35 1 53q2 19 21 19t19 -21q-1 -17 -1 -51q0 -25 2 -50t9 -62.5t24 -60.5t43 -23zM72 355q-8 0 -14.5 8t-15.5 22
t-20 22q-2 -2 -12 -16t-20 -25t-17 -11q-20 0 -20 24q0 7 23 35q29 35 44 35q14 0 32 -17.5t29 -34t11 -18.5q0 -24 -20 -24z" />
    <glyph glyph-name="idieresis" unicode="&#xef;" horiz-adv-x="325" 
d="M115 40q83 0 210 256q6 11 18 11q8 0 13.5 -6.5t5.5 -14.5q0 -7 -9 -24q-21 -39 -33 -61.5t-40 -66t-50.5 -68.5t-54 -45.5t-60.5 -20.5q-118 0 -118 236q0 35 1 53q2 19 21 19t19 -21q-1 -17 -1 -51q0 -25 2 -50t9 -62.5t24 -60.5t43 -23zM-41 380q2 6 2 8l-2 6
q-2 6 -2 9q0 8 6 14t14 6q13 0 18.5 -12t5.5 -23q0 -32 -22 -32h-4q-16 3 -16 24zM41 380q2 6 2 8l-2 6q-2 6 -2 9q0 8 6 14t14 6q13 0 18.5 -12t5.5 -23q0 -32 -22 -32h-4q-16 3 -16 24z" />
    <glyph glyph-name="eth" unicode="&#xf0;" horiz-adv-x="532" 
d="M91 693q87 0 151 -92q12 6 31 17.5t31.5 18t16.5 6.5q18 0 18 -24q0 -10 -76 -52l7 -12q57 -114 57 -260q0 -151 -71 -237q100 34 175 104q71 65 101 135q5 12 18 12q7 0 13 -6.5t6 -14.5q0 -2 -2 -8q-49 -114 -175.5 -197t-231.5 -83q-56 0 -95 39t-54.5 92t-15.5 112
q0 93 48 149t130 56q43 0 99 -17q-13 57 -38 106l-6 12l-37 -18.5t-26.5 -12.5t-16 -7t-8.5 -3l-2 -1q-15 0 -19 16q0 20 17 23q34 17 71 36q-53 71 -116 71q-6 0 -18.5 -3t-19.5 -3q-8 0 -14 6t-6 15q0 25 58 25zM150 40q57 0 97 77t40 180q0 49 -7 91q-7 0 -10 1
q-57 19 -97 19q-65 0 -101.5 -44.5t-36.5 -121.5q0 -78 34.5 -140t80.5 -62z" />
    <glyph glyph-name="ntilde" unicode="&#xf1;" horiz-adv-x="473" 
d="M-1 289q0 8 6 13.5t15 5.5q16 0 19 -21q8 -44 13 -89q1 6 5.5 23.5t7.5 30t8.5 31t11 31t12.5 24.5t16 18.5t18 6.5q10 0 16.5 -5.5t10.5 -19.5t6.5 -25.5t6 -35.5t6.5 -38q17 -90 36.5 -144.5t49.5 -54.5q83 0 210 256q6 11 18 11q8 0 13.5 -6.5t5.5 -14.5q0 -7 -9 -24
q-21 -39 -33 -61.5t-40 -66t-50.5 -68.5t-54 -45.5t-60.5 -20.5q-16 0 -29.5 6.5t-24.5 20t-20.5 28.5t-17 37.5t-13 41t-11 45.5t-8.5 44t-7.5 43t-6.5 37q-25 -58 -40.5 -141.5t-18.5 -142.5q-2 -17 -20 -19q-18 0 -20 19q0 7 -2 43.5t-9 105.5t-16 121zM158 395
q-11 0 -21.5 6t-16.5 12l-22 22q-20 -39 -34 -39q-8 0 -14 6.5t-6 14.5q0 3 2 7q22 51 51 51q18 0 38.5 -20t22.5 -20q7 35 27 35q9 0 14.5 -5.5t5.5 -13.5q0 -21 -10.5 -35t-20 -17.5t-16.5 -3.5z" />
    <glyph glyph-name="ograve" unicode="&#xf2;" horiz-adv-x="353" 
d="M-31 173q0 41 15 88t36 47q19 0 19 -21q0 -5 -3 -9q-25 -41 -25 -107q0 -50 19 -90.5t63 -40.5q23 0 40.5 20t27 49.5t14.5 58.5t5 53q-20 3 -31.5 5t-32 8t-32 14t-21.5 21.5t-11 31.5q0 26 21.5 44t49.5 18q40 0 63.5 -31t30.5 -74h14q36 0 66.5 12t48.5 24.5t24 12.5
q7 0 13.5 -6.5t6.5 -14.5t-7 -15q-57 -54 -163 -54q0 -31 -6.5 -66t-20.5 -70t-40 -58t-60 -23q-60 0 -92 53.5t-32 119.5zM92 302q0 -9 5.5 -15t18 -10.5t19 -6.5t23.5 -5l18 -3q-12 61 -53 61q-13 0 -22 -6t-9 -15zM121 392q-15 0 -45 40t-30 59q0 8 5.5 13.5t13.5 5.5
q15 0 19 -12l5 -9q5 -9 17.5 -27t29.5 -36q5 -5 5 -14q0 -8 -5.5 -14t-14.5 -6z" />
    <glyph glyph-name="oacute" unicode="&#xf3;" horiz-adv-x="353" 
d="M-31 173q0 41 15 88t36 47q19 0 19 -21q0 -5 -3 -9q-25 -41 -25 -107q0 -50 19 -90.5t63 -40.5q23 0 40.5 20t27 49.5t14.5 58.5t5 53q-20 3 -31.5 5t-32 8t-32 14t-21.5 21.5t-11 31.5q0 26 21.5 44t49.5 18q40 0 63.5 -31t30.5 -74h14q36 0 66.5 12t48.5 24.5t24 12.5
q7 0 13.5 -6.5t6.5 -14.5t-7 -15q-57 -54 -163 -54q0 -31 -6.5 -66t-20.5 -70t-40 -58t-60 -23q-60 0 -92 53.5t-32 119.5zM92 302q0 -9 5.5 -15t18 -10.5t19 -6.5t23.5 -5l18 -3q-12 61 -53 61q-13 0 -22 -6t-9 -15zM107 395q-9 0 -15 6t-6 14t6 14q17 18 29.5 36t17.5 27
l5 9q4 12 19 12q7 0 13 -5.5t6 -13.5q0 -2 -2 -8q0 -2 -5 -12t-19.5 -30.5t-34.5 -41.5q-6 -7 -14 -7z" />
    <glyph glyph-name="ocircumflex" unicode="&#xf4;" horiz-adv-x="353" 
d="M-31 173q0 41 15 88t36 47q19 0 19 -21q0 -5 -3 -9q-25 -41 -25 -107q0 -50 19 -90.5t63 -40.5q23 0 40.5 20t27 49.5t14.5 58.5t5 53q-20 3 -31.5 5t-32 8t-32 14t-21.5 21.5t-11 31.5q0 26 21.5 44t49.5 18q40 0 63.5 -31t30.5 -74h14q36 0 66.5 12t48.5 24.5t24 12.5
q7 0 13.5 -6.5t6.5 -14.5t-7 -15q-57 -54 -163 -54q0 -31 -6.5 -66t-20.5 -70t-40 -58t-60 -23q-60 0 -92 53.5t-32 119.5zM92 302q0 -9 5.5 -15t18 -10.5t19 -6.5t23.5 -5l18 -3q-12 61 -53 61q-13 0 -22 -6t-9 -15zM172 395q-8 0 -14.5 8t-15.5 22t-20 22q-2 -2 -12 -16
t-20 -25t-17 -11q-20 0 -20 24q0 7 23 35q29 35 44 35q14 0 32 -17.5t29 -34t11 -18.5q0 -24 -20 -24z" />
    <glyph glyph-name="otilde" unicode="&#xf5;" horiz-adv-x="353" 
d="M-31 173q0 41 15 88t36 47q19 0 19 -21q0 -5 -3 -9q-25 -41 -25 -107q0 -50 19 -90.5t63 -40.5q23 0 40.5 20t27 49.5t14.5 58.5t5 53q-20 3 -31.5 5t-32 8t-32 14t-21.5 21.5t-11 31.5q0 26 21.5 44t49.5 18q40 0 63.5 -31t30.5 -74h14q36 0 66.5 12t48.5 24.5t24 12.5
q7 0 13.5 -6.5t6.5 -14.5t-7 -15q-57 -54 -163 -54q0 -31 -6.5 -66t-20.5 -70t-40 -58t-60 -23q-60 0 -92 53.5t-32 119.5zM92 302q0 -9 5.5 -15t18 -10.5t19 -6.5t23.5 -5l18 -3q-12 61 -53 61q-13 0 -22 -6t-9 -15zM151 395q-11 0 -21.5 6t-16.5 12l-22 22
q-19 -39 -34 -39q-8 0 -14 6.5t-6 14.5q0 3 2 7q22 51 51 51q18 0 38.5 -20t22.5 -20q7 35 27 35q9 0 14.5 -5.5t5.5 -13.5q0 -21 -10.5 -35t-20 -17.5t-16.5 -3.5z" />
    <glyph glyph-name="odieresis" unicode="&#xf6;" horiz-adv-x="353" 
d="M-31 173q0 41 15 88t36 47q19 0 19 -21q0 -5 -3 -9q-25 -41 -25 -107q0 -50 19 -90.5t63 -40.5q23 0 40.5 20t27 49.5t14.5 58.5t5 53q-20 3 -31.5 5t-32 8t-32 14t-21.5 21.5t-11 31.5q0 26 21.5 44t49.5 18q40 0 63.5 -31t30.5 -74h14q36 0 66.5 12t48.5 24.5t24 12.5
q7 0 13.5 -6.5t6.5 -14.5t-7 -15q-57 -54 -163 -54q0 -31 -6.5 -66t-20.5 -70t-40 -58t-60 -23q-60 0 -92 53.5t-32 119.5zM92 302q0 -9 5.5 -15t18 -10.5t19 -6.5t23.5 -5l18 -3q-12 61 -53 61q-13 0 -22 -6t-9 -15zM59 420q2 6 2 8l-2 6q-2 6 -2 9q0 8 6 14t14 6
q13 0 18.5 -12t5.5 -23q0 -32 -22 -32h-4q-16 3 -16 24zM141 420q2 6 2 8l-2 6q-2 6 -2 9q0 8 6 14t14 6q13 0 18.5 -12t5.5 -23q0 -32 -22 -32h-4q-16 3 -16 24z" />
    <glyph glyph-name="oslash" unicode="&#xf8;" horiz-adv-x="353" 
d="M-31 173q0 41 15 88t36 47q19 0 19 -21q0 -5 -3 -9q-25 -41 -25 -107q0 -54 18 -89l77 155q-51 19 -54 64q0 26 21.5 44t49.5 18q18 0 36 -8q2 9 10 13t16 1q6 -3 9 -11.5t1 -15.5q-1 -2 -2.5 -7t-2.5 -7q20 -29 27 -70h14q36 0 66.5 12t48.5 24.5t24 12.5q7 0 13.5 -6.5
t6.5 -14.5t-7 -15q-57 -54 -163 -54q0 -31 -6.5 -66t-20.5 -70t-40 -58t-60 -23q-33 0 -55 15l-4 -6q-5 -6 -13.5 -7.5t-14.5 3.5q-10 10 -1 29q2 3 4 7q-40 52 -40 132zM144 227q-10 -21 -88 -177q17 -10 37 -10q23 0 40.5 20t27 49.5t14.5 58.5t5 53q-19 2 -36 6zM92 302
q0 -20 30 -29l21 44q-12 6 -20 6q-13 0 -22 -6t-9 -15zM176 262q-1 2 -2.5 9.5t-3.5 11.5l-9 -19z" />
    <glyph glyph-name="ugrave" unicode="&#xf9;" horiz-adv-x="520" 
d="M310 0q-90 0 -120 163q-38 -163 -113 -163q-85 0 -85 188q0 51 6 101q2 19 21 19t19 -20q-6 -42 -6 -95q0 -153 44 -153q30 0 57.5 73t42.5 213q0 7 5.5 12.5t13.5 5.5q18 0 20 -18q1 -9 3 -36.5t4.5 -50t6.5 -54t10.5 -55t16 -45t23.5 -33.5t31 -12q83 0 210 256
q6 11 18 11q8 0 13.5 -6.5t5.5 -14.5q0 -7 -9 -24q-21 -39 -33 -61.5t-40 -66t-50.5 -68.5t-54 -45.5t-60.5 -20.5zM95 361q-15 0 -45 40t-30 59q0 8 5.5 13.5t13.5 5.5q15 0 19 -12l5 -9q5 -9 17.5 -27t29.5 -36q5 -5 5 -14q0 -8 -5.5 -14t-14.5 -6z" />
    <glyph glyph-name="uacute" unicode="&#xfa;" horiz-adv-x="520" 
d="M310 0q-90 0 -120 163q-38 -163 -113 -163q-85 0 -85 188q0 51 6 101q2 19 21 19t19 -20q-6 -42 -6 -95q0 -153 44 -153q30 0 57.5 73t42.5 213q0 7 5.5 12.5t13.5 5.5q18 0 20 -18q1 -9 3 -36.5t4.5 -50t6.5 -54t10.5 -55t16 -45t23.5 -33.5t31 -12q83 0 210 256
q6 11 18 11q8 0 13.5 -6.5t5.5 -14.5q0 -7 -9 -24q-21 -39 -33 -61.5t-40 -66t-50.5 -68.5t-54 -45.5t-60.5 -20.5zM81 364q-9 0 -15 6t-6 14t6 14q17 18 29.5 36t17.5 27l5 9q4 12 19 12q7 0 13 -6t6 -13q0 -2 -2 -8q0 -2 -5 -12t-19.5 -30.5t-34.5 -41.5q-6 -7 -14 -7z
" />
    <glyph glyph-name="ucircumflex" unicode="&#xfb;" horiz-adv-x="520" 
d="M310 0q-90 0 -120 163q-38 -163 -113 -163q-85 0 -85 188q0 51 6 101q2 19 21 19t19 -20q-6 -42 -6 -95q0 -153 44 -153q30 0 57.5 73t42.5 213q0 7 5.5 12.5t13.5 5.5q18 0 20 -18q1 -9 3 -36.5t4.5 -50t6.5 -54t10.5 -55t16 -45t23.5 -33.5t31 -12q83 0 210 256
q6 11 18 11q8 0 13.5 -6.5t5.5 -14.5q0 -7 -9 -24q-21 -39 -33 -61.5t-40 -66t-50.5 -68.5t-54 -45.5t-60.5 -20.5zM146 364q-8 0 -14.5 8t-15.5 22t-20 22q-2 -2 -12 -16t-20 -25t-17 -11q-20 0 -20 24q0 7 23 35q29 35 44 35q14 0 32 -17.5t29 -34t11 -18.5q0 -24 -20 -24
z" />
    <glyph glyph-name="udieresis" unicode="&#xfc;" horiz-adv-x="520" 
d="M310 0q-90 0 -120 163q-38 -163 -113 -163q-85 0 -85 188q0 51 6 101q2 19 21 19t19 -20q-6 -42 -6 -95q0 -153 44 -153q30 0 57.5 73t42.5 213q0 7 5.5 12.5t13.5 5.5q18 0 20 -18q1 -9 3 -36.5t4.5 -50t6.5 -54t10.5 -55t16 -45t23.5 -33.5t31 -12q83 0 210 256
q6 11 18 11q8 0 13.5 -6.5t5.5 -14.5q0 -7 -9 -24q-21 -39 -33 -61.5t-40 -66t-50.5 -68.5t-54 -45.5t-60.5 -20.5zM33 389q2 6 2 8q0 1 -2 6.5t-2 8.5q0 8 6 14t14 6q13 0 18.5 -12t5.5 -23q0 -32 -22 -32h-4q-16 3 -16 24zM115 389q2 6 2 8q0 1 -2 6.5t-2 8.5q0 8 6 14
t14 6q13 0 18.5 -12t5.5 -23q0 -32 -22 -32h-4q-16 3 -16 24z" />
    <glyph glyph-name="yacute" unicode="&#xfd;" horiz-adv-x="483" 
d="M67 -213q33 0 61.5 49t32.5 95q-1 -1 -17.5 -15t-23.5 -20t-21.5 -21t-21.5 -25.5t-13.5 -24t-6.5 -25.5q0 -13 10 -13zM76 40q30 0 57.5 73t42.5 213q0 7 6 12t15 5q8 0 13.5 -6t5.5 -14q0 -15 0.5 -40t0.5 -36q0 -116 -6 -226q221 171 272 275q6 11 18 11q7 0 13 -6.5
t6 -14.5q0 -3 -2 -9q-34 -68 -110 -140.5t-202 -169.5q-5 -68 -27 -119q-19 -45 -48.5 -73t-63.5 -28q-21 0 -34.5 13t-15.5 35q0 20 8 40.5t16 35t28.5 34.5t30 28t36 29t32.5 26q3 35 7 119q-41 -107 -98 -107q-85 0 -85 188q0 51 6 101q2 19 21 19t19 -20q-6 -42 -6 -95
q0 -153 44 -153zM81 354q-9 0 -15 6t-6 14t6 14q17 18 29.5 36t17.5 27l5 9q4 12 19 12q7 0 13 -6t6 -13q0 -2 -2 -8q0 -2 -5 -12t-19.5 -30.5t-34.5 -41.5q-6 -7 -14 -7z" />
    <glyph glyph-name="thorn" unicode="&#xfe;" horiz-adv-x="464" 
d="M488 306q17 -5 11 -25q-34 -115 -86 -176q-46 -57 -110 -82q-74 -28 -155 -15q-44 6 -82 23q12 -114 13 -166q2 -94 -22 -110q-6 -5 -16 -5q-9 0 -16 4q-53 29 -53 174q0 121 35 240q-9 64 -9 338q-4 19 16 23q8 1 14.5 -4t8.5 -13l1 -265q62 137 147 125q71 -9 91 -84
q15 -58 -7 -130q-25 -72 -74 -111l-4 -3q50 -2 98 16q118 46 174 232q5 19 25 14zM171 79q39 29 59 89.5t7 108.5q-12 50 -57 56q-35 4 -69 -37q-33 -40 -60 -121l-3 -10l12 -86l3 -2q10 -6 17 -8q50 -21 91 10zM36 -203q4 23 3 79q-3 67 -15 170q-1 3 -1 8
q-11 -68 -11 -126q0 -100 24 -131z" />
    <glyph glyph-name="ydieresis" unicode="&#xff;" horiz-adv-x="483" 
d="M67 -213q33 0 61.5 49t32.5 95q-1 -1 -17.5 -15t-23.5 -20t-21.5 -21t-21.5 -25.5t-13.5 -24t-6.5 -25.5q0 -13 10 -13zM76 40q30 0 57.5 73t42.5 213q0 7 6 12t15 5q8 0 13.5 -6t5.5 -14q0 -15 0.5 -40t0.5 -36q0 -116 -6 -226q221 171 272 275q6 11 18 11q7 0 13 -6.5
t6 -14.5q0 -3 -2 -9q-34 -68 -110 -140.5t-202 -169.5q-5 -68 -27 -119q-19 -45 -48.5 -73t-63.5 -28q-21 0 -34.5 13t-15.5 35q0 20 8 40.5t16 35t28.5 34.5t30 28t36 29t32.5 26q3 35 7 119q-41 -107 -98 -107q-85 0 -85 188q0 51 6 101q2 19 21 19t19 -20q-6 -42 -6 -95
q0 -153 44 -153zM33 379q2 6 2 8q0 1 -2 6t-2 9q0 8 6 14t14 6q13 0 18.5 -12t5.5 -23q0 -32 -22 -32h-4q-16 3 -16 24zM115 379q2 6 2 8q0 1 -2 6t-2 9q0 8 6 14t14 6q13 0 18.5 -12t5.5 -23q0 -32 -22 -32h-4q-16 3 -16 24z" />
    <glyph glyph-name="Abreve" unicode="&#x102;" horiz-adv-x="736" 
d="M526 40q83 0 210 256q6 11 18 11q8 0 13.5 -6.5t5.5 -14.5q0 -7 -9 -24q-21 -39 -33 -61.5t-40 -66t-50.5 -68.5t-54 -45.5t-60.5 -20.5q-43 0 -73.5 40.5t-42.5 107.5q-24 -67 -63.5 -106t-86.5 -39q-60 0 -108 61.5t-59 156.5q-42 0 -68.5 21t-26.5 46q0 8 6 14t14 6
t14 -6t6 -14q0 -4 5.5 -10t18 -11.5t28.5 -5.5q0 3 -0.5 8t-0.5 7q0 162 68 268t148 106q47 0 83.5 -44t36.5 -110q0 -67 -47 -126.5t-112.5 -95.5t-133.5 -49q10 -78 46.5 -130t80.5 -52q51 0 90 68.5t58 189.5q3 17 19 17q21 0 21 -22q0 -10 -2 -30t-2 -33q0 -81 23 -137
t60 -56zM305 610q-57 0 -105 -73q-71 -107 -71 -260q0 -2 0.5 -6t0.5 -6q52 9 111 43t100 78q44 47 44 109q0 49 -24.5 82t-55.5 33zM303 681q-30 0 -49.5 19t-19.5 49q0 8 6 14t14 6t14 -6t6 -14q0 -15 9 -22.5t20 -7.5q12 0 21 7.5t9 22.5q0 8 6 14t14 6t14 -6t6 -14
q0 -30 -20 -49t-50 -19z" />
    <glyph glyph-name="abreve" unicode="&#x103;" horiz-adv-x="482" 
d="M271 40q84 0 211 256q6 11 18 11q8 0 13.5 -6.5t5.5 -14.5q0 -7 -9 -24q-21 -39 -33 -61.5t-40 -66t-50.5 -68.5t-54 -45.5t-60.5 -20.5q-36 0 -62.5 25.5t-38.5 65.5q-13 -37 -37 -64t-59 -27q-53 0 -80 46t-27 114q0 80 34.5 141.5t92.5 61.5q37 0 63 -31.5t26 -70.5
q0 -20 -19 -20q-17 0 -20 16q-15 66 -54 66q-34 0 -58.5 -54.5t-24.5 -117.5q0 -48 17 -79.5t50 -31.5q60 0 78 157q2 18 20 18t20 -18q1 -21 4.5 -43.5t11.5 -50.5t24 -45.5t38 -17.5zM95 394q-30 0 -49.5 19t-19.5 49q0 8 6 14t14 6t14 -6t6 -14q0 -15 9 -22.5t20 -7.5
q12 0 21 7.5t9 22.5q0 8 6 14t14 6t14 -6t6 -14q0 -30 -20 -49t-50 -19z" />
    <glyph glyph-name="Aogonek" unicode="&#x104;" horiz-adv-x="736" 
d="M539 -98q-20 0 -32.5 11.5t-12.5 29.5q0 25 21 57q-39 5 -66 45t-39 103q-24 -67 -63.5 -106t-86.5 -39q-60 0 -108 61.5t-59 156.5q-42 0 -68.5 21t-26.5 46q0 8 6 14t14 6t14 -6t6 -14q0 -4 5.5 -10t18 -11.5t28.5 -5.5q0 3 -0.5 8t-0.5 7q0 162 68 268t148 106
q47 0 83.5 -44t36.5 -110q0 -67 -47 -126.5t-112.5 -95.5t-133.5 -49q10 -78 46.5 -130t80.5 -52q51 0 90 68.5t58 189.5q3 17 19 17q21 0 21 -22q0 -10 -2 -30t-2 -33q0 -81 23 -137t60 -56q83 0 210 256q6 11 18 11q8 0 13.5 -6.5t5.5 -14.5q0 -7 -9 -24q-23 -44 -35 -65
t-39 -64.5t-54 -72t-55 -44.5l-1 -1q-21 -19 -33.5 -40t-12.5 -31q0 -2 4 -2q14 0 41 16q3 2 10 2q8 0 14 -6t6 -14q0 -18 -28.5 -28t-41.5 -10zM305 610q-57 0 -105 -73q-71 -107 -71 -260q0 -2 0.5 -6t0.5 -6q52 9 111 43t100 78q44 47 44 109q0 49 -24.5 82t-55.5 33z
" />
    <glyph glyph-name="aogonek" unicode="&#x105;" horiz-adv-x="482" 
d="M248 -111q-20 0 -32.5 11.5t-12.5 29.5q0 36 35 76q-48 21 -67 85q-13 -37 -37 -64t-59 -27q-53 0 -80 46t-27 114q0 80 34.5 141.5t92.5 61.5q37 0 63 -31.5t26 -70.5q0 -20 -19 -20q-17 0 -20 16q-15 66 -54 66q-34 0 -58.5 -54.5t-24.5 -117.5q0 -48 17 -79.5
t50 -31.5q60 0 78 157q2 18 20 18t20 -18q1 -21 4.5 -43.5t11.5 -50.5t24 -45.5t38 -17.5q84 0 211 256q6 11 18 11q8 0 13.5 -6.5t5.5 -14.5q0 -7 -9 -24q-18 -33 -25.5 -47.5t-29 -51t-37.5 -56.5t-38.5 -46t-45 -40.5t-45.5 -18.5q-21 -19 -33.5 -40t-12.5 -31q0 -2 4 -2
q14 0 41 16q3 2 10 2q8 0 14 -6t6 -14q0 -18 -28.5 -28t-41.5 -10z" />
    <glyph glyph-name="Cacute" unicode="&#x106;" horiz-adv-x="551" 
d="M304 610q-44 0 -67.5 -73t-23.5 -175q0 -21 2 -61q66 45 101 115t35 125q0 69 -47 69zM339 0q-21 0 -41 10t-42.5 33.5t-42 73.5t-31.5 120q-48 -21 -90 -21q-94 0 -94 72q0 8 6 14t14 6t14 -6t6 -14q0 -20 11.5 -26t41.5 -6q14 0 48.5 8t37.5 15q-4 36 -4 83
q0 117 29 193q35 95 102 95q40 0 63.5 -30t23.5 -80q0 -74 -48.5 -156t-122.5 -128q13 -95 45 -155.5t74 -60.5q83 0 210 256q6 11 18 11q8 0 13.5 -6.5t5.5 -14.5q0 -7 -9 -24q-21 -39 -33 -61.5t-40 -66t-50.5 -68.5t-54 -45.5t-60.5 -20.5zM292 683q-9 0 -15 6t-6 14
t6 14q17 18 29.5 36t17.5 27l5 9q5 12 19 12q8 0 13.5 -5.5t5.5 -13.5q0 -2 -2 -8q0 -2 -5 -12t-19.5 -30.5t-34.5 -41.5q-6 -7 -14 -7z" />
    <glyph glyph-name="cacute" unicode="&#x107;" horiz-adv-x="326" 
d="M116 40q83 0 210 256q6 11 18 11q8 0 13.5 -6.5t5.5 -14.5q0 -7 -9 -24q-21 -39 -33 -61.5t-40 -66t-50.5 -68.5t-54 -45.5t-60.5 -20.5q-44 0 -72 37t-38 88.5t-10 116.5q0 121 56 121q19 0 34 -21t16 -62q0 -8 -6 -14t-14 -6t-14 6t-6 14q-1 32 -11 42q-15 -21 -15 -99
q0 -71 20 -127t60 -56zM38 395q-9 0 -15 6t-6 14t6 14q17 18 29.5 36t17.5 27l5 9q5 12 19 12q8 0 13.5 -5.5t5.5 -13.5q0 -2 -2 -8q0 -2 -5 -12t-19.5 -30.5t-34.5 -41.5q-6 -7 -14 -7z" />
    <glyph glyph-name="Ccaron" unicode="&#x10c;" horiz-adv-x="551" 
d="M304 610q-44 0 -67.5 -73t-23.5 -175q0 -21 2 -61q66 45 101 115t35 125q0 69 -47 69zM339 0q-21 0 -41 10t-42.5 33.5t-42 73.5t-31.5 120q-48 -21 -90 -21q-94 0 -94 72q0 8 6 14t14 6t14 -6t6 -14q0 -20 11.5 -26t41.5 -6q14 0 48.5 8t37.5 15q-4 36 -4 83
q0 117 29 193q35 95 102 95q40 0 63.5 -30t23.5 -80q0 -74 -48.5 -156t-122.5 -128q13 -95 45 -155.5t74 -60.5q83 0 210 256q6 11 18 11q8 0 13.5 -6.5t5.5 -14.5q0 -7 -9 -24q-21 -39 -33 -61.5t-40 -66t-50.5 -68.5t-54 -45.5t-60.5 -20.5zM356 778q20 0 20 -25l-4 -7
q-5 -7 -12.5 -17t-16 -20.5t-19 -17.5t-18.5 -7q-19 0 -46 35q-23 30 -23 36q0 23 20 23q7 0 17 -11t20 -25t12 -16q7 5 18 20q5 7 9 13l6 9t3.5 5.5t3.5 3l4 1t6 0.5z" />
    <glyph glyph-name="ccaron" unicode="&#x10d;" horiz-adv-x="326" 
d="M116 40q83 0 210 256q6 11 18 11q8 0 13.5 -6.5t5.5 -14.5q0 -7 -9 -24q-21 -39 -33 -61.5t-40 -66t-50.5 -68.5t-54 -45.5t-60.5 -20.5q-44 0 -72 37t-38 88.5t-10 116.5q0 121 56 121q19 0 34 -21t16 -62q0 -8 -6 -14t-14 -6t-14 6t-6 14q-1 32 -11 42q-15 -21 -15 -99
q0 -71 20 -127t60 -56zM102 490q20 0 20 -25l-4 -7q-5 -7 -12.5 -17t-16 -20.5t-19 -17.5t-18.5 -7q-19 0 -46 35q-23 30 -23 36q0 23 20 23q7 0 17 -11t20 -25t12 -16q7 5 18 20q5 7 9 13l6 9t3.5 5.5t3.5 3l4 1t6 0.5z" />
    <glyph glyph-name="Dcaron" unicode="&#x10e;" horiz-adv-x="592" 
d="M220 -20q-53 0 -90 38t-37 92q0 8 6 14t14 6t14 -6t6 -14q0 -35 24.5 -62.5t62.5 -27.5q84 0 137 97t53 241q0 101 -27.5 177t-78.5 76q-50 0 -98 -75.5t-88 -215.5q-19 -69 -32.5 -130.5t-18.5 -93t-9 -55.5t-8 -32.5t-13 -9.5q-18 0 -21 15q-17 65 -17 232
q0 186 18 319q12 95 33 120q11 14 25 14q7 0 13.5 -3t14.5 -11.5t12.5 -27t4.5 -45.5q0 -53 -17 -118.5t-63 -198.5q-1 -18 -1 -54q0 -26 2 -72q39 209 108 345.5t155 136.5q65 0 105.5 -83t40.5 -210q0 -202 -91 -309q76 34 137 100.5t96 147.5q5 12 18 12q8 0 14 -6t6 -14
q0 -2 -2 -8q-54 -128 -168 -214.5t-240 -86.5zM76 650q-17 -38 -31 -213q35 109 35 175q0 22 -4 38zM354 778q20 0 20 -25l-4 -7q-5 -7 -12.5 -17t-16 -20.5t-19 -17.5t-18.5 -7q-19 0 -46 35q-23 30 -23 36q0 23 20 23q7 0 17 -11t20 -25t12 -16q7 5 18 20q5 7 9 13l6 9
t3.5 5.5t3.5 3l4 1t6 0.5z" />
    <glyph glyph-name="dcaron" unicode="&#x10f;" horiz-adv-x="472" 
d="M346 498q-8 0 -14 5.5t-6 14.5q0 12 11 18q25 12 25 47q-2 28 -22 33q-15 3 -15 20q0 8 6.5 14t14.5 6q23 0 39.5 -25t16.5 -51q0 -28 -15 -53.5t-41 -28.5zM262 40q83 0 210 256q6 11 18 11q8 0 13.5 -6.5t5.5 -14.5q0 -7 -9 -24q-21 -39 -33 -61.5t-40 -66t-50.5 -68.5
t-54 -45.5t-60.5 -20.5q-62 0 -91 92q-9 -33 -36 -63t-61 -30q-53 0 -80 46t-27 114q0 80 34.5 141.5t92.5 61.5q27 0 51 -19v6q0 171 11 259.5t46 88.5q17 0 29 -16t16.5 -41t6.5 -44.5t2 -38.5q0 -73 -23 -152t-47 -116q0 -46 6.5 -99.5t25 -101.5t44.5 -48zM74 39
q37 0 57.5 54t20.5 101q0 128 -62 128q-34 0 -58.5 -54.5t-24.5 -117.5q0 -48 17 -79.5t50 -31.5zM203 647q-17 -100 -17 -261q30 87 30 159t-13 102z" />
    <glyph glyph-name="Dcroat" unicode="&#x110;" horiz-adv-x="592" 
d="M220 -20q-53 0 -90 38t-37 92q0 8 6 14t14 6t14 -6t6 -14q0 -35 24.5 -62.5t62.5 -27.5q84 0 137 97t53 241q0 101 -27.5 177t-78.5 76q-50 0 -98 -75.5t-88 -215.5q-25 -92 -35 -137h17q16 0 20 -18q-1 -6 -6 -13q-4 -8 -39 -10q-5 -27 -9.5 -55.5t-6.5 -41.5t-5 -25
t-6.5 -16t-10.5 -5q-18 0 -21 15q-12 41 -15 129q-23 2 -24 3q-15 3 -15 20q0 8 6.5 13t13.5 5q2 0 6 -1t12 -2q-1 21 -1 65q0 186 18 319q12 95 33 120q11 14 25 14q7 0 13.5 -3t14.5 -11.5t12.5 -27t4.5 -45.5q0 -53 -17 -118.5t-63 -198.5q-1 -18 -1 -54q0 -41 1 -60h3
q25 132 62 235.5t89.5 169t109.5 65.5q65 0 105.5 -83t40.5 -210q0 -202 -91 -309q76 34 137 100.5t96 147.5q5 12 18 12q8 0 14 -6t6 -14q0 -2 -2 -8q-54 -128 -168 -214.5t-240 -86.5zM76 650q-17 -38 -31 -213q35 109 35 175q0 22 -4 38z" />
    <glyph glyph-name="dcroat" unicode="&#x111;" horiz-adv-x="472" 
d="M308 539q-4 -7 -14 -7q-33 -3 -39 -3q-4 -68 -25.5 -137t-43.5 -103q0 -46 6.5 -99.5t25 -101.5t44.5 -48q83 0 210 256q6 11 18 11q8 0 13.5 -6.5t5.5 -14.5q0 -7 -9 -24q-21 -39 -33 -61.5t-40 -66t-50.5 -68.5t-54 -45.5t-60.5 -20.5q-62 0 -91 92q-9 -33 -36 -63
t-61 -30q-53 0 -80 46t-27 114q0 80 34.5 141.5t92.5 61.5q27 0 51 -19v6q0 126 3 178q-65 2 -65 3q-8 2 -12 9t-3 15q9 18 26 13h57q12 130 51 130q51 0 54 -129q15 0 35 2q19 3 23 -18q-1 -6 -6 -13zM74 39q37 0 57.5 54t20.5 101q0 128 -62 128q-34 0 -58.5 -54.5
t-24.5 -117.5q0 -48 17 -79.5t50 -31.5zM186 386q26 75 29 142q-4 0 -12.5 -0.5t-12.5 -0.5q-4 -68 -4 -141zM203 647q-7 -33 -10 -80h23q-2 55 -13 80z" />
    <glyph glyph-name="Eogonek" unicode="&#x118;" horiz-adv-x="583" 
d="M399 -84q-20 0 -32.5 11.5t-12.5 29.5t13 44q-5 -1 -14 -1q-78 0 -124 37t-46 98q0 48 29 92t81 66q-23 11 -39 27q-118 -95 -181 -95q-49 0 -73 55q-2 6 -2 8q0 7 6 13.5t14 6.5q13 0 18 -12q14 -31 37 -31q25 0 69 23t85 62q-37 51 -37 118q0 76 46.5 137t106.5 61
q37 0 59.5 -23.5t22.5 -63.5q0 -108 -141 -233q41 -35 103 -35q8 0 14 -6t6 -14t-6 -14t-14 -6q-76 0 -120 -41t-44 -95q0 -43 37.5 -69t92.5 -26q103 0 230 256q6 11 18 11q8 0 13.5 -6.5t5.5 -14.5q0 -7 -9 -24q-90 -175 -169 -230l-2 -3q-21 -19 -33.5 -40t-12.5 -31
q0 -2 4 -2q14 0 41 16q3 2 10 2q8 0 14 -6t6 -14q0 -18 -28.5 -28t-41.5 -10zM343 626q-40 0 -76.5 -47.5t-36.5 -110.5q0 -52 27 -92q57 47 92.5 102.5t35.5 100.5q0 47 -42 47z" />
    <glyph glyph-name="eogonek" unicode="&#x119;" horiz-adv-x="326" 
d="M146 -87q-20 0 -32.5 11.5t-12.5 29.5q0 21 14 46q-63 0 -91 69.5t-28 172.5q0 121 56 121q19 0 34.5 -22t16.5 -63q0 -71 -50 -175q22 -63 63 -63q83 0 210 256q6 11 18 11q8 0 13.5 -6.5t5.5 -14.5q0 -7 -9 -24q-94 -180 -165 -234l-2 -2q-21 -19 -33.5 -40t-12.5 -31
q0 -2 4 -2q14 0 41 16q3 2 10 2q8 0 14 -6t6 -14q0 -18 -28.5 -28t-41.5 -10zM36 223q0 -33 2 -50q24 66 24 106q-1 33 -11 43q-15 -21 -15 -99z" />
    <glyph glyph-name="Ecaron" unicode="&#x11a;" horiz-adv-x="583" 
d="M353 40q103 0 230 256q6 11 18 11q8 0 13.5 -6.5t5.5 -14.5q0 -7 -9 -24q-20 -39 -33 -62t-41.5 -66t-53.5 -68t-60 -45.5t-70 -20.5q-78 0 -124 37t-46 98q0 48 29 92t81 66q-23 11 -39 27q-118 -95 -181 -95q-49 0 -73 55q-2 6 -2 8q0 7 6 13.5t14 6.5q13 0 18 -12
q14 -31 37 -31q25 0 69 23t85 62q-37 51 -37 118q0 76 46.5 137t106.5 61q37 0 59.5 -23.5t22.5 -63.5q0 -108 -141 -233q41 -35 103 -35q8 0 14 -6t6 -14t-6 -14t-14 -6q-76 0 -120 -41t-44 -95q0 -43 37.5 -69t92.5 -26zM343 626q-40 0 -76.5 -47.5t-36.5 -110.5
q0 -52 27 -92q57 47 92.5 102.5t35.5 100.5q0 47 -42 47zM394 797q20 0 20 -25l-4 -7q-5 -7 -12.5 -17t-16 -20.5t-19 -17.5t-18.5 -7q-19 0 -46 35q-23 30 -23 36q0 23 20 23q7 0 17 -11t20 -25t12 -16q7 5 18 20q5 7 9 13l6 9t3.5 5.5t3.5 3l4 1t6 0.5z" />
    <glyph glyph-name="ecaron" unicode="&#x11b;" horiz-adv-x="326" 
d="M36 223q0 -33 2 -50q24 66 24 106q-1 33 -11 43q-15 -21 -15 -99zM116 0q-44 0 -72 37t-38 88.5t-10 116.5q0 121 56 121q19 0 34.5 -22t16.5 -63q0 -71 -50 -175q22 -63 63 -63q83 0 210 256q6 11 18 11q8 0 13.5 -6.5t5.5 -14.5q0 -7 -9 -24q-21 -39 -33 -61.5t-40 -66
t-50.5 -68.5t-54 -45.5t-60.5 -20.5zM101 490q20 0 20 -25l-5 -7q-4 -7 -11.5 -17t-16 -20.5t-19 -17.5t-18.5 -7q-19 0 -46 35q-23 30 -23 36q0 23 20 23q7 0 17 -11t20 -25t12 -16q7 5 18 20q5 7 9 13l6 9t3.5 5.5t3.5 3l4 1t6 0.5z" />
    <glyph glyph-name="dotlessi" unicode="&#x131;" horiz-adv-x="325" 
d="M115 40q83 0 210 256q6 11 18 11q8 0 13.5 -6.5t5.5 -14.5q0 -7 -9 -24q-21 -39 -33 -61.5t-40 -66t-50.5 -68.5t-54 -45.5t-60.5 -20.5q-118 0 -118 236q0 35 1 53q2 19 21 19t19 -21q-1 -17 -1 -51q0 -25 2 -50t9 -62.5t24 -60.5t43 -23z" />
    <glyph glyph-name="Lacute" unicode="&#x139;" horiz-adv-x="653" 
d="M194 76q-18 0 -30.5 -8.5t-12.5 -15.5q0 -13 42 -13q26 0 44 18q-29 19 -43 19zM363 657q-8 -14 -13 -62q-6 -60 -6 -152q24 75 24 179q0 25 -5 35zM681 262q-28 -53 -54.5 -94t-62.5 -82.5t-78.5 -64t-88.5 -22.5q-74 0 -125 36q-32 -36 -79 -36q-37 0 -59.5 14
t-22.5 39t24.5 44.5t58.5 19.5q24 0 66 -26q27 56 38 189q-95 -99 -177 -99q-54 0 -88.5 30.5t-34.5 77.5q0 8 6 14t14 6t14 -6t6 -14q0 -33 25.5 -50.5t57.5 -17.5q94 0 181 130q1 30 2 78t1.5 75t2.5 63t5.5 56t10 40t16 28.5t23.5 8.5q45 0 45 -77q0 -169 -67 -285
q-5 -186 -47 -268q53 -33 105 -33q40 0 76 20t67.5 59.5t56.5 81t54 99.5q6 11 18 11q8 0 13.5 -6.5t5.5 -14.5q0 -7 -9 -24zM349 728q-9 0 -15 6t-6 14t6 14q17 18 29.5 36t17.5 27l5 9q4 12 19 12q7 0 13 -6t6 -13q0 -2 -2 -8q0 -2 -5 -12t-19.5 -30.5t-34.5 -41.5
q-6 -7 -14 -7z" />
    <glyph glyph-name="lacute" unicode="&#x13a;" horiz-adv-x="326" 
d="M116 40q83 0 210 256q6 11 18 11q8 0 13.5 -6.5t5.5 -14.5q0 -7 -9 -24q-21 -39 -33 -61.5t-40 -66t-50.5 -68.5t-54 -45.5t-60.5 -20.5q-117 0 -117 349q0 171 11 259.5t46 88.5q17 0 29 -16t16.5 -41t6.5 -44.5t2 -38.5q0 -73 -23 -152t-47 -116q0 -46 6.5 -99.5
t25 -101.5t44.5 -48zM57 647q-17 -100 -17 -261q30 87 30 159t-13 102zM42 725q-9 0 -15 6t-6 14t6 14q17 18 29.5 36t17.5 27l5 9q4 12 19 12q8 0 13.5 -5.5t5.5 -13.5q0 -2 -2 -8q0 -2 -5 -12t-19.5 -30.5t-34.5 -41.5q-6 -7 -14 -7z" />
    <glyph glyph-name="Lcaron" unicode="&#x13d;" horiz-adv-x="653" 
d="M492 490q-8 0 -14 5.5t-6 14.5q0 12 11 18q25 12 25 47q-2 28 -22 33q-15 3 -15 20q0 8 6.5 14t14.5 6q23 0 39.5 -25t16.5 -51q0 -28 -15 -53.5t-41 -28.5zM194 76q-18 0 -30.5 -8.5t-12.5 -15.5q0 -13 42 -13q26 0 44 18q-29 19 -43 19zM363 657q-8 -14 -13 -62
q-6 -60 -6 -152q24 75 24 179q0 25 -5 35zM681 262q-28 -53 -54.5 -94t-62.5 -82.5t-78.5 -64t-88.5 -22.5q-74 0 -125 36q-32 -36 -79 -36q-37 0 -59.5 14t-22.5 39t24.5 44.5t58.5 19.5q24 0 66 -26q27 56 38 189q-95 -99 -177 -99q-54 0 -88.5 30.5t-34.5 77.5q0 8 6 14
t14 6t14 -6t6 -14q0 -33 25.5 -50.5t57.5 -17.5q94 0 181 130q1 30 2 78t1.5 75t2.5 63t5.5 56t10 40t16 28.5t23.5 8.5q45 0 45 -77q0 -169 -67 -285q-5 -186 -47 -268q53 -33 105 -33q40 0 76 20t67.5 59.5t56.5 81t54 99.5q6 11 18 11q8 0 13.5 -6.5t5.5 -14.5
q0 -7 -9 -24z" />
    <glyph glyph-name="lcaron" unicode="&#x13e;" horiz-adv-x="326" 
d="M196 498q-8 0 -14 5.5t-6 14.5q0 12 11 18q25 12 25 47q-2 28 -22 33q-15 3 -15 20q0 8 6.5 14t14.5 6q23 0 39.5 -25t16.5 -51q0 -28 -15 -53.5t-41 -28.5zM116 40q83 0 210 256q6 11 18 11q8 0 13.5 -6.5t5.5 -14.5q0 -7 -9 -24q-21 -39 -33 -61.5t-40 -66t-50.5 -68.5
t-54 -45.5t-60.5 -20.5q-117 0 -117 349q0 171 11 259.5t46 88.5q17 0 29 -16t16.5 -41t6.5 -44.5t2 -38.5q0 -73 -23 -152t-47 -116q0 -46 6.5 -99.5t25 -101.5t44.5 -48zM57 647q-17 -100 -17 -261q30 87 30 159t-13 102z" />
    <glyph glyph-name="Lslash" unicode="&#x141;" horiz-adv-x="653" 
d="M681 262q-28 -53 -54.5 -94t-62.5 -82.5t-78.5 -64t-88.5 -22.5q-74 0 -125 36q-32 -36 -79 -36q-37 0 -59.5 14t-22.5 39t24.5 44.5t58.5 19.5q24 0 66 -26q12 26 20 63q-23 -13 -31 -13q-18 0 -18 21q0 17 60 51q3 21 7 67q-95 -99 -177 -99q-54 0 -88.5 30.5
t-34.5 77.5q0 8 6 14t14 6t14 -6t6 -14q0 -33 25.5 -50.5t57.5 -17.5q94 0 181 130q1 30 2 78t1.5 75t2.5 63t5.5 56t10 40t16 28.5t23.5 8.5q45 0 45 -77q0 -169 -67 -285q-1 -37 -7 -102q7 4 19.5 10.5t15.5 8.5q4 2 6 2q6 0 10.5 -6t4.5 -14q0 -13 -10 -19
q-34 -24 -54 -36q-11 -72 -32 -112q53 -33 105 -33q40 0 76 20t67.5 59.5t56.5 81t54 99.5q6 11 18 11q8 0 13.5 -6.5t5.5 -14.5q0 -7 -9 -24zM363 657q-8 -14 -13 -62q-6 -60 -6 -152q24 75 24 179q0 25 -5 35zM194 76q-18 0 -30.5 -8.5t-12.5 -15.5q0 -13 42 -13
q26 0 44 18q-29 19 -43 19z" />
    <glyph glyph-name="lslash" unicode="&#x142;" horiz-adv-x="326" 
d="M116 40q83 0 210 256q6 11 18 11q8 0 13.5 -6.5t5.5 -14.5q0 -7 -9 -24q-21 -39 -33 -61.5t-40 -66t-50.5 -68.5t-54 -45.5t-60.5 -20.5q-60 0 -89 87q-29 -17 -38 -17q-18 0 -18 21q0 13 44 41q-16 82 -16 217q0 171 11 259.5t46 88.5q17 0 29 -16t16.5 -41t6.5 -44.5
t2 -38.5q0 -73 -23 -152t-47 -116q0 -66 13 -135q48 25 56 30q4 2 6 2q6 0 10.5 -6t4.5 -14q0 -13 -10 -19q-32 -22 -57 -38q21 -69 53 -69zM57 647q-17 -100 -17 -261q30 87 30 159t-13 102z" />
    <glyph glyph-name="Nacute" unicode="&#x143;" horiz-adv-x="675" 
d="M79 655q-4 -7 -10.5 -35t-14 -84t-10.5 -117q39 120 39 203q0 23 -4 33zM465 0q-38 0 -66.5 34.5t-49.5 111.5q-21 75 -46.5 256t-40.5 207q-32 -26 -75 -148q-66 -191 -130 -448q-5 -14 -20 -14q-16 0 -19 15q-18 69 -18 252q0 173 16 296q13 92 34 122q12 15 27 15
q7 0 13.5 -2.5t14.5 -9.5t13 -24t5 -41q0 -130 -83 -329q0 -111 5 -172q73 274 123 401.5t99 127.5q29 0 44 -68t33.5 -201.5t43.5 -223.5q32 -117 77 -117q83 0 210 256q6 11 18 11q8 0 13.5 -6.5t5.5 -14.5q0 -7 -9 -24q-21 -39 -33 -61.5t-40 -66t-50.5 -68.5t-54 -45.5
t-60.5 -20.5zM251 683q-9 0 -15 6t-6 14t6 14q17 18 29.5 36t17.5 27l5 9q4 12 19 12q7 0 13 -5.5t6 -13.5q0 -2 -2 -8q0 -2 -5 -12t-19.5 -30.5t-34.5 -41.5q-6 -7 -14 -7z" />
    <glyph glyph-name="nacute" unicode="&#x144;" horiz-adv-x="473" 
d="M-1 289q0 8 6 13.5t15 5.5q16 0 19 -21q8 -44 13 -89q1 6 5.5 23.5t7.5 30t8.5 31t11 31t12.5 24.5t16 18.5t18 6.5q10 0 16.5 -5.5t10.5 -19.5t6.5 -25.5t6 -35.5t6.5 -38q17 -90 36.5 -144.5t49.5 -54.5q83 0 210 256q6 11 18 11q8 0 13.5 -6.5t5.5 -14.5q0 -7 -9 -24
q-21 -39 -33 -61.5t-40 -66t-50.5 -68.5t-54 -45.5t-60.5 -20.5q-16 0 -29.5 6.5t-24.5 20t-20.5 28.5t-17 37.5t-13 41t-11 45.5t-8.5 44t-7.5 43t-6.5 37q-25 -58 -40.5 -141.5t-18.5 -142.5q-2 -17 -20 -19q-18 0 -20 19q0 7 -2 43.5t-9 105.5t-16 121zM114 395
q-9 0 -15 6t-6 14t6 14q17 18 29.5 36t17.5 27l5 9q5 12 19 12q8 0 13.5 -5.5t5.5 -13.5q0 -2 -2 -8q0 -2 -5 -12t-19.5 -30.5t-34.5 -41.5q-6 -7 -14 -7z" />
    <glyph glyph-name="Ncaron" unicode="&#x147;" horiz-adv-x="675" 
d="M79 655q-4 -7 -10.5 -35t-14 -84t-10.5 -117q39 120 39 203q0 23 -4 33zM465 0q-38 0 -66.5 34.5t-49.5 111.5q-21 75 -46.5 256t-40.5 207q-32 -26 -75 -148q-66 -191 -130 -448q-5 -14 -20 -14q-16 0 -19 15q-18 69 -18 252q0 173 16 296q13 92 34 122q12 15 27 15
q7 0 13.5 -2.5t14.5 -9.5t13 -24t5 -41q0 -130 -83 -329q0 -111 5 -172q73 274 123 401.5t99 127.5q29 0 44 -68t33.5 -201.5t43.5 -223.5q32 -117 77 -117q83 0 210 256q6 11 18 11q8 0 13.5 -6.5t5.5 -14.5q0 -7 -9 -24q-21 -39 -33 -61.5t-40 -66t-50.5 -68.5t-54 -45.5
t-60.5 -20.5zM315 778q20 0 20 -25l-5 -7q-4 -7 -11.5 -17t-16 -20.5t-19 -17.5t-18.5 -7q-19 0 -46 35q-23 30 -23 36q0 23 20 23q7 0 17 -11t20 -25t12 -16q7 5 18 20q5 7 9 13l6 9t3.5 5.5t3.5 3l4 1t6 0.5z" />
    <glyph glyph-name="ncaron" unicode="&#x148;" horiz-adv-x="473" 
d="M-1 289q0 8 6 13.5t15 5.5q16 0 19 -21q8 -44 13 -89q1 6 5.5 23.5t7.5 30t8.5 31t11 31t12.5 24.5t16 18.5t18 6.5q10 0 16.5 -5.5t10.5 -19.5t6.5 -25.5t6 -35.5t6.5 -38q17 -90 36.5 -144.5t49.5 -54.5q83 0 210 256q6 11 18 11q8 0 13.5 -6.5t5.5 -14.5q0 -7 -9 -24
q-21 -39 -33 -61.5t-40 -66t-50.5 -68.5t-54 -45.5t-60.5 -20.5q-16 0 -29.5 6.5t-24.5 20t-20.5 28.5t-17 37.5t-13 41t-11 45.5t-8.5 44t-7.5 43t-6.5 37q-25 -58 -40.5 -141.5t-18.5 -142.5q-2 -17 -20 -19q-18 0 -20 19q0 7 -2 43.5t-9 105.5t-16 121zM178 490
q20 0 20 -25l-4 -7q-5 -7 -12.5 -17t-16 -20.5t-19 -17.5t-18.5 -7q-19 0 -46 35q-23 30 -23 36q0 23 20 23q7 0 17 -11t20 -25t12 -16q7 5 18 20q5 7 9 13l6 9t3.5 5.5t3.5 3l4 1t6 0.5z" />
    <glyph glyph-name="Ohungarumlaut" unicode="&#x150;" horiz-adv-x="925" 
d="M664 194l-2 -4q73 2 144 32t122 79q6 6 13 6q9 0 15 -6t6 -15q0 -8 -6 -13q-122 -119 -309 -122q-35 -80 -84.5 -123.5t-106.5 -43.5q-125 0 -182 116q-43 86 -45 220q-33 -26 -51.5 -39t-53 -28t-64.5 -15q-27 0 -43.5 12.5t-16.5 35.5q0 8 6 14t14 6q9 0 12.5 -4.5
t3.5 -9.5t5.5 -9.5t17.5 -4.5q32 0 84 30.5t88 66.5q4 78 21.5 122.5t41.5 44.5q18 0 29.5 -13t11.5 -34q0 -62 -65 -137q-1 -11 -1 -36q0 -103 29 -177q47 -121 158 -121q52 0 94 44.5t56 86.5q-109 14 -176 91.5t-67 195.5q0 94 45 174t109 80q84 0 133 -78t49 -210
q0 -109 -35 -214zM517 656q-41 0 -77.5 -66.5t-36.5 -150.5q0 -96 59 -167t160 -78q37 105 37 214q0 102 -35 175t-107 73zM296 496q-4 -5 -17 -54q17 22 17 54zM464 734q-9 0 -15 6t-6 14t6 14q17 18 29.5 36t17.5 27l5 9q5 12 19 12q8 0 13.5 -6t5.5 -13q0 -2 -2 -8
q0 -2 -5 -12t-19.5 -30.5t-34.5 -41.5q-6 -7 -14 -7zM571 734q-9 0 -15 6t-6 14t6 14q17 18 29.5 36t17.5 27l5 9q4 12 19 12q7 0 13 -6t6 -13q0 -2 -2 -8q0 -2 -5 -12t-19.5 -30.5t-34.5 -41.5q-6 -7 -14 -7z" />
    <glyph glyph-name="ohungarumlaut" unicode="&#x151;" horiz-adv-x="353" 
d="M-31 173q0 41 15 88t36 47q19 0 19 -21q0 -5 -3 -9q-25 -41 -25 -107q0 -50 19 -90.5t63 -40.5q23 0 40.5 20t27 49.5t14.5 58.5t5 53q-20 3 -31.5 5t-32 8t-32 14t-21.5 21.5t-11 31.5q0 26 21.5 44t49.5 18q40 0 63.5 -31t30.5 -74h14q36 0 66.5 12t48.5 24.5t24 12.5
q7 0 13.5 -6.5t6.5 -14.5t-7 -15q-57 -54 -163 -54q0 -31 -6.5 -66t-20.5 -70t-40 -58t-60 -23q-60 0 -92 53.5t-32 119.5zM92 302q0 -9 5.5 -15t18 -10.5t19 -6.5t23.5 -5l18 -3q-12 61 -53 61q-13 0 -22 -6t-9 -15zM69 395q-9 0 -15 6t-6 14t6 14q17 18 29.5 36t17.5 27
l5 9q4 12 19 12q7 0 13 -5.5t6 -13.5q0 -2 -2 -8q0 -2 -5 -12t-19.5 -30.5t-34.5 -41.5q-6 -7 -14 -7zM176 395q-9 0 -15 6t-6 14t6 14q17 18 29.5 36t17.5 27l5 9q5 12 19 12q8 0 13.5 -5.5t5.5 -13.5q0 -2 -2 -8q0 -2 -5 -12t-19.5 -30.5t-34.5 -41.5q-6 -7 -14 -7z" />
    <glyph glyph-name="OE" unicode="&#x152;" horiz-adv-x="1007" 
d="M778 40q103 0 230 256q6 11 18 11q8 0 13.5 -6.5t5.5 -14.5q0 -7 -9 -24q-20 -39 -33 -62t-41.5 -66t-53.5 -68t-60 -45.5t-70 -20.5q-63 0 -106 24.5t-57 67.5q-66 -108 -159 -108q-125 0 -182 116q-43 86 -45 220q-33 -26 -51.5 -39t-53 -28t-64.5 -15
q-27 0 -43.5 12.5t-16.5 35.5q0 8 6 14t14 6q9 0 12.5 -4.5t3.5 -9.5t5.5 -9.5t17.5 -4.5q32 0 84 30.5t88 66.5q4 78 21.5 122.5t41.5 44.5q18 0 29.5 -13t11.5 -34q0 -62 -65 -137q-1 -11 -1 -36q0 -103 29 -177q47 -121 158 -121q52 0 94 44.5t56 86.5q-109 14 -176 91.5
t-67 195.5q0 94 45 174t109 80q92 0 142 -94q49 64 109 64q37 0 59.5 -23.5t22.5 -63.5q0 -108 -141 -233q41 -35 103 -35q8 0 14 -6t6 -14t-6 -14t-14 -6q-76 0 -120 -41t-44 -95q0 -43 37.5 -69t92.5 -26zM403 439q0 -96 58.5 -166.5t157.5 -78.5q27 68 99 99
q-44 20 -73.5 71.5t-29.5 103.5q0 48 20 91q-37 97 -118 97q-41 0 -77.5 -66.5t-36.5 -150.5zM768 626q-40 0 -76.5 -47.5t-36.5 -110.5q0 -52 27 -92q57 47 92.5 102.5t35.5 100.5q0 47 -42 47zM296 496q-4 -5 -17 -54q17 22 17 54z" />
    <glyph glyph-name="oe" unicode="&#x153;" horiz-adv-x="509" 
d="M-31 173q0 41 15 88t36 47q19 0 19 -21q0 -5 -3 -9q-25 -41 -25 -107q0 -50 19 -90.5t63 -40.5q40 0 62 55t25 114q0 2 -0.5 6t-0.5 6q-20 3 -31.5 5t-31.5 8t-31.5 14t-21.5 21.5t-11 31.5q0 26 21.5 44t49.5 18q41 0 68 -37q14 37 44 37q19 0 34.5 -22t16.5 -63
q0 -71 -50 -175q22 -63 63 -63q83 0 210 256q6 11 18 11q8 0 13.5 -6.5t5.5 -14.5q0 -7 -9 -24q-21 -39 -33 -61.5t-40 -66t-50.5 -68.5t-54 -45.5t-60.5 -20.5q-74 0 -103 98q-33 -98 -103 -98q-60 0 -92 53.5t-32 119.5zM92 302q0 -9 5.5 -15t18 -10.5t19 -6.5t23.5 -5
l18 -3q-12 61 -53 61q-13 0 -22 -6t-9 -15zM219 223q0 -33 2 -50q24 66 24 106q-1 33 -11 43q-15 -21 -15 -99z" />
    <glyph glyph-name="Racute" unicode="&#x154;" horiz-adv-x="635" 
d="M78 655q-4 -7 -10.5 -35t-14 -84t-10.5 -117q39 120 39 203q0 23 -4 33zM425 0q-51 0 -73.5 30.5t-34.5 103.5q-13 76 -32.5 110.5t-63.5 34.5q-8 0 -14 6t-6 14t6 14t14 6q82 0 131 60.5t49 128.5q0 48 -25 75.5t-71 27.5q-49 0 -97 -76t-88 -215q-20 -69 -33.5 -130
t-18 -93t-8.5 -56.5t-8.5 -32.5t-13.5 -9q-18 0 -21 15q-18 71 -18 252q0 174 16 296q13 92 34 122q12 15 27 15q7 0 13.5 -2.5t14.5 -9.5t13 -24t5 -41q0 -130 -83 -329q0 -52 2 -130q21 103 56.5 214t69.5 169q61 105 138 105q63 0 99.5 -39.5t36.5 -103.5
q0 -69 -40.5 -131t-104.5 -84q29 -26 44.5 -72.5t19.5 -84.5t19.5 -67t45.5 -29q83 0 210 256q6 11 18 11q8 0 13.5 -6.5t5.5 -14.5q0 -7 -9 -24q-21 -39 -33 -61.5t-40 -66t-50.5 -68.5t-54 -45.5t-60.5 -20.5zM292 682q-9 0 -15 6t-6 14t6 14q17 18 29.5 36t17.5 27l5 9
q5 12 19 12q8 0 13.5 -6t5.5 -13q0 -2 -2 -8q0 -2 -5 -12t-19.5 -30.5t-34.5 -41.5q-6 -7 -14 -7z" />
    <glyph glyph-name="racute" unicode="&#x155;" horiz-adv-x="395" 
d="M65 19q-2 -17 -20 -19q-18 0 -20 19q0 7 -2 43.5t-9 105.5t-16 121q0 8 6 13.5t15 5.5q15 0 19 -21q9 -50 13 -89q1 6 5.5 23.5t7.5 30t8.5 31t11 31t12.5 24.5t16 18.5t18 6.5q13 0 30.5 -17t33.5 -37.5t41.5 -37.5t51.5 -17q30 0 74.5 26.5t49.5 26.5q7 0 14 -6t7 -14
q0 -10 -9 -16q-27 -20 -41.5 -29.5t-40 -19t-51.5 -9.5q-89 0 -159 103q-26 -60 -44.5 -151t-21.5 -146zM116 395q-9 0 -15 6t-6 14t6 14q17 18 29.5 36t17.5 27l5 9q5 12 19 12q8 0 13.5 -5.5t5.5 -13.5q0 -2 -2 -8q0 -2 -5 -12t-19.5 -30.5t-34.5 -41.5q-6 -7 -14 -7z" />
    <glyph glyph-name="Rcaron" unicode="&#x158;" horiz-adv-x="635" 
d="M78 655q-4 -7 -10.5 -35t-14 -84t-10.5 -117q39 120 39 203q0 23 -4 33zM425 0q-51 0 -73.5 30.5t-34.5 103.5q-13 76 -32.5 110.5t-63.5 34.5q-8 0 -14 6t-6 14t6 14t14 6q82 0 131 60.5t49 128.5q0 48 -25 75.5t-71 27.5q-49 0 -97 -76t-88 -215q-20 -69 -33.5 -130
t-18 -93t-8.5 -56.5t-8.5 -32.5t-13.5 -9q-18 0 -21 15q-18 71 -18 252q0 174 16 296q13 92 34 122q12 15 27 15q7 0 13.5 -2.5t14.5 -9.5t13 -24t5 -41q0 -130 -83 -329q0 -52 2 -130q21 103 56.5 214t69.5 169q61 105 138 105q63 0 99.5 -39.5t36.5 -103.5
q0 -69 -40.5 -131t-104.5 -84q29 -26 44.5 -72.5t19.5 -84.5t19.5 -67t45.5 -29q83 0 210 256q6 11 18 11q8 0 13.5 -6.5t5.5 -14.5q0 -7 -9 -24q-21 -39 -33 -61.5t-40 -66t-50.5 -68.5t-54 -45.5t-60.5 -20.5zM356 777q20 0 20 -25l-4 -7q-5 -7 -12.5 -17t-16 -20.5
t-19 -17.5t-18.5 -7q-19 0 -46 35q-23 30 -23 36q0 23 20 23q7 0 17 -11t20 -25t12 -16q7 5 18 20q5 7 9 13l6 9t3.5 5.5t3.5 3l4 1t6 0.5z" />
    <glyph glyph-name="rcaron" unicode="&#x159;" horiz-adv-x="395" 
d="M65 19q-2 -17 -20 -19q-18 0 -20 19q0 7 -2 43.5t-9 105.5t-16 121q0 8 6 13.5t15 5.5q15 0 19 -21q9 -50 13 -89q1 6 5.5 23.5t7.5 30t8.5 31t11 31t12.5 24.5t16 18.5t18 6.5q13 0 30.5 -17t33.5 -37.5t41.5 -37.5t51.5 -17q30 0 74.5 26.5t49.5 26.5q7 0 14 -6t7 -14
q0 -10 -9 -16q-27 -20 -41.5 -29.5t-40 -19t-51.5 -9.5q-89 0 -159 103q-26 -60 -44.5 -151t-21.5 -146zM180 490q20 0 20 -25l-4 -7q-5 -7 -12.5 -17t-16 -20.5t-19 -17.5t-18.5 -7q-19 0 -46 35q-23 30 -23 36q0 23 20 23q7 0 17 -11t20 -25t12 -16q7 5 18 20q5 7 9 13
l6 9t3.5 5.5t3.5 3l4 1t6 0.5z" />
    <glyph glyph-name="Sacute" unicode="&#x15a;" horiz-adv-x="576" 
d="M250 0q-62 0 -101 32.5t-39 82.5q0 27 16 47t46.5 32t55.5 18.5t62.5 13t48.5 9.5q-16 15 -53.5 44t-55.5 45q-39 -39 -84.5 -65.5t-81.5 -26.5q-29 0 -46.5 14.5t-17.5 39.5q0 8 6 14t14 6q11 0 14.5 -5.5t3.5 -11.5t6 -11.5t20 -5.5q48 0 129 72l9 8q-61 76 -61 161
q0 59 26 99t63 40q36 0 59 -38t23 -101q0 -88 -55 -159q6 -6 57 -45.5t71 -64.5q5 1 34 6t38.5 7t33 7.5t35.5 10t27.5 12t27.5 16.5q5 4 12 4t13.5 -6.5t6.5 -13.5q0 -10 -8 -16q-11 -8 -23 -14.5t-27 -12t-26 -9.5t-30.5 -8.5t-29 -6.5t-32 -6.5t-29.5 -5.5q12 -27 12 -53
q0 -65 -47 -110t-123 -45zM368 200q-130 -22 -171 -38q-47 -19 -47 -47q0 -61 79 -74q14 -2 21 -2q53 0 91.5 30t38.5 85q0 24 -12 46zM230 612q-20 0 -34.5 -29.5t-14.5 -69.5q0 -75 47 -130q44 59 44 130q0 51 -12.5 75t-29.5 24zM217 683q-9 0 -15 6t-6 14t6 14
q17 18 29.5 36t17.5 27l5 9q4 12 19 12q7 0 13 -5.5t6 -13.5q0 -2 -2 -8q0 -2 -5 -12t-19.5 -30.5t-34.5 -41.5q-6 -7 -14 -7z" />
    <glyph glyph-name="sacute" unicode="&#x15b;" horiz-adv-x="361" 
d="M389 302q8 -5 8 -16q0 -8 -3 -12q-29 -38 -88 -65q-36 -16 -99 -36q14 -20 14 -46q0 -58 -53.5 -93.5t-117.5 -35.5q-35 0 -66.5 14.5t-31.5 46.5q0 74 178 132q-27 14 -45.5 25t-43 30t-38 42.5t-13.5 48.5q0 19 2.5 37.5t8.5 41t20.5 36t35.5 13.5t33 -18t12 -41
q0 -52 -49 -113q19 -21 65.5 -49.5t58.5 -37.5q49 15 77.5 25.5t60.5 28.5t46 37q6 9 16 9q7 0 12 -4zM30 337q0 -5 1 -7q31 44 31 77q0 18 -7 18q-13 0 -19 -32t-6 -56zM50 38q45 0 88 22.5t43 65.5q0 18 -15 34q-29 -9 -61 -20.5t-72.5 -35.5t-40.5 -45t58 -21zM44 496
q-9 0 -15 6t-6 14t6 14q17 18 29.5 36t17.5 27l5 9q5 12 19 12q8 0 13.5 -6t5.5 -13q0 -2 -2 -8q0 -2 -5 -12t-19.5 -30.5t-34.5 -41.5q-6 -7 -14 -7z" />
    <glyph glyph-name="Scedilla" unicode="&#x15e;" horiz-adv-x="576" 
d="M252 -198q-8 0 -14 5.5t-6 14.5q0 12 11 18q25 12 25 47q-2 28 -22 33q-15 3 -15 20q0 8 6.5 14t14.5 6q23 0 39.5 -25t16.5 -51q0 -28 -15 -53.5t-41 -28.5zM250 0q-62 0 -101 32.5t-39 82.5q0 27 16 47t46.5 32t55.5 18.5t62.5 13t48.5 9.5q-16 15 -53.5 44t-55.5 45
q-39 -39 -84.5 -65.5t-81.5 -26.5q-29 0 -46.5 14.5t-17.5 39.5q0 8 6 14t14 6q11 0 14.5 -5.5t3.5 -11.5t6 -11.5t20 -5.5q48 0 129 72l9 8q-61 76 -61 161q0 59 26 99t63 40q36 0 59 -38t23 -101q0 -88 -55 -159q6 -6 57 -45.5t71 -64.5q5 1 34 6t38.5 7t33 7.5t35.5 10
t27.5 12t27.5 16.5q5 4 12 4t13.5 -6.5t6.5 -13.5q0 -10 -8 -16q-11 -8 -23 -14.5t-27 -12t-26 -9.5t-30.5 -8.5t-29 -6.5t-32 -6.5t-29.5 -5.5q12 -27 12 -53q0 -65 -47 -110t-123 -45zM368 200q-130 -22 -171 -38q-47 -19 -47 -47q0 -61 79 -74q14 -2 21 -2q53 0 91.5 30
t38.5 85q0 24 -12 46zM230 612q-20 0 -34.5 -29.5t-14.5 -69.5q0 -75 47 -130q44 59 44 130q0 51 -12.5 75t-29.5 24z" />
    <glyph glyph-name="scedilla" unicode="&#x15f;" horiz-adv-x="361" 
d="M82 -198q-8 0 -14 5.5t-6 14.5q0 12 11 18q25 12 25 47q-2 28 -22 33q-15 3 -15 20q0 8 6.5 14t14.5 6q23 0 39.5 -25t16.5 -51q0 -28 -15 -53.5t-41 -28.5zM389 302q8 -5 8 -16q0 -8 -3 -12q-29 -38 -88 -65q-36 -16 -99 -36q14 -20 14 -46q0 -58 -53.5 -93.5
t-117.5 -35.5q-35 0 -66.5 14.5t-31.5 46.5q0 74 178 132q-27 14 -45.5 25t-43 30t-38 42.5t-13.5 48.5q0 19 2.5 37.5t8.5 41t20.5 36t35.5 13.5t33 -18t12 -41q0 -52 -49 -113q19 -21 65.5 -49.5t58.5 -37.5q49 15 77.5 25.5t60.5 28.5t46 37q6 9 16 9q7 0 12 -4zM30 337
q0 -5 1 -7q31 44 31 77q0 18 -7 18q-13 0 -19 -32t-6 -56zM50 38q45 0 88 22.5t43 65.5q0 18 -15 34q-29 -9 -61 -20.5t-72.5 -35.5t-40.5 -45t58 -21z" />
    <glyph glyph-name="Scaron" unicode="&#x160;" horiz-adv-x="576" 
d="M250 0q-62 0 -101 32.5t-39 82.5q0 27 16 47t46.5 32t55.5 18.5t62.5 13t48.5 9.5q-16 15 -53.5 44t-55.5 45q-39 -39 -84.5 -65.5t-81.5 -26.5q-29 0 -46.5 14.5t-17.5 39.5q0 8 6 14t14 6q11 0 14.5 -5.5t3.5 -11.5t6 -11.5t20 -5.5q48 0 129 72l9 8q-61 76 -61 161
q0 59 26 99t63 40q36 0 59 -38t23 -101q0 -88 -55 -159q6 -6 57 -45.5t71 -64.5q5 1 34 6t38.5 7t33 7.5t35.5 10t27.5 12t27.5 16.5q5 4 12 4t13.5 -6.5t6.5 -13.5q0 -10 -8 -16q-11 -8 -23 -14.5t-27 -12t-26 -9.5t-30.5 -8.5t-29 -6.5t-32 -6.5t-29.5 -5.5q12 -27 12 -53
q0 -65 -47 -110t-123 -45zM368 200q-130 -22 -171 -38q-47 -19 -47 -47q0 -61 79 -74q14 -2 21 -2q53 0 91.5 30t38.5 85q0 24 -12 46zM230 612q-20 0 -34.5 -29.5t-14.5 -69.5q0 -75 47 -130q44 59 44 130q0 51 -12.5 75t-29.5 24zM281 778q20 0 20 -25l-5 -7
q-4 -7 -11.5 -17t-16 -20.5t-19 -17.5t-18.5 -7q-19 0 -46 35q-23 30 -23 36q0 23 20 23q7 0 17 -11t20 -25t12 -16q7 5 18 20q5 7 9 13l6 9t3.5 5.5t3.5 3l4 1t6 0.5z" />
    <glyph glyph-name="scaron" unicode="&#x161;" horiz-adv-x="361" 
d="M389 302q8 -5 8 -16q0 -8 -3 -12q-29 -38 -88 -65q-36 -16 -99 -36q14 -20 14 -46q0 -58 -53.5 -93.5t-117.5 -35.5q-35 0 -66.5 14.5t-31.5 46.5q0 74 178 132q-27 14 -45.5 25t-43 30t-38 42.5t-13.5 48.5q0 19 2.5 37.5t8.5 41t20.5 36t35.5 13.5t33 -18t12 -41
q0 -52 -49 -113q19 -21 65.5 -49.5t58.5 -37.5q49 15 77.5 25.5t60.5 28.5t46 37q6 9 16 9q7 0 12 -4zM30 337q0 -5 1 -7q31 44 31 77q0 18 -7 18q-13 0 -19 -32t-6 -56zM50 38q45 0 88 22.5t43 65.5q0 18 -15 34q-29 -9 -61 -20.5t-72.5 -35.5t-40.5 -45t58 -21zM108 591
q20 0 20 -25l-4 -7q-5 -7 -12.5 -17t-16 -20.5t-19 -17.5t-18.5 -7q-19 0 -46 35q-23 30 -23 36q0 23 20 23q7 0 17 -11t20 -25t12 -16q7 5 18 20q5 7 9 13l6 9t3.5 5.5t3.5 3l4 1t6 0.5z" />
    <glyph glyph-name="uni0162" unicode="&#x162;" horiz-adv-x="713" 
d="M502 -198q-8 0 -14 5.5t-6 14.5q0 12 11 18q25 12 25 47q-2 28 -22 33q-15 3 -15 20q0 8 6.5 14t14.5 6q23 0 39.5 -25t16.5 -51q0 -28 -15 -53.5t-41 -28.5zM431 588q-21 -102 -21 -211q0 -22 2 -62q39 117 45 279zM450 656q-4 -6 -9 -24l14 3q-2 13 -5 21zM503 0
q-43 0 -73 44t-44 125q-86 -127 -210 -127q-84 0 -131 65.5t-47 180.5q0 8 6 14t14 6t14 -6t6 -14q0 -100 37 -153t101 -53q119 0 201 150q-5 55 -5 122q0 120 16 224q-50 -11 -94 -11q-90 0 -90 67q0 8 5.5 14t14.5 6q12 0 16 -7.5t4 -16.5t12.5 -16.5t38.5 -7.5
q29 0 102 15q0 1 1 3q11 76 48 76q40 0 48 -55q107 28 144 28q53 0 53 -39q0 -8 -6 -14t-14 -6q-9 0 -15.5 9.5t-16.5 9.5q-32 0 -142 -28q0 -211 -79 -380q10 -87 32 -136t53 -49q83 0 210 256q6 11 18 11q8 0 13.5 -6.5t5.5 -14.5q0 -7 -9 -24q-21 -39 -33 -61.5t-40 -66
t-50.5 -68.5t-54 -45.5t-60.5 -20.5z" />
    <glyph glyph-name="uni0163" unicode="&#x163;" horiz-adv-x="326" 
d="M-67 477q-23 0 -23 20q0 17 17 20l75 9q10 171 54 171q17 0 29 -16t16.5 -41t6.5 -44.5t2 -38.5q0 -3 -0.5 -9t-0.5 -8l71 9q20 0 20 -20q0 -17 -17 -20l-77 -10q-8 -63 -27.5 -122t-38.5 -88q0 -46 6.5 -99.5t25 -101.5t44.5 -48q83 0 210 256q6 11 18 11q8 0 13.5 -6.5
t5.5 -14.5q0 -7 -9 -24q-21 -39 -33 -61.5t-40 -66t-50.5 -68.5t-54 -45.5t-60.5 -20.5q-117 0 -117 349q0 94 1 136zM112 -198q-8 0 -14 5.5t-6 14.5q0 12 11 18q25 12 25 47q-2 28 -22 33q-15 3 -15 20q0 8 6.5 14t14.5 6q23 0 39.5 -25t16.5 -51q0 -28 -15 -53.5
t-41 -28.5zM57 647q-8 -48 -13 -115l26 3v10q0 72 -13 102zM40 386q18 54 26 108l-24 -3q-2 -39 -2 -105z" />
    <glyph glyph-name="Tcaron" unicode="&#x164;" horiz-adv-x="713" 
d="M431 588q-21 -102 -21 -211q0 -22 2 -62q39 117 45 279zM450 656q-4 -6 -9 -24l14 3q-2 13 -5 21zM503 0q-43 0 -73 44t-44 125q-86 -127 -210 -127q-84 0 -131 65.5t-47 180.5q0 8 6 14t14 6t14 -6t6 -14q0 -100 37 -153t101 -53q119 0 201 150q-5 55 -5 122
q0 120 16 224q-50 -11 -94 -11q-90 0 -90 67q0 8 5.5 14t14.5 6q12 0 16 -7.5t4 -16.5t12.5 -16.5t38.5 -7.5q29 0 102 15q0 1 1 3q11 76 48 76q40 0 48 -55q107 28 144 28q53 0 53 -39q0 -8 -6 -14t-14 -6q-9 0 -15.5 9.5t-16.5 9.5q-32 0 -142 -28q0 -211 -79 -380
q10 -87 32 -136t53 -49q83 0 210 256q6 11 18 11q8 0 13.5 -6.5t5.5 -14.5q0 -7 -9 -24q-21 -39 -33 -61.5t-40 -66t-50.5 -68.5t-54 -45.5t-60.5 -20.5zM495 836q20 0 20 -25l-5 -7q-4 -7 -11.5 -17t-16 -20.5t-19 -17.5t-18.5 -7q-19 0 -46 35q-23 30 -23 36q0 23 20 23
q7 0 17 -11t20 -25t12 -16q7 5 18 20q5 7 9 13l6 9t3.5 5.5t3.5 3l4 1t6 0.5z" />
    <glyph glyph-name="tcaron" unicode="&#x165;" horiz-adv-x="326" 
d="M-67 477q-23 0 -23 20q0 17 17 20l75 9q10 171 54 171q17 0 29 -16t16.5 -41t6.5 -44.5t2 -38.5q0 -3 -0.5 -9t-0.5 -8l71 9q20 0 20 -20q0 -17 -17 -20l-77 -10q-8 -63 -27.5 -122t-38.5 -88q0 -46 6.5 -99.5t25 -101.5t44.5 -48q83 0 210 256q6 11 18 11q8 0 13.5 -6.5
t5.5 -14.5q0 -7 -9 -24q-21 -39 -33 -61.5t-40 -66t-50.5 -68.5t-54 -45.5t-60.5 -20.5q-117 0 -117 349q0 94 1 136zM246 498q-8 0 -14 5.5t-6 14.5q0 12 11 18q25 12 25 47q-2 28 -22 33q-15 3 -15 20q0 8 6.5 14t14.5 6q23 0 39.5 -25t16.5 -51q0 -28 -15 -53.5
t-41 -28.5zM57 647q-8 -48 -13 -115l26 3v10q0 72 -13 102zM40 386q18 54 26 108l-24 -3q-2 -39 -2 -105z" />
    <glyph glyph-name="Uring" unicode="&#x16e;" horiz-adv-x="956" 
d="M746 0q-118 0 -142 343q-32 -159 -85.5 -251t-108.5 -92q-149 0 -149 415q-41 -89 -95.5 -142.5t-103.5 -53.5q-29 0 -46.5 19t-17.5 50q0 8 6 14t14 6t14 -6t6 -14q0 -27 22 -29q48 0 116 90q75 98 98 270q4 31 22 31q9 0 14.5 -6t5.5 -14q0 -3 -1 -8.5t-1 -7.5
q-13 -105 -13 -215q0 -162 30.5 -260.5t78.5 -98.5q23 0 53.5 39t58.5 119q63 175 84 427q0 5 0.5 17.5t1 20.5t2.5 17t7 13.5t13 4.5q9 0 14.5 -5.5t5.5 -13.5q0 -36 -5 -105.5t-5 -104.5q0 -188 29.5 -308.5t76.5 -120.5q83 0 210 256q6 11 18 11q8 0 13.5 -6.5t5.5 -14.5
q0 -7 -9 -24q-21 -39 -33 -61.5t-40 -66t-50.5 -68.5t-54 -45.5t-60.5 -20.5zM445 711q-25 0 -39.5 17.5t-14.5 45.5q0 32 16.5 56t41.5 24t38.5 -21t13.5 -49q0 -32 -15.5 -52.5t-40.5 -20.5zM449 814q-6 0 -12.5 -12t-6.5 -26q0 -25 15 -25q16 0 16 34q0 10 -2.5 17.5
t-5 9.5t-3.5 2h-1z" />
    <glyph glyph-name="uring" unicode="&#x16f;" horiz-adv-x="520" 
d="M310 0q-90 0 -120 163q-38 -163 -113 -163q-85 0 -85 188q0 51 6 101q2 19 21 19t19 -20q-6 -42 -6 -95q0 -153 44 -153q30 0 57.5 73t42.5 213q0 7 5.5 12.5t13.5 5.5q18 0 20 -18q1 -9 3 -36.5t4.5 -50t6.5 -54t10.5 -55t16 -45t23.5 -33.5t31 -12q83 0 210 256
q6 11 18 11q8 0 13.5 -6.5t5.5 -14.5q0 -7 -9 -24q-21 -39 -33 -61.5t-40 -66t-50.5 -68.5t-54 -45.5t-60.5 -20.5zM95 356q-25 0 -39.5 17.5t-14.5 45.5q0 32 16.5 56t41.5 24t38.5 -21t13.5 -49q0 -32 -15.5 -52.5t-40.5 -20.5zM99 459q-6 0 -12.5 -12t-6.5 -26
q0 -25 15 -25q16 0 16 34q0 10 -2.5 17.5t-5 9.5t-3.5 2h-1z" />
    <glyph glyph-name="Uhungarumlaut" unicode="&#x170;" horiz-adv-x="956" 
d="M746 0q-118 0 -142 343q-32 -159 -85.5 -251t-108.5 -92q-149 0 -149 415q-41 -89 -95.5 -142.5t-103.5 -53.5q-29 0 -46.5 19t-17.5 50q0 8 6 14t14 6t14 -6t6 -14q0 -27 22 -29q48 0 116 90q75 98 98 270q4 31 22 31q9 0 14.5 -6t5.5 -14q0 -3 -1 -8.5t-1 -7.5
q-13 -105 -13 -215q0 -162 30.5 -260.5t78.5 -98.5q23 0 53.5 39t58.5 119q63 175 84 427q0 5 0.5 17.5t1 20.5t2.5 17t7 13.5t13 4.5q9 0 14.5 -5.5t5.5 -13.5q0 -36 -5 -105.5t-5 -104.5q0 -188 29.5 -308.5t76.5 -120.5q83 0 210 256q6 11 18 11q8 0 13.5 -6.5t5.5 -14.5
q0 -7 -9 -24q-21 -39 -33 -61.5t-40 -66t-50.5 -68.5t-54 -45.5t-60.5 -20.5zM393 719q-9 0 -15 6t-6 14t6 14q17 18 29.5 36t17.5 27l5 9q4 12 19 12q7 0 13 -5.5t6 -13.5q0 -2 -2 -8q0 -2 -5 -12t-19.5 -30.5t-34.5 -41.5q-6 -7 -14 -7zM500 719q-9 0 -15 6t-6 14t6 14
q17 18 29.5 36t17.5 27l5 9q5 12 19 12q8 0 13.5 -5.5t5.5 -13.5q0 -2 -2 -8q0 -2 -5 -12t-19.5 -30.5t-34.5 -41.5q-6 -7 -14 -7z" />
    <glyph glyph-name="uhungarumlaut" unicode="&#x171;" horiz-adv-x="520" 
d="M310 0q-90 0 -120 163q-38 -163 -113 -163q-85 0 -85 188q0 51 6 101q2 19 21 19t19 -20q-6 -42 -6 -95q0 -153 44 -153q30 0 57.5 73t42.5 213q0 7 5.5 12.5t13.5 5.5q18 0 20 -18q1 -9 3 -36.5t4.5 -50t6.5 -54t10.5 -55t16 -45t23.5 -33.5t31 -12q83 0 210 256
q6 11 18 11q8 0 13.5 -6.5t5.5 -14.5q0 -7 -9 -24q-21 -39 -33 -61.5t-40 -66t-50.5 -68.5t-54 -45.5t-60.5 -20.5zM43 364q-9 0 -15 6t-6 14t6 14q17 18 29.5 36t17.5 27l5 9q4 12 19 12q7 0 13 -6t6 -13q0 -2 -2 -8q0 -2 -5 -12t-19.5 -30.5t-34.5 -41.5q-6 -7 -14 -7z
M150 364q-9 0 -15 6t-6 14t6 14q17 18 29.5 36t17.5 27l5 9q5 12 19 12q8 0 13.5 -6t5.5 -13q0 -2 -2 -8q0 -2 -5 -12t-19.5 -30.5t-34.5 -41.5q-6 -7 -14 -7z" />
    <glyph glyph-name="Ydieresis" unicode="&#x178;" horiz-adv-x="929" 
d="M656 67q34 26 105 73t109.5 81t58.5 75q6 11 18 11q7 0 13 -6.5t6 -14.5q0 -3 -2 -9q-22 -44 -61.5 -79.5t-122.5 -91.5t-127 -90q-8 -128 -26.5 -180t-60.5 -74q-22 -12 -43 -12q-33 0 -56 24t-23 58q0 47 45 96.5t125 108.5q6 102 6 175q0 123 -1 181
q-32 -182 -88.5 -287.5t-123.5 -105.5q-34 0 -60.5 22.5t-41.5 61.5t-25.5 80t-14.5 90t-5.5 78t-1.5 58v25q-45 -98 -98.5 -147.5t-101.5 -49.5q-27 1 -43.5 20.5t-16.5 49.5q0 8 6 14t14 6t14 -6t6 -14q0 -30 25 -30q42 0 110 91q75 101 98 270q3 31 24 31q18 -3 18 -22
q-2 -10 -2 -14q-13 -105 -13 -215q0 -161 30 -260t79 -99q67 0 125 169.5t75 421.5q2 19 20 19t20 -18q13 -112 13 -356q0 -98 -4 -209zM611 -16q-128 -95 -128 -153q0 -19 11.5 -29.5t27.5 -10.5q43 0 68 58q13 29 21 135zM400 697q2 6 2 8q0 1 -2 6t-2 9q0 8 6 14t14 6
q13 0 18.5 -12t5.5 -23q0 -32 -22 -32h-4q-16 3 -16 24zM482 697q2 6 2 8q0 1 -2 6t-2 9q0 8 6 14t14 6q13 0 18.5 -12t5.5 -23q0 -32 -22 -32h-4q-16 3 -16 24z" />
    <glyph glyph-name="Zacute" unicode="&#x179;" horiz-adv-x="908" 
d="M327 131q-30 0 -50.5 -14.5t-20.5 -37.5q0 -22 18.5 -34.5t48.5 -12.5q57 0 104 62q-65 37 -100 37zM688 0q-107 0 -226 73q-60 -81 -141 -81q-45 0 -75 24.5t-30 63.5q0 41 32 66t79 25t121 -44q26 45 59.5 138t73.5 180t91 147q-2 0 -6 -0.5t-6 -0.5q-53 0 -140.5 33
t-118.5 33q-40 0 -59 -25.5t-25 -70.5t-12 -95t-30 -109.5t-68 -103.5q-51 -51 -120 -51q-41 0 -65 24t-24 62q0 8 6 14t14 6t14 -6t6 -14q0 -46 49 -46q52 0 91 39q42 42 63.5 102.5t27 112.5t14 99t36.5 74.5t82 27.5q41 0 125 -32.5t129 -32.5q48 0 89 26q4 3 10 3
q8 0 14 -6t6 -14q0 -11 -8 -17q-57 -40 -102.5 -111.5t-70.5 -137t-56 -146.5t-54 -122q112 -67 205 -67q49 0 110.5 79.5t109.5 176.5q6 11 18 11q8 0 13.5 -6.5t5.5 -14.5q0 -7 -9 -24q-137 -262 -248 -262zM543 719q-9 0 -15 6t-6 14t6 14q17 18 29.5 36t17.5 27l5 9
q4 12 19 12q7 0 13 -5.5t6 -13.5q0 -2 -2 -8q0 -2 -5 -12t-19.5 -30.5t-34.5 -41.5q-6 -7 -14 -7z" />
    <glyph glyph-name="zacute" unicode="&#x17a;" horiz-adv-x="475" 
d="M265 39q83 1 210 257q6 11 18 11q8 0 13.5 -6.5t5.5 -14.5q0 -7 -9 -24q-21 -39 -33 -61.5t-40 -66t-50.5 -68.5t-54 -46t-60.5 -21q-48 0 -118 33q-30 -35 -70 -35q-30 0 -48 15.5t-18 37.5t18.5 37.5t41.5 15.5q21 0 63 -21q14 25 43 94.5t54 104.5q-2 -1 -7 -1
q-38 0 -90 28q-32 17 -50 17q-34 0 -45 -32q-3 -16 -19 -16q-8 0 -14 6t-6 14q0 28 26 48.5t57 20.5q24 0 69.5 -22.5t71.5 -22.5q14 0 37 8t34 8q8 0 14 -5.5t6 -13.5q0 -14 -12 -19q-33 -25 -55 -63.5t-43 -92t-35 -78.5q54 -26 95 -26zM78 37q16 0 31 13q-26 12 -39 12
q-20 -3 -20 -12q3 -13 28 -13zM159 395q-9 0 -15 6t-6 14t6 14q17 18 29.5 36t17.5 27l5 9q4 12 19 12q7 0 13 -5.5t6 -13.5q0 -2 -2 -8q0 -2 -5 -12t-19.5 -30.5t-34.5 -41.5q-6 -7 -14 -7z" />
    <glyph glyph-name="Zdotaccent" unicode="&#x17b;" horiz-adv-x="908" 
d="M327 131q-30 0 -50.5 -14.5t-20.5 -37.5q0 -22 18.5 -34.5t48.5 -12.5q57 0 104 62q-65 37 -100 37zM688 0q-107 0 -226 73q-60 -81 -141 -81q-45 0 -75 24.5t-30 63.5q0 41 32 66t79 25t121 -44q26 45 59.5 138t73.5 180t91 147q-2 0 -6 -0.5t-6 -0.5q-53 0 -140.5 33
t-118.5 33q-40 0 -59 -25.5t-25 -70.5t-12 -95t-30 -109.5t-68 -103.5q-51 -51 -120 -51q-41 0 -65 24t-24 62q0 8 6 14t14 6t14 -6t6 -14q0 -46 49 -46q52 0 91 39q42 42 63.5 102.5t27 112.5t14 99t36.5 74.5t82 27.5q41 0 125 -32.5t129 -32.5q48 0 89 26q4 3 10 3
q8 0 14 -6t6 -14q0 -11 -8 -17q-57 -40 -102.5 -111.5t-70.5 -137t-56 -146.5t-54 -122q112 -67 205 -67q49 0 110.5 79.5t109.5 176.5q6 11 18 11q8 0 13.5 -6.5t5.5 -14.5q0 -7 -9 -24q-137 -262 -248 -262zM538 743q2 6 2 8l-2 5q-2 6 -2 10q0 8 6 14t14 6q13 0 18.5 -12
t5.5 -23q0 -32 -22 -32h-4q-16 3 -16 24z" />
    <glyph glyph-name="zdotaccent" unicode="&#x17c;" horiz-adv-x="475" 
d="M265 39q83 1 210 257q6 11 18 11q8 0 13.5 -6.5t5.5 -14.5q0 -7 -9 -24q-21 -39 -33 -61.5t-40 -66t-50.5 -68.5t-54 -46t-60.5 -21q-48 0 -118 33q-30 -35 -70 -35q-30 0 -48 15.5t-18 37.5t18.5 37.5t41.5 15.5q21 0 63 -21q14 25 43 94.5t54 104.5q-2 -1 -7 -1
q-38 0 -90 28q-32 17 -50 17q-34 0 -45 -32q-3 -16 -19 -16q-8 0 -14 6t-6 14q0 28 26 48.5t57 20.5q24 0 69.5 -22.5t71.5 -22.5q14 0 37 8t34 8q8 0 14 -5.5t6 -13.5q0 -14 -12 -19q-33 -25 -55 -63.5t-43 -92t-35 -78.5q54 -26 95 -26zM78 37q16 0 31 13q-26 12 -39 12
q-20 -3 -20 -12q3 -13 28 -13zM154 419q2 6 2 8q0 1 -2 6t-2 9q0 8 6 14t14 6q13 0 18.5 -12t5.5 -23q0 -32 -22 -32h-4q-16 3 -16 24z" />
    <glyph glyph-name="Zcaron" unicode="&#x17d;" horiz-adv-x="908" 
d="M327 131q-30 0 -50.5 -14.5t-20.5 -37.5q0 -22 18.5 -34.5t48.5 -12.5q57 0 104 62q-65 37 -100 37zM688 0q-107 0 -226 73q-60 -81 -141 -81q-45 0 -75 24.5t-30 63.5q0 41 32 66t79 25t121 -44q26 45 59.5 138t73.5 180t91 147q-2 0 -6 -0.5t-6 -0.5q-53 0 -140.5 33
t-118.5 33q-40 0 -59 -25.5t-25 -70.5t-12 -95t-30 -109.5t-68 -103.5q-51 -51 -120 -51q-41 0 -65 24t-24 62q0 8 6 14t14 6t14 -6t6 -14q0 -46 49 -46q52 0 91 39q42 42 63.5 102.5t27 112.5t14 99t36.5 74.5t82 27.5q41 0 125 -32.5t129 -32.5q48 0 89 26q4 3 10 3
q8 0 14 -6t6 -14q0 -11 -8 -17q-57 -40 -102.5 -111.5t-70.5 -137t-56 -146.5t-54 -122q112 -67 205 -67q49 0 110.5 79.5t109.5 176.5q6 11 18 11q8 0 13.5 -6.5t5.5 -14.5q0 -7 -9 -24q-137 -262 -248 -262zM607 814q20 0 20 -25l-5 -7q-4 -7 -11.5 -17t-16 -20.5
t-19 -17.5t-18.5 -7q-19 0 -46 35q-23 30 -23 36q0 23 20 23q7 0 17 -11t20 -25t12 -16q7 5 18 20q5 7 9 13l6 9t3.5 5.5t3.5 3l4 1t6 0.5z" />
    <glyph glyph-name="zcaron" unicode="&#x17e;" horiz-adv-x="475" 
d="M265 39q83 1 210 257q6 11 18 11q8 0 13.5 -6.5t5.5 -14.5q0 -7 -9 -24q-21 -39 -33 -61.5t-40 -66t-50.5 -68.5t-54 -46t-60.5 -21q-48 0 -118 33q-30 -35 -70 -35q-30 0 -48 15.5t-18 37.5t18.5 37.5t41.5 15.5q21 0 63 -21q14 25 43 94.5t54 104.5q-2 -1 -7 -1
q-38 0 -90 28q-32 17 -50 17q-34 0 -45 -32q-3 -16 -19 -16q-8 0 -14 6t-6 14q0 28 26 48.5t57 20.5q24 0 69.5 -22.5t71.5 -22.5q14 0 37 8t34 8q8 0 14 -5.5t6 -13.5q0 -14 -12 -19q-33 -25 -55 -63.5t-43 -92t-35 -78.5q54 -26 95 -26zM78 37q16 0 31 13q-26 12 -39 12
q-20 -3 -20 -12q3 -13 28 -13zM223 490q20 0 20 -25l-5 -7q-4 -7 -11.5 -17t-16 -20.5t-19 -17.5t-18.5 -7q-19 0 -46 35q-23 30 -23 36q0 23 20 23q7 0 17 -11t20 -25t12 -16q7 5 18 20q5 7 9 13l6 9t3.5 5.5t3.5 3l4 1t6 0.5z" />
    <glyph glyph-name="circumflex" unicode="&#x2c6;" horiz-adv-x="153" 
d="M126 537q-8 0 -14.5 8t-15.5 22t-20 22q-2 -2 -12 -16t-20 -25t-17 -11q-20 0 -20 24q0 7 23 35q29 35 44 35q14 0 32 -17.5t29 -34t11 -18.5q0 -24 -20 -24z" />
    <glyph glyph-name="caron" unicode="&#x2c7;" horiz-adv-x="153" 
d="M126 615q20 0 20 -25l-4 -7q-5 -7 -12.5 -17t-16 -20.5t-19 -17.5t-18.5 -7q-19 0 -46 35q-23 30 -23 36q0 23 20 23q7 0 17 -11t20 -25t12 -16q7 5 18 20q5 7 9 13l6 9t3.5 5.5t3.5 3l4 1t6 0.5z" />
    <glyph glyph-name="breve" unicode="&#x2d8;" horiz-adv-x="191" 
d="M95 559q-30 0 -49.5 19t-19.5 49q0 8 6 14t14 6t14 -6t6 -14q0 -15 9 -22.5t20 -7.5q12 0 21 7.5t9 22.5q0 8 6 14t14 6t14 -6t6 -14q0 -30 -20 -49t-50 -19z" />
    <glyph glyph-name="dotaccent" unicode="&#x2d9;" horiz-adv-x="82" 
d="M22 587q2 6 2 8q0 1 -2 6t-2 9q0 8 6 14t14 6q13 0 18.5 -12t5.5 -23q0 -32 -22 -32h-4q-16 3 -16 24z" />
    <glyph glyph-name="ring" unicode="&#x2da;" horiz-adv-x="182" 
d="M89 527q-25 0 -39.5 17.5t-14.5 45.5q0 32 16.5 56t41.5 24t38.5 -21t13.5 -49q0 -32 -15.5 -52.5t-40.5 -20.5zM93 630q-6 0 -12.5 -12t-6.5 -26q0 -25 15 -25q16 0 16 34q0 10 -2.5 17.5t-5 9.5t-3.5 2h-1z" />
    <glyph glyph-name="ogonek" unicode="&#x2db;" horiz-adv-x="148" 
d="M62 -150q-20 0 -32.5 11.5t-12.5 29.5q0 21 17 50.5t43 51.5q5 5 13 5q9 0 14.5 -6t5.5 -14t-7 -15q-21 -19 -33.5 -40t-12.5 -31q0 -2 4 -2q14 0 41 16q3 2 10 2q8 0 14 -6t6 -14q0 -18 -28.5 -28t-41.5 -10z" />
    <glyph glyph-name="tilde" unicode="&#x2dc;" horiz-adv-x="181" 
d="M124 568q-11 0 -21.5 6t-16.5 12l-22 22q-20 -39 -34 -39q-8 0 -14 6.5t-6 14.5q0 3 2 7q22 51 51 51q18 0 38.5 -20t22.5 -20q7 35 27 35q9 0 14.5 -5.5t5.5 -13.5q0 -21 -10.5 -35t-20 -17.5t-16.5 -3.5z" />
    <glyph glyph-name="hungarumlaut" unicode="&#x2dd;" horiz-adv-x="214" 
d="M26 522q-9 0 -15 6t-6 14t6 14q17 18 29.5 36t17.5 27l5 9q5 12 19 12q8 0 13.5 -6t5.5 -13q0 -2 -2 -8q0 -2 -5 -12t-19.5 -30.5t-34.5 -41.5q-6 -7 -14 -7zM133 522q-9 0 -15 6t-6 14t6 14q17 18 29.5 36t17.5 27l5 9q4 12 19 12q7 0 13 -6t6 -13q0 -2 -2 -8
q0 -2 -5 -12t-19.5 -30.5t-34.5 -41.5q-6 -7 -14 -7z" />
    <glyph glyph-name="Euro" unicode="&#x20ac;" horiz-adv-x="492" 
d="M471 180q16 -13 3 -28q-60 -75 -117 -116q-53 -37 -99 -37q-19 0 -33 5q-85 31 -104 226q-32 0 -70 -2h-1q-8 0 -13.5 6t-6.5 14q0 8 6 14t14 6l68 2q-3 42 -3 92q-56 2 -90 12q-20 7 -13 26q6 19 25 12q28 -8 79 -10v12q3 125 39 197q34 71 93 82q53 9 103 -35
q48 -44 77 -122q7 -19 -11 -26q-19 -7 -26 12q-25 65 -62.5 101.5t-73.5 30.5q-39 -8 -64 -60q-32 -65 -35 -181v-11q33 1 69 4t56.5 5t21.5 3q8 1 14.5 -4t7.5 -13t-4 -14.5t-13 -8.5q-46 -9 -153 -12q0 -50 3 -92h39.5t38.5 -0.5t35.5 -0.5h31.5t24.5 -0.5t16.5 -0.5h6
q8 0 14 -6t6 -14t-6 -14t-14 -6h-1q-2 2 -188 2q6 -55 17 -96q21 -78 61 -92q36 -14 95 27q53 38 109 108q13 15 28 3z" />
    <glyph glyph-name="a.ss01" unicode="&#xe000;" horiz-adv-x="544" 
d="M271 40q64 0 119.5 74.5t83 163.5t27.5 154q0 49 -19.5 87t-61.5 38q-43 0 -91.5 -44t-84.5 -127q-4 -12 -20 -12q-8 0 -13.5 6.5t-5.5 13.5q2 36 2 47q0 77 -30.5 137t-95.5 60q-52 0 -81 -51.5t-29 -107.5q0 -64 32 -128q2 -6 2 -9q0 -8 -5.5 -14t-13.5 -6
q-12 0 -18 11q-38 71 -38 142q0 78 42.5 141t113.5 63q73 0 113 -62t47 -141q82 120 173 120q62 -3 92.5 -52t30.5 -112q0 -57 -20 -130t-53.5 -141t-86.5 -114.5t-110 -46.5q-36 0 -62.5 25.5t-38.5 65.5q-13 -37 -37 -64t-59 -27q-53 0 -80 46t-27 114q0 80 34.5 141.5
t92.5 61.5q37 0 63 -31.5t26 -70.5q0 -20 -19 -20q-17 0 -20 16q-15 66 -54 66q-34 0 -58.5 -54.5t-24.5 -117.5q0 -48 17 -79.5t50 -31.5q60 0 78 157q2 18 20 18t20 -18q1 -21 4.5 -43.5t11.5 -50.5t24 -45.5t38 -17.5z" />
    <glyph glyph-name="b.ss01" unicode="&#xe001;" horiz-adv-x="538" 
d="M22 628q0 4 2 16q-67 -39 -67 -145q0 -64 32 -128q2 -6 2 -9q0 -8 -5.5 -14t-13.5 -6q-12 0 -18 11q-38 71 -38 142q0 96 47.5 149.5t117.5 53.5q59 0 102 -39.5t59 -112.5q82 120 173 120q62 -3 92.5 -52t30.5 -112q0 -46 -15.5 -85t-36.5 -65t-56.5 -47t-60.5 -32
t-65 -20.5t-54 -11.5l-42 -6q-20 -84 -60 -165q-34 -72 -71 -72q-61 0 -73 174q-3 45 -3 100q0 152 21 356zM190 274q28 3 44.5 5.5t52.5 10.5t60 17.5t55 27t49.5 39.5t32 55t13.5 73q0 49 -19.5 87t-61.5 38q-43 0 -91.5 -44t-84.5 -127q-4 -12 -20 -12q-8 0 -13.5 6.5
t-5.5 13.5q2 36 2 47q0 59 -27.5 98.5t-72.5 47.5q11 -34 11 -82q0 -131 -72 -297q0 -59 2 -97q7 -124 32 -143q23 8 53.5 85.5t42.5 134.5q3 14 18 16zM65 644q-16 -137 -21 -249q29 89 29 172q0 48 -8 77z" />
    <glyph glyph-name="c.ss01" unicode="&#xe002;" horiz-adv-x="534" 
d="M116 40q65 0 156 72.5t155.5 166.5t64.5 153q0 49 -19.5 87t-61.5 38q-43 0 -91.5 -44t-84.5 -127q-5 -12 -20 -12q-8 0 -13.5 6.5t-5.5 13.5q2 36 2 47q0 77 -30.5 137t-95.5 60q-52 0 -81 -51.5t-29 -107.5q0 -64 32 -128q2 -6 2 -9q0 -8 -5.5 -14t-13.5 -6
q-12 0 -18 11q-38 71 -38 142q0 78 42.5 141t113.5 63q73 0 113 -62t47 -141q82 120 173 120q62 -3 92.5 -52t30.5 -112q0 -72 -69.5 -175t-170 -180t-177.5 -77q-44 0 -72 37t-38 88.5t-10 116.5q0 121 56 121q19 0 34 -21t16 -62q0 -8 -6 -14t-14 -6t-14 6t-6 14
q-1 32 -11 42q-15 -21 -15 -99q0 -71 20 -127t60 -56z" />
    <glyph glyph-name="d.ss01" unicode="&#xe003;" horiz-adv-x="581" 
d="M95 679q38 0 73 -19q13 37 34 37q29 0 41 -40.5t13 -87.5q24 -46 29 -89v-4l7 10q79 110 166 110q62 -3 92.5 -52t30.5 -112q0 -76 -45 -176.5t-121.5 -178t-152.5 -77.5q-62 0 -91 92q-9 -33 -36 -63t-61 -30q-53 0 -80 46t-27 114q0 80 34.5 141.5t92.5 61.5
q27 0 51 -19v6q0 192 13 268q-32 21 -68 21q-52 0 -81 -51.5t-29 -107.5q0 -64 32 -128q2 -6 2 -9q0 -8 -5.5 -14t-13.5 -6q-12 0 -18 11q-38 71 -38 142q0 78 42.5 141t113.5 63zM246 441q0 10 -1 16q-10 -50 -27 -100q-18 -46 -32 -68q0 -46 6.5 -99.5t25 -101.5t44.5 -48
q64 0 131.5 73.5t107 165t39.5 153.5q0 49 -19.5 87t-61.5 38q-43 0 -91.5 -44t-84.5 -127q-3 -9 -14 -11q-1 0 -3 -0.5t-3 -0.5q-8 0 -13.5 6.5t-5.5 13.5q2 36 2 47zM74 39q37 0 57.5 54t20.5 101q0 128 -62 128q-34 0 -58.5 -54.5t-24.5 -117.5q0 -48 17 -79.5t50 -31.5z
M203 647q-17 -100 -17 -261q30 87 30 159t-13 102z" />
    <glyph glyph-name="e.ss01" unicode="&#xe004;" 
d="M36 223q0 -33 2 -50q24 66 24 106q-1 33 -11 43q-15 -21 -15 -99zM116 0q-44 0 -72 37t-38 88.5t-10 116.5q0 121 56 121q19 0 34.5 -22t16.5 -63q0 -71 -50 -175q22 -63 63 -63q65 0 156 72.5t155.5 166.5t64.5 153q0 49 -19.5 87t-61.5 38q-43 0 -91.5 -44t-84.5 -127
q-5 -12 -20 -12q-8 0 -13.5 6.5t-5.5 13.5q2 36 2 47q0 77 -30.5 137t-95.5 60q-52 0 -81 -51.5t-29 -107.5q0 -64 32 -128q2 -6 2 -9q0 -8 -5.5 -14t-13.5 -6q-12 0 -18 11q-38 71 -38 142q0 78 42.5 141t113.5 63q73 0 113 -62t47 -141q82 120 173 120q62 -3 92.5 -52
t30.5 -112q0 -72 -69.5 -175t-170 -180t-177.5 -77z" />
    <glyph glyph-name="f.ss01" unicode="&#xe005;" horiz-adv-x="515" 
d="M13 593q3 33 11 58q-38 -15 -59.5 -61.5t-21.5 -91.5q0 -64 32 -128q2 -6 2 -9q0 -8 -5.5 -14t-13.5 -6q-12 0 -18 11q-38 71 -38 142q0 78 42.5 141t113.5 63q73 0 113 -62t47 -141q82 120 173 120q62 -3 92.5 -52t30.5 -112q0 -50 -38.5 -108t-100.5 -112.5t-124 -101
t-127 -93t-90 -69.5q-1 -24 -7 -56t-17.5 -71t-32 -65.5t-46.5 -26.5q-21 0 -32 19t-11 43q0 87 108 177q4 64 4 227q0 259 13 379zM38 21q22 22 101.5 80t149 110t127 120t57.5 120q0 49 -19.5 87t-61.5 38q-43 0 -91.5 -44t-84.5 -127q-4 -12 -20 -12q-8 0 -13.5 6.5
t-5.5 13.5q2 36 2 47q0 54 -16.5 104.5t-51.5 74.5q8 -31 8 -75q0 -132 -79 -266v-67l124 19q8 0 13.5 -5t5.5 -12q0 -20 -16 -23l-127 -19q0 -119 -2 -170zM65 649q-6 -14 -10 -37.5t-6.5 -55.5t-3.5 -55t-2.5 -62t-1.5 -50q39 95 39 173q0 49 -15 87zM-68 -211
q22 10 37 54.5t21 83.5q-62 -62 -62 -118q0 -12 4 -20z" />
    <glyph glyph-name="g.ss01" unicode="&#xe006;" horiz-adv-x="524" 
d="M43 -213q33 0 61.5 49t32.5 95q-1 -1 -17.5 -15t-23.5 -20t-21.5 -21t-21.5 -25.5t-13.5 -24t-6.5 -25.5q0 -13 10 -13zM182 -33q-5 -68 -27 -119q-19 -45 -48.5 -73t-63.5 -28q-21 0 -34.5 13t-15.5 35q0 20 8 40.5t16 35t28.5 34.5t30 28t36 29t32.5 26q4 39 5 61
q-32 -49 -74 -49q-53 0 -80 46t-27 114q0 80 34.5 141.5t92.5 61.5q37 0 63 -31.5t26 -70.5q0 -20 -19 -20q-17 0 -20 16q-15 66 -54 66q-34 0 -58.5 -54.5t-24.5 -117.5q0 -48 17 -79.5t50 -31.5q60 0 78 157q2 18 20 18q20 0 20 -18q0 -98 -6 -176q5 5 49.5 46.5t67 64
t63 68t62 78.5t39.5 75.5t18 78.5q0 49 -19.5 87t-61.5 38q-43 0 -91.5 -44t-84.5 -127q-5 -12 -20 -12q-8 0 -13.5 6.5t-5.5 13.5q2 36 2 47q0 77 -30.5 137t-95.5 60q-52 0 -81 -51.5t-29 -107.5q0 -64 32 -128q2 -6 2 -9q0 -8 -5.5 -14t-13.5 -6q-12 0 -18 11
q-38 71 -38 142q0 78 42.5 141t113.5 63q73 0 113 -62t47 -141q82 120 173 120q62 -3 92.5 -52t30.5 -112q0 -37 -12 -75.5t-39 -79t-49.5 -71t-64.5 -72.5t-62.5 -61.5t-65.5 -59.5t-52 -46z" />
    <glyph glyph-name="h.ss01" unicode="&#xe007;" horiz-adv-x="516" 
d="M107 303q-25 -58 -40.5 -141.5t-18.5 -142.5q-2 -19 -20 -19q-19 0 -21 18q-7 74 -7 192v290q0 69 4 112q-23 -23 -36 -61t-13 -72q0 -64 32 -128q2 -6 2 -9q0 -8 -5.5 -14t-13.5 -6q-12 0 -18 11q-38 71 -38 142q0 61 27 115.5t74 76.5q11 30 33 30q17 0 28 -18
q70 -3 108.5 -64.5t45.5 -138.5q38 56 76 88t87 32q62 -3 92.5 -52t30.5 -112q0 -57 -20 -130t-54 -141t-87 -114.5t-110 -46.5q-16 0 -29.5 6.5t-24.5 20t-20.5 28.5t-17 37.5t-13 41t-11 45.5t-8.5 44t-7.5 43t-6.5 37zM191 441q0 68 -24.5 124.5t-75.5 69.5q8 -44 8 -95
q0 -126 -59 -250v-63q7 29 12.5 46t14.5 41.5t21 36.5t25 12q10 0 16.5 -5.5t10.5 -19.5t6.5 -25.5t6 -35.5t6.5 -38q17 -90 36.5 -144.5t49.5 -54.5q64 0 119.5 74.5t83 163.5t27.5 154q0 49 -19.5 87t-61.5 38t-86 -43.5t-80 -127.5q-4 -12 -20 -12q-8 0 -13.5 6.5
t-5.5 13.5q2 36 2 47zM59 543q0 56 -10 93q-5 -57 -7 -226q17 67 17 133z" />
    <glyph glyph-name="i.ss01" unicode="&#xe008;" 
d="M114 40q66 0 157 72.5t156 166.5t65 153q0 49 -19.5 87t-61.5 38q-43 0 -91.5 -44t-84.5 -127q-5 -12 -20 -12q-8 0 -13.5 6.5t-5.5 13.5q2 36 2 47q0 77 -30.5 137t-95.5 60q-52 0 -81 -51.5t-29 -107.5q0 -64 32 -128q2 -6 2 -9q0 -8 -5.5 -14t-13.5 -6q-12 0 -18 11
q-38 71 -38 142q0 78 42.5 141t113.5 63q73 0 113 -62t47 -141q82 120 173 120q62 -3 92.5 -52t30.5 -112q0 -72 -70 -175t-170.5 -180t-177.5 -77q-118 0 -118 236q0 35 1 53q2 19 21 19t19 -21q-1 -17 -1 -51q0 -25 2 -50t8.5 -62.5t24 -60.5t42.5 -23zM-5 467q0 4 1 7.5
t1 4.5t-2 5.5t-2 9.5q0 7 5.5 13.5t14.5 6.5q24 0 24 -35q0 -32 -22 -32q-20 0 -20 20z" />
    <glyph glyph-name="j.ss01" unicode="&#xe009;" 
d="M29 -33q-5 -68 -27 -119q-19 -45 -48.5 -73t-63.5 -28q-21 0 -34.5 13t-15.5 35q0 20 8 40.5t16 35t28.5 34.5t30 28t36 29t32.5 26q9 108 9 219q0 54 -1 83q0 8 6 13t15 5q8 0 13.5 -6t5.5 -14q0 -15 0.5 -40t0.5 -36q0 -83 -6 -193q21 20 79 58.5t119.5 79.5t122 87
t99.5 96t39 92q0 49 -19.5 87t-61.5 38q-43 0 -91.5 -44t-84.5 -127q-5 -12 -20 -12q-8 0 -13.5 6.5t-5.5 13.5q2 36 2 47q0 77 -30.5 137t-95.5 60q-52 0 -81 -51.5t-29 -107.5q0 -64 32 -128q2 -6 2 -9q0 -8 -5.5 -14t-13.5 -6q-12 0 -18 11q-38 71 -38 142q0 78 42.5 141
t113.5 63q73 0 113 -62t47 -141q82 120 173 120q62 -3 92.5 -52t30.5 -112q0 -50 -41 -106t-106.5 -107.5t-132 -96t-132.5 -88t-93 -67.5zM-110 -213q33 0 61.5 49t32.5 95q-1 -1 -17.5 -15t-23.5 -20t-21.5 -21t-21.5 -25.5t-13.5 -24t-6.5 -25.5q0 -13 10 -13zM-9 467
q0 4 1 7.5t1 4.5t-2 5.5t-2 9.5q0 7 5.5 13.5t14.5 6.5q24 0 24 -35q0 -32 -22 -32q-20 0 -20 20z" />
    <glyph glyph-name="k.ss01" unicode="&#xe00a;" horiz-adv-x="513" 
d="M48 697q17 0 28 -18q47 -3 81.5 -37.5t50 -76.5t19.5 -89q38 56 76 88t87 32q62 -3 92.5 -52t30.5 -112q0 -57 -30.5 -132.5t-77.5 -142.5t-112 -113t-126 -46q-67 0 -123 56l4 -35q-2 -19 -20 -19q-19 0 -21 18q-7 74 -7 192v290q0 82 4 115q-25 -23 -38.5 -62
t-13.5 -74q0 -64 32 -128q2 -6 2 -9q0 -8 -5.5 -14t-13.5 -6q-12 0 -18 11q-38 71 -38 142q0 61 28.5 116.5t76.5 76.5q11 29 32 29zM67 101q47 -61 106 -61q67 0 139.5 73t116 165t43.5 154q0 49 -19.5 87t-61.5 38t-86 -43.5t-80 -127.5q-5 -12 -20 -12q-8 0 -13.5 6.5
t-5.5 13.5q2 36 2 47q0 66 -23.5 122.5t-73.5 70.5q8 -38 8 -94q0 -91 -32 -183q37 0 58.5 -28.5t21.5 -65.5q0 -76 -80 -162zM55 148q52 63 52 114q0 20 -9.5 37.5t-29.5 17.5q-19 0 -19 -81q0 -50 6 -88zM59 543q0 55 -10 94q-5 -58 -7 -227q17 67 17 133z" />
    <glyph glyph-name="l.ss01" unicode="&#xe00b;" horiz-adv-x="447" 
d="M127 0q-127 0 -127 349q0 197 13 273q-27 16 -58 16q-52 0 -81 -51.5t-29 -107.5q0 -64 32 -128q2 -6 2 -9q0 -8 -5.5 -14t-13.5 -6q-12 0 -18 11q-38 71 -38 142q0 78 42.5 141t113.5 63q32 0 64 -15q13 33 33 33q46 0 53 -110q34 -54 40 -107v-4l7 10q79 110 166 110
q62 -3 92.5 -52t30.5 -112q0 -76 -45 -176.5t-121.5 -178t-152.5 -77.5zM111 441q0 20 -5 47q-9 -60 -33 -131q-18 -46 -32 -68q0 -33 4.5 -72t13.5 -80.5t26.5 -69t41.5 -27.5q64 0 131.5 73.5t107 165t39.5 153.5q0 49 -19.5 87t-61.5 38q-43 0 -91.5 -44t-84.5 -127
q-3 -9 -14 -11q-1 0 -3 -0.5t-3 -0.5q-8 0 -13.5 6.5t-5.5 13.5q2 36 2 47zM58 647q-17 -100 -17 -261q30 87 30 159t-13 102z" />
    <glyph glyph-name="o.ss01" unicode="&#xe00c;" horiz-adv-x="582" 
d="M222 70q-12 0 -30 2q-36 -72 -99 -72q-60 0 -92 53.5t-32 119.5q0 41 15 88t36 47q19 0 19 -21q0 -5 -3 -9q-25 -41 -25 -107q0 -50 19 -90.5t63 -40.5q39 0 63 42q-49 20 -78 67t-29 108q0 48 18.5 77t55.5 29q47 0 72 -47t25 -114q0 -46 -13 -91q4 -1 14 -1
q66 0 142.5 55.5t127 131.5t50.5 135q0 49 -19.5 87t-61.5 38q-43 0 -91.5 -44t-84.5 -127q-4 -12 -20 -12q-8 0 -13.5 6.5t-5.5 13.5q2 36 2 47q0 72 -39.5 134.5t-106.5 62.5q-52 0 -81 -51.5t-29 -107.5q0 -64 32 -128q2 -6 2 -9q0 -8 -5.5 -14t-13.5 -6q-12 0 -18 11
q-38 71 -38 142q0 78 42.5 141t113.5 63q75 0 124 -64.5t56 -138.5q82 120 173 120q62 -3 92.5 -52t30.5 -112q0 -73 -55.5 -158t-141 -144.5t-163.5 -59.5zM88 265q0 -47 23 -86.5t60 -57.5q11 44 11 89q0 48 -15.5 80.5t-43.5 32.5q-16 0 -25.5 -16t-9.5 -42z" />
    <glyph glyph-name="p.ss01" unicode="&#xe00d;" horiz-adv-x="560" 
d="M127 60q52 0 87.5 59t35.5 119q0 84 -69 95q-68 0 -125 -168l12 -86q19 -19 59 -19zM44 -203q3 32 3 64q0 38 -16 193q-11 -81 -11 -126q0 -100 24 -131zM560 432q0 -98 -55 -198.5t-144 -166t-180 -65.5q-65 0 -107 29q0 -1 7.5 -72.5t7.5 -114.5q0 -94 -40 -94
q-22 0 -37 20.5t-21.5 53.5t-8.5 57t-2 47q0 121 35 240q-16 114 -16 118v4q0 19 19 19q17 0 20 -17q2 -21 6 -45q57 126 136 126q50 0 80 -40t30 -93q0 -55 -23.5 -108.5t-67.5 -87.5q69 0 144 58.5t125.5 150t50.5 179.5q0 49 -19.5 87t-61.5 38q-43 0 -91.5 -44
t-84.5 -127q-4 -12 -20 -12q-8 0 -13.5 6.5t-5.5 13.5q2 36 2 47q0 77 -30.5 137t-95.5 60q-52 0 -81 -51.5t-29 -107.5q0 -64 32 -128q2 -6 2 -9q0 -8 -5.5 -14t-13.5 -6q-12 0 -18 11q-38 71 -38 142q0 78 42.5 141t113.5 63q73 0 113 -62t47 -141q82 120 173 120
q62 -3 92.5 -52t30.5 -112z" />
    <glyph glyph-name="q.ss01" unicode="&#xe00e;" horiz-adv-x="531" 
d="M208 -132q0 47 -40 107q0 -6 -1 -9q-15 -94 -15 -139q0 -37 20 -37q13 0 24.5 24.5t11.5 53.5zM187 22q61 -83 61 -150q0 -43 -22.5 -84t-60.5 -41q-28 0 -40.5 25.5t-12.5 61.5q0 33 4 64.5t13 77t11 58.5q-27 -34 -65 -34q-53 0 -80 46t-27 114q0 80 34.5 141.5
t92.5 61.5q37 0 63 -31.5t26 -70.5q0 -20 -19 -20q-17 0 -20 16q-15 66 -54 66q-34 0 -58.5 -54.5t-24.5 -117.5q0 -48 17 -79.5t50 -31.5q60 0 78 157q2 18 20 18q20 0 20 -18q0 -62 -12 -131q7 5 50.5 39t68 53.5t65.5 58.5t63.5 69.5t41 70t18.5 75.5q0 49 -19.5 87
t-61.5 38q-43 0 -91.5 -44t-84.5 -127q-5 -12 -20 -12q-8 0 -13.5 6.5t-5.5 13.5q2 36 2 47q0 77 -30.5 137t-95.5 60q-52 0 -81 -51.5t-29 -107.5q0 -64 32 -128q2 -6 2 -9q0 -8 -5.5 -14t-13.5 -6q-12 0 -18 11q-38 71 -38 142q0 78 42.5 141t113.5 63q73 0 113 -62
t47 -141q82 120 173 120q62 -3 92.5 -52t30.5 -112q0 -42 -20 -87.5t-45 -79.5t-70 -76.5t-72 -64t-76.5 -58.5t-58.5 -44z" />
    <glyph glyph-name="r.ss01" unicode="&#xe00f;" horiz-adv-x="587" 
d="M311 224q104 0 170 59t66 149q0 49 -19.5 87t-61.5 38q-43 0 -91.5 -44t-84.5 -127q-4 -12 -20 -12q-8 0 -13.5 6.5t-5.5 13.5q2 36 2 47q0 72 -39.5 134.5t-106.5 62.5q-52 0 -81 -51.5t-29 -107.5q0 -64 32 -128q2 -6 2 -9q0 -8 -5.5 -14t-13.5 -6q-12 0 -18 11
q-38 71 -38 142q0 78 42.5 141t113.5 63q75 0 124 -64.5t56 -138.5q82 120 173 120q62 -3 92.5 -52t30.5 -112q0 -110 -78 -179.5t-200 -69.5q-89 0 -179 133q-26 -60 -44.5 -151t-21.5 -146q-2 -17 -20 -19q-18 0 -20 19q0 7 -2 43.5t-9 105.5t-16 121q0 8 6 13.5t15 5.5
q15 0 19 -21q9 -50 13 -89q1 6 5.5 23.5t7.5 30t8.5 31t11 31t12.5 24.5t16 18.5t18 6.5q12 0 32 -21.5t38.5 -48t49 -48t61.5 -21.5z" />
    <glyph glyph-name="s.ss01" unicode="&#xe010;" horiz-adv-x="521" 
d="M177 206q8 4 44 19.5t56.5 25.5t55.5 28.5t57 35.5t45.5 39t34.5 47t11 51q0 125 -71 125q-43 0 -91.5 -44t-84.5 -127q-4 -12 -20 -12q-8 0 -13.5 6.5t-5.5 13.5q2 36 2 47q0 72 -39.5 134.5t-106.5 62.5q-52 0 -81 -51.5t-29 -107.5q0 -64 32 -128q2 -6 2 -9
q0 -8 -5.5 -14t-13.5 -6q-12 0 -18 11q-38 71 -38 142q0 78 42.5 141t113.5 63q75 0 124 -64.5t56 -138.5q82 120 173 120q42 -2 68.5 -28.5t35.5 -60.5t9 -75q0 -38 -20 -74t-46.5 -61.5t-68.5 -52t-69.5 -40t-66.5 -31.5t-44 -20q14 -20 14 -46q0 -58 -53.5 -93.5
t-117.5 -35.5q-35 0 -66.5 14.5t-31.5 46.5q0 74 178 132q-27 14 -45.5 25t-43 30t-38 42.5t-13.5 48.5q0 19 2.5 37.5t8.5 41t20.5 36t35.5 13.5t33 -18t12 -41q0 -52 -49 -113q19 -21 65.5 -49.5t58.5 -37.5zM30 337q0 -5 1 -7q31 44 31 77q0 18 -7 18q-13 0 -19 -32
t-6 -56zM50 38q45 0 88 22.5t43 65.5q0 18 -15 34q-29 -9 -61 -20.5t-72.5 -35.5t-40.5 -45t58 -21z" />
    <glyph glyph-name="t.ss01" unicode="&#xe011;" horiz-adv-x="444" 
d="M-67 477q-23 0 -23 20q0 17 17 20l77 21q3 50 9 84q-27 16 -58 16q-52 0 -81 -51.5t-29 -107.5q0 -64 32 -128q2 -6 2 -9q0 -8 -5.5 -14t-13.5 -6q-12 0 -18 11q-38 71 -38 142q0 78 42.5 141t113.5 63q32 0 64 -15q13 33 33 33q51 0 54 -130l9 3q8 -14 17 -37l-27 -8
q-2 -26 -4 -37q-6 22 -11 33l-25 -7q1 10 1 31v11l28 8l3 35q2 -3 8.5 -13t9.5 -16l62 17q20 0 20 -20q0 -17 -17 -20l-48 -14q10 -31 13 -53v-4l7 10q79 110 166 110q62 -3 92.5 -52t30.5 -112q0 -76 -45 -176.5t-121.5 -178t-152.5 -77.5q-127 0 -127 349q0 102 2 147z
M111 441q0 20 -5 47q-9 -60 -33 -131q-18 -46 -32 -68q0 -33 4.5 -72t13.5 -80.5t26.5 -69t41.5 -27.5q64 0 131.5 73.5t107 165t39.5 153.5q0 49 -19.5 87t-61.5 38q-43 0 -91.5 -44t-84.5 -127q-3 -9 -14 -11q-1 0 -3 -0.5t-3 -0.5q-8 0 -13.5 6.5t-5.5 13.5q2 36 2 47z
M41 386q24 71 29 128l-26 -7q-3 -44 -3 -121zM58 647q12 -31 13 -91l-25 -7q5 55 12 98zM111 557q0 -21 -1 -32l-15 -4v2l4 41l12 3v-10z" />
    <glyph glyph-name="v.ss01" unicode="&#xe012;" horiz-adv-x="604" 
d="M143 363q32 0 49 -36.5t17 -92.5q0 -55 -16 -113q24 -11 48 -11q66 0 142.5 55.5t127 131.5t50.5 135q0 49 -19.5 87t-61.5 38q-43 0 -91.5 -44t-84.5 -127q-4 -12 -20 -12q-8 0 -13.5 6.5t-5.5 13.5q2 36 2 47q0 72 -39.5 134.5t-106.5 62.5q-52 0 -81 -51.5t-29 -107.5
q0 -64 32 -128q2 -6 2 -9q0 -8 -5.5 -14t-13.5 -6q-12 0 -18 11q-38 71 -38 142q0 78 42.5 141t113.5 63q75 0 124 -64.5t56 -138.5q82 120 173 120q62 -3 92.5 -52t30.5 -112q0 -73 -55.5 -158t-141 -144.5t-163.5 -59.5q-33 0 -64 11q-34 -81 -89 -81q-19 0 -34.5 14
t-24.5 42t-15 53t-9.5 65t-4.5 60t-2 54q0 20 21 20q8 0 13.5 -6t5.5 -13q3 -82 15.5 -165.5t33.5 -83.5q31 0 57 59q-76 53 -76 158q0 48 18.5 77t55.5 29zM108 265q0 -76 51 -122q11 46 11 98q0 82 -27 82q-16 0 -25.5 -16t-9.5 -42z" />
    <glyph glyph-name="w.ss01" unicode="&#xe013;" horiz-adv-x="595" 
d="M260 0q-56 0 -76 118q-40 -118 -95 -118q-19 0 -34.5 14t-24.5 42t-15 53t-9.5 65t-4.5 60t-2 54q0 20 21 20q8 0 13.5 -6t5.5 -13q3 -82 15.5 -165.5t33.5 -83.5q17 0 36 39t28 70q18 65 18 139q0 20 21 20q7 0 13 -6t6 -13q3 -82 15.5 -165.5t33.5 -83.5q29 0 53 51
q-72 46 -72 166q0 48 18.5 77t55.5 29q32 0 49 -36.5t17 -92.5q0 -63 -18 -120h9q40 0 82.5 47t70.5 122t28 149q0 49 -19.5 87t-61.5 38q-43 0 -91.5 -44t-84.5 -127q-5 -12 -20 -12q-8 0 -13.5 6.5t-5.5 13.5q2 36 2 47q0 72 -39.5 134.5t-106.5 62.5q-52 0 -81 -51.5
t-29 -107.5q0 -64 32 -128q2 -6 2 -9q0 -8 -5.5 -14t-13.5 -6q-12 0 -18 11q-38 71 -38 142q0 78 42.5 141t113.5 63q75 0 124 -64.5t56 -138.5q82 120 173 120q62 -3 92.5 -52t30.5 -112q0 -138 -72 -247.5t-152 -109.5q-6 0 -22 2q-34 -77 -87 -77zM279 265q0 -96 47 -134
q15 52 15 110q0 82 -27 82q-16 0 -25.5 -16t-9.5 -42z" />
    <glyph glyph-name="y.ss01" unicode="&#xe014;" horiz-adv-x="550" 
d="M67 -213q33 0 61.5 49t32.5 95q-1 -1 -17.5 -15t-23.5 -20t-21.5 -21t-21.5 -25.5t-13.5 -24t-6.5 -25.5q0 -13 10 -13zM211 21q5 5 49.5 46.5t67 64t63 68t62 78.5t39.5 75.5t18 78.5q0 49 -19.5 87t-61.5 38q-43 0 -91.5 -44t-84.5 -127q-5 -12 -20 -12q-8 0 -13.5 6.5
t-5.5 13.5q2 36 2 47q0 77 -30.5 137t-95.5 60q-52 0 -81 -51.5t-29 -107.5q0 -64 32 -128q2 -6 2 -9q0 -8 -5.5 -14t-13.5 -6q-12 0 -18 11q-38 71 -38 142q0 78 42.5 141t113.5 63q73 0 113 -62t47 -141q82 120 173 120q62 -3 92.5 -52t30.5 -112q0 -37 -12 -75.5t-39 -79
t-49.5 -71t-64.5 -72.5t-62.5 -61.5t-65.5 -59.5t-52 -46q-5 -68 -27 -119q-19 -45 -48.5 -73t-63.5 -28q-21 0 -34.5 13t-15.5 35q0 20 8 40.5t16 35t28.5 34.5t30 28t36 29t32.5 26q3 35 7 119q-41 -107 -98 -107q-85 0 -85 188q0 51 6 101q2 19 21 19t19 -20
q-6 -42 -6 -95q0 -153 44 -153q30 0 57.5 73t42.5 213q0 7 6 12t15 5q8 0 13.5 -6t5.5 -14q0 -15 0.5 -40t0.5 -36q0 -116 -6 -226z" />
    <glyph glyph-name="z.ss01" unicode="&#xe015;" 
d="M265 -1q-48 0 -118 33q-30 -35 -70 -35q-30 0 -48 15.5t-18 37.5t18.5 37.5t41.5 15.5q21 0 63 -21q14 25 43 94.5t54 104.5q-2 -1 -7 -1q-38 0 -90 28q-32 17 -50 17q-34 0 -45 -32q-3 -16 -19 -16q-8 0 -14 6t-6 14q0 28 26 48.5t57 20.5q24 0 69.5 -22.5t71.5 -22.5
q14 0 37 8t34 8q8 0 14 -5.5t6 -13.5q0 -14 -12 -19q-33 -25 -55 -63.5t-43 -92t-35 -78.5q54 -26 95 -26q49 0 93.5 44t73 107.5t45.5 129t17 112.5q0 49 -19.5 87t-61.5 38q-43 0 -91.5 -44t-84.5 -127q-5 -12 -20 -12q-8 0 -13.5 6.5t-5.5 13.5q2 36 2 47q0 77 -30.5 137
t-95.5 60q-52 0 -81 -51.5t-29 -107.5q0 -64 32 -128q2 -6 2 -9q0 -8 -5.5 -14t-13.5 -6q-12 0 -18 11q-38 71 -38 142q0 78 42.5 141t113.5 63q73 0 113 -62t47 -141q82 120 173 120q62 -3 92.5 -52t30.5 -112q0 -57 -20 -130.5t-53.5 -141.5t-86.5 -114.5t-110 -46.5z
M78 37q16 0 31 13q-26 12 -39 12q-20 -3 -20 -12q3 -13 28 -13z" />
    <glyph glyph-name="swirlL1" unicode="&#xe016;" horiz-adv-x="1157" 
d="M1185 302q16 -11 6 -28q-16 -25 -38.5 -40t-54.5 -21t-51.5 -7t-58.5 -1q-50 0 -70 -2q7 -25 6 -52q-6 -75 -52 -97q-28 -12 -51 5q-30 22 -24 79q6 39 25 62q13 17 35 28q-8 9 -24 20q-39 24 -91 24.5t-111 -30.5q-51 -31 -137 -119q-42 -43 -66.5 -65t-65 -51.5
t-83 -43t-89.5 -13.5q-95 0 -146 68q-45 57 -45 141q0 74 34 128q41 61 103 61q61 0 86 -57q19 -43 8 -99q-9 -55 -40 -89q-36 -38 -80 -22q-19 7 -12 26q7 17 25 12q19 -8 37 12q23 25 31 68q8 45 -6 76q-13 33 -49 33q-41 0 -69 -43q-28 -44 -28 -106q0 -70 36 -117
q40 -52 115 -52q42 0 79 12t73.5 39t60 48.5t62.5 61.5l19 19t21 20.5t19.5 18t21.5 19.5t20 16.5t23 17t22 14.5q61 36 128 36q65 2 115 -30q29 -19 45 -41q27 4 89 4q71 0 101 7q48 10 68 44q11 16 28 6zM884 154q1 19 -5 40q-36 -15 -42 -61q-4 -34 8 -42q3 -3 10 0
q25 11 29 63z" />
    <glyph glyph-name="swirlR1" unicode="&#xe017;" horiz-adv-x="1192" 
d="M7 304q17 10 28 -6q20 -34 68 -44q30 -7 101 -7q62 0 89 -4q16 22 45 41q50 32 115 30q67 0 128 -36q11 -7 22 -14.5t23 -17t20 -16.5t21.5 -19.5t19.5 -18t21 -20.5l19 -19q39 -40 62.5 -61.5t60 -48.5t73.5 -39t79 -12q75 0 115 52q36 47 36 117q0 62 -28 106
q-28 43 -69 43q-36 0 -49 -33q-14 -31 -6 -76q8 -43 31 -68q18 -20 37 -12q18 5 25 -12q7 -19 -12 -26q-44 -16 -80 22q-31 34 -40 89q-11 56 8 99q25 57 86 57q62 0 103 -61q34 -54 34 -128q0 -84 -45 -141q-51 -68 -146 -68q-47 0 -89.5 13.5t-83 43t-65 51.5t-66.5 65
q-86 88 -137 119q-59 31 -111 30.5t-91 -24.5q-16 -11 -24 -20q22 -11 35 -28q19 -23 25 -62q6 -57 -24 -79q-23 -17 -51 -5q-46 22 -52 97q-1 27 6 52q-20 2 -70 2q-39 0 -58.5 1t-51.5 7t-54.5 21t-38.5 40q-10 17 6 28zM308 156q4 -52 29 -63q7 -3 10 0q12 8 8 42
q-6 46 -42 61q-6 -21 -5 -40z" />
    <glyph glyph-name="swirlL2" unicode="&#xe018;" horiz-adv-x="1019" 
d="M325 92q-82 0 -138 50q-73 -39 -168 -39q-8 0 -14 6t-6 14t6 14t14 6q79 0 140 29q-49 63 -49 145q0 36 13.5 59t36.5 23q24 0 49 -23q24 62 66 62q23 0 37.5 -22t14.5 -57q0 -53 -29 -108t-75 -87q40 -32 102 -32q68 0 136 18t128.5 44t124.5 52t148 44t175 18
q19 0 19 -20q0 -8 -5.5 -14t-13.5 -6q-91 0 -174 -18t-146 -44t-123 -52t-129 -44t-140 -18zM160 359q-11 -5 -11 -43q0 -66 45 -124q48 35 70.5 81t22.5 86q0 12 -2.5 21.5t-5 13.5t-4.5 4q-8 0 -15 -8t-11 -19t-7 -22t-4 -18l-2 -7q-2 -16 -19 -16q-11 0 -26 25.5
t-31 25.5z" />
    <glyph glyph-name="swirlR2" unicode="&#xe019;" horiz-adv-x="1058" 
d="M730 92q-85 0 -174 27.5t-155.5 60t-169.5 60t-213 27.5q-8 0 -13.5 6t-5.5 14q0 20 19 20q91 0 175 -18t148 -43.5t124.5 -51.5t128.5 -44t136 -18q62 0 102 32q-46 32 -75 87t-29 108q0 35 14.5 57t37.5 22q42 0 66 -62q25 23 49 23q23 0 36.5 -23t13.5 -59
q0 -82 -49 -145q61 -29 140 -29q8 0 14 -6t6 -14t-6 -14t-14 -6q-95 0 -168 39q-56 -50 -138 -50zM895 359q-16 0 -31 -25.5t-26 -25.5q-17 0 -19 16l-1 7q-2 7 -5 18t-7 22t-11 19t-15 8q-2 0 -4.5 -4t-5 -13.5t-2.5 -21.5q0 -40 22.5 -86t70.5 -81q45 58 45 124
q0 38 -11 43z" />
    <glyph glyph-name="swirlL3" unicode="&#xe01a;" horiz-adv-x="1496" 
d="M21 -71q-8 0 -14 6t-6 14t6 14t14 6q171 0 307 85q-6 28 -6 60q0 93 46 168q54 85 133 85q28 0 43 -19q13 -16 13 -45q0 -48 -35 -109q-38 -66 -102 -122q-22 -19 -44 -35q3 -9 13 -25q30 -41 87 -41q144 0 266 130q-14 43 -10 98q6 67 38 116q35 55 80 52q24 -1 36 -21
q10 -15 9 -39q-1 -42 -30 -101t-76 -112v-1q32 -56 108 -56q110 0 184 107q-11 31 -11 71q0 51 17 91q21 49 56 49q5 0 10 -1.5t12 -6.5t11.5 -17t4.5 -30q0 -38 -18 -86q-14 -40 -36 -74q2 -4 4 -6q22 -34 68 -34q99 0 191 77q82 66 106 119q3 7 11 10t15 0q18 -9 9 -26
q-13 -29 -33.5 -55t-35.5 -39.5t-46 -39.5q-106 -86 -217 -86q-61 0 -97 45q-34 -44 -80 -72q-59 -36 -125 -36q-93 0 -136 66q-58 -56 -117 -88q-83 -44 -168 -44q-78 0 -119 58q-8 11 -15 26q-41 -24 -90 -44q-110 -42 -231 -42zM501 327q-57 0 -99 -66q-40 -66 -40 -147
q0 -24 2 -35l30 23q57 50 90 107t33 94q0 24 -16 24zM846 327q-21 0 -43 -34q-19 -29 -27.5 -72.5t-1.5 -82.5q33 43 52 81q29 55 29 89q1 14 -2 17q-2 2 -5 2h-2zM1140 314q-8 -6 -16 -24q-14 -33 -14 -75q0 -15 1 -22q22 44 28 82q5 27 1 39z" />
    <glyph glyph-name="swirlR3" unicode="&#xe01b;" horiz-adv-x="1543" 
d="M1511 -71q-121 0 -231 42q-49 20 -90 44q-7 -15 -15 -26q-41 -58 -119 -58q-85 0 -168 44q-59 32 -117 88q-43 -66 -136 -66q-67 0 -125 36q-46 28 -80 72q-36 -45 -97 -45q-111 0 -217 86q-31 26 -46 39.5t-35.5 39.5t-33.5 55q-9 17 9 26q7 3 15 0t11 -10
q24 -53 106 -119q92 -77 191 -77q46 0 68 34q2 2 4 6q-22 34 -36 74q-18 48 -18 86q0 18 4.5 30t11.5 17t12 6.5t10 1.5q35 0 56 -49q17 -40 17 -91q0 -40 -11 -71q74 -107 184 -107q76 0 108 56v1q-47 53 -76 112t-30 101q-1 24 9 39q12 20 36 21q45 3 80 -52
q32 -49 38 -116q4 -55 -10 -98q122 -130 266 -130q57 0 87 41q10 16 13 25q-22 16 -44 35q-64 56 -102 122q-35 61 -35 109q0 29 13 45q15 19 43 19q79 0 133 -85q46 -75 46 -168q0 -32 -6 -60q136 -85 307 -85q8 0 14 -6t6 -14t-6 -14t-14 -6zM1031 327q-16 0 -16 -24
q0 -37 33 -94t90 -107l30 -23q2 11 2 35q0 81 -40 147q-42 66 -99 66zM686 327h-2q-3 0 -5 -2q-3 -3 -2 -17q0 -34 29 -89q19 -38 52 -81q7 39 -1.5 82.5t-27.5 72.5q-22 34 -43 34zM392 314q-4 -12 1 -39q6 -38 28 -82q1 7 1 22q0 42 -14 75q-8 18 -16 24z" />
    <glyph glyph-name="swirlL4" unicode="&#xe01c;" horiz-adv-x="1021" 
d="M21 15q-16 0 -19 15q-2 8 2 15t12 9q93 27 163 81q-10 35 -10 80q0 79 30 144q34 75 86 75q29 0 48 -19q16 -16 21 -46q5 -40 -14 -91t-57 -98q-27 -33 -57 -59q3 -7 11 -19q30 -47 89 -47q39 0 84 15.5t73.5 31t85.5 50.5q128 76 198 104q133 52 273 52q18 0 18 -20
t-18 -20q-73 0 -137 -12t-125.5 -39t-94 -45t-94.5 -55q-95 -56 -128 -70q-70 -32 -135 -32q-80 0 -123 65l-9 16l-15 -11q-69 -45 -153 -69q-1 -1 -5 -1zM285 394q-27 0 -51.5 -55t-24.5 -124q0 -24 5 -51q16 15 38 41q37 46 51.5 88.5t10.5 69.5q-4 31 -29 31z" />
    <glyph glyph-name="swirlR4" unicode="&#xe01d;" horiz-adv-x="1058" 
d="M1036 15q-4 0 -5 1q-84 24 -153 69l-15 11l-9 -16q-43 -65 -123 -65q-65 0 -135 32q-33 14 -128 70q-62 37 -94.5 55t-94 45t-125.5 39t-137 12q-18 0 -18 20t18 20q140 0 273 -52q70 -28 198 -104q57 -35 85.5 -50.5t73.5 -31t84 -15.5q59 0 89 47q8 12 11 19
q-30 26 -57 59q-38 47 -57 98t-14 91q5 30 21 46q19 19 48 19q52 0 86 -75q30 -65 30 -144q0 -45 -10 -80q70 -54 163 -81q8 -2 12 -9t2 -15q-3 -15 -19 -15zM772 394q-25 0 -29 -31q-4 -27 10.5 -69.5t51.5 -88.5q22 -26 38 -41q5 27 5 51q0 69 -24.5 124t-51.5 55z" />
    <glyph glyph-name="i_t_t" unicode="&#xe01f;" horiz-adv-x="978" 
d="M115 40q83 0 209 254v55q0 83 1 120q-153 -60 -223 -60q-53 0 -87 27q-26 20 -26 55q0 8 6 14t14 6q14 0 20 -19.5t11 -23.5q25 -17 59 -17q62 0 227 62q8 184 55 184q17 0 29 -16t16.5 -41t6.5 -44.5t2 -38.5v-5l6 2q156 38 220 50q13 93 47 93q37 0 49 -77q40 5 65 5
q115 0 115 -74q0 -8 -6 -14t-14 -6q-14 0 -17.5 8.5t-4 18.5t-17.5 18.5t-54 8.5q-23 0 -63 -5q1 -9 1 -23q0 -73 -23 -152t-47 -116q0 -46 6.5 -99.5t25 -101.5t44.5 -48q83 0 210 256q6 11 18 11q8 0 13.5 -6.5t5.5 -14.5q0 -7 -9 -24q-21 -39 -33 -61.5t-40 -66
t-50.5 -68.5t-54 -45.5t-60.5 -20.5q-94 0 -113 217q-117 -217 -214 -217q-94 0 -113 215q-116 -215 -213 -215q-118 0 -118 236q0 35 1 53q2 19 21 19t19 -21q-1 -17 -1 -51q0 -25 2 -50t9 -62.5t24 -60.5t43 -23zM441 40q83 0 210 256v53q0 142 6 213q-86 -17 -207 -47
l-18 -5q-6 -64 -26.5 -127.5t-40.5 -93.5q0 -46 6.5 -99.5t25 -101.5t44.5 -48zM721 574l-22 -4q-7 -76 -7 -184q30 87 30 159q0 20 -1 29zM382 647q-8 -46 -13 -117l26 9v6q0 72 -13 102zM392 496q-15 -5 -25 -10q-2 -36 -2 -100q20 61 27 110zM709 647q-4 -21 -5 -35
q10 2 14 2q-4 21 -9 33z" />
    <glyph glyph-name="t_t_i" unicode="&#xe020;" horiz-adv-x="978" 
d="M768 40q83 0 210 256q6 11 18 11q8 0 13.5 -6.5t5.5 -14.5q0 -7 -9 -24q-21 -39 -33 -61.5t-40 -66t-50.5 -68.5t-54 -45.5t-60.5 -20.5q-108 0 -118 204q-111 -204 -207 -204q-94 0 -113 217q-117 -217 -214 -217q-117 0 -117 349q0 61 2 155q-57 3 -105 16
q-52 13 -77 48q-20 26 -11 60q2 8 9 12t15 2q14 -3 14.5 -23.5t4.5 -25.5q19 -22 53 -32q47 -13 99 -16q12 152 53 152q17 0 29 -16t16.5 -41t6.5 -44.5t2 -38.5v-12q43 2 123 11.5t99 11.5q12 129 51 129q49 0 54 -123q80 2 139 -13q111 -29 92 -101q-1 -8 -8.5 -12
t-15.5 -2q-13 3 -15 12.5t0.5 19t-11.5 22t-50 21.5q-60 15 -132 13q-3 -69 -25 -140t-44 -105q0 -46 6.5 -99.5t25 -101.5t44.5 -48q83 0 209 254q4 14 20 14q19 0 19 -21q-1 -17 -1 -51q0 -25 2 -50t9 -62.5t24 -60.5t43 -23zM116 40q83 0 210 256v53q0 126 3 179
q-19 -2 -99 -11t-123 -12q-7 -63 -27.5 -124.5t-39.5 -91.5q0 -46 6.5 -99.5t25 -101.5t44.5 -48zM397 533q-5 0 -13.5 -0.5t-12.5 -0.5q-4 -71 -4 -146q27 82 30 147zM68 503h-26q-2 -43 -2 -117q21 61 28 117zM57 647q-9 -48 -12 -103h25v1q0 72 -13 102zM384 647
q-4 -24 -10 -76l22 2q-3 51 -12 74z" />
    <glyph glyph-name="i_t_t_i" unicode="&#xe021;" horiz-adv-x="1303" 
d="M115 40q83 0 209 254v55v56q-154 -35 -236 -13q-52 13 -77 48q-20 26 -11 60q2 8 9 12t15 2q14 -3 14.5 -23.5t4.5 -25.5q19 -22 53 -32q82 -22 228 11q5 253 57 253q17 0 29 -16t16.5 -41t6.5 -44.5t2 -38.5q0 -41 -8 -86q22 6 103.5 30.5t124.5 36.5q10 159 53 159
q51 0 54 -136q86 13 139 0q111 -29 92 -101q-1 -8 -8.5 -12t-15.5 -2q-13 3 -15 12.5t0.5 19t-11.5 22t-50 21.5q-52 12 -133 1q-5 -67 -26 -134t-42 -99q0 -46 6.5 -99.5t25 -101.5t44.5 -48q83 0 209 254q3 14 20 14q19 0 19 -21q-1 -17 -1 -51q0 -25 2 -50t9 -62.5
t24 -60.5t43 -23q83 0 210 256q6 11 18 11q8 0 13.5 -6.5t5.5 -14.5q0 -7 -9 -24q-21 -39 -33 -61.5t-40 -66t-50.5 -68.5t-54 -45.5t-60.5 -20.5q-108 0 -118 204q-111 -204 -207 -204q-94 0 -113 217q-117 -217 -214 -217q-94 0 -113 215q-116 -215 -213 -215
q-118 0 -118 236q0 35 1 53q2 19 21 19t19 -21q-1 -17 -1 -51q0 -25 2 -50t9 -62.5t24 -60.5t43 -23zM441 40q83 0 210 256v53q0 104 2 150q-44 -12 -131.5 -38t-103.5 -31q-24 -96 -53 -141q0 -46 6.5 -99.5t25 -101.5t44.5 -48zM382 647q-13 -79 -17 -193l20 5
q10 48 10 86q0 72 -13 102zM721 515l-26 -6q-3 -45 -3 -123q24 71 29 129zM709 647q-7 -47 -12 -99l25 6q-1 60 -13 93zM365 386l10 32l-10 -2v-30z" />
    <glyph glyph-name="swirlL5" unicode="&#xe022;" horiz-adv-x="2207" 
d="M236 -249q-133 0 -198 129q-42 83 -37 185q3 103 51 165q26 36 61 50q38 17 82 9q8 -2 13 -9t4 -15q-2 -8 -9 -12.5t-15 -3.5q-62 12 -104 -42q-39 -51 -44 -144q-3 -91 34 -165q52 -107 162 -107q89 0 172 104q54 68 146 245q101 194 163 270q105 129 229 129
q51 0 86 -19q35 -16 59 -51q23 -32 34 -80q69 15 121 7.5t106.5 -31.5t98.5 -56.5t97 -67t102.5 -63t114 -44.5t131.5 -12q229 14 311 174q9 17 27 8q17 -9 8 -27q-97 -184 -345 -198q-67 -4 -133.5 13t-119 45.5t-109 63t-102.5 67t-99.5 56.5t-100 32t-103.5 -7
q2 -24 2 -36q0 -124 -57 -251q-28 -59 -58 -91q-36 -40 -73 -40q-34 0 -52 29q-13 22 -13 61q0 49 21 112t56 118q59 94 130 126q-8 41 -28 69q-36 53 -112 53q-105 0 -198 -115q-59 -72 -158 -262q-95 -181 -151 -252q-45 -57 -91 -85q-52 -34 -112 -34zM1091 335
q-69 -38 -120.5 -139t-51.5 -175q0 -28 8 -40q6 -10 17 -10q19 0 43 27q29 30 51 81q54 116 54 234q0 15 -1 22z" />
    <glyph glyph-name="swirlR5" unicode="&#xe023;" horiz-adv-x="2243" 
d="M2006 -249q-60 0 -112 34q-46 28 -91 85q-56 71 -151 252q-99 190 -158 262q-93 115 -198 115q-76 0 -112 -53q-20 -28 -28 -69q71 -32 130 -126q35 -55 56 -118t21 -112q0 -39 -13 -61q-18 -29 -52 -29q-37 0 -73 40q-30 32 -58 91q-57 127 -57 251q0 12 2 36
q-57 15 -103.5 7t-100 -32t-99.5 -56.5t-102.5 -67t-109 -63t-119 -45.5t-133.5 -13q-248 14 -345 198q-9 18 8 27q18 9 27 -8q82 -160 311 -174q67 -4 131.5 12t114 44.5t102.5 63t97 67t98.5 56.5t106.5 31.5t121 -7.5q11 48 34 80q24 35 59 51q35 19 86 19
q124 0 229 -129q62 -76 163 -270q92 -177 146 -245q83 -104 172 -104q110 0 162 107q37 74 34 165q-5 93 -44 144q-42 54 -104 42q-8 -1 -15 3.5t-9 12.5q-1 8 4 15t13 9q44 8 82 -9q35 -14 61 -50q48 -62 51 -165q5 -102 -37 -185q-65 -129 -198 -129zM1151 335
q-1 -7 -1 -22q0 -118 54 -234q22 -51 51 -81q24 -27 43 -27q11 0 17 10q8 12 8 40q0 74 -51.5 175t-120.5 139z" />
    <glyph glyph-name="swirlL6" unicode="&#xe024;" horiz-adv-x="1040" 
d="M1064 306q18 -5 12 -24q-37 -128 -191 -203q-70 -35 -144 -47q-80 -14 -146 -4q-70 9 -123 43q-42 -26 -88 -44q-63 -22 -113 -22q-126 0 -198 94q-67 87 -67 231q0 54 11 79q13 33 41 33q30 0 55 -43l4 -6q4 6 7 8q27 35 63 35q28 0 44 -22t16 -57q0 -32 -16.5 -64
t-38 -55t-47 -43t-40 -29t-19.5 -11l-1 -1q59 -109 186 -109q80 0 168 53h-1q-32 30 -48 72q-17 45 -17 96q0 89 44 146q43 52 100 52q47 0 78 -37q32 -38 32 -103q0 -130 -120 -227q39 -22 93 -30q135 -18 268 47q141 71 171 179q2 7 9.5 11t15.5 2zM473 121q1 0 1 1
q113 86 113 202q0 51 -23 77q-18 23 -47 23q-39 0 -68 -37q-36 -44 -36 -121q0 -95 60 -145zM68 190q15 9 29.5 19.5t44 34.5t47.5 54t18 59q0 22 -8 33q-5 6 -12 6q-18 0 -35 -22.5t-17 -54.5q0 -8 -6 -14t-14 -6t-14 6t-6 14q0 30 -16 59q-12 22 -21 24q-12 -12 -12 -72
q0 -77 22 -140z" />
    <glyph glyph-name="swirlR6" unicode="&#xe025;" horiz-adv-x="1073" 
d="M12 306q8 2 15.5 -2t9.5 -11q30 -108 171 -179q133 -65 268 -47q54 8 93 30q-120 97 -120 227q0 65 32 103q31 37 78 37q57 0 100 -52q44 -57 44 -146q0 -51 -17 -96q-16 -42 -48 -72h-1q88 -53 168 -53q127 0 186 109q-1 0 -1 1q-5 2 -19.5 11t-40 29t-47 43t-38 55
t-16.5 64q0 35 16 57t44 22q36 0 63 -35q3 -2 7 -8l4 6q25 43 55 43q28 0 41 -33q11 -25 11 -79q0 -144 -67 -231q-72 -94 -198 -94q-50 0 -113 22q-46 18 -88 44q-53 -34 -123 -43q-66 -10 -146 4q-74 12 -144 47q-154 75 -191 203q-6 19 12 24zM603 121q60 50 60 145
q0 77 -36 121q-29 37 -68 37q-29 0 -47 -23q-23 -26 -23 -77q0 -116 113 -202zM1008 190q22 63 22 140q0 60 -12 72q-9 -2 -21 -24q-16 -29 -16 -59q0 -8 -6 -14t-14 -6t-14 6t-6 14q0 32 -17 54.5t-35 22.5q-7 0 -12 -6q-8 -11 -8 -33q0 -29 18 -59t47.5 -54t44 -34.5
t29.5 -19.5z" />
    <glyph glyph-name="swirlL7" unicode="&#xe026;" horiz-adv-x="1040" 
d="M1064 306q18 -5 12 -24q-37 -128 -191 -203q-70 -35 -144 -47q-80 -14 -146 -4q-70 9 -123 43q-42 -26 -88 -44q-63 -22 -113 -22q-126 0 -198 94q-67 87 -67 231q0 54 11 79q13 33 41 33q30 0 55 -43l4 -6q4 6 7 8q27 35 63 35q28 0 44 -22t16 -57q0 -32 -16.5 -64
t-38 -55t-47 -43t-40 -29t-19.5 -11l-1 -1q59 -109 186 -109q80 0 168 53h-1q-32 30 -48 72q-17 45 -17 96q0 89 44 146q43 52 100 52q47 0 78 -37q32 -38 32 -103q0 -130 -120 -227q39 -22 93 -30q135 -18 268 47q141 71 171 179q2 7 9.5 11t15.5 2zM473 121q1 0 1 1
q113 86 113 202q0 51 -23 77q-18 23 -47 23q-39 0 -68 -37q-36 -44 -36 -121q0 -95 60 -145z" />
    <glyph glyph-name="swirlR7" unicode="&#xe027;" horiz-adv-x="1073" 
d="M12 306q8 2 15.5 -2t9.5 -11q30 -108 171 -179q133 -65 268 -47q54 8 93 30q-120 97 -120 227q0 65 32 103q31 37 78 37q57 0 100 -52q44 -57 44 -146q0 -51 -17 -96q-16 -42 -48 -72h-1q88 -53 168 -53q127 0 186 109q-1 0 -1 1q-5 2 -19.5 11t-40 29t-47 43t-38 55
t-16.5 64q0 35 16 57t44 22q36 0 63 -35q3 -2 7 -8l4 6q25 43 55 43q28 0 41 -33q11 -25 11 -79q0 -144 -67 -231q-72 -94 -198 -94q-50 0 -113 22q-46 18 -88 44q-53 -34 -123 -43q-66 -10 -146 4q-74 12 -144 47q-154 75 -191 203q-6 19 12 24zM603 121q60 50 60 145
q0 77 -36 121q-29 37 -68 37q-29 0 -47 -23q-23 -26 -23 -77q0 -116 113 -202z" />
    <glyph glyph-name="swirlL8" unicode="&#xe028;" horiz-adv-x="1051" 
d="M417 -13q-73 0 -141 14q-130 28 -200.5 114t-78.5 217q-2 44 20 76t63 32q49 0 95 -40q17 -17 24 -26q4 7 14 21q30 35 66 35q28 0 43 -21q15 -19 15 -55q0 -49 -25 -101.5t-41 -72t-28 -31.5q-14 -14 -28 0t0 28q9 9 23 26.5t36.5 63.5t22.5 87q0 24 -7 31q-4 5 -11 5
q-18 0 -37 -23t-19 -57q0 -8 -6 -14t-14 -6t-14 6t-6 14q0 29 -35 59.5t-68 30.5q-25 0 -34.5 -21t-8.5 -47q12 -240 248 -292q96 -20 218.5 -8t242.5 55q113 39 196 96q86 61 108 111q3 7 11 10t15 0q18 -9 10 -26q-26 -61 -122 -128q-90 -61 -205 -101q-119 -42 -244 -56
q-51 -6 -98 -6z" />
    <glyph glyph-name="swirlR8" unicode="&#xe029;" horiz-adv-x="1091" 
d="M668 -13q-47 0 -98 6q-125 14 -244 56q-115 40 -205 101q-96 67 -122 128q-8 17 10 26q7 3 15 0t11 -10q22 -50 108 -111q83 -57 196 -96q120 -43 242.5 -55t218.5 8q236 52 248 292q1 26 -8.5 47t-34.5 21q-33 0 -68 -30.5t-35 -59.5q0 -8 -6 -14t-14 -6t-14 6t-6 14
q0 34 -19 57t-37 23q-7 0 -11 -5q-7 -7 -7 -31q0 -41 22.5 -87t36.5 -63.5t23 -26.5q14 -14 0 -28t-28 0q-12 12 -28 31.5t-41 72t-25 101.5q0 36 15 55q15 21 43 21q36 0 66 -35q10 -14 14 -21q7 9 24 26q46 40 95 40q41 0 63 -32t20 -76q-8 -131 -78.5 -217t-200.5 -114
q-68 -14 -141 -14z" />
    <glyph glyph-name="swirlL9" unicode="&#xe02a;" horiz-adv-x="2917" 
d="M1326 -12q-59 0 -116 6q-170 18 -294 87l-60 -27q-190 -77 -384 -60q-152 14 -274 87t-197 197q-11 16 7 27q16 11 27 -7q71 -115 184.5 -182.5t256.5 -81.5q199 -18 398 72q-117 78 -178 195q-38 74 -36 138q3 68 47 94q50 31 121 -11q68 -40 137 -133q64 88 138 138
q80 53 139 47q48 -6 63 -46q31 -82 -104 -231q-108 -118 -242 -193q112 -55 255 -70q159 -18 326.5 13t309.5 101q-96 62 -164 150q-97 129 -58 212q25 52 85 52q55 2 111 -41q50 -38 93 -106q64 78 127 119q69 45 121 39q41 -6 55 -42q14 -39 -9 -94q-22 -56 -82 -129
q-76 -92 -197 -161q178 -95 390 -98q181 -4 337.5 62.5t259.5 191.5q12 15 28 3q15 -13 2 -28q-113 -139 -285 -208q-79 -33 -169 -48q-82 -15 -174 -13q-191 3 -359 78q-40 18 -72 37q-71 -38 -163 -70q-200 -66 -401 -66zM753 505q-16 0 -25 -6q-26 -16 -28 -61
q-2 -55 32 -118q60 -118 185 -193q146 77 254 197q61 67 83.5 116.5t13.5 73.5q-8 17 -30 20q-48 5 -113 -40q-78 -52 -142 -151q-6 -7 -17 -9q-12 0 -16 9q-58 82 -109.5 122t-87.5 40zM1716 522h-2q-36 0 -50 -29q-12 -26 -2 -66q12 -48 56 -104q66 -88 174 -154
q128 71 207 165q57 70 75 118q17 41 9 65q-7 14 -23 16q-37 5 -94 -33q-69 -44 -136 -133q-6 -10 -18 -8q-10 2 -16 10q-40 77 -96 120q-44 33 -84 33z" />
    <glyph glyph-name="swirlR9" unicode="&#xe02b;" horiz-adv-x="2916" 
d="M1326 -12q-59 0 -116 6q-170 18 -294 87l-60 -27q-190 -77 -384 -60q-152 14 -274 87t-197 197q-11 16 7 27q16 11 27 -7q71 -115 184.5 -182.5t256.5 -81.5q199 -18 398 72q-117 78 -178 195q-38 74 -36 138q3 68 47 94q50 31 121 -11q68 -40 137 -133q64 88 138 138
q80 53 139 47q48 -6 63 -46q31 -82 -104 -231q-108 -118 -242 -193q112 -55 255 -70q159 -18 326.5 13t309.5 101q-96 62 -164 150q-97 129 -58 212q25 52 85 52q55 2 111 -41q50 -38 93 -106q64 78 127 119q69 45 121 39q41 -6 55 -42q14 -39 -9 -94q-22 -56 -82 -129
q-76 -92 -197 -161q178 -95 390 -98q181 -4 337.5 62.5t259.5 191.5q12 15 28 3q15 -13 2 -28q-113 -139 -285 -208q-79 -33 -169 -48q-82 -15 -174 -13q-191 3 -359 78q-40 18 -72 37q-71 -38 -163 -70q-200 -66 -401 -66z" />
    <glyph glyph-name="swirlL10" unicode="&#xe02c;" horiz-adv-x="1809" 
d="M684 25q-54 0 -99 24q-42 23 -71 61q-3 3 -8 10.5t-6 9.5q-89 -71 -214 -71q-95 0 -160 35q-53 28 -87 79q-39 60 -39 115q0 8 5.5 14.5t13.5 6.5t14.5 -5.5t6.5 -13.5q0 -46 33 -97q64 -94 213 -94q116 0 195 67q-22 52 -22 104q0 53 23.5 85t63.5 32q26 0 42 -19.5
t16 -52.5q0 -37 -20 -80q-19 -41 -53 -78q7 -13 15 -23q53 -69 138 -69q126 0 213 131q2 2 2 3q-56 109 -56 218q0 57 20 94q24 44 71 44q41 0 63 -39q17 -32 17 -84q0 -60 -21 -127q-19 -58 -47 -107q0 -1 1 -1q69 -116 163 -116q102 0 174 96l12 17q-33 60 -33 120
q0 40 16 67q20 32 55 32q28 0 42 -25q11 -17 11 -48q0 -69 -44 -146q15 -18 16 -19q65 -76 179 -76q145 0 222 98q17 22 29 45.5t15 35.5l4 13q1 8 8.5 13t15.5 3q19 -4 16 -23q-23 -68 -55 -111q-39 -49 -95 -78q-69 -36 -160 -36q-131 0 -209 89l-9 10l-4 -5
q-38 -51 -86 -79q-57 -33 -120 -33q-109 0 -188 120q-42 -57 -95 -92q-67 -44 -143 -44zM934 515q-24 0 -36 -23q-15 -27 -15 -75q0 -85 40 -176q51 99 51 191q0 43 -12 64q-10 19 -28 19zM546 347q-16 0 -26.5 -9.5t-14.5 -24.5t-5 -24.5t-1 -18.5q0 -34 13 -73
q52 60 52 118q0 32 -18 32zM1334 373q-31 0 -31 -59q0 -37 17 -78q27 57 27 104q0 20 -5 28q-4 5 -8 5z" />
    <glyph glyph-name="swirlR10" unicode="&#xe02d;" horiz-adv-x="1809" 
d="M684 25q-54 0 -99 24q-42 23 -71 61q-3 3 -8 10.5t-6 9.5q-89 -71 -214 -71q-95 0 -160 35q-53 28 -87 79q-39 60 -39 115q0 8 5.5 14.5t13.5 6.5t14.5 -5.5t6.5 -13.5q0 -46 33 -97q64 -94 213 -94q116 0 195 67q-22 52 -22 104q0 53 23.5 85t63.5 32q26 0 42 -19.5
t16 -52.5q0 -37 -20 -80q-19 -41 -53 -78q7 -13 15 -23q53 -69 138 -69q126 0 213 131q2 2 2 3q-56 109 -56 218q0 57 20 94q24 44 71 44q41 0 63 -39q17 -32 17 -84q0 -60 -21 -127q-19 -58 -47 -107q0 -1 1 -1q69 -116 163 -116q102 0 174 96l12 17q-33 60 -33 120
q0 40 16 67q20 32 55 32q28 0 42 -25q11 -17 11 -48q0 -69 -44 -146q15 -18 16 -19q65 -76 179 -76q145 0 222 98q17 22 29 45.5t15 35.5l4 13q1 8 8.5 13t15.5 3q19 -4 16 -23q-23 -68 -55 -111q-39 -49 -95 -78q-69 -36 -160 -36q-131 0 -209 89l-9 10l-4 -5
q-38 -51 -86 -79q-57 -33 -120 -33q-109 0 -188 120q-42 -57 -95 -92q-67 -44 -143 -44zM934 515q-24 0 -36 -23q-15 -27 -15 -75q0 -85 40 -176q51 99 51 191q0 43 -12 64q-10 19 -28 19zM1561 231q7 14 14 22q14 14 22 16q11 4 20 -2t9 -17q0 -15 -26 -40t-29 -31
q-6 4 -24.5 13.5t-32 19.5t-16.5 22t3.5 19.5t18.5 7.5t22 -11q15 -13 19 -19zM261 231q7 14 14 22q14 14 22 16q11 4 20 -2t9 -17q0 -15 -26 -40t-29 -31q-6 4 -24.5 13.5t-32 19.5t-16.5 22t3.5 19.5t18.5 7.5t22 -11q15 -13 19 -19zM705 436q7 14 14 22q14 14 22 16
q11 4 20 -2t9 -17q0 -15 -26 -40t-29 -31q-6 4 -24.5 13.5t-32 19.5t-16.5 22t3.5 19.5t18.5 7.5t22 -11q15 -13 19 -19zM1160 436q7 14 14 22q14 14 22 16q11 4 20 -2t9 -17q0 -15 -26 -40t-29 -31q-6 4 -24.5 13.5t-32 19.5t-16.5 22t3.5 19.5t18.5 7.5t22 -11
q15 -13 19 -19zM546 347q-16 0 -26.5 -9.5t-14.5 -24.5t-5 -24.5t-1 -18.5q0 -34 13 -73q52 60 52 118q0 32 -18 32zM1334 373q-31 0 -31 -59q0 -37 17 -78q27 57 27 104q0 20 -5 28q-4 5 -8 5z" />
    <glyph glyph-name="swirlL11" unicode="&#xe02e;" horiz-adv-x="893" 
d="M918 306q16 -6 9 -26q-37 -90 -188 -122q-56 -12 -138 -16q-7 -26 -23 -39q-26 -23 -68 -23q-24 0 -37.5 13.5t-13.5 32.5q0 23 18 38q18 16 47 16h31q-18 24 -60 24q-30 0 -64.5 -20.5t-67 -50t-66 -58.5t-74 -49.5t-79.5 -20.5h-2q-63 0 -104 41q-36 38 -36 88
q0 43 28 73q30 33 81 33q58 0 72 -44q6 -19 -1 -40t-21 -30q-17 -11 -28 6t6 28q3 2 5 9.5t0 15.5q-5 15 -33 15q-34 0 -51.5 -20t-17.5 -46q0 -36 27 -62.5t74 -26.5h1q37 0 74.5 20.5t70 49.5t64.5 58.5t69.5 50t72.5 20.5q78 0 104 -62q254 12 293 113q9 18 26 11z
M510 120q34 0 47 20h-33q-15 0 -21 -6q-4 -3 -4 -8q0 -6 11 -6z" />
    <glyph glyph-name="swirlR11" unicode="&#xe02f;" horiz-adv-x="924" 
d="M10 306q17 7 26 -11q39 -101 293 -113q26 62 104 62q35 0 72.5 -20.5t69.5 -50t64.5 -58.5t70 -49.5t74.5 -20.5h1q47 0 74 26.5t27 62.5q0 26 -17.5 46t-51.5 20q-28 0 -33 -15q-2 -8 0 -15.5t5 -9.5q17 -11 6 -28t-28 -6q-14 9 -21 30t-1 40q14 44 72 44q51 0 81 -33
q28 -30 28 -73q0 -50 -36 -88q-41 -41 -104 -41h-2q-39 0 -79.5 20.5t-74 49.5t-66 58.5t-67 50t-64.5 20.5q-42 0 -60 -24h31q29 0 47 -16q18 -15 18 -38q0 -19 -13.5 -32.5t-37.5 -13.5q-42 0 -68 23q-16 14 -23 39q-82 4 -138 16q-151 32 -188 122q-7 20 9 26zM418 120
q11 0 11 6q0 5 -4 8q-6 6 -21 6h-33q13 -20 47 -20z" />
    <glyph glyph-name="swirlL12" unicode="&#xe030;" horiz-adv-x="2647" 
d="M900 10q-18 0 -52 2q-105 10 -190 60l-35 -16q-142 -59 -279 -41q-107 15 -194 78q-90 66 -150 185q-9 18 9 27t27 -9q106 -213 314 -241q131 -18 269 44q-73 55 -118 142q-29 56 -26 102q2 50 36 72q37 24 93 -8q45 -26 96 -91q46 62 95 95q59 39 104 34q39 -5 50 -36
q12 -29 -8 -75q-20 -44 -68 -97q-76 -85 -173 -142q70 -36 152 -43q105 -10 216.5 23.5t213.5 103.5q-85 71 -143 171q-48 80 -58 143q-11 61 12 97q23 37 70 34q37 -3 78.5 -38.5t74.5 -104.5q45 57 96 91q60 39 109 34q46 -5 63 -45q16 -40 -4 -96q-19 -59 -76 -131
q-67 -85 -156 -156q132 -93 296 -107q147 -12 275 45q-68 47 -114 107q-73 95 -43 158q21 39 66 41q43 0 84 -31q36 -28 64 -71q46 54 86 79q50 34 91 29q33 -5 44 -34q23 -60 -65 -168q-56 -66 -130 -111q137 -67 284 -55q118 9 211.5 70.5t149.5 165.5q9 18 27 9
q17 -10 8 -28q-68 -124 -172 -188q-100 -60 -221 -69q-140 -11 -271 44q-28 11 -58 27q-33 -15 -48 -21q-105 -41 -222 -41q-16 0 -50 2q-150 12 -278 90q-32 20 -47 32q-63 -44 -125 -73q-146 -70 -290 -70zM1155 584q-19 0 -28 -15q-15 -23 -7 -69q11 -58 53 -130
q58 -97 142 -167q91 70 157 155q51 65 68 113.5t7 73.5q-7 18 -30 21q-34 3 -83 -27q-55 -36 -106 -108q-6 -11 -18 -9q-12 1 -17 12q-27 69 -64 108t-69 42h-5zM547 385q-6 0 -16 -4q-16 -10 -16 -40q-2 -37 22 -82q46 -89 123 -140q101 54 184 144q42 47 58 81t10 50
q-3 10 -17 11q-32 3 -77 -28q-56 -37 -101 -106q-6 -9 -17 -9q-8 -1 -16 8q-41 57 -77 86t-60 29zM1830 382h-1q-22 0 -30 -18q-20 -41 37 -117q52 -65 126 -110q82 47 139 115q40 50 53 84q12 29 6 44q-2 7 -12 8q-25 3 -64 -22q-49 -33 -95 -94q-6 -8 -17 -8q-11 2 -17 11
q-29 55 -63 81t-62 26z" />
    <glyph glyph-name="swirlR12" unicode="&#xe031;" horiz-adv-x="2647" 
d="M900 10q-18 0 -52 2q-105 10 -190 60l-35 -16q-142 -59 -279 -41q-107 15 -194 78q-90 66 -150 185q-9 18 9 27t27 -9q106 -213 314 -241q131 -18 269 44q-73 55 -118 142q-29 56 -26 102q2 50 36 72q37 24 93 -8q45 -26 96 -91q46 62 95 95q59 39 104 34q39 -5 50 -36
q12 -29 -8 -75q-20 -44 -68 -97q-76 -85 -173 -142q70 -36 152 -43q105 -10 216.5 23.5t213.5 103.5q-85 71 -143 171q-48 80 -58 143q-11 61 12 97q23 37 70 34q37 -3 78.5 -38.5t74.5 -104.5q45 57 96 91q60 39 109 34q46 -5 63 -45q16 -40 -4 -96q-19 -59 -76 -131
q-67 -85 -156 -156q132 -93 296 -107q147 -12 275 45q-68 47 -114 107q-73 95 -43 158q21 39 66 41q43 0 84 -31q36 -28 64 -71q46 54 86 79q50 34 91 29q33 -5 44 -34q23 -60 -65 -168q-56 -66 -130 -111q137 -67 284 -55q118 9 211.5 70.5t149.5 165.5q9 18 27 9
q17 -10 8 -28q-68 -124 -172 -188q-100 -60 -221 -69q-140 -11 -271 44q-28 11 -58 27q-33 -15 -48 -21q-105 -41 -222 -41q-16 0 -50 2q-150 12 -278 90q-32 20 -47 32q-63 -44 -125 -73q-146 -70 -290 -70z" />
    <glyph glyph-name="swirlL13" unicode="&#xe032;" horiz-adv-x="1238" 
d="M1266 304q17 -11 6 -27q-16 -25 -42 -42t-67.5 -28t-69.5 -16t-82 -13q-109 -17 -150 -31q8 -21 8 -44q0 -74 -49 -96q-12 -6 -26 -6q-17 0 -33 11q-31 25 -18 79q11 42 51 69q-28 12 -106 17q-58 2 -89 10l-17 -22q-40 -48 -92 -81q-112 -73 -235 -73q-56 0 -103 24
t-78 64t-50 86.5t-26 96.5q-2 20 15 23q8 2 15.5 -2.5t8.5 -12.5q5 -43 19 -82t38.5 -76t66 -59t94.5 -22q109 0 213 66q56 37 92 84q-47 27 -47 85q0 61 39 80q30 15 58 -8q17 -14 25 -39q6 -25 -1 -54q-4 -20 -14 -41q26 -5 70 -7q83 -6 117 -19q17 -8 29 -17l7 3
q49 17 162 33q131 20 172 36q44 18 61 45q10 17 28 6zM596 275q8 36 -11 51q-5 5 -11 5q-4 0 -5 -1q-16 -8 -16 -44t28 -51q10 22 15 40zM803 43q26 12 26 60q0 19 -5 28q-35 -20 -42 -50q-7 -27 4 -38q7 -5 17 0z" />
    <glyph glyph-name="swirlR13" unicode="&#xe033;" horiz-adv-x="1238" 
d="M7 304q18 11 28 -6q15 -24 54 -40.5t67 -22t94 -15.5l18 -3q113 -16 162 -33l7 -3q12 9 29 17q34 13 117 19q44 2 70 7q-10 21 -14 41q-7 29 -1 54q8 25 25 39q28 23 58 8q39 -19 39 -80q0 -58 -47 -85q36 -47 92 -84q104 -66 213 -66q53 0 94.5 22t66 59t38.5 76t19 82
q1 8 8.5 12.5t15.5 2.5q17 -3 15 -23q-7 -50 -26 -96.5t-50 -86.5t-78 -64t-103 -24q-123 0 -235 73q-52 33 -92 81l-17 22q-31 -8 -89 -10q-78 -5 -106 -17q41 -27 51 -69q13 -54 -18 -79q-16 -11 -33 -11q-14 0 -26 6q-49 22 -49 96q0 23 8 44q-41 14 -150 31
q-54 8 -82 13t-69.5 16t-67.5 28t-42 42q-11 16 6 27zM677 275q5 -18 15 -40q28 15 28 51t-16 44q-1 1 -5 1q-6 0 -11 -5q-19 -15 -11 -51zM470 43q10 -5 17 0q11 11 4 38q-7 30 -42 50q-5 -9 -5 -28q0 -48 26 -60z" />
    <glyph glyph-name="swirlL14" unicode="&#xe034;" horiz-adv-x="1019" 
d="M325 92q-82 0 -138 50q-73 -39 -168 -39q-8 0 -14 6t-6 14t6 14t14 6q79 0 140 29q-49 63 -49 145q0 36 13.5 59t36.5 23q24 0 49 -23q24 62 66 62q23 0 37.5 -22t14.5 -57q0 -53 -29 -108t-75 -87q40 -32 102 -32q68 0 135.5 18.5t127.5 44.5t123.5 52t147.5 44.5
t175 18.5q8 0 14 -5.5t6 -14.5q0 -8 -6 -14t-14 -6q-110 0 -212.5 -28t-168.5 -61t-154.5 -61t-173.5 -28z" />
    <glyph glyph-name="swirlR14" unicode="&#xe035;" horiz-adv-x="1058" 
d="M730 92q-85 0 -173.5 28t-154.5 61t-168.5 61t-212.5 28q-8 0 -14 6t-6 14q0 9 6 14.5t14 5.5q91 0 175 -18.5t147.5 -44.5t123.5 -52t127.5 -44.5t135.5 -18.5q62 0 102 32q-46 32 -75 87t-29 108q0 35 14.5 57t37.5 22q42 0 66 -62q25 23 49 23q23 0 36.5 -23t13.5 -59
q0 -82 -49 -145q61 -29 140 -29q8 0 14 -6t6 -14t-6 -14t-14 -6q-95 0 -168 39q-56 -50 -138 -50z" />
    <glyph glyph-name="a.ss02" unicode="&#xe036;" horiz-adv-x="518" 
d="M259 497q20 5 20 55q0 6 -2 16q-27 -27 -27 -56q0 -15 9 -15zM281 40q62 0 108.5 50.5t67.5 122.5t21 151q0 96 -38 160t-112 64q-10 0 -14 -1q4 -15 4 -34q0 -35 -14.5 -65.5t-46.5 -30.5q-21 0 -33.5 16.5t-12.5 39.5q0 50 47 92q-30 24 -74 24q-39 0 -75.5 -18
t-59.5 -52q-6 -8 -16 -8q-8 0 -14 6t-6 14q0 7 4 12q28 40 73 63.5t95 23.5q73 0 109 -46q18 5 35 5q92 0 140.5 -78t48.5 -193q0 -89 -25 -168.5t-80 -134.5t-131 -55q-43 0 -71 25.5t-40 65.5q-13 -37 -37 -64t-59 -27q-53 0 -80 46t-27 114q0 80 34.5 141.5t92.5 61.5
q37 0 63 -31.5t26 -70.5q0 -20 -19 -20q-17 0 -20 16q-15 66 -54 66q-34 0 -58.5 -54.5t-24.5 -117.5q0 -48 17 -79.5t50 -31.5q60 0 78 157q2 18 20 18t20 -18q1 -21 5 -43.5t12.5 -50.5t27 -45.5t43.5 -17.5z" />
    <glyph glyph-name="c.ss02" unicode="&#xe037;" horiz-adv-x="368" 
d="M136 40q62 0 107 50.5t65 122.5t20 151q0 99 -39 176t-111 77q-10 0 -14 -1q4 -15 4 -34q0 -35 -14.5 -65.5t-46.5 -30.5q-21 0 -33.5 16.5t-12.5 39.5q0 50 47 92q-30 24 -74 24q-39 0 -75.5 -18t-59.5 -52q-6 -8 -16 -8q-8 0 -14 6t-6 14q0 7 4 12q28 40 73 63.5
t95 23.5q73 0 109 -46q18 5 35 5q90 0 139.5 -91t49.5 -209q0 -90 -24 -169t-78.5 -134t-129.5 -55q-140 0 -140 242q0 121 56 121q19 0 34 -21t16 -62q0 -8 -6 -14t-14 -6t-14 6t-6 14q-1 32 -11 42q-15 -21 -15 -99q0 -46 8 -84.5t31.5 -68.5t60.5 -30zM109 526
q20 5 20 55q0 6 -2 16q-27 -27 -27 -56q0 -15 9 -15z" />
    <glyph glyph-name="e.ss02" unicode="&#xe038;" horiz-adv-x="368" 
d="M102 280q0 -74 -48 -174q25 -66 82 -66q62 0 107 50.5t65 122.5t20 151q0 99 -39 176t-111 77q-10 0 -14 -1q4 -15 4 -34q0 -35 -14.5 -65.5t-46.5 -30.5q-21 0 -33.5 16.5t-12.5 39.5q0 50 47 92q-30 24 -74 24q-39 0 -75.5 -18t-59.5 -52q-6 -8 -16 -8q-8 0 -14 6
t-6 14q0 7 4 12q28 40 73 63.5t95 23.5q73 0 109 -46q18 5 35 5q90 0 139.5 -91t49.5 -209q0 -90 -24 -169t-78.5 -134t-129.5 -55q-140 0 -140 242q0 121 56 121q19 0 34.5 -21t15.5 -62zM36 223q0 -32 2 -49q24 66 24 106q0 31 -11 42q-15 -21 -15 -99zM109 526
q20 5 20 55q0 6 -2 16q-27 -27 -27 -56q0 -15 9 -15z" />
    <glyph glyph-name="n.ss01" unicode="&#xe039;" horiz-adv-x="534" 
d="M263 40q64 0 119.5 74.5t83 163.5t27.5 154q0 49 -19.5 87t-61.5 38t-86 -43.5t-80 -127.5q-4 -12 -20 -12q-8 0 -13.5 6.5t-5.5 13.5q2 36 2 47q0 77 -30.5 137t-95.5 60q-52 0 -81 -51.5t-29 -107.5q0 -64 32 -128q2 -6 2 -9q0 -8 -5.5 -14t-13.5 -6q-12 0 -18 11
q-38 71 -38 142q0 78 42.5 141t113.5 63q73 0 113 -62t47 -141q38 56 76 88t87 32q62 -3 92.5 -52t30.5 -112q0 -57 -20 -130t-54 -141t-87 -114.5t-110 -46.5q-16 0 -29.5 6.5t-24.5 20t-20.5 28.5t-17 37.5t-13 41t-11 45.5t-8.5 44t-7.5 43t-6.5 37q-25 -58 -40.5 -141.5
t-18.5 -142.5q-2 -17 -20 -19q-18 0 -20 19q0 7 -2 43.5t-9 105.5t-16 121q0 8 6 13.5t15 5.5q16 0 19 -21q8 -44 13 -89q1 6 5.5 23.5t7.5 30t8.5 31t11 31t12.5 24.5t16 18.5t18 6.5q10 0 16.5 -5.5t10.5 -19.5t6.5 -25.5t6 -35.5t6.5 -38q17 -90 36.5 -144.5t49.5 -54.5z
" />
    <glyph glyph-name="n.ss02" unicode="&#xe03a;" horiz-adv-x="515" 
d="M283 40q62 0 107 50.5t65 122.5t20 151q0 96 -38 160t-112 64q-10 0 -14 -1q4 -15 4 -34q0 -35 -14.5 -65.5t-46.5 -30.5q-21 0 -33.5 16.5t-12.5 39.5q0 50 47 92q-30 24 -74 24q-39 0 -75.5 -18t-59.5 -52q-6 -8 -16 -8q-8 0 -14 6t-6 14q0 7 4 12q28 40 73 63.5
t95 23.5q73 0 109 -46q18 5 35 5q92 0 140.5 -78t48.5 -193q0 -90 -24 -169t-78.5 -134t-129.5 -55q-24 0 -44 10t-35 33t-25.5 42.5t-20 56t-13.5 55t-11 58.5t-9 48q-25 -58 -40.5 -141.5t-18.5 -142.5q-2 -17 -20 -19q-18 0 -20 19q0 7 -2 43.5t-9 105.5t-16 121
q0 8 6 13.5t15 5.5q16 0 19 -21q8 -44 13 -89q1 6 5.5 23.5t7.5 30t8.5 31t11 31t12.5 24.5t16 18.5t18 6.5q10 0 16.5 -5.5t10.5 -19.5t6.5 -25.5t6 -35.5t6.5 -38q8 -43 15 -71.5t19.5 -61t30.5 -49.5t41 -17zM256 497q20 5 20 55q0 6 -2 16q-27 -27 -27 -56q0 -15 9 -15z
" />
    <glyph glyph-name="m.ss01" unicode="&#xe03b;" horiz-adv-x="696" 
d="M287 303q-25 -58 -40.5 -141.5t-18.5 -142.5q-2 -19 -20 -19t-22 20q0 57 -15.5 152.5t-34.5 145.5q-21 -39 -41 -133.5t-29 -165.5q-2 -17 -20 -19q-18 0 -20 19q0 7 -2 43.5t-9 105.5t-16 121q0 8 6 13.5t15 5.5q16 0 19 -21q9 -47 15 -106q1 4 4.5 22t7 31.5t9 34
t11.5 35.5t13.5 29.5t16.5 22t19 7.5q16 0 28 -13t20 -40.5t12 -45t9 -51.5l4 -34q0 1 9 36.5t14 51.5t15.5 43.5t22 40t24.5 12.5q10 0 16.5 -5.5t10.5 -19.5t6.5 -25.5t6 -35.5t6.5 -38q17 -90 36.5 -144.5t49.5 -54.5q64 0 119.5 74.5t83 163.5t27.5 154t-29.5 96
t-77.5 31q-71 0 -145 -50.5t-95 -122.5q-3 -12 -20 -12q-8 0 -13.5 6.5t-5.5 13.5q2 36 2 47q0 77 -30.5 137t-95.5 60q-52 0 -81 -51.5t-29 -107.5q0 -64 32 -128q2 -6 2 -9q0 -8 -5.5 -14t-13.5 -6q-12 0 -18 11q-38 71 -38 142q0 78 42.5 141t113.5 63q73 0 113 -62
t47 -141q43 50 108 85t126 35q67 0 109.5 -40.5t42.5 -123.5q0 -57 -20 -130t-54 -141t-87 -114.5t-110 -46.5q-16 0 -29.5 6.5t-24.5 20t-20.5 28.5t-17 37.5t-13 41t-11 45.5t-8.5 44t-7.5 43t-6.5 37z" />
    <glyph glyph-name="m.ss02" unicode="&#xe03c;" horiz-adv-x="676" 
d="M287 303q-25 -58 -40.5 -141.5t-18.5 -142.5q-2 -19 -20 -19t-22 20q0 57 -15.5 152.5t-34.5 145.5q-21 -39 -41 -133.5t-29 -165.5q-2 -17 -20 -19q-18 0 -20 19q0 7 -2 43.5t-9 105.5t-16 121q0 8 6 13.5t15 5.5q16 0 19 -21q9 -47 15 -106q1 4 4.5 22t7 31.5t9 34
t11.5 35.5t13.5 29.5t16.5 22t19 7.5q16 0 28 -13t20 -40.5t12 -45t9 -51.5l4 -34q0 1 9 36.5t14 51.5t15.5 43.5t22 40t24.5 12.5q10 0 16.5 -5.5t10.5 -19.5t6.5 -25.5t6 -35.5t6.5 -38q8 -43 15 -71.5t19.5 -61t30.5 -49.5t41 -17q62 0 107 50.5t65 122.5t20 151
q0 96 -38 160t-112 64q-10 0 -14 -1q4 -15 4 -34q0 -35 -14.5 -65.5t-46.5 -30.5q-21 0 -33.5 16.5t-12.5 39.5q0 50 47 92q-30 24 -74 24q-39 0 -75.5 -18t-59.5 -52q-6 -8 -16 -8q-8 0 -14 6t-6 14q0 7 4 12q28 40 73 63.5t95 23.5q73 0 109 -46q18 5 35 5q92 0 140.5 -78
t48.5 -193q0 -90 -24 -169t-78.5 -134t-129.5 -55q-24 0 -44 10t-35 33t-25.5 42.5t-20 56t-13.5 55t-11 58.5t-9 48zM418 497q20 5 20 55q0 6 -2 16q-27 -27 -27 -56q0 -15 9 -15z" />
    <glyph glyph-name="u.ss01" unicode="&#xe03d;" horiz-adv-x="580" 
d="M310 0q-90 0 -120 163q-38 -163 -113 -163q-85 0 -85 188q0 51 6 101q2 19 21 19t19 -20q-6 -42 -6 -95q0 -153 44 -153q30 0 57.5 73t42.5 213q0 7 5.5 12.5t13.5 5.5q18 0 20 -18q1 -9 3 -36.5t4.5 -50t6.5 -54t10.5 -55t16 -45t23.5 -33.5t31 -12q64 0 119.5 74.5
t83 163.5t27.5 154q0 49 -19.5 87t-61.5 38q-45 0 -98 -45t-88 -126q-5 -12 -20 -12q-8 0 -13.5 6.5t-5.5 13.5q2 36 2 47q0 74 -35 135.5t-101 61.5q-52 0 -81 -51.5t-29 -107.5q0 -64 32 -128q2 -6 2 -9q0 -8 -5.5 -14t-13.5 -6q-12 0 -18 11q-38 71 -38 142
q0 78 42.5 141t113.5 63q74 0 118.5 -63.5t51.5 -139.5q34 50 83 85t100 35q62 -3 92.5 -52t30.5 -112q0 -79 -32.5 -177t-97.5 -176.5t-141 -78.5z" />
    <glyph glyph-name="u.ss02" unicode="&#xe03e;" horiz-adv-x="556" 
d="M215 326q1 -11 3 -35.5t3.5 -40.5t4 -41t6 -42.5t8.5 -39t12 -35.5t16 -27t20.5 -19t25.5 -6q62 0 109.5 50.5t70 123t22.5 150.5q0 96 -38 160t-112 64q-10 0 -14 -1q4 -15 4 -34q0 -35 -14.5 -65.5t-46.5 -30.5q-21 0 -33.5 16.5t-12.5 39.5q0 50 47 92q-30 24 -74 24
q-39 0 -75.5 -18t-59.5 -52q-6 -8 -16 -8q-8 0 -14 6t-6 14q0 7 4 12q28 40 73 63.5t95 23.5q73 0 109 -46q18 5 35 5q92 0 140.5 -78t48.5 -193q0 -89 -26 -168.5t-82.5 -134.5t-132.5 -55q-47 0 -77.5 37t-47.5 126q-38 -163 -113 -163q-85 0 -85 188q0 51 6 101
q2 19 21 19t19 -20q-6 -42 -6 -95q0 -153 44 -153q30 0 57.5 73t42.5 213q0 7 5.5 12.5t13.5 5.5q18 0 20 -18zM297 497q20 5 20 55q0 6 -2 16q-27 -27 -27 -56q0 -15 9 -15z" />
    <glyph glyph-name="x.ss01" unicode="&#xe03f;" horiz-adv-x="547" 
d="M190 40q51 0 127.5 72.5t132 167t55.5 152.5q0 61 -24 92t-59 31q-45 0 -93.5 -47.5t-80.5 -121.5q-5 -12 -20 -12q-8 0 -13.5 6.5t-5.5 13.5q2 36 2 47q0 48 -9.5 89.5t-38.5 74.5t-74 33q-52 0 -81 -51.5t-29 -107.5q0 -64 32 -128q2 -6 2 -9q0 -8 -5.5 -14t-13.5 -6
q-12 0 -18 11q-38 71 -38 142q0 78 42.5 141t113.5 63q50 0 86 -34t50.5 -77t19.5 -92q82 120 173 120q62 -3 92.5 -52t30.5 -112q0 -72 -60.5 -175.5t-146 -180t-148.5 -76.5q-59 0 -114 97q-55 -64 -65 -84q-4 -12 -18 -12q-8 0 -14 6.5t-6 14.5q0 7 6.5 19.5t18 27
t21.5 26t22 25t15 16.5q-9 19 -34 81.5t-25 69.5q0 8 5.5 14.5t14.5 6.5q13 0 18 -12q37 -98 49 -125q76 92 109 161q7 12 19 12q8 0 13.5 -6t5.5 -14q0 -3 -2 -9q-35 -75 -126 -185q47 -90 86 -90z" />
    <glyph glyph-name="x.ss02" unicode="&#xe040;" horiz-adv-x="506" 
d="M221 40q63 0 120.5 49.5t91.5 124.5t34 150q0 96 -38 160t-112 64q-10 0 -14 -1q4 -15 4 -34q0 -35 -14.5 -65.5t-46.5 -30.5q-21 0 -33.5 16.5t-12.5 39.5q0 50 47 92q-30 24 -74 24q-39 0 -75.5 -18t-59.5 -52q-6 -8 -16 -8q-8 0 -14 6t-6 14q0 7 4 12q28 40 73 63.5
t95 23.5q73 0 109 -46q18 5 35 5q92 0 140.5 -78t48.5 -193q0 -85 -37.5 -167.5t-104.5 -136.5t-144 -54q-89 0 -144 97q-55 -64 -65 -84q-4 -12 -18 -12q-8 0 -14 6.5t-6 14.5q0 7 6.5 19.5t18 27t21.5 26t22 25t15 16.5q-9 19 -34 81.5t-25 69.5q0 8 5.5 14.5t14.5 6.5
q13 0 18 -12q37 -98 49 -125q76 92 109 161q7 12 19 12q8 0 13.5 -6t5.5 -14q0 -3 -2 -9q-35 -75 -126 -185q20 -38 52.5 -64t64.5 -26zM248 497q20 5 20 55q0 6 -2 16q-27 -27 -27 -56q0 -15 9 -15z" />
    <glyph glyph-name="i.ss02" unicode="&#xe041;" horiz-adv-x="364" 
d="M-5 467q0 4 1 7.5t1 4.5t-2 5.5t-2 9.5q0 7 5.5 13.5t14.5 6.5q24 0 24 -35q0 -32 -22 -32q-20 0 -20 20zM134 0q-41 0 -70 24.5t-42.5 64t-19 75t-5.5 72.5q0 35 1 53q2 19 21 19t19 -21q-1 -17 -1 -51q0 -22 4 -50t13.5 -63.5t30.5 -59t50 -23.5q62 0 106 50.5t63 122
t19 151.5q0 96 -38 160t-112 64q-10 0 -14 -1q4 -15 4 -34q0 -35 -14.5 -65.5t-46.5 -30.5q-21 0 -33.5 16.5t-12.5 39.5q0 50 47 92q-30 24 -74 24q-39 0 -75.5 -18t-59.5 -52q-6 -8 -16 -8q-8 0 -14 6t-6 14q0 7 4 12q28 40 73 63.5t95 23.5q73 0 109 -46q18 5 35 5
q92 0 140.5 -78t48.5 -193q0 -66 -14 -128t-40.5 -114.5t-72 -84t-102.5 -31.5zM104 497q20 5 20 55q0 6 -2 16q-27 -27 -27 -56q0 -15 9 -15z" />
    <glyph glyph-name="d.ss02" unicode="&#xe042;" horiz-adv-x="571" 
d="M292 0q-92 0 -121 92q-9 -33 -36 -63t-61 -30q-53 0 -80 46t-27 114q0 80 34.5 141.5t92.5 61.5q27 0 51 -19v6q0 182 11 260q-33 -18 -56 -50q-6 -8 -16 -8q-8 0 -14 6t-6 14q0 7 4 12q38 53 99 74q13 40 35 40t35 -27q72 -2 108 -46q18 5 35 5q92 0 140.5 -78
t48.5 -193q0 -86 -35.5 -168t-100.5 -136t-141 -54zM309 605q-26 20 -59 23q6 -32 6 -71q0 -73 -23 -152t-47 -116q0 -38 3.5 -73t13 -79t32 -70.5t56.5 -26.5q63 0 119 49.5t87.5 124t31.5 150.5q0 96 -38 160t-112 64q-10 0 -14 -1q4 -15 4 -34q0 -35 -14.5 -65.5
t-46.5 -30.5q-21 0 -33.5 16.5t-12.5 39.5q0 50 47 92zM74 39q37 0 57.5 54t20.5 101q0 128 -62 128q-34 0 -58.5 -54.5t-24.5 -117.5q0 -48 17 -79.5t50 -31.5zM216 545q0 52 -7 82q-6 -2 -10 -2q-13 -93 -13 -239q30 87 30 159zM310 497q20 5 20 55q0 6 -2 16
q-27 -27 -27 -56q0 -15 9 -15z" />
    <glyph glyph-name="g.ss02" unicode="&#xe043;" horiz-adv-x="450" 
d="M43 -213q33 0 61.5 49t32.5 95q-1 -1 -17.5 -15t-23.5 -20t-21.5 -21t-21.5 -25.5t-13.5 -24t-6.5 -25.5q0 -13 10 -13zM182 -33q-5 -68 -27 -119q-19 -45 -48.5 -73t-63.5 -28q-21 0 -34.5 13t-15.5 35q0 20 8 40.5t16 35t28.5 34.5t30 28t36 29t32.5 26q4 39 5 61
q-32 -49 -74 -49q-53 0 -80 46t-27 114q0 80 34.5 141.5t92.5 61.5q37 0 63 -31.5t26 -70.5q0 -20 -19 -20q-17 0 -20 16q-15 66 -54 66q-34 0 -58.5 -54.5t-24.5 -117.5q0 -48 17 -79.5t50 -31.5q60 0 78 157q2 18 20 18q20 0 20 -18q0 -98 -6 -176q86 56 154.5 159
t68.5 214q0 95 -26.5 144.5t-93.5 49.5q-10 0 -14 -1q4 -15 4 -34q0 -35 -14.5 -65.5t-46.5 -30.5q-21 0 -33.5 16.5t-12.5 39.5q0 50 47 92q-30 24 -74 24q-39 0 -75.5 -18t-59.5 -52q-6 -8 -16 -8q-8 0 -14 6t-6 14q0 7 4 12q28 40 73 63.5t95 23.5q73 0 109 -46
q18 5 35 5q159 0 159 -241q0 -125 -79 -238t-189 -183zM221 497q20 5 20 55q0 6 -2 16q-27 -27 -27 -56q0 -15 9 -15z" />
    <glyph glyph-name="h.ss02" unicode="&#xe044;" horiz-adv-x="475" 
d="M263 0q-21 0 -39.5 8t-33 26t-25 34t-19.5 46t-14.5 47t-11 52.5t-7.5 46t-6 43.5q-25 -58 -40.5 -141.5t-18.5 -142.5q-2 -19 -20 -19q-19 0 -21 18q-7 74 -7 192v290v54q-3 -3 -10 -3q-8 0 -14 6t-6 14q0 7 4 12q16 21 30 34q10 80 44 80q22 0 36 -36q27 9 58 9
q73 0 109 -46q18 5 35 5q92 0 140.5 -78t48.5 -193q0 -68 -11 -128.5t-34.5 -113.5t-66.5 -84.5t-100 -31.5zM141 629q-21 0 -47 -7q5 -38 5 -82q0 -126 -59 -250v-63q7 29 12.5 46t14.5 41.5t21 36.5t25 12q10 0 16.5 -5.5t10.5 -19.5t6.5 -25.5t6 -35.5t6.5 -38
q8 -44 14.5 -71.5t19 -61t30 -50t40.5 -16.5q47 0 81.5 29t53.5 77t28 103t9 115q0 96 -38 160t-112 64q-10 0 -14 -1q4 -15 4 -34q0 -35 -14.5 -65.5t-46.5 -30.5q-21 0 -33.5 16.5t-12.5 39.5q0 50 47 92q-30 24 -74 24zM59 543q0 39 -4 62l-9 -6q-1 -22 -4 -189
q17 67 17 133zM216 497q20 5 20 55q0 6 -2 16q-27 -27 -27 -56q0 -15 9 -15z" />
    <glyph glyph-name="j.ss02" unicode="&#xe045;" horiz-adv-x="354" 
d="M-110 -213q33 0 61.5 49t32.5 95q-1 -1 -17.5 -15t-23.5 -20t-21.5 -21t-21.5 -25.5t-13.5 -24t-6.5 -25.5q0 -13 10 -13zM-9 467q0 4 1 7.5t1 4.5t-2 5.5t-2 9.5q0 7 5.5 13.5t14.5 6.5q24 0 24 -35q0 -32 -22 -32q-20 0 -20 20zM32 -29q-5 -65 -30 -123
q-19 -45 -48.5 -73t-63.5 -28q-21 0 -34.5 13t-15.5 35q0 20 8 40.5t16 35t28.5 34.5t30 28t36 29t32.5 26q9 108 9 219q0 54 -1 83q0 8 6 13t15 5q8 0 13.5 -6t5.5 -14q0 -15 0.5 -40t0.5 -36q0 -101 -8 -194q44 29 87.5 65t90.5 85.5t76 109t29 116.5q0 95 -26.5 144.5
t-93.5 49.5q-10 0 -14 -1q4 -15 4 -34q0 -35 -14.5 -65.5t-46.5 -30.5q-21 0 -33.5 16.5t-12.5 39.5q0 50 47 92q-30 24 -74 24q-39 0 -75.5 -18t-59.5 -52q-6 -8 -16 -8q-8 0 -14 6t-6 14q0 7 4 12q28 40 73 63.5t95 23.5q73 0 109 -46q18 5 35 5q159 0 159 -241
q0 -64 -31 -128t-83 -118.5t-102 -94.5t-107 -76zM126 497q20 5 20 55q0 6 -2 16q-27 -27 -27 -56q0 -15 9 -15z" />
    <glyph glyph-name="k.ss02" unicode="&#xe046;" horiz-adv-x="413" 
d="M48 697q20 0 32 -27h2q73 0 109 -46q18 5 35 5q92 0 140.5 -78t48.5 -193q0 -86 -32.5 -167.5t-95 -136t-138.5 -54.5q-28 0 -59 15.5t-46 38.5l4 -35q-2 -19 -20 -19q-19 0 -21 18q-7 74 -7 192v290q0 78 4 110q-35 -19 -58 -51q-6 -8 -16 -8q-8 0 -14 6t-6 14q0 7 4 12
q38 53 98 74q11 40 36 40zM149 40q93 0 159.5 102.5t66.5 221.5q0 96 -38 160t-112 64q-10 0 -14 -1q4 -15 4 -34q0 -35 -14.5 -65.5t-46.5 -30.5q-21 0 -33.5 16.5t-12.5 39.5q0 50 47 92q-27 21 -63 24q7 -37 7 -89q0 -91 -32 -183q37 0 58.5 -28.5t21.5 -65.5
q0 -76 -80 -162q8 -20 33 -40.5t49 -20.5zM55 148q52 63 52 114q0 20 -9.5 37.5t-29.5 17.5q-19 0 -19 -81q0 -50 6 -88zM59 543q0 51 -7 83q-3 0 -4 -1q-4 -52 -6 -215q17 67 17 133zM156 497q20 5 20 55q0 6 -2 16q-27 -27 -27 -56q0 -15 9 -15z" />
    </font>
</defs>
</svg>
