<svg xmlns="http://www.w3.org/2000/svg" width="78" height="89" viewBox="0 0 78 89">
    <g fill="none" fill-rule="nonzero">
        <path fill="#36F" d="M28.147 16H4.853C2.725 16 1 17.79 1 20s1.725 4 3.853 4h23.294C30.275 24 32 22.21 32 20s-1.725-4-3.853-4"/>
        <path fill="#7CCC33" d="M67.122 16H43.878C41.736 16 40 17.79 40 20s1.736 4 3.878 4h23.244C69.264 24 71 22.21 71 20s-1.736-4-3.878-4"/>
        <path fill="#47B5BD" d="M45.147 0H21.853C19.725 0 18 1.79 18 4s1.725 4 3.853 4h23.294C47.275 8 49 6.21 49 4s-1.725-4-3.853-4"/>
        <path fill="#F66" d="M8.228 0H3.772C1.69 0 0 1.79 0 4s1.689 4 3.772 4h4.456C10.31 8 12 6.21 12 4s-1.689-4-3.772-4"/>
        <path fill="#FFD900" d="M46.228 81h-4.456C39.69 81 38 82.79 38 85s1.689 4 3.772 4h4.456C48.31 89 50 87.21 50 85s-1.689-4-3.772-4"/>
        <path fill="#36F" d="M27.221 81H22.78C20.692 81 19 82.79 19 85s1.692 4 3.779 4h4.442C29.308 89 31 87.21 31 85s-1.692-4-3.779-4"/>
        <path fill="#7CCC33" d="M8.224 81H3.776C1.691 81 0 82.79 0 85s1.69 4 3.776 4h4.448C10.309 89 12 87.21 12 85s-1.69-4-3.776-4"/>
        <path fill="#4E4E4E" d="M34.157 65H3.843C1.72 65 0 66.79 0 69s1.72 4 3.843 4h30.314C36.28 73 38 71.21 38 69s-1.72-4-3.843-4"/>
        <path fill="#7CCC33" d="M50.245 65H45.78C43.692 65 42 66.79 42 69c0 2.222 2.004 4 4.087 4h4.465c2.1 0 3.448-1.778 3.448-4 0-2.21-1.692-4-3.78-4"/>
        <path fill="#F66" d="M66.245 65H61.78C59.692 65 58 66.79 58 69c0 2.222 2.008 4 4.087 4h4.465c2.1 0 3.448-1.778 3.448-4 0-2.21-1.692-4-3.78-4"/>
        <path fill="#FFD900" d="M28.17 49H3.83C1.716 49 0 50.79 0 53s1.715 4 3.83 4h24.34c2.115 0 3.83-1.79 3.83-4s-1.715-4-3.83-4"/>
        <path fill="#47B5BD" d="M53.233 49H40.767C38.687 49 37 50.79 37 53s1.687 4 3.767 4h12.466C55.313 57 57 55.21 57 53s-1.687-4-3.767-4"/>
        <path fill="#36F" d="M74.228 49h-4.456C67.69 49 66 50.79 66 53s1.689 4 3.772 4h4.456C76.31 57 78 55.21 78 53s-1.689-4-3.772-4"/>
        <path fill="#F66" d="M56.157 32H25.843C23.72 32 22 33.79 22 36s1.72 4 3.843 4h30.314C58.28 40 60 38.21 60 36s-1.72-4-3.843-4"/>
        <path fill="#4E4E4E" d="M9.228 32H4.772C2.69 32 1 33.79 1 36s1.689 4 3.772 4h4.456C11.31 40 13 38.21 13 36s-1.689-4-3.772-4"/>
        <path fill="#FFD900" d="M74.228 32h-4.456C67.69 32 66 33.79 66 36s1.689 4 3.772 4h4.456C76.31 40 78 38.21 78 36s-1.689-4-3.772-4"/>
    </g>
</svg>
