<?xml version="1.0" encoding="utf-8"?>
<!-- Generator: Adobe Illustrator 21.0.0, SVG Export Plug-In . SVG Version: 6.00 Build 0)  -->
<svg version="1.1" id="Layer_1" xmlns="http://www.w3.org/2000/svg" xmlns:xlink="http://www.w3.org/1999/xlink" x="0px" y="0px"
	 viewBox="0 0 70.2 70.2" style="enable-background:new 0 0 70.2 70.2;" xml:space="preserve">
<g>
	<path d="M31.7,64.8c-0.4,0-0.8,0-1.2-0.1c-2.1-0.3-3.9-1.5-4.9-3l-0.1-0.1c-1-2.1-3.8-3.6-6.1-3.1l-0.1,0c-1.8,0.2-3.8-0.7-5.3-2.2
		c-1.5-1.5-2.3-3.5-2.2-5.3l0-0.1c0.4-2.3-1-5.1-3.1-6.1l-0.1-0.1c-1.6-1-2.7-2.8-3-4.9c-0.3-2.1,0.2-4.2,1.4-5.6L7,34.1
		c1.7-1.5,2.2-4.8,1.1-6.7L8,27.2c-0.7-1.7-0.6-3.8,0.4-5.7c1-1.9,2.6-3.3,4.4-3.7l0.1,0c2.3-0.2,4.6-2.5,4.8-4.8l0-0.1
		c0.4-1.8,1.8-3.4,3.7-4.4c1.9-1,4.1-1.1,5.7-0.4l0.1,0.1c2,1.1,5.2,0.6,6.7-1.1l0.1-0.1c1.4-1.2,3.4-1.7,5.5-1.4
		c2.1,0.3,3.9,1.5,4.9,3l0.1,0.1c1,2.1,3.8,3.6,6.1,3.1l0.1,0c1.8-0.2,3.8,0.7,5.3,2.2c1.5,1.5,2.3,3.5,2.2,5.3l0,0.1
		c-0.4,2.3,1,5.1,3.1,6.1l0.1,0.1c1.6,1,2.7,2.8,3,4.9c0.3,2.1-0.2,4.2-1.4,5.5l-0.1,0.1c-1.7,1.5-2.2,4.8-1.1,6.7l0.1,0.1
		c0.7,1.7,0.6,3.8-0.4,5.7c-1,1.9-2.6,3.3-4.4,3.7l-0.1,0c-2.3,0.2-4.6,2.5-4.8,4.8l0,0.1c-0.4,1.8-1.8,3.4-3.7,4.4
		c-1.9,1-4.1,1.1-5.7,0.4l-0.1-0.1c-2-1.1-5.2-0.6-6.7,1.1L36,63.3C34.9,64.3,33.3,64.8,31.7,64.8z M27.9,60.3
		c0.6,0.9,1.7,1.5,3,1.7c1.3,0.2,2.5-0.1,3.3-0.7c2.4-2.6,6.9-3.3,9.9-1.6c0.9,0.4,2.2,0.2,3.4-0.4c1.2-0.6,2-1.6,2.3-2.5
		c0.4-3.5,3.6-6.7,7.1-7.1c1-0.2,1.9-1.1,2.5-2.3c0.6-1.2,0.7-2.5,0.4-3.4c-1.7-3-1-7.5,1.6-9.9c0.6-0.8,0.9-2,0.7-3.3
		c-0.2-1.3-0.8-2.4-1.7-3c-3.2-1.5-5.2-5.5-4.6-8.9c0.1-1-0.5-2.2-1.4-3.1c-0.9-0.9-2.1-1.4-3.1-1.4c-3.5,0.6-7.4-1.4-8.9-4.6
		c-0.6-0.9-1.7-1.5-3-1.7C38.1,8,36.8,8.2,36,8.9c-2.4,2.6-6.9,3.3-9.9,1.6c-0.9-0.4-2.2-0.2-3.4,0.4c-1.2,0.6-2,1.6-2.3,2.5
		c-0.4,3.5-3.6,6.7-7.1,7.1c-1,0.2-1.9,1.1-2.5,2.3c-0.6,1.2-0.7,2.5-0.4,3.4c1.7,3,1,7.5-1.6,9.9c-0.6,0.8-0.9,2-0.7,3.3
		c0.2,1.3,0.8,2.4,1.7,3c3.2,1.5,5.2,5.5,4.6,8.9c-0.1,1,0.5,2.2,1.4,3.1c0.9,0.9,2.1,1.4,3.1,1.4C22.4,55.1,26.4,57.2,27.9,60.3z"
		/>
	<path d="M36.4,37.6c1.1,0,2.1-0.4,2.1-1.7c0-1.3-1-1.7-2.1-1.7H34c-0.9-1.6-1.9-2.9-1.9-4.7c0-1.9,1.5-3.1,3.4-3.1
		c1.4,0,2.5,0.6,3.3,1.8c0.7,1.2,0.6,3.1,2.8,3.1c1.4,0,2.3-1,2.3-2.4c0-0.9-0.3-2-0.8-2.8c-1.5-3-4.5-4-7.7-4c-4.2,0-8.2,2.5-8.2,7
		c0,1.9,0.7,3.5,1.6,5.2c-1.2,0-2.7,0-2.7,1.7c0,1.2,0.8,1.7,1.9,1.7h2.4c0.7,1.2,0.8,1.5,1,2.9c-0.8-0.3-1.5-0.5-2.4-0.5
		c-2.4,0-4.3,1.6-4.3,4.1c0,2.6,2.2,4.1,4.6,4.1c1.5,0,3-0.5,4.1-1.6c1.6,1,3.4,1.7,5.2,1.7c4.6,0,5.8-4.3,5.8-6.4
		c0-1.5-0.9-2.6-2.4-2.6c-0.8,0-1.4,0.3-1.8,1c-0.4,0.6-0.3,1.4-0.6,2.1c-0.4,0.9-1.1,1.4-2,1.4c-1,0-1.7-0.5-2.4-1
		c0.2-0.8,0.4-1.6,0.4-2.4c0-0.9-0.1-1.7-0.4-2.6C35.3,37.6,36.4,37.6,36.4,37.6z M31,44.1c0,0.8-0.7,1.1-1.4,1.1
		c-0.7,0-1.4-0.3-1.4-1.1c0-0.7,0.6-1.1,1.3-1.1C30.2,43,31,43.3,31,44.1z"/>
	<path d="M35.1,70.2C15.7,70.2,0,54.5,0,35.1C0,15.7,15.7,0,35.1,0c19.4,0,35.1,15.7,35.1,35.1C70.2,54.5,54.5,70.2,35.1,70.2z
		 M35.1,2.7C17.2,2.7,2.7,17.2,2.7,35.1c0,17.9,14.5,32.4,32.4,32.4S67.5,53,67.5,35.1C67.5,17.2,53,2.7,35.1,2.7z"/>
</g>
</svg>
