<svg xmlns="http://www.w3.org/2000/svg" width="88" height="75" viewBox="0 0 88 75">
    <path fill="#000" fill-rule="nonzero" d="M81.643 57.77c-3.904-.472-16.045-.83-22.596-1.01.95-1.762 1.689-3.588 2.098-5.515 1.76-8.29-2.012-18.072-10.074-26.204 1.668-1.923 2.628-4.415 2.77-7.35.272-5.56-2.965-11.422-8.251-14.935-5.084-3.387-12.17-3.497-17.23-.269-4.13 2.641-6.347 7.057-6.391 12.378-1.211-.512-2.18-.88-2.737-1.05-5.338-1.632-8.85.364-11.832 2.769C3.033 20.105-.992 25.9 2.035 30.637c.319.498.817 1.033 1.487 1.5C-.603 35.93-.206 43.963.668 50.662 1.99 60.785 5.954 67.88 12.451 71.747c4.12 2.454 8.667 3.223 12.753 3.223 6.656 0 12.088-2.042 12.451-2.18.644-.247 1.211-.52 1.83-.777 1.69 1.505 4.992 2.151 10.274 2.151 5.728 0 13.781-.76 24.624-2.011 2.689-.311 5.13-.592 7.117-.787 3.595-.348 6.134-3.11 6.174-6.72.042-3.62-2.439-6.446-6.03-6.876zM30.887 6.44c3.537-2.268 8.52-2.17 12.109.216 3.226 2.149 6.384 6.32 6.164 10.803-.119 2.408-.985 4.23-2.575 5.411-1.991 1.482-5.184 1.92-8.396 1.22-3.524-2.737-7.765-5.17-11.41-6.994-.626-4.772.812-8.552 4.108-10.657zM17.319 29.82c4.08 1.88 10.792 5.097 15.084 9.331.121.12.272.181.41.269 1.17 3.244 1.855 7.451 1.855 11.679-.07.772-2.414 3.088-5.854 3.87-2.346.53-6.839.326-7.876-.37-.922-.616-1.697-4.275-2.03-5.838-.164-.781-.314-1.48-.466-2.026a50.653 50.653 0 0 1-.406-1.679c-1.123-4.834-2.536-9.97-5.14-12.826 1.7-.639 3.251-1.493 4.423-2.41zm18.655 38.595c-.125.048-12.232 4.605-21.124-.696-5.2-3.095-8.408-9.036-9.531-17.664-1.065-8.148-.555-13.089 1.523-14.676.75-.576 1.349-.796 1.77-.644 2.414.867 4.254 8.78 4.858 11.38.177.763.327 1.404.455 1.865.128.47.256 1.08.4 1.755.668 3.155 1.501 7.083 4.007 8.758 2.911 1.95 9.338 1.545 11.52 1.047 4.565-1.038 9.497-4.553 9.503-8.429 0-2.939-.302-8.655-2.331-13.885a2.323 2.323 0 0 0-1.255-1.3c-.031-.035-.042-.08-.076-.113-5.157-5.09-13-8.689-17.215-10.62l-.61-.281c-.062-.028-.128-.022-.19-.044a2.249 2.249 0 0 0-.47-.108 2.306 2.306 0 0 0-.402-.029 2.275 2.275 0 0 0-.49.08 2.296 2.296 0 0 0-.37.119 2.28 2.28 0 0 0-.412.248c-.12.085-.23.173-.333.282-.048.05-.112.076-.156.132-.964 1.227-4.978 3.092-7.684 3.006-.412-.021-1.136-.11-1.377-.488-1.254-1.962 1.859-5.862 4.358-7.877 2.884-2.325 4.715-2.792 7.523-1.934 4.077 1.242 18.866 8.55 22.247 14.428a2.344 2.344 0 0 0 4.065-2.337c-.271-.472-.593-.941-.944-1.408a14.037 14.037 0 0 0 4.124-1.173c.087.133.146.279.262.396 2.637 2.636 11.075 12.017 8.942 22.067-1.569 7.391-8.496 13.495-20.587 18.143zm45.074-1.712c-2.014.195-4.483.479-7.202.793-7.14.822-22.236 2.56-28.585 1.797 4.387-2.355 7.91-5 10.532-7.932l1.561.044c5.896.158 19.706.534 23.73 1.019 1.786.214 1.908 1.712 1.902 2.167-.003.451-.159 1.938-1.938 2.112z"/>
</svg>
