<svg xmlns="http://www.w3.org/2000/svg" width="347" height="461" viewBox="0 0 347 461">
    <g fill="none" fill-rule="evenodd">
        <path fill="#FFB973" fill-rule="nonzero" d="M335.033 71.666h-.228-51.537c-.076 0-.228 0-.304-.076-4.72-.453-8.374-4.376-8.374-9.055 0-4.98 4.11-8.979 9.135-9.054 2.055-4.83 6.927-8.074 12.332-8.074 2.74-7.923 10.505-13.431 19.031-13.431 9.82 0 18.194 7.017 19.869 16.449h.076c6.394 0 11.647 5.206 11.647 11.545 0 6.338-5.253 11.696-11.647 11.696zM170.1 265.64s-40.802 24.573-50.165 21.16c-9.363-3.413-.457-24.119 4.491-40.046 2.36-7.585 6.014-20.555 8.602-29.808a12.585 12.585 0 0 1 14.235-9.026l12.484 2.048s-1.75 4.4-6.546 20.479c-4.796 16.08 6.013 8.95 6.013 8.95l9.287-6.75 1.599 32.992z"/>
        <path fill="#FD8400" fill-rule="nonzero" d="M254.378 213.95c-5.785-7.754-28.012-21.133-33.874-11.935-5.861 9.198-28.85 27.595-28.85 27.595l-7.688-32.08c-.533-2.128-2.74-3.269-4.796-2.509-5.252 2.053-13.702 5.626-13.93 6.006.685.532 5.861 7.146 6.546 10.262.61 3.041 1.675 14.9 1.523 23.718-.076 4.865 2.664 71.989 2.664 71.989 5.633 21.97 8.374 16.192 8.374 16.192l17.508-13.303 53.97 20.98c-.761-.38-6.318-4.637 3.577-50.855 10.505-49.184.762-58.382-5.024-66.06z"/>
        <path stroke="#2B231D" stroke-linecap="round" stroke-linejoin="round" stroke-width="3.24" d="M255.793 330.866s-3.362-7.67 9.17-55.438c3.821-14.58 8.483-45.489-5.272-61.817-13.755-16.327-31.637-13.669-32.401-11.619-11.845 18.606-37.75 35.465-37.75 35.465M225.42 320.336l81.57 32.335-105.3 100.505"/>
        <path stroke="#2B231D" stroke-linecap="round" stroke-linejoin="round" stroke-width="3.24" d="M159.57 202.076s7.102 5.175 7.866 11.645c.763 6.47 2.443 68.958 5.269 82.125 2.825 13.091 7.713 29.151 11.378 27.629 3.666-1.522 54.831-40.949 70.257-69.339M195.21 283.886s11.872-42.42 32.4-48.6"/>
        <path stroke="#2B231D" stroke-linecap="round" stroke-linejoin="round" stroke-width="3.24" d="M170.1 265.81c-4.67.915-50.839 28.154-52.983 19.685-2.22-8.47 3.293-29.833 16.768-56.69 13.475-26.858 17.61-37.769 17.61-37.769s-8.422-15.565-6.432-17.167c1.915-1.602 9.724 10.758 9.724 10.758M189.54 237.716l-11.704-43.169s2.065-21.318 4.513-24.884c2.448-3.566-4.896-7.587-6.579 1.517M170.1 179.396s-7.953-22.816-10.4-20.012c-2.447 2.73.841 14.933 3.67 20.012 0 0-11.01-17.51-15.14-13.872M192.809 157.887s-.777-6.764 5.75-6.84c6.529-.078 3.887 7.839-.31 21.059M151.87 153.665c-1.591.841-14.626 5.352-18.642 15.599-4.017 10.246-3.259-10.094 2.425-15.6 5.683-5.505-10.913 3.671-10.913 3.671s3.259-1.682 5.684-11.164c2.425-9.481-14.626-25.692 7.881-22.174 22.507 3.517 31.829 6.346 35.845 2.752"/>
        <path stroke="#2B231D" stroke-linecap="round" stroke-linejoin="round" stroke-width="3.24" d="M162 123.955s14.239-15.223 39.519-10.906c-2.056-6.286 11.422-10.603 11.422-10.603s-6.93.681-3.655 10.754c3.274 10.074 8.147 6.135 7.31 19.465-.838 13.33-5.102 35.673 1.294 46.73M155.798 219.896l-6.758 29.97 9.72-10.753M52.999 303.981l37.834 15.729 24.187 72.716-87.573-40.272L0 281.034l42.687 17.932 47.767-32.9 14.71 5.546"/>
        <path fill="#2B231D" fill-rule="nonzero" d="M221.244 381.996c-.613-.075-.996-.604-1.073-1.21-.153-.83-1.455-2.04-7.047-3.4-5.591-1.362-7.506-.757-8.042-.076-.46.604-1.15.907-1.915.756l-2.451-.454c-1.15-.227-1.762-1.36-1.303-2.343l16.01-37.646c.306-.756 1.225-1.21 2.067-1.058l22.443 4.535c1.072.227 1.762 1.285 1.302 2.344L226.3 381.543c-.306.831-1.149 1.285-2.068 1.134l-2.987-.68z"/>
        <path stroke="#2B231D" stroke-linecap="round" stroke-linejoin="round" stroke-width="3.24" d="M313.47 228.806c.676-.305 9.016-65.078 9.016-65.078l8.716 8.82 15.478-53.902-9.317 73.44-7.288-12.62-16.605 49.34zM42.928 181.016c.231-.457-18.127-25.643-18.127-25.643l7.79-.457-10.721-24.12L42.774 159.1l-8.562.38 8.716 21.535zM165.24 72.397l-5.777-46.054-6.932 12.104L140.13.386l4.16 55.873 8.395-8.678 10.937 36.235M274.136 128.366s-1.262 2.77-2.674 5.925c-1.931 4.309-3.565 9.465 2.749 9.465 6.165 0 4.68-5.08 2.748-9.388-1.486-3.232-2.823-6.002-2.823-6.002zM277.796 96.776s-.894 3.029-1.938 6.524c-1.416 4.816-2.608 10.486 2.013 10.486 4.471 0 3.353-5.593 2.012-10.33-1.043-3.651-2.087-6.68-2.087-6.68zM72.056 72.476s-.894 3.029-1.938 6.524c-1.416 4.816-2.608 10.486 2.013 10.486 4.471 0 3.353-5.593 2.012-10.33-1.118-3.651-2.087-6.68-2.087-6.68zM255.506 104.066s-1.262 3.029-2.674 6.524c-1.931 4.816-3.565 10.486 2.749 10.486 6.165 0 4.68-5.593 2.748-10.33a162.793 162.793 0 0 0-2.823-6.68z"/>
        <path fill="#FD8400" fill-rule="nonzero" d="M57.866 65.186s-1.262 3.029-2.674 6.524c-1.931 4.816-3.565 10.486 2.749 10.486 6.165 0 4.68-5.593 2.748-10.33a278.37 278.37 0 0 0-2.823-6.68z"/>
        <path fill="#FFB973" fill-rule="nonzero" d="M64.8 92.726s-.67 1.633-1.49 3.415c-1.044 2.525-1.939 5.495 1.49 5.495 3.429 0 2.534-2.97 1.49-5.42-.745-1.857-1.49-3.49-1.49-3.49z"/>
        <path fill="#FD8400" fill-rule="nonzero" d="M330.026 84.626s-1.262 3.029-2.674 6.524c-1.931 4.816-3.565 10.486 2.749 10.486 6.165 0 4.68-5.593 2.748-10.33-1.486-3.651-2.823-6.68-2.823-6.68zM313.826 95.156s-1.262 3.029-2.674 6.524c-1.931 4.816-3.565 10.486 2.749 10.486 6.165 0 4.68-5.593 2.748-10.33-1.486-3.651-2.823-6.68-2.823-6.68z"/>
        <path stroke="#2B231D" stroke-linecap="round" stroke-linejoin="round" stroke-width="3.24" d="M126.354 385.946l44.556-30.687-59.13-25.203"/>
        <circle cx="195.615" cy="458.441" r="2.025" fill="#2B231D" fill-rule="nonzero"/>
        <ellipse cx="214.005" cy="374.631" fill="#FFF" fill-rule="nonzero" rx="1" ry="1" transform="rotate(-78.942 214.005 374.63)"/>
        <path fill="#1F1D1D" fill-rule="nonzero" stroke="#2B231D" stroke-width=".5" d="M295.822 87.866h-64c-.152 0-.227 0-.38-.076-5.838-.532-10.312-5.465-10.312-11.233 0-6.224 5.08-11.233 11.299-11.31 2.578-6.071 8.568-10.018 15.241-10.018 3.413-9.867 12.967-16.773 23.583-16.773 12.133 0 22.522 8.728 24.57 20.492h.075c7.886 0 14.332 6.452 14.332 14.497a14.36 14.36 0 0 1-14.408 14.42zm-.379-2.581s.076 0 0 0h.38c6.445 0 11.753-5.313 11.753-11.916 0-6.603-5.232-11.916-11.754-11.916-.379 0-.758 0-1.061.076-.683.076-1.365-.456-1.441-1.139-1.365-11.081-10.844-19.43-22.067-19.43-9.782 0-18.578 6.527-21.384 15.863-.151.607-.758.987-1.364.91h-.91c-5.84 0-11.147 3.72-13.043 9.185-.228.53-.758.91-1.365.834h-.683c-4.853 0-8.796 3.947-8.796 8.729 0 4.554 3.564 8.424 8.19 8.728H295.216c.151.076.227.076.227.076z"/>
        <path fill="#1F1D1D" fill-rule="nonzero" stroke="#2B231D" stroke-width=".81" d="M82.496 59.516H50.63h-.153c-4.116 0-7.547-3.245-7.547-7.245 0-3.924 3.278-7.17 7.319-7.245 1.143-5.66 6.403-9.81 12.578-9.81 5.413 0 10.216 3.245 12.046 7.999 3.278.075 6.25 1.962 7.623 4.83 3.202.15 5.794 2.641 5.794 5.735 0 2.943-2.363 5.434-5.489 5.736h-.305zm-31.79-1.887H82.42c2.134-.151 3.812-1.811 3.812-3.849 0-2.113-1.83-3.849-4.04-3.849h-.306c-.457.076-.838-.226-.99-.603-.916-2.49-3.431-4.151-6.252-4.151h-.458c-.457 0-.914-.226-.99-.68-1.373-4.3-5.642-7.32-10.369-7.32-5.489 0-10.063 3.85-10.749 8.981-.076.528-.533.906-1.067.83h-.534c-3.05 0-5.565 2.415-5.565 5.358 0 2.943 2.516 5.358 5.565 5.358h.153c0-.15.076-.15.076-.075z"/>
    </g>
</svg>
