<svg xmlns="http://www.w3.org/2000/svg" xmlns:xlink="http://www.w3.org/1999/xlink" width="66" height="67" viewBox="0 0 66 67">
    <defs>
        <path id="prefix__a" d="M0 0L65.391 0 65.391 67 0 67z"/>
    </defs>
    <g fill="none" fill-rule="evenodd">
        <path fill="#000" d="M33 50.605c-9.146 0-16.604-7.442-16.604-16.606 0-9.147 7.443-16.604 16.604-16.604S49.604 24.852 49.604 34c0 9.15-7.456 16.606-16.604 16.606M33 14c-11.031 0-20 8.967-20 20 0 11.019 8.969 20 20 20 11.034 0 20-8.982 20-20 0-11.033-8.966-20-20-20"/>
        <mask id="prefix__b" fill="#fff">
            <use xlink:href="#prefix__a"/>
        </mask>
        <path fill="#000" d="M61.997 39.978a2.218 2.218 0 01-1.092 1.468l-1.762.988a5.586 5.586 0 00-2.773 5.893l.37 1.989a2.194 2.194 0 01-.437 1.782c-.396.508-.97.81-1.625.85l-2.008.124a5.56 5.56 0 00-5.053 4.1l-.531 1.947a2.224 2.224 0 01-2.144 1.644c-.29 0-.574-.054-.849-.164l-1.87-.768a5.66 5.66 0 00-2.118-.426c-1.61 0-3.14.7-4.205 1.92l-1.326 1.523a2.19 2.19 0 01-1.68.766c-.64 0-1.229-.26-1.651-.739l-1.352-1.509a5.578 5.578 0 00-4.152-1.864 5.48 5.48 0 00-2.2.453l-1.857.793a2.16 2.16 0 01-.873.18c-.985 0-1.857-.66-2.132-1.605l-.558-1.946a5.585 5.585 0 00-5.11-4.03l-2.021-.083a2.153 2.153 0 01-1.626-.823 2.195 2.195 0 01-.463-1.768l.34-2.001a5.582 5.582 0 00-2.867-5.855l-1.774-.96c-.574-.3-.97-.822-1.121-1.454a2.157 2.157 0 01.355-1.794l1.16-1.66a5.592 5.592 0 00-.053-6.525l-1.188-1.63a2.16 2.16 0 01-.37-1.797 2.215 2.215 0 011.094-1.466l1.762-.987a5.584 5.584 0 002.771-5.896l-.355-1.974a2.197 2.197 0 01.437-1.783 2.2 2.2 0 011.625-.848l2.008-.124a5.58 5.58 0 005.053-4.1l.532-1.96A2.224 2.224 0 0121.3 6.378l1.872.767a5.64 5.64 0 002.116.425c1.611 0 3.141-.7 4.205-1.92l1.326-1.52a2.186 2.186 0 011.68-.77c.64 0 1.23.263 1.651.742l1.352 1.507a5.58 5.58 0 004.152 1.865 5.49 5.49 0 002.2-.454l1.858-.793a2.227 2.227 0 013.004 1.425l.559 1.948a5.588 5.588 0 005.11 4.03l2.02.083c.644.027 1.23.314 1.64.822.41.507.572 1.137.464 1.768l-.341 2.002a5.583 5.583 0 002.867 5.854l1.776.96c.574.3.97.822 1.119 1.453.15.63.029 1.276-.34 1.795l-1.16 1.66a5.594 5.594 0 00.054 6.526l1.188 1.63c.325.52.463 1.163.325 1.795m2.321-3.77l-1.189-1.645a2.229 2.229 0 01-.011-2.604l1.159-1.66a5.626 5.626 0 00.875-4.51 5.581 5.581 0 00-2.787-3.647l-1.775-.959a2.23 2.23 0 01-1.147-2.331l.34-2.001a5.653 5.653 0 00-1.16-4.442 5.575 5.575 0 00-4.083-2.07l-2.022-.083a2.208 2.208 0 01-2.035-1.605l-.586-1.934a5.596 5.596 0 00-5.354-4.03 5.55 5.55 0 00-2.2.453l-1.858.794c-.86.371-1.912.14-2.525-.56l-1.352-1.509A5.564 5.564 0 0032.472 0c-1.613 0-3.141.7-4.208 1.919l-1.31 1.536a2.252 2.252 0 01-2.527.603l-1.872-.766a5.64 5.64 0 00-2.116-.425A5.575 5.575 0 0015.07 6.98l-.533 1.96a2.22 2.22 0 01-2.02 1.631l-2.01.124a5.528 5.528 0 00-4.054 2.125 5.62 5.62 0 00-1.095 4.456l.37 1.988a2.233 2.233 0 01-1.107 2.358l-1.76.987A5.6 5.6 0 00.13 26.297a5.597 5.597 0 00.943 4.496l1.188 1.632c.56.77.574 1.823.012 2.604l-1.16 1.66A5.628 5.628 0 00.238 41.2a5.58 5.58 0 002.786 3.646l1.776.96a2.229 2.229 0 011.146 2.33l-.34 2.001a5.654 5.654 0 001.16 4.442 5.573 5.573 0 004.082 2.07l2.022.082a2.21 2.21 0 012.035 1.605l.559 1.946a5.596 5.596 0 005.354 4.03c.75 0 1.502-.15 2.199-.451l1.855-.795c.863-.37 1.915-.137 2.528.563l1.352 1.506A5.583 5.583 0 0032.893 67a5.585 5.585 0 004.209-1.919l1.323-1.536a2.253 2.253 0 012.526-.603l1.871.768a5.668 5.668 0 002.118.424 5.57 5.57 0 005.365-4.112l.533-1.961a2.227 2.227 0 012.023-1.632l2.02-.122a5.555 5.555 0 004.056-2.125 5.61 5.61 0 001.094-4.455l-.37-1.989a2.229 2.229 0 011.107-2.357l1.762-.989a5.603 5.603 0 001.788-8.183" mask="url(#prefix__b)"/>
        <path fill="#000" d="M38.034 27.489l-7.6 7.4-2.469-2.43a1.755 1.755 0 00-2.453 0 1.68 1.68 0 00-.013 2.402l3.701 3.64a1.759 1.759 0 002.454 0l8.834-8.597c.68-.667.68-1.736.015-2.402a1.786 1.786 0 00-2.469-.013"/>
    </g>
</svg>
