<svg xmlns="http://www.w3.org/2000/svg" xmlns:xlink="http://www.w3.org/1999/xlink" width="52" height="67" viewBox="0 0 52 67">
    <defs>
        <path id="prefix__a" d="M0 0L51.813 0 51.813 66.5 0 66.5z"/>
    </defs>
    <g fill="none" fill-rule="evenodd">
        <mask id="prefix__b" fill="#fff">
            <use xlink:href="#prefix__a"/>
        </mask>
        <path fill="#000" d="M37.702 62.86c-2.31-1.4-9.17-6.37-10.5-17.15 5.18-.98 8.68-3.36 10.5-4.83 1.82 1.47 5.32 3.85 10.5 4.83-1.4 10.78-8.19 15.68-10.5 17.15M5.082 50.33c-.91-.21-1.54-1.05-1.4-2.03l1.19-9.87c.7-5.67 5.53-10.01 11.27-10.01h9.24c5.39 0 9.94 3.78 11.06 8.96-.28.14-.56.28-.84.49-1.47 1.26-4.62 3.43-9.38 4.27-1.68.28-2.87 1.89-2.66 3.57.28 2.17.7 4.13 1.26 5.95-6.65.35-13.44-.07-19.74-1.33m5.04-36.12c0-5.81 4.76-10.57 10.57-10.57 5.81 0 10.57 4.76 10.57 10.57 0 5.81-4.76 10.57-10.57 10.57-5.81 0-10.57-4.76-10.57-10.57m39.06 27.93c-4.34-.77-7.35-2.66-8.96-3.92v-.21c-.7-6.16-5.11-10.99-10.85-12.6 3.36-2.59 5.6-6.65 5.6-11.2 0-7.84-6.37-14.21-14.21-14.21-7.84 0-14.21 6.37-14.21 14.21 0 4.55 2.24 8.61 5.6 11.2-5.67 1.61-10.08 6.44-10.85 12.6l-1.26 9.87c-.35 2.8 1.54 5.46 4.27 6.02a83.864 83.864 0 0016.38 1.61c1.89 0 3.71-.07 5.53-.21 3.15 6.44 7.91 9.73 9.73 10.78.49.28 1.05.42 1.68.42.56 0 1.12-.14 1.68-.42 2.52-1.47 10.99-7.35 12.46-20.3.28-1.75-.91-3.29-2.59-3.64" mask="url(#prefix__b)"/>
        <path fill="#000" d="M35.042 49.42c-.7-.7-1.82-.7-2.59 0-.7.7-.7 1.82 0 2.59l3.01 3.01c.35.35.77.56 1.26.56s.91-.21 1.26-.56l4.76-4.83c.7-.7.7-1.82 0-2.59-.7-.7-1.82-.7-2.59 0l-3.5 3.5-1.61-1.68z"/>
    </g>
</svg>
