<svg xmlns="http://www.w3.org/2000/svg" xmlns:xlink="http://www.w3.org/1999/xlink" width="67" height="67" viewBox="0 0 67 67">
    <defs>
        <path id="prefix__a" d="M0.051 0.188L11.77 0.188 11.77 11.906 0.051 11.906z"/>
        <path id="prefix__c" d="M0 0.131L22.908 0.131 22.908 25 0 25z"/>
        <path id="prefix__e" d="M0 67L67 67 67 0 0 0z"/>
    </defs>
    <g fill="none" fill-rule="evenodd">
        <path fill="#000" d="M39.332 40.095a5.487 5.487 0 00-2.59-3.19 5.5 5.5 0 10-7.48-8.065 5.5 5.5 0 000 8.065 5.489 5.489 0 00-2.59 3.19 8.799 8.799 0 01.222-12.443 8.8 8.8 0 0112.443.222 8.799 8.799 0 010 12.22h-.005zM33 36.2a3.3 3.3 0 110-6.6 3.3 3.3 0 010 6.6zm-4.39 5.414A3.299 3.299 0 0131.9 38.4h2.2a3.3 3.3 0 013.29 3.214 8.722 8.722 0 01-8.78 0zM33 23c-6.076 0-11 4.924-11 11 0 6.075 4.924 11 11 11s11-4.925 11-11c-.007-6.073-4.927-10.994-11-11zM63.386 11.333a4.353 4.353 0 00-1.372-1.727c.43-.565.666-1.257.668-1.97 0-1.808-1.45-3.273-3.236-3.273-1.787 0-3.236 1.465-3.236 3.272.003.71.238 1.4.667 1.964a4.353 4.353 0 00-1.372 1.726c-2.033-2.2-1.917-5.652.26-7.708a5.35 5.35 0 017.621.262 5.499 5.499 0 010 7.446v.008zm-6.053 1.32a2.158 2.158 0 012.548-1.698 2.169 2.169 0 011.678 1.698 5.313 5.313 0 01-4.226 0zm1.035-5.018c0-.602.482-1.09 1.078-1.09.595 0 1.079.488 1.079 1.09 0 .603-.484 1.091-1.08 1.091a1.085 1.085 0 01-1.077-1.09zM59.446 0c-4.165-.006-7.545 3.405-7.55 7.617a7.674 7.674 0 002.143 5.336c-1.298 4.447-4.49 8.076-8.706 9.898l-.333.144.85 2.005.333-.145c4.543-1.967 8.051-5.785 9.658-10.512 3.663 2.014 8.247.645 10.24-3.059 1.992-3.704.639-8.34-3.025-10.356A7.482 7.482 0 0059.446 0zM63.393 63.075a4.328 4.328 0 00-1.372-1.735c.43-.563.664-1.253.667-1.965 0-1.808-1.449-3.274-3.236-3.274-1.788 0-3.236 1.466-3.236 3.274.003.711.237 1.401.667 1.965a4.355 4.355 0 00-1.373 1.728c-2.033-2.203-1.917-5.656.26-7.714a5.35 5.35 0 017.623.263 5.504 5.504 0 010 7.45v.008zm-6.054 1.321a2.159 2.159 0 012.558-1.683c.834.18 1.486.839 1.663 1.683a5.316 5.316 0 01-4.221 0zm1.034-5.02c0-.604.483-1.092 1.079-1.092s1.079.488 1.079 1.091-.483 1.092-1.08 1.092a1.085 1.085 0 01-1.078-1.092zm1.079-7.64a7.442 7.442 0 00-3.605.928c-1.608-4.73-5.118-8.552-9.664-10.52L45.851 42 45 44.006l.333.144c4.217 1.823 7.41 5.455 8.708 9.904-2.9 3.027-2.827 7.859.164 10.793a7.482 7.482 0 0010.668-.166c2.9-3.027 2.825-7.858-.165-10.793a7.494 7.494 0 00-5.256-2.153zM7.548 2.168c2.968-.011 5.383 2.415 5.393 5.418a5.471 5.471 0 01-1.451 3.737 4.35 4.35 0 00-1.374-1.728c.431-.565.666-1.257.668-1.97 0-1.808-1.448-3.274-3.236-3.274-1.787 0-3.236 1.466-3.236 3.274.004.711.238 1.402.668 1.965a4.355 4.355 0 00-1.373 1.727c-2.027-2.194-1.911-5.635.258-7.685a5.34 5.34 0 013.683-1.464M5.435 12.646a2.16 2.16 0 012.547-1.7 2.171 2.171 0 011.68 1.7 5.311 5.311 0 01-4.227 0M6.47 7.625c0-.603.482-1.091 1.078-1.091.596 0 1.079.488 1.079 1.09 0 .603-.483 1.092-1.079 1.092A1.085 1.085 0 016.47 7.625m1.078 7.64c1.26 0 2.5-.318 3.605-.929 1.608 4.73 5.118 8.552 9.664 10.52l.333.144.85-2.006-.333-.144c-4.217-1.823-7.41-5.454-8.708-9.904 2.9-3.027 2.827-7.858-.165-10.793a7.481 7.481 0 00-10.666.166c-2.9 3.026-2.827 7.859.164 10.793a7.5 7.5 0 005.256 2.153"/>
        <g transform="translate(28)">
            <mask id="prefix__b" fill="#fff">
                <use xlink:href="#prefix__a"/>
            </mask>
            <path fill="#000" d="M9.413 6.356a3.517 3.517 0 01-3.81 3.194 3.516 3.516 0 01.308-7.019A3.517 3.517 0 019.42 6.355l-.006.001zm2.334.205a5.86 5.86 0 10-6.35 5.323 5.858 5.858 0 006.35-5.323z" mask="url(#prefix__b)"/>
        </g>
        <g transform="translate(0 42)">
            <mask id="prefix__d" fill="#fff">
                <use xlink:href="#prefix__c"/>
            </mask>
            <path fill="#000" d="M7.866 11.98c3.09-.012 5.604 2.4 5.615 5.385a5.306 5.306 0 01-1.511 3.716 4.365 4.365 0 00-1.43-1.718c.449-.562.693-1.25.695-1.959 0-1.797-1.508-3.255-3.369-3.255-1.86 0-3.368 1.458-3.368 3.255.003.707.247 1.393.695 1.954a4.367 4.367 0 00-1.43 1.718c-2.11-2.182-1.99-5.603.269-7.641a5.701 5.701 0 013.834-1.456m-2.2 10.417c.25-1.174 1.438-1.93 2.652-1.689.88.175 1.567.839 1.748 1.689a5.763 5.763 0 01-4.4 0m1.078-4.992c0-.6.502-1.084 1.122-1.084.62 0 1.123.485 1.123 1.084 0 .6-.502 1.086-1.123 1.086-.62 0-1.122-.486-1.122-1.086M7.866 25c4.337.005 7.857-3.387 7.862-7.578a7.454 7.454 0 00-2.232-5.307c1.352-4.424 4.676-8.034 9.065-9.846l.347-.143L22.024.13l-.348.144c-4.73 1.956-8.384 5.756-10.056 10.457C7.806 8.728 3.032 10.09.957 13.775c-2.075 3.685-.665 8.297 3.15 10.301a8.07 8.07 0 003.76.924" mask="url(#prefix__d)"/>
        </g>
        <mask id="prefix__f" fill="#fff">
            <use xlink:href="#prefix__e"/>
        </mask>
        <path fill="#000" d="M17 35L19 35 19 33 17 33zM14 35L16 35 16 33 14 33zM51 35L53 35 53 33 51 33zM48 35L50 35 50 33 48 33zM33 19L35 19 35 17 33 17zM33 16L35 16 35 14 33 14zM33 53L35 53 35 51 33 51zM33 50L35 50 35 48 33 48zM32.736 59.012a3 3 0 11.526 5.98 3 3 0 01-.526-5.981zm-4.716 3.426a5 5 0 109.96-.873 5 5 0 00-9.96.872v.001zM5 31a3 3 0 110 6 3 3 0 010-6m0 8a5 5 0 100-10 5 5 0 000 10M62 37a3 3 0 110-6 3 3 0 010 6m0-8a5 5 0 105 5 5.006 5.006 0 00-5-5" mask="url(#prefix__f)"/>
    </g>
</svg>
