<svg xmlns="http://www.w3.org/2000/svg" width="36" height="39" viewBox="0 0 36 39">
    <path fill="#000" fill-rule="nonzero" d="M29.292.004a.886.886 0 0 0-.752.614.885.885 0 0 0 .293.925l3.35 2.793h-5.47c-.453.02-.845.452-.824.904.021.452.452.844.905.823h5.388l-3.349 2.78c-.35.29-.405.871-.115 1.22.29.35.873.405 1.223.116l5.186-4.318c.394-.323.394-1.014 0-1.336L29.94.207a.876.876 0 0 0-.649-.203zM10.804.881c-.935 0-1.745.362-2.269.945-.52.58-.764 1.337-.756 2.078 0 5.757.011 11.598.013 16.584-.039-.099-.082-.185-.121-.284-.507-1.288-.964-2.598-1.864-3.522a.88.88 0 0 0-.027-.027c-1.348-1.295-3.188-1.357-4.524-.472a.89.89 0 0 0-.054.04C.38 16.859.027 17.786 0 18.613c-.015.456.055.885.182 1.277.115.333.27.632.399.882C3.416 26.317 5.67 31.259 8.36 35.452c.243.383.814.51 1.196.266.383-.244.508-.815.262-1.197-2.604-4.06-4.865-8.997-7.738-14.614-.112-.186-.16-.31-.217-.434a2.325 2.325 0 0 1-.134-.807c.013-.417.15-.752.526-1.053.776-.5 1.454-.536 2.31.27l.027.027c.472.502.972 1.657 1.472 2.928.506 1.289 1.025 2.687 1.931 3.738a.888.888 0 0 0 .956.256.887.887 0 0 0 .57-.809c.001-6.935-.013-14.003-.013-20.133-.006-.358.112-.683.31-.904.198-.22.47-.378.986-.378h.432c.637 0 1.297.73 1.297 1.296v12.59c.017.452.445.847.898.83.452-.018.848-.446.83-.898v-.08c-.002-.022.066-.245.351-.46.285-.215.708-.347.892-.337a.75.75 0 0 0 .013.013c.561.028.857.186 1.04.378.183.193.297.47.297.918v.863c0 .39.298.758.678.843a.892.892 0 0 0 .97-.478c.205-.438.375-.74.58-.918.206-.177.484-.321 1.216-.31.164.002.73.04 1.12.256.392.216.683.447.622 1.417a.888.888 0 0 0 .536.868.89.89 0 0 0 .99-.247c.019-.016.06-.063.108-.095a2.97 2.97 0 0 1 .392-.216c.32-.148.721-.256 1-.256.609 0 1.166.251 1.566.62.4.37.594.852.594 1.107v5.95c-.149 1.367-.649 3.983-1.472 6.195-.412 1.106-.905 2.12-1.431 2.806-.527.686-1.02.997-1.473 1.026H11.236c-.456-.007-.876.407-.876.863 0 .457.42.87.876.864h11.668l.054-.013c1.137-.073 2.047-.796 2.742-1.7.695-.905 1.226-2.034 1.675-3.24.896-2.409 1.413-5.078 1.58-6.611v-6.14c0-.909-.461-1.74-1.148-2.375a4.048 4.048 0 0 0-2.742-1.079c-.574 0-1.084.152-1.526.337-.274-.74-.752-1.3-1.283-1.592-.833-.46-1.65-.47-1.931-.472-.818-.013-1.451.2-1.972.513-.126-.331-.291-.643-.54-.905-.532-.559-1.319-.857-2.201-.904h-.014c-.48-.024-.923.106-1.337.297V3.904c0-1.616-1.331-3.023-3.025-3.023h-.432zm7.266 3.455c-.453.02-.846.452-.824.904.02.452.452.844.905.823h.864c.457.006.877-.407.877-.864 0-.456-.42-.87-.877-.863h-.945zm4.321 0c-.452.02-.845.452-.824.904.022.452.453.844.905.823h.865c.456.006.876-.407.876-.864 0-.456-.42-.87-.876-.863h-.946zm2.58 19.849a.895.895 0 0 0-.77.877v1.727c.003 1.138-.538 2.92-.797 3.55-.207.421.01.996.445 1.176.434.18.995-.071 1.149-.516.344-.834.932-2.599.932-4.21v-1.727c.01-.49-.472-.93-.96-.877zm-2.12 8.204a.883.883 0 0 0-.73.5c-.118.251-.284.518-.445.89-.18.417.035.96.452 1.14.417.18.96-.035 1.141-.452.104-.24.252-.483.419-.836.266-.543-.235-1.284-.838-1.242z"/>
</svg>
