<svg xmlns="http://www.w3.org/2000/svg" viewBox="0 0 182.77 207.88"><defs><style>.cls-1{fill:#36f;}.cls-2{fill:#7ccc33;}.cls-3{fill:#47b5bd;}.cls-4{fill:#f66;}.cls-5{fill:#ffd900;}.cls-6{fill:#4e4e4e;}</style></defs><title>Deazy_D</title><g id="Layer_2" data-name="Layer 2"><g id="Layer_1-2" data-name="Layer 1"><path id="Fill-67" class="cls-1" d="M64.12,38H9.71a9,9,0,0,0,0,18H64.12a9,9,0,0,0,0-18"/><path id="Fill-67-2" data-name="Fill-67" class="cls-2" d="M157.54,38H103.59a9,9,0,0,0,0,18h53.95a9,9,0,0,0,0-18"/><path id="Fill-67-3" data-name="Fill-67" class="cls-3" d="M107.73,0H53.32a9,9,0,0,0,0,18h54.41a9,9,0,0,0,0-18"/><path id="Fill-67-4" data-name="Fill-67" class="cls-4" d="M20,0H9.37a9,9,0,0,0,0,18H20A9,9,0,0,0,20,0"/><path id="Fill-67-5" data-name="Fill-67" class="cls-5" d="M107.9,189.87H97.27a9,9,0,0,0,0,18H107.9a9,9,0,0,0,0-18"/><path id="Fill-67-6" data-name="Fill-67" class="cls-1" d="M63.58,189.87H53a9,9,0,0,0,0,18H63.58a9,9,0,0,0,0-18"/><path id="Fill-67-7" data-name="Fill-67" class="cls-2" d="M19.6,189.87H9a9,9,0,0,0,0,18H19.6a9,9,0,0,0,0-18"/><path id="Fill-67-8" data-name="Fill-67" class="cls-6" d="M80.71,151.89h-71a9,9,0,0,0,0,18h71a9,9,0,0,0,0-18"/><path id="Fill-67-9" data-name="Fill-67" class="cls-2" d="M119.29,151.89H108.66a9,9,0,0,0-9,9c0,5,4.77,9,9.73,9h10.63c5,0,8.21-4,8.21-9a9,9,0,0,0-9-9"/><path id="Fill-67-10" data-name="Fill-67" class="cls-4" d="M157.1,151.89H146.47a9,9,0,0,0-9,9c0,5,4.78,9,9.73,9h10.63c5,0,8.21-4,8.21-9a9,9,0,0,0-9-9"/><path id="Fill-67-11" data-name="Fill-67" class="cls-5" d="M66.89,113.92H9.71a9,9,0,0,0,0,18H66.89a9,9,0,0,0,0-18"/><path id="Fill-67-12" data-name="Fill-67" class="cls-3" d="M125.47,113.92H95.69a9,9,0,0,0,0,18h29.78a9,9,0,0,0,0-18"/><path id="Fill-67-13" data-name="Fill-67" class="cls-1" d="M173.8,113.92H163.17a9,9,0,0,0,0,18H173.8a9,9,0,0,0,0-18"/><path id="Fill-67-14" data-name="Fill-67" class="cls-4" d="M132.49,76h-71a9,9,0,0,0,0,18h71a9,9,0,0,0,0-18"/><path id="Fill-67-15" data-name="Fill-67" class="cls-6" d="M20.34,76H9.71a9,9,0,0,0,0,18H20.34a9,9,0,0,0,0-18"/><path id="Fill-67-16" data-name="Fill-67" class="cls-5" d="M173.8,76H163.17a9,9,0,0,0,0,18H173.8a9,9,0,0,0,0-18"/></g></g></svg>