<svg xmlns="http://www.w3.org/2000/svg" width="370" height="462" viewBox="0 0 370 462">
    <g fill="none" fill-rule="evenodd">
        <path fill="#BDE5E5" d="M147.295 181.996c0 5.298-4.3 9.592-9.602 9.592-5.305 0-9.604-4.294-9.604-9.592 0-5.298 4.299-9.592 9.604-9.592 5.301 0 9.602 4.294 9.602 9.592"/>
        <path stroke="#000" stroke-linecap="round" stroke-linejoin="round" stroke-width="3.3" d="M137.393 172.321c5.234 0 9.478 4.24 9.478 9.468 0 5.229-4.244 9.468-9.478 9.468-5.233 0-9.477-4.24-9.477-9.468"/>
        <path fill="#BDE5E5" d="M233.643 64.068c0 5.298-4.3 9.592-9.602 9.592-5.303 0-9.602-4.294-9.602-9.592 0-5.298 4.299-9.592 9.602-9.592s9.602 4.294 9.602 9.592M186.617 261.82l-73.203 16.251c-4.58 33.386-16.748 101.799-14.277 111.052 5.316-4.34 15.973-3.113 21.123 4.32 3.048-7.433 14.284-47.462 25.317-68.713 3.27-6.297 9.657-16.215 16.047-19.947 8.342-4.87 24.589-1.697 34.019-2.171l23.507-1.18-32.533-39.612z"/>
        <path fill="#47B5BD" d="M169.247 89.931c-2.897-4.502-13.212.032-13.212 11.77v27.844h25.412s4.987-.707 9.27 8.196c2.568 5.34 8.248 37.097 12.86 53.482 3.522 12.522 32.668 16.793 41.856 8.833 8.657-7.504 8.293-66.852 8.564-73.966.339-8.918 20.148-12.377 26.84-1.029 1.095-15.852-2.593-24.042-2.593-24.042S274.9 87.507 254.952 86.96c-19.948-.545-24.593 12.559-24.593 12.559s-14.483 28.662-23.227 31.392c-8.744 2.73-31.23-30.64-37.885-40.98"/>
        <path stroke="#000" stroke-linecap="round" stroke-linejoin="round" stroke-width="3.3" d="M132.463 131.183h-72.41s-10.657-3.276-4.919 13.923c4.94 14.807 21.463 66.015 25.507 75.546 5.953 14.034 13.564 11.262 27.228 11.807"/>
        <path fill="#000" d="M229.395 6.384C214.52-3.772 194.675.34 181.921 8.478c-13.862 8.847-13.813 30.374-6.299 42.753 6.254 10.301 18.659-23.553 19.192-22.74 3.988 6.08 14.208 13.334 18.916 16.286 5.166 3.24 14.59-1.985 19.348-8.679.031-.042 5.214 4.599 5.22 4.547 1.28-11.01 3.303-25.927-8.903-34.26"/>
        <path stroke="#000" stroke-linecap="round" stroke-linejoin="round" stroke-width="3.3" d="M230.086 81.812c-13.956 26.205-40.602 11.364-48.806-16.831"/>
        <path fill="#BDE5E5" d="M286.521 257.122l-.635-3.174s-121.71-.633-146.873-1.015c-58.683-.888-61.612 87.627-61.34 98.5 3.826-1.046 12.024.183 17.112 7.88.24-6.06 2.764-15.422 3.135-17.06 3.902-17.224 10.33-34.819 19.326-50.29 17.394-29.911 51.56-15.69 73.193 1.098 19.93 15.465 71.287 29.049 88.144 3.749 7.02-10.538 9.416-27.625 7.938-39.688"/>
        <path stroke="#000" stroke-linecap="round" stroke-linejoin="round" stroke-width="3.3" d="M279.476 134.186c-.658 27.258-1.394 48.266-6.84 75.017-3.549 17.44-20.296 24.105-35.497 24.353-13.283.214-18.206.375-31.444-.55M140.112 243.38H2.395l53.554-21.84M357.35 244.47h-71.862l-14.759.547 2.675 12.106c1.477 12.061 2.362 29.149-4.659 39.688-17.136 25.719-61.455 9-82.088-4.972-8.173-5.534-15.168-8.75-24.204-13.037-17.745-8.419-36.328-4.93-46.846 13.16-8.998 15.472-13.785 33.068-17.688 50.293M330.848 218.264h-33.883M318.277 426.822c7.918 0-8.796-112.468-8.796-112.468M176.714 331.826s-12.423 127.483-2.26 127.483c2.411 0 4.949-7.174 7.418-18.117M11.136 259.213l-.272 117.108M289.857 115.078c20.766 16.378 18.58 88.446 19.673 102.641"/>
        <path stroke="#000" stroke-linecap="round" stroke-linejoin="round" stroke-width="3.3" d="M313.356 257.574c-.312 11.404-.932 19.709-2.98 30.946-.51 2.807-1.153 5.663-2.696 8.064-4.935 7.696-23.073 12.092-31.486 12.856 0 0-.547.547 0 4.914 0 0 20.768 139.766 10.931 139.766"/>
        <path fill="#000" d="M246.284 34.799c-.503.22-.985.5-1.435.849-3.816 2.948-2.778 14.33 1.418 15.976 5.88-2.608 8.08 9.957 10.526 20.323.733 3.108 4.94 5.953 5.464 9.827 7.378-7.918 4.287-33.166-1.517-41.047-3.947-5.36-9.466-8.113-14.456-5.928"/>
        <path stroke="#000" stroke-linecap="round" stroke-linejoin="round" stroke-width="3.3" d="M241.078 54.958a8.263 8.263 0 0 1-1.883 11.54 8.284 8.284 0 0 1-11.554-1.882c-2.67-3.705-1.826-8.872 1.884-11.54M69.067 362.945c3.683 10.37.817 27.592-10.777 32.568-7.088 3.042-48.623-4.43-49.802 7.474-1.046 10.618 39.353 13.365 45.823 12.371 5.88-.904 1.08 4.702-.498 6.596 5.385 1.779 10.76 1.186 16.347 1.048M114.974 408.806c-3.28 7.097 5.921 25.38 1.894 29.638-2.19 2.316-15.57-.272-12.304 3.787 2.306 2.868 6.43 1.574 2.407 5.873-2.695 2.88-7.08 4.663-10.629 6.165-8.794 3.724-19.892 7.2-29.553 5.638-12.826-2.073-7.776-13.896-.118-19.564 7.225-5.35 16.067-8.539 21.87-15.675 5.952-7.322 6.912-16.621 5.666-25.69M120.44 400.343s9.016-8.598 9.426-4.504c.41 4.094-6.149 10.646-8.199 10.646M189.298 138.28c-.814-3.66-2.186-7.096-10.383-7.096H148.86s-.276-11.465 0-29.483c.273-17.774 16.492-11.769 16.492-11.769"/>
        <path fill="#000" d="M212.662 55.432a2.048 2.048 0 0 1-2.05 2.046 2.048 2.048 0 1 1 0-4.094c1.132 0 2.05.916 2.05 2.048M369.374 245.016a2.147 2.147 0 0 1-2.69 1.413 2.147 2.147 0 1 1 1.275-4.1 2.147 2.147 0 0 1 1.415 2.687M194.627 58.98a2.049 2.049 0 1 1-4.097-.001 2.049 2.049 0 0 1 4.097 0"/>
    </g>
</svg>
