<svg xmlns="http://www.w3.org/2000/svg" width="45" height="46" viewBox="0 0 45 46">
    <g fill="none" fill-rule="evenodd">
        <path fill="#000" d="M21.095 45.463c11.651 0 21.095-9.444 21.095-21.095 0-11.65-9.444-21.095-21.095-21.095C9.445 3.273 0 12.718 0 24.368 0 36.02 9.445 45.463 21.095 45.463"/>
        <path fill="#FFF" d="M23.533.279C11.865.279 2.405 9.738 2.405 21.406c0 11.669 9.46 21.128 21.128 21.128s21.126-9.46 21.126-21.128S35.2.279 23.533.279zM13.332 31.268h4.189v-13.4h-4.19v13.4zm1.989-15.075h-.03c-1.516 0-2.5-1.025-2.5-2.323 0-1.323 1.014-2.326 2.56-2.326 1.544 0 2.495 1 2.524 2.323 0 1.298-.98 2.326-2.554 2.326zm18.95 15.075h-4.745v-6.933c0-1.816-.743-3.054-2.378-3.054-1.248 0-1.942.836-2.267 1.644-.121.287-.102.69-.102 1.092v7.25h-4.703s.06-12.282 0-13.4h4.703v2.105c.279-.92 1.78-2.232 4.18-2.232 2.973 0 5.312 1.928 5.312 6.077v7.45z"/>
        <path fill="#000" d="M23.24 1.117c-11.324 0-20.537 9.214-20.537 20.538 0 11.323 9.213 20.536 20.537 20.536 11.323 0 20.536-9.213 20.536-20.536 0-11.324-9.213-20.538-20.536-20.538m0 42.19c-11.94 0-21.654-9.712-21.654-21.652C1.586 9.714 11.3 0 23.24 0c11.939 0 21.653 9.714 21.653 21.655 0 11.94-9.714 21.653-21.653 21.653"/>
    </g>
</svg>
