<svg xmlns="http://www.w3.org/2000/svg" xmlns:xlink="http://www.w3.org/1999/xlink" width="66" height="66" viewBox="0 0 66 66">
    <defs>
        <path id="prefix__a" d="M0 0L67 0 67 66 0 66z"/>
    </defs>
    <g fill="none" fill-rule="evenodd" transform="translate(-1)">
        <mask id="prefix__b" fill="#fff">
            <use xlink:href="#prefix__a"/>
        </mask>
        <path fill="#000" d="M63.602 20.247c-.08-1.674-1.422-3.029-3.16-3.029H50.328c-.948 0-1.658-.797-1.658-1.674V7.892c0-1.833-.395-3.108-1.265-3.746-.71-.558-1.737-.638-2.527-.558v6.058c0 7.97-8.613 10.442-9.008 10.601V36.11c0 1.754 1.422 3.188 3.16 3.188h18.014c3.872 0 4.188-2.55 4.267-3.347v-.08l2.29-15.623zM26.784 37.943h5.61V19.13h-5.61v18.812zM67 20.327v.24l-2.45 15.542c-.473 3.985-3.318 6.298-7.584 6.298H38.872a6.312 6.312 0 01-4.424-1.754c-.553.399-1.185.637-1.896.637h-6.084c-1.738 0-3.16-1.434-3.16-3.188v-19.21c0-1.753 1.422-3.188 3.16-3.188h6.084c.948 0 1.738.398 2.292 1.036.63-.16 6.556-2.072 6.556-7.333V1.994c0-.718.475-1.355 1.186-1.594.395-.16 3.95-1.196 6.715.876 1.74 1.276 2.687 3.508 2.687 6.537v5.978h8.454c3.635 0 6.558 2.95 6.558 6.536zM62.733 46.87a9.088 9.088 0 01-8.454 5.82H29.39L16.118 65.522c-.316.318-.711.477-1.185.477-.237 0-.474-.079-.632-.159-.633-.24-1.028-.876-1.028-1.594V52.69H9.086C4.03 52.69 0 48.544 0 43.523v-27.82c0-5.1 4.108-9.166 9.086-9.166h27.733c.948 0 1.658.797 1.658 1.674 0 .877-.79 1.674-1.658 1.674H9.166c-3.16 0-5.769 2.63-5.769 5.819v27.819c0 3.188 2.608 5.818 5.769 5.818h5.846c.948 0 1.66.798 1.66 1.674v9.326L27.574 49.82c.316-.32.711-.479 1.185-.479h25.6c2.37 0 4.502-1.514 5.372-3.667.315-.876 1.343-1.275 2.212-.956.712.32 1.185 1.276.79 2.152z" mask="url(#prefix__b)"/>
    </g>
</svg>
