<svg xmlns="http://www.w3.org/2000/svg" xmlns:xlink="http://www.w3.org/1999/xlink" width="86" height="69" viewBox="0 0 86 69">
    <defs>
        <path id="prefix__a" d="M0 0L85 0 85 69 0 69z"/>
    </defs>
    <g fill="none" fill-rule="evenodd">
        <mask id="prefix__b" fill="#fff">
            <use xlink:href="#prefix__a"/>
        </mask>
        <path fill="#000" d="M79.36 46.867l1.56 2.259H71.98v-6.15h8.941l-1.56 2.272a1.434 1.434 0 000 1.62zm-8.788 17.884a1.692 1.692 0 01-1.834-1.542 1.7 1.7 0 011.834-1.852 1.7 1.7 0 011.527 1.852 1.697 1.697 0 01-1.527 1.542zm-39.648-1.775c-.25 2.039-2.091 3.487-4.11 3.233a3.702 3.702 0 01-3.2-3.233 2.553 2.553 0 010-.47c-.127-2.059 1.423-3.831 3.462-3.958 2.038-.128 3.792 1.44 3.918 3.498.01.153.01.307 0 .46a2.43 2.43 0 01-.07.47zm6.144-32.217c2.043 0 3.698 1.673 3.698 3.737.02.179.02.36 0 .539-.307 2.04-2.194 3.441-4.213 3.13a3.717 3.717 0 01-3.099-3.13 2.703 2.703 0 010-.483c-.031-2.053 1.583-3.746 3.614-3.793zm13.85-23.68c-.308 2.04-2.194 3.443-4.214 3.132a3.716 3.716 0 01-3.098-3.131 2.726 2.726 0 01-.029-.568c.126-2.06 1.881-3.626 3.92-3.498 1.862.116 3.347 1.616 3.463 3.498.006.19-.008.38-.043.568zm-44.43 3.183c-2.034-.008-3.677-1.68-3.67-3.736.008-2.055 1.664-3.715 3.698-3.707 2.019.008 3.655 1.655 3.67 3.693.015 2.055-1.62 3.734-3.656 3.75h-.042zm75.726 35.795l2.545-3.692c.282-.422.32-.964.098-1.421a1.404 1.404 0 00-1.25-.753H71.978v-.312c0-.785-.63-1.42-1.407-1.42-.776 0-1.405.635-1.405 1.42v18.878a4.496 4.496 0 00-2.882 2.997H33.736c-.372-3.59-3.553-6.194-7.106-5.818-3.04.32-5.44 2.747-5.759 5.818h-2.727c-6.865-.002-12.428-5.625-12.427-12.56.001-3.328 1.31-6.52 3.64-8.875a12.224 12.224 0 018.787-3.664h12.78c1.175 3.423 4.875 5.237 8.265 4.05a6.531 6.531 0 004.009-4.05h18.658c8.417.001 15.242-6.89 15.244-15.395.002-8.504-6.82-15.4-15.237-15.401H53.7c-.372-3.59-3.554-6.195-7.105-5.82-3.04.323-5.442 2.749-5.76 5.82H12.928C12.55 2.263 9.358-.345 5.799.037 2.24.418-.34 3.643.037 7.24c.377 3.596 3.568 6.203 7.13 5.822A6.494 6.494 0 0012.603 8.7h28.528c1.175 3.424 4.876 5.237 8.265 4.05a6.531 6.531 0 004.008-4.05h8.436c6.865 0 12.43 5.622 12.43 12.556 0 6.936-5.565 12.558-12.43 12.558H43.577c-.371-3.59-3.552-6.195-7.105-5.82-3.04.322-5.44 2.749-5.76 5.82H18.145c-8.413-.26-15.441 6.422-15.698 14.923-.254 8.5 6.359 15.6 14.772 15.858.309.01.617.01.926 0h2.938c1.188 3.428 4.902 5.234 8.295 4.033a6.541 6.541 0 003.994-4.033h32.984c.838 2.354 3.408 3.576 5.739 2.729 2.33-.848 3.539-3.444 2.701-5.798a4.51 4.51 0 00-2.816-2.77v-6.79h11.627a1.402 1.402 0 001.251-.752 1.434 1.434 0 00-.098-1.42l-2.545-3.737z" mask="url(#prefix__b)"/>
    </g>
</svg>
