<svg xmlns="http://www.w3.org/2000/svg" xmlns:xlink="http://www.w3.org/1999/xlink" width="116" height="61" viewBox="0 0 116 61">
    <defs>
        <path id="prefix__a" d="M0.231 0.645L44.769 0.645 44.769 33.179 0.231 33.179z"/>
        <path id="prefix__c" d="M0 0.353L52.778 0.353 52.778 33 0 33z"/>
    </defs>
    <g fill="none" fill-rule="evenodd">
        <path fill="#000" d="M62.181 26.072l2.424 2.65H44.654c-.882 0-1.654.844-1.654 1.808 0 .964.772 1.807 1.654 1.807h19.951l-2.424 2.651a1.859 1.859 0 000 2.53c.33.362.77.482 1.213.482.44 0 .88-.12 1.211-.482L71 30.53l-6.395-6.988c-.66-.723-1.653-.723-2.314 0s-.772 1.928-.11 2.53"/>
        <path fill="#000" d="M109.038 23.256c-.709-.698-1.77-.698-2.48 0-.706.697-.706 1.744 0 2.442l2.598 2.558h-9.44c-5.549 0-10.032-4.419-10.032-9.884C89.684 11.047 83.665 5 76.112 5h-3.304c-.944 0-1.77.814-1.77 1.744s.826 1.744 1.77 1.744h3.304c5.547 0 10.031 4.419 10.031 9.884 0 3.954 1.77 7.442 4.484 9.884H88.03c-7.434 0-13.571 5.93-13.571 13.372 0 5.465-4.485 9.884-10.031 9.884H60.77c-.944 0-1.77.814-1.77 1.744S59.826 55 60.77 55h3.658c7.436 0 13.571-5.93 13.571-13.372 0-5.465 4.486-9.884 10.031-9.884h21.126l-2.597 2.558c-.707.698-.707 1.745 0 2.442.354.349.827.465 1.3.465.47 0 .943-.116 1.297-.465L116 30l-6.962-6.744z"/>
        <g transform="translate(18)">
            <mask id="prefix__b" fill="#fff">
                <use xlink:href="#prefix__a"/>
            </mask>
            <path fill="#000" d="M1.846 33.179h6c7.27 0 13.27-5.98 13.27-13.483 0-5.51 4.384-9.965 9.807-9.965h7.154l-2.539 2.579c-.692.703-.692 1.759 0 2.462.347.352.808.469 1.27.469.461 0 .923-.117 1.269-.469l6.692-6.8-6.692-6.8c-.692-.703-1.731-.703-2.423 0-.693.704-.693 1.759 0 2.462l2.538 2.58h-7.154c-7.269 0-13.269 5.979-13.269 13.482 0 5.51-4.384 9.966-9.808 9.966h-6c-.923 0-1.73.82-1.73 1.758 0 .938.692 1.759 1.615 1.759" mask="url(#prefix__b)"/>
        </g>
        <g transform="translate(0 28)">
            <mask id="prefix__d" fill="#fff">
                <use xlink:href="#prefix__c"/>
            </mask>
            <path fill="#000" d="M43.203 18.857c-.718.707-.718 1.768 0 2.475l2.633 2.593H26.09c-5.625 0-10.173-4.479-10.173-10.018C15.917 6.482 9.813.353 2.154.353h-.359C.838.353 0 1.178 0 2.121 0 3.064.838 3.89 1.795 3.89h.36c5.624 0 10.172 4.479 10.172 10.018 0 7.425 6.103 13.554 13.763 13.554h19.746l-2.633 2.592c-.718.708-.718 1.768 0 2.475.36.354.838.472 1.317.472s.957-.118 1.316-.472l6.942-6.835-7.061-6.836c-.718-.707-1.796-.707-2.514 0" mask="url(#prefix__d)"/>
        </g>
    </g>
</svg>
