<svg xmlns="http://www.w3.org/2000/svg" xmlns:xlink="http://www.w3.org/1999/xlink" width="67" height="65" viewBox="0 0 67 65">
    <defs>
        <path id="prefix__a" d="M0.36 0.139L33.714 0.139 33.714 41 0.36 41z"/>
        <path id="prefix__c" d="M0 0.35L21.65 0.35 21.65 20.79 0 20.79z"/>
    </defs>
    <g fill="none" fill-rule="evenodd">
        <g transform="translate(17 24)">
            <mask id="prefix__b" fill="#fff">
                <use xlink:href="#prefix__a"/>
            </mask>
            <path fill="#000" d="M30.36 36.83c-8.535 1.808-18.041 1.808-26.576 0-.416-.07-.624-.486-.624-.903L4.2 27.31a9.284 9.284 0 016.94-7.852 10.572 10.572 0 005.897 1.807c2.15 0 4.232-.695 5.898-1.807 3.678.903 6.523 3.96 6.939 7.852l1.04 8.617c.07.417-.207.834-.554.904zM17.037 2.92A7.764 7.764 0 0124.81 10.7c0 4.31-3.47 7.784-7.772 7.784a7.765 7.765 0 01-7.771-7.784 7.764 7.764 0 017.771-7.782zM32.65 26.963a12.046 12.046 0 00-7.355-9.66c1.457-1.806 2.29-4.1 2.29-6.602C27.584 4.865 22.866.14 17.037.14 11.21.14 6.49 4.865 6.49 10.701c0 2.503.902 4.796 2.36 6.602-3.886 1.598-6.87 5.212-7.356 9.66l-1.11 8.616c-.208 1.808.971 3.545 2.776 3.961C7.6 40.514 12.25 41 17.037 41c4.718 0 9.436-.486 13.878-1.46 1.803-.347 2.983-2.084 2.775-3.96l-1.04-8.617z" mask="url(#prefix__b)"/>
        </g>
        <path fill="#000" d="M30.127 8.63c.826-.072 1.583-.647 1.927-1.438L33.5 3.596l1.446 3.596a2.262 2.262 0 001.927 1.438l3.717.288-2.822 2.517c-.62.575-.964 1.51-.757 2.373l.826 3.812-3.167-2.014c-.757-.503-1.652-.503-2.41 0l-3.166 2.014.826-3.812c.207-.863-.068-1.798-.757-2.373l-2.822-2.517 3.786-.288zm-2.891 4.819l-1.033 4.602c-.206.935.138 1.942.895 2.517.413.288.895.432 1.377.432.413 0 .826-.144 1.17-.36l3.855-2.445 3.855 2.445c.757.504 1.79.432 2.547-.072.757-.575 1.101-1.51.895-2.517l-1.033-4.602 3.442-3.093c.688-.647.964-1.654.688-2.517-.275-.863-1.032-1.582-1.996-1.654l-4.543-.36-1.721-4.387A2.278 2.278 0 0033.5 0c-.895 0-1.72.575-2.134 1.438l-1.72 4.387-4.544.36c-.895.072-1.721.72-1.996 1.654-.276.935 0 1.942.688 2.517l3.442 3.093z"/>
        <g transform="translate(0 10)">
            <mask id="prefix__d" fill="#fff">
                <use xlink:href="#prefix__c"/>
            </mask>
            <path fill="#000" d="M15.225 11.48c-.639.56-.994 1.47-.78 2.31l.85 3.71-3.264-1.96a2.282 2.282 0 00-2.484 0L6.283 17.5l.852-3.71a2.237 2.237 0 00-.781-2.31l-2.91-2.45 3.832-.28a2.455 2.455 0 001.988-1.4l1.49-3.5 1.49 3.5c.355.84 1.136 1.33 1.987 1.4l3.833.28-2.84 2.45zm3.122 6.44l-1.064-4.48 3.548-3.01c.71-.63.994-1.61.71-2.45-.284-.84-1.065-1.54-2.058-1.61l-4.684-.35-1.774-4.27c-.355-.84-1.207-1.4-2.2-1.4-.923 0-1.774.56-2.2 1.4L6.85 6.02l-4.684.35c-.923.07-1.774.7-2.058 1.61-.284.91 0 1.89.71 2.45l3.548 3.01-1.065 4.48c-.213.91.142 1.89.923 2.45.426.28.922.42 1.42.42.425 0 .85-.14 1.206-.35l3.974-2.38 3.974 2.38c.78.49 1.845.42 2.626-.07.78-.56 1.135-1.54.922-2.45z" mask="url(#prefix__d)"/>
        </g>
        <path fill="#000" d="M60.74 21.507c-.619.575-.962 1.51-.757 2.373l.825 3.812-3.091-2.014c-.756-.503-1.65-.503-2.405 0l-3.16 2.014.823-3.812c.207-.863-.068-1.798-.755-2.373l-2.748-2.517 3.71-.288c.824-.072 1.58-.647 1.924-1.438l1.442-3.596 1.444 3.596a2.258 2.258 0 001.923 1.438l3.71.288-2.885 2.517zm6.114-3.668c-.274-.935-1.03-1.582-1.992-1.654l-4.535-.36-1.718-4.387A2.273 2.273 0 0056.48 10c-.893 0-1.718.575-2.13 1.438l-1.718 4.387-4.534.36c-.893.072-1.717.72-1.993 1.654-.274.935 0 1.942.687 2.517l3.435 3.093-1.03 4.602c-.206.935.137 1.942.894 2.517.412.288.893.432 1.374.432.412 0 .823-.144 1.167-.36l3.848-2.445 3.847 2.445c.756.504 1.787.432 2.543-.072.755-.575 1.098-1.51.892-2.517l-1.03-4.602 3.435-3.093c.756-.575 1.03-1.582.687-2.517z"/>
    </g>
</svg>
