<svg xmlns="http://www.w3.org/2000/svg" xmlns:xlink="http://www.w3.org/1999/xlink" width="66" height="66" viewBox="0 0 66 66">
    <defs>
        <path id="prefix__a" d="M0 0L66 0 66 66 0 66z"/>
    </defs>
    <g fill="none" fill-rule="evenodd">
        <mask id="prefix__b" fill="#fff">
            <use xlink:href="#prefix__a"/>
        </mask>
        <path fill="#000" d="M14.561 38.823a1.94 1.94 0 11-3.882 0v-16.5c0-6.968 5.649-12.618 12.617-12.618 6.968 0 12.618 5.65 12.618 12.618v21.354a8.734 8.734 0 1017.47 0v-16.5a1.941 1.941 0 013.881 0v16.5c0 6.967-5.65 12.617-12.616 12.617-6.97 0-12.618-5.65-12.618-12.617V22.323a8.735 8.735 0 10-17.47 0v16.5zm33.97-21.353h13.587V3.882H48.531V17.47zM46.589 0h17.47A1.94 1.94 0 0166 1.941v17.47a1.941 1.941 0 01-1.941 1.942h-17.47a1.94 1.94 0 01-1.94-1.942V1.941A1.94 1.94 0 0146.589 0zM5.405 62.117h14.43L12.62 50.31 5.405 62.117zm8.872-16.541l10.675 17.47c.791 1.294-.14 2.954-1.656 2.954H1.944C.428 66-.503 64.34.288 63.047l10.676-17.471a1.941 1.941 0 013.313 0z" mask="url(#prefix__b)"/>
    </g>
</svg>
