<svg xmlns="http://www.w3.org/2000/svg" xmlns:xlink="http://www.w3.org/1999/xlink" width="67" height="68" viewBox="0 0 67 68">
    <defs>
        <path id="prefix__a" d="M0 0L67 0 67 67 0 67z"/>
    </defs>
    <g fill="none" fill-rule="evenodd" transform="translate(0 1)">
        <mask id="prefix__b" fill="#fff">
            <use xlink:href="#prefix__a"/>
        </mask>
        <path fill="#000" d="M39.155 64.494v-.762c0-2.397-1.957-4.467-4.458-4.467h-2.503c-1.196 0-2.283.545-3.045 1.307a4.369 4.369 0 00-1.305 3.16v.762h11.311zm-2.5-15.252a4.355 4.355 0 00-3.155-1.307c-2.502 0-4.46 1.961-4.46 4.466 0 1.2.544 2.289 1.306 3.05.76.873 1.957 1.309 3.154 1.309 2.393 0 4.35-1.962 4.35-4.359 0-1.306-.435-2.396-1.196-3.159zm10.658 4.903c-.544.326-1.305.108-1.74-.436-.327-.654-.109-1.417.544-1.743 3.263-1.853 6.09-4.358 8.157-7.3a25.34 25.34 0 004.46-10.022c.108-.763.87-1.198 1.522-.98.653.108 1.088.762.98 1.416-.871 4.031-2.502 7.843-4.896 11.003-2.392 3.377-5.438 6.1-9.027 8.062zM18.707 7.19c-.652.435-1.414.327-1.848-.218-.327-.654-.218-1.416.326-1.853C22.079 1.743 27.735 0 33.5 0c5.655 0 11.42 1.743 16.206 5.12.653.437.761 1.199.326 1.853-.326.545-1.196.653-1.74.218-4.35-3.051-9.571-4.576-14.792-4.576-5.22 0-10.442 1.525-14.793 4.576zm2.176 44.775c.544.326.761 1.09.435 1.743-.326.544-1.088.762-1.74.436-3.481-1.961-6.635-4.685-9.028-8.062-2.284-3.16-4.024-6.972-4.785-11.003-.11-.654.325-1.308.979-1.416.652-.218 1.305.217 1.413.98a25.34 25.34 0 004.46 10.023 26.666 26.666 0 008.266 7.299zm-6.961-25.602v-.653c0-2.506-2.067-4.467-4.46-4.467H6.961a4.356 4.356 0 00-3.155 1.307 4.437 4.437 0 00-1.305 3.16v.653h11.42zm-2.61-15.251c-.762-.763-1.85-1.308-3.046-1.308-2.501 0-4.46 2.07-4.46 4.467a4.37 4.37 0 001.305 3.16 4.422 4.422 0 003.155 1.306c2.393 0 4.35-1.96 4.35-4.466a4.368 4.368 0 00-1.304-3.16zM8.266 7.299c1.849 0 3.589.763 4.895 2.07 1.196 1.199 1.958 2.942 1.958 4.903 0 2.07-.87 3.922-2.394 5.23 2.284 1.198 3.699 3.594 3.699 6.209v1.96c0 .654-.544 1.308-1.305 1.308H1.305C.543 28.979 0 28.325 0 27.672V25.71c0-1.961.761-3.705 2.066-5.011A6.323 6.323 0 013.698 19.5c-1.523-1.307-2.393-3.16-2.393-5.229 0-3.813 3.045-6.973 6.96-6.973zm56.123 19.065v-.653c0-2.506-1.958-4.467-4.35-4.467h-2.501c-1.306 0-2.394.436-3.155 1.307-.87.763-1.306 1.852-1.306 3.16v.653H64.39zm-2.501-15.251c-.762-.763-1.958-1.308-3.154-1.308-2.394 0-4.46 2.07-4.46 4.467 0 1.198.544 2.288 1.305 3.16.87.762 1.959 1.306 3.155 1.306 2.501 0 4.46-1.96 4.46-4.466 0-1.199-.545-2.288-1.306-3.16zm-3.154-3.814c1.957 0 3.697.763 4.894 2.07 1.306 1.199 2.066 2.942 2.066 4.903 0 2.07-.87 3.922-2.392 5.23C65.477 20.7 67 23.095 67 25.71v1.96c0 .654-.653 1.308-1.306 1.308H51.772c-.652 0-1.196-.654-1.196-1.307V25.71c0-1.961.761-3.705 1.958-5.011.543-.437 1.087-.872 1.63-1.199a6.797 6.797 0 01-2.392-5.229c0-3.813 3.155-6.973 6.962-6.973zM33.5 45.43c1.849 0 3.59.763 4.894 1.962a6.997 6.997 0 012.067 5.01c0 1.962-.87 3.923-2.393 5.23 2.175 1.199 3.59 3.595 3.59 6.1v2.07c0 .654-.545 1.199-1.197 1.199H26.539c-.653 0-1.305-.545-1.305-1.199v-2.07c0-1.851.87-3.594 2.066-4.901.435-.437 1.088-.872 1.631-1.199-1.522-1.307-2.392-3.268-2.392-5.23A6.945 6.945 0 0133.5 45.43z" mask="url(#prefix__b)"/>
    </g>
</svg>
