<svg xmlns="http://www.w3.org/2000/svg" xmlns:xlink="http://www.w3.org/1999/xlink" width="66" height="65" viewBox="0 0 66 65">
    <defs>
        <path id="prefix__a" d="M0 0L11.842 0 11.842 17 0 17z"/>
        <path id="prefix__c" d="M0.079 0L11.921 0 11.921 17 0.079 17z"/>
    </defs>
    <g fill="none" fill-rule="evenodd">
        <path fill="#000" d="M42.692 29.36c-1.188 0-2.154-.933-2.154-2.08v-5.2h2.455l1.848 5.352c-.081 1.076-1.014 1.928-2.149 1.928zm1.077 4.16H36.23c-.596 0-1.077.465-1.077 1.04v4.16c0 .575.481 1.04 1.077 1.04h7.538v4.16H31.923v-5.2c0-.575-.481-1.04-1.077-1.04h-5.384c-.596 0-1.077.465-1.077 1.04v5.2h-2.154V31.292c.346.088.703.148 1.077.148 1.293 0 2.44-.564 3.23-1.437a4.341 4.341 0 003.231 1.437c1.293 0 2.44-.564 3.23-1.437a4.343 4.343 0 003.232 1.437c1.293 0 2.44-.564 3.23-1.437a4.34 4.34 0 003.231 1.437c.374 0 .73-.06 1.077-.148v2.228zm-6.462 4.16h6.462V35.6h-6.462v2.08zM26.54 43.92h3.23v-4.16h-3.23v4.16zm-5.38-16.488l1.848-5.352h2.455v5.2c0 1.147-.966 2.08-2.154 2.08-1.135 0-2.068-.852-2.149-1.928zm6.456-5.352h4.308v5.2c0 1.147-.966 2.08-2.154 2.08s-2.154-.933-2.154-2.08v-5.2zm6.462 0h4.308v5.2c0 1.147-.966 2.08-2.154 2.08s-2.154-.933-2.154-2.08v-5.2zm12.867 4.871l-2.154-6.24A1.073 1.073 0 0043.77 20H22.23c-.464 0-.875.286-1.021.712l-2.154 6.24a1.015 1.015 0 00-.056.328c0 1.047.415 1.992 1.077 2.723V44.96c0 .575.481 1.04 1.077 1.04h23.692c.596 0 1.077-.465 1.077-1.04V30.003C46.585 29.272 47 28.327 47 27.28c0-.11-.02-.222-.056-.329zM2 12.75C2 10.406 3.794 8.5 6 8.5s4 1.906 4 4.25v2.125H2V12.75zm2-8.5c0-1.172.897-2.125 2-2.125s2 .953 2 2.125c0 1.172-.897 2.125-2 2.125S4 5.422 4 4.25zM1 17h10c.553 0 1-.475 1-1.063V12.75c0-2.401-1.256-4.494-3.107-5.581A4.368 4.368 0 0010 4.25C10 1.906 8.206 0 6 0S2 1.906 2 4.25c0 1.133.425 2.156 1.107 2.919C1.256 8.256 0 10.349 0 12.75v3.187C0 16.525.447 17 1 17zM64 14.875h-8V12.75c0-2.344 1.794-4.25 4-4.25s4 1.906 4 4.25v2.125zM58 4.25c0-1.172.897-2.125 2-2.125s2 .953 2 2.125c0 1.172-.897 2.125-2 2.125s-2-.953-2-2.125zm4.893 2.919A4.368 4.368 0 0064 4.25C64 1.906 62.206 0 60 0s-4 1.906-4 4.25c0 1.133.425 2.156 1.107 2.919C55.257 8.256 54 10.349 54 12.75v3.187c0 .588.447 1.063 1 1.063h10c.553 0 1-.475 1-1.063V12.75c0-2.401-1.256-4.494-3.107-5.581z"/>
        <g transform="translate(0 48)">
            <mask id="prefix__b" fill="#fff">
                <use xlink:href="#prefix__a"/>
            </mask>
            <path fill="#000" d="M9.868 14.875H1.974V12.75c0-2.344 1.77-4.25 3.947-4.25s3.947 1.906 3.947 4.25v2.125zM3.948 4.25c0-1.172.884-2.125 1.973-2.125s1.974.953 1.974 2.125c0 1.172-.885 2.125-1.974 2.125S3.947 5.422 3.947 4.25zM8.775 7.17A4.402 4.402 0 009.868 4.25C9.868 1.906 8.098 0 5.921 0S1.974 1.906 1.974 4.25c0 1.132.42 2.156 1.092 2.919C1.239 8.256 0 10.349 0 12.75v3.187C0 16.525.44 17 .987 17h9.868c.546 0 .987-.475.987-1.063V12.75c0-2.401-1.24-4.494-3.066-5.581z" mask="url(#prefix__b)"/>
        </g>
        <g transform="translate(54 48)">
            <mask id="prefix__d" fill="#fff">
                <use xlink:href="#prefix__c"/>
            </mask>
            <path fill="#000" d="M9.947 14.875H2.053V12.75c0-2.344 1.77-4.25 3.947-4.25s3.947 1.906 3.947 4.25v2.125zM4.027 4.25c0-1.172.884-2.125 1.973-2.125s1.974.953 1.974 2.125c0 1.172-.885 2.125-1.974 2.125S4.026 5.422 4.026 4.25zM8.854 7.17A4.402 4.402 0 009.947 4.25C9.947 1.906 8.177 0 6 0S2.053 1.906 2.053 4.25c0 1.132.419 2.156 1.092 2.919C1.319 8.256.079 10.349.079 12.75v3.187c0 .588.44 1.063.986 1.063h9.869c.546 0 .987-.475.987-1.063V12.75c0-2.401-1.24-4.494-3.066-5.581z" mask="url(#prefix__d)"/>
        </g>
        <path fill="#000" d="M33 52.857c-11.474 0-20.809-9.132-20.809-20.357S21.526 12.143 33 12.143 53.809 21.275 53.809 32.5 44.474 52.857 33 52.857M33 10c-12.681 0-23 10.094-23 22.5S20.319 55 33 55s23-10.094 23-22.5S45.681 10 33 10M4.962 19C2.37 23.449 1 28.476 1 33.538 1 38.252 2.132 42.781 4.365 47l2.078-.899c-2.083-3.936-3.14-8.163-3.14-12.563 0-4.726 1.277-9.417 3.697-13.568L4.962 19zM32.502 61.812c-6.251 0-12.223-2.01-17.268-5.812L14 57.77C19.406 61.846 25.804 64 32.502 64c6.694 0 13.09-2.153 18.498-6.226l-1.236-1.771c-5.045 3.8-11.015 5.809-17.262 5.809M61.635 47C63.868 42.78 65 38.252 65 33.538 65 28.476 63.63 23.45 61.037 19L59 19.97c2.42 4.15 3.697 8.842 3.697 13.568 0 4.4-1.056 8.627-3.14 12.563l2.078.899zM13 8.443L14.334 10C19.69 6.068 26.146 3.989 33 3.989c6.854 0 13.309 2.079 18.666 6.011L53 8.443C47.258 4.227 40.342 2 33 2c-7.342 0-14.258 2.227-20 6.443"/>
    </g>
</svg>
