<svg xmlns="http://www.w3.org/2000/svg" xmlns:xlink="http://www.w3.org/1999/xlink" width="89" height="61" viewBox="0 0 89 61">
    <defs>
        <path id="prefix__a" d="M0.244 0.619L59.622 0.619 59.622 59.752 0.244 59.752z"/>
    </defs>
    <g fill="none" fill-rule="evenodd">
        <path fill="#000" d="M60.886 29.741l-12.517-7.43a2.217 2.217 0 00-3.064.824c-.623 1.09-.262 2.49.809 3.124l12.516 7.43c.354.211.742.311 1.126.311.772 0 1.524-.406 1.94-1.135.622-1.09.26-2.489-.81-3.124"/>
        <g transform="translate(29)">
            <mask id="prefix__b" fill="#fff">
                <use xlink:href="#prefix__a"/>
            </mask>
            <path fill="#000" d="M29.933 55.303c-13.908 0-25.221-11.267-25.221-25.118 0-13.849 11.314-25.117 25.221-25.117 13.908 0 25.222 11.268 25.222 25.117 0 13.85-11.314 25.118-25.222 25.118zm26.534-40.795a3.043 3.043 0 000-4.303l-5.945-5.92a3.074 3.074 0 00-4.32 0l-.727.723A29.6 29.6 0 0029.932.619 29.6 29.6 0 0014.39 5.008l-.726-.723a3.072 3.072 0 00-4.32 0l-5.944 5.92a3.043 3.043 0 000 4.303l.86.857a29.277 29.277 0 00-4.015 14.82c0 16.303 13.32 29.567 29.69 29.567S59.622 46.49 59.622 30.185a29.299 29.299 0 00-4.015-14.82l.86-.857z" mask="url(#prefix__b)"/>
        </g>
        <path fill="#000" d="M5.84 17h19.32c1.016 0 1.84-.896 1.84-2s-.824-2-1.84-2H5.84C4.824 13 4 13.896 4 15s.823 2 1.84 2M1.84 27h19.32c1.016 0 1.84-.896 1.84-2s-.824-2-1.84-2H1.84C.824 23 0 23.896 0 25s.823 2 1.84 2M1.84 38h19.32c1.016 0 1.84-.896 1.84-2s-.824-2-1.84-2H1.84C.824 34 0 34.896 0 36s.823 2 1.84 2M27 46c0-1.104-.824-2-1.84-2H5.84C4.824 44 4 44.896 4 46s.824 2 1.84 2h19.32c1.016 0 1.84-.896 1.84-2"/>
    </g>
</svg>
