<svg xmlns="http://www.w3.org/2000/svg" xmlns:xlink="http://www.w3.org/1999/xlink" width="66" height="66" viewBox="0 0 66 66">
    <defs>
        <path id="prefix__a" d="M0 0.614L64.391 0.614 64.391 66 0 66z"/>
    </defs>
    <g fill="none" fill-rule="evenodd" transform="translate(1)">
        <mask id="prefix__b" fill="#fff">
            <use xlink:href="#prefix__a"/>
        </mask>
        <path fill="#000" d="M52.628 54.053c-9.339 9.508-23.848 11.35-35.205 4.473-.395-.24-.872-.3-1.313-.167l-10 2.954a1.192 1.192 0 01-1.483-.822 1.226 1.226 0 010-.684L7.535 49.64a1.69 1.69 0 00-.164-1.333C-.787 34.384 3.714 16.383 17.426 8.099c13.712-8.284 31.44-3.713 39.598 10.21 6.757 11.53 4.947 26.248-4.396 35.737v.007zm2.325-43.84a31.83 31.83 0 00-45.499-.063C-.8 20.535-2.958 36.6 4.187 49.393l-2.712 9.48c-.689 2.412.678 4.934 3.053 5.634.815.239 1.68.239 2.495 0l9.343-2.754c15.461 8.89 35.092 3.37 43.848-12.328 7.13-12.785 4.977-28.83-5.261-39.212z" mask="url(#prefix__b)"/>
        <path fill="#000" d="M46.537 33.06l-3.845 11.683a3.039 3.039 0 01-2.894 2.09h-8.826a5.82 5.82 0 01-2.993-.831l-2.305-1.385v-13.74a6.603 6.603 0 004.79-3.857l3.303-6.903c.44-.926.736-1.913.878-2.927l.245-1.774a2.2 2.2 0 011.077.89c.515.83.495 2.15-.053 3.811-.912 2.736-1.19 4.912-.826 6.481a2.563 2.563 0 002.517 1.978 58.76 58.76 0 016.375.501 3.04 3.04 0 012.524 3.956l.033.026zm-24.16 14.643h-5.074V28.497h5.067l.007 19.206zM44.423 25.82c-1.454-.178-4.07-.468-6.157-.52.028-1.417.3-2.817.806-4.141.885-2.638.792-4.866-.271-6.593A5.635 5.635 0 0034.777 12h-.204a2.893 2.893 0 00-2.841 2.063 1.62 1.62 0 00-.053.238l-.337 2.44a6.77 6.77 0 01-.588 1.977l-3.303 6.963a3.37 3.37 0 01-1.83 1.767 2.873 2.873 0 00-2.834-2.268h-5.893A2.852 2.852 0 0014 27.983v20.214A2.852 2.852 0 0016.894 51h5.893a2.852 2.852 0 002.86-2.546l.66.376a9.124 9.124 0 004.698 1.319h8.793a6.333 6.333 0 006.032-4.358l3.852-11.683a6.334 6.334 0 00-5.285-8.268l.026-.02z"/>
    </g>
</svg>
