<svg xmlns="http://www.w3.org/2000/svg" width="38" height="64" viewBox="0 0 38 64">
    <path fill="#FD8400" d="M36.566 47.069l-.074.085L23.626 61.81c-2.393 2.725-6.619 2.753-9.05.085l-.076-.085L1.634 47.154c-2.212-2.518-1.962-6.352.558-8.563 2.492-2.185 6.27-1.965 8.493.475l.075.084 2.288 2.605.169-35.716c.015-3.351 2.746-6.055 6.1-6.039 3.317.016 6.001 2.69 6.04 5.993l.001.104-.168 35.531 2.176-2.478c2.187-2.49 5.961-2.763 8.482-.632l.085.073c2.492 2.186 2.765 5.959.633 8.478z" opacity=".297"/>
</svg>
