<svg xmlns="http://www.w3.org/2000/svg" width="64" height="38" viewBox="0 0 64 38">
    <path fill="#FD8400" d="M47.069 1.434l.085.074L61.81 14.374c2.725 2.393 2.753 6.619.085 9.05l-.085.076-14.655 12.866c-2.518 2.212-6.352 1.962-8.563-.558-2.185-2.492-1.965-6.27.475-8.493l.084-.075 2.605-2.288-35.716-.169c-3.351-.015-6.055-2.746-6.039-6.1.016-3.317 2.69-6.001 5.993-6.04l.104-.001 35.531.168-2.478-2.176c-2.49-2.187-2.763-5.961-.632-8.482l.073-.085c2.186-2.492 5.959-2.765 8.478-.633z" opacity=".297"/>
</svg>
