<svg xmlns="http://www.w3.org/2000/svg" width="54" height="80" viewBox="0 0 54 80">
    <g>
        <path d="M28.55 68c2.987 0 5.99-.32 9.008-.96 3.019-.64 5.736-1.697 8.15-3.17 2.415-1.473 4.385-3.41 5.91-5.81 1.526-2.402 2.288-5.395 2.288-8.98 0-2.178-.35-4.227-1.048-6.148-.7-1.92-1.7-3.601-3.003-5.042-1.303-1.44-2.86-2.625-4.67-3.554-1.812-.928-3.83-1.553-6.054-1.873v-.192c3.495-1.088 6.307-2.897 8.436-5.426 2.13-2.53 3.194-5.715 3.194-9.557 0-3.714-.731-6.691-2.193-8.932-1.462-2.241-3.368-3.986-5.72-5.235-2.35-1.248-5.004-2.08-7.959-2.497C31.934.208 28.995 0 26.072 0H.906v68H28.55zm-2.002-40.82H15.777V12.679H25.88c1.144 0 2.32.112 3.527.336 1.207.224 2.288.592 3.241 1.105.953.512 1.732 1.232 2.335 2.16.604.93.906 2.098.906 3.506 0 1.345-.27 2.497-.81 3.458-.54.96-1.255 1.729-2.145 2.305-.89.576-1.89.992-3.003 1.249-1.112.256-2.24.384-3.384.384zm2.574 28.142H15.777V39.859h11.248c1.207 0 2.51.096 3.908.288 1.398.192 2.701.544 3.909 1.056 1.207.513 2.208 1.265 3.002 2.257.795.993 1.192 2.29 1.192 3.89 0 1.473-.302 2.722-.906 3.746-.604 1.025-1.382 1.857-2.335 2.497-.953.64-2.018 1.089-3.194 1.345-1.175.256-2.335.384-3.479.384zM.906 80L53.906 80 53.906 76 .906 76z"/>
    </g>
</svg>
