<svg xmlns="http://www.w3.org/2000/svg" width="117" height="60" viewBox="0 0 117 60">
    <g>
        <path d="M58.499 6C44.989 6 34 16.99 34 30.5S44.99 55 58.499 55C72.01 55 83 44.01 83 30.5S72.01 6 58.499 6zm0 45.178c-11.4 0-20.676-9.275-20.676-20.678 0-11.4 9.274-20.678 20.676-20.678S79.177 19.098 79.177 30.5c0 11.402-9.276 20.678-20.678 20.678z"/>
        <path d="M70.461 27.317l-1.935.274c-.208.03-.418.066-.636.066-3.61 0-6.547-2.938-6.547-6.55 0-.224.037-.44.095-.872l.252-1.906-2.187-.244c-.328-.045-.66-.085-1.003-.085C51.606 18 46 23.608 46 30.5 46 37.393 51.607 43 58.5 43S71 37.392 71 30.5c0-.333-.039-.653-.083-.974l-.456-2.21zM58.501 39.24c-4.822 0-8.742-3.922-8.742-8.743 0-4.518 3.447-8.248 7.85-8.695.342 5.133 4.46 9.249 9.59 9.59-.449 4.402-4.18 7.848-8.698 7.848z"/>
        <path d="M117 29.729C77.634-9.91 39.364-9.91.001 29.729l.27.271-.271.272C19.683 50.092 39.091 60 58.5 60s38.816-9.908 58.5-29.728l-.27-.272.27-.271zM5.182 30C41.486-5.06 75.511-5.06 111.818 30 75.51 65.06 41.486 65.06 5.182 30z"/>
    </g>
</svg>
