<svg xmlns="http://www.w3.org/2000/svg" width="615" height="437" viewBox="0 0 615 437">
    <g fill="none" fill-rule="evenodd">
        <path fill="#FD8400" d="M543.366 162.998l-5.658 13.186-66.713 73.23-3.061-30.847v-27.314l9.429-18.837 14.86-18.163s-29.005 3.094-32.776 11.57c-3.772 8.476-14.145 25.43-13.201 48.035.943 22.605.943 45.21-6.612 48.983-11.304 5.654-20.712 15.357-29.634 24.09 15.891-2.894 15.633 17.398 13.929 27.067.693-3.935 18.85-12.022 22.317-14.431v28.257s12.164 2.776 12.384 2.825c12.512 2.715 11.37 10.883 3.283 19.604 7.495-1.167 14.703-.735 22.223-1.293 10.23-.76 20.465-1.437 30.704-2.064 34.651-2.12 42.786-12.008 51.273-24.018 9.897-14.003 14.77-35.796 16.456-52.061 1.71-16.477 5.81-32.794 5.403-49.44-.396-16.122-5.526-33.702-19.311-43.419-10.59-7.466-18.165-9.485-27.654-18.96-7.78-7.773 2.359 3.058 2.359 3.058"/>
        <path stroke="#000" stroke-linecap="round" stroke-linejoin="round" stroke-width="3.026" d="M615 358.656L448.351 359.591 491.243 367.303 419.781 389.253 327.071 364.861 326 282.253 418.71 301.42 419.522 372.912"/>
        <path stroke="#000" stroke-linecap="round" stroke-linejoin="round" stroke-width="3" d="M231.51 245.253s-4.363 6.4-10.367 9.467c-10.864 5.554-27.094 9.726-32.53 12.875-9.55 5.531-21.98 18.302-27.427 32.815-17.814 47.48-17.58 80.295-14.766 88.673 2.813 8.378 87.902 30.721 90.715 27.93 2.814-2.793 9.375-12.568-.001-15.362-9.377-2.793-46.882-7.447-56.26-25.135-9.376-17.688 20.397-57.951 20.397-57.951M260.904 300.253c-6.488 11.436-.683 21.078 3.63 31.836 4.462 11.13-2.516 19.338-4.342 30.164M267 281.253s10.97 13.255 12.34 31.393c1.175 15.554-4.112 43.952 11.66 42.557M550 214.253l-17.87 92.313-64.128 22.464-7.36 3.16c-2.103-1.054-23.83-4.563-28.385 5.966-2.804 6.482-5.257 19.306-5.257 19.306s2.104 3.51 3.504.702c1.401-2.808 5.607-14.392 6.659-15.795 0 0-.35 7.02 2.103 7.02"/>
        <path stroke="#000" stroke-linecap="round" stroke-linejoin="round" stroke-width="3" d="M539.74 138.253s-5.559 13.423 2.085 21.196c9.325 9.476 16.766 11.496 27.173 18.963 13.544 9.717 18.585 27.3 18.974 43.424.4 16.647-3.629 32.967-5.308 49.444-1.657 16.267-6.446 38.062-16.17 52.067-8.338 12.012-16.33 21.9-50.38 24.021-34.05 2.119-52.114 3.885-52.114 3.885"/>
        <path stroke="#000" stroke-linecap="round" stroke-linejoin="round" stroke-width="3" d="M474.981 321.253L470 249.853 539 160.253 538.997 199.452 523.348 198.053 534.73 216.252 476.405 251.953M292 239.253s-5.91 8.823-2.747 15.686c3.162 6.864-1.828 9.406-6.034 7.917-4.206-1.488-7.436 7.421-10.637 10.022-3.204 2.6-12.413 6.809-19.025.735-6.612-6.072-20.248-11.472-25.002-3.965-4.755 7.509-6.555 10.605-6.555 10.605M490.513 98.253c-12.868 7.692-2.13 22.018-8.285 32.536-1.217 2.078 2.656 2.893 6.264 1.809 3.61-1.084 3.832 5.966 4.922 8.408 1.088 2.44 5.54 9.974 8.586 10.247"/>
        <path fill="#000" d="M505.495 94.987c-7.665-3.386-11.143 3.31-17.889-4.51-4.32-5.011-11.251-16.098-5.29-22.368 11.964-12.577 27.162 2.904 38.57 5.873 6.982 1.819 16.347-.92 22.478 3.749 4.502 3.43 5.33 7.616 7.17 13.046 1.84 5.431 3.127 8.072 4.327 17.992 1.2 9.921 2.443 16.201-1.87 21.449-4.311 5.248-12.436 10.556-12.21 3.972.226-6.584 2.335-11.376.494-16.807-1.839-5.431-3.221-12.41-7.628-11.5-4.39.906-9.647 1.27-9.32 6.942.876 15.195-9.044 4.561-10.65-3.548-2.345-11.842-4.82-12.8-8.182-14.29M439.135 364.974c.4 1.03 1.556 1.542 2.587 1.143 1.029-.398 1.542-1.556 1.143-2.586-.398-1.03-1.557-1.542-2.585-1.143-1.03.398-1.544 1.556-1.145 2.586M276.135 245.293c.4.773 1.556 1.157 2.586.858 1.03-.299 1.542-1.167 1.144-1.94-.399-.772-1.557-1.156-2.586-.857-1.03.299-1.543 1.167-1.144 1.94M285.14 400.385c.35.75 1.242 1.077 1.992.727.752-.35 1.077-1.242.727-1.993-.35-.751-1.241-1.075-1.992-.726-.75.35-1.076 1.242-.726 1.992"/>
        <path stroke="#000" stroke-linecap="round" stroke-linejoin="round" stroke-width="3" d="M405 291.253c.074.018 17.584-12.505 20.345-14.779 8-6.588 15.95-15.423 19.172-25.802 2.601-8.381.35-17.722.654-26.302.418-11.684 1.342-23.475 3.972-34.892C455.743 152.742 492 155.29 492 155.29s-23.162 25.836-23.864 40.613c-.702 14.777.703 41.283.703 41.283"/>
        <path fill="#000" d="M296 229.416c8.557-7.353 4.77-19.513-1.233-27.364-10.843-14.186-41.162-36.029-57.19-17.95-7.751 8.743-17.38 19.087-18.475 31.772-.553 6.417 1.17 13.737 4.387 19.283 2.22 3.827 6.043 11.765 8.152 11.05 1.934-.654 8.652-6.897 9.23-8.902 1.934-6.69 10.607-16.832 17.934-11.047 2.446 1.951-.71 23.08 6.064 16.525 1.34-1.3 6.905-10.056 9.162-9.384 6.815 2.028 16.122 1.038 21.97-3.983M208.903 179.887s7.355-5.527 13.71-2.95c6.355 2.579 12.414 6.905.882 19.25-11.532 12.345-23.975 12.279-30.016 25.612-2.567 5.667-3.915 12.372-7.426 17.454-2.024-4.694-2.353-11.126-1.836-16.237 1.108-10.967 20.43-40.288 24.686-43.129"/>
        <path stroke="#000" stroke-linecap="round" stroke-linejoin="round" stroke-width="3" d="M448 366.253L453 367.253M429 368.253L444 372.253"/>
        <path stroke="#000" stroke-linecap="round" stroke-linejoin="round" stroke-width="3.026" d="M444 349.253c.286 2.041.286 3.792 2 2.625M448 351.122c1.458.374 3.792 0 7-1.87M458 292.253s-30.72 24.132-39 27"/>
        <path stroke="#000" stroke-linecap="round" stroke-linejoin="round" stroke-width="3" d="M523 180.334s-17.892 7.792-26.552-8.03c-5.493-10.037 6.408-14.051 6.408-14.051M244.16 402.962c9.74-5.67 24.148-1.266 34.084 1.959 4.971 1.616 15.505 19.83 8.218 17.651-.577-1.702-5.867-5.593-8.719-8.081-2.853-2.488-10.33-4.284-8.201-4.232 18.33.456 2.82 7.754 2.82 7.754s-.47 5.015-4.701 3.647c-4.23-1.368-7.52-2.736-14.1-3.191-6.58-.456-11.752.455-11.752.455s-11.35 4.376 5.135 7.432l90.705 9.897L364 389.382l-81.274-9.13-13.5 16.742 8.583 1.5M497 117.253c.748 2.631 2.662 3.76 5.151 3.985 2.84.254 3.849-2.832 3.849-2.832"/>
        <path fill="#FFECD8" d="M382 75.753c0 4.694-4.03 8.5-9 8.5s-9-3.806-9-8.5c0-4.695 4.03-8.5 9-8.5s9 3.805 9 8.5"/>
        <path fill="#FD8400" d="M321.471 100.058c-2.734-4.228-12.471.03-12.471 11.051v26.146h23.988s4.707-.664 8.75 7.696c2.425 5.015 7.786 34.833 12.139 50.219 3.325 11.758 30.838 15.768 39.51 8.294 8.173-7.046 7.829-62.773 8.085-69.453.32-8.374 19.019-11.623 25.336-.966 1.033-14.886-2.448-22.576-2.448-22.576s-3.156-12.688-21.986-13.2c-18.83-.513-23.216 11.792-23.216 11.792s-13.67 26.913-21.924 29.476c-8.254 2.564-29.481-28.77-35.763-38.48"/>
        <path stroke="#000" stroke-linecap="round" stroke-linejoin="round" stroke-width="3" d="M293 139.473h-61.761s-10.05-2.902-4.639 12.331c3.106 8.743 5.768 17.559 7.986 26.449"/>
        <path fill="#000" d="M377.653 21.939c-14.077-9.617-32.855-5.724-44.924 1.982-13.116 8.377-13.07 28.761-5.96 40.483 5.919 9.754 17.656-22.302 18.16-21.533 3.774 5.757 13.445 12.626 17.9 15.421 4.889 3.069 13.806-1.88 18.308-8.217.03-.04 4.935 4.354 4.94 4.305 1.21-10.426 3.125-24.55-8.424-32.441"/>
        <path stroke="#000" stroke-linecap="round" stroke-linejoin="round" stroke-width="3" d="M379 93.273c-13.153 24.943-38.268 10.817-46-16.02M426 142.253c-.624 25.468-1.323 45.096-6.489 70.09-3.367 16.296-19.256 22.524-33.679 22.755-12.601.2-17.272.35-29.832-.514"/>
        <path fill="#000" d="M393.626 47.962c-.48.208-.94.473-1.369.8-3.641 2.78-2.651 13.511 1.353 15.063 5.61-2.458 7.71 9.389 10.043 19.162.7 2.93 4.715 5.613 5.214 9.266 7.04-7.466 4.091-31.27-1.447-38.702-3.767-5.054-9.033-7.649-13.794-5.589"/>
        <path stroke="#000" stroke-linecap="round" stroke-linejoin="round" stroke-width="3" d="M388.587 67.138c2.419 3.711 1.656 8.885-1.706 11.555s-8.048 1.827-10.469-1.885c-2.418-3.71-1.654-8.883 1.708-11.555M340 145.253c-.742-3.415-1.994-6.619-9.47-6.619h-27.418s-.252-10.692 0-27.495c.249-16.576 15.043-10.976 15.043-10.976"/>
        <path fill="#000" d="M362 67.753c0 .829-.895 1.5-2 1.5s-2-.671-2-1.5.895-1.5 2-1.5 2 .671 2 1.5M345 70.753c0 .828-.896 1.5-2 1.5s-2-.672-2-1.5c0-.829.896-1.5 2-1.5s2 .671 2 1.5"/>
        <path fill="#FD8400" fill-opacity=".326" d="M125.308 84.253s10.889 5.005 13.402 15.018c2.512 10.012.838 48.393.838 48.393L145 160.768l-9.463 20.485-17.769-33.589L113 111.987l4.768-13.55 7.54-14.184z"/>
        <path fill="#FD8400" d="M112.728 163.448l-4.177 4.168 11.695 29.173 25.48 3.897s5.982 23.217-7.978 22.553c-13.96-.663-86.416-3.317-97.718-9.287-11.3-5.97-3.987-65.67.002-93.531 1.912-13.36 8.143-24.005 19.697-31.01 12.244-7.424 25.624-10.035 34.506 3.122-.062.059-.753-.76-.742-.77 3.745 13.58 7.262 27.23 10.882 40.844l8.353 30.84z"/>
        <path stroke="#000" stroke-linecap="round" stroke-linejoin="round" stroke-width="3" d="M69 187.253s9.724-67.692 6.25-73M108.57 46.913c0 5.083 2.972 8.292 8.237 8.34 2.365.02 4.51-.78 6.026-2.605.548-.66 2.62-7.415 2.427-7.427l4.216.231c.373 3.568-.192 8.523 4.324 9.446 9.31 1.902 9.521-7.014 10.2-13.353-4.787.45-11.402-.895-14.524 3.676h-4.216c-.452 0-1.233-1.864-1.642-2.17-3.334-2.496-10.525-1.6-14.638-1.965h-.176L94 29.253M131.055 21.253c4.562 6.481 2.463 15 2.463 15s-1.926-4.713-6.518-2.746M128.436 53.253c1.143 4.037 1.088 13.95-5.436 10.146"/>
        <path stroke="#000" stroke-linecap="round" stroke-linejoin="round" stroke-width="3" d="M121.554 74.245c-3.928 10.78-17.466 4.93-23.837.058-4.268-3.266-8.6-10.508-13.983-11.857-9.464-2.372-7.618 17.764-14.453 21.865-6.649 3.987-25.26 7.976-29.25 35.895-3.988 27.918-11.3 87.743 0 93.726 11.302 5.982 83.756 8.642 97.717 9.307 13.96.664 7.978-22.602 7.978-22.602l-85.09-15.288"/>
        <path fill="#000" d="M114.196 25.041c1.758.895 14.045 4.156 20.523-2.667C152.45 3.699 93.18-7.614 79.724 6.767c-6.381 6.82-9.6 17.941-8.518 32.15.91 11.914 9.174 16.657 11.705 16.319 2.532-.34.724-10.23.24-15.164-.943-9.6 1.836-12.005 6.434-11.503 7.956.868 1.718 12.963 8.413 13.972 4.62.696 10.637-20.328 16.198-17.5"/>
        <path stroke="#000" stroke-linecap="round" stroke-linejoin="round" stroke-width="3" d="M121.464 111.032s-18.21-17.611-16.327-18.966c1.884-1.354 11.931-4.741 14.443-1.354 2.512 3.387-5.651 18.965-5.651 20.998 0 2.032 4.395 35.898 4.395 35.898L129 167.253M36.977 213.253L0 246.253c24.136-1.37 214 0 214 0M0 255.253c24.315-2.25 152 0 152 0"/>
        <path stroke="#000" stroke-linecap="round" stroke-linejoin="round" stroke-width="3.026" d="M105 159.253L103 159.739M112 36.355c1.594-1.223 3.116-2.26 5.288-2.083 1.862.151 3.96 1.323 4.712 2.98"/>
        <path stroke="#000" stroke-linecap="round" stroke-linejoin="round" stroke-width="3" d="M198.246 170.253L184 145.9v-96.19c.141-1.325.727-2.119 1.758-2.38 1.031-.261 2.028.13 2.99 1.176l38.92 53.89c.896 1.256 1.496 2.383 1.8 3.382.304.998.482 2.425.532 4.28v21.446M191 172.253l-13.756-26-21.367.736c-.88-.013-1.477.105-1.79.353-.312.248.212 1.662 1.572 4.243l3.414 6.767M151 162.557c4.586-.406 7.892-.406 9.916 0 5.566 1.115 10.197 4.139 13.368 6.83 7.35 6.242 7.443 8.938 5.96 9.772-1.482.834-2.595-4.085-7.386-7.293M125 86.253c23.299 21.745 15.178 20.994 17 63"/>
        <path stroke="#000" stroke-linecap="round" stroke-linejoin="round" stroke-width="3" d="M168.68 172.253c3.892 1.684 7.056 3.612 9.493 5.783 2.436 2.171 2.436 3.243 0 3.216-2.79-.55-10.619-5.542-13.32-5.91-10.578-1.441 9.87 4.138 2.805 5.233-3.543.549-18.318-6.91-21.658-6.674M174 183.253L181.733 198.986M174 152.253L177.875 159.128M173 159.253L175.775 163.065"/>
        <path stroke="#000" stroke-linecap="round" stroke-linejoin="round" stroke-width="3.026" d="M152 218.253s6.384-.547 11.704-1.093c5.321-.547 12.237 0 13.833-2.732 1.596-2.73 2.66-16.386-1.064-16.933-3.724-.546-7.448 0-7.448 0M156 203.253s5.5-6.455 7-6.952c1.5-.497 4 2.98 4 2.98"/>
    </g>
</svg>
