<svg xmlns="http://www.w3.org/2000/svg" width="98" height="98" viewBox="0 0 98 98">
    <g>
        <path d="M31.03 57.794c-6.177 0-11.177 5-11.177 11.177 0 6.176 5 11.176 11.176 11.176 6.177 0 11.177-5 11.177-11.176 0-6.177-5-11.177-11.177-11.177zm0 19.412c-4.56 0-8.236-3.677-8.236-8.235 0-4.56 3.677-8.236 8.235-8.236 4.56 0 8.236 3.677 8.236 8.236 0 4.558-3.677 8.235-8.236 8.235z"/>
        <path d="M73.382 50h10.736c.735 2.941 3.235 5.147 6.323 5.147 3.677 0 6.618-2.941 6.618-6.618 0-3.676-2.941-6.617-6.618-6.617-3.088 0-5.735 2.206-6.323 5.147H73.382V17.794h10.736c.735 2.941 3.235 5.147 6.323 5.147 3.677 0 6.618-2.941 6.618-6.617 0-3.677-2.941-6.618-6.618-6.618-3.088 0-5.735 2.206-6.323 5.147H71.912c-.883 0-1.47.588-1.47 1.47V47.06H47.646c-.441-3.53-.735-6.912-.735-9.853h1.912c.882 0 1.47-.588 1.47-1.47v-9.707c0-.882-.588-1.47-1.47-1.47h-2.06l6.912-22.647c.148-.441 0-.883-.294-1.324 0-.294-.44-.588-.882-.588H35.294c-.882 0-1.47.588-1.47 1.47v11.324h-6.03V1.471c0-.883-.588-1.471-1.47-1.471H9.559c-.441 0-.883.294-1.177.588-.294.441-.44.883-.294 1.324L15 24.559h-2.059c-.882 0-1.47.588-1.47 1.47v9.706c0 .883.588 1.47 1.47 1.47H15C16.03 50 11.324 67.354 6.176 84.413H1.471C.588 84.412 0 85 0 85.882v9.706c0 .883.588 1.47 1.47 1.47h58.971c.883 0 1.47-.587 1.47-1.47v-9.706c0-.882-.587-1.47-1.47-1.47h-4.559c-2.94-11.47-6.03-23.824-7.647-34.412h22.353v30.735c0 .883.588 1.47 1.47 1.47h12.06c.735 2.942 3.235 5.148 6.323 5.148 3.677 0 6.618-2.941 6.618-6.618 0-3.676-2.941-6.617-6.618-6.617-3.088 0-5.735 2.206-6.323 5.147H73.382V50zm17.06-5.147c2.058 0 3.676 1.618 3.676 3.676 0 2.06-1.618 3.677-3.677 3.677s-3.676-1.618-3.676-3.677c.147-2.058 1.764-3.676 3.676-3.676zm0-32.206c2.058 0 3.676 1.618 3.676 3.677C94.118 18.382 92.5 20 90.44 20s-3.676-1.618-3.676-3.676c.147-2.06 1.764-3.677 3.676-3.677zm-65.59-9.706v11.324c0 .882.59 1.47 1.472 1.47h8.97c.882 0 1.47-.588 1.47-1.47V2.94h13.677L43.824 24.56H18.235L11.471 2.94h13.382zm34.119 91.177H2.94v-6.765h56.03v6.765zM14.41 27.5H47.5v6.765H14.412V27.5zM9.266 84.412c5.147-17.06 9.706-34.265 8.676-47.206h26.177c0 12.5 4.411 30.735 8.676 47.206H9.264zm81.176-7.206c2.059 0 3.677 1.618 3.677 3.676 0 2.06-1.618 3.677-3.677 3.677s-3.676-1.618-3.676-3.677c.147-2.058 1.764-3.676 3.676-3.676z"/>
    </g>
</svg>
